<?xml version="1.0" encoding="utf-8" standalone="no"?>
<!DOCTYPE svg PUBLIC "-//W3C//DTD SVG 1.1//EN"
  "http://www.w3.org/Graphics/SVG/1.1/DTD/svg11.dtd">
<!-- Created with matplotlib (https://matplotlib.org/) -->
<svg height="288pt" version="1.1" viewBox="0 0 432 288" width="432pt" xmlns="http://www.w3.org/2000/svg" xmlns:xlink="http://www.w3.org/1999/xlink">
 <defs>
  <style type="text/css">
*{stroke-linecap:butt;stroke-linejoin:round;}
  </style>
 </defs>
 <g id="figure_1">
  <g id="patch_1">
   <path d="M 0 288 
L 432 288 
L 432 0 
L 0 0 
z
" style="fill:#ffffff;"/>
  </g>
  <g id="axes_1">
   <g id="patch_2">
    <path d="M 54 252 
L 388.8 252 
L 388.8 34.56 
L 54 34.56 
z
" style="fill:#ffffff;"/>
   </g>
   <g id="matplotlib.axis_1">
    <g id="xtick_1">
     <g id="line2d_1">
      <defs>
       <path d="M 0 0 
L 0 3.5 
" id="m94144a3944" style="stroke:#000000;stroke-width:0.8;"/>
      </defs>
      <g>
       <use style="stroke:#000000;stroke-width:0.8;" x="69.218182" xlink:href="#m94144a3944" y="252"/>
      </g>
     </g>
     <g id="text_1">
      <!-- 0 -->
      <defs>
       <path d="M 31.78125 66.40625 
Q 24.171875 66.40625 20.328125 58.90625 
Q 16.5 51.421875 16.5 36.375 
Q 16.5 21.390625 20.328125 13.890625 
Q 24.171875 6.390625 31.78125 6.390625 
Q 39.453125 6.390625 43.28125 13.890625 
Q 47.125 21.390625 47.125 36.375 
Q 47.125 51.421875 43.28125 58.90625 
Q 39.453125 66.40625 31.78125 66.40625 
z
M 31.78125 74.21875 
Q 44.046875 74.21875 50.515625 64.515625 
Q 56.984375 54.828125 56.984375 36.375 
Q 56.984375 17.96875 50.515625 8.265625 
Q 44.046875 -1.421875 31.78125 -1.421875 
Q 19.53125 -1.421875 13.0625 8.265625 
Q 6.59375 17.96875 6.59375 36.375 
Q 6.59375 54.828125 13.0625 64.515625 
Q 19.53125 74.21875 31.78125 74.21875 
z
" id="DejaVuSans-48"/>
      </defs>
      <g transform="translate(66.036932 266.598437)scale(0.1 -0.1)">
       <use xlink:href="#DejaVuSans-48"/>
      </g>
     </g>
    </g>
    <g id="xtick_2">
     <g id="line2d_2">
      <g>
       <use style="stroke:#000000;stroke-width:0.8;" x="109.208148" xlink:href="#m94144a3944" y="252"/>
      </g>
     </g>
     <g id="text_2">
      <!-- 1000 -->
      <defs>
       <path d="M 12.40625 8.296875 
L 28.515625 8.296875 
L 28.515625 63.921875 
L 10.984375 60.40625 
L 10.984375 69.390625 
L 28.421875 72.90625 
L 38.28125 72.90625 
L 38.28125 8.296875 
L 54.390625 8.296875 
L 54.390625 0 
L 12.40625 0 
z
" id="DejaVuSans-49"/>
      </defs>
      <g transform="translate(96.483148 266.598437)scale(0.1 -0.1)">
       <use xlink:href="#DejaVuSans-49"/>
       <use x="63.623047" xlink:href="#DejaVuSans-48"/>
       <use x="127.246094" xlink:href="#DejaVuSans-48"/>
       <use x="190.869141" xlink:href="#DejaVuSans-48"/>
      </g>
     </g>
    </g>
    <g id="xtick_3">
     <g id="line2d_3">
      <g>
       <use style="stroke:#000000;stroke-width:0.8;" x="149.198115" xlink:href="#m94144a3944" y="252"/>
      </g>
     </g>
     <g id="text_3">
      <!-- 2000 -->
      <defs>
       <path d="M 19.1875 8.296875 
L 53.609375 8.296875 
L 53.609375 0 
L 7.328125 0 
L 7.328125 8.296875 
Q 12.9375 14.109375 22.625 23.890625 
Q 32.328125 33.6875 34.8125 36.53125 
Q 39.546875 41.84375 41.421875 45.53125 
Q 43.3125 49.21875 43.3125 52.78125 
Q 43.3125 58.59375 39.234375 62.25 
Q 35.15625 65.921875 28.609375 65.921875 
Q 23.96875 65.921875 18.8125 64.3125 
Q 13.671875 62.703125 7.8125 59.421875 
L 7.8125 69.390625 
Q 13.765625 71.78125 18.9375 73 
Q 24.125 74.21875 28.421875 74.21875 
Q 39.75 74.21875 46.484375 68.546875 
Q 53.21875 62.890625 53.21875 53.421875 
Q 53.21875 48.921875 51.53125 44.890625 
Q 49.859375 40.875 45.40625 35.40625 
Q 44.1875 33.984375 37.640625 27.21875 
Q 31.109375 20.453125 19.1875 8.296875 
z
" id="DejaVuSans-50"/>
      </defs>
      <g transform="translate(136.473115 266.598437)scale(0.1 -0.1)">
       <use xlink:href="#DejaVuSans-50"/>
       <use x="63.623047" xlink:href="#DejaVuSans-48"/>
       <use x="127.246094" xlink:href="#DejaVuSans-48"/>
       <use x="190.869141" xlink:href="#DejaVuSans-48"/>
      </g>
     </g>
    </g>
    <g id="xtick_4">
     <g id="line2d_4">
      <g>
       <use style="stroke:#000000;stroke-width:0.8;" x="189.188082" xlink:href="#m94144a3944" y="252"/>
      </g>
     </g>
     <g id="text_4">
      <!-- 3000 -->
      <defs>
       <path d="M 40.578125 39.3125 
Q 47.65625 37.796875 51.625 33 
Q 55.609375 28.21875 55.609375 21.1875 
Q 55.609375 10.40625 48.1875 4.484375 
Q 40.765625 -1.421875 27.09375 -1.421875 
Q 22.515625 -1.421875 17.65625 -0.515625 
Q 12.796875 0.390625 7.625 2.203125 
L 7.625 11.71875 
Q 11.71875 9.328125 16.59375 8.109375 
Q 21.484375 6.890625 26.8125 6.890625 
Q 36.078125 6.890625 40.9375 10.546875 
Q 45.796875 14.203125 45.796875 21.1875 
Q 45.796875 27.640625 41.28125 31.265625 
Q 36.765625 34.90625 28.71875 34.90625 
L 20.21875 34.90625 
L 20.21875 43.015625 
L 29.109375 43.015625 
Q 36.375 43.015625 40.234375 45.921875 
Q 44.09375 48.828125 44.09375 54.296875 
Q 44.09375 59.90625 40.109375 62.90625 
Q 36.140625 65.921875 28.71875 65.921875 
Q 24.65625 65.921875 20.015625 65.03125 
Q 15.375 64.15625 9.8125 62.3125 
L 9.8125 71.09375 
Q 15.4375 72.65625 20.34375 73.4375 
Q 25.25 74.21875 29.59375 74.21875 
Q 40.828125 74.21875 47.359375 69.109375 
Q 53.90625 64.015625 53.90625 55.328125 
Q 53.90625 49.265625 50.4375 45.09375 
Q 46.96875 40.921875 40.578125 39.3125 
z
" id="DejaVuSans-51"/>
      </defs>
      <g transform="translate(176.463082 266.598437)scale(0.1 -0.1)">
       <use xlink:href="#DejaVuSans-51"/>
       <use x="63.623047" xlink:href="#DejaVuSans-48"/>
       <use x="127.246094" xlink:href="#DejaVuSans-48"/>
       <use x="190.869141" xlink:href="#DejaVuSans-48"/>
      </g>
     </g>
    </g>
    <g id="xtick_5">
     <g id="line2d_5">
      <g>
       <use style="stroke:#000000;stroke-width:0.8;" x="229.178049" xlink:href="#m94144a3944" y="252"/>
      </g>
     </g>
     <g id="text_5">
      <!-- 4000 -->
      <defs>
       <path d="M 37.796875 64.3125 
L 12.890625 25.390625 
L 37.796875 25.390625 
z
M 35.203125 72.90625 
L 47.609375 72.90625 
L 47.609375 25.390625 
L 58.015625 25.390625 
L 58.015625 17.1875 
L 47.609375 17.1875 
L 47.609375 0 
L 37.796875 0 
L 37.796875 17.1875 
L 4.890625 17.1875 
L 4.890625 26.703125 
z
" id="DejaVuSans-52"/>
      </defs>
      <g transform="translate(216.453049 266.598437)scale(0.1 -0.1)">
       <use xlink:href="#DejaVuSans-52"/>
       <use x="63.623047" xlink:href="#DejaVuSans-48"/>
       <use x="127.246094" xlink:href="#DejaVuSans-48"/>
       <use x="190.869141" xlink:href="#DejaVuSans-48"/>
      </g>
     </g>
    </g>
    <g id="xtick_6">
     <g id="line2d_6">
      <g>
       <use style="stroke:#000000;stroke-width:0.8;" x="269.168015" xlink:href="#m94144a3944" y="252"/>
      </g>
     </g>
     <g id="text_6">
      <!-- 5000 -->
      <defs>
       <path d="M 10.796875 72.90625 
L 49.515625 72.90625 
L 49.515625 64.59375 
L 19.828125 64.59375 
L 19.828125 46.734375 
Q 21.96875 47.46875 24.109375 47.828125 
Q 26.265625 48.1875 28.421875 48.1875 
Q 40.625 48.1875 47.75 41.5 
Q 54.890625 34.8125 54.890625 23.390625 
Q 54.890625 11.625 47.5625 5.09375 
Q 40.234375 -1.421875 26.90625 -1.421875 
Q 22.3125 -1.421875 17.546875 -0.640625 
Q 12.796875 0.140625 7.71875 1.703125 
L 7.71875 11.625 
Q 12.109375 9.234375 16.796875 8.0625 
Q 21.484375 6.890625 26.703125 6.890625 
Q 35.15625 6.890625 40.078125 11.328125 
Q 45.015625 15.765625 45.015625 23.390625 
Q 45.015625 31 40.078125 35.4375 
Q 35.15625 39.890625 26.703125 39.890625 
Q 22.75 39.890625 18.8125 39.015625 
Q 14.890625 38.140625 10.796875 36.28125 
z
" id="DejaVuSans-53"/>
      </defs>
      <g transform="translate(256.443015 266.598437)scale(0.1 -0.1)">
       <use xlink:href="#DejaVuSans-53"/>
       <use x="63.623047" xlink:href="#DejaVuSans-48"/>
       <use x="127.246094" xlink:href="#DejaVuSans-48"/>
       <use x="190.869141" xlink:href="#DejaVuSans-48"/>
      </g>
     </g>
    </g>
    <g id="xtick_7">
     <g id="line2d_7">
      <g>
       <use style="stroke:#000000;stroke-width:0.8;" x="309.157982" xlink:href="#m94144a3944" y="252"/>
      </g>
     </g>
     <g id="text_7">
      <!-- 6000 -->
      <defs>
       <path d="M 33.015625 40.375 
Q 26.375 40.375 22.484375 35.828125 
Q 18.609375 31.296875 18.609375 23.390625 
Q 18.609375 15.53125 22.484375 10.953125 
Q 26.375 6.390625 33.015625 6.390625 
Q 39.65625 6.390625 43.53125 10.953125 
Q 47.40625 15.53125 47.40625 23.390625 
Q 47.40625 31.296875 43.53125 35.828125 
Q 39.65625 40.375 33.015625 40.375 
z
M 52.59375 71.296875 
L 52.59375 62.3125 
Q 48.875 64.0625 45.09375 64.984375 
Q 41.3125 65.921875 37.59375 65.921875 
Q 27.828125 65.921875 22.671875 59.328125 
Q 17.53125 52.734375 16.796875 39.40625 
Q 19.671875 43.65625 24.015625 45.921875 
Q 28.375 48.1875 33.59375 48.1875 
Q 44.578125 48.1875 50.953125 41.515625 
Q 57.328125 34.859375 57.328125 23.390625 
Q 57.328125 12.15625 50.6875 5.359375 
Q 44.046875 -1.421875 33.015625 -1.421875 
Q 20.359375 -1.421875 13.671875 8.265625 
Q 6.984375 17.96875 6.984375 36.375 
Q 6.984375 53.65625 15.1875 63.9375 
Q 23.390625 74.21875 37.203125 74.21875 
Q 40.921875 74.21875 44.703125 73.484375 
Q 48.484375 72.75 52.59375 71.296875 
z
" id="DejaVuSans-54"/>
      </defs>
      <g transform="translate(296.432982 266.598437)scale(0.1 -0.1)">
       <use xlink:href="#DejaVuSans-54"/>
       <use x="63.623047" xlink:href="#DejaVuSans-48"/>
       <use x="127.246094" xlink:href="#DejaVuSans-48"/>
       <use x="190.869141" xlink:href="#DejaVuSans-48"/>
      </g>
     </g>
    </g>
    <g id="xtick_8">
     <g id="line2d_8">
      <g>
       <use style="stroke:#000000;stroke-width:0.8;" x="349.147949" xlink:href="#m94144a3944" y="252"/>
      </g>
     </g>
     <g id="text_8">
      <!-- 7000 -->
      <defs>
       <path d="M 8.203125 72.90625 
L 55.078125 72.90625 
L 55.078125 68.703125 
L 28.609375 0 
L 18.3125 0 
L 43.21875 64.59375 
L 8.203125 64.59375 
z
" id="DejaVuSans-55"/>
      </defs>
      <g transform="translate(336.422949 266.598437)scale(0.1 -0.1)">
       <use xlink:href="#DejaVuSans-55"/>
       <use x="63.623047" xlink:href="#DejaVuSans-48"/>
       <use x="127.246094" xlink:href="#DejaVuSans-48"/>
       <use x="190.869141" xlink:href="#DejaVuSans-48"/>
      </g>
     </g>
    </g>
   </g>
   <g id="matplotlib.axis_2">
    <g id="ytick_1">
     <g id="line2d_9">
      <defs>
       <path d="M 0 0 
L -3.5 0 
" id="m11c05b8dbb" style="stroke:#000000;stroke-width:0.8;"/>
      </defs>
      <g>
       <use style="stroke:#000000;stroke-width:0.8;" x="54" xlink:href="#m11c05b8dbb" y="243.174035"/>
      </g>
     </g>
     <g id="text_9">
      <!-- 0 -->
      <g transform="translate(40.6375 246.973254)scale(0.1 -0.1)">
       <use xlink:href="#DejaVuSans-48"/>
      </g>
     </g>
    </g>
    <g id="ytick_2">
     <g id="line2d_10">
      <g>
       <use style="stroke:#000000;stroke-width:0.8;" x="54" xlink:href="#m11c05b8dbb" y="209.281233"/>
      </g>
     </g>
     <g id="text_10">
      <!-- 5 -->
      <g transform="translate(40.6375 213.080452)scale(0.1 -0.1)">
       <use xlink:href="#DejaVuSans-53"/>
      </g>
     </g>
    </g>
    <g id="ytick_3">
     <g id="line2d_11">
      <g>
       <use style="stroke:#000000;stroke-width:0.8;" x="54" xlink:href="#m11c05b8dbb" y="175.388431"/>
      </g>
     </g>
     <g id="text_11">
      <!-- 10 -->
      <g transform="translate(34.275 179.18765)scale(0.1 -0.1)">
       <use xlink:href="#DejaVuSans-49"/>
       <use x="63.623047" xlink:href="#DejaVuSans-48"/>
      </g>
     </g>
    </g>
    <g id="ytick_4">
     <g id="line2d_12">
      <g>
       <use style="stroke:#000000;stroke-width:0.8;" x="54" xlink:href="#m11c05b8dbb" y="141.495629"/>
      </g>
     </g>
     <g id="text_12">
      <!-- 15 -->
      <g transform="translate(34.275 145.294848)scale(0.1 -0.1)">
       <use xlink:href="#DejaVuSans-49"/>
       <use x="63.623047" xlink:href="#DejaVuSans-53"/>
      </g>
     </g>
    </g>
    <g id="ytick_5">
     <g id="line2d_13">
      <g>
       <use style="stroke:#000000;stroke-width:0.8;" x="54" xlink:href="#m11c05b8dbb" y="107.602828"/>
      </g>
     </g>
     <g id="text_13">
      <!-- 20 -->
      <g transform="translate(34.275 111.402046)scale(0.1 -0.1)">
       <use xlink:href="#DejaVuSans-50"/>
       <use x="63.623047" xlink:href="#DejaVuSans-48"/>
      </g>
     </g>
    </g>
    <g id="ytick_6">
     <g id="line2d_14">
      <g>
       <use style="stroke:#000000;stroke-width:0.8;" x="54" xlink:href="#m11c05b8dbb" y="73.710026"/>
      </g>
     </g>
     <g id="text_14">
      <!-- 25 -->
      <g transform="translate(34.275 77.509245)scale(0.1 -0.1)">
       <use xlink:href="#DejaVuSans-50"/>
       <use x="63.623047" xlink:href="#DejaVuSans-53"/>
      </g>
     </g>
    </g>
    <g id="ytick_7">
     <g id="line2d_15">
      <g>
       <use style="stroke:#000000;stroke-width:0.8;" x="54" xlink:href="#m11c05b8dbb" y="39.817224"/>
      </g>
     </g>
     <g id="text_15">
      <!-- 30 -->
      <g transform="translate(34.275 43.616443)scale(0.1 -0.1)">
       <use xlink:href="#DejaVuSans-51"/>
       <use x="63.623047" xlink:href="#DejaVuSans-48"/>
      </g>
     </g>
    </g>
   </g>
   <g id="line2d_16">
    <path clip-path="url(#pc7421d9e1b)" d="M 69.218182 92.57017 
L 69.258172 92.549691 
L 69.298162 92.673668 
L 69.338152 93.953278 
L 69.378142 90.806001 
L 69.458122 92.287072 
L 69.618081 90.269693 
L 69.658071 91.944201 
L 69.698061 90.797422 
L 69.738051 90.600665 
L 69.858021 92.422118 
L 69.818031 90.282423 
L 69.898011 92.375627 
L 70.177941 87.347122 
L 70.217931 87.946525 
L 70.257921 90.701672 
L 70.297911 89.131216 
L 70.337901 86.296092 
L 70.417881 88.476467 
L 70.457871 89.498717 
L 70.497861 88.004915 
L 70.537851 88.23405 
L 70.577841 89.316627 
L 70.617831 88.55838 
L 70.81778 86.158003 
L 70.93775 87.817291 
L 70.97774 87.362896 
L 71.01773 88.187558 
L 71.05772 86.181802 
L 71.09771 86.814689 
L 71.1377 88.622582 
L 71.29766 83.637801 
L 71.33765 83.449069 
L 71.41763 85.945473 
L 71.45762 83.218275 
L 71.5376 84.582012 
L 71.61758 83.593524 
L 71.65757 86.068065 
L 71.69756 84.271795 
L 71.77754 84.025226 
L 71.81753 85.836717 
L 71.85752 84.044321 
L 71.89751 83.765651 
L 72.097459 79.85736 
L 72.137449 80.773344 
L 72.177439 80.621971 
L 72.217429 76.983217 
L 72.297409 77.838597 
L 72.337399 80.012053 
L 72.377389 78.639737 
L 72.457369 75.488862 
L 72.497359 75.899256 
L 72.537349 76.664974 
L 72.617329 74.340699 
L 72.777289 79.142006 
L 72.817279 77.983604 
L 72.857269 79.987424 
L 72.897259 81.073322 
L 72.937249 78.291331 
L 72.977239 82.438719 
L 73.017229 79.025225 
L 73.177189 82.777717 
L 73.297158 84.870367 
L 73.577088 65.140177 
L 73.657068 65.295147 
L 73.737048 64.822211 
L 74.136948 87.626068 
L 74.536847 120.723541 
L 74.736797 104.328806 
L 75.136697 80.751759 
L 75.176687 81.256795 
L 75.336647 71.499764 
L 75.376637 72.972534 
L 75.416627 72.288175 
L 75.656566 61.220539 
L 75.696556 61.171557 
L 75.816526 58.929748 
L 75.856516 61.002474 
L 75.896506 58.849495 
L 75.936496 60.656558 
L 75.976486 60.540607 
L 76.056466 59.471313 
L 76.096456 60.706093 
L 76.136446 59.163863 
L 76.176436 58.960742 
L 76.376386 62.703548 
L 76.416376 61.371911 
L 76.456366 60.380379 
L 76.496356 62.506514 
L 76.576336 61.301898 
L 76.616326 61.135305 
L 76.656316 58.717771 
L 76.696306 60.94685 
L 76.736296 61.061971 
L 76.776286 61.850935 
L 76.816275 60.892611 
L 76.856265 60.97231 
L 76.976235 59.531087 
L 77.016225 59.82304 
L 77.056215 58.620638 
L 77.096205 58.874955 
L 77.176185 60.383423 
L 77.256165 57.962291 
L 77.336145 58.308484 
L 77.536095 60.484984 
L 77.576085 60.343297 
L 77.896005 64.716499 
L 77.935995 64.044039 
L 77.975985 65.228177 
L 78.015974 66.862006 
L 78.095954 65.608684 
L 78.175934 65.793542 
L 78.255914 63.718049 
L 78.295904 63.422222 
L 78.335894 61.407056 
L 78.415874 62.838316 
L 78.495854 60.569941 
L 78.535844 59.210078 
L 78.615824 60.030589 
L 78.655814 59.607465 
L 78.815774 55.571877 
L 78.855764 56.071102 
L 78.895754 54.402129 
L 78.975734 54.699063 
L 79.015724 54.679691 
L 79.175684 52.437052 
L 79.215673 52.37202 
L 79.455613 47.155061 
L 79.295653 52.58372 
L 79.495603 48.367979 
L 79.535593 50.454264 
L 79.575583 50.429358 
L 79.655563 47.224244 
L 79.695553 48.337261 
L 79.735543 48.040327 
L 79.775533 44.774885 
L 79.815523 47.907496 
L 79.855513 47.930741 
L 79.975483 46.022948 
L 80.015473 46.082446 
L 80.135443 48.589365 
L 80.215423 45.241456 
L 80.255413 46.120358 
L 80.295403 48.896814 
L 80.375383 48.325915 
L 80.455362 46.746327 
L 80.495352 47.432346 
L 80.535342 47.960352 
L 80.615322 45.33001 
L 80.655312 46.320159 
L 81.055212 61.330678 
L 81.295152 86.76128 
L 81.855011 126.578369 
L 81.895001 126.753264 
L 82.014971 132.421574 
L 82.054961 131.64783 
L 82.094951 132.750055 
L 82.134941 133.488377 
L 82.654811 96.626513 
L 82.93474 59.925984 
L 82.97473 59.47076 
L 83.17468 48.667957 
L 83.21467 48.871355 
L 83.33464 45.018963 
L 83.85451 68.822655 
L 84.134439 92.22038 
L 84.614319 133.692606 
L 84.694299 131.961091 
L 84.734289 131.983783 
L 84.774279 133.063316 
L 85.854008 64.983546 
L 86.093948 50.648254 
L 86.333888 46.642275 
L 86.373878 46.946681 
L 86.413867 48.644988 
L 86.493847 48.479779 
L 86.533837 46.063628 
L 86.613817 47.608348 
L 86.813767 51.812467 
L 87.253657 99.982171 
L 87.493597 133.123644 
L 87.533587 133.527396 
L 87.573577 131.826046 
L 88.053456 56.762656 
L 88.213416 48.41447 
L 88.253406 48.899305 
L 88.293396 48.447678 
L 88.333386 49.745276 
L 88.373376 49.620193 
L 88.413366 46.955813 
L 88.493346 47.8563 
L 88.533336 47.328848 
L 88.613316 50.763098 
L 88.733286 50.372352 
L 88.813265 53.096505 
L 88.853255 52.626337 
L 89.253155 86.137802 
L 89.493095 131.085233 
L 89.533085 131.304682 
L 89.573075 132.750055 
L 90.292894 46.338977 
L 90.412864 49.679414 
L 90.452854 48.566949 
L 90.492844 47.280144 
L 90.852754 79.476576 
L 91.372623 130.163161 
L 91.412613 132.288465 
L 91.492593 131.309109 
L 91.532583 130.636096 
L 91.572573 131.006364 
L 91.612563 132.60062 
L 91.652553 129.911334 
L 92.052453 113.355541 
L 92.492342 62.150636 
L 92.732282 52.358737 
L 92.772272 53.684562 
L 92.932232 47.357629 
L 92.972222 47.655393 
L 93.012212 46.810529 
L 93.052202 47.582889 
L 93.092192 47.565178 
L 93.132182 48.069108 
L 93.172172 47.385855 
L 93.212162 47.453655 
L 93.252152 47.023059 
L 93.292142 47.555492 
L 93.452102 57.712125 
L 94.011961 128.117831 
L 94.091941 131.173511 
L 94.731781 52.087262 
L 94.771771 52.709357 
L 94.93173 47.099437 
L 95.01171 48.872185 
L 95.0517 47.30588 
L 95.09169 49.349549 
L 95.21166 55.027267 
L 95.25165 54.745554 
L 95.33163 55.160652 
L 96.011459 90.417468 
L 96.051449 90.373191 
L 96.171419 93.950511 
L 96.451349 118.462914 
L 96.651299 128.790291 
L 96.691289 128.563647 
L 96.811259 132.089772 
L 96.971219 125.179487 
L 97.371118 89.963627 
L 97.571068 76.192315 
L 97.970968 52.163917 
L 98.090938 49.35619 
L 98.250898 45.90257 
L 98.290888 48.082944 
L 98.330878 45.879878 
L 98.370868 44.443636 
L 98.410857 48.541767 
L 98.490837 46.730553 
L 99.130677 75.238419 
L 99.450597 122.788795 
L 99.570567 131.131171 
L 99.610556 130.135211 
L 99.650546 130.080418 
L 99.690536 128.188675 
L 99.730526 130.452346 
L 99.770516 133.16377 
L 99.810506 132.342705 
L 99.850496 129.014998 
L 99.930476 129.203453 
L 99.970466 130.622536 
L 100.010456 128.44908 
L 101.410105 68.179252 
L 101.770015 54.158881 
L 101.810005 56.273947 
L 101.849995 54.039056 
L 102.009954 47.830841 
L 102.129924 50.146815 
L 102.209904 46.450223 
L 102.289884 46.840969 
L 102.409854 53.732436 
L 102.449844 51.27616 
L 102.489834 51.790052 
L 102.769764 63.874679 
L 102.809754 63.672111 
L 102.889734 67.519245 
L 103.289633 96.691822 
L 103.569563 121.118992 
L 103.609553 121.180703 
L 103.729523 128.713636 
L 103.809503 128.678214 
L 103.889483 132.291233 
L 103.969463 131.478193 
L 104.249393 85.614501 
L 104.449342 53.94469 
L 104.529322 49.300844 
L 104.609302 50.108072 
L 104.649292 49.772396 
L 105.169162 75.87601 
L 105.529072 96.936454 
L 106.328871 130.172016 
L 106.368861 130.151261 
L 106.408851 132.472492 
L 106.448841 128.807725 
L 106.528821 126.954172 
L 107.12867 78.236815 
L 107.16866 79.249655 
L 107.60855 47.324697 
L 107.64854 49.660042 
L 107.72852 51.82658 
L 108.528319 118.565305 
L 108.568309 117.793222 
L 108.728269 122.512063 
L 108.928219 128.749611 
L 108.968209 131.087724 
L 109.048189 130.536196 
L 109.088179 130.691443 
L 109.128169 134.844366 
L 109.168159 131.658069 
L 109.568058 117.004258 
L 109.768008 100.480289 
L 110.207898 62.185781 
L 110.487827 48.245663 
L 110.567807 60.569387 
L 110.807747 132.515939 
L 110.847737 130.724651 
L 111.007697 115.438229 
L 111.247637 89.337658 
L 111.367607 83.91232 
L 111.567557 69.877282 
L 111.847486 56.060586 
L 112.047436 49.028539 
L 112.127416 46.822428 
L 112.207396 49.541878 
L 112.247386 48.58217 
L 112.367356 47.065122 
L 112.927215 69.633204 
L 113.687025 124.049588 
L 113.727015 124.302798 
L 113.886975 130.306785 
L 113.926965 130.153752 
L 114.166904 120.71773 
L 114.206894 119.424559 
L 114.446834 96.640903 
L 114.486824 97.727355 
L 115.286623 48.73797 
L 115.366603 54.208416 
L 116.086423 124.692438 
L 116.326363 131.298317 
L 116.366353 128.496124 
L 116.406342 131.25404 
L 116.486322 132.282101 
L 116.606292 130.189173 
L 116.646282 130.90342 
L 116.686272 129.694653 
L 116.886222 118.702565 
L 117.166152 105.560266 
L 117.206142 105.027556 
L 117.726011 54.751642 
L 117.965951 46.558425 
L 118.005941 50.642166 
L 118.125911 78.979288 
L 118.325861 118.724426 
L 118.485821 128.809939 
L 118.525811 128.488099 
L 118.565801 131.056453 
L 118.605791 129.108257 
L 118.645781 128.493357 
L 118.725761 132.197974 
L 118.80574 130.72382 
L 118.84573 129.316359 
L 118.92571 129.673898 
L 118.9657 130.205501 
L 119.00569 132.400265 
L 119.08567 131.308279 
L 119.16565 128.651925 
L 119.20564 131.748561 
L 119.28562 130.610914 
L 119.32561 130.310659 
L 119.3656 131.467954 
L 119.40559 129.757748 
L 119.44558 131.244631 
L 119.48557 131.258467 
L 119.52556 129.521418 
L 119.56555 131.354217 
L 119.60554 130.396169 
L 119.7655 132.571009 
L 119.96545 128.865009 
L 120.045429 129.32051 
L 120.165399 132.598406 
L 120.285369 130.068241 
L 120.365349 130.087613 
L 120.405339 132.074275 
L 120.445329 131.951129 
L 120.525309 129.468839 
L 120.565299 131.842926 
L 120.645279 130.810991 
L 120.725259 127.419359 
L 120.765249 128.142737 
L 120.925209 122.944319 
L 120.965199 122.070675 
L 121.205138 104.712358 
L 121.245128 104.592809 
L 121.365098 88.753476 
L 121.645028 49.867868 
L 121.804988 47.46251 
L 122.204888 66.487587 
L 122.404837 85.16315 
L 122.444827 84.673057 
L 122.564797 90.946581 
L 122.724757 101.452173 
L 122.804737 100.309822 
L 122.844727 101.140849 
L 122.884717 103.238758 
L 122.964697 101.840429 
L 123.124657 105.988094 
L 123.044677 101.35504 
L 123.164647 105.782482 
L 123.364597 131.049811 
L 123.444577 123.375468 
L 123.684516 90.845573 
L 124.084416 58.416132 
L 124.124406 60.023671 
L 124.164396 59.270682 
L 124.444326 47.974742 
L 124.524306 47.399692 
L 124.604286 50.678694 
L 124.924205 69.796199 
L 124.964195 69.035462 
L 125.164145 78.519082 
L 125.204135 78.824041 
L 125.324105 81.057271 
L 125.364095 81.040944 
L 125.444075 78.505245 
L 125.843975 126.279221 
L 125.883965 125.298205 
L 126.043924 130.325602 
L 126.083914 128.105655 
L 126.123904 128.952733 
L 126.163894 130.031436 
L 126.203884 127.532266 
L 126.243874 132.763338 
L 126.323854 129.316913 
L 126.363844 130.152368 
L 126.403834 129.707106 
L 126.603784 124.860414 
L 126.643774 125.082353 
L 126.683764 125.182254 
L 126.923704 115.057722 
L 127.443573 47.872074 
L 127.563543 51.307154 
L 127.603533 50.317005 
L 127.643523 50.126336 
L 127.803483 55.61228 
L 128.043423 60.462845 
L 128.083413 60.235648 
L 128.123403 59.129549 
L 128.243373 62.709359 
L 128.323353 59.877833 
L 128.363343 61.058927 
L 128.403332 62.158662 
L 128.443322 62.074812 
L 128.483312 61.129494 
L 129.123152 106.025453 
L 129.163142 106.998167 
L 129.443072 129.647608 
L 129.483062 129.460537 
L 129.523052 129.506475 
L 130.122901 50.628882 
L 130.162891 50.667072 
L 130.362841 47.465831 
L 130.402831 48.267525 
L 130.482811 48.123901 
L 130.522801 48.941645 
L 130.602781 46.238523 
L 130.642771 46.908215 
L 130.682761 48.868034 
L 130.722751 46.417015 
L 130.762741 48.083498 
L 131.44257 65.09922 
L 131.68251 71.351159 
L 131.7225 72.486038 
L 132.002429 96.575318 
L 132.042419 95.846958 
L 132.522299 130.662109 
L 132.562289 129.676111 
L 132.842219 95.372362 
L 133.122149 51.421721 
L 133.242118 47.986641 
L 133.642018 76.659717 
L 133.761988 99.549638 
L 133.961938 128.607924 
L 134.041918 119.830526 
L 134.481807 55.988082 
L 134.721747 48.126668 
L 134.761737 50.574643 
L 134.841717 48.685944 
L 134.921697 47.547744 
L 134.961687 47.841357 
L 135.001677 47.88176 
L 135.201627 52.716275 
L 135.241617 50.515422 
L 135.281607 52.653733 
L 135.401577 55.004022 
L 135.441567 53.725518 
L 135.481557 55.340805 
L 135.641516 53.739908 
L 135.841466 56.029592 
L 136.001426 53.330898 
L 136.281356 67.090033 
L 136.321346 68.138019 
L 136.561286 89.068398 
L 136.601276 89.247167 
L 137.081155 129.572337 
L 137.161135 128.575547 
L 137.281105 131.299147 
L 138.000924 50.295973 
L 138.040914 52.697457 
L 138.080904 50.789111 
L 138.200874 47.465001 
L 138.400824 54.482381 
L 138.440814 54.229171 
L 138.480804 54.380267 
L 138.520794 54.265146 
L 138.640764 62.089478 
L 138.760734 62.086434 
L 138.840714 62.009503 
L 138.880704 64.695468 
L 139.640513 118.883824 
L 139.840463 124.182696 
L 140.200373 134.352889 
L 140.280353 134.566527 
L 140.640262 101.926769 
L 140.920192 75.07321 
L 141.360082 48.061359 
L 141.440062 49.922661 
L 141.480052 49.586155 
L 141.879951 64.46744 
L 142.279851 101.708704 
L 142.559781 132.903365 
L 142.599771 130.355766 
L 142.639761 131.510017 
L 142.719741 130.770311 
L 142.8797 120.434079 
L 143.19962 74.493455 
L 143.55953 45.180852 
L 143.63951 49.092464 
L 143.6795 48.215499 
L 143.71949 46.809975 
L 143.83946 53.571101 
L 143.87945 52.029425 
L 143.91944 53.01985 
L 143.95943 51.061415 
L 144.199369 65.179196 
L 144.239359 64.474912 
L 144.399319 68.021238 
L 144.439309 67.525056 
L 144.479299 70.149587 
L 144.559279 69.636801 
L 144.719239 74.461078 
L 144.799219 73.524615 
L 144.959179 69.275666 
L 144.999169 70.519024 
L 145.399068 108.171513 
L 145.439058 110.498832 
L 145.599018 124.909396 
L 145.758978 131.84431 
L 145.798968 130.44266 
L 145.878948 131.48013 
L 145.958928 127.535033 
L 146.478797 50.607574 
L 146.518787 49.219761 
L 146.598767 49.836044 
L 146.638757 49.762433 
L 146.678747 50.332225 
L 146.718737 49.585878 
L 146.758727 48.745718 
L 146.798717 49.810585 
L 146.838707 49.989077 
L 146.878697 52.804553 
L 146.958677 52.270182 
L 147.038657 54.270127 
L 147.118637 53.529038 
L 147.158627 53.374898 
L 147.318587 56.368313 
L 147.398567 55.652683 
L 147.438557 54.639842 
L 147.478547 55.946296 
L 147.678496 59.236091 
L 147.718486 56.7217 
L 147.798466 58.476737 
L 147.838456 58.341415 
L 147.878446 57.674213 
L 147.918436 58.584386 
L 147.958426 58.990352 
L 147.998416 57.007288 
L 148.078396 57.631596 
L 148.318336 55.479725 
L 148.878195 80.723809 
L 149.278095 114.22199 
L 149.318085 114.216179 
L 149.398065 118.027891 
L 149.598015 133.594089 
L 149.638005 129.802855 
L 149.717985 130.781104 
L 149.757975 130.949081 
L 150.397814 73.773674 
L 150.677744 59.969431 
L 150.717734 58.994226 
L 150.877694 51.721975 
L 150.957674 49.720923 
L 150.997664 51.630654 
L 151.037654 51.002471 
L 151.077644 47.316119 
L 151.157624 47.65816 
L 151.197614 49.874787 
L 151.237603 47.61748 
L 151.277593 48.417514 
L 151.397563 50.605914 
L 151.437553 49.575362 
L 151.477543 51.108736 
L 151.757473 58.972918 
L 151.797463 57.739798 
L 152.157373 78.751814 
L 152.317333 89.794267 
L 152.757222 121.008299 
L 152.797212 119.660889 
L 152.837202 121.660281 
L 152.957172 126.915706 
L 152.997162 124.393843 
L 153.037152 125.603164 
L 153.197112 131.933418 
L 153.237102 133.058058 
L 153.277092 131.498671 
L 153.357072 129.572614 
L 153.796961 103.188669 
L 154.196861 56.507786 
L 154.236851 56.804996 
L 154.436801 50.291546 
L 154.476791 50.883753 
L 154.516781 50.676204 
L 154.556771 49.163308 
L 154.596761 49.783465 
L 154.676741 51.946405 
L 154.756721 50.8273 
L 154.796711 50.317005 
L 155.11663 58.568059 
L 155.15662 57.77439 
L 155.19661 58.104808 
L 156.356319 117.270474 
L 156.396309 116.937565 
L 156.436299 117.598956 
L 156.636249 126.021307 
L 156.716229 124.917698 
L 156.836199 128.552855 
L 156.876189 127.46834 
L 156.956169 131.829366 
L 156.996159 131.453564 
L 157.036149 130.908401 
L 157.076139 132.580418 
L 157.116129 130.781657 
L 157.196109 127.188564 
L 158.515777 61.715613 
L 158.555767 61.289445 
L 158.715727 51.580012 
L 158.795707 51.591634 
L 158.835697 52.391391 
L 158.995657 48.719429 
L 159.035647 48.749869 
L 159.155617 46.987084 
L 159.235597 49.034904 
L 159.275587 48.843682 
L 159.315577 47.644877 
L 159.355567 48.70919 
L 159.435547 48.436608 
L 159.795456 68.294373 
L 160.635246 132.282931 
L 160.715226 130.387314 
L 160.755216 128.659397 
L 161.275085 47.751696 
L 161.315075 50.665411 
L 161.355065 50.011216 
L 161.595005 61.59053 
L 162.074884 132.748948 
L 162.514774 84.607471 
L 162.554764 84.830241 
L 162.634744 85.259453 
L 162.794704 74.628501 
L 163.154614 53.85835 
L 163.314573 48.679856 
L 163.354563 50.117481 
L 163.394553 49.746936 
L 163.954413 82.70715 
L 164.194353 99.366164 
L 164.514272 117.548867 
L 164.554262 117.438451 
L 164.594252 118.154634 
L 164.634242 117.664541 
L 164.674232 116.221658 
L 164.714222 118.220773 
L 164.834192 121.323774 
L 164.874182 121.179596 
L 164.994152 125.162606 
L 165.034142 125.145172 
L 165.114122 126.299423 
L 165.154112 125.133549 
L 165.194102 125.693655 
L 165.314072 127.347962 
L 165.354062 125.875469 
L 165.394052 127.29898 
L 165.434042 131.106265 
L 165.514022 130.743468 
L 165.633991 126.323498 
L 165.713971 126.796434 
L 165.873931 132.381448 
L 165.953911 129.447531 
L 166.033891 129.828038 
L 166.073881 132.392517 
L 166.153861 131.938399 
L 166.193851 132.056287 
L 166.233841 129.702678 
L 166.273831 131.275625 
L 166.313821 134.18685 
L 166.353811 132.427108 
L 166.513771 126.795881 
L 166.593751 124.795105 
L 166.95366 89.521132 
L 167.47353 48.292707 
L 167.5935 48.383752 
L 167.67348 51.093239 
L 167.75346 50.380653 
L 167.79345 50.081229 
L 168.233339 70.162316 
L 168.713219 98.768422 
L 168.913169 111.371923 
L 169.153109 127.478579 
L 169.313068 134.535256 
L 169.433038 134.024131 
L 169.712968 121.702621 
L 169.752958 121.572003 
L 169.952908 100.697247 
L 170.192848 76.192039 
L 170.272828 71.146377 
L 170.312818 72.243897 
L 170.432787 63.557544 
L 170.472777 65.291826 
L 170.592747 60.405008 
L 170.672727 60.83256 
L 170.712717 62.107189 
L 170.752707 60.554997 
L 170.992647 53.532912 
L 171.032637 54.416519 
L 171.072627 53.429968 
L 171.112617 53.8863 
L 171.272577 48.812964 
L 171.352557 49.574532 
L 171.432537 51.4303 
L 171.472527 50.87213 
L 171.512517 50.639122 
L 171.552507 50.864382 
L 171.592497 50.978395 
L 171.672476 51.92316 
L 171.832436 59.330733 
L 171.872426 58.119475 
L 171.912416 58.156834 
L 172.592246 80.947685 
L 173.192095 124.065915 
L 173.432035 131.536307 
L 173.472025 130.264445 
L 173.591995 125.423288 
L 174.351804 62.597282 
L 174.391794 65.245335 
L 174.431784 64.613278 
L 174.511764 59.599994 
L 174.591744 59.933733 
L 174.631734 59.540219 
L 174.831684 51.523005 
L 174.871674 51.599936 
L 174.911664 53.377942 
L 174.951654 50.707198 
L 174.991644 51.548464 
L 175.031634 50.278816 
L 175.071624 50.911426 
L 175.191594 48.954098 
L 175.271573 50.717714 
L 175.311563 48.844789 
L 175.511513 58.283301 
L 175.631483 63.731332 
L 175.991393 108.9721 
L 176.031383 108.811318 
L 176.231333 125.12165 
L 176.271323 122.376187 
L 176.311313 127.181922 
L 176.351303 126.537136 
L 176.591242 131.524131 
L 176.631232 131.315198 
L 176.671222 131.493967 
L 176.751202 131.431148 
L 176.791192 133.75238 
L 176.871172 131.501162 
L 176.911162 132.481901 
L 176.991142 133.175946 
L 177.071122 133.348351 
L 177.151102 131.122869 
L 177.231082 130.913105 
L 177.271072 132.404416 
L 177.431032 128.466791 
L 177.471022 128.530716 
L 177.511012 132.171131 
L 177.590992 129.532764 
L 177.630981 129.81005 
L 178.390791 89.645108 
L 178.590741 73.803285 
L 178.750701 61.977679 
L 178.790691 63.383202 
L 178.87067 59.909104 
L 178.99064 53.146317 
L 179.03063 53.233211 
L 179.07062 52.61084 
L 179.11061 53.885469 
L 179.1506 52.48548 
L 179.35055 48.798298 
L 179.39054 50.440981 
L 179.43053 49.885302 
L 179.51051 47.274332 
L 179.5505 49.576192 
L 179.63048 48.197511 
L 179.67047 48.359123 
L 179.71046 47.309477 
L 179.75045 47.906666 
L 180.070369 51.591911 
L 180.110359 51.826304 
L 180.150349 51.263983 
L 180.190339 51.447457 
L 180.350299 54.466331 
L 180.390289 53.822098 
L 180.550249 56.939488 
L 180.590239 56.619032 
L 180.630229 56.055882 
L 180.830179 61.813299 
L 180.870169 61.766808 
L 181.070119 106.260122 
L 181.310058 131.027396 
L 181.430028 126.775402 
L 182.349798 48.635302 
L 182.429777 49.239132 
L 182.469767 48.134417 
L 182.509757 49.332945 
L 182.549747 50.365156 
L 182.589737 48.535955 
L 182.629727 49.637904 
L 182.709707 48.34667 
L 182.749697 48.721366 
L 182.829677 49.955869 
L 182.869667 49.404618 
L 182.909657 48.448231 
L 182.949647 50.183343 
L 183.029627 49.508946 
L 183.069617 48.899582 
L 183.229577 50.700279 
L 183.429527 49.305548 
L 183.789436 77.997441 
L 184.029376 102.760287 
L 184.069366 103.486156 
L 184.109356 103.426105 
L 184.229326 112.021414 
L 184.269316 112.020584 
L 184.469266 116.537133 
L 184.509256 115.452619 
L 184.549246 116.629285 
L 184.589236 116.43917 
L 184.789186 131.291122 
L 185.029125 90.784692 
L 185.269065 76.523287 
L 185.309055 76.894662 
L 185.628975 63.365492 
L 185.828925 58.939433 
L 185.868915 60.945467 
L 185.948895 61.75906 
L 186.108854 56.829626 
L 186.188834 58.524335 
L 186.228824 58.390396 
L 186.468764 54.251033 
L 186.508754 54.670559 
L 186.548744 57.465003 
L 186.628724 55.40141 
L 186.668714 52.163364 
L 186.748694 53.793318 
L 186.988634 48.662422 
L 187.028624 49.201497 
L 187.068614 50.331949 
L 187.108604 49.186553 
L 187.148594 47.08311 
L 187.188584 48.168731 
L 187.308553 50.453434 
L 187.348543 48.678472 
L 187.428523 48.693969 
L 187.668463 59.501477 
L 187.708453 59.412092 
L 187.748443 59.974689 
L 188.588232 130.260017 
L 188.628222 129.90912 
L 188.668212 126.819126 
L 188.708202 130.335565 
L 188.748192 129.915208 
L 188.788182 130.955445 
L 188.988132 120.696698 
L 189.508002 93.709754 
L 189.547992 95.255027 
L 189.587982 93.224088 
L 189.827921 76.875291 
L 190.107851 59.585327 
L 190.267811 53.039222 
L 190.307801 53.771179 
L 190.427771 50.980886 
L 190.587731 48.120857 
L 190.747691 50.737915 
L 190.787681 50.092575 
L 190.82767 50.185557 
L 191.30755 86.335112 
L 191.54749 110.455662 
L 191.74744 123.059716 
L 191.82742 125.555289 
L 191.9074 130.503541 
L 191.98738 128.835398 
L 192.027369 127.504869 
L 192.067359 129.559607 
L 192.107349 128.887424 
L 192.227319 131.827429 
L 192.427269 124.529165 
L 192.467259 124.684136 
L 193.147089 55.307044 
L 193.187079 56.005516 
L 193.347038 50.179192 
L 193.427018 51.120913 
L 193.546988 49.704319 
L 193.666958 54.793152 
L 193.706948 54.361449 
L 194.106848 96.219163 
L 194.266808 126.876963 
L 194.346788 132.458933 
L 194.426767 130.714135 
L 194.586727 127.350176 
L 194.626717 127.409673 
L 194.666707 127.647386 
L 194.826667 123.910392 
L 194.866657 123.563369 
L 194.946637 122.037467 
L 194.986627 122.750883 
L 195.026617 123.192271 
L 195.266557 119.18906 
L 195.306547 119.379175 
L 195.386527 117.704667 
L 195.426517 118.621482 
L 195.466507 119.11794 
L 195.506497 116.560102 
L 195.586477 117.541395 
L 195.626466 116.925666 
L 195.666456 117.619711 
L 195.706446 118.478965 
L 195.866406 104.815579 
L 195.946386 105.522353 
L 196.026366 106.327921 
L 196.226316 99.364781 
L 196.266306 99.666972 
L 196.306296 99.300302 
L 196.346286 98.349173 
L 196.426266 98.707541 
L 196.466256 98.846737 
L 196.506246 99.828861 
L 196.546236 98.126403 
L 196.746186 93.454883 
L 196.786176 96.61074 
L 196.826165 95.890128 
L 196.986125 91.423667 
L 197.146085 83.800796 
L 197.665955 51.142775 
L 197.705945 54.275939 
L 197.825915 67.913865 
L 198.105844 130.687845 
L 198.185824 122.332187 
L 198.385774 76.471262 
L 198.585724 52.342686 
L 198.625714 51.576137 
L 198.665704 53.619806 
L 198.705694 53.04531 
L 198.745684 50.439321 
L 198.785674 51.695963 
L 198.985624 56.060586 
L 199.065604 58.02511 
L 199.185574 57.813133 
L 199.225563 56.664693 
L 199.265553 57.825862 
L 199.305543 57.988304 
L 199.345533 56.173493 
L 199.425513 56.56922 
L 199.465503 58.553115 
L 199.545483 57.635747 
L 199.665453 60.507676 
L 199.745433 58.737972 
L 199.825413 61.492567 
L 199.865403 61.271181 
L 199.905393 60.210465 
L 200.025363 62.900304 
L 200.065353 62.655396 
L 200.105343 63.85088 
L 200.145333 62.704378 
L 200.185323 61.353924 
L 200.225313 61.954156 
L 200.345283 65.362393 
L 200.385273 65.272731 
L 200.585222 58.806048 
L 200.625212 60.612004 
L 200.865152 73.007679 
L 200.905142 70.940765 
L 201.345032 122.665096 
L 201.425012 132.12464 
L 201.544982 131.135045 
L 202.144831 100.084838 
L 202.184821 102.104431 
L 202.224811 99.842697 
L 202.504741 93.802182 
L 202.544731 93.974863 
L 202.94463 57.461682 
L 203.22456 50.770016 
L 203.34453 54.863719 
L 203.38452 52.923548 
L 203.42451 54.199837 
L 203.82441 75.814852 
L 204.144329 117.623031 
L 204.304289 130.266935 
L 204.344279 129.087778 
L 204.384269 129.130672 
L 204.504239 130.53924 
L 204.584219 134.619936 
L 204.704189 127.092261 
L 204.744179 127.215407 
L 204.824159 126.330417 
L 205.663948 89.420401 
L 205.903888 72.869589 
L 205.943878 72.034688 
L 206.183818 59.213952 
L 206.223808 59.242455 
L 206.463747 51.780643 
L 206.503737 51.878606 
L 206.543727 53.732713 
L 206.583717 52.730942 
L 206.623707 51.240184 
L 206.703687 51.846505 
L 206.743677 51.062522 
L 206.783667 51.422551 
L 206.863647 51.778152 
L 206.903637 50.480831 
L 206.943627 51.864493 
L 207.023607 53.492786 
L 207.103587 52.807043 
L 207.263547 58.089588 
L 207.303537 57.513431 
L 207.463497 61.445522 
L 207.823406 78.042548 
L 207.983366 89.237205 
L 208.023356 89.17494 
L 208.223306 99.128728 
L 208.463246 117.243355 
L 208.823155 133.139694 
L 208.863145 133.664102 
L 208.903135 133.592982 
L 209.263045 106.607144 
L 209.502985 79.201227 
L 209.822905 59.16248 
L 209.862895 60.220704 
L 210.022854 54.815014 
L 210.062844 56.635636 
L 210.102834 53.538724 
L 210.182814 52.53889 
L 210.262794 51.049516 
L 210.302784 52.707973 
L 210.382764 51.571433 
L 210.422754 51.152737 
L 210.462744 51.783133 
L 210.502734 51.786177 
L 210.542724 50.743173 
L 210.582714 51.270071 
L 210.702684 52.038557 
L 210.782664 49.564293 
L 210.862644 50.633033 
L 210.982614 52.637406 
L 211.022604 52.482713 
L 211.182564 58.388459 
L 211.222553 57.724025 
L 211.662443 74.829408 
L 211.742423 78.086272 
L 212.302283 132.172515 
L 212.422252 128.96657 
L 212.622202 108.605706 
L 212.822152 88.093193 
L 212.862142 90.799082 
L 212.902132 90.024508 
L 213.142072 79.1171 
L 213.461992 62.917185 
L 213.501982 63.279981 
L 213.661941 57.399971 
L 213.701931 58.348056 
L 213.741921 52.829459 
L 213.821901 54.839643 
L 214.061841 52.03662 
L 214.101831 52.779647 
L 214.141821 53.307652 
L 214.181811 53.079901 
L 214.341771 49.745553 
L 214.421751 52.175817 
L 214.461741 50.924709 
L 214.501731 50.146261 
L 214.541721 51.024887 
L 214.581711 50.410817 
L 214.661691 52.026104 
L 214.741671 51.668843 
L 214.781661 51.780919 
L 214.82165 53.174821 
L 214.86164 52.770791 
L 214.90163 52.010331 
L 215.26154 72.07177 
L 215.58146 115.579639 
L 215.8214 130.181978 
L 215.86139 130.376798 
L 215.94137 124.323276 
L 216.221299 73.992016 
L 216.421249 53.337539 
L 216.461239 54.277599 
L 216.501229 53.358294 
L 216.541219 52.222031 
L 217.460988 134.881725 
L 217.500978 130.811268 
L 217.980858 85.749546 
L 218.340768 55.469209 
L 218.380758 55.688104 
L 218.580707 49.156666 
L 218.620697 49.620746 
L 218.660687 49.701829 
L 218.900627 51.551785 
L 219.340517 81.630384 
L 219.460487 105.062978 
L 219.660436 132.760294 
L 219.900376 104.880888 
L 220.300276 57.631319 
L 220.500226 52.147313 
L 220.740166 58.01321 
L 221.220045 133.30352 
L 221.260035 132.978636 
L 221.419995 118.965737 
L 221.659935 84.495118 
L 221.939865 67.815072 
L 221.979855 70.041661 
L 222.019844 68.341694 
L 222.579704 55.054387 
L 222.619694 56.652517 
L 222.699674 56.646152 
L 222.739664 54.521954 
L 222.819644 55.413032 
L 222.859634 56.133367 
L 222.899624 53.926979 
L 222.979604 54.886687 
L 223.059584 52.809534 
L 223.139564 54.947015 
L 223.219543 52.844956 
L 223.299523 55.828684 
L 223.379503 52.536676 
L 223.419493 53.851155 
L 223.459483 53.837871 
L 223.539463 55.661815 
L 223.779403 73.775335 
L 224.259283 132.419637 
L 224.299273 131.490646 
L 224.339263 132.126024 
L 224.419242 133.640303 
L 225.418992 56.073869 
L 225.458982 57.173327 
L 225.618941 53.429414 
L 225.658931 53.481994 
L 225.698921 51.085768 
L 225.778901 51.940871 
L 225.818891 51.291933 
L 225.858881 51.885524 
L 225.938861 52.476348 
L 226.058831 56.242123 
L 226.098821 55.462014 
L 226.138811 56.082725 
L 226.298771 65.460079 
L 226.778651 117.810933 
L 227.09857 134.591433 
L 227.49847 85.12247 
L 227.69842 61.286954 
L 227.73841 60.835604 
L 227.89837 52.103866 
L 227.93836 52.364825 
L 227.97835 50.951276 
L 228.018339 51.752139 
L 228.058329 52.678363 
L 228.898119 132.337724 
L 228.938109 132.092816 
L 228.978099 132.396945 
L 229.178049 120.558055 
L 229.218038 120.172844 
L 229.457978 104.122641 
L 229.537958 106.875575 
L 229.617938 101.128396 
L 229.697918 101.293882 
L 229.857878 95.654906 
L 229.897868 97.205991 
L 229.937858 92.026667 
L 230.017838 94.686066 
L 230.057828 94.248552 
L 230.097818 92.269915 
L 230.137808 92.396105 
L 230.177798 95.424664 
L 230.457727 72.317232 
L 230.697667 56.502528 
L 230.937607 50.400855 
L 231.497467 94.454164 
L 231.857376 133.76843 
L 231.897366 131.602446 
L 231.977346 132.135709 
L 232.017336 131.470168 
L 232.337256 102.001487 
L 232.417236 97.440937 
L 232.657176 71.786182 
L 232.697166 71.940322 
L 233.097065 50.986421 
L 233.177045 51.990683 
L 233.257025 51.145265 
L 233.736905 95.441545 
L 234.016834 133.475094 
L 234.056824 131.628459 
L 234.136804 124.606097 
L 234.576694 51.731384 
L 234.656674 54.798963 
L 234.856624 69.888351 
L 235.376493 133.259519 
L 235.416483 131.880008 
L 235.496463 128.340324 
L 235.816383 106.387972 
L 235.856373 106.830744 
L 236.016333 98.495841 
L 236.056323 100.207154 
L 236.096313 99.362013 
L 236.296263 93.010451 
L 236.336253 92.836663 
L 236.376243 91.384095 
L 236.416232 91.560373 
L 236.456222 93.899869 
L 236.536202 92.088932 
L 236.576192 92.279324 
L 236.656172 88.637249 
L 236.696162 88.759011 
L 236.776142 89.431471 
L 237.216032 69.451114 
L 237.256022 68.948014 
L 237.455972 58.405063 
L 237.615931 55.868534 
L 237.695911 51.262046 
L 237.735901 54.44945 
L 237.775891 51.959965 
L 237.815881 56.023781 
L 238.415731 89.378892 
L 238.85562 132.150376 
L 238.89561 131.67578 
L 238.9356 134.249945 
L 238.97559 133.166537 
L 239.05557 130.347188 
L 239.7354 54.919895 
L 239.77539 57.848001 
L 239.81538 54.949229 
L 239.85537 55.10835 
L 239.89536 56.223858 
L 239.93535 55.990573 
L 240.015329 52.231993 
L 240.095309 53.512711 
L 240.175289 55.721866 
L 240.255269 55.382869 
L 240.295259 56.148587 
L 240.335249 54.975795 
L 240.535199 58.437718 
L 240.575189 60.463122 
L 240.655169 59.883921 
L 240.695159 60.069609 
L 240.895109 66.141948 
L 240.935099 63.275277 
L 240.975089 67.229783 
L 241.015079 65.733491 
L 241.175039 74.080847 
L 241.334998 80.117488 
L 242.014828 134.06315 
L 242.054818 133.049203 
L 242.094808 134.958103 
L 242.374738 88.734935 
L 242.734647 53.162644 
L 242.774637 53.059423 
L 242.814627 52.232823 
L 243.214527 77.931579 
L 243.694406 134.378072 
L 243.894356 129.506751 
L 243.934346 131.197586 
L 244.174286 119.177161 
L 244.254266 118.45987 
L 244.454216 111.030712 
L 244.494206 111.523849 
L 244.774136 97.076757 
L 244.974085 90.397544 
L 245.014075 90.423833 
L 245.413975 68.89931 
L 245.453965 69.042934 
L 245.693905 55.526769 
L 245.773885 55.559977 
L 245.813875 52.868201 
L 245.853865 53.715556 
L 245.893855 51.699283 
L 245.933845 54.559036 
L 245.973835 53.883532 
L 246.013824 54.183234 
L 246.333744 69.725909 
L 246.973584 134.503432 
L 247.093554 133.905413 
L 247.773383 60.587652 
L 247.853363 61.095456 
L 247.933343 58.135249 
L 247.973333 59.288946 
L 248.013323 58.079072 
L 248.173283 55.762269 
L 248.213273 54.075308 
L 248.253263 56.39737 
L 248.373233 53.325917 
L 248.453212 56.083555 
L 248.533192 52.237251 
L 248.613172 52.98858 
L 248.653162 52.956755 
L 248.693152 55.4039 
L 248.733142 55.207143 
L 248.773132 52.588978 
L 248.853112 53.000202 
L 248.893102 53.172053 
L 248.973082 51.891612 
L 249.053062 52.195188 
L 249.173032 56.956369 
L 249.253012 55.291547 
L 249.293002 55.626393 
L 249.612921 70.966501 
L 250.452711 132.98168 
L 250.572681 135.261402 
L 251.45246 79.964732 
L 251.6924 63.255352 
L 251.89235 54.879492 
L 251.93234 56.896041 
L 251.97233 53.375728 
L 252.012319 51.695686 
L 252.052309 53.291048 
L 252.172279 57.18578 
L 252.532189 84.877839 
L 252.892099 134.608036 
L 253.012069 130.804073 
L 253.331988 97.076203 
L 253.611918 68.757623 
L 253.691898 65.357411 
L 253.891848 56.03485 
L 253.931838 52.551896 
L 254.011818 53.207752 
L 254.091798 53.76343 
L 254.171778 51.985978 
L 254.371728 59.73836 
L 254.451707 62.225354 
L 254.651657 73.594905 
L 255.051557 117.945701 
L 255.211517 134.476035 
L 255.411467 129.508688 
L 256.091296 59.139788 
L 256.291246 52.334384 
L 256.331236 52.657054 
L 256.371226 53.026769 
L 256.411216 52.134307 
L 256.571176 56.760442 
L 256.611166 55.48609 
L 256.691146 55.643827 
L 257.051055 62.772454 
L 257.330985 76.285851 
L 257.970825 133.141908 
L 258.010814 132.890082 
L 258.050804 133.853941 
L 258.210764 121.51887 
L 258.690644 54.911316 
L 258.770624 50.687273 
L 258.810614 52.640727 
L 259.090544 66.336214 
L 259.370473 95.712466 
L 259.650403 123.555344 
L 259.730383 127.106374 
L 259.850353 132.443989 
L 259.890343 131.359751 
L 259.930333 131.542672 
L 259.970323 133.358036 
L 260.010313 131.665264 
L 260.090293 131.609364 
L 260.330233 117.162272 
L 260.410212 114.169134 
L 260.690142 86.971873 
L 260.770122 81.293047 
L 260.970072 70.67095 
L 261.010062 70.018969 
L 261.170022 60.302894 
L 261.210012 60.798522 
L 261.409962 52.689155 
L 261.449952 53.112279 
L 261.489942 52.522009 
L 261.529932 54.124013 
L 261.609911 53.613995 
L 261.689891 54.554332 
L 261.849851 60.841415 
L 261.889841 61.019631 
L 262.649651 128.082686 
L 262.689641 127.526731 
L 262.96957 135.004317 
L 263.28949 121.388253 
L 263.32948 121.968837 
L 263.48944 113.625908 
L 263.56942 109.94011 
L 263.80936 95.369595 
L 263.84935 96.255138 
L 263.88934 95.858304 
L 264.049299 89.272626 
L 264.169269 86.000542 
L 264.329229 80.490523 
L 264.489189 73.049742 
L 264.529179 73.079353 
L 264.769119 62.357632 
L 264.809109 62.665912 
L 265.049049 54.852096 
L 265.089039 54.264316 
L 265.129029 56.059203 
L 265.169019 53.562246 
L 265.248998 51.452438 
L 265.328978 51.912921 
L 265.528928 57.377556 
L 265.568918 56.302727 
L 265.848848 69.184897 
L 265.888838 69.724249 
L 266.008808 76.1259 
L 266.048798 75.973974 
L 266.088788 75.981722 
L 266.248748 83.288288 
L 266.288738 82.752257 
L 266.448697 90.721874 
L 266.488687 90.714402 
L 266.848597 111.913488 
L 266.928577 115.757855 
L 267.168517 132.945705 
L 267.328477 130.044442 
L 268.128276 54.440871 
L 268.168266 55.892333 
L 268.288236 51.81219 
L 268.328226 53.036178 
L 268.368216 52.404398 
L 268.408206 52.734263 
L 268.648146 63.429417 
L 268.688136 61.88608 
L 268.928075 74.55489 
L 269.567915 108.113952 
L 270.207754 130.470057 
L 270.247744 129.996568 
L 270.287734 129.231956 
L 270.407704 134.289241 
L 270.487684 132.663715 
L 270.647644 130.579643 
L 270.727624 131.338166 
L 270.847594 125.71358 
L 270.887584 125.565805 
L 271.127524 109.683855 
L 271.367463 94.103267 
L 271.727373 66.619865 
L 271.767363 66.514983 
L 272.047293 53.576359 
L 272.087283 53.611228 
L 272.127273 54.099107 
L 272.247243 51.335104 
L 272.487182 55.279924 
L 272.727122 68.172057 
L 273.446942 133.321231 
L 273.526922 132.766659 
L 273.646891 126.645338 
L 273.686881 126.732232 
L 274.046791 106.493131 
L 274.446691 81.148316 
L 274.646641 64.280092 
L 275.00655 51.188989 
L 275.08653 52.185226 
L 275.12652 53.538724 
L 275.2065 52.569053 
L 275.24649 53.755128 
L 275.28648 52.262711 
L 275.32647 51.53103 
L 275.36646 52.273226 
L 275.88633 74.419844 
L 276.166259 109.431752 
L 276.406199 131.760737 
L 276.446189 133.110084 
L 276.526169 132.353498 
L 276.606149 124.362849 
L 277.006049 74.838541 
L 277.245988 56.871966 
L 277.405948 52.114382 
L 277.765858 63.325365 
L 277.805848 62.800957 
L 277.965808 69.990742 
L 278.045788 73.958808 
L 278.245738 82.741741 
L 278.285728 82.796258 
L 278.485677 96.167138 
L 278.525667 94.904131 
L 278.685627 102.954 
L 278.725617 103.400646 
L 278.925567 113.751268 
L 279.085527 116.473485 
L 279.325467 123.996179 
L 279.365457 122.980294 
L 279.405447 128.191719 
L 279.485427 125.807946 
L 279.525417 126.316027 
L 279.685376 132.536141 
L 279.765356 135.807395 
L 279.885326 128.5202 
L 279.925316 130.799092 
L 279.965306 127.675613 
L 280.005296 126.496456 
L 280.245236 106.109303 
L 280.845085 56.730002 
L 280.885075 59.257122 
L 280.925065 57.280699 
L 281.204995 50.067116 
L 281.284975 54.39438 
L 281.364955 53.667404 
L 281.404945 53.983156 
L 281.484925 52.714338 
L 282.044784 74.585884 
L 282.244734 88.149923 
L 282.684624 117.559106 
L 282.724614 116.751878 
L 283.004544 126.367776 
L 283.204493 132.778835 
L 283.324463 126.176553 
L 283.924313 62.535571 
L 284.284223 49.915466 
L 284.404192 55.091193 
L 284.444182 53.283023 
L 284.564152 56.12036 
L 284.884072 78.059429 
L 285.403942 126.535199 
L 285.443932 124.971937 
L 285.483922 126.196201 
L 285.643881 132.397498 
L 285.683871 131.22609 
L 285.723861 133.421408 
L 285.763851 132.565475 
L 286.123761 119.024128 
L 286.403691 93.077697 
L 286.88357 57.133201 
L 287.00354 50.918345 
L 287.04353 52.714061 
L 287.12351 50.163419 
L 287.1635 50.936609 
L 287.48342 61.720594 
L 288.043279 92.517867 
L 288.323209 121.368328 
L 288.563149 133.620102 
L 288.883069 109.195146 
L 289.083019 87.861844 
L 289.562898 60.198012 
L 289.722858 54.587263 
L 289.762848 54.721755 
L 289.842828 54.343738 
L 289.962798 51.016031 
L 290.002788 51.335104 
L 290.082768 52.920504 
L 290.122758 50.943804 
L 290.202738 51.628163 
L 290.802587 89.099945 
L 291.362447 127.880948 
L 291.402437 128.087944 
L 291.562397 133.773688 
L 291.602386 134.092761 
L 291.842326 115.146276 
L 292.082266 87.04327 
L 292.122256 86.318785 
L 292.322206 68.00491 
L 292.362196 67.98886 
L 292.522156 58.361616 
L 292.562146 59.753027 
L 292.602136 57.699396 
L 292.722106 55.177256 
L 292.842075 51.26592 
L 292.882065 52.477732 
L 292.922055 51.373569 
L 292.962045 51.478174 
L 293.002035 53.006844 
L 293.082015 52.091413 
L 293.122005 52.257453 
L 293.401935 63.548135 
L 294.241724 131.162995 
L 294.361694 130.749003 
L 294.761594 106.630113 
L 294.921554 100.02368 
L 295.241473 71.180968 
L 295.441423 55.469486 
L 295.681363 48.69812 
L 295.761343 51.351707 
L 295.961293 58.829294 
L 296.041273 59.644271 
L 296.081263 60.565513 
L 296.161243 58.654676 
L 296.401182 65.767806 
L 296.601132 72.135695 
L 296.881062 90.332235 
L 296.921052 90.76366 
L 297.200982 110.252817 
L 297.240972 109.988261 
L 297.560892 124.213967 
L 297.600881 124.178822 
L 297.640871 123.645005 
L 297.680861 126.369989 
L 297.760841 126.267598 
L 297.880811 124.647053 
L 297.920801 126.45799 
L 297.960791 125.178103 
L 298.080761 122.8494 
L 298.120751 123.465406 
L 298.320701 128.435797 
L 298.360691 129.310825 
L 298.480661 125.747341 
L 298.600631 130.924175 
L 298.640621 129.904139 
L 298.88056 133.299092 
L 298.92055 131.383827 
L 299.00053 131.673013 
L 299.04052 132.797376 
L 299.1205 129.447254 
L 299.16049 129.96502 
L 299.20048 131.514998 
L 299.24047 130.365175 
L 299.44042 120.215737 
L 299.48041 120.683415 
L 299.56039 117.918582 
L 299.72035 112.791837 
L 299.80033 111.370816 
L 299.84032 113.951346 
L 299.9203 113.084343 
L 300.120249 106.383821 
L 301.040019 54.003634 
L 301.080009 54.898864 
L 301.119999 53.807708 
L 301.159989 54.144214 
L 301.319948 51.902682 
L 301.359938 52.543317 
L 301.559888 57.007288 
L 302.039768 89.171619 
L 302.719597 132.298428 
L 302.759587 131.883883 
L 302.839567 134.06149 
L 302.999527 130.752877 
L 303.519397 110.481398 
L 303.559387 111.745788 
L 304.039266 89.837437 
L 304.079256 88.844245 
L 304.359186 70.507955 
L 304.399176 70.774172 
L 304.599126 60.179471 
L 304.639116 59.401853 
L 304.839065 52.238081 
L 304.919045 53.501642 
L 305.039015 51.710076 
L 305.238965 57.694138 
L 305.278955 57.746993 
L 305.638865 92.394721 
L 305.918795 124.780162 
L 306.158734 131.985443 
L 306.438664 125.174782 
L 306.478654 125.626686 
L 306.518644 127.059053 
L 306.558634 124.658953 
L 306.878554 115.247837 
L 307.118494 109.627125 
L 307.638363 91.290836 
L 307.678353 91.852879 
L 307.958283 72.67643 
L 307.998273 73.822933 
L 308.358183 58.478951 
L 308.398173 58.625896 
L 308.638112 51.880266 
L 308.678102 52.60918 
L 308.758082 51.017968 
L 308.838062 52.071488 
L 308.958032 54.455261 
L 308.998022 53.382923 
L 309.038012 53.728839 
L 309.078002 56.793374 
L 309.157982 55.988359 
L 309.197972 57.323316 
L 309.237962 56.564516 
L 309.277952 55.118589 
L 309.317942 55.899805 
L 309.517892 58.510498 
L 309.557882 58.043097 
L 309.917791 69.630713 
L 309.997771 69.229175 
L 310.197721 78.20167 
L 310.277701 77.598393 
L 310.357681 79.327417 
L 310.397671 79.720377 
L 310.557631 84.676378 
L 310.597621 83.316238 
L 310.757581 91.428095 
L 310.797571 91.577254 
L 311.19747 107.758628 
L 311.23746 108.535693 
L 311.39742 118.366888 
L 311.43741 117.142624 
L 311.59737 125.505201 
L 311.63736 124.670852 
L 311.91729 131.463249 
L 311.95728 131.879732 
L 312.037259 131.98323 
L 312.197219 123.885209 
L 312.557129 86.209199 
L 312.597119 88.199181 
L 312.757079 76.682962 
L 312.797069 78.051127 
L 312.837059 77.649035 
L 312.957029 72.063745 
L 312.997019 72.292602 
L 313.556878 58.020959 
L 313.636858 59.786788 
L 313.676848 60.168402 
L 313.796818 56.363331 
L 313.836808 56.408716 
L 314.076748 51.771511 
L 314.156728 52.829735 
L 314.236708 48.865544 
L 314.276698 50.635801 
L 314.316688 52.169175 
L 314.356678 50.763374 
L 314.396668 49.59252 
L 314.436657 51.563408 
L 314.556627 55.367095 
L 314.596617 53.866375 
L 314.636607 55.170338 
L 314.676597 55.582393 
L 314.716587 55.470039 
L 314.756577 55.230666 
L 314.956527 61.269244 
L 314.996517 59.691315 
L 315.036507 60.923328 
L 315.356427 74.910768 
L 315.556377 84.528049 
L 315.716336 97.936841 
L 316.036256 129.313869 
L 316.076246 128.332576 
L 316.156226 133.04948 
L 316.196216 130.267489 
L 316.236206 131.697642 
L 316.436156 121.498392 
L 316.636106 114.665869 
L 316.676096 114.50066 
L 316.836055 110.711363 
L 316.876045 109.906625 
L 316.916035 111.160776 
L 317.115985 116.614619 
L 317.155975 115.445701 
L 317.195965 117.087001 
L 317.235955 116.879451 
L 317.275945 116.957213 
L 317.315935 117.134875 
L 317.475895 113.858087 
L 317.515885 116.065305 
L 317.555875 114.691328 
L 317.635855 112.11744 
L 317.675845 112.836944 
L 317.715835 114.506194 
L 317.755825 113.195036 
L 317.795815 113.037575 
L 317.835805 109.528055 
L 317.915785 110.604544 
L 317.955775 110.711916 
L 317.995765 109.721491 
L 318.075744 109.847404 
L 318.115734 113.137199 
L 318.195714 110.802684 
L 318.355674 110.05274 
L 318.395664 111.395722 
L 318.435654 110.423284 
L 318.475644 110.264993 
L 318.515634 111.502817 
L 318.555624 109.548256 
L 318.715584 107.012281 
L 318.755574 109.288958 
L 318.795564 107.13515 
L 318.915534 105.197469 
L 318.955524 101.976858 
L 319.035504 103.760398 
L 319.075494 102.540838 
L 319.155474 103.439942 
L 319.235453 103.398155 
L 319.315433 105.555285 
L 319.355423 104.432028 
L 319.395413 104.466896 
L 319.475393 107.535028 
L 319.515383 106.758517 
L 319.595363 106.910166 
L 319.635353 106.205329 
L 319.675343 106.536024 
L 319.755323 111.631221 
L 319.955273 92.406344 
L 319.995263 97.448962 
L 320.035253 93.878284 
L 320.195213 87.95538 
L 320.235203 92.388633 
L 320.275193 89.517258 
L 320.435152 80.507681 
L 320.475142 83.112009 
L 320.515132 81.634535 
L 320.555122 80.818728 
L 320.595112 82.445914 
L 320.635102 80.292383 
L 320.755072 76.543489 
L 320.795062 79.383594 
L 320.875042 79.019137 
L 320.915032 75.74982 
L 320.955022 77.686394 
L 320.995012 79.533029 
L 321.035002 77.385862 
L 321.154972 76.052842 
L 321.194962 77.625513 
L 321.234952 75.911986 
L 321.274942 76.793378 
L 321.354922 74.084721 
L 321.394912 75.193035 
L 321.474892 76.078025 
L 321.554872 72.502366 
L 321.714831 64.544372 
L 321.994761 72.044097 
L 322.114731 68.752088 
L 322.154721 71.80583 
L 322.194711 71.309649 
L 322.434651 62.84136 
L 322.474641 64.695191 
L 322.514631 60.051621 
L 322.594611 62.516753 
L 322.634601 62.43484 
L 322.754571 61.327634 
L 322.83455 62.775221 
L 322.91453 61.073317 
L 323.0345 63.503858 
L 323.07449 62.452828 
L 323.11448 63.656614 
L 323.15447 64.295312 
L 323.19446 63.251201 
L 323.23445 63.858905 
L 323.31443 62.047692 
L 323.35442 60.771679 
L 323.39441 61.796419 
L 323.4344 62.732881 
L 323.47439 61.562303 
L 323.63435 59.555717 
L 323.55437 61.698456 
L 323.67434 59.974966 
L 323.75432 61.80306 
L 323.79431 62.982771 
L 323.8343 60.253359 
L 323.91428 61.374125 
L 324.074239 58.809923 
L 324.114229 59.879493 
L 324.154219 58.465391 
L 324.234199 56.611837 
L 324.274189 57.810642 
L 324.314179 58.417516 
L 324.354169 57.917184 
L 324.634099 50.629989 
L 324.714079 51.241291 
L 324.794059 53.307099 
L 324.834049 51.148032 
L 324.914029 51.859235 
L 325.033999 52.995498 
L 325.073989 52.176647 
L 325.113979 53.215777 
L 325.153969 52.370359 
L 325.193959 52.170282 
L 325.233948 52.331063 
L 325.273938 54.683289 
L 325.353918 53.628385 
L 325.393908 54.192642 
L 325.433898 54.009169 
L 325.593858 52.026104 
L 325.633848 53.676813 
L 325.673838 52.196572 
L 325.713828 52.16115 
L 325.793808 54.388292 
L 325.833798 52.361227 
L 325.913778 53.504686 
L 325.953768 53.388458 
L 325.993758 54.531086 
L 326.033748 53.265589 
L 326.113728 53.904287 
L 326.153718 53.87523 
L 326.473637 67.324702 
L 326.513627 76.426431 
L 326.593607 73.128334 
L 326.793557 58.804111 
L 326.913527 56.503635 
L 326.953517 57.399418 
L 327.193457 60.022841 
L 327.273437 60.062137 
L 327.353417 58.231552 
L 327.473387 60.656281 
L 327.553367 59.314683 
L 327.793306 53.776714 
L 327.913276 53.854752 
L 327.993256 55.310641 
L 328.033246 57.805384 
L 328.113226 57.118534 
L 328.153216 57.864328 
L 328.313176 64.328244 
L 328.353166 63.316233 
L 328.393156 64.767971 
L 328.473136 62.254411 
L 328.513126 63.30461 
L 328.553116 64.072266 
L 328.713076 69.962239 
L 328.753066 68.695911 
L 328.793056 70.381212 
L 329.152965 78.225468 
L 329.232945 77.879553 
L 329.272935 76.664144 
L 329.352915 77.163646 
L 329.392905 77.027494 
L 329.512875 82.66398 
L 329.552865 80.268307 
L 329.632845 83.428868 
L 329.672835 81.539616 
L 329.712825 81.332067 
L 329.792805 82.192428 
L 329.952765 85.607859 
L 329.992755 85.55694 
L 330.032744 84.531093 
L 330.112724 85.30539 
L 330.152714 85.321718 
L 330.192704 85.829798 
L 330.232694 84.511445 
L 330.272684 85.937724 
L 330.352664 88.771464 
L 330.432644 88.092639 
L 330.472634 86.819947 
L 330.512624 88.995617 
L 330.592604 89.09192 
L 330.752564 87.582345 
L 330.792554 90.169239 
L 330.872534 89.257129 
L 330.912524 88.595739 
L 330.952514 89.315797 
L 331.112474 92.609189 
L 331.152464 90.856919 
L 331.192454 92.744511 
L 331.232443 93.294932 
L 331.352413 90.540614 
L 331.392403 91.754916 
L 331.472383 90.882655 
L 331.512373 89.551019 
L 331.552363 90.816516 
L 331.792303 94.969716 
L 331.832293 92.783254 
L 331.872283 93.939718 
L 331.912273 94.682468 
L 331.952263 93.769528 
L 331.992253 94.472152 
L 332.032243 94.516982 
L 332.072233 94.301408 
L 332.112223 95.193316 
L 332.152213 93.207484 
L 332.192203 95.399759 
L 332.232193 96.16188 
L 332.392153 93.051684 
L 332.432142 97.370923 
L 332.512122 96.241302 
L 332.552112 97.210419 
L 332.712072 94.433686 
L 332.752062 95.654906 
L 332.792052 92.140681 
L 332.832042 95.335833 
L 333.031992 97.639631 
L 333.071982 96.363618 
L 333.111972 97.269639 
L 333.191952 98.355261 
L 333.231942 96.715344 
L 333.271932 98.123359 
L 333.311922 98.235989 
L 333.431892 96.620979 
L 333.471882 97.160053 
L 333.591852 101.70566 
L 333.631841 99.218943 
L 333.671831 96.956102 
L 333.751811 97.82006 
L 333.831791 98.002704 
L 333.871781 97.353766 
L 333.911771 99.456102 
L 333.991751 98.641125 
L 334.031741 98.369097 
L 334.071731 100.020913 
L 334.111721 98.150755 
L 334.151711 98.961028 
L 334.231691 101.813032 
L 334.311671 97.755858 
L 334.351661 101.710918 
L 334.431641 99.509512 
L 334.551611 101.032923 
L 334.591601 100.129392 
L 334.671581 100.348841 
L 334.711571 100.463408 
L 334.751561 102.874578 
L 334.791551 101.434739 
L 334.87153 100.605925 
L 334.9915 105.093972 
L 335.07148 104.523073 
L 335.19145 103.399539 
L 335.27143 102.355981 
L 335.35141 105.740418 
L 335.3914 106.087441 
L 335.51137 103.595189 
L 335.55136 104.277058 
L 335.59135 104.868711 
L 335.63134 104.635703 
L 335.67133 107.967561 
L 335.75131 107.17998 
L 335.7913 106.951953 
L 335.83129 104.117936 
L 335.87128 104.741968 
L 336.031239 107.107753 
L 336.151209 105.291835 
L 336.111219 107.361517 
L 336.191199 105.353547 
L 336.351159 108.38515 
L 336.391149 107.284585 
L 336.431139 105.594857 
L 336.471129 107.501267 
L 336.511119 107.033312 
L 336.591099 109.117107 
L 336.631089 108.739921 
L 336.671079 107.314196 
L 336.751059 107.391404 
L 336.791049 108.257576 
L 336.911019 106.327091 
L 336.990999 107.024457 
L 337.070979 102.532536 
L 337.110969 105.776117 
L 337.150959 105.868269 
L 337.190949 105.306225 
L 337.270928 105.494957 
L 337.310918 105.413598 
L 337.350908 104.966951 
L 337.390898 105.157067 
L 337.470878 107.66786 
L 337.590848 107.348787 
L 337.670828 105.152639 
L 337.750808 105.501598 
L 337.790798 105.53702 
L 337.870778 106.353658 
L 337.910768 105.910886 
L 338.030738 104.220881 
L 338.070728 105.109745 
L 338.150708 107.125187 
L 338.190698 106.58888 
L 338.230688 105.835061 
L 338.310668 107.811484 
L 338.430637 103.89572 
L 338.470627 105.742356 
L 338.510617 104.182692 
L 338.550607 103.866387 
L 338.590597 102.284861 
L 338.630587 102.555505 
L 338.790547 106.478741 
L 338.830537 105.430478 
L 338.870527 106.060044 
L 339.030487 107.140684 
L 339.150457 104.523073 
L 339.190447 105.083456 
L 339.270427 107.574601 
L 339.310417 106.827977 
L 339.350407 107.203226 
L 339.510367 110.829251 
L 339.590347 111.190663 
L 339.630336 109.680258 
L 339.830286 113.913433 
L 339.870276 112.466953 
L 339.950256 113.445756 
L 340.150206 117.228411 
L 340.270176 115.548645 
L 340.470126 118.904302 
L 340.550106 119.695757 
L 340.590096 117.231178 
L 340.630086 120.074881 
L 340.710066 119.999333 
L 340.750056 118.969058 
L 340.790046 120.356041 
L 340.950005 121.288075 
L 340.989995 121.017431 
L 341.029985 121.440278 
L 341.069975 121.660004 
L 341.109965 120.435463 
L 341.189945 120.795768 
L 341.349905 122.544994 
L 341.389895 122.496843 
L 341.429885 122.151204 
L 341.469875 122.66648 
L 341.509865 123.102887 
L 341.549855 122.795714 
L 341.589845 121.821892 
L 341.669825 122.111908 
L 341.709815 122.091153 
L 341.749805 122.614177 
L 341.789795 122.173066 
L 341.829785 120.47808 
L 341.869775 122.554126 
L 341.909765 123.420575 
L 341.949755 122.716015 
L 342.109714 120.704724 
L 342.149704 121.586116 
L 342.189694 121.179043 
L 342.229684 120.218228 
L 342.269674 120.663214 
L 342.349654 123.321782 
L 342.389644 122.536139 
L 342.429634 120.916977 
L 342.469624 123.064698 
L 342.509614 121.767376 
L 342.589594 122.16504 
L 342.629584 125.601227 
L 342.669574 121.906019 
L 342.709564 122.416313 
L 342.789544 120.326984 
L 342.949504 124.022192 
L 342.989494 123.110912 
L 343.029484 124.504536 
L 343.069474 123.308222 
L 343.229433 125.32145 
L 343.389393 122.129342 
L 343.429383 122.251381 
L 343.549353 123.885486 
L 343.589343 125.513779 
L 343.629333 123.74878 
L 343.669323 125.005422 
L 343.749303 126.810271 
L 343.829283 126.30053 
L 343.869273 126.381059 
L 343.909263 126.347574 
L 343.949253 128.374916 
L 344.029233 126.863403 
L 344.189193 125.184468 
L 344.229183 128.459042 
L 344.309163 126.588885 
L 344.349153 125.696699 
L 344.429132 128.543722 
L 344.469122 126.871152 
L 344.589092 128.77092 
L 344.669072 125.854714 
L 344.749052 130.927772 
L 344.829032 130.298759 
L 344.869022 131.15746 
L 344.909012 130.909785 
L 345.028982 129.490424 
L 345.108962 131.06088 
L 345.148952 130.299313 
L 345.188942 130.471164 
L 345.228932 128.004648 
L 345.308912 129.409895 
L 345.348902 128.890468 
L 345.548852 133.582466 
L 345.628831 130.082078 
L 345.668821 131.088554 
L 345.708811 131.004427 
L 345.748801 131.686019 
L 345.788791 131.052855 
L 345.828781 130.962917 
L 345.948751 128.163215 
L 345.988741 131.455501 
L 346.068721 129.720665 
L 346.148701 132.634658 
L 346.188691 130.790236 
L 346.228681 131.448306 
L 346.268671 130.45456 
L 346.348651 131.15912 
L 346.428631 128.612352 
L 346.548601 130.868275 
L 346.588591 130.542837 
L 346.628581 129.301416 
L 346.82853 134.572338 
L 346.90851 130.178381 
L 346.9485 130.970389 
L 346.98849 132.101948 
L 347.02848 130.793003 
L 347.06847 130.290181 
L 347.10846 130.998892 
L 347.14845 131.662773 
L 347.26842 128.47786 
L 347.30841 129.341819 
L 347.3484 131.952512 
L 347.42838 131.837668 
L 347.66832 128.318462 
L 347.70831 128.758744 
L 347.7483 127.713249 
L 347.78829 129.933749 
L 347.86827 128.51854 
L 347.90826 130.186406 
L 347.94825 127.818407 
L 348.028229 129.812264 
L 348.108209 129.571783 
L 348.148199 126.136151 
L 348.228179 128.510515 
L 348.308159 126.836007 
L 348.388139 129.406851 
L 348.508109 126.602168 
L 348.548099 126.704836 
L 348.588089 126.308278 
L 348.628079 127.203784 
L 348.668069 125.962916 
L 348.788039 123.517432 
L 348.828029 124.621041 
L 348.868019 126.263724 
L 348.908009 126.150264 
L 348.947999 124.094142 
L 348.987989 125.649932 
L 349.067969 126.042338 
L 349.107959 125.620321 
L 349.227928 121.643123 
L 349.267918 122.83833 
L 349.347898 121.756583 
L 349.387888 123.821007 
L 349.427878 121.322944 
L 349.547848 121.758521 
L 349.587838 119.773796 
L 349.667818 121.219723 
L 349.707808 120.595968 
L 349.827778 123.330361 
L 350.067718 118.340875 
L 350.107708 120.179485 
L 350.187688 119.982729 
L 350.267668 115.640797 
L 350.307658 117.446476 
L 350.387638 116.40956 
L 350.427627 117.595358 
L 350.467617 116.529938 
L 350.547597 114.785694 
L 350.587587 115.852774 
L 350.627577 116.358364 
L 350.667567 115.126075 
L 350.707557 116.530215 
L 350.747547 115.76671 
L 350.827527 117.28016 
L 350.987487 113.024846 
L 351.107457 114.829418 
L 351.147447 114.345136 
L 351.267417 112.2868 
L 351.307407 112.970053 
L 351.347397 112.854655 
L 351.387387 111.841261 
L 351.427377 112.80512 
L 351.467367 112.929373 
L 351.507357 112.78907 
L 351.587337 111.593586 
L 351.667316 111.955552 
L 351.707306 112.401091 
L 351.747296 111.434188 
L 351.787286 112.373418 
L 351.827276 112.311706 
L 351.867266 113.094859 
L 351.907256 112.359028 
L 351.987236 112.60698 
L 352.067216 111.138084 
L 352.147196 114.075045 
L 352.187186 111.997338 
L 352.227176 113.604323 
L 352.267166 112.278222 
L 352.307156 111.468503 
L 352.347146 112.489645 
L 352.427126 114.500936 
L 352.467116 113.809936 
L 352.507106 113.40646 
L 352.547096 115.163434 
L 352.627076 114.984941 
L 352.707056 115.843089 
L 352.747046 114.802298 
L 352.827025 115.4017 
L 352.946995 119.134267 
L 352.986985 118.882717 
L 353.026975 118.338661 
L 353.066965 118.449354 
L 353.106955 118.786414 
L 353.146945 118.438285 
L 353.186935 117.792392 
L 353.266915 117.835839 
L 353.466865 121.238264 
L 353.546845 118.224094 
L 353.586835 119.803129 
L 353.626825 119.126519 
L 353.666815 120.938286 
L 353.706805 119.026895 
L 353.746795 119.152255 
L 353.786785 120.235385 
L 353.826775 117.351557 
L 353.906755 118.619822 
L 353.986735 120.059107 
L 354.026724 119.40076 
L 354.066714 118.36163 
L 354.106704 119.645669 
L 354.146694 119.237212 
L 354.186684 120.2697 
L 354.346644 117.049642 
L 354.386634 118.249 
L 354.466614 118.076042 
L 354.506604 116.670242 
L 354.546594 116.90242 
L 354.626574 120.222102 
L 354.706554 119.121537 
L 354.746544 118.901258 
L 354.826524 117.737322 
L 354.866514 119.549642 
L 354.906504 116.559549 
L 355.146444 121.667752 
L 355.186434 120.229297 
L 355.226423 120.311487 
L 355.426373 124.651204 
L 355.466363 123.381003 
L 355.506353 124.256307 
L 355.546343 124.605267 
L 355.706303 129.557117 
L 355.746293 129.630727 
L 355.786283 130.942716 
L 355.826273 130.368773 
L 355.866263 129.221994 
L 355.906253 132.992749 
L 355.986233 132.887038 
L 356.026223 132.998007 
L 356.066213 134.777673 
L 356.106203 134.480186 
L 356.226173 132.837779 
L 356.386133 135.506587 
L 356.426122 137.795164 
L 356.466112 136.574774 
L 356.546092 137.171686 
L 356.666062 133.773688 
L 356.706052 135.916151 
L 356.786032 134.622703 
L 356.826022 133.01046 
L 356.866012 135.529555 
L 356.906002 137.043558 
L 356.945992 136.367778 
L 357.105952 132.567135 
L 357.185932 133.530717 
L 357.225922 135.541732 
L 357.265912 132.264113 
L 357.305902 133.812984 
L 357.345892 133.678492 
L 357.505852 131.683805 
L 357.585832 131.798096 
L 357.625821 132.549701 
L 357.785781 128.02817 
L 357.825771 127.797652 
L 357.945741 128.943324 
L 358.385631 107.218723 
L 358.425621 107.931309 
L 358.545591 102.378673 
L 358.585581 103.407011 
L 358.625571 101.879448 
L 358.82552 97.10443 
L 358.9055 97.413817 
L 359.06546 100.642731 
L 359.18543 97.600888 
L 359.58533 113.158507 
L 359.78528 115.287687 
L 359.90525 113.731344 
L 360.465109 92.596459 
L 360.585079 88.418907 
L 360.745039 85.28851 
L 360.785029 87.172781 
L 360.825019 84.290889 
L 360.865009 84.285908 
L 360.944989 86.555114 
L 360.984979 85.774452 
L 361.024969 86.024895 
L 361.064959 85.83478 
L 361.224918 89.698241 
L 361.384878 87.518143 
L 361.504848 89.623246 
L 361.544838 89.331294 
L 361.664808 91.362786 
L 361.704798 90.584891 
L 361.744788 90.179202 
L 361.864758 93.041445 
L 361.904748 89.448351 
L 361.944738 93.635313 
L 361.984728 93.804673 
L 362.024718 92.573767 
L 362.064708 93.338656 
L 362.104698 94.998773 
L 362.264658 90.277165 
L 362.344638 90.133541 
L 362.384628 91.248772 
L 362.464607 91.353101 
L 362.504597 89.445584 
L 362.664557 92.844411 
L 362.784527 93.98704 
L 362.824517 93.312366 
L 363.024467 98.602936 
L 363.104447 99.293937 
L 363.224417 98.212467 
L 363.344387 99.186565 
L 363.544337 94.847954 
L 363.584327 97.170569 
L 363.624316 94.898873 
L 363.664306 94.182413 
L 363.824266 96.667746 
L 363.944236 92.394168 
L 363.984226 95.380941 
L 364.064206 97.054895 
L 364.104196 95.789398 
L 364.144186 95.380941 
L 364.184176 92.717115 
L 364.264156 94.157507 
L 364.344136 94.430642 
L 364.384126 93.675992 
L 364.424116 95.458426 
L 364.464106 93.9328 
L 364.504096 93.398706 
L 364.544086 94.591146 
L 364.584076 93.227132 
L 364.624066 92.058215 
L 364.664056 95.799083 
L 364.744036 93.641401 
L 364.824015 90.280486 
L 364.864005 91.815244 
L 364.943985 91.060594 
L 364.983975 93.149924 
L 365.023965 92.793216 
L 365.143935 89.027718 
L 365.183925 90.710528 
L 365.263905 89.850167 
L 365.303895 90.426047 
L 365.343885 89.530264 
L 365.383875 89.060373 
L 365.423865 89.45859 
L 365.503845 91.192042 
L 365.703795 98.830687 
L 365.863755 101.246284 
L 366.063704 111.424225 
L 366.103694 111.776229 
L 366.143684 111.334287 
L 366.463604 148.047269 
L 366.703544 163.214973 
L 366.863504 159.300316 
L 367.183424 133.760682 
L 367.263403 136.840714 
L 367.303393 136.84182 
L 367.503343 145.431594 
L 367.583323 151.632338 
L 367.783273 179.116847 
L 368.063203 219.764133 
L 368.303143 227.549446 
L 368.503092 218.23408 
L 368.583072 219.596434 
L 368.783022 232.983641 
L 368.863002 232.950156 
L 368.902992 232.276589 
L 369.022962 233.707849 
L 369.062952 233.693736 
L 369.142932 234.779634 
L 369.182922 233.183165 
L 369.222912 234.278472 
L 369.262902 235.51934 
L 369.342882 235.030907 
L 369.382872 235.159864 
L 369.502842 236.724509 
L 369.622811 235.67431 
L 369.662801 237.182225 
L 369.742781 236.48652 
L 369.782771 236.453588 
L 369.822761 237.996648 
L 369.862751 236.090792 
L 370.102691 238.434439 
L 370.142681 236.566772 
L 370.222661 237.405271 
L 370.262651 239.292863 
L 370.302641 237.377598 
L 370.342631 237.814282 
L 370.382621 237.546681 
L 370.422611 237.106123 
L 370.462601 237.828948 
L 370.502591 237.913629 
L 370.542581 237.526203 
L 370.622561 237.62638 
L 370.662551 239.510375 
L 370.742531 238.889664 
L 370.782521 238.50888 
L 370.82251 238.654995 
L 370.8625 239.854353 
L 370.90249 238.358614 
L 370.94248 238.018233 
L 370.98247 238.072473 
L 371.02246 240.791646 
L 371.06245 240.159035 
L 371.18242 238.071919 
L 371.2624 239.961172 
L 371.30239 238.405659 
L 371.34238 237.966484 
L 371.38237 238.304375 
L 371.46235 240.626436 
L 371.50234 238.838192 
L 371.62231 240.196948 
L 371.6623 238.991501 
L 371.70229 239.463883 
L 371.74228 240.336144 
L 371.78227 239.081163 
L 371.86225 238.620126 
L 371.90224 240.816552 
L 371.98222 239.553268 
L 372.022209 239.89614 
L 372.062199 238.265079 
L 372.142179 238.564503 
L 372.182169 238.399571 
L 372.302139 240.615644 
L 372.422109 239.02886 
L 372.462099 239.914681 
L 372.542079 239.888668 
L 372.622059 240.656323 
L 372.822009 238.170159 
L 373.021959 242.116364 
L 373.181919 238.476779 
L 373.301888 241.008604 
L 373.381868 239.362876 
L 373.421858 240.138004 
L 373.461848 240.835093 
L 373.541828 238.109002 
L 373.581818 239.220359 
" style="fill:none;stroke:#1f77b4;stroke-linecap:square;stroke-width:1.5;"/>
   </g>
   <g id="patch_3">
    <path d="M 54 252 
L 54 34.56 
" style="fill:none;stroke:#000000;stroke-linecap:square;stroke-linejoin:miter;stroke-width:0.8;"/>
   </g>
   <g id="patch_4">
    <path d="M 388.8 252 
L 388.8 34.56 
" style="fill:none;stroke:#000000;stroke-linecap:square;stroke-linejoin:miter;stroke-width:0.8;"/>
   </g>
   <g id="patch_5">
    <path d="M 54 252 
L 388.8 252 
" style="fill:none;stroke:#000000;stroke-linecap:square;stroke-linejoin:miter;stroke-width:0.8;"/>
   </g>
   <g id="patch_6">
    <path d="M 54 34.56 
L 388.8 34.56 
" style="fill:none;stroke:#000000;stroke-linecap:square;stroke-linejoin:miter;stroke-width:0.8;"/>
   </g>
  </g>
 </g>
 <defs>
  <clipPath id="pc7421d9e1b">
   <rect height="217.44" width="334.8" x="54" y="34.56"/>
  </clipPath>
 </defs>
</svg>
