<svg height="288pt" stroke-linejoin="round" viewBox="0 0 432 288" width="432pt" xmlns="http://www.w3.org/2000/svg" xmlns:xlink="http://www.w3.org/1999/xlink"><defs stroke-linejoin="round"><clipPath id="a" stroke-linejoin="round"><path d="m54 34.56h334.8v217.44h-334.8z"/></clipPath><path id="b" d="m0 0v3.5" stroke="#000" stroke-linejoin="round" stroke-width=".8"/><path id="c" d="m31.78125 66.40625q-7.609375 0-11.453125-7.5-3.828125-7.484375-3.828125-22.53125 0-14.984375 3.828125-22.484375 3.84375-7.5 11.453125-7.5 7.671875 0 11.5 7.5 3.84375 7.5 3.84375 22.484375 0 15.046875-3.84375 22.53125-3.828125 7.5-11.5 7.5zm0 7.8125q12.265625 0 18.734375-9.703125 6.46875-9.6875 6.46875-28.140625 0-18.40625-6.46875-28.109375-6.46875-9.6875-18.734375-9.6875-12.25 0-18.71875 9.6875-6.46875 9.703125-6.46875 28.109375 0 18.453125 6.46875 28.140625 6.46875 9.703125 18.71875 9.703125z" stroke-linejoin="round"/><path id="d" d="m33.015625 40.375q-6.640625 0-10.53125-4.546875-3.875-4.53125-3.875-12.4375 0-7.859375 3.875-12.4375 3.890625-4.5625 10.53125-4.5625 6.640625 0 10.515625 4.5625 3.875 4.578125 3.875 12.4375 0 7.90625-3.875 12.4375-3.875 4.546875-10.515625 4.546875zm19.578125 30.921875v-8.984375q-3.71875 1.75-7.5 2.671875-3.78125.9375-7.5.9375-9.765625 0-14.921875-6.59375-5.140625-6.59375-5.875-19.921875 2.875 4.25 7.21875 6.515625 4.359375 2.265625 9.578125 2.265625 10.984375 0 17.359375-6.671875 6.375-6.65625 6.375-18.125 0-11.234375-6.640625-18.03125-6.640625-6.78125-17.671875-6.78125-12.65625 0-19.34375 9.6875-6.6875 9.703125-6.6875 28.109375 0 17.28125 8.203125 27.5625 8.203125 10.28125 22.015625 10.28125 3.71875 0 7.5-.734375 3.78125-.734375 7.890625-2.1875z" stroke-linejoin="round"/><path id="e" d="m31.78125 34.625q-7.03125 0-11.0625-3.765625-4.015625-3.765625-4.015625-10.34375 0-6.59375 4.015625-10.359375 4.03125-3.765625 11.0625-3.765625 7.03125 0 11.078125 3.78125 4.0625 3.796875 4.0625 10.34375 0 6.578125-4.03125 10.34375-4.015625 3.765625-11.109375 3.765625zm-9.859375 4.1875q-6.34375 1.5625-9.890625 5.90625-3.53125 4.359375-3.53125 10.609375 0 8.734375 6.21875 13.8125 6.234375 5.078125 17.0625 5.078125 10.890625 0 17.09375-5.078125 6.203125-5.078125 6.203125-13.8125 0-6.25-3.546875-10.609375-3.53125-4.34375-9.828125-5.90625 7.125-1.65625 11.09375-6.5 3.984375-4.828125 3.984375-11.796875 0-10.609375-6.46875-16.28125-6.46875-5.65625-18.53125-5.65625-12.046875 0-18.53125 5.65625-6.46875 5.671875-6.46875 16.28125 0 6.96875 4 11.796875 4.015625 4.84375 11.140625 6.5zm-3.609375 15.578125q0-5.65625 3.53125-8.828125 3.546875-3.171875 9.9375-3.171875 6.359375 0 9.9375 3.171875 3.59375 3.171875 3.59375 8.828125 0 5.671875-3.59375 8.84375-3.578125 3.171875-9.9375 3.171875-6.390625 0-9.9375-3.171875-3.53125-3.171875-3.53125-8.84375z" stroke-linejoin="round"/><path id="f" d="m12.40625 8.296875h16.109375v55.625l-17.53125-3.515625v8.984375l17.4375 3.515625h9.859375v-64.609375h16.109375v-8.296875h-41.984375z" stroke-linejoin="round"/><path id="g" d="m0 0h-3.5" stroke="#000" stroke-linejoin="round" stroke-width=".8"/></defs><g stroke-linejoin="round"><path d="m0 288h432v-288h-432z" fill="#fff"/><path d="m54 252h334.8v-217.44h-334.8z" fill="#fff" stroke-linejoin="round"/><g fill="#f00" stroke="#f00" stroke-linejoin="miter"><path clip-path="url(#a)" d="m74.225476 252v-217.44h.011659v217.44z" opacity=".5"/><path clip-path="url(#a)" d="m77.303301 252v-217.44h.011658v217.44z" opacity=".5"/><path clip-path="url(#a)" d="m79.780717 252v-217.44h.011658v217.44z" opacity=".5"/><path clip-path="url(#a)" d="m83.359854 252v-217.44h.011658v217.44z" opacity=".5"/><path clip-path="url(#a)" d="m87.918299 252v-217.44h.011658v217.44z" opacity=".5"/><path clip-path="url(#a)" d="m91.176829 252v-217.44h.011658v217.44z" opacity=".5"/><path clip-path="url(#a)" d="m94.65104 252v-217.44h.011659v217.44z" opacity=".5"/><path clip-path="url(#a)" d="m97.723036 252v-217.44h.011658v217.44z" opacity=".5"/><path clip-path="url(#a)" d="m100.28206 252v-217.44h.011659v217.44z" opacity=".5"/><path clip-path="url(#a)" d="m104.624824 252v-217.44h.011659v217.44z" opacity=".5"/><path clip-path="url(#a)" d="m107.720137 252v-217.44h.011658v217.44z" opacity=".5"/><path clip-path="url(#a)" d="m110.331624 252v-217.44h.011659v217.44z" opacity=".5"/><path clip-path="url(#a)" d="m112.045413 252v-217.44h.011658v217.44z" opacity=".5"/><path clip-path="url(#a)" d="m114.913386 252v-217.44h.011658v217.44z" opacity=".5"/><path clip-path="url(#a)" d="m117.647287 252v-217.44h.011659v217.44z" opacity=".5"/><path clip-path="url(#a)" d="m121.873467 252v-217.44h.011658v217.44z" opacity=".5"/><path clip-path="url(#a)" d="m124.164348 252v-217.44h.011658v217.44z" opacity=".5"/><path clip-path="url(#a)" d="m129.142496 252v-217.44h.011658v217.44z" opacity=".5"/><path clip-path="url(#a)" d="m133.840842 252v-217.44h.011659v217.44z" opacity=".5"/><path clip-path="url(#a)" d="m137.029422 252v-217.44h.011658v217.44z" opacity=".5"/><path clip-path="url(#a)" d="m139.93237 252v-217.44h.011659v217.44z" opacity=".5"/><path clip-path="url(#a)" d="m142.96939 252v-217.44h.011659v217.44z" opacity=".5"/><path clip-path="url(#a)" d="m146.933256 252v-217.44h.011658v217.44z" opacity=".5"/><path clip-path="url(#a)" d="m150.01108 252v-217.44h.011659v217.44z" opacity=".5"/><path clip-path="url(#a)" d="m152.471008 252v-217.44h.011659v217.44z" opacity=".5"/><path clip-path="url(#a)" d="m156.096779 252v-217.44h.011658v217.44z" opacity=".5"/><path clip-path="url(#a)" d="m158.096199 252v-217.44h.011659v217.44z" opacity=".5"/><path clip-path="url(#a)" d="m160.975831 252v-217.44h.011658v217.44z" opacity=".5"/><path clip-path="url(#a)" d="m163.884608 252v-217.44h.011659v217.44z" opacity=".5"/><path clip-path="url(#a)" d="m166.16966 252v-217.44h.011658v217.44z" opacity=".5"/><path clip-path="url(#a)" d="m167.615305 252v-217.44h.011658v217.44z" opacity=".5"/><path clip-path="url(#a)" d="m171.124491 252v-217.44h.011659v217.44z" opacity=".5"/><path clip-path="url(#a)" d="m173.980806 252v-217.44h.011658v217.44z" opacity=".5"/><path clip-path="url(#a)" d="m189.824608 252v-217.44h.011658v217.44z" opacity=".5"/><path clip-path="url(#a)" d="m200.900114 252v-217.44h.011658v217.44z" opacity=".5"/><path clip-path="url(#a)" d="m205.726702 252v-217.44h.011659v217.44z" opacity=".5"/><path clip-path="url(#a)" d="m209.649763 252v-217.44h.011658v217.44z" opacity=".5"/><path clip-path="url(#a)" d="m212.552711 252v-217.44h.011659v217.44z" opacity=".5"/><path clip-path="url(#a)" d="m217.30352 252v-217.44h.011659v217.44z" opacity=".5"/><path clip-path="url(#a)" d="m220.043251 252v-217.44h.011658v217.44z" opacity=".5"/><path clip-path="url(#a)" d="m223.097758 252v-217.44h.011659v217.44z" opacity=".5"/><path clip-path="url(#a)" d="m226.327143 252v-217.44h.011658v217.44z" opacity=".5"/><path clip-path="url(#a)" d="m230.687394 252v-217.44h.011659v217.44z" opacity=".5"/><path clip-path="url(#a)" d="m235.210864 252v-217.44h.011658v217.44z" opacity=".5"/><path clip-path="url(#a)" d="m239.128095 252v-217.44h.011659v217.44z" opacity=".5"/><path clip-path="url(#a)" d="m243.943026 252v-217.44h.011658v217.44z" opacity=".5"/><path clip-path="url(#a)" d="m247.137435 252v-217.44h.011658v217.44z" opacity=".5"/><path clip-path="url(#a)" d="m250.774864 252v-217.44h.011658v217.44z" opacity=".5"/><path clip-path="url(#a)" d="m253.648666 252v-217.44h.011659v217.44z" opacity=".5"/><path clip-path="url(#a)" d="m256.06196 252v-217.44h.011659v217.44z" opacity=".5"/><path clip-path="url(#a)" d="m257.455142 252v-217.44h.011659v217.44z" opacity=".5"/><path clip-path="url(#a)" d="m260.183214 252v-217.44h.011659v217.44z" opacity=".5"/><path clip-path="url(#a)" d="m264.718342 252v-217.44h.011659v217.44z" opacity=".5"/><path clip-path="url(#a)" d="m269.440005 252v-217.44h.011659v217.44z" opacity=".5"/><path clip-path="url(#a)" d="m274.080059 252v-217.44h.011659v217.44z" opacity=".5"/><path clip-path="url(#a)" d="m276.81396 252v-217.44h.011659v217.44z" opacity=".5"/><path clip-path="url(#a)" d="m279.093183 252v-217.44h.011658v217.44z" opacity=".5"/><path clip-path="url(#a)" d="m283.756554 252v-217.44h.011658v217.44z" opacity=".5"/><path clip-path="url(#a)" d="m288.046855 252v-217.44h.011658v217.44z" opacity=".5"/><path clip-path="url(#a)" d="m291.451115 252v-217.44h.011659v217.44z" opacity=".5"/><path clip-path="url(#a)" d="m294.062603 252v-217.44h.011658v217.44z" opacity=".5"/><path clip-path="url(#a)" d="m299.390504 252v-217.44h.011658v217.44z" opacity=".5"/><path clip-path="url(#a)" d="m304.351165 252v-217.44h.011658v217.44z" opacity=".5"/><path clip-path="url(#a)" d="m306.787776 252v-217.44h.011658v217.44z" opacity=".5"/><path clip-path="url(#a)" d="m309.026194 252v-217.44h.011658v217.44z" opacity=".5"/><path clip-path="url(#a)" d="m310.279475 252v-217.44h.011658v217.44z" opacity=".5"/><path clip-path="url(#a)" d="m311.49778 252v-217.44h.011659v217.44z" opacity=".5"/><path clip-path="url(#a)" d="m312.855987 252v-217.44h.011659v217.44z" opacity=".5"/><path clip-path="url(#a)" d="m314.371583 252v-217.44h.011658v217.44z" opacity=".5"/><path clip-path="url(#a)" d="m317.57765 252v-217.44h.011658v217.44z" opacity=".5"/><path clip-path="url(#a)" d="m327.662189 252v-217.44h.011659v217.44z" opacity=".5"/><path clip-path="url(#a)" d="m330.69338 252v-217.44h.011659v217.44z" opacity=".5"/><path clip-path="url(#a)" d="m332.826872 252v-217.44h.011659v217.44z" opacity=".5"/><path clip-path="url(#a)" d="m335.123582 252v-217.44h.011659v217.44z" opacity=".5"/><path clip-path="url(#a)" d="m340.824553 252v-217.44h.011659v217.44z" opacity=".5"/><path clip-path="url(#a)" d="m345.534558 252v-217.44h.011658v217.44z" opacity=".5"/><path clip-path="url(#a)" d="m349.74325 252v-217.44h.011658v217.44z" opacity=".5"/><path clip-path="url(#a)" d="m360.678854 252v-217.44h.011659v217.44z" opacity=".5"/></g><g stroke-linejoin="round"><use stroke="#000" stroke-width=".8" x="69.218182" xlink:href="#b" y="252"/><use transform="matrix(.1 0 0 -.1 66.036932 266.598437)" xlink:href="#c"/><use stroke="#000" stroke-width=".8" x="127.510316" xlink:href="#b" y="252"/><g transform="matrix(.1 0 0 -.1 111.604066 266.598437)"><path d="m19.1875 8.296875h34.421875v-8.296875h-46.28125v8.296875q5.609375 5.8125 15.296875 15.59375 9.703125 9.796875 12.1875 12.640625 4.734375 5.3125 6.609375 9 1.890625 3.6875 1.890625 7.25 0 5.8125-4.078125 9.46875-4.078125 3.671875-10.625 3.671875-4.640625 0-9.796875-1.609375-5.140625-1.609375-11-4.890625v9.96875q5.953125 2.390625 11.125 3.609375 5.1875 1.21875 9.484375 1.21875 11.328125 0 18.0625-5.671875 6.734375-5.65625 6.734375-15.125 0-4.5-1.6875-8.53125-1.671875-4.015625-6.125-9.484375-1.21875-1.421875-7.765625-8.1875-6.53125-6.765625-18.453125-18.921875z"/><use x="63.623047" xlink:href="#c"/><use x="127.246094" xlink:href="#c"/><use x="190.869141" xlink:href="#c"/><use x="254.492188" xlink:href="#c"/></g><use stroke="#000" stroke-width=".8" x="185.802451" xlink:href="#b" y="252"/><g transform="matrix(.1 0 0 -.1 169.896201 266.598437)"><path d="m37.796875 64.3125-24.90625-38.921875h24.90625zm-2.59375 8.59375h12.40625v-47.515625h10.40625v-8.203125h-10.40625v-17.1875h-9.8125v17.1875h-32.90625v9.515625z"/><use x="63.623047" xlink:href="#c"/><use x="127.246094" xlink:href="#c"/><use x="190.869141" xlink:href="#c"/><use x="254.492188" xlink:href="#c"/></g><use stroke="#000" stroke-width=".8" x="244.094585" xlink:href="#b" y="252"/><g transform="matrix(.1 0 0 -.1 228.188335 266.598437)"><use xlink:href="#d"/><use x="63.623047" xlink:href="#c"/><use x="127.246094" xlink:href="#c"/><use x="190.869141" xlink:href="#c"/><use x="254.492188" xlink:href="#c"/></g><use stroke="#000" stroke-width=".8" x="302.38672" xlink:href="#b" y="252"/><g transform="matrix(.1 0 0 -.1 286.48047 266.598437)"><use xlink:href="#e"/><use x="63.623047" xlink:href="#c"/><use x="127.246094" xlink:href="#c"/><use x="190.869141" xlink:href="#c"/><use x="254.492188" xlink:href="#c"/></g><use stroke="#000" stroke-width=".8" x="360.678854" xlink:href="#b" y="252"/><g transform="matrix(.1 0 0 -.1 341.591354 266.598437)"><use xlink:href="#f"/><use x="63.623047" xlink:href="#c"/><use x="127.246094" xlink:href="#c"/><use x="190.869141" xlink:href="#c"/><use x="254.492188" xlink:href="#c"/><use x="318.115234" xlink:href="#c"/></g></g><g stroke-linejoin="round"><use stroke="#000" stroke-width=".8" x="54" xlink:href="#g" y="241.022084"/><g transform="matrix(.1 0 0 -.1 34.275 244.821303)"><path d="m10.796875 72.90625h38.71875v-8.3125h-29.6875v-17.859375q2.140625.734375 4.28125 1.09375 2.15625.359375 4.3125.359375 12.203125 0 19.328125-6.6875 7.140625-6.6875 7.140625-18.109375 0-11.765625-7.328125-18.296875-7.328125-6.515625-20.65625-6.515625-4.59375 0-9.359375.78125-4.75.78125-9.828125 2.34375v9.921875q4.390625-2.390625 9.078125-3.5625 4.6875-1.171875 9.90625-1.171875 8.453125 0 13.375 4.4375 4.9375 4.4375 4.9375 12.0625 0 7.609375-4.9375 12.046875-4.921875 4.453125-13.375 4.453125-3.953125 0-7.890625-.875-3.921875-.875-8.015625-2.734375z"/><use x="63.623047" xlink:href="#c"/></g><use stroke="#000" stroke-width=".8" x="54" xlink:href="#g" y="211.088266"/><g transform="matrix(.1 0 0 -.1 34.275 214.887484)"><use xlink:href="#d"/><use x="63.623047" xlink:href="#c"/></g><use stroke="#000" stroke-width=".8" x="54" xlink:href="#g" y="181.154447"/><g transform="matrix(.1 0 0 -.1 34.275 184.953666)"><path d="m8.203125 72.90625h46.875v-4.203125l-26.46875-68.703125h-10.296875l24.90625 64.59375h-35.015625z"/><use x="63.623047" xlink:href="#c"/></g><use stroke="#000" stroke-width=".8" x="54" xlink:href="#g" y="151.220629"/><g transform="matrix(.1 0 0 -.1 34.275 155.019848)"><use xlink:href="#e"/><use x="63.623047" xlink:href="#c"/></g><use stroke="#000" stroke-width=".8" x="54" xlink:href="#g" y="121.28681"/><g transform="matrix(.1 0 0 -.1 34.275 125.086029)"><path d="m10.984375 1.515625v8.984375q3.71875-1.765625 7.515625-2.6875 3.8125-.921875 7.484375-.921875 9.765625 0 14.90625 6.5625 5.15625 6.5625 5.890625 19.953125-2.828125-4.203125-7.1875-6.453125-4.34375-2.25-9.609375-2.25-10.9375 0-17.3125 6.609375-6.375 6.625-6.375 18.109375 0 11.21875 6.640625 18 6.640625 6.796875 17.671875 6.796875 12.65625 0 19.3125-9.703125 6.671875-9.6875 6.671875-28.140625 0-17.234375-8.1875-27.515625-8.171875-10.28125-21.984375-10.28125-3.71875 0-7.53125.734375-3.796875.734375-7.90625 2.203125zm19.625 30.90625q6.640625 0 10.515625 4.53125 3.890625 4.546875 3.890625 12.46875 0 7.859375-3.890625 12.421875-3.875 4.5625-10.515625 4.5625-6.640625 0-10.515625-4.5625-3.875-4.5625-3.875-12.421875 0-7.921875 3.875-12.46875 3.875-4.53125 10.515625-4.53125z"/><use x="63.623047" xlink:href="#c"/></g><use stroke="#000" stroke-width=".8" x="54" xlink:href="#g" y="91.352992"/><g transform="matrix(.1 0 0 -.1 27.9125 95.152211)"><use xlink:href="#f"/><use x="63.623047" xlink:href="#c"/><use x="127.246094" xlink:href="#c"/></g><use stroke="#000" stroke-width=".8" x="54" xlink:href="#g" y="61.419174"/><g transform="matrix(.1 0 0 -.1 27.9125 65.218392)"><use xlink:href="#f"/><use x="63.623047" xlink:href="#f"/><use x="127.246094" xlink:href="#c"/></g></g><g fill="none" stroke-linecap="square"><path clip-path="url(#a)" d="m69.218182 53.05549h.002914l.209852 6.656945.011659-.19994.040804-1.084785.043719 1.806851h.002915l.06995 5.727226.11367 162.584902h.032061l.113669.255622h.032061l.005829-167.012429.104926 166.877762h.064121l.11367.572485h.032061l.113669.637289h.032061l.11367.709381h.03206l.11367.557131h.032061l.113669.507212h.032061l.11367.420939h.03206l.11367.749738h.032061l.113669-2.241634h.032061l.11367.862526h.03206l.11367.98766h.032061l.113669 1.058008h.032061l.11367.82076h.03206l.11367.99558h.032061l.113669.843417h.032061l.11367.804527h.03206l.11367.310204h.032061l.113669.124974h.032061l.11367-.161577h.03206l.11367-.371782h.032061l.113669-.610496h.032061l.11367-.803838h.03206l.11367-1.089962h.032061l.113669-1.130114h.032061l.11367-1.615799h.03206l.11367 1.492555h.032061l.113669-1.461774h.032061l.11367-1.430713h.03206l.11367-1.630816h.032061l.087438-183.857739.026231 4.137736h.002915l.008744-2.882193.032061 15.470939.113669 167.224892.177791-.102903.11367 2.846895h.032061l.113669-.386271h.032061l.11367 2.252853h.03206l.11367 2.032396h.032061l.113669 1.40989h.032061l.11367 1.075605h.03206l.11367-2.584424h.032061l.113669.138656h.032061l.11367-.510218h.03206l.11367 2.290072h.032061l.113669-1.103058h.032061l.11367-1.218734h.03206l.11367-1.553356h.032061l.113669-1.459559h.032061l.11367 1.442123h.03206l.11367-1.428515h.032061l.113669-1.504947h.032061l.11367-1.337284h.03206l.093268-184.133277.020402 3.289876h.002915l.014573-2.789453.037889 16.357221.11367 167.357668h.032061l.113669-.127965h.032061l.11367 2.746822h.03206l.11367-.335194h.032061l.113669 2.697461h.032061l.11367 2.136091h.03206l.11367 1.54466h.032061l.113669-1.871656h.032061l.11367.834634h.03206l.11367-.438053h.032061l.113669-.877543h.032061l.11367 1.494682h.03206l.11367-1.882742h.032061l.113669-2.538464h.032061l.11367.243318h.032061l.113669-2.695143h.032061l.06995-184.870785.040805 183.333589h.134072l.113669.304325h.032061l.11367 2.992194.177791.022217.113669 2.776225h.032061l.11367 2.638054h.03206l.11367-1.031699h.032061l.113669 1.206694h.032061l.11367.900375h.03206l.11367.583675.323522.002727.113669-.605437h.032061l.11367-.621172h.03206l.11367-.958565h.032061l.113669-1.074931h.032061l.11367 1.7612h.03206l.11367-1.386969h.032061l.113669-1.685016h.032061l.11367-1.708524h.03206l.11367-1.965555h.032061l.113669 1.108836h.032061l.11367-1.971831h.03206l.005829-165.012852.104926 163.817875h.040805l.046633-183.672185.067036 12.667085h.002915l.238998 174.239102h.06995l.11367-1.017122h.032061l.113669 1.875483h.032061l.11367 1.763737h.03206l.11367 1.550394h.032061l.113669 1.502923h.032061l.11367-1.778519h.03206l.11367 1.022152h.032061l.113669.899672h.032061l.11367.614705h.03206l.11367.513019h.032061l.113669.112406.177791-.09956.11367-.409265h.032061l.113669-.570696h.032061l.11367-.891283h.03206l.11367-.99206h.032061l.113669 1.826223h.032061l.11367-1.310242h.03206l.11367-1.378507h.032061l.113669-1.19332h.032061l.11367-1.286163h.03206l.11367-1.134147h.032061l.113669 1.714155h.032061l.11367-1.056629h.03206l.11367-1.274167h.032061l.113669-1.2047h.032061l.11367-1.164357h.03206l.00583-164.640835.002914 165.094477h.102011.040805l.093267-184.311953.020403 4.142898h.002914l.040805-3.397749.020402 6.339716h.002915l.034975 11.163032.11367 165.881332h.03206l.005829-164.204879.002915 164.900534h.102011.040805l.113669 1.87211h.032061l.11367 1.778739h.03206l.11367-.983613h.032061l.113669 1.931488h.032061l.11367 1.839232h.03206l.11367 1.625888h.032061l.113669-1.734056h.032061l.11367.905875h.03206l.11367.838285h.032061l.113669.308797h.032061l.11367-.278236h.03206l.11367-.803881h.032061l.113669-1.151642h.032061l.11367 1.2821h.03206l.11367-2.092757h.032061l.113669-2.135461h.032061l.11367.823796h.03206l.11367-2.44832h.032061l.113669-2.320706h.032061l.069951-183.953442.043719 13.551578h.002914l.00583 4.141315.113669 166.236293h.032061l.005829-164.186944.002915 165.196748h.102011.040805l.113669 2.127264h.032061l.11367-.940455h.03206l.11367 1.836372h.032061l.113669 1.740332h.032061l.11367 1.661054h.03206l.11367 1.467098h.032061l.113669-1.71574h.032061l.11367 1.202809h.03206l.11367.761954h.032061l.113669.478293.177791.045886.11367-.516803h.032061l.113669-.857833h.032061l.11367-1.118984h.03206l.11367 1.655291h.032061l.113669-1.437313h.032061l.11367-1.805194h.03206l.11367-1.683917h.032061l.113669-1.881217h.032061l.11367 1.072335h.03206l.11367-1.786409h.032061l.064121-184.574452.049548 12.944074h.002915l.195278 174.94951h.107841l.11367-.195116h.03206l.11367 2.562266h.032061l.113669 2.198607h.032061l.11367-1.074109h.03206l.11367 1.377598h.032061l.113669.643008h.032061l.11367.236734h.03206l.11367-.291713h.032061l.113669-.708985h.032061l.11367-1.026815h.03206l.11367-1.18238h.032061l.113669 1.537415h.032061l.11367-1.84633h.03206l.11367-1.813993h.032061l.113669-1.68575h.032061l.11367 1.229249h.03206l.11367-1.635757h.032061l.113669-1.640216h.032061l.093267-185.307664.020403 3.954983h.002914l.046634-3.934159-.008744 5.256867.026232-.965092.034975 16.202039.005829-.734326.11367 166.015397h.03206l.11367 2.803106.177791-.098474.11367 2.238056h.03206l.11367 1.705386h.032061l.113669-1.993755h.032061l.11367.443083.177791.072062.113669-.706462h.032061l.11367 1.708876h.03206l.11367-1.67767h.032061l.113669-2.146371h.032061l.11367-2.048h.03206l.11367.855149h.032061l.113669-2.0038h.032061l.005829-164.860939.104926 164.091711h.040805l.093267-184.241811.020402 9.83047h.002915l.005829-1.117371.014573 10.837445h.002915l.113669 166.252278h.032061l.11367 2.696272h.03206l.11367-.211158h.032061l.113669 2.544741h.032061l.11367 2.208873h.03206l.11367-1.506355h.032061l.113669 1.15635h.032061l.11367 1.019278h.03206l.11367.504748h.032061l.113669.48979h.032061l.11367.284703h.032061l.113669.127466.177791-.074482.11367-.16124h.032061l.113669-.158747h.032061l.11367-.366063h.03206l.11367-.658538h.032061l.113669-.763215h.032061l.11367-.978231h.03206l.11367-.92931h.032061l.113669 1.763972h.032061l.11367-1.430259h.03206l.11367-1.63171h.032061l.113669-1.536022h.032061l.11367-1.557667h.03206l.11367 1.518512h.032061l.113669-1.548604h.032061l.11367-1.543927h.03206l.005829-164.882129.104926 164.200993h.040805l.064121-183.760717.049548.064994h.002915l.040805 16.186641.113669 167.141757h.032061l.005829-163.199298.002915 165.303949h.102011.040804l.11367 2.660314h.032061l.113669-.318168h.032061l.11367 2.377387h.03206l.11367 1.969909h.032061l.113669-1.449103h.032061l.11367 1.172804h.03206l.11367.65188h.032061l.113669.329826.177791-.087695.11367-.700978h.032061l.113669-1.037565h.032061l.11367-1.070458h.03206l.11367 1.469077h.032061l.113669-1.902936h.032061l.11367-2.110428h.03206l.11367-2.050068h.032061l.113669.685668h.032061l.11367-2.412816h.03206l.081609-184.39893.032061 11.258149h.002915l.023317 8.849189.005829-1.75488.113669 166.305892h.032061l.11367 2.443657h.03206l.11367-.577354h.032061l.113669 2.348145h.032061l.11367 2.243937h.03206l.11367 1.738763h.032061l.113669-1.621372h.032061l.11367.846879h.03206l.11367.326834h.032061l.113669-.455709h.032061l.11367-.743418h.032061l.113669 1.375765h.032061l.11367-1.76013h.03206l.11367-2.09327h.032061l.113669-2.078986h.032061l.11367.875533h.03206l.11367-1.93948h.032061l.06995-182.177343.040805 17.70618.113669 166.025721h.032061l.11367.165038h.03206l.11367 2.493502h.032061l.113669 1.819742h.032061l.11367 1.037228.177791.078794.113669-.715276h.032061l.11367-1.603935h.03206l.11367-2.26523h.032061l.113669.31478h.032061l.11367-2.6968h.03206l.069951-182.853889.040804 13.530901.11367 167.727148h.032061l.113669.118638h.032061l.11367 3.038711h.03206l.11367-.176652h.032061l.113669 2.507683h.032061l.11367 2.160464h.03206l.11367-1.058741h.032061l.113669 1.130335h.032061l.11367.525411h.03206l.11367-.1144h.032061l.113669-.703648h.032061l.11367-1.094244h.03206l.11367 1.547622h.032061l.113669-1.536623h.032061l.11367-1.58075h.03206l.11367-2.063706h.032061l.113669.966675h.032061l.11367-2.060421h.03206l.00583-164.40413.104925 163.329375h.040805l.052463-182.391375.058292 181.997214.273973-.09403.11367 2.827185h.03206l.11367-.28655h.032061l.113669 2.490965h.032061l.11367 2.20924h.03206l.11367-.922285h.032061l.113669 1.433808h.032061l.11367.979434h.03206l.11367.297842h.032061l.113669-.420968h.032061l.11367-.958067h.03206l.11367-1.308688h.032061l.113669 1.309392h.032061l.11367-1.991541h.03206l.11367-2.438656h.032061l.113669.476519h.032061l.11367-2.490159h.03206l.069951-183.106901.043719 6.540185h.002915l.023317 12.373554.005829-2.719238.113669 165.679177h.032061l.11367 1.914125h.03206l.11367 1.897187h.032061l.113669-1.070722h.032061l.11367 1.542563h.03206l.11367 1.592554h.032061l.113669 1.475017h.032061l.11367 1.394829h.03206l.11367-1.822529h.032061l.113669 1.031274h.032061l.11367.935615h.03206l.11367.924602h.032061l.113669.649681h.032061l.11367.682368h.03206l.11367.335634h.032061l.113669.334827h.032061l.11367-.139565h.03206l.11367-.232746h.032061l.113669-.614734h.032061l.11367-.853213h.03206l.11367-1.335232h.032061l.113669-1.701001h.032061l.11367.971529h.03206l.11367-1.971347h.032061l.113669-2.186699h.032061l.11367.990271h.03206l.11367-2.150346h.032061l.113669-2.251885h.032061l.069951-182.584731.043719 16.822654h.002914l.00583.247571.113669 166.760766h.032061l.11367 3.11378.177791-.004839.113669 2.816993h.032061l.11367-.804497h.03206l.11367 1.711472h.032061l.113669.593925h.032061l.11367-.406802h.03206l.11367-1.085607h.032061l.113669 1.378082h.032061l.11367-2.282725h.03206l.11367-2.74147h.032061l.113669-.214561h.032061l.11367-3.149254h.03206l.11367-.160506h.032061l.052463-183.133268.061206 17.552316h.002915l.11367 166.318841h.03206l.11367 2.79683h.032061l.113669-.132908h.032061l.11367 2.625735h.03206l.11367 2.095382h.032061l.113669-1.155602h.032061l.11367 1.601457h.03206l.11367 1.217297h.032061l.113669.754284h.032061l.11367.328609h.03206l.11367-.22575h.032061l.113669-.880402h.032061l.11367-.907708h.03206l.11367-.828254h.032061l.113669-.965869h.032061l.11367-1.015714h.03206l.11367 1.775073h.032061l.113669-1.094288h.032061l.11367-1.109877h.03206l.11367-.835264h.032061l.113669-.874008h.032061l.11367-.695274h.03206l.11367-.833563h.032061l.113669-.668642h.032061l.11367 2.105545h.03206l.11367-.71095h.032061l.113669-.724222h.032061l.11367-.636937h.03206l.11367-.644651h.032061l.113669-.315161h.032061l.11367-.581005h.03206l.11367-.437921h.032061l.017487-166.55628.002915 166.563084h.090353.052463l.087438-182.429415.026231 4.219653h.002915l.046634 14.260417.113669 164.211347h.032061l.005829-165.320564.008744 165.755302h.096182.046634l.113669 1.126111h.032061l.11367 1.147317h.03206l.11367.990564h.032061l.113669-1.752797h.032061l.11367 1.35805h.03206l.11367 1.500943h.032061l.113669 1.420464h.032061l.11367 1.46522h.03206l.11367-1.597336h.032061l.113669 1.515242h.032061l.11367 1.293701h.03206l.11367 1.190445h.032061l.113669.796388h.032061l.11367.688454.323521.083282.11367-.489409h.03206l.11367-.687648h.032061l.113669-1.06361h.032061l.11367-1.165178h.03206l.11367-1.402733h.032061l.113669 1.677258h.032061l.11367-1.579737h.03206l.11367-1.153769h.032061l.113669-1.628249h.032061l.11367-1.523146h.03206l.11367 1.289565h.032061l.113669-1.537723h.032061l.11367-1.617749h.032061l.093267-182.942758.020402 5.915786h.002915l.023317 11.610867.005829-.061857.11367 166.225647.177791.065141.113669 2.95257h.032061l.11367 2.618696h.03206l.11367-.634283h.032061l.113669 1.937061h.032061l.11367 1.290621h.03206l.11367.854519h.032061l.113669.327743.177791-.032555.11367-.719676h.032061l.113669-.8466h.032061l.11367-1.339396h.03206l.11367-1.498275h.032061l.113669 1.398613h.032061l.11367-1.432019h.03206l.11367-1.602952h.032061l.113669-1.47663h.032061l.11367-1.819331h.03206l.11367 1.325626h.032061l.113669-1.90144h.032061l.07578-184.67498.03789 10.423984h.002914l.005829-2.466006.008744 8.391354h.002915l.113669 166.785857h.032061l.005829-163.082845.002915 165.358839h.102011.040805l.113669-.218066h.032061l.11367 2.629137h.03206l.11367 2.624885h.032061l.113669-.821377h.032061l.11367 1.672185h.03206l.11367 1.294038h.032061l.113669.869785h.032061l.11367.135312h.03206l.11367-.424605h.032061l.113669-.830249h.032061l.11367-1.165735h.03206l.11367-1.690868h.032061l.113669.94833h.032061l.11367-2.285409h.03206l.11367-2.28337h.032061l.113669.551265h.032061l.11367-2.329623h.03206l.069951-183.391325.043719 15.052141h.002915l.22151 171.322564h.081609l.113669-.681224h.032061l.11367 2.199854h.03206l.11367 2.237323h.032061l.113669-.969433h.032061l.11367 1.837575h.03206l.11367 1.706075h.032061l.113669 1.038005h.032061l.11367.731466h.03206l.11367.278602h.032061l.113669-.321804h.032061l.11367-.622302h.03206l.11367-1.219658h.032061l.113669-1.764133h.032061l.11367.906315h.03206l.11367-2.561972h.032061l.113669-2.687166h.032061l.11367.260623h.03206l.11367-2.681784h.032061l.064121-183.727442.049548 8.681247h.002915l.017488 10.188849.005829-2.498093.11367 165.837851h.03206l.11367 2.19522h.032061l.113669 2.376052h.032061l.11367-.658626h.03206l.11367 2.056842h.032061l.113669 1.950215h.032061l.11367-1.315639h.03206l.11367 1.7214h.032061l.113669 1.551053h.032061l.11367 1.092514h.03206l.11367.490964h.032061l.113669.176329h.032061l.11367-.395906h.03206l.11367-.327875h.032061l.113669-.808208h.032061l.11367-.947376h.03206l.11367-1.206914h.032061l.113669-1.320068h.032061l.11367 1.535113h.03206l.11367-1.314672h.032061l.113669-1.433236h.032061l.11367-1.276513h.03206l.11367-1.643794h.032061l.113669 1.561011h.032061l.11367-1.576673h.03206l.11367-1.560908h.032061l.099096-184.022718.014573 2.051988h.002915l.058292 16.678763.005829-2.086569.11367 166.496389h.032061l.113669 2.449112h.032061l.11367 2.414151h.03206l.11367-.589409h.032061l.113669 2.374952h.032061l.11367 2.040741h.03206l.11367-1.024058h.032061l.113669 1.266057h.032061l.11367.955017h.03206l.11367.183457h.032061l.113669-.304911h.032061l.11367-.948667h.03206l.11367-1.193628h.032061l.113669 1.464604h.032061l.11367-1.737516h.03206l.11367-2.321719h.032061l.113669-2.182887h.032061l.11367.650282h.03206l.11367-2.039612h.032061l.005829-165.027018.104926 163.974261h.040804l.07578-184.456518.03789 11.565258h.002915l.029146 9.2171-.020403-9.878629.026232 8.236756.113669 165.715121h.032061l.11367 2.493869h.03206l.11367-.353803h.032061l.113669 2.56206h.032061l.11367 2.432643h.03206l.11367-.635529h.032061l.113669 1.404127h.032061l.11367.807972.177791.098299.113669-.412595h.032061l.11367-1.23485h.03206l.11367 1.150205h.032061l.113669-2.504296h.032061l.11367-2.700379h.032061l.113669-.2741h.032061l.11367-2.831482h.03206l.052463-183.788419.061207 19.497047h.002914l.11367 165.721837.177791.054846.11367 2.635912h.03206l.11367 2.471256h.032061l.113669-.590083h.032061l.11367 1.934275h.03206l.11367 1.323367h.032061l.113669 1.195784h.032061l.11367.696403h.03206l.11367.215499h.032061l.113669-.364494h.032061l.11367-.448538h.03206l.11367-.494483h.032061l.113669-.717872h.032061l.11367-.829427h.03206l.11367-.988687h.032061l.113669-1.106226h.032061l.11367 1.726225h.032061l.113669-1.381308h.032061l.113669-1.406899h.032061l.11367-1.591806h.032061l.113669-1.908465h.032061l.11367 1.056248h.03206l.11367-1.936078h.032061l.064121-182.561472.046634 17.793933.113669 165.816924h.032061l.11367.167384h.03206l.11367 3.050047h.032061l.113669 2.256929h.032061l.11367-1.452418h.03206l.11367.441089.177791.032409.11367-.971617h.03206l.11367 1.487026h.032061l.113669-2.068061h.032061l.11367-2.257091h.03206l.11367.264392h.032061l.113669-2.730207h.032061l.058292-180.936919.052463 14.081272.11367 166.488557h.03206l.11367 2.485554h.032061l.113669-.277766h.032061l.11367 2.577385h.03206l.11367 2.335108h.032061l.113669-1.154971h.032061l.11367 1.676026h.03206l.11367 1.184653h.032061l.113669.901579h.032061l.11367.203122h.03206l.11367-.378147h.032061l.113669-1.183348h.032061l.11367-1.510256h.03206l.11367 1.165794h.032061l.113669-1.8303h.032061l.11367-2.652425h.03206l.11367.431937h.032061l.113669-2.686183h.032061l.005829-164.989447.104926 163.177624h.040805l.052463-181.654821.058292 17.404231.113669 165.665759h.032061l.11367 3.042436h.03206l.11367-.265756h.032061l.113669 2.715865h.032061l.11367-.822315h.03206l.11367 1.834715h.032061l.113669 1.171792h.032061l.11367.878789h.03206l.11367.128918h.032061l.113669-.228155h.032061l.11367-1.017225h.03206l.11367-1.113763h.032061l.113669-1.624671h.032061l.11367 1.359546h.03206l.11367-1.840361h.032061l.113669-1.702043h.032061l.11367-1.934655h.03206l.11367 1.180987h.032061l.113669-2.030036h.032061l.081609-183.918671.032061 5.644047h.002914l.034976 14.310277.005829-1.071323.113669 165.491922h.032061l.11367 2.761986h.03206l.11367-.13738h.032061l.113669 2.66313h.032061l.11367 1.863267h.03206l.11367-1.562536h.032061l.113669.723269h.032061l.11367.149772h.03206l.11367-.576988h.032061l.113669-1.01674h.032061l.11367 1.298891h.032061l.113669-2.181273h.032061l.11367-2.60255h.03206l.11367.365051h.032061l.113669-2.767324h.032061l.023317-175.762116.03789 176.103586h.049548.093267l.11367 2.578691h.032061l.113669-.781166h.032061l.11367 1.223676h.03206l.11367.282122h.032061l.113669-1.454969h.032061l.11367.389336h.03206l.11367-2.976283h.032061l.113669-.282254h.032061l.099097-182.714338.014573.423139.020402.051942.058292 8.562609.023317 9.072622.005829-.389321.11367 166.52387h.03206l.11367 3.047392h.032061l.113669-.176901h.032061l.11367 2.586374h.03206l.11367 2.098741h.032061l.113669-1.22394h.032061l.11367 1.158359h.03206l.11367.731656.177791.032102.11367-.467148h.03206l.11367-.867673h.032061l.113669-.971632h.032061l.11367 1.627032h.03206l.11367-1.258842h.032061l.113669-1.483669h.032061l.11367-1.535655h.032061l.113669-1.603246h.032061l.113669 1.569971h.032061l.11367-1.345804h.032061l.113669-1.388656h.032061l.11367-1.360821h.03206l.011659-166.182312.099096 165.729272h.046634l.11367-178.656687h.002914l.052463-3.830362.03789 8.750319h.002915l.023316 7.265682.11367 165.939976h.032061l.005829-164.820728.002915 165.336959h.102011.040804l.11367 1.913758h.032061l.113669 1.922h.032061l.11367-1.092705h.03206l.11367 1.768621h.032061l.113669 1.689328h.032061l.11367 1.65334h.03206l.11367-1.430552h.032061l.113669 1.466452h.032061l.11367 1.143181h.03206l.11367.466561h.032061l.113669-.281081h.032061l.11367-1.194698h.03206l.11367-1.752284h.032061l.113669.502886h.032061l.11367-2.982721h.03206l.11367-.415571h.032061l.113669-3.68606h.032061l.017488-175.443421.049548 178.596561h.043719.099097l.113669.281257h.032061l.11367 3.071208h.03206l.11367-.204076h.032061l.113669 2.506804h.032061l.11367 1.706485h.03206l.11367 1.427165h.032061l.113669.931421h.032061l.11367.546807h.03206l.11367-2.728799.323521-.035005.11367 2.776094h.032061l.113669-.445474h.032061l.11367-.3117h.03206l.11367-.382033h.032061l.113669-.202067h.032061l.11367-.112537.760712-.046033.11367-.113433.323521-.08051.11367-.039946h.032061l.113669-.318916h.032061l.11367-.159861h.03206l.11367-.401156h.032061l.113669-.330868h.032061l.11367-.448303h.03206l.11367-.262134h.032061l.113669-.35895h.032061l.11367-.299456h.03206l.11367-.438874h.032061l.113669-.227466h.032061l.11367-.28963h.03206l.11367-.121102h.032061l.113669-.184806h.032061l.11367-.135561h.03206l.11367-.220193h.032061l.113669-.129739h.032061l.11367-.128904.614982-.020619.113669.227393h.032061l.11367.188252h.03206l.11367.428535h.032061l.113669.55829h.032061l.11367.583762h.03206l.11367.642099h.032061l.113669.831598h.032061l.11367.863303h.03206l.11367.882983h.032061l.113669.619353h.032061l.11367-2.392652h.03206l.11367.28985h.032061l.113669.141824h.032061l.11367.119532h.03206l.11367-.132804h.032061l.113669-.165801h.032061l.11367-.175831h.03206l.11367 2.776915.177791.004473.11367-2.944431.177791.040402.113669 2.656853h.032061l.11367-.336836h.03206l.11367-.441015h.032061l.113669-.576972h.032061l.11367-.783453h.03206l.11367-.768363h.032061l.113669-.873466h.032061l.11367-.929412h.03206l.11367-.942126h.032061l.113669-.592268h.032061l.11367-.576386h.03206l.11367 2.718065h.032061l.113669-.308093h.032061l.11367-.119563.177791-.105073.113669-.048145.614982-.045724.11367-.272385h.032061l.113669-.261693h.032061l.11367-.216717h.03206l.11367-.226894h.032061l.113669-.273059h.032061l.11367-.355152h.03206l.11367-.608839h.032061l.113669-.524121h.032061l.11367-.61906h.03206l.11367-.445121h.032061l.113669-.48916h.032061l.11367-.424238h.03206l.11367-.598559h.032061l.113669-.56901h.032061l.11367-.648522h.03206l.11367 2.339287h.032061l.113669-1.067437h.032061l.11367-1.374518h.03206l.11367-1.974617h.032061l.058292-181.701.052463 17.589301.113669 166.274113.177791-.043774.11367 2.709295h.032061l.113669 2.583515h.032061l.11367-.509001h.03206l.11367 2.18057h.032061l.113669 1.508819h.032061l.11367 1.387511h.03206l.11367.988394h.032061l.113669-2.337601h.032061l.11367.480126h.03206l.11367.30956.323522-.04684.113669-.23078h.032061l.11367-.277194h.03206l.11367 2.635252h.032061l.113669-.14829h.032061l.11367-.281594h.03206l.11367-.305028h.032061l.113669-.362529h.032061l.11367-.259259h.03206l.11367-.262369.177791-.082841.11367-.036589.177791-.046179.113669-.117891.177791-.079219.11367-.203548h.032061l.113669-.16341h.032061l.11367-.248422h.03206l.11367-.276593h.032061l.113669-.390641h.032061l.11367-.33185h.03206l.11367-.358291h.032061l.113669-.450122h.032061l.11367-.374671h.03206l.11367-.162266h.032061l.113669-.150285.177791-.059803.11367-.261709h.032061l.113669-.349125h.032061l.11367-.395349h.03206l.11367-.320426h.032061l.113669-.303855h.032061l.11367-.300394h.03206l.11367 2.572737h.032061l.113669-.324034h.032061l.11367-.414164h.03206l.11367-.196743.323521-.094749.11367-.064599.469252-.090907.113669-.035166.177791-.009928.11367-.153512.177791-.093004.11367-.236089.177791-.064745.113669-.205923h.032061l.11367-.142337h.03206l.11367-.16627h.032061l.113669-.315029h.032061l.11367-.494938h.03206l.11367-.59982h.032061l.113669-.782573h.032061l.11367-.829896h.03206l.11367-1.153593h.032061l.113669 1.881642h.032061l.11367-1.418073h.03206l.11367-1.558943h.032061l.011658-166.67942.099097 165.327163h.046633l.081609-180.604614.032061 8.936737h.002915l.005829-2.870402.014573 11.598313.008744-.39331.113669 165.402026h.032061l.11367 2.723872h.03206l.11367-.572455h.032061l.113669 2.515411h.032061l.11367 2.218508h.03206l.11367-.766369h.032061l.113669 1.714669h.032061l.11367 1.098043h.03206l.11367.598046h.032061l.113669.308635.323522.058923.113669-.398809h.032061l.11367-.475389h.03206l.11367-.829985h.032061l.113669-.790507h.032061l.11367-.935908h.03206l.11367-.799438h.032061l.113669-.865957h.032061l.11367 2.156314h.03206l.11367-.877792h.032061l.113669-.676854h.032061l.11367-.762292h.032061l.113669-.677632h.032061l.11367-.646043h.03206l.11367-.582545h.032061l.113669-.932462h.032061l.11367-1.085446h.03206l.11367 1.774384h.032061l.113669-1.179638h.032061l.11367-1.470118h.03206l.11367-1.57682h.032061l.099096-181.235993.014573 1.314965h.002915l.058292 16.212802.005829-1.933526.11367 165.975054h.03206l.11367 2.232513h.032061l.113669-.694775h.032061l.11367 2.170583h.03206l.11367 2.094781h.032061l.113669 1.82945h.032061l.11367-1.20731h.032061l.113669 1.58663h.032061l.11367 1.422634h.03206l.11367 1.066924h.032061l.113669 1.033664h.032061l.11367.754255h.03206l.11367-2.278355.323521-.082607.11367 2.333847h.032061l.113669-.908808h.032061l.11367-1.272422h.03206l.11367-1.433881h.032061l.113669-1.767418h.032061l.11367 1.200447h.03206l.11367-2.276874h.032061l.113669-1.982126h.032061l.11367-2.105324h.03206l.11367.767072h.032061l.113669-2.24379h.032061l.052463-179.919401.058292 178.959809h.134072l.005829-162.513454.002915 165.145451h.102011l.186535.029828.113669 2.914822h.032061l.11367 2.399032h.03206l.11367-1.115904h.032061l.113669 1.489901h.032061l.11367 1.113895h.03206l.11367.494835h.032061l.113669-.356516h.032061l.11367-.62129h.03206l.11367-1.111285h.032061l.113669-1.513555h.032061l.11367 1.354325h.03206l.11367-1.950054h.032061l.113669-2.142104h.032061l.11367.878584h.03206l.11367-2.109461h.032061l.113669-2.005164h.032061l.081609-180.574595.032061 1.476131h.002914l.052463 5.936698.008744-2.101233.032061 11.024714.113669 164.18602h.032061l.005829-165.334451.008744 166.137643h.096182.046634l.11367 1.338985h.03206l.11367 1.403819h.032061l.113669-1.452726h.032061l.11367 1.717279h.03206l.11367 1.638837h.032061l.113669 1.653839h.032061l.11367 1.570338h.03206l.11367-1.407866h.032061l.113669 1.489696h.032061l.11367 1.297513h.03206l.11367 1.161585h.032061l.113669.937361h.032061l.11367.526276h.03206l.11367-2.402537h.032061l.113669.326336h.032061l.11367.344096h.03206l.11367-.115207h.032061l.113669 2.365156h.032061l.11367-.919426h.03206l.11367-1.122708h.032061l.113669-1.494066h.032061l.11367-1.585501h.03206l.11367-1.845465h.032061l.113669.997076h.032061l.11367-2.21952h.03206l.11367-2.125107h.032061l.113669.975547h.032061l.11367-1.593391h.03206l.11367-1.601148h.032061l.093267-183.41649.020402 3.020072h.002915l.034975 15.959219.005829-.660416.11367 165.718993h.032061l.113669 2.845208h.032061l.11367-.176198h.03206l.11367 2.619048h.032061l.113669 2.130548h.032061l.11367-1.259033h.03206l.11367.967248h.032061l.113669.749723.177791-.056723.11367-.676605h.032061l.113669-1.12265h.032061l.11367 1.302264h.03206l.11367-2.119476h.032061l.113669-2.175877h.032061l.11367-2.485598h.03206l.11367.437393h.032061l.113669-2.751515h.032061l.11367.53311h.03206l.052463-179.713287.058293 12.662451.113669 167.045791h.032061l.11367 2.689131h.03206l.11367-.304603h.032061l.113669 2.56888h.032061l.11367 2.529196h.03206l.11367-.827418h.032061l.113669 1.724377h.032061l.11367 1.307324h.03206l.11367.806741.177791.0702.11367-.515761h.03206l.11367-.959548h.032061l.113669-1.263008h.032061l.11367.944986h.03206l.11367-2.151797h.032061l.113669-2.129771h.032061l.11367-2.10443h.03206l.11367.625029h.032061l.113669-2.072153h.032061l.005829-164.617474.104926 163.758394h.040804l.07578-181.855713.03789 1.997465h.002915l.052463 16.917447.005829-1.730624.11367 165.23998h.03206l.11367 2.256813h.032061l.113669-.384644h.032061l.11367 2.555153h.03206l.11367 2.508989h.032061l.113669-.675711h.032061l.11367 1.696763h.03206l.11367 1.337006h.032061l.113669.604337h.032061l.11367.216863h.03206l.11367-.259435h.032061l.113669-1.075386h.032061l.11367-1.37751h.03206l.11367-1.679399h.032061l.113669 1.063814h.032061l.11367-1.973649h.03206l.11367-2.119051h.032061l.113669.998571h.032061l.11367-2.081406h.03206l.11367-1.886775h.032061l.005829-165.44454.104926 164.561337h.040804l.064121-180.790975.049549 14.48652h.002914l.11367 166.28916h.032061l.005829-163.871519.002915 165.104316h.102011.040804l.11367 2.176053h.032061l.113669-.878012h.032061l.11367 2.173135h.03206l.11367 1.934993h.032061l.113669 2.049115h.032061l.11367-1.08571h.03206l.11367 1.65161h.032061l.113669 1.569311h.032061l.11367 1.229293h.03206l.11367.764271h.032061l.113669.566795.177791-.047851.11367-.277766h.032061l.113669-.656661h.032061l.11367-.778394h.03206l.11367-.951468h.032061l.113669-1.251598h.032061l.11367-1.46214h.03206l.11367-1.291208h.032061l.113669 1.49804h.032061l.11367-1.451655h.03206l.11367-1.641872h.032061l.113669-1.384344h.032061l.11367 1.408071h.03206l.11367-1.720886h.032061l.113669-2.069968h.032061l.005829-164.787821.104926 164.040795h.040805l.06995-181.931633.043719 14.299455h.002915l.22151 171.222081h.081609l.11367-.463203h.03206l.11367 2.409194h.032061l.113669 2.122629h.032061l.11367-1.294404h.03206l.11367 1.659529h.032061l.113669 1.361525h.032061l.11367 1.208806h.03206l.11367.528623h.032061l.113669.593646h.032061l.11367.340913h.03206l.11367.299617.177791-.055184.11367-.319722h.03206l.11367-.555019h.032061l.113669-.629062h.032061l.11367-.917196h.03206l.11367-.939502h.032061l.113669-1.165676h.032061l.11367-1.06952h.03206l.11367 1.58138h.032061l.113669-1.363886h.032061l.11367-1.391104h.03206l.11367-1.267275h.032061l.113669-1.414436h.032061l.11367 1.617001h.03206l.11367-1.58924h.032061l.113669-1.621929h.032061l.11367-1.796601h.03206l.093268-180.072868.020402 4.348088h.002915l.023316 9.038042.11367 167.134602h.032061l.113669-.211672h.032061l.11367 2.925263h.03206l.11367-.429385h.032061l.113669 2.62355h.032061l.11367 2.462911h.032061l.113669-.862848h.032061l.11367 1.675h.03206l.11367 1.388787h.032061l.113669.740427h.032061l.11367.381886h.03206l.11367-.288794h.032061l.113669-.279218h.032061l.11367-.586094h.03206l.11367-1.080005h.032061l.113669-1.241127h.032061l.11367-1.193056h.03206l.11367 1.562712h.032061l.113669-1.434791h.032061l.11367-1.580031h.03206l.11367-1.50656h.032061l.113669 1.354794h.032061l.11367-1.565322h.03206l.11367-1.518527h.032061l.113669-1.433236h.032061l.005829-165.298494.104926 165.074767h.040804l.07578-182.490201.03789 10.209203h.002915l.023317 7.396434.005829-1.66909.113669 166.591152h.032061l.11367 2.171844h.03206l.11367 2.402537h.032061l.113669-.664434h.032061l.11367 2.401041h.03206l.11367 2.089106h.032061l.113669-1.333853h.032061l.11367 1.66035h.03206l.11367 1.253944h.032061l.113669 1.04937h.032061l.11367.993952h.03206l.11367.685565h.032061l.113669.268968.323522.0199.113669-.238714h.032061l.11367-.392753h.03206l.11367-.712358h.032061l.113669-.774097h.032061l.11367-1.188304h.032061l.113669-1.1522h.032061l.11367-1.162231h.03206l.11367 1.639747h.032061l.113669-1.524041h.032061l.11367-1.235804h.03206l.11367-1.477289h.032061l.113669-1.382453h.032061l.11367 1.420757h.03206l.11367-1.37421h.032061l.113669-1.608144h.032061l.11367-1.379592h.03206l.005829-164.856335.104926 164.749223h.040805l.07578-183.630757.037889 10.667567h.002915l.201108 172.973822h.096182l.11367 3.229163.177791.08312.113669 2.580098h.032061l.11367 2.469848h.03206l.11367-1.133048h.032061l.113669 1.121668h.032061l.11367.621773.177791-.013447.113669-.446309h.032061l.11367-1.199435h.03206l.11367-1.406503h.032061l.113669 1.443003h.032061l.11367-1.752533h.03206l.11367-1.746154h.032061l.113669-1.48207h.032061l.11367 1.261805h.03206l.11367-1.417457h.032061l.113669-1.518586h.032061l.011658-166.487487.099097 165.483666h.046634l.075779-180.557364.03789 6.583328h.002915l.029146 11.243278.11367 164.340691h.03206l.11367 1.869059h.032061l.113669-1.049751h.032061l.11367 1.764324h.03206l.11367 1.849643h.032061l.113669 1.717763h.032061l.11367-1.394301h.03206l.11367 1.160134h.032061l.113669 1.230935h.032061l.11367.85754h.03206l.11367.698485h.032061l.113669.474905h.032061l.11367.374026h.03206l.11367-.171153h.032061l.113669-.353759h.032061l.11367-.741776h.03206l.11367-.962613h.032061l.113669-1.465601h.032061l.11367 1.284476h.03206l.11367-1.916354h.032061l.113669-2.005325h.032061l.11367-2.258338h.03206l.11367.867703h.032061l.113669-2.407435h.032061l.069951-181.327589.043719 8.61634h.002914l.15156 172.102146.055377-.0221h.090353l.11367 2.969009.177791-.005177.11367 2.716863h.03206l.11367 2.525501h.032061l.113669-1.00454h.032061l.11367 1.243092h.03206l.11367.31041.177791-.06888.11367-.531791h.03206l.11367-.992382h.032061l.113669 1.505079h.032061l.11367-1.509919h.03206l.11367-2.06812h.032061l.113669-2.274512h.032061l.11367.803177h.03206l.11367-2.093622h.032061l.005829-164.753872.104926 163.161874h.040804l.046634-180.495156.043719 180.544562h.020402l.268144-.082402.11367 3.000363h.03206l.11367-.475052h.032061l.113669 2.182989h.032061l.11367 1.96268h.03206l.11367 1.793756h.032061l.113669-1.54812h.032061l.11367.604483.177791-.068748.113669-.578102h.032061l.11367 1.615315h.03206l.11367-1.36069h.032061l.113669-2.189852h.032061l.11367-2.803326.177791.043701.040804-179.210988.069951 178.299423h.104926l.113669.455959h.032061l.11367 2.515382h.03206l.11367 1.636842h.032061l.113669 1.026039.177791-.044537.11367-1.436698h.032061l.113669-2.482254.177791-.106056.052463-183.672816.058292 181.78324h.128243l.11367 3.105157.177791.050609.113669 2.792869h.032061l.11367-.892662h.03206l.11367 1.623278h.032061l.113669 1.124307h.032061l.11367.58935h.03206l.11367-.215133h.032061l.113669-.903734h.032061l.11367-1.171249h.03206l.11367 1.698537h.032061l.113669-1.8159h.032061l.11367-1.722367h.03206l.11367-2.085997h.032061l.113669.835293h.032061l.11367-2.432291h.032061l.005829-164.664988.104926 163.35388h.040804l.058292-180.966908.055378 11.352912h.002914l.00583 3.470986.113669 165.619403h.032061l.005829-164.490213.002915 164.998261h.102011.040804l.11367 1.810239h.032061l.113669 1.832457h.032061l.11367-1.040601h.03206l.11367 1.999577h.032061l.113669 1.871714h.032061l.11367 1.536565h.03206l.11367-1.363945h.032061l.113669 1.447373h.032061l.11367 1.473652h.03206l.11367 1.053667h.032061l.113669.676635h.032061l.11367.224973.177791-.001951.113669-.502064h.032061l.11367-.525397h.03206l.11367-1.062671h.032061l.113669-1.176705h.032061l.11367-1.404038h.03206l.11367 1.616136h.032061l.113669-1.507441h.032061l.11367-1.472127h.03206l.11367-1.469634h.032061l.113669-1.3224h.032061l.11367 1.46327h.03206l.11367-1.234631h.032061l.113669-1.271014h.032061l.11367-1.291134h.032061l.011658-166.406273.099097 165.463223h.046633l.081609-180.806021.032061 6.494577h.002915l.029146 11.714752.005829-1.615945.113669 165.66677h.032061l.11367 2.717068h.03206l.11367-.445869h.032061l.113669 2.144289h.032061l.11367 2.346781h.03206l.11367-.84418h.032061l.113669 1.983841h.032061l.11367 1.43507h.032061l.113669 1.200476h.032061l.11367 1.010992h.03206l.11367.488118h.032061l.113669-2.878732h.032061l.11367.115984h.03206l.11367 2.511995h.032061l.113669-.58715h.032061l.11367-.842816h.03206l.11367-.642246h.032061l.113669-.966235h.032061l.11367-1.089097h.03206l.11367-1.062334h.032061l.113669-1.112121h.032061l.11367 1.676584h.03206l.11367-1.085254h.032061l.113669-1.329248h.032061l.11367-1.399258h.03206l.11367-1.641785h.032061l.113669 1.481014h.032061l.11367-1.597511h.03206l.11367-1.46022h.032061l.113669-1.597643h.032061l.005829-165.17833.104926 165.051274h.040804l.11367-180.929924h.002915l.011658-.406597.043719 2.771122h.002915l.14573 15.440994.11367 163.673778h.032061l.005829-165.331548.104926 164.985942h.040804l.11367 1.677611h.03206l.11367 1.918378h.032061l.113669-1.059533h.032061l.11367 1.812791h.03206l.11367 2.057429h.032061l.113669 2.029479h.032061l.11367-1.102589h.03206l.11367 1.596118h.032061l.113669 1.178435h.032061l.11367.762937h.03206l.11367.45131h.032061l.113669.207683h.032061l.11367-.130971h.03206l.11367-.672001h.032061l.113669-.815349h.032061l.11367-.970591h.03206l.11367-1.056614h.032061l.113669-1.295842h.032061l.11367 1.779312h.03206l.11367-1.462434h.032061l.113669-1.399757h.032061l.11367-1.425889h.03206l.11367-1.18458h.032061l.113669 1.780045h.032061l.11367-1.242491h.03206l.11367-1.442167h.032061l.113669-1.411987h.032061l.005829-164.689567.104926 164.608074h.040805l.064121-181.045864.049548 9.684878h.002915l.005829 3.996133.11367 166.679933h.032061l.005829-163.505382.002914 165.392612h.102012.040804l.11367 2.483677h.03206l.11367-.534313h.032061l.113669 2.377357h.032061l.11367 2.30896h.03206l.11367-.919938h.032061l.113669 1.662858h.032061l.11367 1.001592h.03206l.11367.343992h.032061l.113669-.113373h.032061l.11367-.562498h.03206l.11367-1.26682h.032061l.113669-1.917498h.032061l.11367.509602h.03206l.11367-2.785376.177791-.039536.11367-2.881607h.03206l.046634-179.153164.03789 180.400333h.026232.116584l.113669.742934h.032061l.11367 3.134179h.03206l.11367 2.63691h.032061l.113669-1.082425h.032061l.11367 1.054253.177791.030181.113669-.442775h.032061l.11367-1.154224h.03206l.11367.971148h.032061l.113669-2.431352h.032061l.11367-2.171771h.03206l.11367.608516h.032061l.113669-2.315193h.032061l.11367-2.385247h.03206l.058293-179.71858.052463 16.158777.113669 165.48412h.032061l.11367 2.590452h.03206l.11367-.411304h.032061l.113669 2.504677h.032061l.11367 2.132469h.03206l.11367-.887368h.032061l.113669 1.674209h.032061l.11367 1.375456h.03206l.11367 1.133224h.032061l.113669.769947h.032061l.11367.412198h.03206l.11367.1459.177791-.08834.11367-.193019h.03206l.11367-.561046h.032061l.113669-.509764h.032061l.11367-.773114h.03206l.11367-.88379h.032061l.113669-.888203h.032061l.11367-.851982h.03206l.11367-1.188921h.032061l.113669 1.747636h.032061l.11367-1.431242h.03206l.11367-1.460924h.032061l.113669-1.556244h.032061l.11367-1.453137h.03206l.11367 1.508804h.032061l.113669-1.371263h.032061l.11367-1.709976h.03206l.11367-1.516327h.032061l.005829-165.463164.104926 165.291865h.040804l.087438-181.415388.026232 1.254105h.002914l.093268 16.201687.11367 164.179641h.03206l.005829-165.737602.008744 166.071109h.096182.046634l.11367 1.17122h.03206l.11367 1.4484h.032061l.113669 1.42916h.032061l.11367-1.312076h.03206l.11367 1.639878h.032061l.113669 1.674927h.032061l.11367 1.720784h.03206l.11367-1.042653h.032061l.113669 1.724875h.032061l.11367 1.540568h.03206l.11367.954562h.032061l.113669.876633h.032061l.11367.523886h.03206l.11367.314619.177791-.056474.11367-.455079h.03206l.11367-.8958h.032061l.113669-1.19832h.032061l.11367-1.461921h.03206l.11367-1.517691h.032061l.113669 1.076221h.032061l.11367-1.941812h.03206l.11367-2.281375h.032061l.113669-2.261931h.032061l.11367.677045h.03206l.11367-2.269336h.032061l.075779-181.916117.03789 2.669817h.002915l.064121 14.773099.00583-2.086187.113669 166.196244h.032061l.11367 2.131618h.03206l.11367 1.950479h.032061l.113669-.802722h.032061l.11367 2.254143h.03206l.11367 2.284529h.032061l.113669-.977923h.032061l.11367 1.744482h.03206l.11367 1.122811h.032061l.113669.847685h.032061l.11367.42701.177791.057428.113669-.367398h.032061l.11367-.907107h.03206l.11367-1.324643h.032061l.113669-1.461422h.032061l.11367 1.265661h.03206l.11367-1.79336h.032061l.113669-2.040286h.032061l.11367-1.968341h.03206l.11367.975431h.032061l.113669-1.982111h.032061l.087438-182.756265.026232 3.899726h.002914l.034975 11.37749.11367 166.210938h.032061l.005829-162.942532.002915 164.878097h.102011.040804l.11367 2.606832h.032061l.113669-.229372h.032061l.11367 2.377973h.03206l.11367 2.059086h.032061l.113669-1.218895h.032061l.11367 1.118602h.03206l.11367.643771h.032061l.113669-.283339h.032061l.11367-.788116h.03206l.11367-1.262787h.032061l.113669 1.296531h.032061l.11367-2.180805h.03206l.11367-2.44351h.032061l.113669.258247h.032061l.11367-2.631161h.03206l.064122-182.646616.049548 9.138057h.002915l.011658 6.931617.11367 165.374809h.03206l.00583-163.70651.002914 164.655323h.102011.040805l.11367 2.078049h.03206l.11367-.985608h.032061l.113669 2.172812h.032061l.11367 1.937941h.03206l.11367 1.740963h.032061l.113669-1.409656h.032061l.11367 1.70524h.03206l.11367 1.396735h.032061l.113669 1.242447h.032061l.11367.869932h.03206l.11367.509514h.032061l.113669.126h.032061l.11367.217288.177791-.108607.113669-.314076h.032061l.11367-.710247h.03206l.11367-.7184h.032061l.113669-1.119834h.032061l.11367-1.184829h.03206l.11367-1.105053h.032061l.113669-1.146715h.032061l.11367 1.675191h.03206l.11367-1.140952h.032061l.113669-1.171879h.032061l.11367-1.028092h.03206l.11367-1.311166h.032061l.113669-.990169h.032061l.11367 2.006074h.03206l.11367-.953756h.032061l.113669-1.030951h.032061l.11367-.978231h.03206l.11367-.964329h.032061l.011658-165.941472.099097 165.85429h.046634l.113669-181.777227h.002915l.029146-1.251642.03789 5.414337h.002914l.029146 11.454422.00583-.123947.113669 166.793718h.032061l.11367 3.081693h.03206l.11367-.146252h.032061l.113669 2.659083h.032061l.11367 2.419093h.03206l.11367-1.322913h.032061l.113669.928415h.032061l.11367.438096h.03206l.11367-.162413h.032061l.113669-.426027h.032061l.11367-1.054752h.03206l.11367 1.79116h.032061l.113669-1.32916h.032061l.11367-1.272114h.03206l.11367-1.022871h.032061l.113669-.904657h.032061l.11367-.760415h.03206l.11367-.62409h.032061l.113669-.531439h.032061l.11367-.328799h.03206l.11367-.168294h.032061l.113669-.23188h.032061l.11367 2.729738h.03206l.11367-.228375h.032061l.113669-.246428h.032061l.11367-.33053h.03206l.11367-.40821h.032061l.113669-.427347h.032061l.11367-.615233h.03206l.11367-.762174h.032061l.113669-1.005508h.032061l.11367-.878349h.03206l.00583-164.788334.002914 165.147813h.102011.040805l.06995-180.840102.04372 12.666264h.002914l.005829 3.892775.00583-1.982947.113669 166.205908h.032061l.11367 2.264687h.03206l.11367 2.42908h.032061l.113669-.526834h.032061l.11367 2.481375h.03206l.11367 2.103125h.032061l.113669-1.346084h.032061l.11367 1.130658h.03206l.11367.613854.177791-.095849.11367-.810158h.03206l.11367-1.565351h.032061l.113669.668451h.032061l.11367-2.73575.177791-.014914.113669-3.073775h.032061l.046634-178.912221.064121 177.524886h.110755l.11367.122818h.03206l.11367 3.145382.177791-.056181.11367 2.55948h.03206l.11367 1.975805h.032061l.113669-1.40398h.032061l.11367.953623h.03206l.11367.222055h.032061l.113669-.508121h.032061l.11367 1.739217h.03206l.11367-1.842384h.032061l.113669-2.499324h.032061l.11367-2.747791.177791.013565.023317-177.055289.043719 177.837921h.043719.099097l.113669-.145167h.032061l.11367 2.139274h.03206l.11367 1.077086.177791-.01443.11367-1.043988h.03206l.11367-2.563541h.032061l.113669-.487004h.032061l.046634-177.201234.064121 175.912989h.093267l.11367 3.035689h.032061l.113669-.456691h.032061l.11367 1.482481h.03206l.11367.504982h.032061l.113669-.757393h.032061l.11367-2.257194.177791.002684.040804-175.371387.069951 174.919432h.087438l.11367 3.358594h.03206l.11367-.399704h.032061l.113669 1.462874h.032061l.11367.61579h.03206l.11367-.560812h.032061l.113669-2.169717h.032061l.11367-.250212h.03206l.11367-3.508014h.032061l.034975-175.350578.07578 175.342513h.081609l.113669 3.584447h.032061l.11367.363599h.03206l.11367 2.331618h.032061l.113669 1.503862h.032061l.11367.256458h.03206l.11367-1.111373h.032061l.113669-2.258689.177791.044595.11367-3.220217h.032061l.046633-176.742928.020403 177.274h.043719.099096l.11367.493823h.032061l.113669 3.325364h.032061l.11367 2.757322h.03206l.11367-1.002795h.032061l.113669 1.428735h.032061l.11367.390494h.03206l.11367-.312844h.032061l.113669-.74861h.032061l.11367-.975269h.03206l.11367 1.730053h.032061l.113669-1.41976h.032061l.11367-1.679414h.03206l.11367-1.405608h.032061l.113669-1.416504h.032061l.11367-1.232152h.03206l.11367 1.720931h.032061l.113669-1.062305h.032061l.11367-1.218353h.03206l.11367-1.140277h.032061l.011658-165.980832.099097 165.910412h.046634l.113669-180.31079h.002915l.06995 12.65462.00583 3.400477.005829-2.285453.113669 166.195965h.032061l.11367 2.09811h.03206l.11367 2.172841h.032061l.113669-1.185972h.032061l.11367 2.053997h.03206l.11367 1.915181h.032061l.113669 1.73454h.032061l.11367-1.579723h.03206l.11367 1.204582h.032061l.113669 1.017298h.032061l.11367.871589h.03206l.11367.591182h.032061l.113669.550693h.032061l.11367.211658h.03206l.11367.272281h.032061l.113669.125531.469252-.043804.11367-.514265h.032061l.113669-.62827h.032061l.11367-.72302h.03206l.11367-.62868h.032061l.113669-.885652h.032061l.11367-.830733h.03206l.11367-.880211h.032061l.113669 2.010179h.032061l.11367-.955662h.03206l.11367-.651352h.032061l.113669-.831275h.032061l.11367-.879786h.03206l.11367-1.06122h.032061l.113669-.833958h.032061l.11367-1.05506h.03206l.11367 1.818085h.032061l.113669-1.190901h.032061l.11367-1.232929h.03206l.11367-1.46022h.032061l.113669-179.585101h.002915l.034975-1.110127.081609.42264.029146.519457.03789-1.833893h.002915l.011658-.707431.055378 1.264224.040804-.344535h.002915l.110755-.905317-.032061 1.424921.046634-1.294522.020402.063704.087438 1.091385.029146-.58451.034976-.324709.043719.851439h.002914l.110755 2.310061.014573-.504587h.002915l.014573-.038598.131157 14.828737.11367 164.520701h.032061l.005829-163.938449.002915 165.081733h.102011.040804l.11367 2.585538h.032061l.113669-1.061483h.032061l.11367.893512h.03206l.11367-.397577h.032061l.113669-1.639292h.032061l.11367 1.063815h.03206l.11367-2.37372h.032061l.005829-165.024701.104926 164.600653h.040804l.11367-.36096h.03206l.11367.524971h.032061l.005829-164.390242.002915 165.618685h.102011.040804l.11367.202814h.032061l.113669 2.847672h.032061l.11367 2.443481h.03206l.11367 1.318264h.032061l.113669.368072h.032061l.11367-1.309128h.03206l.11367-2.039699h.032061l.113669-2.323391h.032061l.11367.400731h.03206l.11367-2.498914h.032061l.064121-181.887404.049548 15.610372h.002915l.005829-1.606472.11367 166.827858h.032061l.113669 2.377576h.032061l.11367-.529913h.03206l.11367 2.479043h.032061l.113669 2.363968h.032061l.11367 2.14077h.03206l.11367-1.191868h.032061l.113669 1.220772h.032061l.11367.967057.177791-.009606.113669-.510291h.032061l.11367-.98923h.03206l.11367-1.411386h.032061l.113669 1.365998h.032061l.11367-1.787318h.03206l.11367-1.842678h.032061l.113669-1.894664h.032061l.11367.847318h.03206l.11367-1.643515h.032061l.113669-1.775645h.032061l.058292-178.133402.049548 179.780275h.002915.139901l.11367 2.896433h.03206l.11367-.192857h.032061l.113669 2.343657h.032061l.11367 1.936181h.03206l.11367-1.509141h.032061l.113669.913134.177791.045622.11367-.586769h.032061l.113669-1.380223h.032061l.11367.997105h.03206l.11367-2.419592h.032061l.113669-2.658261h.032061l.11367.143011h.03206l.046634-179.474939.064122 178.943897h.122413l.11367 2.819941h.03206l.11367-.383045h.032061l.113669 2.706362h.032061l.11367-.767439h.03206l.11367 1.444822h.032061l.113669.563099.177791-.092051.11367-.625366h.032061l.113669-1.289609h.032061l.11367 1.420096h.03206l.11367-2.017717h.032061l.113669-2.541486h.032061l.11367.434475h.03206l.11367-2.507918h.032061l.06995-181.976405.043719 7.919469h.002915l.046634 10.038271-.03789-12.513955.049548 11.763116.11367 164.406931h.03206l.11367 1.651977h.032061l.113669 1.725037h.032061l.11367-1.392644h.03206l.11367 1.78676h.032061l.113669 1.696675h.032061l.11367 1.621064h.03206l.11367-1.399097h.032061l.113669 1.435553h.032061l.11367 1.110787h.03206l.11367 1.094054h.032061l.113669.707811h.032061l.11367.824222h.03206l.11367.324283h.032061l.113669.260271.323522-.000337.113669-.138862h.032061l.11367-.18067h.032061l.113669-.382986h.032061l.11367-.409941h.03206l.11367-.750794h.032061l.113669-.660665h.032061l.11367-.702943h.03206l.11367-.541601h.032061l.113669-.798015h.032061l.11367-.806242h.03206l.11367 1.992156h.032061l.113669-1.037257h.032061l.11367-.938416h.03206l.11367-.787618h.032061l.113669-1.057289h.032061l.11367-1.062172h.03206l.11367-1.299141h.032061l.113669 1.506545h.032061l.11367-1.650539h.03206l.11367-1.668064h.032061l.005829-164.908805.104926 164.083968h.040804l.052463-180.153818.061207 10.151365h.002914l.00583-4.147649.020402 9.002905h.002914l.11367 165.352108h.032061l.005829-164.670135.002915 164.944704h.102011.040804l.11367 1.832897h.032061l.113669 2.111894h.032061l.11367-.93296h.03206l.11367 2.009988h.032061l.113669 2.286641h.032061l.11367-1.043842h.03206l.11367 1.50222h.032061l.113669 1.265515h.032061l.11367 1.190841h.03206l.11367.504103.177791-.063146.11367-.257911h.03206l.11367-.788116h.032061l.113669-1.025276h.032061l.11367-1.272084h.03206l.11367-1.461672h.032061l.113669 1.651126h.032061l.11367-1.43328h.03206l.11367-1.190211h.032061l.113669-1.086809h.032061l.11367-1.187777h.03206l.11367-1.032344h.032061l.113669 1.780147h.032061l.11367-1.014395h.03206l.11367-1.073948h.032061l.113669-.979991h.032061l.017488-166.827417.093267 166.411157h.052463l.11367-.518108h.03206l.11367-173.630997h.002915l.104925-5.649267-.090352 9.694879.10784-6.684398.029146 13.163401.005829-.731921.11367 165.566448h.032061l.113669 2.528948h.032061l.11367-.528975h.03206l.11367 2.231662h.032061l.113669 2.006675h.032061l.11367-.870988h.03206l.11367 1.707029h.032061l.113669 1.200872h.032061l.11367.753991h.03206l.11367.399411h.032061l.113669-.284233h.032061l.11367-.655297h.03206l.11367-1.059181h.032061l.113669-1.179961h.032061l.11367 1.264665h.03206l.11367-1.567156h.032061l.113669-1.468637h.032061l.11367-1.387013h.03206l.11367-1.279901h.032061l.113669-.933694h.032061l.11367 1.994958h.03206l.11367-.902796h.032061l.113669-.881575h.032061l.11367-.668143h.03206l.11367-.742363h.032061l.113669-.740969h.032061l.023317-167.24903.087438 166.873391h.058292l.11367-176.594726h.002915l.081609-5.568377.034975 3.513866.029146 14.369113.005829-.259245.11367 166.161561h.032061l.113669 3.027771h.032061l.11367-.282591h.03206l.11367 2.287799h.032061l.113669 1.990368h.032061l.11367-1.319101h.03206l.11367 1.532136h.032061l.113669 1.252537h.032061l.11367 1.03538h.03206l.11367.79168h.032061l.113669.349345h.032061l.11367.296948h.03206l.11367.337114h.032061l.113669.144947h.032061l.11367.112758.614982.077166.113669.09428h.032061l.11367-2.875447.177791.098592.113669.041134.177791-.056635.11367-.088136h.032061l.113669 2.88322.177791-.090643.11367-.161357.177791-.063748.11367-.087373.177791-.076125.113669-.143187.177791-.068998.11367-.048071.906443.074277.113669.152235.177791.080935.11367.060507.614982-.05269.11367-.188868h.03206l.11367-.115266h.032061l.113669-.202976h.032061l.11367-.212229h.03206l.11367-.280039h.032061l.113669-.205146h.032061l.11367-.372281h.03206l.11367-.338581h.032061l.113669-.280876h.032061l.11367-.115676h.03206l.11367-.398061h.032061l.113669-.4222h.032061l.11367-.540721h.03206l.11367-.522757h.032061l.113669-.816273h.032061l.11367-.741981h.03206l.11367 1.922205h.032061l.113669-1.12394h.032061l.11367-1.460044h.03206l.11367-1.223456h.032061l.113669-1.187527h.032061l.11367-1.293158h.03206l.11367 1.551317h.032061l.113669-1.380575h.032061l.11367-1.503803h.03206l.11367-1.218426h.032061l.113669-179.363986h.002915l.110755-3.493745.026231.369964h.002915l.192364 13.635197.023317 5.883142.11367 162.998567h.03206l.00583-166.690903.104925 166.370887h.064122l.113669.364831h.032061l.11367.471401h.03206l.11367.558275h.032061l.113669.814938h.032061l.11367.900009h.03206l.11367 1.002457h.032061l.113669-2.023671h.032061l.11367 1.116535h.03206l.11367 1.11938h.032061l.113669 1.269284h.032061l.11367 1.344587h.03206l.11367 1.358695h.032061l.113669-1.841754h.032061l.11367 1.070664h.03206l.11367.975093h.032061l.113669 1.138693h.032061l.11367.805289h.03206l.11367.713737h.032061l.113669.561794h.032061l.11367.473321h.03206l.11367.243407h.032061l.113669.227217h.032061l.11367.200644h.03206l.11367.149185.177791-.020414.11367.135621.614982-.019461.113669-.130707.177791-.094823.11367-.139169h.032061l.113669-.16297h.032061l.11367-.31305h.032061l.113669-.131045h.032061l.11367-.176931.177791-.081052.113669-.114869 1.489364-.087535.11367-.136265.323521-.097477.11367-.040006.177791-.035503.11367-.155257.177791-.010148.113669.148452.177791.107083.11367.070332h.032061l.113669.228331h.032061l.11367.20915h.03206l.11367.321277h.032061l.113669.389658h.032061l.11367.284234.177791.007464.113669-.304031h.032061l.11367-.331791h.03206l.11367-.408313h.032061l.113669-.981736h.032061l.11367-1.213557h.03206l.11367-1.7275h.032061l.113669.959738h.032061l.11367-2.268177h.03206l.11367-2.125577h.032061l.113669-1.983944h.032061l.11367 1.250205h.03206l.11367-1.826605h.032061l.113669-1.490869h.032061l.011658-166.263057.099097 165.995057h.046634l.113669-174.996936h.002915l.011658-.797971.002915 5.723237.078694-2.858671.192364-2.91428.008744.138671.008744-.020824.14573 1.935872.040805.318139.110755 1.073083.008744-.287284h.002914l.052463-2.345431.023317.320338" stroke="#1f77b4" stroke-linejoin="round" stroke-width="1.5"/><path d="m54 252v-217.44" stroke="#000" stroke-linejoin="miter" stroke-width=".8"/><path d="m388.8 252v-217.44" stroke="#000" stroke-linejoin="miter" stroke-width=".8"/><path d="m54 252h334.8" stroke="#000" stroke-linejoin="miter" stroke-width=".8"/><path d="m54 34.56h334.8" stroke="#000" stroke-linejoin="miter" stroke-width=".8"/></g></g></svg>