<?xml version="1.0" encoding="utf-8" standalone="no"?>
<!DOCTYPE svg PUBLIC "-//W3C//DTD SVG 1.1//EN"
  "http://www.w3.org/Graphics/SVG/1.1/DTD/svg11.dtd">
<!-- Created with matplotlib (https://matplotlib.org/) -->
<svg height="288pt" version="1.1" viewBox="0 0 432 288" width="432pt" xmlns="http://www.w3.org/2000/svg" xmlns:xlink="http://www.w3.org/1999/xlink">
 <defs>
  <style type="text/css">
*{stroke-linecap:butt;stroke-linejoin:round;}
  </style>
 </defs>
 <g id="figure_1">
  <g id="patch_1">
   <path d="M 0 288 
L 432 288 
L 432 0 
L 0 0 
z
" style="fill:#ffffff;"/>
  </g>
  <g id="axes_1">
   <g id="patch_2">
    <path d="M 54 252 
L 388.8 252 
L 388.8 34.56 
L 54 34.56 
z
" style="fill:#ffffff;"/>
   </g>
   <g id="matplotlib.axis_1">
    <g id="xtick_1">
     <g id="line2d_1">
      <defs>
       <path d="M 0 0 
L 0 3.5 
" id="m36754945e5" style="stroke:#000000;stroke-width:0.8;"/>
      </defs>
      <g>
       <use style="stroke:#000000;stroke-width:0.8;" x="69.218182" xlink:href="#m36754945e5" y="252"/>
      </g>
     </g>
     <g id="text_1">
      <!-- 0 -->
      <defs>
       <path d="M 31.78125 66.40625 
Q 24.171875 66.40625 20.328125 58.90625 
Q 16.5 51.421875 16.5 36.375 
Q 16.5 21.390625 20.328125 13.890625 
Q 24.171875 6.390625 31.78125 6.390625 
Q 39.453125 6.390625 43.28125 13.890625 
Q 47.125 21.390625 47.125 36.375 
Q 47.125 51.421875 43.28125 58.90625 
Q 39.453125 66.40625 31.78125 66.40625 
z
M 31.78125 74.21875 
Q 44.046875 74.21875 50.515625 64.515625 
Q 56.984375 54.828125 56.984375 36.375 
Q 56.984375 17.96875 50.515625 8.265625 
Q 44.046875 -1.421875 31.78125 -1.421875 
Q 19.53125 -1.421875 13.0625 8.265625 
Q 6.59375 17.96875 6.59375 36.375 
Q 6.59375 54.828125 13.0625 64.515625 
Q 19.53125 74.21875 31.78125 74.21875 
z
" id="DejaVuSans-48"/>
      </defs>
      <g transform="translate(66.036932 266.598437)scale(0.1 -0.1)">
       <use xlink:href="#DejaVuSans-48"/>
      </g>
     </g>
    </g>
    <g id="xtick_2">
     <g id="line2d_2">
      <g>
       <use style="stroke:#000000;stroke-width:0.8;" x="138.946392" xlink:href="#m36754945e5" y="252"/>
      </g>
     </g>
     <g id="text_2">
      <!-- 1000 -->
      <defs>
       <path d="M 12.40625 8.296875 
L 28.515625 8.296875 
L 28.515625 63.921875 
L 10.984375 60.40625 
L 10.984375 69.390625 
L 28.421875 72.90625 
L 38.28125 72.90625 
L 38.28125 8.296875 
L 54.390625 8.296875 
L 54.390625 0 
L 12.40625 0 
z
" id="DejaVuSans-49"/>
      </defs>
      <g transform="translate(126.221392 266.598437)scale(0.1 -0.1)">
       <use xlink:href="#DejaVuSans-49"/>
       <use x="63.623047" xlink:href="#DejaVuSans-48"/>
       <use x="127.246094" xlink:href="#DejaVuSans-48"/>
       <use x="190.869141" xlink:href="#DejaVuSans-48"/>
      </g>
     </g>
    </g>
    <g id="xtick_3">
     <g id="line2d_3">
      <g>
       <use style="stroke:#000000;stroke-width:0.8;" x="208.674602" xlink:href="#m36754945e5" y="252"/>
      </g>
     </g>
     <g id="text_3">
      <!-- 2000 -->
      <defs>
       <path d="M 19.1875 8.296875 
L 53.609375 8.296875 
L 53.609375 0 
L 7.328125 0 
L 7.328125 8.296875 
Q 12.9375 14.109375 22.625 23.890625 
Q 32.328125 33.6875 34.8125 36.53125 
Q 39.546875 41.84375 41.421875 45.53125 
Q 43.3125 49.21875 43.3125 52.78125 
Q 43.3125 58.59375 39.234375 62.25 
Q 35.15625 65.921875 28.609375 65.921875 
Q 23.96875 65.921875 18.8125 64.3125 
Q 13.671875 62.703125 7.8125 59.421875 
L 7.8125 69.390625 
Q 13.765625 71.78125 18.9375 73 
Q 24.125 74.21875 28.421875 74.21875 
Q 39.75 74.21875 46.484375 68.546875 
Q 53.21875 62.890625 53.21875 53.421875 
Q 53.21875 48.921875 51.53125 44.890625 
Q 49.859375 40.875 45.40625 35.40625 
Q 44.1875 33.984375 37.640625 27.21875 
Q 31.109375 20.453125 19.1875 8.296875 
z
" id="DejaVuSans-50"/>
      </defs>
      <g transform="translate(195.949602 266.598437)scale(0.1 -0.1)">
       <use xlink:href="#DejaVuSans-50"/>
       <use x="63.623047" xlink:href="#DejaVuSans-48"/>
       <use x="127.246094" xlink:href="#DejaVuSans-48"/>
       <use x="190.869141" xlink:href="#DejaVuSans-48"/>
      </g>
     </g>
    </g>
    <g id="xtick_4">
     <g id="line2d_4">
      <g>
       <use style="stroke:#000000;stroke-width:0.8;" x="278.402812" xlink:href="#m36754945e5" y="252"/>
      </g>
     </g>
     <g id="text_4">
      <!-- 3000 -->
      <defs>
       <path d="M 40.578125 39.3125 
Q 47.65625 37.796875 51.625 33 
Q 55.609375 28.21875 55.609375 21.1875 
Q 55.609375 10.40625 48.1875 4.484375 
Q 40.765625 -1.421875 27.09375 -1.421875 
Q 22.515625 -1.421875 17.65625 -0.515625 
Q 12.796875 0.390625 7.625 2.203125 
L 7.625 11.71875 
Q 11.71875 9.328125 16.59375 8.109375 
Q 21.484375 6.890625 26.8125 6.890625 
Q 36.078125 6.890625 40.9375 10.546875 
Q 45.796875 14.203125 45.796875 21.1875 
Q 45.796875 27.640625 41.28125 31.265625 
Q 36.765625 34.90625 28.71875 34.90625 
L 20.21875 34.90625 
L 20.21875 43.015625 
L 29.109375 43.015625 
Q 36.375 43.015625 40.234375 45.921875 
Q 44.09375 48.828125 44.09375 54.296875 
Q 44.09375 59.90625 40.109375 62.90625 
Q 36.140625 65.921875 28.71875 65.921875 
Q 24.65625 65.921875 20.015625 65.03125 
Q 15.375 64.15625 9.8125 62.3125 
L 9.8125 71.09375 
Q 15.4375 72.65625 20.34375 73.4375 
Q 25.25 74.21875 29.59375 74.21875 
Q 40.828125 74.21875 47.359375 69.109375 
Q 53.90625 64.015625 53.90625 55.328125 
Q 53.90625 49.265625 50.4375 45.09375 
Q 46.96875 40.921875 40.578125 39.3125 
z
" id="DejaVuSans-51"/>
      </defs>
      <g transform="translate(265.677812 266.598437)scale(0.1 -0.1)">
       <use xlink:href="#DejaVuSans-51"/>
       <use x="63.623047" xlink:href="#DejaVuSans-48"/>
       <use x="127.246094" xlink:href="#DejaVuSans-48"/>
       <use x="190.869141" xlink:href="#DejaVuSans-48"/>
      </g>
     </g>
    </g>
    <g id="xtick_5">
     <g id="line2d_5">
      <g>
       <use style="stroke:#000000;stroke-width:0.8;" x="348.131022" xlink:href="#m36754945e5" y="252"/>
      </g>
     </g>
     <g id="text_5">
      <!-- 4000 -->
      <defs>
       <path d="M 37.796875 64.3125 
L 12.890625 25.390625 
L 37.796875 25.390625 
z
M 35.203125 72.90625 
L 47.609375 72.90625 
L 47.609375 25.390625 
L 58.015625 25.390625 
L 58.015625 17.1875 
L 47.609375 17.1875 
L 47.609375 0 
L 37.796875 0 
L 37.796875 17.1875 
L 4.890625 17.1875 
L 4.890625 26.703125 
z
" id="DejaVuSans-52"/>
      </defs>
      <g transform="translate(335.406022 266.598437)scale(0.1 -0.1)">
       <use xlink:href="#DejaVuSans-52"/>
       <use x="63.623047" xlink:href="#DejaVuSans-48"/>
       <use x="127.246094" xlink:href="#DejaVuSans-48"/>
       <use x="190.869141" xlink:href="#DejaVuSans-48"/>
      </g>
     </g>
    </g>
   </g>
   <g id="matplotlib.axis_2">
    <g id="ytick_1">
     <g id="line2d_6">
      <defs>
       <path d="M 0 0 
L -3.5 0 
" id="mbb3808696f" style="stroke:#000000;stroke-width:0.8;"/>
      </defs>
      <g>
       <use style="stroke:#000000;stroke-width:0.8;" x="54" xlink:href="#mbb3808696f" y="240.48589"/>
      </g>
     </g>
     <g id="text_6">
      <!-- 26 -->
      <defs>
       <path d="M 33.015625 40.375 
Q 26.375 40.375 22.484375 35.828125 
Q 18.609375 31.296875 18.609375 23.390625 
Q 18.609375 15.53125 22.484375 10.953125 
Q 26.375 6.390625 33.015625 6.390625 
Q 39.65625 6.390625 43.53125 10.953125 
Q 47.40625 15.53125 47.40625 23.390625 
Q 47.40625 31.296875 43.53125 35.828125 
Q 39.65625 40.375 33.015625 40.375 
z
M 52.59375 71.296875 
L 52.59375 62.3125 
Q 48.875 64.0625 45.09375 64.984375 
Q 41.3125 65.921875 37.59375 65.921875 
Q 27.828125 65.921875 22.671875 59.328125 
Q 17.53125 52.734375 16.796875 39.40625 
Q 19.671875 43.65625 24.015625 45.921875 
Q 28.375 48.1875 33.59375 48.1875 
Q 44.578125 48.1875 50.953125 41.515625 
Q 57.328125 34.859375 57.328125 23.390625 
Q 57.328125 12.15625 50.6875 5.359375 
Q 44.046875 -1.421875 33.015625 -1.421875 
Q 20.359375 -1.421875 13.671875 8.265625 
Q 6.984375 17.96875 6.984375 36.375 
Q 6.984375 53.65625 15.1875 63.9375 
Q 23.390625 74.21875 37.203125 74.21875 
Q 40.921875 74.21875 44.703125 73.484375 
Q 48.484375 72.75 52.59375 71.296875 
z
" id="DejaVuSans-54"/>
      </defs>
      <g transform="translate(34.275 244.285109)scale(0.1 -0.1)">
       <use xlink:href="#DejaVuSans-50"/>
       <use x="63.623047" xlink:href="#DejaVuSans-54"/>
      </g>
     </g>
    </g>
    <g id="ytick_2">
     <g id="line2d_7">
      <g>
       <use style="stroke:#000000;stroke-width:0.8;" x="54" xlink:href="#mbb3808696f" y="212.513771"/>
      </g>
     </g>
     <g id="text_7">
      <!-- 28 -->
      <defs>
       <path d="M 31.78125 34.625 
Q 24.75 34.625 20.71875 30.859375 
Q 16.703125 27.09375 16.703125 20.515625 
Q 16.703125 13.921875 20.71875 10.15625 
Q 24.75 6.390625 31.78125 6.390625 
Q 38.8125 6.390625 42.859375 10.171875 
Q 46.921875 13.96875 46.921875 20.515625 
Q 46.921875 27.09375 42.890625 30.859375 
Q 38.875 34.625 31.78125 34.625 
z
M 21.921875 38.8125 
Q 15.578125 40.375 12.03125 44.71875 
Q 8.5 49.078125 8.5 55.328125 
Q 8.5 64.0625 14.71875 69.140625 
Q 20.953125 74.21875 31.78125 74.21875 
Q 42.671875 74.21875 48.875 69.140625 
Q 55.078125 64.0625 55.078125 55.328125 
Q 55.078125 49.078125 51.53125 44.71875 
Q 48 40.375 41.703125 38.8125 
Q 48.828125 37.15625 52.796875 32.3125 
Q 56.78125 27.484375 56.78125 20.515625 
Q 56.78125 9.90625 50.3125 4.234375 
Q 43.84375 -1.421875 31.78125 -1.421875 
Q 19.734375 -1.421875 13.25 4.234375 
Q 6.78125 9.90625 6.78125 20.515625 
Q 6.78125 27.484375 10.78125 32.3125 
Q 14.796875 37.15625 21.921875 38.8125 
z
M 18.3125 54.390625 
Q 18.3125 48.734375 21.84375 45.5625 
Q 25.390625 42.390625 31.78125 42.390625 
Q 38.140625 42.390625 41.71875 45.5625 
Q 45.3125 48.734375 45.3125 54.390625 
Q 45.3125 60.0625 41.71875 63.234375 
Q 38.140625 66.40625 31.78125 66.40625 
Q 25.390625 66.40625 21.84375 63.234375 
Q 18.3125 60.0625 18.3125 54.390625 
z
" id="DejaVuSans-56"/>
      </defs>
      <g transform="translate(34.275 216.312989)scale(0.1 -0.1)">
       <use xlink:href="#DejaVuSans-50"/>
       <use x="63.623047" xlink:href="#DejaVuSans-56"/>
      </g>
     </g>
    </g>
    <g id="ytick_3">
     <g id="line2d_8">
      <g>
       <use style="stroke:#000000;stroke-width:0.8;" x="54" xlink:href="#mbb3808696f" y="184.541651"/>
      </g>
     </g>
     <g id="text_8">
      <!-- 30 -->
      <g transform="translate(34.275 188.34087)scale(0.1 -0.1)">
       <use xlink:href="#DejaVuSans-51"/>
       <use x="63.623047" xlink:href="#DejaVuSans-48"/>
      </g>
     </g>
    </g>
    <g id="ytick_4">
     <g id="line2d_9">
      <g>
       <use style="stroke:#000000;stroke-width:0.8;" x="54" xlink:href="#mbb3808696f" y="156.569532"/>
      </g>
     </g>
     <g id="text_9">
      <!-- 32 -->
      <g transform="translate(34.275 160.36875)scale(0.1 -0.1)">
       <use xlink:href="#DejaVuSans-51"/>
       <use x="63.623047" xlink:href="#DejaVuSans-50"/>
      </g>
     </g>
    </g>
    <g id="ytick_5">
     <g id="line2d_10">
      <g>
       <use style="stroke:#000000;stroke-width:0.8;" x="54" xlink:href="#mbb3808696f" y="128.597412"/>
      </g>
     </g>
     <g id="text_10">
      <!-- 34 -->
      <g transform="translate(34.275 132.396631)scale(0.1 -0.1)">
       <use xlink:href="#DejaVuSans-51"/>
       <use x="63.623047" xlink:href="#DejaVuSans-52"/>
      </g>
     </g>
    </g>
    <g id="ytick_6">
     <g id="line2d_11">
      <g>
       <use style="stroke:#000000;stroke-width:0.8;" x="54" xlink:href="#mbb3808696f" y="100.625293"/>
      </g>
     </g>
     <g id="text_11">
      <!-- 36 -->
      <g transform="translate(34.275 104.424512)scale(0.1 -0.1)">
       <use xlink:href="#DejaVuSans-51"/>
       <use x="63.623047" xlink:href="#DejaVuSans-54"/>
      </g>
     </g>
    </g>
    <g id="ytick_7">
     <g id="line2d_12">
      <g>
       <use style="stroke:#000000;stroke-width:0.8;" x="54" xlink:href="#mbb3808696f" y="72.653173"/>
      </g>
     </g>
     <g id="text_12">
      <!-- 38 -->
      <g transform="translate(34.275 76.452392)scale(0.1 -0.1)">
       <use xlink:href="#DejaVuSans-51"/>
       <use x="63.623047" xlink:href="#DejaVuSans-56"/>
      </g>
     </g>
    </g>
    <g id="ytick_8">
     <g id="line2d_13">
      <g>
       <use style="stroke:#000000;stroke-width:0.8;" x="54" xlink:href="#mbb3808696f" y="44.681054"/>
      </g>
     </g>
     <g id="text_13">
      <!-- 40 -->
      <g transform="translate(34.275 48.480273)scale(0.1 -0.1)">
       <use xlink:href="#DejaVuSans-52"/>
       <use x="63.623047" xlink:href="#DejaVuSans-48"/>
      </g>
     </g>
    </g>
   </g>
   <g id="line2d_14">
    <path clip-path="url(#p00528c2112)" d="M 69.218182 91.317286 
L 69.28791 94.617701 
L 69.357638 93.254861 
L 69.566823 89.378478 
L 70.05492 102.702852 
L 70.124649 99.86679 
L 70.194377 99.926607 
L 70.264105 98.2986 
L 70.333833 98.346083 
L 70.47329 100.700527 
L 70.543018 98.862235 
L 70.612746 102.187316 
L 70.682474 100.166491 
L 70.752202 103.430522 
L 70.961387 95.839939 
L 71.031115 98.807352 
L 71.100843 94.778035 
L 71.170572 96.659493 
L 71.2403 95.860906 
L 71.379756 101.045245 
L 71.658669 104.151408 
L 71.867854 108.328109 
L 71.937582 108.300976 
L 72.00731 108.393476 
L 72.077038 106.17285 
L 72.146767 109.893832 
L 72.216495 108.130775 
L 72.425679 103.493422 
L 72.704592 106.92272 
L 72.774321 102.472834 
L 72.844049 102.755885 
L 72.983505 104.392526 
L 73.401874 113.564248 
L 73.471603 112.315493 
L 73.611059 116.072859 
L 73.750515 114.927087 
L 73.9597 123.326123 
L 74.029428 122.748304 
L 74.099157 125.042314 
L 74.168885 123.249039 
L 74.238613 127.515774 
L 74.308341 123.934159 
L 74.378069 124.186993 
L 74.656982 147.425559 
L 74.72671 144.150429 
L 74.796439 144.45013 
L 75.284536 165.126435 
L 75.493721 183.41623 
L 75.772634 202.571211 
L 76.469916 150.044554 
L 76.6791 119.848108 
L 76.748828 116.458894 
L 76.958013 92.918777 
L 77.167198 84.633208 
L 77.655295 51.687034 
L 77.725023 53.165807 
L 77.86448 45.234823 
L 78.073664 54.711797 
L 78.63149 149.788019 
L 78.840675 193.244705 
L 78.910403 196.00615 
L 79.119588 208.913039 
L 79.886598 129.786351 
L 79.956326 127.948676 
L 80.165511 107.473405 
L 80.374695 94.095382 
L 80.723336 64.944807 
L 80.793065 66.023978 
L 81.002249 53.633242 
L 81.071978 56.699939 
L 81.141706 48.367503 
L 81.211434 50.64918 
L 81.281162 48.613554 
L 81.35089 53.19664 
L 81.420619 51.958985 
L 81.490347 54.104378 
L 82.396813 214.110944 
L 82.466542 220.90664 
L 82.815183 169.688554 
L 83.582193 46.791913 
L 83.651921 47.7089 
L 83.721649 48.006135 
L 83.791378 49.486758 
L 84.140019 101.305479 
L 84.279475 132.602679 
L 84.48866 187.845765 
L 84.697844 219.474117 
L 84.767573 218.048378 
L 84.837301 223.631701 
L 85.046485 209.98296 
L 85.116214 212.38982 
L 86.580506 48.177569 
L 86.650234 48.885505 
L 87.277788 96.13409 
L 87.626429 152.663548 
L 88.044799 201.803458 
L 88.253983 215.862902 
L 88.323711 214.247228 
L 88.39344 213.175457 
L 88.463168 219.073899 
L 88.532896 217.514342 
L 88.602624 216.308137 
L 89.020993 171.458395 
L 89.090722 169.993806 
L 89.439363 144.076428 
L 90.415558 64.530405 
L 90.485286 63.749085 
L 90.555014 64.022887 
L 90.764199 58.187345 
L 90.833927 57.264191 
L 91.043112 50.900781 
L 91.11284 51.484766 
L 91.182568 49.715542 
L 91.322024 55.310583 
L 91.461481 52.269786 
L 92.158763 103.74194 
L 92.507404 149.196017 
L 92.786317 182.465942 
L 93.06523 217.917027 
L 93.134958 217.566142 
L 93.274414 210.323978 
L 93.344142 210.598396 
L 93.83224 124.95228 
L 93.971696 107.644223 
L 94.390066 58.952632 
L 94.529522 53.961927 
L 94.59925 57.341891 
L 94.668978 50.668296 
L 94.738707 52.886456 
L 94.808435 55.706484 
L 95.575445 159.977246 
L 96.133271 215.277682 
L 96.202999 213.703326 
L 96.272727 218.010761 
L 97.806748 47.182265 
L 97.876476 44.443636 
L 98.085661 68.423439 
L 98.992127 218.320329 
L 99.131584 223.769219 
L 100.247235 101.282046 
L 100.316963 98.134566 
L 100.526148 75.0366 
L 100.595876 75.333835 
L 100.874789 59.057465 
L 101.083974 50.424095 
L 101.153702 51.942335 
L 101.22343 53.580825 
L 101.293158 53.432825 
L 101.362887 53.347108 
L 101.432615 54.001394 
L 101.502343 52.347487 
L 101.781256 58.964348 
L 101.850984 55.967952 
L 101.99044 63.147833 
L 102.339082 100.965078 
L 102.966635 222.698681 
L 103.454733 149.137433 
L 103.733646 113.491481 
L 104.012559 90.666084 
L 104.082287 87.879972 
L 104.3612 59.237533 
L 104.500656 58.121978 
L 104.709841 51.207265 
L 104.779569 50.367362 
L 104.849297 52.214903 
L 105.267666 108.386693 
L 105.686036 198.443844 
L 105.964948 220.89924 
L 106.104405 213.86551 
L 106.31359 219.039982 
L 106.522774 212.263403 
L 106.592502 214.118961 
L 106.731959 198.472211 
L 106.941143 177.904439 
L 107.010872 177.899506 
L 107.429241 126.59632 
L 108.196251 55.173682 
L 108.335708 56.641972 
L 108.475164 47.785984 
L 108.544892 49.29189 
L 108.61462 49.350474 
L 108.684349 50.239711 
L 109.03299 70.531831 
L 109.939456 215.972052 
L 110.009185 215.223415 
L 110.078913 212.969489 
L 110.148641 217.239924 
L 110.218369 213.782876 
L 110.56701 172.341466 
L 110.636739 170.20964 
L 110.915651 117.11318 
L 111.264292 66.976733 
L 111.612933 50.305078 
L 111.682662 51.336149 
L 111.891846 62.369596 
L 111.961575 63.646718 
L 112.101031 74.167713 
L 113.007498 205.793309 
L 113.146954 219.212649 
L 113.356139 198.32791 
L 113.565323 166.38074 
L 113.635052 137.770985 
L 113.70478 138.842756 
L 114.541518 54.69083 
L 114.611246 53.418025 
L 114.750703 67.701319 
L 114.959888 110.820686 
L 115.308529 210.661296 
L 115.378257 213.216157 
L 115.447985 210.05326 
L 116.145267 86.002214 
L 116.563636 59.603834 
L 116.633365 58.783048 
L 116.842549 66.352663 
L 116.982006 78.357364 
L 117.539831 201.118955 
L 117.679288 214.974898 
L 117.749016 214.110944 
L 117.818744 211.335932 
L 117.888472 215.347983 
L 118.167385 171.529929 
L 118.37657 149.494485 
L 118.446298 144.863915 
L 118.794939 83.251869 
L 119.073852 54.212911 
L 119.14358 57.585476 
L 119.213308 56.647522 
L 119.492221 84.662808 
L 119.631678 108.054308 
L 120.189503 206.067726 
L 120.398688 224.741706 
L 120.607873 189.668023 
L 121.165698 101.620597 
L 121.514339 62.745765 
L 121.584067 64.029053 
L 121.653796 62.883282 
L 121.723524 59.4102 
L 121.793252 60.329654 
L 122.002437 68.773707 
L 122.28135 93.611296 
L 122.560262 120.554811 
L 122.769447 145.123533 
L 122.908903 162.312573 
L 123.187816 201.404473 
L 123.257545 199.582832 
L 123.466729 210.160561 
L 123.536457 211.548066 
L 123.81537 228.724156 
L 123.885098 228.277071 
L 124.791565 111.336839 
L 125.070478 75.739603 
L 125.488847 54.230178 
L 125.628304 66.057279 
L 125.698032 63.642402 
L 126.186129 163.884463 
L 126.465042 220.452154 
L 126.53477 221.952511 
L 126.604499 227.572218 
L 127.092596 124.461411 
L 127.371509 72.567456 
L 127.580694 60.755156 
L 127.650422 60.15452 
L 127.72015 55.135449 
L 127.789878 58.465463 
L 127.859606 56.655539 
L 128.068791 69.177009 
L 128.277976 90.111698 
L 128.975258 226.205679 
L 129.114714 218.400496 
L 129.184442 219.3255 
L 129.254171 223.858636 
L 129.323899 221.290208 
L 129.67254 183.890448 
L 129.742268 183.57163 
L 130.090909 162.546291 
L 130.160637 163.104376 
L 130.230366 152.431064 
L 130.300094 154.65354 
L 130.509278 143.812494 
L 130.718463 135.762493 
L 130.788191 135.996211 
L 130.857919 139.178224 
L 131.20656 107.233521 
L 131.276289 107.646073 
L 131.485473 89.622679 
L 131.555201 89.845914 
L 131.764386 61.931144 
L 131.834114 62.821615 
L 132.043299 56.398387 
L 132.252484 67.174683 
L 132.322212 66.783715 
L 132.39194 67.385584 
L 132.461668 70.247547 
L 132.810309 112.173042 
L 133.019494 124.721646 
L 133.15895 137.918369 
L 133.298407 141.470384 
L 134.135145 222.46928 
L 134.204873 229.846495 
L 134.274602 227.368717 
L 134.34433 229.021391 
L 134.902156 178.371875 
L 135.11134 159.501178 
L 135.181068 159.526461 
L 135.390253 121.905934 
L 135.459981 120.457994 
L 135.669166 100.258991 
L 135.738894 97.648014 
L 136.017807 72.381222 
L 136.226992 60.741589 
L 136.29672 64.658056 
L 136.366448 57.02369 
L 136.436176 57.785277 
L 136.505904 59.666118 
L 136.715089 79.218851 
L 137.203187 177.391987 
L 137.482099 223.027982 
L 137.621556 227.728852 
L 137.691284 225.348509 
L 137.900469 207.523066 
L 137.970197 205.727942 
L 138.24911 164.724983 
L 138.667479 118.950238 
L 139.085848 65.932095 
L 139.295033 58.173162 
L 139.364761 59.341133 
L 139.504217 55.660851 
L 139.992315 96.654559 
L 140.759325 228.344905 
L 140.829053 226.158812 
L 141.386879 157.242318 
L 141.73552 95.567988 
L 141.944705 69.730161 
L 142.014433 68.208838 
L 142.084161 59.261583 
L 142.153889 59.926352 
L 142.293346 56.12397 
L 142.641987 74.287964 
L 143.478725 210.563862 
L 143.548454 213.853793 
L 143.757638 231.082917 
L 143.827366 235.292301 
L 144.45492 127.558941 
L 144.733833 79.786187 
L 144.803561 77.392277 
L 144.943018 64.409538 
L 145.152202 55.725601 
L 145.710028 87.125785 
L 145.849485 102.715802 
L 145.919213 104.837761 
L 146.267854 153.795753 
L 146.337582 160.476748 
L 146.616495 216.112653 
L 146.686223 215.397316 
L 146.825679 221.874811 
L 146.895408 226.182246 
L 146.965136 225.70001 
L 147.034864 225.175841 
L 147.453233 182.03674 
L 148.778069 63.330984 
L 148.917526 60.192754 
L 148.987254 62.286346 
L 149.056982 55.146549 
L 149.12671 57.233358 
L 149.405623 67.032233 
L 149.54508 83.933905 
L 149.614808 83.122985 
L 149.893721 106.936287 
L 150.31209 169.43387 
L 150.591003 216.891506 
L 150.800187 226.629331 
L 151.218557 166.698325 
L 152.125023 50.199628 
L 152.194752 55.882235 
L 152.26448 53.248441 
L 152.961762 85.691412 
L 153.240675 122.609553 
L 153.310403 122.723637 
L 153.449859 147.471193 
L 153.868229 230.346613 
L 153.937957 225.018591 
L 154.007685 229.097241 
L 154.286598 174.512758 
L 154.844424 61.506259 
L 154.98388 54.381262 
L 155.053608 54.759897 
L 155.123336 61.077674 
L 155.193065 59.530451 
L 155.541706 79.640037 
L 156.378444 224.036236 
L 156.448172 227.868219 
L 156.517901 225.007491 
L 156.587629 225.262175 
L 156.657357 224.561639 
L 156.93627 202.518795 
L 157.005998 203.242764 
L 157.284911 178.043807 
L 157.70328 116.222709 
L 158.330834 55.038632 
L 158.400562 58.375429 
L 158.818932 128.821263 
L 159.097844 202.298644 
L 159.307029 223.108766 
L 159.795127 122.305535 
L 159.864855 123.016555 
L 160.213496 67.758669 
L 160.352952 58.794148 
L 160.42268 65.749561 
L 160.492409 62.704448 
L 160.562137 63.411151 
L 161.119963 142.05252 
L 161.60806 221.01024 
L 161.677788 224.320521 
L 161.747516 219.359416 
L 161.817245 226.642281 
L 162.026429 197.848758 
L 162.444799 115.105305 
L 162.514527 111.944258 
L 163.002624 57.029857 
L 163.072352 61.876261 
L 163.142081 58.678214 
L 163.351265 70.497914 
L 163.56045 93.70873 
L 164.32746 231.17295 
L 164.815558 178.87076 
L 164.885286 174.493642 
L 165.373383 103.420655 
L 165.443112 102.406234 
L 165.791753 69.032091 
L 165.931209 63.132416 
L 166.070665 56.633338 
L 166.140394 56.965106 
L 166.210122 55.747801 
L 166.489035 74.051779 
L 166.628491 85.08276 
L 166.698219 85.91218 
L 166.907404 114.70817 
L 167.256045 188.432218 
L 167.395501 208.770588 
L 167.534958 226.695314 
L 168.441425 64.89794 
L 168.580881 60.309921 
L 168.790066 157.984171 
L 168.99925 216.230436 
L 169.626804 78.486865 
L 169.835989 65.636094 
L 169.905717 66.033845 
L 169.975445 60.681772 
L 170.045173 63.461718 
L 170.114902 61.387242 
L 170.18463 62.767965 
L 170.393814 60.338904 
L 170.463543 63.572101 
L 170.533271 59.537234 
L 170.602999 61.226291 
L 170.672727 61.612943 
L 170.742455 61.456926 
L 170.812184 60.456071 
L 170.881912 66.792965 
L 170.95164 62.756865 
L 171.021368 63.425334 
L 171.091097 62.798181 
L 171.160825 60.11012 
L 171.71865 78.643499 
L 172.13702 158.52684 
L 172.415933 218.000894 
L 172.485661 216.131153 
L 172.555389 223.359134 
L 172.764574 207.236931 
L 172.834302 205.903076 
L 173.392127 142.661172 
L 173.740769 118.049284 
L 173.810497 119.560124 
L 173.880225 106.677285 
L 173.949953 109.058862 
L 174.716963 74.657349 
L 174.786692 78.549149 
L 174.926148 73.669444 
L 174.995876 75.095184 
L 175.414246 59.535384 
L 175.62343 66.802215 
L 175.693158 60.19152 
L 175.762887 62.884515 
L 175.832615 58.869381 
L 176.250984 87.249736 
L 176.460169 110.633836 
L 176.80881 157.929288 
L 176.878538 160.01548 
L 177.436364 223.647735 
L 177.506092 221.681176 
L 177.645548 202.826513 
L 178.133646 66.678881 
L 178.203374 60.594822 
L 178.273102 63.604168 
L 178.34283 67.522485 
L 178.621743 136.702914 
L 178.900656 202.655078 
L 179.249297 242.116364 
L 179.458482 227.609218 
L 179.667666 219.096715 
L 179.737395 221.82671 
L 179.807123 222.256529 
L 179.876851 223.3838 
L 180.016307 218.939465 
L 180.086036 219.112132 
L 180.155764 220.916506 
L 180.225492 225.706177 
L 180.29522 219.661584 
L 180.364948 221.517142 
L 180.434677 218.521363 
L 180.504405 222.707314 
L 180.574133 217.375591 
L 180.643861 218.173561 
L 180.71359 216.492521 
L 180.783318 219.236699 
L 180.992502 204.648154 
L 181.062231 204.60807 
L 181.131959 203.855734 
L 181.201687 206.352628 
L 181.410872 200.781637 
L 181.4806 202.730312 
L 181.689784 196.836804 
L 181.759513 198.155243 
L 181.829241 197.093338 
L 181.898969 197.623674 
L 181.968697 198.479611 
L 182.038425 202.109943 
L 182.108154 200.061984 
L 182.177882 199.765983 
L 182.24761 201.022755 
L 182.805436 236.068688 
L 182.875164 238.15303 
L 183.084349 227.302117 
L 183.154077 227.064083 
L 183.223805 228.053837 
L 183.293533 223.526251 
L 183.43299 228.674823 
L 183.502718 229.050375 
L 183.642174 233.39111 
L 183.711903 229.001041 
L 183.921087 204.981155 
L 183.990815 203.79715 
L 184.060544 195.729882 
L 184.130272 196.739987 
L 184.269728 194.30846 
L 184.409185 188.007333 
L 184.548641 193.403806 
L 184.618369 190.841545 
L 184.688097 190.702177 
L 184.827554 193.876791 
L 184.897282 190.668261 
L 184.96701 193.377906 
L 185.245923 179.837081 
L 185.38538 182.780444 
L 185.455108 182.394409 
L 185.734021 160.998451 
L 185.803749 163.232027 
L 185.873477 159.26746 
L 185.943205 163.749412 
L 186.222118 140.270345 
L 186.570759 63.980953 
L 186.640487 63.717019 
L 186.710216 59.815352 
L 186.779944 62.257979 
L 186.849672 59.841869 
L 187.058857 66.738082 
L 187.128585 66.703548 
L 187.268041 89.160177 
L 187.965323 218.389396 
L 188.174508 233.322043 
L 188.244236 233.148759 
L 188.313964 235.719653 
L 188.383693 231.719319 
L 188.453421 234.071913 
L 188.523149 233.38371 
L 188.941518 220.659972 
L 189.011246 225.483559 
L 189.290159 215.691467 
L 189.429616 220.133953 
L 189.499344 219.953886 
L 189.569072 218.71808 
L 189.6388 220.526155 
L 189.708529 218.899381 
L 189.917713 205.24509 
L 189.987441 206.488295 
L 190.05717 203.707116 
L 190.126898 205.999276 
L 190.266354 201.598107 
L 190.405811 205.174173 
L 190.614995 195.483215 
L 190.684724 189.02607 
L 190.754452 189.374488 
L 190.82418 190.177392 
L 190.893908 188.820719 
L 190.963636 190.512243 
L 191.033365 187.48563 
L 191.103093 189.344888 
L 191.172821 185.314338 
L 191.242549 187.209979 
L 191.312277 185.219987 
L 191.382006 189.196271 
L 191.451734 187.460964 
L 191.521462 188.543835 
L 191.59119 186.765361 
L 191.660918 187.686665 
L 191.730647 187.866115 
L 192.00956 179.268512 
L 192.079288 184.738369 
L 192.149016 179.884565 
L 192.218744 180.779968 
L 192.288472 180.694868 
L 192.77657 133.134865 
L 192.985754 107.77989 
L 193.055483 105.908915 
L 193.334396 84.460541 
L 193.752765 58.375429 
L 193.822493 61.492076 
L 193.961949 66.262013 
L 194.171134 79.128818 
L 194.240862 77.823329 
L 194.589503 131.784976 
L 194.72896 152.598798 
L 194.938144 204.818971 
L 195.286785 232.166404 
L 195.49597 220.576722 
L 195.635426 212.418187 
L 195.705155 212.453954 
L 195.914339 197.264772 
L 196.26298 177.218703 
L 196.541893 168.769717 
L 196.68135 161.364752 
L 197.029991 113.267014 
L 197.587816 69.376193 
L 197.727273 65.51831 
L 197.797001 68.213771 
L 197.866729 63.372301 
L 197.936457 63.404984 
L 198.006186 66.549381 
L 198.075914 65.151391 
L 198.145642 63.256367 
L 198.494283 79.746104 
L 198.564011 80.186406 
L 199.749391 226.148329 
L 199.819119 227.1461 
L 199.888847 234.32043 
L 199.958575 233.278259 
L 200.028304 237.086809 
L 200.098032 235.455719 
L 200.16776 237.511077 
L 200.446673 188.92987 
L 200.93477 119.634124 
L 201.283411 67.252384 
L 201.422868 62.57803 
L 201.492596 63.244033 
L 201.701781 78.814316 
L 201.771509 81.334027 
L 202.050422 118.849104 
L 202.468791 207.67785 
L 202.608247 219.195382 
L 202.677976 219.730651 
L 202.88716 209.506891 
L 203.933083 76.811375 
L 204.142268 67.013733 
L 204.211996 69.049975 
L 204.421181 65.377709 
L 204.490909 66.998933 
L 204.560637 64.412622 
L 204.700094 73.769345 
L 204.769822 70.280847 
L 204.83955 69.49521 
L 204.909278 74.641932 
L 204.979007 72.090771 
L 205.048735 74.418081 
L 205.118463 69.878162 
L 205.188191 72.201155 
L 205.257919 73.779828 
L 205.467104 86.866167 
L 205.536832 89.481462 
L 205.815745 113.657365 
L 206.373571 157.391552 
L 206.582755 182.555359 
L 206.861668 218.581796 
L 206.931396 217.514959 
L 207.070853 236.898108 
L 207.140581 230.100562 
L 207.280037 232.926758 
L 207.349766 230.194913 
L 207.419494 235.421185 
L 207.55895 231.984487 
L 208.116776 148.357963 
L 208.395689 124.434278 
L 209.023243 63.3316 
L 209.092971 64.71109 
L 209.232427 63.655352 
L 209.302156 59.353467 
L 209.371884 59.866536 
L 209.441612 59.254183 
L 209.51134 59.615551 
L 209.581068 61.72086 
L 209.999438 114.331385 
L 210.417807 195.503565 
L 210.626992 224.464822 
L 210.766448 216.392004 
L 211.184817 148.357347 
L 211.672915 69.389143 
L 211.742643 73.634294 
L 211.812371 66.202196 
L 211.882099 68.363005 
L 211.951828 65.678027 
L 212.021556 66.025829 
L 212.161012 68.369172 
L 212.64911 129.463216 
L 213.276664 235.81832 
L 213.346392 233.273326 
L 213.625305 193.487056 
L 213.904217 149.681336 
L 214.113402 129.5514 
L 214.322587 98.093249 
L 214.6015 69.320076 
L 214.671228 67.798136 
L 214.740956 63.052866 
L 214.810684 69.474243 
L 214.880412 65.871661 
L 214.950141 66.202813 
L 215.229053 58.876781 
L 215.507966 71.0412 
L 215.577694 69.728311 
L 215.647423 68.602273 
L 215.786879 80.930109 
L 216.13552 116.362693 
L 216.344705 150.788257 
L 216.832802 230.532848 
L 216.90253 231.207484 
L 218.227366 63.384634 
L 218.297095 63.730585 
L 218.436551 66.319363 
L 218.506279 57.911694 
L 218.576007 62.771048 
L 218.924649 81.625095 
L 219.133833 108.376209 
L 219.900843 221.789094 
L 220.179756 240.388456 
L 220.388941 221.163791 
L 220.598126 199.652516 
L 220.80731 187.757582 
L 221.086223 148.560848 
L 221.99269 57.443025 
L 222.062418 58.549947 
L 222.132146 57.88086 
L 222.550515 91.917922 
L 222.829428 129.5958 
L 223.038613 166.211773 
L 223.456982 218.854364 
L 223.735895 227.813953 
L 223.805623 225.326925 
L 223.875351 229.51596 
L 224.642362 166.971509 
L 225.548828 75.907337 
L 225.967198 67.399151 
L 226.036926 65.52201 
L 226.106654 68.728073 
L 226.176382 62.608247 
L 226.246111 65.65151 
L 226.385567 73.714461 
L 227.361762 226.605897 
L 227.640675 206.746679 
L 227.919588 181.066103 
L 229.174695 58.197212 
L 229.244424 58.891581 
L 229.38388 59.894286 
L 229.453608 62.882048 
L 229.523336 60.391321 
L 229.732521 69.962029 
L 230.011434 99.776139 
L 230.15089 110.413685 
L 230.429803 154.533906 
L 230.638988 191.104246 
L 230.848172 220.708072 
L 230.917901 222.852848 
L 230.987629 220.342387 
L 231.266542 232.900858 
L 231.33627 233.695128 
L 231.405998 219.658501 
L 231.475726 223.346183 
L 231.545455 221.051557 
L 231.754639 199.322598 
L 231.824367 195.768116 
L 232.033552 170.785609 
L 232.173008 156.9642 
L 232.242737 158.337523 
L 232.521649 125.144681 
L 233.149203 67.307884 
L 233.428116 54.999165 
L 233.497844 55.229182 
L 233.916214 91.439387 
L 234.474039 216.620171 
L 234.683224 222.824481 
L 235.031865 179.638514 
L 235.24105 154.273672 
L 235.659419 115.780558 
L 236.217245 65.671244 
L 236.356701 59.112349 
L 236.705342 73.932762 
L 236.77507 71.192284 
L 237.123711 112.35126 
L 237.19344 115.034388 
L 237.751265 190.946995 
L 238.099906 221.353725 
L 238.169634 215.624867 
L 238.239363 224.05967 
L 238.309091 217.670359 
L 238.378819 220.318954 
L 238.518276 216.367954 
L 239.145829 121.402732 
L 239.843112 62.969615 
L 239.91284 64.199871 
L 239.982568 63.569635 
L 240.191753 77.614895 
L 240.261481 74.967533 
L 240.540394 117.629332 
L 241.028491 215.022998 
L 241.098219 217.096857 
L 241.167948 223.829036 
L 241.307404 208.168719 
L 241.656045 152.438464 
L 241.725773 153.603352 
L 242.074414 89.415478 
L 242.492784 54.840064 
L 242.911153 113.875666 
L 243.39925 208.598537 
L 243.468978 203.824283 
L 243.678163 211.596783 
L 243.817619 193.897758 
L 244.166261 113.587065 
L 244.375445 72.117288 
L 244.514902 62.823465 
L 244.58463 60.90069 
L 244.654358 65.359826 
L 244.863543 112.650961 
L 245.212184 219.907019 
L 245.281912 210.407845 
L 245.700281 96.09709 
L 245.979194 57.218558 
L 246.048922 59.811035 
L 246.11865 58.764548 
L 246.53702 106.393618 
L 247.025117 214.894114 
L 247.164574 223.836436 
L 247.373758 205.25619 
L 247.443486 203.527666 
L 247.652671 165.64197 
L 247.722399 165.927488 
L 248.07104 101.247512 
L 248.48941 62.769815 
L 248.559138 63.490084 
L 248.628866 63.379084 
L 248.698594 68.243371 
L 248.768322 63.647952 
L 248.838051 69.754211 
L 248.907779 67.93812 
L 249.186692 88.927076 
L 250.02343 192.78097 
L 250.232615 220.480521 
L 250.302343 220.081536 
L 250.511528 231.033583 
L 251.97582 96.90431 
L 252.115276 81.310594 
L 252.185005 82.483499 
L 252.533646 63.97602 
L 252.603374 68.699707 
L 252.673102 62.050162 
L 252.74283 64.92384 
L 252.812559 61.077057 
L 252.882287 63.076299 
L 253.021743 72.361489 
L 253.1612 89.09296 
L 253.230928 87.845438 
L 253.300656 92.258941 
L 253.579569 139.265791 
L 254.137395 229.170008 
L 254.207123 229.64176 
L 254.276851 235.88492 
L 254.346579 227.736869 
L 254.416307 231.472652 
L 254.486036 234.904416 
L 254.834677 204.951555 
L 255.392502 163.291227 
L 255.671415 127.245057 
L 256.298969 86.275398 
L 256.368697 87.751088 
L 256.577882 76.083088 
L 256.856795 66.406313 
L 256.926523 71.147884 
L 257.135708 61.568543 
L 257.205436 63.774986 
L 257.344892 60.260587 
L 257.41462 65.678027 
L 257.484349 63.033132 
L 257.763261 71.928587 
L 257.83299 68.03062 
L 257.902718 68.238438 
L 258.042174 76.178672 
L 258.111903 72.599523 
L 258.181631 75.375152 
L 258.251359 72.383689 
L 258.321087 73.443744 
L 258.460544 85.196227 
L 258.530272 84.986559 
L 258.6 85.431795 
L 258.669728 84.942776 
L 258.739456 83.251869 
L 258.809185 84.010989 
L 259.018369 96.708826 
L 259.088097 95.355854 
L 259.157826 103.129587 
L 259.227554 102.203966 
L 259.36701 106.935053 
L 259.506467 117.227264 
L 259.576195 116.922629 
L 259.645923 120.528911 
L 259.855108 137.789485 
L 259.994564 157.329268 
L 260.273477 201.849092 
L 260.55239 224.251454 
L 260.622118 224.447555 
L 260.691846 224.98344 
L 261.249672 180.015915 
L 261.598313 143.115658 
L 261.668041 141.860736 
L 261.807498 131.189273 
L 262.225867 78.435681 
L 262.435052 66.625231 
L 262.50478 65.878445 
L 262.574508 62.343696 
L 262.644236 63.150916 
L 262.713964 61.151058 
L 263.132334 87.254052 
L 264.0388 230.613015 
L 264.108529 228.407805 
L 264.178257 228.037187 
L 264.805811 100.500109 
L 265.084724 62.748848 
L 265.154452 63.762036 
L 265.22418 63.605402 
L 265.503093 102.442001 
L 265.99119 232.433422 
L 266.200375 203.112647 
L 266.40956 173.310253 
L 267.17657 63.905103 
L 267.246298 63.794102 
L 267.316026 65.876595 
L 267.385754 58.863831 
L 267.455483 61.836177 
L 268.013308 145.227133 
L 268.501406 223.755652 
L 268.571134 225.619843 
L 268.640862 233.787011 
L 268.71059 228.791373 
L 268.780319 230.648781 
L 268.850047 231.602769 
L 268.989503 220.692039 
L 269.059231 220.85299 
L 269.12896 220.040836 
L 269.198688 217.503242 
L 270.105155 132.010677 
L 270.174883 130.664488 
L 270.384067 96.83771 
L 270.453796 95.058619 
L 270.66298 77.892396 
L 270.732709 80.898042 
L 271.08135 60.201387 
L 271.290534 69.141858 
L 271.360262 63.25945 
L 271.429991 64.360821 
L 271.499719 63.398817 
L 271.569447 66.46428 
L 271.639175 64.993524 
L 271.778632 68.094754 
L 271.987816 78.335781 
L 272.057545 79.101684 
L 272.127273 87.816455 
L 272.197001 85.043293 
L 273.242924 160.601932 
L 273.80075 233.513827 
L 273.870478 233.134575 
L 273.940206 235.266401 
L 274.009934 226.33518 
L 274.079663 227.046199 
L 274.219119 220.407754 
L 275.33477 67.119183 
L 275.404499 64.71849 
L 275.474227 67.06245 
L 275.613683 62.38008 
L 275.683411 61.76156 
L 275.75314 67.738319 
L 275.822868 61.762177 
L 275.892596 65.237725 
L 275.962324 62.728498 
L 276.171509 72.409589 
L 276.241237 68.00472 
L 276.589878 86.793401 
L 276.729335 93.266578 
L 277.635801 218.437496 
L 277.70553 228.682223 
L 277.775258 224.863807 
L 277.844986 224.78734 
L 278.402812 163.409628 
L 278.821181 111.935625 
L 279.23955 73.115059 
L 279.448735 61.124541 
L 279.518463 61.618493 
L 279.657919 65.576893 
L 279.727648 63.588135 
L 279.797376 68.297022 
L 279.867104 66.578981 
L 279.936832 68.137304 
L 280.42493 120.463544 
L 280.843299 195.510348 
L 281.122212 223.984436 
L 281.19194 221.108291 
L 281.610309 151.708944 
L 281.819494 106.0933 
L 282.37732 61.239858 
L 282.447048 64.696906 
L 282.516776 61.341609 
L 282.586504 61.984178 
L 282.935145 87.566704 
L 283.353515 146.12932 
L 283.771884 200.596636 
L 283.841612 214.68198 
L 283.91134 213.240207 
L 284.120525 231.916037 
L 284.190253 231.526302 
L 284.259981 232.883591 
L 284.469166 219.980402 
L 284.538894 222.377396 
L 285.09672 171.759947 
L 286.421556 86.346315 
L 286.561012 83.691554 
L 286.839925 65.56271 
L 286.909653 69.464993 
L 286.979381 67.370784 
L 287.258294 62.37453 
L 287.328022 62.841965 
L 287.397751 60.94509 
L 287.467479 63.567785 
L 287.537207 62.499097 
L 287.606935 60.319787 
L 287.676664 60.93214 
L 287.746392 59.453367 
L 287.81612 60.864923 
L 288.025305 73.821762 
L 288.095033 71.090533 
L 288.513402 137.603251 
L 288.862043 216.258803 
L 288.931771 216.096619 
L 289.0015 223.41155 
L 289.071228 219.662201 
L 289.350141 187.529414 
L 289.559325 165.54207 
L 289.698782 166.168606 
L 289.76851 164.835367 
L 289.907966 159.941479 
L 289.977694 161.285819 
L 290.117151 158.079138 
L 290.186879 158.465173 
L 290.256607 157.768337 
L 290.674977 141.685602 
L 291.163074 87.883672 
L 291.232802 88.404757 
L 291.441987 61.74676 
L 291.511715 60.992574 
L 291.581443 57.622476 
L 291.999813 84.678225 
L 292.697095 183.152912 
L 292.976007 226.709498 
L 293.115464 216.087986 
L 293.464105 145.27215 
L 293.812746 72.003821 
L 293.882474 69.909612 
L 294.021931 62.999216 
L 294.091659 64.691356 
L 294.300843 92.14609 
L 294.928397 215.658167 
L 294.998126 213.160657 
L 295.137582 206.83178 
L 295.904592 63.617735 
L 295.974321 65.345026 
L 296.253233 152.744949 
L 296.39269 215.938135 
L 296.462418 211.493183 
L 296.671603 171.365895 
L 297.020244 69.584627 
L 297.1597 63.041766 
L 297.368885 86.110131 
L 297.508341 132.478729 
L 297.717526 212.855405 
L 297.787254 217.090073 
L 298.34508 56.800456 
L 298.554264 91.240203 
L 298.972634 212.514387 
L 299.042362 205.921576 
L 299.530459 64.323821 
L 299.600187 59.219033 
L 299.669916 63.063349 
L 299.8791 143.00219 
L 300.158013 217.091307 
L 300.29747 204.227585 
L 300.715839 87.091252 
L 300.855295 72.462006 
L 300.925023 74.298447 
L 301.06448 73.946946 
L 301.273664 123.804042 
L 301.692034 220.587205 
L 301.761762 224.979124 
L 301.970947 205.473257 
L 302.180131 173.674088 
L 302.249859 173.852922 
L 303.01687 112.483227 
L 303.086598 113.166496 
L 303.714152 66.744865 
L 303.78388 72.021087 
L 303.853608 65.754494 
L 303.923336 71.487052 
L 304.132521 64.720956 
L 304.271978 69.633961 
L 304.341706 68.562806 
L 304.481162 65.839594 
L 304.760075 77.474911 
L 305.666542 186.327525 
L 305.875726 212.243053 
L 305.945455 212.746255 
L 306.154639 217.13139 
L 306.433552 225.042641 
L 306.50328 221.143441 
L 306.573008 224.195954 
L 306.642737 219.352633 
L 306.712465 219.578951 
L 306.782193 218.275312 
L 306.851921 213.89881 
L 307.061106 194.638994 
L 307.130834 194.706828 
L 307.340019 182.565226 
L 308.595127 85.661812 
L 308.664855 87.107902 
L 308.874039 78.118713 
L 308.943768 76.331606 
L 309.013496 71.109034 
L 309.083224 74.85345 
L 309.22268 69.096842 
L 309.362137 71.377285 
L 309.501593 66.026445 
L 309.571321 66.489564 
L 309.64105 66.451947 
L 309.710778 65.626843 
L 309.780506 65.639794 
L 309.850234 65.439993 
L 309.989691 70.607681 
L 310.129147 68.289622 
L 310.198875 68.640506 
L 310.338332 65.581827 
L 310.40806 70.282697 
L 310.477788 66.149779 
L 310.547516 66.504364 
L 310.756701 70.406647 
L 310.965886 65.921611 
L 311.035614 72.170321 
L 311.105342 70.648382 
L 311.17507 70.20808 
L 311.244799 69.027775 
L 311.314527 69.232509 
L 311.453983 62.41153 
L 311.523711 62.311629 
L 311.59344 66.809615 
L 311.802624 62.783381 
L 311.942081 61.085691 
L 312.011809 66.126962 
L 312.081537 66.085645 
L 312.151265 66.854015 
L 312.220993 64.452705 
L 312.290722 66.054812 
L 312.36045 64.81839 
L 312.430178 68.076871 
L 312.499906 64.482922 
L 312.569634 68.353755 
L 312.639363 67.000166 
L 312.778819 64.321971 
L 312.848547 65.130425 
L 312.918276 62.589131 
L 313.12746 67.320834 
L 313.197188 65.403609 
L 313.266917 66.833049 
L 313.336645 63.213817 
L 313.406373 63.633152 
L 313.476101 64.677789 
L 313.545829 69.029625 
L 313.615558 65.510293 
L 313.755014 68.975974 
L 313.824742 68.63434 
L 313.89447 60.189054 
L 313.964199 68.052204 
L 314.033927 65.65891 
L 314.103655 65.223542 
L 314.173383 62.471963 
L 314.243112 62.683481 
L 314.31284 61.441509 
L 314.382568 62.781531 
L 314.452296 61.398342 
L 314.591753 65.567643 
L 314.661481 66.089345 
L 314.731209 65.70886 
L 314.870665 62.742064 
L 314.940394 65.348726 
L 315.010122 64.758573 
L 315.07985 64.769673 
L 315.149578 64.425572 
L 315.219306 67.645202 
L 315.289035 64.01672 
L 315.358763 66.554314 
L 315.428491 65.452326 
L 315.498219 63.134883 
L 315.777132 68.361155 
L 315.84686 66.235496 
L 315.916589 67.605119 
L 315.986317 63.780536 
L 316.056045 65.224775 
L 316.26523 61.079524 
L 316.474414 67.436151 
L 316.683599 62.57433 
L 316.753327 67.564418 
L 316.823055 64.618589 
L 316.892784 62.212962 
L 316.962512 63.620202 
L 317.101968 69.162209 
L 317.241425 68.121271 
L 317.311153 69.971279 
L 317.380881 65.262392 
L 317.450609 67.922703 
L 317.520337 68.852024 
L 317.590066 71.483968 
L 317.659794 68.690457 
L 317.729522 71.699803 
L 317.79925 70.214246 
L 317.868978 71.736803 
L 317.938707 69.534677 
L 318.008435 71.797236 
L 318.078163 70.571915 
L 318.147891 72.67969 
L 318.217619 69.326859 
L 318.287348 70.690315 
L 318.426804 73.919196 
L 318.705717 67.139533 
L 318.775445 68.149021 
L 318.845173 73.119375 
L 318.914902 68.613373 
L 318.98463 70.982 
L 319.402999 97.586347 
L 319.542455 96.594742 
L 319.612184 96.412208 
L 319.681912 97.723247 
L 319.75164 97.094244 
L 319.821368 98.184516 
L 320.030553 107.03927 
L 320.239738 111.236938 
L 320.379194 126.105452 
L 320.588379 169.668821 
L 320.797563 218.62743 
L 321.006748 109.38693 
L 321.076476 66.901499 
L 321.146204 68.543073 
L 321.215933 69.851645 
L 321.564574 220.199937 
L 321.634302 220.322037 
L 321.913215 159.517828 
L 321.982943 156.681766 
L 322.261856 111.298605 
L 322.540769 73.802645 
L 322.610497 71.396401 
L 322.749953 59.684618 
L 322.819681 58.866298 
L 322.88941 67.095133 
L 322.959138 63.978486 
L 323.028866 65.304942 
L 323.238051 83.49422 
L 323.586692 138.493721 
L 323.795876 170.342224 
L 324.074789 221.646643 
L 324.144517 220.808589 
L 324.214246 228.515106 
L 324.353702 210.391195 
L 324.42343 211.007864 
L 324.632615 166.909226 
L 324.911528 143.738494 
L 325.329897 82.006197 
L 325.539082 64.835657 
L 325.678538 67.490418 
L 325.748266 66.687515 
L 326.724461 219.106582 
L 326.933646 196.905871 
L 327.352015 107.324171 
L 327.630928 68.534439 
L 327.700656 62.203096 
L 327.770384 65.065058 
L 327.840112 66.318746 
L 328.188754 125.580049 
L 328.607123 208.673154 
L 328.746579 223.848769 
L 328.816307 219.183049 
L 329.374133 116.976896 
L 329.583318 94.160132 
L 329.862231 61.087541 
L 329.931959 59.256033 
L 330.001687 66.707248 
L 330.071415 65.502893 
L 330.141143 66.239813 
L 330.210872 65.624377 
L 330.350328 69.163442 
L 330.420056 76.649191 
L 330.489784 75.069284 
L 331.256795 125.166881 
L 331.81462 190.605977 
L 331.884349 192.479418 
L 332.023805 210.332611 
L 332.372446 226.650914 
L 332.442174 220.370137 
L 332.511903 227.1387 
L 332.581631 223.286367 
L 332.651359 221.277258 
L 332.721087 215.454666 
L 332.790815 219.120765 
L 332.860544 217.049373 
L 332.930272 215.357233 
L 333.976195 138.049719 
L 334.324836 79.109701 
L 334.534021 62.677931 
L 334.603749 66.505597 
L 334.673477 67.704402 
L 334.882662 63.367984 
L 335.022118 75.277101 
L 335.161575 74.99035 
L 335.231303 74.531548 
L 335.928585 130.551637 
L 335.998313 128.126894 
L 336.416682 202.465761 
L 336.556139 215.073565 
L 336.765323 228.990558 
L 337.183693 181.932523 
L 337.253421 181.16847 
L 337.462605 163.500895 
L 337.532334 164.343265 
L 338.159888 122.002134 
L 338.229616 122.752621 
L 338.299344 117.510932 
L 338.369072 117.626865 
L 338.578257 116.339877 
L 338.647985 117.228497 
L 338.85717 103.350355 
L 338.926898 105.757215 
L 338.996626 101.658831 
L 339.066354 102.515384 
L 339.205811 103.338638 
L 339.275539 98.807352 
L 339.345267 103.104303 
L 339.554452 96.700193 
L 339.62418 96.783443 
L 339.833365 88.503424 
L 339.903093 87.530937 
L 339.972821 83.067485 
L 340.042549 89.474679 
L 340.112277 87.256519 
L 340.182006 88.286974 
L 340.39119 79.677653 
L 340.460918 82.999651 
L 340.80956 59.336817 
L 341.018744 70.362864 
L 341.088472 70.410347 
L 341.994939 219.783685 
L 342.064667 220.458938 
L 342.134396 233.051942 
L 342.901406 156.328414 
L 343.11059 150.377555 
L 343.389503 132.261661 
L 343.738144 116.708028 
L 343.807873 119.634124 
L 344.156514 99.359271 
L 344.226242 99.184137 
L 344.505155 85.575479 
L 344.574883 84.137406 
L 344.644611 87.855922 
L 344.784067 76.874891 
L 344.853796 77.324443 
L 344.923524 77.193093 
L 344.993252 77.418794 
L 345.06298 75.983804 
L 345.132709 71.474102 
L 345.202437 72.613707 
L 345.272165 74.12208 
L 345.551078 66.538281 
L 345.620806 68.063921 
L 345.760262 61.211491 
L 345.829991 62.105045 
L 345.899719 66.894716 
L 345.969447 61.744294 
L 346.039175 62.750698 
L 346.178632 61.522909 
L 346.24836 62.173495 
L 346.457545 66.792965 
L 346.736457 115.211989 
L 347.085098 187.216763 
L 347.294283 211.102215 
L 347.364011 211.416099 
L 347.573196 229.166925 
L 347.642924 226.952466 
L 347.712652 230.755465 
L 347.782381 230.661115 
L 347.921837 223.589151 
L 348.20075 229.849578 
L 348.340206 229.118208 
L 348.409934 232.448839 
L 348.549391 228.548406 
L 348.619119 229.737961 
L 348.758575 225.128974 
L 348.828304 226.143395 
L 348.898032 224.731839 
L 348.96776 225.306575 
L 349.037488 225.663627 
L 349.107216 227.025233 
L 349.176945 224.87429 
L 349.246673 226.53683 
L 349.316401 221.410459 
L 349.386129 222.227545 
L 349.665042 227.322467 
L 349.73477 225.482943 
L 349.804499 227.656085 
L 349.874227 225.771544 
L 349.943955 227.812103 
L 350.013683 225.630943 
L 350.083411 226.666331 
L 350.15314 225.796827 
L 350.222868 227.2793 
L 350.710965 214.890414 
L 350.780694 217.17024 
L 350.92015 211.383416 
L 350.989878 211.110231 
L 351.059606 214.849714 
L 351.268791 193.968675 
L 351.338519 192.908004 
L 351.68716 153.453502 
L 351.826617 151.586227 
L 352.10553 117.18718 
L 352.175258 115.103455 
L 352.454171 87.147369 
L 352.523899 86.123081 
L 352.593627 86.224831 
L 352.802812 77.013642 
L 352.87254 77.24551 
L 353.081724 70.887033 
L 353.151453 70.923416 
L 353.221181 67.532352 
L 353.290909 70.648998 
L 353.360637 67.067383 
L 353.430366 68.712657 
L 353.500094 67.502135 
L 353.569822 69.418126 
L 353.63955 68.262488 
L 353.709278 71.562902 
L 353.848735 67.169133 
L 353.918463 67.09945 
L 353.988191 65.219842 
L 354.057919 65.265475 
L 354.127648 67.531735 
L 354.336832 61.537709 
L 354.476289 66.574048 
L 354.615745 60.706439 
L 354.685473 60.851973 
L 354.894658 57.562659 
L 354.964386 66.469214 
L 355.034114 64.494022 
L 355.103843 67.131517 
L 355.173571 61.228758 
L 355.243299 64.357121 
L 355.382755 63.507968 
L 355.59194 65.480076 
L 355.731396 63.116999 
L 355.801125 63.718869 
L 355.870853 64.89239 
L 356.149766 60.546722 
L 356.219494 67.475618 
L 356.289222 65.227242 
L 356.498407 69.56921 
L 356.568135 67.97882 
L 356.637863 68.535673 
L 356.77732 76.401289 
L 357.614058 127.606425 
L 357.683786 126.418103 
L 357.753515 132.590963 
L 357.823243 130.457287 
L 358.241612 145.608235 
L 358.520525 156.007746 
L 358.729709 179.570063 
L 358.799438 182.331508 
L 359.008622 201.307039 
L 359.426992 230.214646 
L 359.566448 225.429909 
L 359.636176 224.931024 
L 359.705904 226.724915 
L 359.775633 223.377634 
L 359.915089 227.120816 
L 359.984817 226.847015 
L 360.124274 232.125704 
L 360.333458 223.281433 
L 360.403187 223.018732 
L 360.472915 220.768506 
L 360.542643 223.133433 
L 360.612371 220.994823 
L 360.682099 222.503197 
L 360.751828 218.961665 
L 360.821556 220.92699 
L 361.03074 218.188361 
L 361.100469 223.173516 
L 361.170197 222.743081 
L 361.309653 217.945394 
L 361.379381 219.5105 
L 361.44911 218.964748 
L 361.518838 223.077932 
L 361.797751 217.01299 
L 361.867479 216.332187 
L 361.937207 218.434413 
L 362.006935 217.828227 
L 362.146392 216.549254 
L 362.285848 225.907828 
L 362.355576 222.249745 
L 362.425305 219.970536 
L 362.634489 231.338218 
L 362.704217 233.857312 
L 363.052858 202.800612 
L 363.4015 133.122532 
L 363.540956 129.696317 
L 363.610684 134.995356 
L 363.819869 116.26711 
L 363.889597 118.663487 
L 364.029053 108.239309 
L 364.098782 108.296659 
L 364.16851 108.854128 
L 364.377694 101.206812 
L 364.447423 105.033862 
L 364.656607 99.110136 
L 364.726336 101.230862 
L 364.796064 97.260129 
L 364.865792 97.738664 
L 364.93552 97.426013 
L 365.214433 90.5224 
L 365.284161 88.19879 
L 365.353889 89.290911 
L 365.423618 89.242194 
L 365.493346 88.978877 
L 365.563074 91.885239 
L 365.841987 86.229765 
L 365.911715 84.038739 
L 365.981443 84.705358 
L 366.051172 85.814746 
L 366.1209 89.388345 
L 366.190628 85.637762 
L 366.260356 86.5899 
L 366.330084 85.97693 
L 366.469541 78.660766 
L 366.539269 82.165297 
L 366.608997 80.419507 
L 366.678725 81.646679 
L 366.818182 78.219847 
L 366.957638 80.102539 
L 367.027366 77.360827 
L 367.097095 79.259552 
L 367.166823 76.283506 
L 367.376007 82.978068 
L 367.445736 82.968201 
L 367.515464 75.050167 
L 367.585192 78.764983 
L 367.794377 82.408882 
L 367.864105 79.56542 
L 367.933833 82.789367 
L 368.143018 77.888696 
L 368.212746 77.841829 
L 368.282474 76.165722 
L 368.561387 80.141389 
L 368.631115 77.34911 
L 368.700843 79.320602 
L 368.770572 77.28436 
L 368.8403 78.753883 
L 368.910028 78.16928 
L 368.979756 76.853308 
L 369.049485 80.553324 
L 369.119213 80.293706 
L 369.188941 81.12991 
L 369.258669 79.033851 
L 369.328397 81.252627 
L 369.398126 77.340477 
L 369.467854 78.155714 
L 369.537582 77.835046 
L 369.60731 80.367706 
L 369.677038 78.605882 
L 369.746767 80.386206 
L 369.886223 76.766974 
L 370.095408 80.799375 
L 370.165136 79.337252 
L 370.234864 79.497586 
L 370.374321 85.799946 
L 370.583505 83.126685 
L 370.653233 80.39114 
L 370.722962 82.072797 
L 370.79269 79.517936 
L 371.001874 87.127019 
L 371.071603 84.950793 
L 371.141331 86.848901 
L 371.350515 83.156285 
L 371.420244 84.35324 
L 371.5597 82.091297 
L 371.629428 82.270131 
L 371.699157 88.622442 
L 371.768885 85.349161 
L 371.838613 86.124931 
L 371.978069 83.742737 
L 372.047798 87.337303 
L 372.117526 84.995193 
L 372.187254 85.03466 
L 372.256982 88.201257 
L 372.32671 84.474107 
L 372.396439 85.90478 
L 372.535895 87.110985 
L 372.605623 82.516182 
L 372.675351 82.523582 
L 372.884536 78.478848 
L 372.954264 78.613899 
L 373.023993 77.25846 
L 373.233177 83.222885 
L 373.302905 80.100072 
L 373.372634 82.644449 
L 373.442362 81.587478 
L 373.581818 80.747575 
L 373.581818 80.747575 
" style="fill:none;stroke:#1f77b4;stroke-linecap:square;stroke-width:1.5;"/>
   </g>
   <g id="patch_3">
    <path d="M 54 252 
L 54 34.56 
" style="fill:none;stroke:#000000;stroke-linecap:square;stroke-linejoin:miter;stroke-width:0.8;"/>
   </g>
   <g id="patch_4">
    <path d="M 388.8 252 
L 388.8 34.56 
" style="fill:none;stroke:#000000;stroke-linecap:square;stroke-linejoin:miter;stroke-width:0.8;"/>
   </g>
   <g id="patch_5">
    <path d="M 54 252 
L 388.8 252 
" style="fill:none;stroke:#000000;stroke-linecap:square;stroke-linejoin:miter;stroke-width:0.8;"/>
   </g>
   <g id="patch_6">
    <path d="M 54 34.56 
L 388.8 34.56 
" style="fill:none;stroke:#000000;stroke-linecap:square;stroke-linejoin:miter;stroke-width:0.8;"/>
   </g>
  </g>
 </g>
 <defs>
  <clipPath id="p00528c2112">
   <rect height="217.44" width="334.8" x="54" y="34.56"/>
  </clipPath>
 </defs>
</svg>
