<?xml version="1.0" encoding="UTF-8" standalone="no"?>
<!-- Created with Inkscape (http://www.inkscape.org/) -->
<svg
   xmlns:svg="http://www.w3.org/2000/svg"
   xmlns="http://www.w3.org/2000/svg"
   version="1.0"
   width="305.14999"
   height="273.59"
   id="svg2234">
  <defs
     id="defs2236">
    <marker
       refX="0"
       refY="0"
       orient="auto"
       style="overflow:visible"
       id="Arrow2Mend">
      <path
         d="M 8.7185878,4.0337352 L -2.2072895,0.016013256 L 8.7185884,-4.0017078 C 6.97309,-1.6296469 6.9831476,1.6157441 8.7185878,4.0337352 z "
         transform="scale(-0.6,-0.6)"
         style="font-size:12px;fill-rule:evenodd;stroke-width:0.625;stroke-linejoin:round"
         id="path3443" />
    </marker>
  </defs>
  <g
     transform="translate(-228.80135,-371.81218)"
     id="layer1">
    <path
       d="M 298.27985,538.30669 L 311.42831,543.02499 L 298.35546,547.94892 C 300.42767,545.08611 300.38507,541.19186 298.27985,538.30669 z "
       style="font-size:12px;fill:#ff0000;fill-rule:evenodd;stroke-width:0.625;stroke-linejoin:round"
       id="path3485" />
    <path
       d="M 340.40867,542.74428 L 529.32284,539.95846 L 350.94483,531.89503"
       style="fill:none;fill-rule:evenodd;stroke:#ff8080;stroke-width:2;stroke-linecap:butt;stroke-linejoin:miter;stroke-miterlimit:4;stroke-dasharray:none;stroke-opacity:1"
       id="path3277" />
    <path
       d="M 340.00067,542.36463 L 342.334,376.0313 L 351.334,532.0313"
       style="fill:none;fill-rule:evenodd;stroke:#ff8080;stroke-width:2;stroke-linecap:butt;stroke-linejoin:miter;stroke-miterlimit:4;stroke-dasharray:none;stroke-opacity:1"
       id="path3489" />
    <path
       d="M 340.43817,541.7937 L 274.65692,542.32495 L 274.65692,544.32495 L 340.46942,543.7937 L 340.43817,541.7937 z "
       style="fill:#ff0000;fill-opacity:1;fill-rule:evenodd;stroke:none;stroke-width:2;stroke-linecap:butt;stroke-linejoin:miter;stroke-miterlimit:4;stroke-dasharray:none;stroke-opacity:1"
       id="path3274" />
    <path
       d="M 351.35706,532.15886 L 355.78111,608.84241"
       style="fill:none;fill-rule:evenodd;stroke:#ff0000;stroke-width:2;stroke-linecap:butt;stroke-linejoin:miter;stroke-miterlimit:4;stroke-dasharray:none;stroke-opacity:1"
       id="path3491" />
    <path
       d="M 242.05585,514.10768 L 242.98706,514.22869 C 242.88534,514.87054 242.62492,515.37297 242.20579,515.73598 C 241.78665,516.09899 241.27195,516.2805 240.66167,516.2805 C 239.89706,516.2805 239.28239,516.0306 238.81766,515.5308 C 238.35294,515.031 238.12057,514.31462 238.12057,513.38165 C 238.12057,512.77839 238.22053,512.25053 238.42045,511.79807 C 238.62037,511.34563 238.92464,511.00629 239.33325,510.78006 C 239.74186,510.55384 240.18642,510.44072 240.66693,510.44072 C 241.2737,510.44072 241.76999,510.59417 242.15581,510.90106 C 242.54162,511.20796 242.78889,511.64375 242.89762,512.20844 L 241.97693,512.35049 C 241.88925,511.9752 241.73404,511.69286 241.51133,511.50345 C 241.28861,511.31406 241.01942,511.21936 240.70376,511.21936 C 240.22675,511.21936 239.83919,511.39035 239.54106,511.73231 C 239.24293,512.07428 239.09387,512.6153 239.09387,513.35535 C 239.09387,514.10593 239.23767,514.65133 239.52528,514.99154 C 239.81288,515.33176 240.18817,515.50186 240.65115,515.50186 C 241.02292,515.50186 241.33333,515.38787 241.58235,515.15989 C 241.83137,514.93192 241.98921,514.58118 242.05585,514.10768 L 242.05585,514.10768 z M 243.44477,513.36061 C 243.44477,512.32594 243.73238,511.55958 244.30759,511.06152 C 244.78809,510.64766 245.37383,510.44072 246.06478,510.44072 C 246.83289,510.44072 247.46071,510.69238 247.94824,511.19568 C 248.43576,511.69899 248.67953,512.39433 248.67953,513.28169 C 248.67953,514.00071 248.57167,514.56627 248.35598,514.97839 C 248.14027,515.39051 247.82636,515.71055 247.41425,515.93853 C 247.00212,516.16651 246.5523,516.2805 246.06478,516.2805 C 245.28263,516.2805 244.65043,516.02972 244.16817,515.52817 C 243.6859,515.02662 243.44477,514.3041 243.44477,513.36061 L 243.44477,513.36061 z M 244.41807,513.36061 C 244.41807,514.07612 244.57415,514.61187 244.8863,514.96787 C 245.19846,515.32387 245.59128,515.50186 246.06478,515.50186 C 246.53477,515.50186 246.92584,515.32299 247.238,514.96524 C 247.55015,514.60748 247.70623,514.06209 247.70623,513.32904 C 247.70623,512.63809 247.54927,512.11462 247.23537,511.75862 C 246.92145,511.40262 246.53126,511.22462 246.06478,511.22462 C 245.59128,511.22462 245.19846,511.40174 244.8863,511.75599 C 244.57415,512.11023 244.41807,512.64511 244.41807,513.36061 L 244.41807,513.36061 z M 249.79488,516.15424 L 249.79488,508.44151 L 250.74187,508.44151 L 250.74187,511.20883 C 251.1838,510.69676 251.74147,510.44072 252.41489,510.44072 C 252.82875,510.44072 253.18826,510.52227 253.49341,510.68536 C 253.79854,510.84846 254.01688,511.07381 254.14841,511.36141 C 254.27993,511.64901 254.34569,512.06639 254.3457,512.61354 L 254.3457,516.15424 L 253.39871,516.15424 L 253.39871,512.61354 C 253.3987,512.14005 253.29611,511.79545 253.09093,511.57974 C 252.88575,511.36404 252.59551,511.25619 252.22023,511.25618 C 251.93963,511.25619 251.6757,511.32897 251.42844,511.47452 C 251.18117,511.62008 251.00492,511.81737 250.8997,512.06639 C 250.79448,512.31542 250.74187,512.65914 250.74187,513.09756 L 250.74187,516.15424 L 249.79488,516.15424 z M 259.61729,514.35495 L 260.59584,514.47596 C 260.44152,515.04766 260.15566,515.49134 259.73829,515.80701 C 259.32091,516.12267 258.78779,516.2805 258.13893,516.2805 C 257.32171,516.2805 256.67372,516.02885 256.19496,515.52554 C 255.71621,515.02223 255.47683,514.31637 255.47683,513.40796 C 255.47683,512.46799 255.71884,511.73845 256.20286,511.21936 C 256.68687,510.70027 257.31469,510.44072 258.08632,510.44072 C 258.83338,510.44072 259.44367,510.69501 259.91717,511.20357 C 260.39066,511.71215 260.62741,512.42765 260.62741,513.35009 C 260.62741,513.40621 260.62565,513.49039 260.62215,513.60262 L 256.45539,513.60262 C 256.49046,514.21641 256.66407,514.6864 256.97623,515.01258 C 257.28839,515.33877 257.6777,515.50186 258.14419,515.50186 C 258.49142,515.50186 258.78779,515.41067 259.03331,515.22829 C 259.27882,515.04591 259.47348,514.75479 259.61729,514.35495 L 259.61729,514.35495 z M 256.508,512.82398 L 259.62781,512.82398 C 259.58572,512.354 259.46647,512.00151 259.27006,511.76651 C 258.96842,511.40174 258.57735,511.21936 258.09684,511.21936 C 257.66192,511.21936 257.29628,511.36492 256.99991,511.65602 C 256.70353,511.94714 256.53956,512.33646 256.508,512.82398 L 256.508,512.82398 z M 261.77958,516.15424 L 261.77958,510.56698 L 262.63188,510.56698 L 262.63188,511.41402 C 262.84933,511.01769 263.05013,510.75639 263.23427,510.63012 C 263.4184,510.50386 263.62095,510.44072 263.84192,510.44072 C 264.16109,510.44072 264.48552,510.54244 264.81522,510.74586 L 264.48903,511.62446 C 264.25754,511.48768 264.02606,511.41928 263.79457,511.41928 C 263.58763,511.41928 263.40174,511.48154 263.2369,511.60604 C 263.07205,511.73056 262.95455,511.9033 262.88441,512.12426 C 262.77918,512.46097 262.72657,512.82925 262.72658,513.22908 L 262.72658,516.15424 L 261.77958,516.15424 z M 269.21347,514.35495 L 270.19203,514.47596 C 270.0377,515.04766 269.75185,515.49134 269.33447,515.80701 C 268.91709,516.12267 268.38397,516.2805 267.73511,516.2805 C 266.91789,516.2805 266.2699,516.02885 265.79115,515.52554 C 265.31239,515.02223 265.07301,514.31637 265.07301,513.40796 C 265.07301,512.46799 265.31502,511.73845 265.79904,511.21936 C 266.28305,510.70027 266.91087,510.44072 267.6825,510.44072 C 268.42957,510.44072 269.03985,510.69501 269.51335,511.20357 C 269.98684,511.71215 270.22359,512.42765 270.22359,513.35009 C 270.22359,513.40621 270.22183,513.49039 270.21833,513.60262 L 266.05157,513.60262 C 266.08664,514.21641 266.26026,514.6864 266.57241,515.01258 C 266.88457,515.33877 267.27389,515.50186 267.74037,515.50186 C 268.0876,515.50186 268.38397,515.41067 268.62949,515.22829 C 268.875,515.04591 269.06966,514.75479 269.21347,514.35495 L 269.21347,514.35495 z M 266.10418,512.82398 L 269.22399,512.82398 C 269.1819,512.354 269.06265,512.00151 268.86624,511.76651 C 268.5646,511.40174 268.17353,511.21936 267.69302,511.21936 C 267.2581,511.21936 266.89246,511.36492 266.59609,511.65602 C 266.29971,511.94714 266.13574,512.33646 266.10418,512.82398 L 266.10418,512.82398 z M 271.38629,516.15424 L 271.38629,510.56698 L 272.23858,510.56698 L 272.23858,511.36141 C 272.64894,510.74762 273.24169,510.44072 274.01682,510.44072 C 274.35353,510.44072 274.66305,510.50123 274.9454,510.62223 C 275.22774,510.74324 275.43906,510.90194 275.57936,511.09835 C 275.71965,511.29477 275.81785,511.52801 275.87398,511.79807 C 275.90905,511.97345 275.92658,512.28034 275.92659,512.71876 L 275.92659,516.15424 L 274.9796,516.15424 L 274.9796,512.75559 C 274.97959,512.36978 274.94276,512.0813 274.86911,511.89014 C 274.79545,511.69899 274.6648,511.54642 274.47716,511.43243 C 274.28952,511.31844 274.06943,511.26145 273.8169,511.26144 C 273.41355,511.26145 273.06544,511.38947 272.77258,511.6455 C 272.47971,511.90155 272.33328,512.38732 272.33328,513.10282 L 272.33328,516.15424 L 271.38629,516.15424 z M 279.4515,515.3072 L 279.58829,516.14371 C 279.32173,516.19983 279.08323,516.22789 278.87279,516.22789 C 278.52906,516.22789 278.2625,516.17353 278.0731,516.0648 C 277.8837,515.95607 277.75042,515.81314 277.67326,515.63602 C 277.5961,515.4589 277.55752,515.08624 277.55752,514.51804 L 277.55752,511.30353 L 276.86306,511.30353 L 276.86306,510.56698 L 277.55752,510.56698 L 277.55752,509.18332 L 278.49925,508.61513 L 278.49925,510.56698 L 279.4515,510.56698 L 279.4515,511.30353 L 278.49925,511.30353 L 278.49925,514.57066 C 278.49925,514.84072 278.51591,515.01434 278.54923,515.0915 C 278.58255,515.16866 278.63691,515.23004 278.71232,515.27564 C 278.78773,515.32123 278.89558,515.34403 279.03588,515.34403 C 279.1411,515.34403 279.27964,515.33176 279.4515,515.3072 L 279.4515,515.3072 z M 231.80203,529.62256 L 231.80203,521.90984 L 232.74903,521.90984 L 232.74903,529.62256 L 231.80203,529.62256 z M 234.22738,522.99888 L 234.22738,521.90984 L 235.17438,521.90984 L 235.17438,522.99888 L 234.22738,522.99888 z M 234.22738,529.62256 L 234.22738,524.03531 L 235.17438,524.03531 L 235.17438,529.62256 L 234.22738,529.62256 z M 236.44755,530.08554 L 237.36824,530.22232 C 237.40682,530.50642 237.5138,530.71336 237.68917,530.84313 C 237.92416,531.0185 238.24508,531.10618 238.65194,531.10618 C 239.09036,531.10618 239.42882,531.0185 239.66733,530.84313 C 239.90582,530.66776 240.06716,530.42224 240.15134,530.10658 C 240.20044,529.91368 240.22324,529.50857 240.21974,528.89128 C 239.80586,529.3788 239.29028,529.62256 238.67298,529.62256 C 237.90487,529.62256 237.31037,529.34548 236.88948,528.79132 C 236.4686,528.23715 236.25816,527.5725 236.25816,526.79737 C 236.25816,526.26425 236.35461,525.77234 236.54751,525.32164 C 236.74042,524.87095 237.02013,524.52284 237.38665,524.27732 C 237.75317,524.03181 238.1837,523.90905 238.67825,523.90905 C 239.33763,523.90905 239.88127,524.17561 240.30918,524.70873 L 240.30918,524.03531 L 241.18251,524.03531 L 241.18251,528.86497 C 241.18251,529.7348 241.09395,530.35122 240.91683,530.71423 C 240.7397,531.07725 240.45911,531.36397 240.07506,531.57442 C 239.691,531.78486 239.21838,531.89008 238.6572,531.89008 C 237.9908,531.89008 237.45242,531.74014 237.04205,531.44026 C 236.63169,531.14038 236.43352,530.6888 236.44755,530.08554 L 236.44755,530.08554 z M 237.23145,526.72898 C 237.23145,527.46202 237.37701,527.9969 237.66812,528.3336 C 237.95923,528.67031 238.324,528.83867 238.76242,528.83866 C 239.19733,528.83867 239.5621,528.67119 239.85672,528.33623 C 240.15134,528.00128 240.29865,527.47605 240.29865,526.76054 C 240.29865,526.07661 240.14696,525.56102 239.84357,525.21379 C 239.54018,524.86656 239.17454,524.69295 238.74664,524.69295 C 238.32575,524.69295 237.968,524.86393 237.67338,525.2059 C 237.37876,525.54787 237.23145,526.05556 237.23145,526.72898 L 237.23145,526.72898 z M 242.61878,529.62256 L 242.61878,521.90984 L 243.56578,521.90984 L 243.56578,524.67716 C 244.0077,524.16509 244.56537,523.90905 245.23879,523.90905 C 245.65266,523.90905 246.01217,523.9906 246.31731,524.15369 C 246.62245,524.31678 246.84078,524.54213 246.97232,524.82973 C 247.10384,525.11734 247.1696,525.53472 247.1696,526.08187 L 247.1696,529.62256 L 246.22261,529.62256 L 246.22261,526.08187 C 246.22261,525.60837 246.12002,525.26378 245.91484,525.04807 C 245.70966,524.83237 245.41942,524.72452 245.04413,524.72451 C 244.76354,524.72452 244.49961,524.79729 244.25234,524.94285 C 244.00507,525.08841 243.82883,525.2857 243.72361,525.53472 C 243.61838,525.78374 243.56577,526.12747 243.56578,526.56588 L 243.56578,529.62256 L 242.61878,529.62256 z M 250.684,528.77553 L 250.82078,529.61204 C 250.55422,529.66816 250.31572,529.69622 250.10528,529.69622 C 249.76155,529.69622 249.49499,529.64185 249.3056,529.53313 C 249.1162,529.4244 248.98292,529.28147 248.90576,529.10435 C 248.82859,528.92723 248.79001,528.55457 248.79001,527.98637 L 248.79001,524.77186 L 248.09555,524.77186 L 248.09555,524.03531 L 248.79001,524.03531 L 248.79001,522.65165 L 249.73174,522.08346 L 249.73174,524.03531 L 250.684,524.03531 L 250.684,524.77186 L 249.73174,524.77186 L 249.73174,528.03898 C 249.73174,528.30905 249.7484,528.48267 249.78172,528.55983 C 249.81504,528.63699 249.86941,528.69837 249.94482,528.74397 C 250.02022,528.78956 250.12807,528.81236 250.26837,528.81236 C 250.37359,528.81236 250.51213,528.80008 250.684,528.77553 L 250.684,528.77553 z M 254.21417,527.95481 L 255.15064,527.8075 C 255.20325,528.18279 255.34968,528.47039 255.58994,528.67031 C 255.83019,528.87023 256.16602,528.97019 256.59743,528.97019 C 257.03234,528.97019 257.35502,528.88163 257.56547,528.70451 C 257.77591,528.52739 257.88113,528.31957 257.88113,528.08107 C 257.88113,527.86712 257.78818,527.69877 257.6023,527.57601 C 257.47252,527.49183 257.14984,527.38486 256.63426,527.25508 C 255.9398,527.07972 255.45841,526.92802 255.1901,526.8 C 254.92178,526.67199 254.71836,526.49486 254.57981,526.26863 C 254.44127,526.04241 254.372,525.79251 254.372,525.51893 C 254.372,525.26991 254.429,525.0393 254.54299,524.8271 C 254.65698,524.61491 254.81218,524.43867 255.00859,524.29837 C 255.1559,524.18964 255.3567,524.09757 255.61098,524.02216 C 255.86527,523.94676 256.13796,523.90905 256.42908,523.90905 C 256.8675,523.90905 257.25243,523.97218 257.58388,524.09844 C 257.91533,524.22472 258.15997,524.3957 258.3178,524.6114 C 258.47563,524.82711 258.58436,525.11559 258.64399,525.47684 L 257.71804,525.60311 C 257.67595,525.31551 257.55407,525.09104 257.3524,524.92969 C 257.15072,524.76836 256.86574,524.68769 256.49747,524.68768 C 256.06256,524.68769 255.75215,524.75959 255.56626,524.90339 C 255.38037,525.04719 255.28743,525.21555 255.28743,525.40845 C 255.28743,525.53121 255.32601,525.64169 255.40317,525.7399 C 255.48033,525.84161 255.60134,525.92579 255.76619,525.99243 C 255.86088,526.02751 256.13972,526.10818 256.60269,526.23444 C 257.2726,526.41332 257.73996,526.55975 258.00477,526.67374 C 258.26957,526.78773 258.47738,526.95345 258.6282,527.17091 C 258.77902,527.38837 258.85443,527.65843 258.85443,527.98111 C 258.85443,528.29678 258.76236,528.59403 258.57822,528.87286 C 258.39408,529.1517 258.1284,529.3674 257.78117,529.51997 C 257.43394,529.67254 257.04111,529.74883 256.60269,529.74883 C 255.87667,529.74883 255.32338,529.59801 254.94283,529.29638 C 254.56228,528.99474 254.31939,528.54755 254.21417,527.95481 L 254.21417,527.95481 z M 259.62781,526.82894 C 259.62781,525.79427 259.91541,525.0279 260.49062,524.52985 C 260.97113,524.11599 261.55686,523.90905 262.24782,523.90905 C 263.01593,523.90905 263.64375,524.16071 264.13128,524.66401 C 264.6188,525.16732 264.86256,525.86266 264.86257,526.75002 C 264.86256,527.46904 264.75471,528.0346 264.53901,528.44672 C 264.3233,528.85883 264.00939,529.17888 263.59728,529.40686 C 263.18516,529.63484 262.73534,529.74883 262.24782,529.74883 C 261.46567,529.74883 260.83347,529.49805 260.35121,528.9965 C 259.86894,528.49494 259.62781,527.77242 259.62781,526.82894 L 259.62781,526.82894 z M 260.60111,526.82894 C 260.6011,527.54444 260.75718,528.0802 261.06934,528.43619 C 261.3815,528.79219 261.77432,528.97019 262.24782,528.97019 C 262.7178,528.97019 263.10888,528.79132 263.42104,528.43356 C 263.73319,528.07581 263.88927,527.53042 263.88927,526.79737 C 263.88927,526.10642 263.73231,525.58295 263.41841,525.22694 C 263.10449,524.87095 262.7143,524.69295 262.24782,524.69295 C 261.77432,524.69295 261.3815,524.87007 261.06934,525.22431 C 260.75718,525.57856 260.6011,526.11344 260.60111,526.82894 L 260.60111,526.82894 z M 269.63961,529.62256 L 269.63961,528.80184 C 269.2047,529.43317 268.6137,529.74883 267.86663,529.74883 C 267.53694,529.74883 267.22917,529.6857 266.94332,529.55943 C 266.65747,529.43317 266.44527,529.27446 266.30673,529.0833 C 266.16819,528.89215 266.07086,528.65804 266.01474,528.38095 C 265.97616,528.19506 265.95687,527.90044 265.95687,527.49709 L 265.95687,524.03531 L 266.90386,524.03531 L 266.90386,527.13408 C 266.90386,527.62862 266.92315,527.96182 266.96173,528.13368 C 267.02136,528.38271 267.14762,528.57824 267.34053,528.72029 C 267.53343,528.86234 267.77193,528.93336 268.05603,528.93336 C 268.34013,528.93336 268.60669,528.86059 268.85572,528.71503 C 269.10474,528.56947 269.28098,528.37131 269.38445,528.12053 C 269.48792,527.86975 269.53965,527.50586 269.53965,527.02886 L 269.53965,524.03531 L 270.48665,524.03531 L 270.48665,529.62256 L 269.63961,529.62256 z M 271.96501,529.62256 L 271.96501,524.03531 L 272.8173,524.03531 L 272.8173,524.88234 C 273.03475,524.48601 273.23555,524.22472 273.41969,524.09844 C 273.60383,523.97218 273.80638,523.90905 274.02734,523.90905 C 274.34651,523.90905 274.67094,524.01077 275.00064,524.21419 L 274.67445,525.09279 C 274.44296,524.956 274.21148,524.88761 273.97999,524.8876 C 273.77306,524.88761 273.58717,524.94987 273.42232,525.07437 C 273.25747,525.19889 273.13998,525.37163 273.06983,525.59259 C 272.96461,525.9293 272.912,526.29757 272.912,526.69741 L 272.912,529.62256 L 271.96501,529.62256 z M 279.22001,527.57601 L 280.15122,527.69701 C 280.0495,528.33886 279.78908,528.8413 279.36995,529.20431 C 278.95082,529.56732 278.43611,529.74883 277.82583,529.74883 C 277.06122,529.74883 276.44655,529.49893 275.98183,528.99913 C 275.5171,528.49933 275.28474,527.78295 275.28474,526.84998 C 275.28474,526.24672 275.3847,525.71886 275.58462,525.2664 C 275.78454,524.81395 276.0888,524.47462 276.49741,524.24839 C 276.90602,524.02216 277.35058,523.90905 277.83109,523.90905 C 278.43787,523.90905 278.93416,524.0625 279.31997,524.36939 C 279.70578,524.67629 279.95305,525.11208 280.06178,525.67676 L 279.1411,525.81881 C 279.05341,525.44353 278.89821,525.16118 278.67549,524.97178 C 278.45277,524.78239 278.18358,524.68769 277.86792,524.68768 C 277.39091,524.68769 277.00335,524.85867 276.70523,525.20064 C 276.4071,525.54261 276.25803,526.08362 276.25803,526.82368 C 276.25803,527.57426 276.40184,528.11965 276.68944,528.45987 C 276.97704,528.80008 277.35233,528.97019 277.81531,528.97019 C 278.18709,528.97019 278.49749,528.8562 278.74652,528.62822 C 278.99554,528.40024 279.15337,528.04951 279.22001,527.57601 L 279.22001,527.57601 z M 284.78622,527.82328 L 285.76478,527.94428 C 285.61045,528.51599 285.3246,528.95967 284.90723,529.27533 C 284.48985,529.591 283.95673,529.74883 283.30786,529.74883 C 282.49064,529.74883 281.84266,529.49717 281.3639,528.99387 C 280.88514,528.49056 280.64576,527.7847 280.64577,526.87629 C 280.64576,525.93631 280.88777,525.20678 281.37179,524.68768 C 281.85581,524.1686 282.48363,523.90905 283.25525,523.90905 C 284.00232,523.90905 284.6126,524.16334 285.0861,524.6719 C 285.55959,525.18047 285.79634,525.89598 285.79635,526.81842 C 285.79634,526.87454 285.79459,526.95871 285.79109,527.07095 L 281.62432,527.07095 C 281.6594,527.68474 281.83301,528.15473 282.14517,528.48091 C 282.45732,528.8071 282.84664,528.97019 283.31313,528.97019 C 283.66035,528.97019 283.95673,528.879 284.20225,528.69662 C 284.44776,528.51423 284.64242,528.22312 284.78622,527.82328 L 284.78622,527.82328 z M 281.67693,526.29231 L 284.79675,526.29231 C 284.75465,525.82232 284.6354,525.46983 284.43899,525.23483 C 284.13735,524.87007 283.74628,524.68769 283.26578,524.68768 C 282.83086,524.68769 282.46521,524.83324 282.16884,525.12435 C 281.87247,525.41547 281.7085,525.80479 281.67693,526.29231 L 281.67693,526.29231 z "
       style="font-size:10.77466202px;font-style:normal;font-weight:normal;text-align:center;text-anchor:middle;fill:#000000;fill-opacity:1;stroke:none;stroke-width:1px;stroke-linecap:butt;stroke-linejoin:miter;stroke-opacity:1;font-family:Bitstream Vera Sans"
       id="text3493" />
    <path
       d="M 360.05325,504.95306 L 360.05325,497.24034 L 361.00024,497.24034 L 361.00024,500.00766 C 361.44216,499.49559 361.99984,499.23955 362.67326,499.23955 C 363.08712,499.23955 363.44663,499.3211 363.75177,499.48419 C 364.05691,499.64728 364.27525,499.87263 364.40678,500.16023 C 364.5383,500.44784 364.60406,500.86522 364.60407,501.41237 L 364.60407,504.95306 L 363.65708,504.95306 L 363.65708,501.41237 C 363.65707,500.93888 363.55448,500.59428 363.3493,500.37857 C 363.14412,500.16287 362.85388,500.05502 362.4786,500.05501 C 362.198,500.05502 361.93407,500.12779 361.68681,500.27335 C 361.43953,500.41891 361.26329,500.6162 361.15807,500.86522 C 361.05285,501.11424 361.00024,501.45797 361.00024,501.89638 L 361.00024,504.95306 L 360.05325,504.95306 z M 369.69678,504.26386 C 369.34604,504.56199 369.00845,504.77243 368.68402,504.89519 C 368.35959,505.01795 368.01148,505.07933 367.6397,505.07933 C 367.02591,505.07933 366.55417,504.92939 366.22448,504.62951 C 365.89478,504.32963 365.72993,503.94645 365.72994,503.47997 C 365.72993,503.20639 365.79219,502.95649 365.9167,502.73026 C 366.04121,502.50404 366.20431,502.32253 366.40598,502.18574 C 366.60765,502.04896 366.83476,501.94549 367.08729,501.87534 C 367.27318,501.82624 367.55377,501.77889 367.92906,501.73329 C 368.69367,501.6421 369.2566,501.53337 369.61786,501.40711 C 369.62137,501.27734 369.62312,501.19491 369.62312,501.15984 C 369.62312,500.77403 369.53368,500.50221 369.35481,500.34437 C 369.1128,500.13043 368.75329,500.02345 368.27629,500.02345 C 367.83085,500.02345 367.50204,500.10149 367.28984,500.25756 C 367.07764,500.41365 366.92069,500.68985 366.81898,501.08618 L 365.89303,500.95992 C 365.9772,500.56359 366.11575,500.24354 366.30865,499.99977 C 366.50156,499.75601 366.78039,499.56837 367.14516,499.43684 C 367.50993,499.30532 367.93257,499.23955 368.41308,499.23955 C 368.89008,499.23955 369.27764,499.29567 369.57577,499.4079 C 369.8739,499.52014 370.09311,499.66131 370.23341,499.83142 C 370.3737,500.00153 370.4719,500.21636 370.52803,500.4759 C 370.55959,500.63724 370.57537,500.92835 370.57538,501.34923 L 370.57538,502.61189 C 370.57537,503.49224 370.59554,504.04904 370.63588,504.28228 C 370.67621,504.51552 370.756,504.73911 370.87526,504.95306 L 369.88618,504.95306 C 369.78797,504.75665 369.72483,504.52692 369.69678,504.26386 L 369.69678,504.26386 z M 369.61786,502.14892 C 369.27414,502.28921 368.75855,502.40846 368.07111,502.50667 C 367.68179,502.56279 367.40646,502.62592 367.24512,502.69607 C 367.08378,502.76622 366.95927,502.86881 366.87159,503.00384 C 366.7839,503.13888 366.74006,503.28882 366.74006,503.45366 C 366.74006,503.70619 366.83563,503.91664 367.02679,504.08499 C 367.21794,504.25334 367.49765,504.33752 367.86593,504.33752 C 368.23069,504.33752 368.55512,504.25773 368.83922,504.09814 C 369.12332,503.93856 369.33201,503.72022 369.46529,503.44314 C 369.567,503.22919 369.61786,502.91353 369.61786,502.49615 L 369.61786,502.14892 z M 372.02743,504.95306 L 372.02743,497.24034 L 372.97442,497.24034 L 372.97442,504.95306 L 372.02743,504.95306 z M 374.67375,504.95306 L 374.67375,500.10236 L 373.83724,500.10236 L 373.83724,499.36581 L 374.67375,499.36581 L 374.67375,498.77131 C 374.67375,498.39603 374.70707,498.11719 374.77371,497.9348 C 374.8649,497.68929 375.02536,497.49025 375.25509,497.33767 C 375.48483,497.18511 375.80663,497.10882 376.2205,497.10882 C 376.48706,497.10882 376.78168,497.14039 377.10436,497.20351 L 376.96231,498.0295 C 376.76589,497.99444 376.58,497.9769 376.40464,497.97689 C 376.11703,497.9769 375.9136,498.03828 375.79435,498.16103 C 375.6751,498.28379 375.61547,498.51353 375.61548,498.85023 L 375.61548,499.36581 L 376.70452,499.36581 L 376.70452,500.10236 L 375.61548,500.10236 L 375.61548,504.95306 L 374.67375,504.95306 z M 377.06753,502.6382 L 377.06753,501.68594 L 379.9769,501.68594 L 379.9769,502.6382 L 377.06753,502.6382 z M 380.65558,503.28531 L 381.59205,503.138 C 381.64466,503.51329 381.79109,503.80089 382.03135,504.00081 C 382.2716,504.20073 382.60743,504.30069 383.03884,504.30069 C 383.47375,504.30069 383.79643,504.21213 384.00688,504.03501 C 384.21732,503.85789 384.32254,503.65007 384.32254,503.41157 C 384.32254,503.19762 384.22959,503.02927 384.0437,502.90651 C 383.91393,502.82233 383.59125,502.71536 383.07567,502.58558 C 382.38121,502.41022 381.89982,502.25852 381.63151,502.1305 C 381.36319,502.00249 381.15976,501.82536 381.02122,501.59913 C 380.88268,501.37291 380.81341,501.12301 380.81341,500.84943 C 380.81341,500.60041 380.8704,500.3698 380.98439,500.1576 C 381.09838,499.94541 381.25358,499.76917 381.45,499.62887 C 381.59731,499.52014 381.7981,499.42807 382.05239,499.35266 C 382.30667,499.27726 382.57937,499.23955 382.87049,499.23955 C 383.30891,499.23955 383.69384,499.30269 384.02529,499.42895 C 384.35673,499.55522 384.60137,499.7262 384.75921,499.9419 C 384.91704,500.15761 385.02576,500.44609 385.08539,500.80734 L 384.15945,500.93361 C 384.11735,500.64601 383.99547,500.42154 383.7938,500.26019 C 383.59213,500.09886 383.30715,500.01819 382.93888,500.01818 C 382.50396,500.01819 382.19356,500.09009 382.00767,500.23389 C 381.82178,500.3777 381.72883,500.54605 381.72883,500.73895 C 381.72883,500.86171 381.76741,500.9722 381.84458,501.0704 C 381.92174,501.17212 382.04274,501.25629 382.20759,501.32293 C 382.30229,501.35801 382.58113,501.43868 383.0441,501.56494 C 383.71401,501.74382 384.18136,501.89025 384.44618,502.00424 C 384.71098,502.11823 384.91879,502.28395 385.06961,502.50141 C 385.22042,502.71887 385.29583,502.98893 385.29584,503.31161 C 385.29583,503.62728 385.20376,503.92453 385.01963,504.20336 C 384.83549,504.4822 384.56981,504.6979 384.22258,504.85047 C 383.87535,505.00304 383.48252,505.07933 383.0441,505.07933 C 382.31807,505.07933 381.76478,504.92851 381.38424,504.62688 C 381.00368,504.32524 380.7608,503.87805 380.65558,503.28531 L 380.65558,503.28531 z M 386.42697,498.32938 L 386.42697,497.24034 L 387.37396,497.24034 L 387.37396,498.32938 L 386.42697,498.32938 z M 386.42697,504.95306 L 386.42697,499.36581 L 387.37396,499.36581 L 387.37396,504.95306 L 386.42697,504.95306 z M 388.79971,504.95306 L 388.79971,497.24034 L 389.7467,497.24034 L 389.7467,504.95306 L 388.79971,504.95306 z M 392.77181,504.95306 L 390.64634,499.36581 L 391.64594,499.36581 L 392.84547,502.71185 C 392.97524,503.07311 393.09449,503.4484 393.20322,503.83772 C 393.28739,503.5431 393.40489,503.18886 393.55571,502.77498 L 394.79732,499.36581 L 395.77062,499.36581 L 393.65567,504.95306 L 392.77181,504.95306 z M 400.43192,503.15378 L 401.41048,503.27478 C 401.25615,503.84649 400.9703,504.29017 400.55293,504.60583 C 400.13555,504.9215 399.60242,505.07933 398.95356,505.07933 C 398.13634,505.07933 397.48836,504.82768 397.0096,504.32437 C 396.53084,503.82106 396.29146,503.1152 396.29146,502.20679 C 396.29146,501.26681 396.53347,500.53728 397.01749,500.01818 C 397.50151,499.4991 398.12933,499.23955 398.90095,499.23955 C 399.64802,499.23955 400.2583,499.49384 400.7318,500.0024 C 401.20529,500.51098 401.44204,501.22648 401.44205,502.14892 C 401.44204,502.20504 401.44029,502.28921 401.43679,502.40145 L 397.27002,502.40145 C 397.30509,503.01524 397.47871,503.48523 397.79087,503.81141 C 398.10302,504.1376 398.49234,504.30069 398.95882,504.30069 C 399.30605,504.30069 399.60242,504.2095 399.84794,504.02712 C 400.09346,503.84473 400.28812,503.55362 400.43192,503.15378 L 400.43192,503.15378 z M 397.32263,501.62281 L 400.44244,501.62281 C 400.40035,501.15282 400.2811,500.80033 400.08469,500.56534 C 399.78305,500.20057 399.39198,500.01819 398.91147,500.01818 C 398.47656,500.01819 398.11091,500.16375 397.81454,500.45485 C 397.51817,500.74597 397.3542,501.13529 397.32263,501.62281 L 397.32263,501.62281 z M 402.59422,504.95306 L 402.59422,499.36581 L 403.44651,499.36581 L 403.44651,500.21284 C 403.66397,499.81652 403.86477,499.55522 404.04891,499.42895 C 404.23304,499.30269 404.43559,499.23955 404.65656,499.23955 C 404.97573,499.23955 405.30016,499.34127 405.62986,499.54469 L 405.30367,500.42329 C 405.07218,500.2865 404.84069,500.21811 404.60921,500.21811 C 404.40227,500.21811 404.21638,500.28037 404.05154,500.40487 C 403.88669,500.52939 403.76919,500.70213 403.69905,500.92309 C 403.59382,501.2598 403.54121,501.62807 403.54121,502.02791 L 403.54121,504.95306 L 402.59422,504.95306 z M 410.02811,503.15378 L 411.00666,503.27478 C 410.85233,503.84649 410.56648,504.29017 410.14911,504.60583 C 409.73173,504.9215 409.19861,505.07933 408.54975,505.07933 C 407.73253,505.07933 407.08454,504.82768 406.60578,504.32437 C 406.12703,503.82106 405.88765,503.1152 405.88765,502.20679 C 405.88765,501.26681 406.12966,500.53728 406.61368,500.01818 C 407.09769,499.4991 407.72551,499.23955 408.49714,499.23955 C 409.2442,499.23955 409.85449,499.49384 410.32799,500.0024 C 410.80148,500.51098 411.03823,501.22648 411.03823,502.14892 C 411.03823,502.20504 411.03647,502.28921 411.03297,502.40145 L 406.86621,502.40145 C 406.90128,503.01524 407.07489,503.48523 407.38705,503.81141 C 407.69921,504.1376 408.08852,504.30069 408.55501,504.30069 C 408.90224,504.30069 409.19861,504.2095 409.44413,504.02712 C 409.68964,503.84473 409.8843,503.55362 410.02811,503.15378 L 410.02811,503.15378 z M 406.91882,501.62281 L 410.03863,501.62281 C 409.99654,501.15282 409.87728,500.80033 409.68088,500.56534 C 409.37924,500.20057 408.98817,500.01819 408.50766,500.01818 C 408.07274,500.01819 407.7071,500.16375 407.41073,500.45485 C 407.11435,500.74597 406.95038,501.13529 406.91882,501.62281 L 406.91882,501.62281 z M 415.8258,504.95306 L 415.8258,504.24808 C 415.47155,504.80225 414.9507,505.07933 414.26326,505.07933 C 413.81782,505.07933 413.40834,504.95657 413.0348,504.71105 C 412.66127,504.46554 412.37191,504.12269 412.16673,503.68252 C 411.96155,503.24234 411.85895,502.7364 411.85895,502.1647 C 411.85895,501.60703 411.9519,501.10109 412.13779,500.64688 C 412.32368,500.19268 412.60252,499.84457 412.9743,499.60256 C 413.34608,499.36056 413.7617,499.23955 414.22117,499.23955 C 414.55788,499.23955 414.85776,499.31058 415.12082,499.45262 C 415.38386,499.59467 415.59781,499.77969 415.76267,500.00766 L 415.76267,497.24034 L 416.7044,497.24034 L 416.7044,504.95306 L 415.8258,504.95306 z M 412.83225,502.1647 C 412.83225,502.88021 412.98307,503.41508 413.2847,503.76932 C 413.58634,504.12357 413.94233,504.30069 414.3527,504.30069 C 414.76657,504.30069 415.11818,504.13146 415.40754,503.793 C 415.6969,503.45454 415.84158,502.93808 415.84158,502.24362 C 415.84158,501.47901 415.69427,500.91783 415.39965,500.56007 C 415.10503,500.20233 414.74202,500.02345 414.31061,500.02345 C 413.88972,500.02345 413.53811,500.19531 413.25577,500.53903 C 412.97342,500.88276 412.83225,501.42465 412.83225,502.1647 L 412.83225,502.1647 z M 375.03676,518.42139 L 375.03676,512.83414 L 375.88379,512.83414 L 375.88379,513.61804 C 376.05916,513.34447 376.2924,513.12438 376.58351,512.95778 C 376.87462,512.79118 377.20607,512.70788 377.57785,512.70787 C 377.99172,512.70788 378.33106,512.79381 378.59587,512.96567 C 378.86067,513.13753 379.04744,513.37779 379.15617,513.68643 C 379.5981,513.03407 380.17331,512.70788 380.8818,512.70787 C 381.43596,512.70788 381.86211,512.86133 382.16024,513.16822 C 382.45836,513.47512 382.60742,513.94774 382.60743,514.58607 L 382.60743,518.42139 L 381.6657,518.42139 L 381.6657,514.90174 C 381.6657,514.52295 381.63501,514.25025 381.57363,514.08364 C 381.51225,513.91705 381.40089,513.78289 381.23956,513.68117 C 381.07821,513.57946 380.88881,513.52861 380.67136,513.5286 C 380.27853,513.52861 379.95234,513.65926 379.6928,513.92055 C 379.43325,514.18185 379.30348,514.60011 379.30348,515.17531 L 379.30348,518.42139 L 378.35649,518.42139 L 378.35649,514.79126 C 378.35649,514.37038 378.27933,514.05471 378.12501,513.84426 C 377.97068,513.63383 377.71815,513.52861 377.36741,513.5286 C 377.10085,513.52861 376.85446,513.59875 376.62823,513.73904 C 376.402,513.87934 376.23803,514.08452 376.13632,514.35459 C 376.03461,514.62466 375.98375,515.01398 375.98375,515.52254 L 375.98375,518.42139 L 375.03676,518.42139 z M 384.02792,511.79771 L 384.02792,510.70867 L 384.97491,510.70867 L 384.97491,511.79771 L 384.02792,511.79771 z M 384.02792,518.42139 L 384.02792,512.83414 L 384.97491,512.83414 L 384.97491,518.42139 L 384.02792,518.42139 z M 386.41118,518.42139 L 386.41118,512.83414 L 387.26348,512.83414 L 387.26348,513.68117 C 387.48093,513.28484 387.68173,513.02354 387.86587,512.89727 C 388.05,512.77101 388.25255,512.70788 388.47352,512.70787 C 388.79269,512.70788 389.11712,512.80959 389.44682,513.01302 L 389.12063,513.89161 C 388.88914,513.75483 388.65766,513.68644 388.42617,513.68643 C 388.21923,513.68644 388.03334,513.74869 387.8685,513.8732 C 387.70365,513.99772 387.58615,514.17045 387.51601,514.39142 C 387.41078,514.72813 387.35817,515.0964 387.35818,515.49624 L 387.35818,518.42139 L 386.41118,518.42139 z M 390.00975,518.42139 L 390.00975,512.83414 L 390.86205,512.83414 L 390.86205,513.68117 C 391.0795,513.28484 391.2803,513.02354 391.46444,512.89727 C 391.64857,512.77101 391.85112,512.70788 392.07209,512.70787 C 392.39126,512.70788 392.71569,512.80959 393.04539,513.01302 L 392.7192,513.89161 C 392.48771,513.75483 392.25622,513.68644 392.02474,513.68643 C 391.8178,513.68644 391.63191,513.74869 391.46707,513.8732 C 391.30222,513.99772 391.18472,514.17045 391.11458,514.39142 C 391.00935,514.72813 390.95674,515.0964 390.95674,515.49624 L 390.95674,518.42139 L 390.00975,518.42139 z M 393.26635,515.62777 C 393.26635,514.59309 393.55396,513.82673 394.12917,513.32868 C 394.60968,512.91482 395.19541,512.70788 395.88636,512.70787 C 396.65447,512.70788 397.28229,512.95953 397.76982,513.46284 C 398.25734,513.96615 398.50111,514.66149 398.50111,515.54885 C 398.50111,516.26786 398.39325,516.83343 398.17756,517.24554 C 397.96185,517.65766 397.64794,517.97771 397.23583,518.20569 C 396.8237,518.43367 396.37388,518.54766 395.88636,518.54766 C 395.10421,518.54766 394.47201,518.29688 393.98975,517.79532 C 393.50748,517.29377 393.26635,516.57125 393.26635,515.62777 L 393.26635,515.62777 z M 394.23965,515.62777 C 394.23965,516.34327 394.39573,516.87902 394.70788,517.23502 C 395.02004,517.59102 395.41286,517.76902 395.88636,517.76902 C 396.35635,517.76902 396.74742,517.59014 397.05958,517.23239 C 397.37173,516.87464 397.52781,516.32924 397.52781,515.5962 C 397.52781,514.90525 397.37085,514.38177 397.05695,514.02577 C 396.74303,513.66978 396.35284,513.49178 395.88636,513.49177 C 395.41286,513.49178 395.02004,513.6689 394.70788,514.02314 C 394.39573,514.37739 394.23965,514.91226 394.23965,515.62777 L 394.23965,515.62777 z M 399.60593,518.42139 L 399.60593,512.83414 L 400.45823,512.83414 L 400.45823,513.68117 C 400.67568,513.28484 400.87648,513.02354 401.06062,512.89727 C 401.24475,512.77101 401.4473,512.70788 401.66827,512.70787 C 401.98744,512.70788 402.31187,512.80959 402.64157,513.01302 L 402.31538,513.89161 C 402.08389,513.75483 401.85241,513.68644 401.62092,513.68643 C 401.41398,513.68644 401.22809,513.74869 401.06325,513.8732 C 400.8984,513.99772 400.7809,514.17045 400.71076,514.39142 C 400.60554,514.72813 400.55292,515.0964 400.55293,515.49624 L 400.55293,518.42139 L 399.60593,518.42139 z "
       style="font-size:10.77466202px;font-style:normal;font-weight:normal;text-align:center;text-anchor:middle;fill:#000000;fill-opacity:1;stroke:none;stroke-width:1px;stroke-linecap:butt;stroke-linejoin:miter;stroke-opacity:1;font-family:Bitstream Vera Sans"
       id="text3499" />
    <path
       d="M 300.39192,388.68948 L 300.39192,383.10223 L 301.23896,383.10223 L 301.23896,383.88613 C 301.41432,383.61256 301.64756,383.39247 301.93868,383.22587 C 302.22979,383.05927 302.56123,382.97597 302.93302,382.97597 C 303.34689,382.97597 303.68622,383.0619 303.95103,383.23376 C 304.21584,383.40563 304.4026,383.64588 304.51134,383.95452 C 304.95326,383.30216 305.52847,382.97597 306.23697,382.97597 C 306.79113,382.97597 307.21727,383.12942 307.51541,383.43631 C 307.81353,383.74321 307.96259,384.21583 307.9626,384.85417 L 307.9626,388.68948 L 307.02087,388.68948 L 307.02087,385.16983 C 307.02086,384.79104 306.99017,384.51834 306.9288,384.35174 C 306.86741,384.18514 306.75605,384.05098 306.59472,383.94926 C 306.43337,383.84755 306.24398,383.7967 306.02652,383.79669 C 305.63369,383.7967 305.30751,383.92735 305.04797,384.18864 C 304.78842,384.44995 304.65864,384.8682 304.65865,385.44341 L 304.65865,388.68948 L 303.71166,388.68948 L 303.71166,385.05935 C 303.71165,384.63847 303.63449,384.3228 303.48017,384.11236 C 303.32584,383.90192 303.07331,383.7967 302.72258,383.79669 C 302.45601,383.7967 302.20962,383.86685 301.9834,384.00714 C 301.75717,384.14744 301.5932,384.35262 301.49149,384.62268 C 301.38977,384.89275 301.33891,385.28207 301.33892,385.79064 L 301.33892,388.68948 L 300.39192,388.68948 z M 309.38308,382.0658 L 309.38308,380.97676 L 310.33008,380.97676 L 310.33008,382.0658 L 309.38308,382.0658 z M 309.38308,388.68948 L 309.38308,383.10223 L 310.33008,383.10223 L 310.33008,388.68948 L 309.38308,388.68948 z M 311.76635,388.68948 L 311.76635,383.10223 L 312.61864,383.10223 L 312.61864,383.94926 C 312.8361,383.55294 313.03689,383.29164 313.22103,383.16536 C 313.40517,383.03911 313.60772,382.97597 313.82868,382.97597 C 314.14785,382.97597 314.47229,383.07769 314.80198,383.28111 L 314.4758,384.15971 C 314.24431,384.02292 314.01282,383.95453 313.78134,383.95452 C 313.5744,383.95453 313.38851,384.01679 313.22366,384.14129 C 313.05881,384.26581 312.94132,384.43855 312.87117,384.65951 C 312.76595,384.99622 312.71334,385.36449 312.71334,385.76433 L 312.71334,388.68948 L 311.76635,388.68948 z M 315.36492,388.68948 L 315.36492,383.10223 L 316.21721,383.10223 L 316.21721,383.94926 C 316.43466,383.55294 316.63546,383.29164 316.8196,383.16536 C 317.00374,383.03911 317.20629,382.97597 317.42725,382.97597 C 317.74642,382.97597 318.07085,383.07769 318.40055,383.28111 L 318.07436,384.15971 C 317.84287,384.02292 317.61139,383.95453 317.3799,383.95452 C 317.17297,383.95453 316.98708,384.01679 316.82223,384.14129 C 316.65738,384.26581 316.53989,384.43855 316.46974,384.65951 C 316.36452,384.99622 316.31191,385.36449 316.31191,385.76433 L 316.31191,388.68948 L 315.36492,388.68948 z M 318.62151,385.89586 C 318.62151,384.86119 318.90912,384.09482 319.48433,383.59677 C 319.96484,383.18291 320.55057,382.97597 321.24153,382.97597 C 322.00964,382.97597 322.63746,383.22763 323.12499,383.73093 C 323.61251,384.23424 323.85627,384.92958 323.85628,385.81694 C 323.85627,386.53596 323.74842,387.10152 323.53272,387.51364 C 323.31701,387.92575 323.0031,388.2458 322.59099,388.47378 C 322.17887,388.70176 321.72905,388.81575 321.24153,388.81575 C 320.45938,388.81575 319.82717,388.56497 319.34491,388.06342 C 318.86265,387.56186 318.62151,386.83934 318.62151,385.89586 L 318.62151,385.89586 z M 319.59481,385.89586 C 319.59481,386.61136 319.75089,387.14712 320.06305,387.50311 C 320.3752,387.85911 320.76803,388.03711 321.24153,388.03711 C 321.71151,388.03711 322.10258,387.85824 322.41474,387.50048 C 322.7269,387.14273 322.88297,386.59734 322.88298,385.86429 C 322.88297,385.17334 322.72602,384.64987 322.41211,384.29386 C 322.0982,383.93787 321.708,383.75987 321.24153,383.75987 C 320.76803,383.75987 320.3752,383.93699 320.06305,384.29123 C 319.75089,384.64548 319.59481,385.18036 319.59481,385.89586 L 319.59481,385.89586 z M 324.9611,388.68948 L 324.9611,383.10223 L 325.81339,383.10223 L 325.81339,383.94926 C 326.03085,383.55294 326.23164,383.29164 326.41578,383.16536 C 326.59992,383.03911 326.80247,382.97597 327.02344,382.97597 C 327.3426,382.97597 327.66704,383.07769 327.99673,383.28111 L 327.67055,384.15971 C 327.43906,384.02292 327.20757,383.95453 326.97609,383.95452 C 326.76915,383.95453 326.58326,384.01679 326.41841,384.14129 C 326.25356,384.26581 326.13607,384.43855 326.06592,384.65951 C 325.9607,384.99622 325.90809,385.36449 325.90809,385.76433 L 325.90809,388.68948 L 324.9611,388.68948 z "
       style="font-size:10.77466202px;font-style:normal;font-weight:normal;text-align:center;text-anchor:middle;fill:#000000;fill-opacity:1;stroke:none;stroke-width:1px;stroke-linecap:butt;stroke-linejoin:miter;stroke-opacity:1;font-family:Bitstream Vera Sans"
       id="text3509" />
    <path
       d="M 497.5316,565.95789 L 497.5316,560.37063 L 498.37863,560.37063 L 498.37863,561.15453 C 498.554,560.88096 498.78724,560.66087 499.07836,560.49427 C 499.36947,560.32767 499.70091,560.24437 500.0727,560.24437 C 500.48656,560.24437 500.8259,560.33031 501.09071,560.50216 C 501.35552,560.67403 501.54228,560.91428 501.65102,561.22293 C 502.09294,560.57056 502.66815,560.24437 503.37665,560.24437 C 503.9308,560.24437 504.35695,560.39782 504.65509,560.70471 C 504.9532,561.01161 505.10227,561.48423 505.10228,562.12257 L 505.10228,565.95789 L 504.16054,565.95789 L 504.16054,562.43823 C 504.16054,562.05944 504.12985,561.78674 504.06848,561.62014 C 504.00709,561.45354 503.89573,561.31938 503.7344,561.21767 C 503.57305,561.11596 503.38365,561.0651 503.1662,561.06509 C 502.77337,561.0651 502.44719,561.19575 502.18765,561.45704 C 501.92809,561.71835 501.79832,562.1366 501.79833,562.71181 L 501.79833,565.95789 L 500.85133,565.95789 L 500.85133,562.32775 C 500.85133,561.90687 500.77417,561.59121 500.61985,561.38076 C 500.46552,561.17032 500.21299,561.0651 499.86225,561.06509 C 499.59569,561.0651 499.3493,561.13525 499.12307,561.27554 C 498.89685,561.41584 498.73288,561.62102 498.63117,561.89108 C 498.52945,562.16115 498.47859,562.55047 498.47859,563.05904 L 498.47859,565.95789 L 497.5316,565.95789 z M 506.52276,559.3342 L 506.52276,558.24516 L 507.46976,558.24516 L 507.46976,559.3342 L 506.52276,559.3342 z M 506.52276,565.95789 L 506.52276,560.37063 L 507.46976,560.37063 L 507.46976,565.95789 L 506.52276,565.95789 z M 508.90603,565.95789 L 508.90603,560.37063 L 509.75832,560.37063 L 509.75832,561.21767 C 509.97577,560.82134 510.17657,560.56004 510.36071,560.43377 C 510.54485,560.30751 510.7474,560.24437 510.96836,560.24437 C 511.28753,560.24437 511.61196,560.34609 511.94166,560.54951 L 511.61547,561.42811 C 511.38398,561.29133 511.1525,561.22293 510.92101,561.22293 C 510.71408,561.22293 510.52819,561.28519 510.36334,561.40969 C 510.19849,561.53421 510.081,561.70695 510.01085,561.92791 C 509.90563,562.26462 509.85302,562.6329 509.85302,563.03273 L 509.85302,565.95789 L 508.90603,565.95789 z M 512.5046,565.95789 L 512.5046,560.37063 L 513.35689,560.37063 L 513.35689,561.21767 C 513.57434,560.82134 513.77514,560.56004 513.95928,560.43377 C 514.14341,560.30751 514.34597,560.24437 514.56693,560.24437 C 514.8861,560.24437 515.21053,560.34609 515.54023,560.54951 L 515.21404,561.42811 C 514.98255,561.29133 514.75107,561.22293 514.51958,561.22293 C 514.31265,561.22293 514.12675,561.28519 513.96191,561.40969 C 513.79706,561.53421 513.67956,561.70695 513.60942,561.92791 C 513.5042,562.26462 513.45159,562.6329 513.45159,563.03273 L 513.45159,565.95789 L 512.5046,565.95789 z M 515.76119,563.16426 C 515.76119,562.12959 516.0488,561.36323 516.62401,560.86517 C 517.10452,560.45131 517.69025,560.24437 518.3812,560.24437 C 519.14932,560.24437 519.77714,560.49603 520.26467,560.99933 C 520.75219,561.50264 520.99595,562.19798 520.99595,563.08534 C 520.99595,563.80436 520.8881,564.36992 520.6724,564.78204 C 520.45669,565.19416 520.14278,565.5142 519.73067,565.74218 C 519.31855,565.97016 518.86873,566.08415 518.3812,566.08415 C 517.59906,566.08415 516.96685,565.83337 516.48459,565.33182 C 516.00233,564.83027 515.76119,564.10775 515.76119,563.16426 L 515.76119,563.16426 z M 516.73449,563.16426 C 516.73449,563.87977 516.89057,564.41552 517.20273,564.77152 C 517.51488,565.12752 517.90771,565.30551 518.3812,565.30551 C 518.85119,565.30551 519.24226,565.12664 519.55442,564.76888 C 519.86657,564.41113 520.02265,563.86574 520.02266,563.13269 C 520.02265,562.44174 519.8657,561.91827 519.55179,561.56227 C 519.23788,561.20627 518.84768,561.02827 518.3812,561.02827 C 517.90771,561.02827 517.51488,561.20539 517.20273,561.55964 C 516.89057,561.91388 516.73449,562.44876 516.73449,563.16426 L 516.73449,563.16426 z M 522.10078,565.95789 L 522.10078,560.37063 L 522.95307,560.37063 L 522.95307,561.21767 C 523.17053,560.82134 523.37132,560.56004 523.55546,560.43377 C 523.7396,560.30751 523.94215,560.24437 524.16311,560.24437 C 524.48228,560.24437 524.80671,560.34609 525.13641,560.54951 L 524.81023,561.42811 C 524.57874,561.29133 524.34725,561.22293 524.11577,561.22293 C 523.90883,561.22293 523.72294,561.28519 523.55809,561.40969 C 523.39324,561.53421 523.27575,561.70695 523.2056,561.92791 C 523.10038,562.26462 523.04777,562.6329 523.04777,563.03273 L 523.04777,565.95789 L 522.10078,565.95789 z "
       style="font-size:10.77466202px;font-style:normal;font-weight:normal;text-align:center;text-anchor:middle;fill:#000000;fill-opacity:1;stroke:none;stroke-width:1px;stroke-linecap:butt;stroke-linejoin:miter;stroke-opacity:1;font-family:Bitstream Vera Sans"
       id="text3517" />
    <path
       d="M 381.09311,537.21018 L 394.24157,541.92848 L 381.16872,546.85241 C 383.24093,543.9896 383.19833,540.09535 381.09311,537.21018 z "
       style="font-size:12px;fill:#ff8080;fill-opacity:1;fill-rule:evenodd;stroke-width:0.625;stroke-linejoin:round"
       id="path3521" />
    <path
       d="M 423.57598,540.17901 L 410.83841,534.44327 L 424.2574,530.56059 C 421.96689,533.25193 421.70371,537.1375 423.57598,540.17901 z "
       style="font-size:12px;fill:#ff8080;fill-opacity:1;fill-rule:evenodd;stroke-width:0.625;stroke-linejoin:round"
       id="path3523" />
    <path
       d="M 335.487,511.69134 L 340.39143,498.61116 L 345.12934,511.75257 C 342.29622,509.63995 338.40175,509.62728 335.487,511.69134 z "
       style="font-size:12px;fill:#ff8080;fill-rule:evenodd;stroke-width:0.625;stroke-linejoin:round"
       id="path3525" />
    <path
       d="M 352.81601,476.64186 L 348.95323,490.0666 L 343.1986,477.33755 C 346.18878,479.22131 350.07223,478.92831 352.81601,476.64186 z "
       style="font-size:12px;fill:#ff8080;fill-rule:evenodd;stroke-width:0.625;stroke-linejoin:round"
       id="path3527" />
    <path
       d="M 324.30663,557.3114 L 367.04351,514.57452"
       style="fill:none;fill-rule:evenodd;stroke:#000000;stroke-width:3.5;stroke-linecap:butt;stroke-linejoin:miter;stroke-miterlimit:4;stroke-dasharray:none;stroke-opacity:0.36078431"
       id="path3529" />
    <rect
       width="33.454319"
       height="16.355444"
       x="236.93233"
       y="537.20691"
       transform="matrix(0.9999693,-7.8415859e-3,7.8415859e-3,0.9999693,0,0)"
       style="fill:#c0c0c0;fill-opacity:1;stroke:#000000;stroke-width:1;stroke-linecap:butt;stroke-linejoin:miter;stroke-miterlimit:4;stroke-dasharray:none;stroke-dashoffset:0;stroke-opacity:1"
       id="rect2303" />
    <path
       d="M 358.00938,565.45226 L 354.1466,578.877 L 348.39197,566.14795 C 351.38215,568.03171 355.2656,567.73871 358.00938,565.45226 z "
       style="font-size:12px;fill:#ff0000;fill-rule:evenodd;stroke-width:0.625;stroke-linejoin:round"
       id="path3531" />
    <path
       d="M 374.29615,625.88947 L 374.29615,625.18448 C 373.9419,625.73865 373.42106,626.01573 372.73362,626.01573 C 372.28818,626.01573 371.87869,625.89297 371.50516,625.64746 C 371.13162,625.40194 370.84226,625.05909 370.63708,624.61892 C 370.4319,624.17874 370.32931,623.67281 370.32931,623.1011 C 370.32931,622.54343 370.42226,622.03749 370.60815,621.58328 C 370.79404,621.12908 371.07287,620.78098 371.44466,620.53896 C 371.81644,620.29696 372.23206,620.17595 372.69153,620.17595 C 373.02823,620.17595 373.32811,620.24698 373.59117,620.38902 C 373.85422,620.53108 374.06817,620.71609 374.23302,620.94406 L 374.23302,618.17674 L 375.17475,618.17674 L 375.17475,625.88947 L 374.29615,625.88947 z M 371.30261,623.1011 C 371.30261,623.81661 371.45342,624.35148 371.75506,624.70573 C 372.05669,625.05997 372.41269,625.23709 372.82306,625.23709 C 373.23692,625.23709 373.58854,625.06786 373.8779,624.7294 C 374.16725,624.39094 374.31193,623.87448 374.31194,623.18002 C 374.31193,622.41541 374.16462,621.85423 373.87001,621.49648 C 373.57538,621.13873 373.21237,620.95985 372.78097,620.95985 C 372.36008,620.95985 372.00846,621.13171 371.72612,621.47543 C 371.44378,621.81916 371.30261,622.36105 371.30261,623.1011 L 371.30261,623.1011 z M 380.49369,624.09018 L 381.47225,624.21119 C 381.31792,624.78289 381.03207,625.22657 380.61469,625.54224 C 380.19731,625.8579 379.66419,626.01573 379.01533,626.01573 C 378.19811,626.01573 377.55012,625.76408 377.07137,625.26077 C 376.59261,624.75746 376.35323,624.0516 376.35323,623.14319 C 376.35323,622.20322 376.59524,621.47368 377.07926,620.95459 C 377.56327,620.4355 378.19109,620.17595 378.96272,620.17595 C 379.70979,620.17595 380.32007,620.43024 380.79357,620.9388 C 381.26706,621.44738 381.50381,622.16288 381.50381,623.08532 C 381.50381,623.14144 381.50205,623.22562 381.49855,623.33785 L 377.33179,623.33785 C 377.36686,623.95164 377.54048,624.42163 377.85263,624.74781 C 378.16479,625.074 378.55411,625.23709 379.02059,625.23709 C 379.36782,625.23709 379.66419,625.1459 379.90971,624.96352 C 380.15522,624.78114 380.34988,624.49002 380.49369,624.09018 L 380.49369,624.09018 z M 377.3844,622.55921 L 380.50421,622.55921 C 380.46212,622.08923 380.34287,621.73674 380.14646,621.50174 C 379.84482,621.13697 379.45375,620.95459 378.97324,620.95459 C 378.53832,620.95459 378.17268,621.10015 377.87631,621.39125 C 377.57993,621.68237 377.41596,622.07169 377.3844,622.55921 L 377.3844,622.55921 z M 384.73411,625.04243 L 384.87089,625.87894 C 384.60433,625.93506 384.36583,625.96312 384.15539,625.96312 C 383.81167,625.96312 383.5451,625.90876 383.35571,625.80003 C 383.16631,625.6913 383.03303,625.54837 382.95587,625.37125 C 382.8787,625.19413 382.84012,624.82147 382.84012,624.25327 L 382.84012,621.03876 L 382.14566,621.03876 L 382.14566,620.30221 L 382.84012,620.30221 L 382.84012,618.91855 L 383.78185,618.35036 L 383.78185,620.30221 L 384.73411,620.30221 L 384.73411,621.03876 L 383.78185,621.03876 L 383.78185,624.30588 C 383.78185,624.57595 383.79851,624.74957 383.83183,624.82673 C 383.86515,624.90389 383.91952,624.96527 383.99493,625.01087 C 384.07033,625.05646 384.17819,625.07926 384.31848,625.07926 C 384.4237,625.07926 384.56224,625.06699 384.73411,625.04243 L 384.73411,625.04243 z M 389.47959,624.09018 L 390.45815,624.21119 C 390.30382,624.78289 390.01797,625.22657 389.60059,625.54224 C 389.18321,625.8579 388.65009,626.01573 388.00123,626.01573 C 387.18401,626.01573 386.53602,625.76408 386.05726,625.26077 C 385.57851,624.75746 385.33913,624.0516 385.33913,623.14319 C 385.33913,622.20322 385.58114,621.47368 386.06516,620.95459 C 386.54917,620.4355 387.17699,620.17595 387.94862,620.17595 C 388.69569,620.17595 389.30597,620.43024 389.77947,620.9388 C 390.25296,621.44738 390.48971,622.16288 390.48971,623.08532 C 390.48971,623.14144 390.48795,623.22562 390.48445,623.33785 L 386.31769,623.33785 C 386.35276,623.95164 386.52638,624.42163 386.83853,624.74781 C 387.15069,625.074 387.54001,625.23709 388.00649,625.23709 C 388.35372,625.23709 388.65009,625.1459 388.89561,624.96352 C 389.14112,624.78114 389.33578,624.49002 389.47959,624.09018 L 389.47959,624.09018 z M 386.3703,622.55921 L 389.49011,622.55921 C 389.44802,622.08923 389.32877,621.73674 389.13236,621.50174 C 388.83072,621.13697 388.43965,620.95459 387.95914,620.95459 C 387.52422,620.95459 387.15858,621.10015 386.86221,621.39125 C 386.56583,621.68237 386.40186,622.07169 386.3703,622.55921 L 386.3703,622.55921 z M 395.29833,623.84291 L 396.22954,623.96392 C 396.12782,624.60577 395.86739,625.1082 395.44827,625.47121 C 395.02913,625.83422 394.51442,626.01573 393.90414,626.01573 C 393.13953,626.01573 392.52487,625.76583 392.06014,625.26603 C 391.59541,624.76623 391.36305,624.04985 391.36305,623.11688 C 391.36305,622.51362 391.46301,621.98576 391.66293,621.5333 C 391.86285,621.08086 392.16711,620.74152 392.57573,620.51529 C 392.98433,620.28907 393.42889,620.17595 393.90941,620.17595 C 394.51618,620.17595 395.01247,620.3294 395.39829,620.63629 C 395.78409,620.94319 396.03136,621.37898 396.1401,621.94367 L 395.21941,622.08572 C 395.13172,621.71043 394.97652,621.42809 394.75381,621.23868 C 394.53108,621.04929 394.26189,620.95459 393.94623,620.95459 C 393.46923,620.95459 393.08166,621.12558 392.78354,621.46754 C 392.48541,621.80951 392.33635,622.35053 392.33635,623.09058 C 392.33635,623.84116 392.48015,624.38656 392.76775,624.72677 C 393.05536,625.06699 393.43065,625.23709 393.89362,625.23709 C 394.2654,625.23709 394.5758,625.1231 394.82483,624.89512 C 395.07385,624.66715 395.23168,624.31641 395.29833,623.84291 L 395.29833,623.84291 z M 399.10734,625.04243 L 399.24413,625.87894 C 398.97756,625.93506 398.73906,625.96312 398.52862,625.96312 C 398.1849,625.96312 397.91834,625.90876 397.72894,625.80003 C 397.53954,625.6913 397.40626,625.54837 397.3291,625.37125 C 397.25193,625.19413 397.21335,624.82147 397.21335,624.25327 L 397.21335,621.03876 L 396.51889,621.03876 L 396.51889,620.30221 L 397.21335,620.30221 L 397.21335,618.91855 L 398.15509,618.35036 L 398.15509,620.30221 L 399.10734,620.30221 L 399.10734,621.03876 L 398.15509,621.03876 L 398.15509,624.30588 C 398.15508,624.57595 398.17174,624.74957 398.20507,624.82673 C 398.23838,624.90389 398.29275,624.96527 398.36816,625.01087 C 398.44356,625.05646 398.55142,625.07926 398.69171,625.07926 C 398.79693,625.07926 398.93547,625.06699 399.10734,625.04243 L 399.10734,625.04243 z M 399.67553,623.09584 C 399.67553,622.06117 399.96314,621.29481 400.53835,620.79675 C 401.01886,620.38289 401.60459,620.17595 402.29554,620.17595 C 403.06366,620.17595 403.69148,620.42761 404.179,620.93091 C 404.66653,621.43422 404.91029,622.12956 404.91029,623.01692 C 404.91029,623.73594 404.80244,624.3015 404.58674,624.71362 C 404.37103,625.12573 404.05712,625.44578 403.64501,625.67376 C 403.23289,625.90174 402.78307,626.01573 402.29554,626.01573 C 401.5134,626.01573 400.88119,625.76495 400.39893,625.2634 C 399.91666,624.76184 399.67553,624.03933 399.67553,623.09584 L 399.67553,623.09584 z M 400.64883,623.09584 C 400.64883,623.81135 400.80491,624.3471 401.11706,624.7031 C 401.42922,625.05909 401.82205,625.23709 402.29554,625.23709 C 402.76553,625.23709 403.1566,625.05822 403.46876,624.70046 C 403.78091,624.34271 403.93699,623.79732 403.937,623.06427 C 403.93699,622.37332 403.78004,621.84985 403.46613,621.49385 C 403.15222,621.13785 402.76202,620.95985 402.29554,620.95985 C 401.82205,620.95985 401.42922,621.13697 401.11706,621.49121 C 400.80491,621.84546 400.64883,622.38034 400.64883,623.09584 L 400.64883,623.09584 z M 406.01512,625.88947 L 406.01512,620.30221 L 406.86741,620.30221 L 406.86741,621.14925 C 407.08486,620.75292 407.28566,620.49162 407.4698,620.36535 C 407.65394,620.23909 407.85649,620.17595 408.07745,620.17595 C 408.39662,620.17595 408.72105,620.27767 409.05075,620.48109 L 408.72456,621.35969 C 408.49307,621.2229 408.26159,621.15451 408.0301,621.15451 C 407.82317,621.15451 407.63728,621.21677 407.47243,621.34127 C 407.30758,621.46579 407.19009,621.63853 407.11994,621.85949 C 407.01472,622.1962 406.96211,622.56448 406.96211,622.96431 L 406.96211,625.88947 L 406.01512,625.88947 z "
       style="font-size:10.77466202px;font-style:normal;font-weight:normal;text-align:center;text-anchor:middle;fill:#000000;fill-opacity:1;stroke:none;stroke-width:1px;stroke-linecap:butt;stroke-linejoin:miter;stroke-opacity:1;font-family:Bitstream Vera Sans"
       id="text3533" />
    <rect
       width="33.454319"
       height="16.355444"
       x="-659.45001"
       y="315.37683"
       transform="matrix(-5.2738667e-2,-0.9986083,0.9986083,-5.2738667e-2,0,0)"
       style="fill:#c0c0c0;fill-opacity:1;stroke:#000000;stroke-width:0.99999988;stroke-linecap:butt;stroke-linejoin:miter;stroke-miterlimit:4;stroke-dasharray:none;stroke-dashoffset:0;stroke-opacity:1"
       id="rect3541" />
    <path
       d="M 529.20067,518.36463 L 529.20067,567.76463"
       style="fill:none;fill-rule:evenodd;stroke:#000000;stroke-width:3.5;stroke-linecap:butt;stroke-linejoin:miter;stroke-miterlimit:4;stroke-dasharray:none;stroke-opacity:0.36078431"
       id="path3543" />
    <path
       d="M 371.70067,376.56463 L 314.90067,376.56463"
       style="fill:none;fill-rule:evenodd;stroke:#000000;stroke-width:3.5;stroke-linecap:butt;stroke-linejoin:miter;stroke-miterlimit:4;stroke-dasharray:none;stroke-opacity:0.36078431"
       id="path3545" />
  </g>
</svg>
