<?xml version="1.0" encoding="utf-8" standalone="no"?>
<!DOCTYPE svg PUBLIC "-//W3C//DTD SVG 1.1//EN"
  "http://www.w3.org/Graphics/SVG/1.1/DTD/svg11.dtd">
<!-- Created with matplotlib (https://matplotlib.org/) -->
<svg height="288pt" version="1.1" viewBox="0 0 432 288" width="432pt" xmlns="http://www.w3.org/2000/svg" xmlns:xlink="http://www.w3.org/1999/xlink">
 <defs>
  <style type="text/css">
*{stroke-linecap:butt;stroke-linejoin:round;}
  </style>
 </defs>
 <g id="figure_1">
  <g id="patch_1">
   <path d="M 0 288 
L 432 288 
L 432 0 
L 0 0 
z
" style="fill:#ffffff;"/>
  </g>
  <g id="axes_1">
   <g id="patch_2">
    <path d="M 54 252 
L 388.8 252 
L 388.8 34.56 
L 54 34.56 
z
" style="fill:#ffffff;"/>
   </g>
   <g id="matplotlib.axis_1">
    <g id="xtick_1">
     <g id="line2d_1">
      <defs>
       <path d="M 0 0 
L 0 3.5 
" id="mf4369df6f4" style="stroke:#000000;stroke-width:0.8;"/>
      </defs>
      <g>
       <use style="stroke:#000000;stroke-width:0.8;" x="69.218182" xlink:href="#mf4369df6f4" y="252"/>
      </g>
     </g>
     <g id="text_1">
      <!-- 0 -->
      <defs>
       <path d="M 31.78125 66.40625 
Q 24.171875 66.40625 20.328125 58.90625 
Q 16.5 51.421875 16.5 36.375 
Q 16.5 21.390625 20.328125 13.890625 
Q 24.171875 6.390625 31.78125 6.390625 
Q 39.453125 6.390625 43.28125 13.890625 
Q 47.125 21.390625 47.125 36.375 
Q 47.125 51.421875 43.28125 58.90625 
Q 39.453125 66.40625 31.78125 66.40625 
z
M 31.78125 74.21875 
Q 44.046875 74.21875 50.515625 64.515625 
Q 56.984375 54.828125 56.984375 36.375 
Q 56.984375 17.96875 50.515625 8.265625 
Q 44.046875 -1.421875 31.78125 -1.421875 
Q 19.53125 -1.421875 13.0625 8.265625 
Q 6.59375 17.96875 6.59375 36.375 
Q 6.59375 54.828125 13.0625 64.515625 
Q 19.53125 74.21875 31.78125 74.21875 
z
" id="DejaVuSans-48"/>
      </defs>
      <g transform="translate(66.036932 266.598437)scale(0.1 -0.1)">
       <use xlink:href="#DejaVuSans-48"/>
      </g>
     </g>
    </g>
    <g id="xtick_2">
     <g id="line2d_2">
      <g>
       <use style="stroke:#000000;stroke-width:0.8;" x="106.655283" xlink:href="#mf4369df6f4" y="252"/>
      </g>
     </g>
     <g id="text_2">
      <!-- 500 -->
      <defs>
       <path d="M 10.796875 72.90625 
L 49.515625 72.90625 
L 49.515625 64.59375 
L 19.828125 64.59375 
L 19.828125 46.734375 
Q 21.96875 47.46875 24.109375 47.828125 
Q 26.265625 48.1875 28.421875 48.1875 
Q 40.625 48.1875 47.75 41.5 
Q 54.890625 34.8125 54.890625 23.390625 
Q 54.890625 11.625 47.5625 5.09375 
Q 40.234375 -1.421875 26.90625 -1.421875 
Q 22.3125 -1.421875 17.546875 -0.640625 
Q 12.796875 0.140625 7.71875 1.703125 
L 7.71875 11.625 
Q 12.109375 9.234375 16.796875 8.0625 
Q 21.484375 6.890625 26.703125 6.890625 
Q 35.15625 6.890625 40.078125 11.328125 
Q 45.015625 15.765625 45.015625 23.390625 
Q 45.015625 31 40.078125 35.4375 
Q 35.15625 39.890625 26.703125 39.890625 
Q 22.75 39.890625 18.8125 39.015625 
Q 14.890625 38.140625 10.796875 36.28125 
z
" id="DejaVuSans-53"/>
      </defs>
      <g transform="translate(97.111533 266.598437)scale(0.1 -0.1)">
       <use xlink:href="#DejaVuSans-53"/>
       <use x="63.623047" xlink:href="#DejaVuSans-48"/>
       <use x="127.246094" xlink:href="#DejaVuSans-48"/>
      </g>
     </g>
    </g>
    <g id="xtick_3">
     <g id="line2d_3">
      <g>
       <use style="stroke:#000000;stroke-width:0.8;" x="144.092385" xlink:href="#mf4369df6f4" y="252"/>
      </g>
     </g>
     <g id="text_3">
      <!-- 1000 -->
      <defs>
       <path d="M 12.40625 8.296875 
L 28.515625 8.296875 
L 28.515625 63.921875 
L 10.984375 60.40625 
L 10.984375 69.390625 
L 28.421875 72.90625 
L 38.28125 72.90625 
L 38.28125 8.296875 
L 54.390625 8.296875 
L 54.390625 0 
L 12.40625 0 
z
" id="DejaVuSans-49"/>
      </defs>
      <g transform="translate(131.367385 266.598437)scale(0.1 -0.1)">
       <use xlink:href="#DejaVuSans-49"/>
       <use x="63.623047" xlink:href="#DejaVuSans-48"/>
       <use x="127.246094" xlink:href="#DejaVuSans-48"/>
       <use x="190.869141" xlink:href="#DejaVuSans-48"/>
      </g>
     </g>
    </g>
    <g id="xtick_4">
     <g id="line2d_4">
      <g>
       <use style="stroke:#000000;stroke-width:0.8;" x="181.529487" xlink:href="#mf4369df6f4" y="252"/>
      </g>
     </g>
     <g id="text_4">
      <!-- 1500 -->
      <g transform="translate(168.804487 266.598437)scale(0.1 -0.1)">
       <use xlink:href="#DejaVuSans-49"/>
       <use x="63.623047" xlink:href="#DejaVuSans-53"/>
       <use x="127.246094" xlink:href="#DejaVuSans-48"/>
       <use x="190.869141" xlink:href="#DejaVuSans-48"/>
      </g>
     </g>
    </g>
    <g id="xtick_5">
     <g id="line2d_5">
      <g>
       <use style="stroke:#000000;stroke-width:0.8;" x="218.966588" xlink:href="#mf4369df6f4" y="252"/>
      </g>
     </g>
     <g id="text_5">
      <!-- 2000 -->
      <defs>
       <path d="M 19.1875 8.296875 
L 53.609375 8.296875 
L 53.609375 0 
L 7.328125 0 
L 7.328125 8.296875 
Q 12.9375 14.109375 22.625 23.890625 
Q 32.328125 33.6875 34.8125 36.53125 
Q 39.546875 41.84375 41.421875 45.53125 
Q 43.3125 49.21875 43.3125 52.78125 
Q 43.3125 58.59375 39.234375 62.25 
Q 35.15625 65.921875 28.609375 65.921875 
Q 23.96875 65.921875 18.8125 64.3125 
Q 13.671875 62.703125 7.8125 59.421875 
L 7.8125 69.390625 
Q 13.765625 71.78125 18.9375 73 
Q 24.125 74.21875 28.421875 74.21875 
Q 39.75 74.21875 46.484375 68.546875 
Q 53.21875 62.890625 53.21875 53.421875 
Q 53.21875 48.921875 51.53125 44.890625 
Q 49.859375 40.875 45.40625 35.40625 
Q 44.1875 33.984375 37.640625 27.21875 
Q 31.109375 20.453125 19.1875 8.296875 
z
" id="DejaVuSans-50"/>
      </defs>
      <g transform="translate(206.241588 266.598437)scale(0.1 -0.1)">
       <use xlink:href="#DejaVuSans-50"/>
       <use x="63.623047" xlink:href="#DejaVuSans-48"/>
       <use x="127.246094" xlink:href="#DejaVuSans-48"/>
       <use x="190.869141" xlink:href="#DejaVuSans-48"/>
      </g>
     </g>
    </g>
    <g id="xtick_6">
     <g id="line2d_6">
      <g>
       <use style="stroke:#000000;stroke-width:0.8;" x="256.40369" xlink:href="#mf4369df6f4" y="252"/>
      </g>
     </g>
     <g id="text_6">
      <!-- 2500 -->
      <g transform="translate(243.67869 266.598437)scale(0.1 -0.1)">
       <use xlink:href="#DejaVuSans-50"/>
       <use x="63.623047" xlink:href="#DejaVuSans-53"/>
       <use x="127.246094" xlink:href="#DejaVuSans-48"/>
       <use x="190.869141" xlink:href="#DejaVuSans-48"/>
      </g>
     </g>
    </g>
    <g id="xtick_7">
     <g id="line2d_7">
      <g>
       <use style="stroke:#000000;stroke-width:0.8;" x="293.840792" xlink:href="#mf4369df6f4" y="252"/>
      </g>
     </g>
     <g id="text_7">
      <!-- 3000 -->
      <defs>
       <path d="M 40.578125 39.3125 
Q 47.65625 37.796875 51.625 33 
Q 55.609375 28.21875 55.609375 21.1875 
Q 55.609375 10.40625 48.1875 4.484375 
Q 40.765625 -1.421875 27.09375 -1.421875 
Q 22.515625 -1.421875 17.65625 -0.515625 
Q 12.796875 0.390625 7.625 2.203125 
L 7.625 11.71875 
Q 11.71875 9.328125 16.59375 8.109375 
Q 21.484375 6.890625 26.8125 6.890625 
Q 36.078125 6.890625 40.9375 10.546875 
Q 45.796875 14.203125 45.796875 21.1875 
Q 45.796875 27.640625 41.28125 31.265625 
Q 36.765625 34.90625 28.71875 34.90625 
L 20.21875 34.90625 
L 20.21875 43.015625 
L 29.109375 43.015625 
Q 36.375 43.015625 40.234375 45.921875 
Q 44.09375 48.828125 44.09375 54.296875 
Q 44.09375 59.90625 40.109375 62.90625 
Q 36.140625 65.921875 28.71875 65.921875 
Q 24.65625 65.921875 20.015625 65.03125 
Q 15.375 64.15625 9.8125 62.3125 
L 9.8125 71.09375 
Q 15.4375 72.65625 20.34375 73.4375 
Q 25.25 74.21875 29.59375 74.21875 
Q 40.828125 74.21875 47.359375 69.109375 
Q 53.90625 64.015625 53.90625 55.328125 
Q 53.90625 49.265625 50.4375 45.09375 
Q 46.96875 40.921875 40.578125 39.3125 
z
" id="DejaVuSans-51"/>
      </defs>
      <g transform="translate(281.115792 266.598437)scale(0.1 -0.1)">
       <use xlink:href="#DejaVuSans-51"/>
       <use x="63.623047" xlink:href="#DejaVuSans-48"/>
       <use x="127.246094" xlink:href="#DejaVuSans-48"/>
       <use x="190.869141" xlink:href="#DejaVuSans-48"/>
      </g>
     </g>
    </g>
    <g id="xtick_8">
     <g id="line2d_8">
      <g>
       <use style="stroke:#000000;stroke-width:0.8;" x="331.277893" xlink:href="#mf4369df6f4" y="252"/>
      </g>
     </g>
     <g id="text_8">
      <!-- 3500 -->
      <g transform="translate(318.552893 266.598437)scale(0.1 -0.1)">
       <use xlink:href="#DejaVuSans-51"/>
       <use x="63.623047" xlink:href="#DejaVuSans-53"/>
       <use x="127.246094" xlink:href="#DejaVuSans-48"/>
       <use x="190.869141" xlink:href="#DejaVuSans-48"/>
      </g>
     </g>
    </g>
    <g id="xtick_9">
     <g id="line2d_9">
      <g>
       <use style="stroke:#000000;stroke-width:0.8;" x="368.714995" xlink:href="#mf4369df6f4" y="252"/>
      </g>
     </g>
     <g id="text_9">
      <!-- 4000 -->
      <defs>
       <path d="M 37.796875 64.3125 
L 12.890625 25.390625 
L 37.796875 25.390625 
z
M 35.203125 72.90625 
L 47.609375 72.90625 
L 47.609375 25.390625 
L 58.015625 25.390625 
L 58.015625 17.1875 
L 47.609375 17.1875 
L 47.609375 0 
L 37.796875 0 
L 37.796875 17.1875 
L 4.890625 17.1875 
L 4.890625 26.703125 
z
" id="DejaVuSans-52"/>
      </defs>
      <g transform="translate(355.989995 266.598437)scale(0.1 -0.1)">
       <use xlink:href="#DejaVuSans-52"/>
       <use x="63.623047" xlink:href="#DejaVuSans-48"/>
       <use x="127.246094" xlink:href="#DejaVuSans-48"/>
       <use x="190.869141" xlink:href="#DejaVuSans-48"/>
      </g>
     </g>
    </g>
    <g id="text_10">
     <!-- Frames -->
     <defs>
      <path d="M 9.8125 72.90625 
L 51.703125 72.90625 
L 51.703125 64.59375 
L 19.671875 64.59375 
L 19.671875 43.109375 
L 48.578125 43.109375 
L 48.578125 34.8125 
L 19.671875 34.8125 
L 19.671875 0 
L 9.8125 0 
z
" id="DejaVuSans-70"/>
      <path d="M 41.109375 46.296875 
Q 39.59375 47.171875 37.8125 47.578125 
Q 36.03125 48 33.890625 48 
Q 26.265625 48 22.1875 43.046875 
Q 18.109375 38.09375 18.109375 28.8125 
L 18.109375 0 
L 9.078125 0 
L 9.078125 54.6875 
L 18.109375 54.6875 
L 18.109375 46.1875 
Q 20.953125 51.171875 25.484375 53.578125 
Q 30.03125 56 36.53125 56 
Q 37.453125 56 38.578125 55.875 
Q 39.703125 55.765625 41.0625 55.515625 
z
" id="DejaVuSans-114"/>
      <path d="M 34.28125 27.484375 
Q 23.390625 27.484375 19.1875 25 
Q 14.984375 22.515625 14.984375 16.5 
Q 14.984375 11.71875 18.140625 8.90625 
Q 21.296875 6.109375 26.703125 6.109375 
Q 34.1875 6.109375 38.703125 11.40625 
Q 43.21875 16.703125 43.21875 25.484375 
L 43.21875 27.484375 
z
M 52.203125 31.203125 
L 52.203125 0 
L 43.21875 0 
L 43.21875 8.296875 
Q 40.140625 3.328125 35.546875 0.953125 
Q 30.953125 -1.421875 24.3125 -1.421875 
Q 15.921875 -1.421875 10.953125 3.296875 
Q 6 8.015625 6 15.921875 
Q 6 25.140625 12.171875 29.828125 
Q 18.359375 34.515625 30.609375 34.515625 
L 43.21875 34.515625 
L 43.21875 35.40625 
Q 43.21875 41.609375 39.140625 45 
Q 35.0625 48.390625 27.6875 48.390625 
Q 23 48.390625 18.546875 47.265625 
Q 14.109375 46.140625 10.015625 43.890625 
L 10.015625 52.203125 
Q 14.9375 54.109375 19.578125 55.046875 
Q 24.21875 56 28.609375 56 
Q 40.484375 56 46.34375 49.84375 
Q 52.203125 43.703125 52.203125 31.203125 
z
" id="DejaVuSans-97"/>
      <path d="M 52 44.1875 
Q 55.375 50.25 60.0625 53.125 
Q 64.75 56 71.09375 56 
Q 79.640625 56 84.28125 50.015625 
Q 88.921875 44.046875 88.921875 33.015625 
L 88.921875 0 
L 79.890625 0 
L 79.890625 32.71875 
Q 79.890625 40.578125 77.09375 44.375 
Q 74.3125 48.1875 68.609375 48.1875 
Q 61.625 48.1875 57.5625 43.546875 
Q 53.515625 38.921875 53.515625 30.90625 
L 53.515625 0 
L 44.484375 0 
L 44.484375 32.71875 
Q 44.484375 40.625 41.703125 44.40625 
Q 38.921875 48.1875 33.109375 48.1875 
Q 26.21875 48.1875 22.15625 43.53125 
Q 18.109375 38.875 18.109375 30.90625 
L 18.109375 0 
L 9.078125 0 
L 9.078125 54.6875 
L 18.109375 54.6875 
L 18.109375 46.1875 
Q 21.1875 51.21875 25.484375 53.609375 
Q 29.78125 56 35.6875 56 
Q 41.65625 56 45.828125 52.96875 
Q 50 49.953125 52 44.1875 
z
" id="DejaVuSans-109"/>
      <path d="M 56.203125 29.59375 
L 56.203125 25.203125 
L 14.890625 25.203125 
Q 15.484375 15.921875 20.484375 11.0625 
Q 25.484375 6.203125 34.421875 6.203125 
Q 39.59375 6.203125 44.453125 7.46875 
Q 49.3125 8.734375 54.109375 11.28125 
L 54.109375 2.78125 
Q 49.265625 0.734375 44.1875 -0.34375 
Q 39.109375 -1.421875 33.890625 -1.421875 
Q 20.796875 -1.421875 13.15625 6.1875 
Q 5.515625 13.8125 5.515625 26.8125 
Q 5.515625 40.234375 12.765625 48.109375 
Q 20.015625 56 32.328125 56 
Q 43.359375 56 49.78125 48.890625 
Q 56.203125 41.796875 56.203125 29.59375 
z
M 47.21875 32.234375 
Q 47.125 39.59375 43.09375 43.984375 
Q 39.0625 48.390625 32.421875 48.390625 
Q 24.90625 48.390625 20.390625 44.140625 
Q 15.875 39.890625 15.1875 32.171875 
z
" id="DejaVuSans-101"/>
      <path d="M 44.28125 53.078125 
L 44.28125 44.578125 
Q 40.484375 46.53125 36.375 47.5 
Q 32.28125 48.484375 27.875 48.484375 
Q 21.1875 48.484375 17.84375 46.4375 
Q 14.5 44.390625 14.5 40.28125 
Q 14.5 37.15625 16.890625 35.375 
Q 19.28125 33.59375 26.515625 31.984375 
L 29.59375 31.296875 
Q 39.15625 29.25 43.1875 25.515625 
Q 47.21875 21.78125 47.21875 15.09375 
Q 47.21875 7.46875 41.1875 3.015625 
Q 35.15625 -1.421875 24.609375 -1.421875 
Q 20.21875 -1.421875 15.453125 -0.5625 
Q 10.6875 0.296875 5.421875 2 
L 5.421875 11.28125 
Q 10.40625 8.6875 15.234375 7.390625 
Q 20.0625 6.109375 24.8125 6.109375 
Q 31.15625 6.109375 34.5625 8.28125 
Q 37.984375 10.453125 37.984375 14.40625 
Q 37.984375 18.0625 35.515625 20.015625 
Q 33.0625 21.96875 24.703125 23.78125 
L 21.578125 24.515625 
Q 13.234375 26.265625 9.515625 29.90625 
Q 5.8125 33.546875 5.8125 39.890625 
Q 5.8125 47.609375 11.28125 51.796875 
Q 16.75 56 26.8125 56 
Q 31.78125 56 36.171875 55.265625 
Q 40.578125 54.546875 44.28125 53.078125 
z
" id="DejaVuSans-115"/>
     </defs>
     <g transform="translate(191.73375 284.835625)scale(0.16 -0.16)">
      <use xlink:href="#DejaVuSans-70"/>
      <use x="57.410156" xlink:href="#DejaVuSans-114"/>
      <use x="98.523438" xlink:href="#DejaVuSans-97"/>
      <use x="159.802734" xlink:href="#DejaVuSans-109"/>
      <use x="257.214844" xlink:href="#DejaVuSans-101"/>
      <use x="318.738281" xlink:href="#DejaVuSans-115"/>
     </g>
    </g>
   </g>
   <g id="matplotlib.axis_2">
    <g id="ytick_1">
     <g id="line2d_10">
      <defs>
       <path d="M 0 0 
L -3.5 0 
" id="m3348d0ec8e" style="stroke:#000000;stroke-width:0.8;"/>
      </defs>
      <g>
       <use style="stroke:#000000;stroke-width:0.8;" x="54" xlink:href="#m3348d0ec8e" y="242.544476"/>
      </g>
     </g>
     <g id="text_11">
      <!-- 0 -->
      <g transform="translate(40.6375 246.343695)scale(0.1 -0.1)">
       <use xlink:href="#DejaVuSans-48"/>
      </g>
     </g>
    </g>
    <g id="ytick_2">
     <g id="line2d_11">
      <g>
       <use style="stroke:#000000;stroke-width:0.8;" x="54" xlink:href="#m3348d0ec8e" y="195.785336"/>
      </g>
     </g>
     <g id="text_12">
      <!-- 10 -->
      <g transform="translate(34.275 199.584555)scale(0.1 -0.1)">
       <use xlink:href="#DejaVuSans-49"/>
       <use x="63.623047" xlink:href="#DejaVuSans-48"/>
      </g>
     </g>
    </g>
    <g id="ytick_3">
     <g id="line2d_12">
      <g>
       <use style="stroke:#000000;stroke-width:0.8;" x="54" xlink:href="#m3348d0ec8e" y="149.026196"/>
      </g>
     </g>
     <g id="text_13">
      <!-- 20 -->
      <g transform="translate(34.275 152.825415)scale(0.1 -0.1)">
       <use xlink:href="#DejaVuSans-50"/>
       <use x="63.623047" xlink:href="#DejaVuSans-48"/>
      </g>
     </g>
    </g>
    <g id="ytick_4">
     <g id="line2d_13">
      <g>
       <use style="stroke:#000000;stroke-width:0.8;" x="54" xlink:href="#m3348d0ec8e" y="102.267056"/>
      </g>
     </g>
     <g id="text_14">
      <!-- 30 -->
      <g transform="translate(34.275 106.066274)scale(0.1 -0.1)">
       <use xlink:href="#DejaVuSans-51"/>
       <use x="63.623047" xlink:href="#DejaVuSans-48"/>
      </g>
     </g>
    </g>
    <g id="ytick_5">
     <g id="line2d_14">
      <g>
       <use style="stroke:#000000;stroke-width:0.8;" x="54" xlink:href="#m3348d0ec8e" y="55.507915"/>
      </g>
     </g>
     <g id="text_15">
      <!-- 40 -->
      <g transform="translate(34.275 59.307134)scale(0.1 -0.1)">
       <use xlink:href="#DejaVuSans-52"/>
       <use x="63.623047" xlink:href="#DejaVuSans-48"/>
      </g>
     </g>
    </g>
    <g id="text_16">
     <!-- Average Brightness -->
     <defs>
      <path d="M 34.1875 63.1875 
L 20.796875 26.90625 
L 47.609375 26.90625 
z
M 28.609375 72.90625 
L 39.796875 72.90625 
L 67.578125 0 
L 57.328125 0 
L 50.6875 18.703125 
L 17.828125 18.703125 
L 11.1875 0 
L 0.78125 0 
z
" id="DejaVuSans-65"/>
      <path d="M 2.984375 54.6875 
L 12.5 54.6875 
L 29.59375 8.796875 
L 46.6875 54.6875 
L 56.203125 54.6875 
L 35.6875 0 
L 23.484375 0 
z
" id="DejaVuSans-118"/>
      <path d="M 45.40625 27.984375 
Q 45.40625 37.75 41.375 43.109375 
Q 37.359375 48.484375 30.078125 48.484375 
Q 22.859375 48.484375 18.828125 43.109375 
Q 14.796875 37.75 14.796875 27.984375 
Q 14.796875 18.265625 18.828125 12.890625 
Q 22.859375 7.515625 30.078125 7.515625 
Q 37.359375 7.515625 41.375 12.890625 
Q 45.40625 18.265625 45.40625 27.984375 
z
M 54.390625 6.78125 
Q 54.390625 -7.171875 48.1875 -13.984375 
Q 42 -20.796875 29.203125 -20.796875 
Q 24.46875 -20.796875 20.265625 -20.09375 
Q 16.0625 -19.390625 12.109375 -17.921875 
L 12.109375 -9.1875 
Q 16.0625 -11.328125 19.921875 -12.34375 
Q 23.78125 -13.375 27.78125 -13.375 
Q 36.625 -13.375 41.015625 -8.765625 
Q 45.40625 -4.15625 45.40625 5.171875 
L 45.40625 9.625 
Q 42.625 4.78125 38.28125 2.390625 
Q 33.9375 0 27.875 0 
Q 17.828125 0 11.671875 7.65625 
Q 5.515625 15.328125 5.515625 27.984375 
Q 5.515625 40.671875 11.671875 48.328125 
Q 17.828125 56 27.875 56 
Q 33.9375 56 38.28125 53.609375 
Q 42.625 51.21875 45.40625 46.390625 
L 45.40625 54.6875 
L 54.390625 54.6875 
z
" id="DejaVuSans-103"/>
      <path id="DejaVuSans-32"/>
      <path d="M 19.671875 34.8125 
L 19.671875 8.109375 
L 35.5 8.109375 
Q 43.453125 8.109375 47.28125 11.40625 
Q 51.125 14.703125 51.125 21.484375 
Q 51.125 28.328125 47.28125 31.5625 
Q 43.453125 34.8125 35.5 34.8125 
z
M 19.671875 64.796875 
L 19.671875 42.828125 
L 34.28125 42.828125 
Q 41.5 42.828125 45.03125 45.53125 
Q 48.578125 48.25 48.578125 53.8125 
Q 48.578125 59.328125 45.03125 62.0625 
Q 41.5 64.796875 34.28125 64.796875 
z
M 9.8125 72.90625 
L 35.015625 72.90625 
Q 46.296875 72.90625 52.390625 68.21875 
Q 58.5 63.53125 58.5 54.890625 
Q 58.5 48.1875 55.375 44.234375 
Q 52.25 40.28125 46.1875 39.3125 
Q 53.46875 37.75 57.5 32.78125 
Q 61.53125 27.828125 61.53125 20.40625 
Q 61.53125 10.640625 54.890625 5.3125 
Q 48.25 0 35.984375 0 
L 9.8125 0 
z
" id="DejaVuSans-66"/>
      <path d="M 9.421875 54.6875 
L 18.40625 54.6875 
L 18.40625 0 
L 9.421875 0 
z
M 9.421875 75.984375 
L 18.40625 75.984375 
L 18.40625 64.59375 
L 9.421875 64.59375 
z
" id="DejaVuSans-105"/>
      <path d="M 54.890625 33.015625 
L 54.890625 0 
L 45.90625 0 
L 45.90625 32.71875 
Q 45.90625 40.484375 42.875 44.328125 
Q 39.84375 48.1875 33.796875 48.1875 
Q 26.515625 48.1875 22.3125 43.546875 
Q 18.109375 38.921875 18.109375 30.90625 
L 18.109375 0 
L 9.078125 0 
L 9.078125 75.984375 
L 18.109375 75.984375 
L 18.109375 46.1875 
Q 21.34375 51.125 25.703125 53.5625 
Q 30.078125 56 35.796875 56 
Q 45.21875 56 50.046875 50.171875 
Q 54.890625 44.34375 54.890625 33.015625 
z
" id="DejaVuSans-104"/>
      <path d="M 18.3125 70.21875 
L 18.3125 54.6875 
L 36.8125 54.6875 
L 36.8125 47.703125 
L 18.3125 47.703125 
L 18.3125 18.015625 
Q 18.3125 11.328125 20.140625 9.421875 
Q 21.96875 7.515625 27.59375 7.515625 
L 36.8125 7.515625 
L 36.8125 0 
L 27.59375 0 
Q 17.1875 0 13.234375 3.875 
Q 9.28125 7.765625 9.28125 18.015625 
L 9.28125 47.703125 
L 2.6875 47.703125 
L 2.6875 54.6875 
L 9.28125 54.6875 
L 9.28125 70.21875 
z
" id="DejaVuSans-116"/>
      <path d="M 54.890625 33.015625 
L 54.890625 0 
L 45.90625 0 
L 45.90625 32.71875 
Q 45.90625 40.484375 42.875 44.328125 
Q 39.84375 48.1875 33.796875 48.1875 
Q 26.515625 48.1875 22.3125 43.546875 
Q 18.109375 38.921875 18.109375 30.90625 
L 18.109375 0 
L 9.078125 0 
L 9.078125 54.6875 
L 18.109375 54.6875 
L 18.109375 46.1875 
Q 21.34375 51.125 25.703125 53.5625 
Q 30.078125 56 35.796875 56 
Q 45.21875 56 50.046875 50.171875 
Q 54.890625 44.34375 54.890625 33.015625 
z
" id="DejaVuSans-110"/>
     </defs>
     <g transform="translate(26.9475 221.75125)rotate(-90)scale(0.16 -0.16)">
      <use xlink:href="#DejaVuSans-65"/>
      <use x="68.330078" xlink:href="#DejaVuSans-118"/>
      <use x="127.509766" xlink:href="#DejaVuSans-101"/>
      <use x="189.033203" xlink:href="#DejaVuSans-114"/>
      <use x="230.146484" xlink:href="#DejaVuSans-97"/>
      <use x="291.425781" xlink:href="#DejaVuSans-103"/>
      <use x="354.902344" xlink:href="#DejaVuSans-101"/>
      <use x="416.425781" xlink:href="#DejaVuSans-32"/>
      <use x="448.212891" xlink:href="#DejaVuSans-66"/>
      <use x="516.816406" xlink:href="#DejaVuSans-114"/>
      <use x="557.929688" xlink:href="#DejaVuSans-105"/>
      <use x="585.712891" xlink:href="#DejaVuSans-103"/>
      <use x="649.189453" xlink:href="#DejaVuSans-104"/>
      <use x="712.568359" xlink:href="#DejaVuSans-116"/>
      <use x="751.777344" xlink:href="#DejaVuSans-110"/>
      <use x="815.15625" xlink:href="#DejaVuSans-101"/>
      <use x="876.679688" xlink:href="#DejaVuSans-115"/>
      <use x="928.779297" xlink:href="#DejaVuSans-115"/>
     </g>
    </g>
   </g>
   <g id="line2d_15">
    <path clip-path="url(#pd9cd21e864)" d="M 69.218182 101.591988 
L 69.517679 97.799644 
L 69.592553 98.90197 
L 69.667427 96.599903 
L 69.742301 96.669118 
L 69.817175 97.07245 
L 69.89205 95.667625 
L 69.966924 98.022672 
L 70.041798 96.941709 
L 70.116672 96.498215 
L 70.416169 101.217709 
L 70.491043 100.490516 
L 70.565917 100.084621 
L 70.640792 104.099993 
L 70.715666 102.297818 
L 70.79054 102.597753 
L 70.940288 98.967768 
L 71.015163 99.093382 
L 71.239785 97.393748 
L 71.31466 100.687055 
L 71.389534 96.433272 
L 71.464408 96.982726 
L 71.539282 98.623397 
L 71.614156 98.011564 
L 71.763905 100.170927 
L 71.913653 103.49585 
L 71.988527 103.059192 
L 72.063402 101.282653 
L 72.138276 105.593688 
L 72.21315 101.791944 
L 72.288024 102.666969 
L 72.362898 102.310636 
L 72.512647 100.420446 
L 72.662395 99.845356 
L 72.737269 96.134191 
L 72.812144 96.972472 
L 73.036766 98.653306 
L 73.11164 98.496075 
L 73.261389 95.969269 
L 73.411137 99.828266 
L 73.486011 99.295047 
L 73.560886 99.921408 
L 73.63576 99.364263 
L 73.710634 100.948537 
L 73.860382 95.828274 
L 74.159879 96.85113 
L 74.309628 92.155562 
L 74.384502 91.642853 
L 74.459376 94.522573 
L 74.53425 94.109842 
L 74.609124 93.933811 
L 74.758873 92.786196 
L 74.908621 98.161104 
L 74.983495 96.875057 
L 75.05837 97.219427 
L 75.133244 97.919276 
L 75.208118 97.264716 
L 75.282992 98.980585 
L 75.357866 98.785756 
L 75.432741 98.314063 
L 75.732238 93.295487 
L 75.807112 93.435628 
L 75.881986 91.488185 
L 75.95686 94.216656 
L 76.031734 94.091897 
L 76.181483 93.719328 
L 76.256357 93.904758 
L 76.406105 96.184608 
L 76.48098 96.053012 
L 76.630728 96.500779 
L 76.705602 99.839374 
L 76.780476 98.530255 
L 77.005099 93.766326 
L 77.079973 94.233746 
L 77.154847 92.525568 
L 77.229722 96.187171 
L 77.454344 91.988077 
L 77.529218 91.325827 
L 77.604093 92.553767 
L 77.678967 92.3803 
L 77.753841 91.818028 
L 77.828715 91.99235 
L 77.903589 92.575985 
L 77.978464 91.909462 
L 78.27796 94.372178 
L 78.427709 90.856697 
L 78.502583 91.24123 
L 78.577457 92.559749 
L 78.652331 89.545015 
L 78.727206 89.861186 
L 78.80208 88.085501 
L 78.876954 90.085069 
L 79.026702 87.120752 
L 79.101577 88.415344 
L 79.176451 87.016501 
L 79.251325 88.175225 
L 79.401073 93.169873 
L 79.550822 87.518956 
L 79.625696 91.781284 
L 79.70057 91.640289 
L 79.775444 93.170728 
L 79.850319 91.802647 
L 80.000067 85.977409 
L 80.149815 88.742624 
L 80.524187 84.734087 
L 80.673935 86.397831 
L 80.748809 85.808214 
L 80.823683 87.153223 
L 80.898558 85.557841 
L 80.973432 87.982959 
L 81.048306 86.817398 
L 81.12318 86.368777 
L 81.198054 87.83 
L 81.347803 83.317299 
L 81.497551 84.828938 
L 81.572425 84.608473 
L 81.797048 81.9552 
L 81.871922 85.011805 
L 81.946796 83.682177 
L 82.021671 83.272864 
L 82.096545 83.753102 
L 82.171419 81.79626 
L 82.246293 82.754172 
L 82.321167 81.52196 
L 82.396042 84.070128 
L 82.470916 83.321571 
L 82.54579 81.696281 
L 82.620664 81.890256 
L 82.770413 83.172031 
L 82.845287 87.587318 
L 82.920161 86.549935 
L 82.995035 83.738575 
L 83.069909 84.484568 
L 83.144784 84.647781 
L 83.219658 83.380533 
L 83.294532 83.738575 
L 83.369406 83.866753 
L 83.519155 86.170529 
L 83.594029 84.853719 
L 83.743777 86.654186 
L 83.893526 84.76485 
L 83.9684 87.286528 
L 84.043274 86.39014 
L 84.193022 87.442904 
L 84.342771 85.339085 
L 84.417645 85.19638 
L 84.492519 84.315374 
L 84.567393 85.535624 
L 84.642268 81.853512 
L 84.717142 82.896022 
L 84.792016 82.877223 
L 84.941765 84.564893 
L 85.091513 85.098111 
L 85.241261 83.857353 
L 85.316136 84.846883 
L 85.39101 84.063292 
L 85.465884 84.330755 
L 85.615632 83.092561 
L 85.690507 84.097472 
L 85.765381 83.09427 
L 85.990003 85.55955 
L 86.064878 86.128658 
L 86.214626 84.857992 
L 86.364374 79.917178 
L 86.439249 80.009466 
L 86.514123 79.079752 
L 86.81362 81.668082 
L 87.038242 79.562554 
L 87.113116 80.28462 
L 87.187991 79.572808 
L 87.262865 80.078681 
L 87.337739 79.687313 
L 87.487487 78.073986 
L 87.562362 77.974862 
L 87.637236 78.176528 
L 87.71211 79.717221 
L 87.786984 78.896885 
L 87.936733 75.14214 
L 88.011607 76.47604 
L 88.236229 75.341242 
L 88.311104 76.566619 
L 88.385978 76.472622 
L 88.460852 75.920604 
L 88.535726 77.436517 
L 88.6106 75.883006 
L 88.685475 77.334829 
L 88.835223 74.65592 
L 88.910097 75.414731 
L 89.059846 76.350426 
L 89.209594 73.221187 
L 89.284468 75.505309 
L 89.434217 72.029991 
L 89.509091 72.082971 
L 89.583965 72.304291 
L 89.808588 74.902875 
L 89.883462 74.721718 
L 89.958336 73.142571 
L 90.03321 73.672372 
L 90.182959 73.562139 
L 90.407581 70.111602 
L 90.55733 71.754837 
L 90.632204 71.159239 
L 90.707078 71.419866 
L 90.781952 71.224182 
L 90.856827 70.25516 
L 90.931701 70.516642 
L 91.081449 70.679 
L 91.156323 70.655929 
L 91.231198 68.924678 
L 91.380946 71.412176 
L 91.45582 69.875755 
L 91.530694 72.423069 
L 91.605569 70.232088 
L 91.680443 70.60893 
L 91.755317 72.129115 
L 91.830191 70.021023 
L 91.905065 70.068021 
L 92.054814 68.581163 
L 92.129688 69.717669 
L 92.204562 69.276739 
L 92.279436 69.564711 
L 92.354311 69.379281 
L 92.429185 69.756123 
L 92.578933 68.091525 
L 92.653807 69.352791 
L 92.728682 69.339119 
L 92.803556 66.582449 
L 92.87843 67.19001 
L 92.953304 67.070377 
L 93.028178 66.732843 
L 93.103053 70.166291 
L 93.177927 69.081909 
L 93.252801 67.783044 
L 93.327675 67.814661 
L 93.402549 67.292552 
L 93.552298 64.545281 
L 93.627172 64.969122 
L 93.702046 64.443594 
L 93.851795 65.327164 
L 94.001543 64.270127 
L 94.076417 65.633081 
L 94.151292 65.421161 
L 94.226166 63.449791 
L 94.30104 64.462393 
L 94.525663 63.31136 
L 94.675411 63.427574 
L 94.750285 63.221635 
L 94.974908 61.842446 
L 95.049782 61.267356 
L 95.124656 62.771305 
L 95.274405 61.542511 
L 95.349279 62.941354 
L 95.424153 62.314139 
L 95.573901 62.151781 
L 95.648776 59.904403 
L 95.72365 61.977459 
L 95.798524 61.847573 
L 95.873398 61.395534 
L 95.948272 62.292776 
L 96.023147 61.892008 
L 96.172895 59.571141 
L 96.247769 60.572634 
L 96.322643 59.994981 
L 96.397518 60.587161 
L 96.472392 60.152212 
L 96.547266 61.264793 
L 96.62214 60.521363 
L 96.697014 60.946058 
L 96.771889 59.505343 
L 96.846763 59.809551 
L 96.921637 60.471801 
L 96.996511 60.248773 
L 97.071385 59.823223 
L 97.14626 60.097523 
L 97.221134 59.01656 
L 97.296008 59.51987 
L 97.370882 59.947983 
L 97.445756 59.00716 
L 97.745253 60.517945 
L 97.820127 60.461547 
L 98.119624 59.126793 
L 98.194498 60.384641 
L 98.344247 59.451509 
L 98.493995 60.242791 
L 98.56887 58.448306 
L 98.643744 59.284878 
L 98.793492 59.003742 
L 98.868366 59.60874 
L 99.092989 57.762984 
L 99.242737 58.975543 
L 99.317612 58.811476 
L 99.392486 58.336365 
L 99.542234 59.090903 
L 99.617108 58.459415 
L 99.691983 58.627755 
L 99.766857 58.988361 
L 99.841731 60.913586 
L 99.916605 60.709357 
L 100.066354 60.294062 
L 100.141228 61.059709 
L 100.290976 59.519016 
L 100.440725 59.573705 
L 100.590473 58.117609 
L 100.665347 58.321838 
L 100.740221 58.044975 
L 100.815096 59.348112 
L 101.039718 55.778797 
L 101.264341 57.721968 
L 101.339215 58.129572 
L 101.563838 57.077662 
L 101.713586 57.762984 
L 101.78846 56.788836 
L 101.863334 57.035791 
L 101.938209 57.870653 
L 102.013083 57.052881 
L 102.087957 60.382932 
L 102.162831 59.308805 
L 102.237705 56.532481 
L 102.31258 56.570079 
L 102.387454 57.16995 
L 102.462328 56.850361 
L 102.537202 55.922356 
L 102.686951 58.215878 
L 102.761825 58.377382 
L 102.836699 56.290652 
L 102.911573 57.021264 
L 102.986448 57.269074 
L 103.136196 55.564313 
L 103.21107 55.683091 
L 103.285944 56.362432 
L 103.360819 55.695054 
L 103.435693 57.295564 
L 103.510567 56.989647 
L 103.73519 55.471171 
L 103.810064 55.913811 
L 103.884938 55.166109 
L 103.959812 55.417337 
L 104.109561 56.293216 
L 104.184435 55.961664 
L 104.334183 57.06399 
L 104.409057 56.266726 
L 104.483932 56.670912 
L 104.63368 55.501934 
L 104.708554 55.910393 
L 104.858303 55.295141 
L 105.008051 56.103513 
L 105.082925 55.775379 
L 105.232674 56.026607 
L 105.307548 56.767473 
L 105.53217 53.845026 
L 105.607045 57.022973 
L 105.681919 56.872578 
L 105.756793 57.403233 
L 105.906541 60.000963 
L 105.981416 60.975966 
L 106.05629 60.504273 
L 106.131164 60.714484 
L 106.280912 57.539101 
L 106.355787 57.654461 
L 106.430661 57.046045 
L 106.505535 57.410069 
L 106.580409 60.400022 
L 106.655283 58.997761 
L 106.730158 57.471594 
L 106.95478 58.745678 
L 107.029654 58.531195 
L 107.254277 56.075314 
L 107.329151 56.093259 
L 107.4789 56.732437 
L 107.703522 55.87963 
L 107.778397 55.793324 
L 107.928145 57.856127 
L 108.003019 56.934958 
L 108.077893 56.84267 
L 108.152768 56.278689 
L 108.227642 56.658949 
L 108.302516 58.244077 
L 108.37739 55.530133 
L 108.527139 59.7147 
L 108.602013 58.585029 
L 108.676887 57.253692 
L 108.751761 57.87749 
L 108.826635 58.608101 
L 108.90151 58.479924 
L 108.976384 55.965936 
L 109.051258 56.470955 
L 109.126132 56.653822 
L 109.201006 55.78307 
L 109.275881 56.491464 
L 109.350755 56.086423 
L 109.500503 54.52693 
L 109.650252 58.003103 
L 109.874874 54.671344 
L 109.949748 55.828359 
L 110.024623 55.743762 
L 110.249245 55.050749 
L 110.473868 55.652329 
L 110.623616 56.693984 
L 110.773365 55.543805 
L 110.848239 57.725386 
L 110.997987 54.318428 
L 111.22261 58.275694 
L 111.297484 58.589302 
L 111.447232 57.79631 
L 111.522107 58.373964 
L 111.596981 58.151789 
L 111.671855 57.85869 
L 111.746729 58.218442 
L 111.821603 54.768759 
L 112.046226 60.375241 
L 112.1211 59.057577 
L 112.345723 57.193876 
L 112.570346 59.600195 
L 112.64522 58.057792 
L 112.720094 58.341492 
L 112.794968 57.459631 
L 113.019591 59.818096 
L 113.169339 58.688426 
L 113.319088 59.876203 
L 113.393962 58.913163 
L 113.468836 56.272708 
L 113.54371 58.581611 
L 113.618584 56.881123 
L 113.693459 59.47629 
L 113.768333 58.746533 
L 113.843207 58.806349 
L 113.918081 57.219512 
L 113.992955 58.971271 
L 114.06783 58.050102 
L 114.292452 60.629032 
L 114.367326 59.801006 
L 114.517075 60.423949 
L 114.666823 57.504066 
L 114.816572 60.44873 
L 114.891446 59.011433 
L 114.96632 59.347258 
L 115.041194 58.989215 
L 115.116068 59.084067 
L 115.265817 59.609594 
L 115.415565 59.136192 
L 115.490439 59.225916 
L 115.565314 59.401092 
L 115.640188 60.770028 
L 115.939685 57.691205 
L 116.239181 59.629248 
L 116.38893 57.579263 
L 116.463804 57.815964 
L 116.538678 57.742476 
L 116.613552 56.364995 
L 116.763301 57.940724 
L 116.838175 56.82558 
L 116.913049 57.375888 
L 116.987924 55.672837 
L 117.062798 56.126585 
L 117.137672 57.0469 
L 117.212546 56.709366 
L 117.28742 56.861469 
L 117.437169 58.457706 
L 117.586917 56.535899 
L 117.661791 55.054167 
L 117.81154 60.173575 
L 117.886414 58.879837 
L 117.961288 57.210967 
L 118.036162 58.764478 
L 118.260785 53.97064 
L 118.335659 54.462842 
L 118.410533 54.229559 
L 118.485408 53.50322 
L 118.71003 55.622421 
L 118.859779 53.663014 
L 119.009527 54.444897 
L 119.084401 53.153723 
L 119.458772 56.299198 
L 119.533646 55.254124 
L 119.608521 55.648911 
L 119.758269 54.334664 
L 119.908017 55.79076 
L 120.057766 55.178072 
L 120.282388 55.388283 
L 120.357263 54.391917 
L 120.507011 56.784563 
L 120.581885 56.758073 
L 120.731634 57.824509 
L 120.806508 57.104152 
L 120.881382 57.316072 
L 120.956256 57.21353 
L 121.03113 57.313509 
L 121.106005 58.087701 
L 121.180879 58.08001 
L 121.704998 54.122744 
L 121.779873 54.117617 
L 122.004495 56.308597 
L 122.079369 55.130219 
L 122.154244 55.628402 
L 122.229118 58.250059 
L 122.528615 54.476514 
L 122.828111 51.765988 
L 122.902986 52.007816 
L 122.97786 51.983035 
L 123.052734 51.905274 
L 123.202482 50.291092 
L 123.277357 49.813418 
L 123.352231 50.696988 
L 123.427105 50.473959 
L 123.501979 50.146679 
L 123.726602 51.818113 
L 123.801476 51.204571 
L 123.951224 52.516253 
L 124.026099 51.499379 
L 124.175847 53.645924 
L 124.250721 52.907622 
L 124.325595 52.298352 
L 124.550218 55.929192 
L 124.774841 49.956122 
L 124.924589 53.415205 
L 124.999463 52.638449 
L 125.224086 51.635247 
L 125.29896 53.297281 
L 125.448708 52.322278 
L 125.523583 52.921294 
L 125.598457 51.771969 
L 125.82308 54.069764 
L 125.972828 52.412002 
L 126.047702 51.953127 
L 126.122576 52.216318 
L 126.197451 51.078957 
L 126.272325 51.552359 
L 126.347199 51.09861 
L 126.422073 51.243024 
L 126.496947 51.613884 
L 126.72157 54.550857 
L 126.796444 57.821946 
L 126.871318 56.542735 
L 126.946193 55.490825 
L 127.021067 52.843533 
L 127.095941 53.576708 
L 127.170815 53.364788 
L 127.245689 54.388499 
L 127.395438 53.37077 
L 127.470312 53.302408 
L 127.62006 54.197087 
L 127.694935 53.521165 
L 127.769809 54.194524 
L 127.844683 54.092836 
L 127.994431 53.904843 
L 128.14418 51.242169 
L 128.219054 53.614307 
L 128.293928 53.26481 
L 128.368802 53.519456 
L 128.443677 52.565815 
L 128.518551 54.056092 
L 128.593425 53.853572 
L 128.743173 54.844811 
L 128.818048 54.796958 
L 128.892922 53.363934 
L 128.967796 56.378668 
L 129.04267 55.859122 
L 129.117544 55.563459 
L 129.192419 52.854642 
L 129.267293 53.392133 
L 129.342167 53.355388 
L 129.417041 53.501511 
L 129.791412 50.57821 
L 129.866286 50.520957 
L 129.941161 50.071482 
L 130.016035 53.167395 
L 130.090909 52.576069 
L 130.165783 53.842463 
L 130.240657 52.698265 
L 130.540154 58.489323 
L 130.615029 54.831993 
L 130.689903 54.910608 
L 130.764777 54.432079 
L 130.914525 52.321424 
L 130.9894 53.070834 
L 131.064274 52.68972 
L 131.214022 48.985391 
L 131.288896 50.336382 
L 131.438645 48.566678 
L 131.588393 52.485491 
L 131.663267 53.173376 
L 131.88789 58.50385 
L 131.962764 58.820021 
L 132.037638 58.610665 
L 132.112513 58.867874 
L 132.262261 58.222714 
L 132.561758 51.713862 
L 132.78638 48.276997 
L 132.861255 48.370139 
L 133.011003 49.05888 
L 133.085877 48.7316 
L 133.385374 53.297281 
L 133.535122 59.877913 
L 133.609997 58.505559 
L 133.684871 58.567084 
L 133.909493 60.361569 
L 133.984368 59.911239 
L 134.283864 50.589319 
L 134.508487 45.190484 
L 134.583361 46.290246 
L 134.658235 44.443636 
L 135.107481 58.886673 
L 135.182355 61.146015 
L 135.257229 59.903548 
L 135.332103 60.928113 
L 135.481852 59.186609 
L 136.005971 48.328268 
L 136.080845 47.615601 
L 136.15572 49.120405 
L 136.230594 48.655548 
L 136.530091 52.555561 
L 136.604965 52.499163 
L 136.829587 62.661073 
L 136.904462 62.561094 
L 137.05421 61.787757 
L 137.203958 56.289798 
L 137.278833 55.745471 
L 137.653204 45.742501 
L 137.728078 46.682469 
L 137.877826 51.721553 
L 137.9527 51.394273 
L 138.027575 55.28745 
L 138.102449 55.245579 
L 138.47682 60.480347 
L 138.626568 59.753153 
L 139.075813 48.611968 
L 139.150688 48.177873 
L 139.225562 48.467554 
L 139.300436 49.961249 
L 139.37531 49.365651 
L 139.525059 51.189189 
L 139.599933 50.321855 
L 139.674807 56.754655 
L 139.749681 56.5077 
L 139.824556 57.672406 
L 139.89943 57.647625 
L 139.974304 57.0375 
L 140.124052 57.77922 
L 140.198927 57.382724 
L 140.273801 59.961655 
L 140.498423 53.86468 
L 140.723046 50.835419 
L 140.79792 49.098187 
L 140.872794 49.73822 
L 140.947669 49.141768 
L 141.396914 59.057577 
L 141.471788 57.776657 
L 141.546662 57.303254 
L 141.621536 57.399815 
L 141.696411 57.749312 
L 141.771285 59.084067 
L 142.145656 50.391925 
L 142.445153 51.577994 
L 142.594901 54.369699 
L 142.669775 54.797812 
L 142.744649 54.454297 
L 142.819524 57.184477 
L 142.894398 57.084498 
L 142.969272 57.283601 
L 143.044146 57.230621 
L 143.193895 57.175931 
L 143.418517 51.695917 
L 143.493391 52.637595 
L 143.64314 52.601705 
L 143.718014 51.9386 
L 143.792888 52.187264 
L 143.867762 54.352609 
L 143.942637 53.915951 
L 144.017511 52.570942 
L 144.167259 54.848229 
L 144.242134 54.499586 
L 144.317008 54.209905 
L 144.391882 55.866812 
L 144.466756 55.322485 
L 144.616505 54.919154 
L 144.766253 56.184692 
L 144.841127 57.399815 
L 144.916001 54.546584 
L 144.990876 55.492534 
L 145.06575 55.125092 
L 145.290372 52.724755 
L 145.440121 52.247935 
L 145.514995 52.746973 
L 145.739618 55.570295 
L 145.814492 55.619857 
L 145.96424 55.848013 
L 146.039114 55.122528 
L 146.113989 55.191744 
L 146.188863 55.962518 
L 146.263737 55.38572 
L 146.338611 57.151151 
L 146.413485 56.961448 
L 146.563234 54.937098 
L 146.638108 54.938807 
L 146.787856 53.299845 
L 146.937605 54.111636 
L 147.087353 53.714285 
L 147.162227 53.868098 
L 147.237102 55.006314 
L 147.311976 54.553421 
L 147.536598 56.840107 
L 147.611473 56.488046 
L 147.761221 59.238734 
L 147.985844 56.739274 
L 148.060718 57.097316 
L 148.135592 56.919577 
L 148.210466 57.163114 
L 148.28534 54.97897 
L 148.360215 56.605115 
L 148.435089 56.477792 
L 148.509963 56.511972 
L 148.884334 59.06014 
L 148.959208 58.739697 
L 149.108957 59.726663 
L 149.183831 59.20199 
L 149.483328 55.701891 
L 149.558202 55.793324 
L 149.70795 58.344055 
L 149.782825 56.384649 
L 149.857699 57.114406 
L 149.932573 56.936667 
L 150.007447 58.54743 
L 150.23207 55.47288 
L 150.456692 59.093466 
L 150.606441 57.710004 
L 150.681315 57.708295 
L 150.831063 60.159048 
L 150.905938 59.628394 
L 151.205434 59.098594 
L 151.280309 60.451293 
L 151.355183 59.848859 
L 151.430057 59.740335 
L 151.504931 61.621981 
L 151.579805 61.307519 
L 151.65468 61.068254 
L 151.729554 61.512602 
L 151.804428 61.340845 
L 151.879302 61.122943 
L 151.954176 60.277826 
L 152.029051 60.499146 
L 152.103925 60.631596 
L 152.253673 59.565159 
L 152.403422 61.757849 
L 152.55317 61.168232 
L 152.702918 62.06462 
L 152.852667 59.711282 
L 153.002415 61.11098 
L 153.07729 60.693976 
L 153.152164 59.248988 
L 153.227038 59.764262 
L 153.451661 62.984934 
L 153.526535 63.37203 
L 153.751157 60.220574 
L 153.900906 62.420953 
L 153.97578 62.433771 
L 154.125528 61.387843 
L 154.200403 61.234885 
L 154.275277 60.61536 
L 154.350151 60.951185 
L 154.649648 64.911869 
L 154.724522 64.981085 
L 154.799396 64.40685 
L 154.949145 65.596337 
L 155.024019 63.933448 
L 155.248641 65.55532 
L 155.323516 64.37096 
L 155.39839 65.240003 
L 155.623012 63.208818 
L 155.697887 64.73242 
L 155.772761 64.245346 
L 155.847635 64.113751 
L 155.922509 63.428428 
L 155.997383 65.370744 
L 156.072258 64.590571 
L 156.147132 64.604243 
L 156.222006 63.531825 
L 156.29688 63.771944 
L 156.371754 66.069739 
L 156.446629 65.318619 
L 156.521503 65.427142 
L 156.671251 66.648246 
L 156.746125 65.045174 
L 156.895874 66.240642 
L 156.970748 64.373524 
L 157.045622 64.425649 
L 157.120496 66.110756 
L 157.195371 64.329089 
L 157.270245 64.526482 
L 157.419993 63.881322 
L 157.494867 65.099008 
L 157.71949 62.846503 
L 157.794364 63.179764 
L 157.869239 64.635006 
L 157.944113 64.607661 
L 158.093861 66.543141 
L 158.168735 66.135536 
L 158.318484 62.390191 
L 158.468232 62.048384 
L 158.543106 62.376519 
L 158.617981 63.82236 
L 158.692855 63.722382 
L 158.842603 64.07017 
L 158.917477 64.269273 
L 158.992352 64.099224 
L 159.067226 64.288072 
L 159.216974 65.379289 
L 159.366723 64.404286 
L 159.516471 65.523703 
L 159.591345 65.505758 
L 159.666219 65.991978 
L 159.890842 64.664059 
L 159.965716 65.583519 
L 160.04059 64.478629 
L 160.265213 66.743952 
L 160.414961 61.586091 
L 160.56471 64.241074 
L 160.639584 63.889013 
L 160.864207 66.179971 
L 161.163703 64.699094 
L 161.238578 65.439106 
L 161.313452 65.113535 
L 161.4632 66.114174 
L 161.687823 64.541863 
L 161.762697 64.634151 
L 161.837571 64.965703 
L 161.98732 63.83176 
L 162.062194 65.252821 
L 162.137068 63.651457 
L 162.286817 66.171426 
L 162.361691 65.963779 
L 162.436565 64.978521 
L 162.511439 65.067391 
L 162.661188 66.324385 
L 162.736062 71.482246 
L 162.88581 67.927457 
L 162.960684 67.932585 
L 163.035559 69.458751 
L 163.110433 69.205814 
L 163.185307 69.500622 
L 163.260181 68.895625 
L 163.484804 65.333146 
L 163.634552 66.559377 
L 163.709426 66.082556 
L 164.008923 69.216923 
L 164.083797 68.129123 
L 164.158672 68.270119 
L 164.30842 72.740949 
L 164.383294 72.123988 
L 164.458168 72.160732 
L 164.533043 73.733042 
L 164.607917 73.357055 
L 164.832539 68.999876 
L 164.907414 69.521985 
L 165.057162 66.069739 
L 165.132036 66.271405 
L 165.20691 66.046667 
L 165.356659 67.530962 
L 165.73103 73.444216 
L 165.955652 76.349572 
L 166.030527 75.58307 
L 166.105401 77.526241 
L 166.330023 73.932999 
L 166.404898 73.641609 
L 166.62952 66.38591 
L 166.704394 66.496997 
L 166.779269 65.153697 
L 167.003891 71.335269 
L 167.078766 70.303868 
L 167.228514 72.440159 
L 167.378262 71.963339 
L 167.677759 78.390157 
L 167.902382 73.886855 
L 168.05213 72.542701 
L 168.201879 73.680062 
L 168.276753 72.710186 
L 168.351627 73.324583 
L 168.426501 73.297239 
L 168.501375 73.040029 
L 168.57625 72.061608 
L 168.950621 77.578366 
L 169.025495 77.433099 
L 169.175243 78.412374 
L 169.250117 77.68689 
L 169.324992 78.218399 
L 169.399866 77.657836 
L 169.47474 78.588405 
L 169.699363 75.321588 
L 169.774237 75.448911 
L 169.923985 74.731972 
L 170.148608 76.877663 
L 170.298356 77.885138 
L 170.37323 77.994516 
L 170.672727 82.244881 
L 170.747601 80.083809 
L 170.89735 81.679191 
L 171.121972 79.379687 
L 171.196847 79.953922 
L 171.346595 78.238908 
L 171.421469 78.906285 
L 171.496344 77.927864 
L 171.571218 78.044078 
L 171.646092 78.065441 
L 171.720966 76.799047 
L 172.020463 80.123116 
L 172.095337 84.304265 
L 172.170211 83.963313 
L 172.245086 84.847738 
L 172.31996 84.629836 
L 172.394834 84.497386 
L 172.469708 82.313242 
L 172.544582 82.440565 
L 172.769205 78.636258 
L 172.844079 80.372635 
L 172.918953 79.071207 
L 173.143576 80.500813 
L 173.21845 80.601646 
L 173.293324 81.76806 
L 173.368199 81.656973 
L 173.443073 80.731532 
L 173.592821 83.324989 
L 173.667695 82.371349 
L 173.817444 80.99045 
L 173.892318 83.906915 
L 173.967192 83.09427 
L 174.116941 82.244026 
L 174.266689 78.389302 
L 174.416437 81.003268 
L 174.491312 79.799255 
L 174.715934 81.624502 
L 174.865683 80.57601 
L 175.165179 84.687089 
L 175.240054 84.586256 
L 175.314928 84.724687 
L 175.389802 82.506363 
L 175.464676 82.524308 
L 175.53955 82.262825 
L 175.614425 84.055601 
L 175.689299 83.847954 
L 175.839047 80.745204 
L 175.913922 80.810148 
L 176.06367 82.532853 
L 176.138544 84.347846 
L 176.288293 81.461289 
L 176.363167 81.070775 
L 176.587789 87.52152 
L 176.662664 87.405306 
L 176.737538 88.828075 
L 176.887286 86.548225 
L 176.96216 86.640513 
L 177.111909 89.29635 
L 177.336531 83.993221 
L 177.710902 87.025046 
L 177.860651 88.176934 
L 177.935525 87.168604 
L 178.160148 91.230976 
L 178.235022 89.911602 
L 178.309896 91.089126 
L 178.38477 94.176494 
L 178.459644 90.451657 
L 178.534519 91.592436 
L 178.684267 87.762493 
L 178.834015 89.203208 
L 179.133512 86.43372 
L 179.208386 87.301909 
L 179.433009 89.725318 
L 179.507883 91.758212 
L 179.582757 91.749667 
L 179.732506 92.963081 
L 179.80738 95.301038 
L 179.882254 94.995975 
L 180.032003 94.484974 
L 180.106877 95.238658 
L 180.181751 94.698603 
L 180.256625 92.766542 
L 180.331499 93.377521 
L 180.481248 92.366628 
L 180.556122 92.587093 
L 180.780745 90.329461 
L 181.005367 94.931886 
L 181.22999 98.571272 
L 181.304864 98.705431 
L 181.379738 100.883593 
L 181.454613 100.147 
L 181.529487 99.530894 
L 181.679235 96.398237 
L 181.754109 96.63921 
L 181.828984 97.410839 
L 182.053606 92.922918 
L 182.12848 91.270283 
L 182.353103 93.75949 
L 182.577726 95.009647 
L 182.802348 99.046383 
L 182.877222 98.837881 
L 182.952097 95.51723 
L 183.026971 95.785548 
L 183.176719 98.677232 
L 183.251593 98.383278 
L 183.401342 94.619988 
L 183.55109 96.17948 
L 183.625964 94.311507 
L 183.700839 94.506337 
L 183.850587 98.578963 
L 183.925461 98.40635 
L 184.000335 97.415111 
L 184.224958 99.757341 
L 184.299832 99.947043 
L 184.524455 103.535158 
L 184.674203 100.73149 
L 184.749077 101.061333 
L 184.9737 99.559093 
L 185.048574 99.661635 
L 185.123449 99.283939 
L 185.273197 94.856689 
L 185.348071 99.576183 
L 185.422945 97.793662 
L 185.49782 101.252745 
L 185.572694 100.439245 
L 185.647568 100.423009 
L 185.722442 99.905172 
L 185.797316 105.415094 
L 185.872191 102.040609 
L 186.021939 106.08589 
L 186.096813 105.495419 
L 186.171687 105.839789 
L 186.246562 105.640687 
L 186.39631 103.0891 
L 186.471184 102.874617 
L 186.546058 104.642611 
L 186.620933 102.823346 
L 186.695807 105.331352 
L 186.770681 102.783184 
L 186.845555 104.074358 
L 186.920429 102.113243 
L 187.219926 107.184798 
L 187.519423 106.14656 
L 187.594297 106.154251 
L 187.669171 104.83146 
L 187.744046 106.214922 
L 187.893794 104.581941 
L 187.968668 104.091448 
L 188.118417 104.749426 
L 188.193291 104.185445 
L 188.343039 105.747501 
L 188.567662 102.425141 
L 188.71741 106.573819 
L 188.792284 107.122418 
L 188.867159 105.21001 
L 189.016907 107.160017 
L 189.091781 106.389243 
L 189.166655 106.5704 
L 189.316404 106.257647 
L 189.615901 102.584081 
L 189.690775 103.466797 
L 189.915398 105.44073 
L 189.990272 103.896619 
L 190.065146 104.195699 
L 190.14002 106.132034 
L 190.214894 105.882515 
L 190.289769 105.72272 
L 190.514391 108.776762 
L 190.589265 106.693451 
L 190.66414 109.667168 
L 190.813888 104.791297 
L 190.888762 105.472347 
L 191.113385 110.348218 
L 191.188259 109.019445 
L 191.338007 104.190572 
L 191.56263 109.7962 
L 191.637504 108.979282 
L 191.787253 115.182217 
L 191.862127 114.826738 
L 192.011875 111.034394 
L 192.086749 111.582139 
L 192.161624 114.729324 
L 192.236498 114.450751 
L 192.311372 113.440713 
L 192.386246 113.756029 
L 192.46112 113.483439 
L 192.535995 111.590685 
L 192.610869 111.925655 
L 192.835491 113.509929 
L 192.910366 113.021145 
L 193.209862 116.792981 
L 193.284737 115.727399 
L 193.584233 119.56076 
L 193.659108 117.25442 
L 193.733982 117.686805 
L 193.808856 118.260186 
L 193.958604 120.547726 
L 194.183227 114.97457 
L 194.258101 115.148037 
L 194.707347 119.979473 
L 194.857095 121.268938 
L 194.931969 120.668213 
L 195.006843 122.159344 
L 195.081718 120.931404 
L 195.156592 121.485131 
L 195.231466 122.414845 
L 195.30634 121.714141 
L 195.456089 124.311017 
L 195.530963 124.696403 
L 195.755585 123.013861 
L 195.905334 124.096533 
L 196.055082 122.364428 
L 196.129956 123.300124 
L 196.204831 125.662007 
L 196.429453 121.075817 
L 196.504327 122.323411 
L 196.579202 125.758567 
L 196.878698 119.629121 
L 196.953573 122.496878 
L 197.028447 119.728245 
L 197.178195 128.299045 
L 197.253069 128.06918 
L 197.402818 122.812195 
L 197.477692 122.699399 
L 197.552566 129.336428 
L 197.62744 129.15527 
L 197.702315 125.509049 
L 197.777189 125.523575 
L 197.852063 125.848292 
L 198.001811 123.289015 
L 198.076686 123.339431 
L 198.15156 122.556694 
L 198.226434 126.746388 
L 198.301308 126.667773 
L 198.525931 127.858114 
L 198.600805 127.554761 
L 198.675679 127.236026 
L 198.750554 126.113192 
L 198.900302 130.842086 
L 198.975176 131.313779 
L 199.05005 131.08135 
L 199.124925 130.002951 
L 199.199799 132.099934 
L 199.274673 131.805126 
L 199.349547 131.632514 
L 199.499296 127.797444 
L 199.649044 129.715833 
L 199.723918 128.826281 
L 199.798792 131.737619 
L 199.873667 128.886098 
L 199.948541 129.870501 
L 200.023415 129.425298 
L 200.098289 131.180474 
L 200.173163 130.172999 
L 200.47266 135.575252 
L 200.622409 133.362909 
L 200.697283 134.500271 
L 200.772157 132.359707 
L 200.847031 133.025375 
L 200.921905 132.011064 
L 200.99678 132.270837 
L 201.071654 133.528686 
L 201.146528 133.219351 
L 201.221402 130.879685 
L 201.371151 134.35073 
L 201.446025 134.144792 
L 201.595773 134.559232 
L 201.820396 139.511155 
L 201.89527 138.678002 
L 201.970144 140.912562 
L 202.045018 139.691458 
L 202.194767 143.180449 
L 202.269641 142.12683 
L 202.344515 139.957213 
L 202.419389 140.652789 
L 202.494264 139.76751 
L 202.569138 139.775201 
L 202.644012 141.819204 
L 202.718886 141.025358 
L 202.79376 137.757687 
L 202.868635 142.025997 
L 202.943509 141.990107 
L 203.093257 143.40006 
L 203.168131 138.667747 
L 203.243006 142.353277 
L 203.31788 142.087522 
L 203.392754 142.31226 
L 203.617377 149.763644 
L 203.692251 148.854438 
L 203.767125 150.71472 
L 203.916874 147.362452 
L 203.991748 147.449613 
L 204.066622 147.842691 
L 204.21637 143.608562 
L 204.440993 151.54531 
L 204.515867 150.338733 
L 204.590741 150.589961 
L 204.815364 156.206698 
L 204.890238 154.213965 
L 204.965112 155.472668 
L 205.039987 155.318001 
L 205.114861 155.82302 
L 205.264609 163.8982 
L 205.489232 157.902058 
L 205.713854 165.420094 
L 205.788729 165.565362 
L 205.938477 164.277606 
L 206.237974 169.089388 
L 206.312848 168.710837 
L 206.537471 175.443572 
L 206.612345 176.789435 
L 206.687219 175.726417 
L 206.836967 178.872747 
L 206.911842 177.18764 
L 206.986716 177.479885 
L 207.211338 181.587545 
L 207.435961 178.030193 
L 207.510835 178.066937 
L 207.585709 178.471124 
L 207.660584 181.93277 
L 207.735458 181.423478 
L 207.885206 183.579423 
L 207.960081 182.835994 
L 208.034955 179.889621 
L 208.109829 180.81079 
L 208.184703 182.883847 
L 208.259577 182.248086 
L 208.409326 183.192327 
L 208.633948 179.463217 
L 208.708823 181.390152 
L 208.858571 179.195754 
L 208.933445 179.277787 
L 209.083194 176.223746 
L 209.158068 175.767434 
L 209.307816 172.502326 
L 209.38269 166.333572 
L 209.457565 167.50426 
L 209.532439 167.098364 
L 209.607313 170.872763 
L 209.831936 160.238306 
L 210.056558 152.213542 
L 210.206307 145.74058 
L 210.880174 94.827635 
L 211.853539 53.254555 
L 211.928413 52.361586 
L 212.003287 53.674978 
L 212.078162 52.758936 
L 212.153036 54.005675 
L 212.22791 52.549579 
L 212.527407 58.504705 
L 212.75203 82.628559 
L 213.725394 179.571741 
L 213.800268 178.921454 
L 214.024891 168.777489 
L 214.399262 122.309739 
L 214.848507 72.200894 
L 215.148004 50.988378 
L 215.297752 54.19196 
L 215.372627 52.29237 
L 215.447501 53.627125 
L 215.746998 71.972738 
L 215.97162 102.050008 
L 216.420865 166.5848 
L 216.645488 183.85885 
L 216.870111 166.932588 
L 217.469104 84.534985 
L 217.768601 65.431415 
L 218.068098 53.231484 
L 218.142972 52.205209 
L 218.217846 52.833279 
L 218.367595 58.863601 
L 218.741966 92.470879 
L 219.415834 183.826378 
L 219.490708 178.854802 
L 219.565582 178.428398 
L 219.640456 179.328204 
L 220.089701 123.274488 
L 220.389198 84.064146 
L 220.763569 61.057145 
L 221.063066 53.327189 
L 221.287689 56.403449 
L 221.362563 55.249851 
L 221.961557 113.574872 
L 222.635424 181.714868 
L 222.785173 178.516413 
L 223.08467 144.779249 
L 223.98316 59.99669 
L 224.132908 54.141544 
L 224.207783 54.151798 
L 224.282657 54.316719 
L 224.357531 49.840762 
L 224.432405 51.30284 
L 225.106273 95.298474 
L 225.40577 126.284095 
L 225.705267 165.614924 
L 225.780141 168.456191 
L 225.929889 183.097476 
L 226.528883 143.735885 
L 227.127877 80.18806 
L 227.651996 54.202214 
L 227.72687 54.228704 
L 227.801744 52.737573 
L 228.101241 72.151332 
L 228.550486 133.589356 
L 228.849983 176.496336 
L 228.924857 178.682189 
L 228.999732 177.759312 
L 229.074606 177.343162 
L 229.224354 162.14046 
L 229.823348 76.738377 
L 230.122845 59.506198 
L 230.347467 55.237888 
L 230.422341 55.866812 
L 230.57209 59.108848 
L 230.871587 89.259606 
L 231.47058 177.605499 
L 231.620329 181.608054 
L 231.844951 163.218005 
L 232.743442 53.131505 
L 232.818316 52.988801 
L 232.89319 52.596578 
L 232.968064 54.196233 
L 233.042939 53.232338 
L 233.342435 72.752912 
L 234.091177 174.745432 
L 234.240926 184.139131 
L 234.465548 168.938993 
L 234.765045 131.198419 
L 235.064542 88.701607 
L 235.438913 58.899491 
L 235.73841 52.784571 
L 235.888158 55.523297 
L 236.037907 61.085344 
L 236.6369 138.712182 
L 237.011271 175.761452 
L 237.086146 183.09833 
L 237.16102 180.73901 
L 237.385642 165.207319 
L 237.760013 116.937394 
L 238.05951 81.9552 
L 238.359007 62.033858 
L 238.658504 54.516676 
L 238.733378 56.509409 
L 238.808252 56.041988 
L 238.958001 59.477144 
L 239.107749 70.057767 
L 239.407246 94.477284 
L 240.081114 182.063511 
L 240.230862 180.120341 
L 240.305736 180.84497 
L 240.380611 177.127824 
L 241.054478 93.284379 
L 241.80322 54.170597 
L 241.878095 54.608964 
L 241.952969 52.781153 
L 242.027843 52.951202 
L 242.177591 59.107139 
L 243.001208 145.215907 
L 243.300704 176.349359 
L 243.450453 182.501878 
L 243.74995 165.955021 
L 244.573566 75.73432 
L 244.947937 55.913811 
L 245.097685 52.486345 
L 245.17256 52.545307 
L 245.247434 52.99051 
L 245.472056 58.614083 
L 246.145924 111.629992 
L 246.520295 159.571783 
L 246.670044 170.634353 
L 246.744918 179.217117 
L 246.819792 178.760805 
L 246.894666 182.071202 
L 247.044415 178.140426 
L 247.643408 118.6319 
L 248.017779 78.773835 
L 248.167528 69.743305 
L 248.467024 55.398537 
L 248.616773 52.993928 
L 248.691647 53.313517 
L 248.766521 52.515399 
L 249.066018 56.369268 
L 249.739886 103.768441 
L 250.114257 152.498096 
L 250.413754 177.45254 
L 250.488628 179.382893 
L 250.563502 178.495905 
L 250.638376 180.090432 
L 251.012747 155.566665 
L 251.23737 140.161442 
L 251.611741 96.699026 
L 251.986112 71.871905 
L 252.13586 66.479907 
L 252.360483 56.765764 
L 252.435357 57.374179 
L 252.510231 53.125524 
L 252.585106 54.162052 
L 252.65998 54.432934 
L 252.734854 55.595076 
L 252.809728 55.171236 
L 252.884602 55.014005 
L 253.258973 74.621739 
L 253.783093 121.492821 
L 254.08259 156.204134 
L 254.382087 179.998145 
L 254.456961 179.776825 
L 254.531835 184.482647 
L 254.831332 172.446783 
L 255.130829 145.046713 
L 255.954445 72.112879 
L 256.40369 53.162268 
L 256.478564 53.001619 
L 256.553438 53.074253 
L 256.628313 53.374188 
L 257.002684 68.204321 
L 258.125797 180.414294 
L 258.350419 173.038108 
L 258.575042 150.607906 
L 259.548407 62.417535 
L 259.922778 53.633961 
L 259.997652 53.047763 
L 260.072526 53.955259 
L 260.446897 70.456826 
L 260.67152 89.692846 
L 261.420262 171.149627 
L 261.57001 183.055605 
L 262.318752 109.33647 
L 262.618249 76.044509 
L 262.99262 56.709366 
L 263.292117 52.047978 
L 263.516739 57.375034 
L 264.115733 113.555218 
L 264.564978 170.819783 
L 264.789601 180.670649 
L 265.31372 142.009761 
L 265.613217 101.191219 
L 265.762965 86.684094 
L 266.062462 64.375233 
L 266.137336 62.823431 
L 266.361959 53.827082 
L 266.436833 53.351116 
L 266.586582 55.642074 
L 266.661456 55.241306 
L 266.73633 55.530133 
L 267.035827 71.680494 
L 267.335324 98.179903 
L 267.709695 144.610909 
L 267.784569 148.208424 
L 268.009192 167.869138 
L 268.308688 178.577938 
L 269.132305 103.203606 
L 269.431801 75.545472 
L 269.955921 53.66985 
L 270.030795 54.403026 
L 270.180543 51.248151 
L 270.48004 60.334224 
L 271.90265 177.674714 
L 271.977524 177.727694 
L 272.052399 178.365164 
L 272.277021 173.943896 
L 272.726266 128.659651 
L 272.801141 123.821379 
L 273.025763 93.738981 
L 273.549883 62.197925 
L 273.924254 55.617293 
L 273.999128 58.885819 
L 274.074002 58.05352 
L 274.22375 57.252838 
L 274.298625 57.532265 
L 274.448373 59.748881 
L 274.523247 61.127216 
L 275.122241 96.757988 
L 276.095606 174.524112 
L 276.320228 181.998568 
L 277.06897 151.077035 
L 277.59309 109.05448 
L 277.817712 92.047039 
L 278.117209 71.159239 
L 278.192083 71.249817 
L 278.865951 56.625623 
L 278.940825 56.098386 
L 279.090574 53.471603 
L 279.240322 52.409439 
L 279.315196 51.388292 
L 279.539819 54.734578 
L 279.614693 55.27805 
L 279.91419 61.933879 
L 280.213687 75.672795 
L 280.962429 109.681695 
L 281.3368 135.973457 
L 281.935793 166.98215 
L 282.010668 166.059272 
L 282.160416 172.883441 
L 282.310164 175.211144 
L 282.385039 181.282483 
L 282.459913 180.353624 
L 282.534787 180.369005 
L 282.684535 181.589254 
L 282.909158 176.899668 
L 282.984032 176.4895 
L 283.058906 172.065668 
L 283.133781 172.845842 
L 283.283529 171.288913 
L 283.358403 172.267334 
L 283.508152 160.48868 
L 283.583026 160.140037 
L 284.032271 138.853178 
L 284.107145 140.582719 
L 284.855887 112.831443 
L 284.930761 113.213411 
L 285.155384 97.789389 
L 285.380007 94.77551 
L 285.604629 86.450811 
L 285.679504 82.279061 
L 285.754378 82.910549 
L 285.829252 83.824882 
L 286.203623 77.602293 
L 286.278497 80.800748 
L 286.50312 71.790726 
L 286.952365 63.40792 
L 287.102113 60.2351 
L 287.176988 61.268211 
L 287.251862 60.12914 
L 287.701107 63.365194 
L 287.850855 62.225269 
L 288.000604 58.423526 
L 288.075478 58.915727 
L 288.150352 57.93816 
L 288.225226 58.962725 
L 288.524723 51.12681 
L 288.599597 51.029395 
L 288.674472 52.023197 
L 288.82422 51.125101 
L 288.899094 53.725394 
L 288.973968 53.070834 
L 289.048843 53.376751 
L 289.198591 57.926197 
L 289.273465 57.619426 
L 289.348339 57.749312 
L 289.423214 58.413271 
L 289.498088 56.714493 
L 289.572962 57.503211 
L 289.72271 55.589949 
L 289.872459 54.520094 
L 290.022207 52.126594 
L 290.097082 52.555561 
L 290.171956 52.158211 
L 290.321704 53.084507 
L 290.396578 53.099888 
L 290.546327 52.752954 
L 290.696075 53.638233 
L 290.770949 57.353671 
L 290.845824 55.945428 
L 290.920698 55.820668 
L 290.995572 57.15286 
L 291.070446 56.575206 
L 291.220195 55.607039 
L 291.369943 54.163761 
L 291.519691 53.683523 
L 291.744314 49.23491 
L 291.819188 49.575862 
L 292.118685 53.837336 
L 292.193559 54.171452 
L 292.418182 56.546153 
L 292.642804 57.321199 
L 292.792553 54.865319 
L 292.867427 55.733508 
L 292.942301 55.644638 
L 293.017175 54.040711 
L 293.09205 54.155216 
L 293.466421 51.194316 
L 293.541295 50.932834 
L 293.691043 53.133214 
L 293.765917 53.307536 
L 293.915666 57.12637 
L 293.99054 56.57777 
L 294.065414 57.023828 
L 294.140288 55.935174 
L 294.215163 57.328035 
L 294.290037 57.074244 
L 294.364911 57.701459 
L 294.814156 52.878568 
L 294.889031 54.302193 
L 294.963905 53.668141 
L 295.038779 53.134069 
L 295.338276 56.478646 
L 295.41315 55.955682 
L 295.488024 56.063351 
L 295.637773 56.756364 
L 295.712647 56.909322 
L 295.862395 55.856558 
L 295.937269 56.024898 
L 296.012144 56.279544 
L 296.161892 55.495952 
L 296.386515 55.865958 
L 296.461389 55.362648 
L 296.536263 55.59764 
L 296.611137 55.937737 
L 296.760886 54.162052 
L 297.135257 59.465181 
L 297.359879 56.517954 
L 297.434753 56.569225 
L 297.509628 56.317997 
L 297.584502 56.531626 
L 297.659376 55.927483 
L 297.809124 56.646986 
L 297.883999 56.870015 
L 297.958873 57.838182 
L 298.033747 56.994774 
L 298.108621 57.008446 
L 298.333244 58.457706 
L 298.408118 60.028307 
L 298.482992 59.801006 
L 298.557866 58.673044 
L 298.632741 58.984088 
L 298.707615 61.209249 
L 298.782489 60.053943 
L 298.857363 60.259027 
L 298.932238 61.21694 
L 299.007112 61.011001 
L 299.15686 58.951617 
L 299.381483 60.159048 
L 299.456357 60.106068 
L 299.606105 61.11098 
L 299.68098 60.667486 
L 299.755854 62.402154 
L 299.830728 61.355371 
L 299.905602 61.837319 
L 299.980476 62.446589 
L 300.055351 61.833046 
L 300.354847 73.163934 
L 300.504596 68.039399 
L 300.57947 63.124221 
L 300.729218 68.950314 
L 300.878967 63.618131 
L 300.953841 63.65573 
L 301.028715 64.30858 
L 301.103589 61.421169 
L 301.178464 62.687563 
L 301.328212 61.607454 
L 301.47796 63.22249 
L 301.552835 62.780705 
L 301.702583 64.479484 
L 301.777457 63.151565 
L 301.852331 63.366903 
L 301.927206 62.60382 
L 302.00208 64.071025 
L 302.076954 63.086622 
L 302.151828 64.901615 
L 302.226702 62.972971 
L 302.301577 64.008645 
L 302.376451 63.281452 
L 302.451325 63.530116 
L 302.675948 66.997744 
L 302.825696 64.639278 
L 302.90057 65.790312 
L 302.975444 65.181896 
L 303.050319 70.59953 
L 303.125193 69.438243 
L 303.42469 64.435049 
L 303.499564 65.500631 
L 303.574438 64.604243 
L 303.649312 64.779419 
L 303.724187 65.01612 
L 303.948809 66.755061 
L 304.023683 66.061194 
L 304.098558 67.827479 
L 304.248306 64.852053 
L 304.32318 64.964849 
L 304.398054 65.285293 
L 304.697551 69.736469 
L 304.772425 69.277593 
L 304.8473 69.627945 
L 304.922174 68.913569 
L 304.997048 69.8937 
L 305.071922 69.601455 
L 305.146796 68.165868 
L 305.221671 68.449567 
L 305.446293 66.077429 
L 305.521167 66.481616 
L 305.74579 69.168215 
L 305.820664 67.706992 
L 305.895538 69.432261 
L 305.970413 67.933439 
L 306.045287 68.000091 
L 306.269909 70.297032 
L 306.344784 70.267978 
L 306.419658 69.916772 
L 306.494532 71.732619 
L 306.719155 68.419659 
L 306.794029 68.03769 
L 306.943777 70.337194 
L 307.018651 69.864646 
L 307.093526 68.100924 
L 307.1684 68.407696 
L 307.393022 71.477119 
L 307.467897 71.741164 
L 307.542771 71.058406 
L 307.617645 71.467719 
L 307.842268 70.285923 
L 307.917142 70.34403 
L 308.06689 72.076135 
L 308.141765 70.585858 
L 308.216639 70.87383 
L 308.59101 69.517713 
L 308.665884 70.091948 
L 308.740758 68.222266 
L 308.815632 71.825762 
L 308.890507 70.922538 
L 309.115129 74.658484 
L 309.190003 71.845415 
L 309.264878 73.580084 
L 309.414626 71.391667 
L 309.4895 71.96932 
L 309.564374 69.915063 
L 309.639249 70.012478 
L 309.714123 69.034911 
L 309.788997 69.15967 
L 309.863871 69.335701 
L 310.088494 67.856533 
L 310.163368 67.66683 
L 310.313116 69.425425 
L 310.387991 69.471569 
L 310.612613 71.659131 
L 310.687487 71.183165 
L 310.762362 71.759964 
L 310.91211 75.019944 
L 310.986984 73.60401 
L 311.061858 74.639684 
L 311.286481 72.961414 
L 311.361355 73.125481 
L 311.585978 71.450629 
L 311.660852 71.28998 
L 311.735726 70.603803 
L 311.8106 67.868496 
L 311.885475 70.261142 
L 311.960349 70.174836 
L 312.259846 73.779186 
L 312.484468 77.588621 
L 312.559343 78.155165 
L 312.634217 77.726198 
L 312.709091 75.601015 
L 312.783965 75.765937 
L 312.858839 75.703557 
L 313.008588 75.202811 
L 313.308085 70.075712 
L 313.457833 72.294891 
L 313.532707 72.012901 
L 313.832204 76.116289 
L 314.056827 81.106665 
L 314.131701 79.608697 
L 314.206575 79.911196 
L 314.431198 77.664672 
L 314.506072 78.218399 
L 314.65582 77.646728 
L 314.730694 78.506371 
L 314.880443 75.743719 
L 314.955317 75.70783 
L 315.329688 81.145972 
L 315.404562 81.087865 
L 315.554311 84.723833 
L 315.704059 86.818253 
L 315.928682 83.785574 
L 316.003556 84.168397 
L 316.07843 84.082091 
L 316.153304 83.979549 
L 316.228178 83.676196 
L 316.303053 83.700977 
L 316.452801 85.329685 
L 316.527675 83.690722 
L 316.602549 84.699052 
L 316.752298 83.400187 
L 316.97692 91.434351 
L 317.051795 91.207904 
L 317.126669 88.799876 
L 317.276417 93.200636 
L 317.351292 92.774232 
L 317.50104 93.987646 
L 317.725663 88.229059 
L 317.800537 88.248713 
L 317.950285 92.211106 
L 318.100034 90.794318 
L 318.249782 92.434989 
L 318.324656 91.518093 
L 318.699027 98.566145 
L 318.773901 96.64861 
L 318.848776 97.937221 
L 318.998524 95.42836 
L 319.073398 96.402509 
L 319.223147 93.7142 
L 319.372895 95.798366 
L 319.447769 95.099372 
L 319.672392 90.562744 
L 319.82214 92.85712 
L 319.897014 92.104291 
L 320.121637 96.863094 
L 320.196511 96.862239 
L 320.34626 98.860099 
L 320.496008 97.451855 
L 320.570882 98.413186 
L 320.645756 98.34568 
L 320.720631 96.484543 
L 320.795505 97.59456 
L 320.945253 94.595207 
L 321.095002 96.604175 
L 321.169876 96.500779 
L 321.24475 97.360422 
L 321.319624 97.104922 
L 321.394498 96.63152 
L 321.469373 96.724662 
L 321.544247 98.633652 
L 321.619121 96.307658 
L 321.693995 96.529832 
L 322.068366 99.906881 
L 322.143241 100.081203 
L 322.292989 104.881021 
L 322.367863 103.634282 
L 322.442737 97.075014 
L 322.517612 98.870353 
L 322.742234 97.221136 
L 322.966857 100.967336 
L 323.041731 100.414464 
L 323.116605 100.60673 
L 323.191479 100.60673 
L 323.341228 102.544773 
L 323.416102 104.199117 
L 323.490976 103.661626 
L 323.56585 103.178825 
L 323.640725 103.272821 
L 323.790473 105.136522 
L 324.015096 101.096368 
L 324.08997 101.770582 
L 324.164844 103.741097 
L 324.239718 102.865217 
L 324.614089 108.010261 
L 324.688963 107.179671 
L 324.763838 104.746008 
L 324.838712 105.662049 
L 324.98846 112.12903 
L 325.063334 112.370004 
L 325.138209 112.176028 
L 325.213083 108.896394 
L 325.287957 111.743643 
L 325.362831 111.432599 
L 325.437705 109.706476 
L 325.51258 109.801327 
L 325.587454 110.063664 
L 325.737202 109.016027 
L 325.886951 111.690663 
L 326.036699 112.016234 
L 326.111573 111.361674 
L 326.336196 119.095048 
L 326.41107 114.330264 
L 326.485944 116.44092 
L 326.635693 119.504362 
L 326.710567 116.514408 
L 327.010064 121.39797 
L 327.084938 122.594293 
L 327.159812 121.809847 
L 327.384435 124.675041 
L 327.459309 124.890379 
L 327.983428 136.554528 
L 328.208051 142.087522 
L 328.282925 141.398782 
L 328.357799 140.058046 
L 328.582422 144.191342 
L 328.657296 143.769211 
L 328.73217 144.431461 
L 328.881919 148.721134 
L 328.956793 148.025557 
L 329.106541 144.766431 
L 329.331164 151.859772 
L 329.480912 154.587389 
L 329.555787 153.439773 
L 329.705535 156.222933 
L 329.780409 158.398532 
L 329.855283 157.132993 
L 330.005032 158.744611 
L 330.079906 158.47373 
L 330.15478 161.657658 
L 330.229654 161.595278 
L 330.304529 158.642924 
L 330.379403 158.718976 
L 330.6789 167.43248 
L 330.753774 164.907384 
L 330.903522 166.609581 
L 330.978397 165.353442 
L 331.128145 168.525407 
L 331.203019 168.233162 
L 331.352768 172.662121 
L 331.427642 170.805257 
L 331.502516 171.634992 
L 331.57739 172.445074 
L 331.652264 171.102628 
L 331.727139 171.946036 
L 331.802013 174.815502 
L 331.876887 174.567693 
L 331.951761 174.830029 
L 332.026635 174.101981 
L 332.10151 174.896681 
L 332.176384 173.438876 
L 332.251258 176.098132 
L 332.326132 175.766579 
L 332.475881 172.827043 
L 332.550755 176.437375 
L 332.625629 175.593112 
L 332.775377 172.623668 
L 333.074874 175.978499 
L 333.149748 174.77534 
L 333.299497 175.814432 
L 333.374371 175.6948 
L 333.449245 171.967399 
L 333.598994 178.045575 
L 333.748742 176.287834 
L 333.823616 176.876596 
L 333.973365 175.289759 
L 334.048239 175.806741 
L 334.197987 173.833663 
L 334.272861 174.160088 
L 334.347736 177.482448 
L 334.572358 172.67323 
L 334.647232 174.848829 
L 334.796981 171.63072 
L 334.871855 173.696086 
L 334.946729 171.438453 
L 335.021603 173.059471 
L 335.096478 172.43482 
L 335.171352 171.486306 
L 335.246226 172.181883 
L 335.3211 170.919762 
L 335.470849 171.693954 
L 335.695471 168.368176 
L 335.770346 168.649312 
L 335.84522 167.567494 
L 335.920094 171.035976 
L 335.994968 168.526261 
L 336.144717 170.906944 
L 336.294465 167.253032 
L 336.369339 167.357283 
L 336.444213 167.030858 
L 336.519088 170.250676 
L 336.74371 166.037909 
L 336.818584 165.381641 
L 336.893459 169.35087 
L 336.968333 167.914428 
L 337.043207 167.430771 
L 337.118081 163.698243 
L 337.192955 165.286789 
L 337.26783 163.514522 
L 337.342704 165.113323 
L 337.417578 163.499996 
L 337.567326 166.492512 
L 337.791949 162.36178 
L 337.941697 161.69013 
L 338.016572 164.018687 
L 338.091446 162.915506 
L 338.241194 161.205619 
L 338.316068 163.476069 
L 338.540691 158.724103 
L 338.615565 158.683086 
L 338.840188 164.201554 
L 339.06481 158.716412 
L 339.139685 159.199214 
L 339.364307 162.542937 
L 339.439181 162.004592 
L 339.58893 159.47095 
L 339.663804 159.096672 
L 339.813552 156.993707 
L 339.888427 159.464114 
L 339.963301 157.232972 
L 340.038175 158.491675 
L 340.113049 157.453437 
L 340.187924 159.80763 
L 340.262798 159.643563 
L 340.337672 160.675819 
L 340.412546 157.459419 
L 340.48742 158.539528 
L 340.562295 157.7397 
L 340.637169 158.212248 
L 340.786917 156.276768 
L 340.861791 158.953114 
L 340.936666 157.795244 
L 341.01154 158.959095 
L 341.086414 158.290863 
L 341.236162 154.934323 
L 341.311037 155.438487 
L 341.385911 157.41242 
L 341.535659 153.881558 
L 341.685408 157.187683 
L 341.760282 157.345768 
L 341.835156 158.425022 
L 341.91003 155.783712 
L 341.984904 157.273989 
L 342.059779 155.756367 
L 342.134653 156.269932 
L 342.209527 156.481852 
L 342.359275 157.967856 
L 342.509024 156.561322 
L 342.658772 153.439773 
L 342.883395 156.539959 
L 342.958269 154.260109 
L 343.033143 156.563031 
L 343.257766 151.353044 
L 343.33264 154.87707 
L 343.407514 153.743127 
L 343.482388 154.862543 
L 343.557263 153.597004 
L 343.781885 156.796314 
L 343.856759 153.88754 
L 343.931634 157.591869 
L 344.156256 150.667722 
L 344.23113 155.419688 
L 344.306005 154.397686 
L 344.530627 151.081308 
L 344.680376 154.795036 
L 344.75525 153.310741 
L 345.054747 156.825368 
L 345.129621 155.324837 
L 345.279369 157.445746 
L 345.354244 151.954624 
L 345.429118 153.203927 
L 345.503992 153.567951 
L 345.578866 155.846946 
L 345.65374 152.53484 
L 345.728615 153.673056 
L 345.803489 151.393206 
L 345.878363 152.516041 
L 345.953237 158.185758 
L 346.102986 152.008458 
L 346.17786 151.90848 
L 346.402482 154.525009 
L 346.627105 151.058236 
L 346.776853 154.965085 
L 346.926602 150.593379 
L 347.07635 156.305822 
L 347.151224 150.958258 
L 347.226099 153.406447 
L 347.300973 153.188546 
L 347.375847 150.059306 
L 347.450721 152.19047 
L 347.525595 151.588891 
L 347.60047 150.564325 
L 347.675344 150.842898 
L 347.750218 150.66174 
L 347.825092 150.959112 
L 347.899966 147.664951 
L 347.974841 150.842043 
L 348.049715 148.504086 
L 348.124589 152.552785 
L 348.199463 150.266099 
L 348.274337 151.261611 
L 348.349212 149.582486 
L 348.424086 151.212903 
L 348.49896 144.477605 
L 348.573834 150.015726 
L 348.648708 147.366725 
L 348.723583 146.647222 
L 348.798457 147.761512 
L 348.873331 147.065935 
L 349.02308 143.34708 
L 349.097954 146.536135 
L 349.172828 141.937982 
L 349.247702 128.265719 
L 349.397451 144.011893 
L 349.472325 144.316956 
L 349.622073 149.615812 
L 349.696947 149.430382 
L 349.771822 149.593595 
L 349.92157 147.659824 
L 349.996444 146.372922 
L 350.146193 149.251788 
L 350.370815 147.243675 
L 350.445689 149.236407 
L 350.520564 147.185567 
L 350.595438 149.42611 
L 350.745186 146.129385 
L 350.82006 149.748262 
L 350.894935 148.069992 
L 351.119557 151.380389 
L 351.194431 149.207353 
L 351.269306 150.830935 
L 351.34418 148.024703 
L 351.419054 148.426325 
L 351.493928 151.500021 
L 351.568802 151.194104 
L 351.643677 148.83393 
L 351.718551 150.089214 
L 351.793425 148.895455 
L 351.868299 149.995218 
L 352.018048 147.433377 
L 352.092922 147.576936 
L 352.167796 146.86256 
L 352.24267 148.309257 
L 352.467293 144.581856 
L 352.542167 146.020862 
L 352.76679 142.817279 
L 352.841664 144.921099 
L 352.991412 139.309489 
L 353.066286 147.484648 
L 353.216035 139.177894 
L 353.365783 147.359034 
L 353.515532 143.834154 
L 353.66528 147.061663 
L 353.740154 141.990962 
L 353.815029 147.122333 
L 353.889903 146.186638 
L 353.964777 145.170618 
L 354.039651 142.244753 
L 354.114525 144.719433 
L 354.264274 141.793569 
L 354.339148 142.780535 
L 354.414022 141.262914 
L 354.488896 141.911492 
L 354.563771 141.947382 
L 354.638645 136.796356 
L 354.863267 144.178524 
L 354.938142 147.020646 
L 355.013016 144.928789 
L 355.08789 148.669863 
L 355.162764 147.082171 
L 355.237638 142.930076 
L 355.312513 144.901445 
L 355.387387 144.536566 
L 355.462261 148.933908 
L 355.537135 148.091355 
L 355.761758 144.557075 
L 355.836632 144.784376 
L 355.98638 146.708747 
L 356.136129 146.353268 
L 356.360751 142.795916 
L 356.435626 146.178947 
L 356.5105 142.624159 
L 356.585374 144.440861 
L 356.660248 143.36417 
L 356.735122 150.319934 
L 356.809997 146.965102 
L 356.884871 145.216762 
L 356.959745 145.584204 
L 357.034619 145.611548 
L 357.109493 146.790781 
L 357.184368 146.55408 
L 357.334116 146.055897 
L 357.40899 144.101618 
L 357.558739 147.830727 
L 357.633613 147.248802 
L 357.708487 142.90444 
L 357.783361 146.948012 
L 357.858235 145.641456 
L 357.93311 145.000569 
L 358.007984 147.668369 
L 358.082858 147.456449 
L 358.307481 143.827318 
L 358.382355 144.747632 
L 358.457229 144.579292 
L 358.532103 145.1672 
L 358.606978 144.457096 
L 358.681852 144.909136 
L 358.756726 144.322083 
L 358.8316 147.36587 
L 358.906474 147.15395 
L 358.981349 146.44812 
L 359.131097 148.23235 
L 359.280845 145.94481 
L 359.35572 146.325069 
L 359.505468 143.573526 
L 359.580342 143.663251 
L 359.804965 146.930922 
L 359.954713 143.868335 
L 360.029587 143.91106 
L 360.25421 146.670294 
L 360.329084 147.391506 
L 360.478833 143.32059 
L 360.553707 142.897604 
L 360.628581 143.153959 
L 360.703455 148.425471 
L 360.778329 145.94481 
L 360.853204 147.436795 
L 360.928078 146.63355 
L 361.077826 143.754684 
L 361.227575 146.080678 
L 361.302449 141.571394 
L 361.377323 141.881584 
L 361.452197 143.400914 
L 361.527071 149.944801 
L 361.601946 145.004841 
L 361.67682 147.465849 
L 361.751694 143.48722 
L 361.901442 146.981338 
L 361.976317 146.394285 
L 362.051191 148.0905 
L 362.200939 145.911483 
L 362.350688 147.895671 
L 362.425562 146.347287 
L 362.500436 146.787363 
L 362.57531 146.174674 
L 362.725059 148.451961 
L 362.799933 147.273583 
L 362.949681 149.798679 
L 363.024556 147.901652 
L 363.09943 148.643373 
L 363.174304 147.369288 
L 363.249178 150.293444 
L 363.324052 149.289387 
L 363.398927 147.659824 
L 363.473801 148.985179 
L 363.548675 147.90507 
L 363.623549 148.969798 
L 363.698423 147.536774 
L 363.848172 148.409235 
L 363.99792 152.884338 
L 364.072794 148.67499 
L 364.147669 150.011453 
L 364.297417 147.506866 
L 364.372291 147.635043 
L 364.447165 147.104388 
L 364.52204 144.980915 
L 364.596914 148.20586 
L 364.671788 143.560709 
L 364.746662 144.785231 
L 364.821536 147.724767 
L 364.896411 142.556652 
L 364.971285 148.873237 
L 365.046159 148.170825 
L 365.121033 139.315471 
L 365.195907 140.8724 
L 365.270782 141.086029 
L 365.345656 138.754908 
L 365.42053 145.185144 
L 365.495404 143.374424 
L 365.570278 140.375926 
L 365.720027 144.790358 
L 365.794901 143.993094 
L 365.869775 147.819619 
L 365.944649 140.927089 
L 366.019524 141.787587 
L 366.094398 148.692934 
L 366.169272 139.145422 
L 366.31902 147.540192 
L 366.393895 141.062957 
L 366.468769 154.139622 
L 366.543643 149.12532 
L 366.618517 144.083673 
L 366.693391 155.466686 
L 366.768266 149.066358 
L 366.918014 153.857632 
L 366.992888 148.602356 
L 367.067762 154.32078 
L 367.142637 151.582909 
L 367.217511 148.518613 
L 367.292385 152.581839 
L 367.367259 147.151387 
L 367.442134 149.571377 
L 367.517008 152.579275 
L 367.591882 151.866609 
L 367.816505 145.985826 
L 367.891379 143.846972 
L 368.116001 146.259272 
L 368.26575 145.409028 
L 368.415498 145.293668 
L 368.490372 146.530153 
L 368.714995 143.673505 
L 368.789869 143.706831 
L 368.864743 141.952509 
L 368.939618 144.12298 
L 369.014492 143.431677 
L 369.089366 142.677139 
L 369.16424 144.279357 
L 369.239114 144.01702 
L 369.313989 143.888843 
L 369.388863 144.245176 
L 369.463737 144.092218 
L 369.538611 145.696145 
L 369.68836 142.812152 
L 369.912982 146.155021 
L 370.062731 148.492978 
L 370.287353 154.232765 
L 370.362227 155.105226 
L 370.437102 157.522653 
L 370.511976 156.177644 
L 370.811473 163.529904 
L 370.886347 157.984946 
L 370.961221 161.021043 
L 371.036095 160.340848 
L 371.110969 156.866384 
L 371.185844 157.228699 
L 371.410466 151.384661 
L 371.48534 152.979189 
L 371.560215 155.113771 
L 371.784837 230.334291 
L 371.859712 227.373391 
L 371.934586 227.810904 
L 372.00946 231.226406 
L 372.084334 229.821581 
L 372.159208 225.260172 
L 372.308957 229.493447 
L 372.383831 209.002142 
L 372.458705 232.78248 
L 372.533579 229.114041 
L 372.683328 237.642115 
L 372.758202 238.479542 
L 372.982825 236.74231 
L 373.207447 242.116364 
L 373.282321 239.173409 
L 373.357196 241.838646 
L 373.43207 238.545339 
L 373.506944 239.573323 
L 373.581818 237.709622 
L 373.581818 237.709622 
" style="fill:none;stroke:#1f77b4;stroke-linecap:square;stroke-width:1.5;"/>
   </g>
   <g id="patch_3">
    <path d="M 54 252 
L 54 34.56 
" style="fill:none;stroke:#000000;stroke-linecap:square;stroke-linejoin:miter;stroke-width:0.8;"/>
   </g>
   <g id="patch_4">
    <path d="M 388.8 252 
L 388.8 34.56 
" style="fill:none;stroke:#000000;stroke-linecap:square;stroke-linejoin:miter;stroke-width:0.8;"/>
   </g>
   <g id="patch_5">
    <path d="M 54 252 
L 388.8 252 
" style="fill:none;stroke:#000000;stroke-linecap:square;stroke-linejoin:miter;stroke-width:0.8;"/>
   </g>
   <g id="patch_6">
    <path d="M 54 34.56 
L 388.8 34.56 
" style="fill:none;stroke:#000000;stroke-linecap:square;stroke-linejoin:miter;stroke-width:0.8;"/>
   </g>
  </g>
 </g>
 <defs>
  <clipPath id="pd9cd21e864">
   <rect height="217.44" width="334.8" x="54" y="34.56"/>
  </clipPath>
 </defs>
</svg>
