<?xml version="1.0" encoding="utf-8" standalone="no"?>
<!DOCTYPE svg PUBLIC "-//W3C//DTD SVG 1.1//EN"
  "http://www.w3.org/Graphics/SVG/1.1/DTD/svg11.dtd">
<!-- Created with matplotlib (https://matplotlib.org/) -->
<svg height="288pt" version="1.1" viewBox="0 0 432 288" width="432pt" xmlns="http://www.w3.org/2000/svg" xmlns:xlink="http://www.w3.org/1999/xlink">
 <defs>
  <style type="text/css">
*{stroke-linecap:butt;stroke-linejoin:round;}
  </style>
 </defs>
 <g id="figure_1">
  <g id="patch_1">
   <path d="M 0 288 
L 432 288 
L 432 0 
L 0 0 
z
" style="fill:#ffffff;"/>
  </g>
  <g id="axes_1">
   <g id="patch_2">
    <path d="M 54 252 
L 388.8 252 
L 388.8 34.56 
L 54 34.56 
z
" style="fill:#ffffff;"/>
   </g>
   <g id="patch_3">
    <path clip-path="url(#p70affd3cb0)" d="M 221.713884 252 
L 221.713884 34.56 
L 221.715477 34.56 
L 221.715477 252 
z
" style="fill:#ff0000;opacity:0.5;stroke:#ff0000;stroke-linejoin:miter;"/>
   </g>
   <g id="patch_4">
    <path clip-path="url(#p70affd3cb0)" d="M 225.780032 252 
L 225.780032 34.56 
L 225.781625 34.56 
L 225.781625 252 
z
" style="fill:#ff0000;opacity:0.5;stroke:#ff0000;stroke-linejoin:miter;"/>
   </g>
   <g id="patch_5">
    <path clip-path="url(#p70affd3cb0)" d="M 226.108256 252 
L 226.108256 34.56 
L 226.109849 34.56 
L 226.109849 252 
z
" style="fill:#ff0000;opacity:0.5;stroke:#ff0000;stroke-linejoin:miter;"/>
   </g>
   <g id="patch_6">
    <path clip-path="url(#p70affd3cb0)" d="M 228.007491 252 
L 228.007491 34.56 
L 228.009084 34.56 
L 228.009084 252 
z
" style="fill:#ff0000;opacity:0.5;stroke:#ff0000;stroke-linejoin:miter;"/>
   </g>
   <g id="patch_7">
    <path clip-path="url(#p70affd3cb0)" d="M 229.298079 252 
L 229.298079 34.56 
L 229.299672 34.56 
L 229.299672 252 
z
" style="fill:#ff0000;opacity:0.5;stroke:#ff0000;stroke-linejoin:miter;"/>
   </g>
   <g id="patch_8">
    <path clip-path="url(#p70affd3cb0)" d="M 231.398073 252 
L 231.398073 34.56 
L 231.399666 34.56 
L 231.399666 252 
z
" style="fill:#ff0000;opacity:0.5;stroke:#ff0000;stroke-linejoin:miter;"/>
   </g>
   <g id="patch_9">
    <path clip-path="url(#p70affd3cb0)" d="M 232.041773 252 
L 232.041773 34.56 
L 232.043367 34.56 
L 232.043367 252 
z
" style="fill:#ff0000;opacity:0.5;stroke:#ff0000;stroke-linejoin:miter;"/>
   </g>
   <g id="patch_10">
    <path clip-path="url(#p70affd3cb0)" d="M 285.000488 252 
L 285.000488 34.56 
L 285.002082 34.56 
L 285.002082 252 
z
" style="fill:#ff0000;opacity:0.5;stroke:#ff0000;stroke-linejoin:miter;"/>
   </g>
   <g id="patch_11">
    <path clip-path="url(#p70affd3cb0)" d="M 288.595014 252 
L 288.595014 34.56 
L 288.596608 34.56 
L 288.596608 252 
z
" style="fill:#ff0000;opacity:0.5;stroke:#ff0000;stroke-linejoin:miter;"/>
   </g>
   <g id="patch_12">
    <path clip-path="url(#p70affd3cb0)" d="M 292.179981 252 
L 292.179981 34.56 
L 292.181574 34.56 
L 292.181574 252 
z
" style="fill:#ff0000;opacity:0.5;stroke:#ff0000;stroke-linejoin:miter;"/>
   </g>
   <g id="patch_13">
    <path clip-path="url(#p70affd3cb0)" d="M 296.258876 252 
L 296.258876 34.56 
L 296.260469 34.56 
L 296.260469 252 
z
" style="fill:#ff0000;opacity:0.5;stroke:#ff0000;stroke-linejoin:miter;"/>
   </g>
   <g id="patch_14">
    <path clip-path="url(#p70affd3cb0)" d="M 301.634732 252 
L 301.634732 34.56 
L 301.636325 34.56 
L 301.636325 252 
z
" style="fill:#ff0000;opacity:0.5;stroke:#ff0000;stroke-linejoin:miter;"/>
   </g>
   <g id="patch_15">
    <path clip-path="url(#p70affd3cb0)" d="M 307.985699 252 
L 307.985699 34.56 
L 307.987292 34.56 
L 307.987292 252 
z
" style="fill:#ff0000;opacity:0.5;stroke:#ff0000;stroke-linejoin:miter;"/>
   </g>
   <g id="patch_16">
    <path clip-path="url(#p70affd3cb0)" d="M 311.564292 252 
L 311.564292 34.56 
L 311.565885 34.56 
L 311.565885 252 
z
" style="fill:#ff0000;opacity:0.5;stroke:#ff0000;stroke-linejoin:miter;"/>
   </g>
   <g id="patch_17">
    <path clip-path="url(#p70affd3cb0)" d="M 314.495997 252 
L 314.495997 34.56 
L 314.497591 34.56 
L 314.497591 252 
z
" style="fill:#ff0000;opacity:0.5;stroke:#ff0000;stroke-linejoin:miter;"/>
   </g>
   <g id="patch_18">
    <path clip-path="url(#p70affd3cb0)" d="M 317.09948 252 
L 317.09948 34.56 
L 317.101073 34.56 
L 317.101073 252 
z
" style="fill:#ff0000;opacity:0.5;stroke:#ff0000;stroke-linejoin:miter;"/>
   </g>
   <g id="patch_19">
    <path clip-path="url(#p70affd3cb0)" d="M 319.371552 252 
L 319.371552 34.56 
L 319.373145 34.56 
L 319.373145 252 
z
" style="fill:#ff0000;opacity:0.5;stroke:#ff0000;stroke-linejoin:miter;"/>
   </g>
   <g id="patch_20">
    <path clip-path="url(#p70affd3cb0)" d="M 321.00311 252 
L 321.00311 34.56 
L 321.004703 34.56 
L 321.004703 252 
z
" style="fill:#ff0000;opacity:0.5;stroke:#ff0000;stroke-linejoin:miter;"/>
   </g>
   <g id="patch_21">
    <path clip-path="url(#p70affd3cb0)" d="M 322.625108 252 
L 322.625108 34.56 
L 322.626701 34.56 
L 322.626701 252 
z
" style="fill:#ff0000;opacity:0.5;stroke:#ff0000;stroke-linejoin:miter;"/>
   </g>
   <g id="patch_22">
    <path clip-path="url(#p70affd3cb0)" d="M 324.253479 252 
L 324.253479 34.56 
L 324.255072 34.56 
L 324.255072 252 
z
" style="fill:#ff0000;opacity:0.5;stroke:#ff0000;stroke-linejoin:miter;"/>
   </g>
   <g id="patch_23">
    <path clip-path="url(#p70affd3cb0)" d="M 326.041182 252 
L 326.041182 34.56 
L 326.042775 34.56 
L 326.042775 252 
z
" style="fill:#ff0000;opacity:0.5;stroke:#ff0000;stroke-linejoin:miter;"/>
   </g>
   <g id="patch_24">
    <path clip-path="url(#p70affd3cb0)" d="M 327.988217 252 
L 327.988217 34.56 
L 327.98981 34.56 
L 327.98981 252 
z
" style="fill:#ff0000;opacity:0.5;stroke:#ff0000;stroke-linejoin:miter;"/>
   </g>
   <g id="patch_25">
    <path clip-path="url(#p70affd3cb0)" d="M 330.100957 252 
L 330.100957 34.56 
L 330.102551 34.56 
L 330.102551 252 
z
" style="fill:#ff0000;opacity:0.5;stroke:#ff0000;stroke-linejoin:miter;"/>
   </g>
   <g id="patch_26">
    <path clip-path="url(#p70affd3cb0)" d="M 332.369843 252 
L 332.369843 34.56 
L 332.371436 34.56 
L 332.371436 252 
z
" style="fill:#ff0000;opacity:0.5;stroke:#ff0000;stroke-linejoin:miter;"/>
   </g>
   <g id="patch_27">
    <path clip-path="url(#p70affd3cb0)" d="M 334.645101 252 
L 334.645101 34.56 
L 334.646695 34.56 
L 334.646695 252 
z
" style="fill:#ff0000;opacity:0.5;stroke:#ff0000;stroke-linejoin:miter;"/>
   </g>
   <g id="patch_28">
    <path clip-path="url(#p70affd3cb0)" d="M 337.407915 252 
L 337.407915 34.56 
L 337.409509 34.56 
L 337.409509 252 
z
" style="fill:#ff0000;opacity:0.5;stroke:#ff0000;stroke-linejoin:miter;"/>
   </g>
   <g id="patch_29">
    <path clip-path="url(#p70affd3cb0)" d="M 341.16496 252 
L 341.16496 34.56 
L 341.166553 34.56 
L 341.166553 252 
z
" style="fill:#ff0000;opacity:0.5;stroke:#ff0000;stroke-linejoin:miter;"/>
   </g>
   <g id="patch_30">
    <path clip-path="url(#p70affd3cb0)" d="M 359.386148 252 
L 359.386148 34.56 
L 359.387742 34.56 
L 359.387742 252 
z
" style="fill:#ff0000;opacity:0.5;stroke:#ff0000;stroke-linejoin:miter;"/>
   </g>
   <g id="matplotlib.axis_1">
    <g id="xtick_1">
     <g id="line2d_1">
      <defs>
       <path d="M 0 0 
L 0 3.5 
" id="m06f1ad0364" style="stroke:#000000;stroke-width:0.8;"/>
      </defs>
      <g>
       <use style="stroke:#000000;stroke-width:0.8;" x="69.218182" xlink:href="#m06f1ad0364" y="252"/>
      </g>
     </g>
     <g id="text_1">
      <!-- 0 -->
      <defs>
       <path d="M 31.78125 66.40625 
Q 24.171875 66.40625 20.328125 58.90625 
Q 16.5 51.421875 16.5 36.375 
Q 16.5 21.390625 20.328125 13.890625 
Q 24.171875 6.390625 31.78125 6.390625 
Q 39.453125 6.390625 43.28125 13.890625 
Q 47.125 21.390625 47.125 36.375 
Q 47.125 51.421875 43.28125 58.90625 
Q 39.453125 66.40625 31.78125 66.40625 
z
M 31.78125 74.21875 
Q 44.046875 74.21875 50.515625 64.515625 
Q 56.984375 54.828125 56.984375 36.375 
Q 56.984375 17.96875 50.515625 8.265625 
Q 44.046875 -1.421875 31.78125 -1.421875 
Q 19.53125 -1.421875 13.0625 8.265625 
Q 6.59375 17.96875 6.59375 36.375 
Q 6.59375 54.828125 13.0625 64.515625 
Q 19.53125 74.21875 31.78125 74.21875 
z
" id="DejaVuSans-48"/>
      </defs>
      <g transform="translate(66.036932 266.598437)scale(0.1 -0.1)">
       <use xlink:href="#DejaVuSans-48"/>
      </g>
     </g>
    </g>
    <g id="xtick_2">
     <g id="line2d_2">
      <g>
       <use style="stroke:#000000;stroke-width:0.8;" x="109.05114" xlink:href="#m06f1ad0364" y="252"/>
      </g>
     </g>
     <g id="text_2">
      <!-- 25000 -->
      <defs>
       <path d="M 19.1875 8.296875 
L 53.609375 8.296875 
L 53.609375 0 
L 7.328125 0 
L 7.328125 8.296875 
Q 12.9375 14.109375 22.625 23.890625 
Q 32.328125 33.6875 34.8125 36.53125 
Q 39.546875 41.84375 41.421875 45.53125 
Q 43.3125 49.21875 43.3125 52.78125 
Q 43.3125 58.59375 39.234375 62.25 
Q 35.15625 65.921875 28.609375 65.921875 
Q 23.96875 65.921875 18.8125 64.3125 
Q 13.671875 62.703125 7.8125 59.421875 
L 7.8125 69.390625 
Q 13.765625 71.78125 18.9375 73 
Q 24.125 74.21875 28.421875 74.21875 
Q 39.75 74.21875 46.484375 68.546875 
Q 53.21875 62.890625 53.21875 53.421875 
Q 53.21875 48.921875 51.53125 44.890625 
Q 49.859375 40.875 45.40625 35.40625 
Q 44.1875 33.984375 37.640625 27.21875 
Q 31.109375 20.453125 19.1875 8.296875 
z
" id="DejaVuSans-50"/>
       <path d="M 10.796875 72.90625 
L 49.515625 72.90625 
L 49.515625 64.59375 
L 19.828125 64.59375 
L 19.828125 46.734375 
Q 21.96875 47.46875 24.109375 47.828125 
Q 26.265625 48.1875 28.421875 48.1875 
Q 40.625 48.1875 47.75 41.5 
Q 54.890625 34.8125 54.890625 23.390625 
Q 54.890625 11.625 47.5625 5.09375 
Q 40.234375 -1.421875 26.90625 -1.421875 
Q 22.3125 -1.421875 17.546875 -0.640625 
Q 12.796875 0.140625 7.71875 1.703125 
L 7.71875 11.625 
Q 12.109375 9.234375 16.796875 8.0625 
Q 21.484375 6.890625 26.703125 6.890625 
Q 35.15625 6.890625 40.078125 11.328125 
Q 45.015625 15.765625 45.015625 23.390625 
Q 45.015625 31 40.078125 35.4375 
Q 35.15625 39.890625 26.703125 39.890625 
Q 22.75 39.890625 18.8125 39.015625 
Q 14.890625 38.140625 10.796875 36.28125 
z
" id="DejaVuSans-53"/>
      </defs>
      <g transform="translate(93.14489 266.598437)scale(0.1 -0.1)">
       <use xlink:href="#DejaVuSans-50"/>
       <use x="63.623047" xlink:href="#DejaVuSans-53"/>
       <use x="127.246094" xlink:href="#DejaVuSans-48"/>
       <use x="190.869141" xlink:href="#DejaVuSans-48"/>
       <use x="254.492188" xlink:href="#DejaVuSans-48"/>
      </g>
     </g>
    </g>
    <g id="xtick_3">
     <g id="line2d_3">
      <g>
       <use style="stroke:#000000;stroke-width:0.8;" x="148.884099" xlink:href="#m06f1ad0364" y="252"/>
      </g>
     </g>
     <g id="text_3">
      <!-- 50000 -->
      <g transform="translate(132.977849 266.598437)scale(0.1 -0.1)">
       <use xlink:href="#DejaVuSans-53"/>
       <use x="63.623047" xlink:href="#DejaVuSans-48"/>
       <use x="127.246094" xlink:href="#DejaVuSans-48"/>
       <use x="190.869141" xlink:href="#DejaVuSans-48"/>
       <use x="254.492188" xlink:href="#DejaVuSans-48"/>
      </g>
     </g>
    </g>
    <g id="xtick_4">
     <g id="line2d_4">
      <g>
       <use style="stroke:#000000;stroke-width:0.8;" x="188.717058" xlink:href="#m06f1ad0364" y="252"/>
      </g>
     </g>
     <g id="text_4">
      <!-- 75000 -->
      <defs>
       <path d="M 8.203125 72.90625 
L 55.078125 72.90625 
L 55.078125 68.703125 
L 28.609375 0 
L 18.3125 0 
L 43.21875 64.59375 
L 8.203125 64.59375 
z
" id="DejaVuSans-55"/>
      </defs>
      <g transform="translate(172.810808 266.598437)scale(0.1 -0.1)">
       <use xlink:href="#DejaVuSans-55"/>
       <use x="63.623047" xlink:href="#DejaVuSans-53"/>
       <use x="127.246094" xlink:href="#DejaVuSans-48"/>
       <use x="190.869141" xlink:href="#DejaVuSans-48"/>
       <use x="254.492188" xlink:href="#DejaVuSans-48"/>
      </g>
     </g>
    </g>
    <g id="xtick_5">
     <g id="line2d_5">
      <g>
       <use style="stroke:#000000;stroke-width:0.8;" x="228.550016" xlink:href="#m06f1ad0364" y="252"/>
      </g>
     </g>
     <g id="text_5">
      <!-- 100000 -->
      <defs>
       <path d="M 12.40625 8.296875 
L 28.515625 8.296875 
L 28.515625 63.921875 
L 10.984375 60.40625 
L 10.984375 69.390625 
L 28.421875 72.90625 
L 38.28125 72.90625 
L 38.28125 8.296875 
L 54.390625 8.296875 
L 54.390625 0 
L 12.40625 0 
z
" id="DejaVuSans-49"/>
      </defs>
      <g transform="translate(209.462516 266.598437)scale(0.1 -0.1)">
       <use xlink:href="#DejaVuSans-49"/>
       <use x="63.623047" xlink:href="#DejaVuSans-48"/>
       <use x="127.246094" xlink:href="#DejaVuSans-48"/>
       <use x="190.869141" xlink:href="#DejaVuSans-48"/>
       <use x="254.492188" xlink:href="#DejaVuSans-48"/>
       <use x="318.115234" xlink:href="#DejaVuSans-48"/>
      </g>
     </g>
    </g>
    <g id="xtick_6">
     <g id="line2d_6">
      <g>
       <use style="stroke:#000000;stroke-width:0.8;" x="268.382975" xlink:href="#m06f1ad0364" y="252"/>
      </g>
     </g>
     <g id="text_6">
      <!-- 125000 -->
      <g transform="translate(249.295475 266.598437)scale(0.1 -0.1)">
       <use xlink:href="#DejaVuSans-49"/>
       <use x="63.623047" xlink:href="#DejaVuSans-50"/>
       <use x="127.246094" xlink:href="#DejaVuSans-53"/>
       <use x="190.869141" xlink:href="#DejaVuSans-48"/>
       <use x="254.492188" xlink:href="#DejaVuSans-48"/>
       <use x="318.115234" xlink:href="#DejaVuSans-48"/>
      </g>
     </g>
    </g>
    <g id="xtick_7">
     <g id="line2d_7">
      <g>
       <use style="stroke:#000000;stroke-width:0.8;" x="308.215933" xlink:href="#m06f1ad0364" y="252"/>
      </g>
     </g>
     <g id="text_7">
      <!-- 150000 -->
      <g transform="translate(289.128433 266.598437)scale(0.1 -0.1)">
       <use xlink:href="#DejaVuSans-49"/>
       <use x="63.623047" xlink:href="#DejaVuSans-53"/>
       <use x="127.246094" xlink:href="#DejaVuSans-48"/>
       <use x="190.869141" xlink:href="#DejaVuSans-48"/>
       <use x="254.492188" xlink:href="#DejaVuSans-48"/>
       <use x="318.115234" xlink:href="#DejaVuSans-48"/>
      </g>
     </g>
    </g>
    <g id="xtick_8">
     <g id="line2d_8">
      <g>
       <use style="stroke:#000000;stroke-width:0.8;" x="348.048892" xlink:href="#m06f1ad0364" y="252"/>
      </g>
     </g>
     <g id="text_8">
      <!-- 175000 -->
      <g transform="translate(328.961392 266.598437)scale(0.1 -0.1)">
       <use xlink:href="#DejaVuSans-49"/>
       <use x="63.623047" xlink:href="#DejaVuSans-55"/>
       <use x="127.246094" xlink:href="#DejaVuSans-53"/>
       <use x="190.869141" xlink:href="#DejaVuSans-48"/>
       <use x="254.492188" xlink:href="#DejaVuSans-48"/>
       <use x="318.115234" xlink:href="#DejaVuSans-48"/>
      </g>
     </g>
    </g>
    <g id="xtick_9">
     <g id="line2d_9">
      <g>
       <use style="stroke:#000000;stroke-width:0.8;" x="387.88185" xlink:href="#m06f1ad0364" y="252"/>
      </g>
     </g>
     <g id="text_9">
      <!-- 200000 -->
      <g transform="translate(368.79435 266.598437)scale(0.1 -0.1)">
       <use xlink:href="#DejaVuSans-50"/>
       <use x="63.623047" xlink:href="#DejaVuSans-48"/>
       <use x="127.246094" xlink:href="#DejaVuSans-48"/>
       <use x="190.869141" xlink:href="#DejaVuSans-48"/>
       <use x="254.492188" xlink:href="#DejaVuSans-48"/>
       <use x="318.115234" xlink:href="#DejaVuSans-48"/>
      </g>
     </g>
    </g>
    <g id="text_10">
     <!-- Stretched Frames -->
     <defs>
      <path d="M 53.515625 70.515625 
L 53.515625 60.890625 
Q 47.90625 63.578125 42.921875 64.890625 
Q 37.9375 66.21875 33.296875 66.21875 
Q 25.25 66.21875 20.875 63.09375 
Q 16.5 59.96875 16.5 54.203125 
Q 16.5 49.359375 19.40625 46.890625 
Q 22.3125 44.4375 30.421875 42.921875 
L 36.375 41.703125 
Q 47.40625 39.59375 52.65625 34.296875 
Q 57.90625 29 57.90625 20.125 
Q 57.90625 9.515625 50.796875 4.046875 
Q 43.703125 -1.421875 29.984375 -1.421875 
Q 24.8125 -1.421875 18.96875 -0.25 
Q 13.140625 0.921875 6.890625 3.21875 
L 6.890625 13.375 
Q 12.890625 10.015625 18.65625 8.296875 
Q 24.421875 6.59375 29.984375 6.59375 
Q 38.421875 6.59375 43.015625 9.90625 
Q 47.609375 13.234375 47.609375 19.390625 
Q 47.609375 24.75 44.3125 27.78125 
Q 41.015625 30.8125 33.5 32.328125 
L 27.484375 33.5 
Q 16.453125 35.6875 11.515625 40.375 
Q 6.59375 45.0625 6.59375 53.421875 
Q 6.59375 63.09375 13.40625 68.65625 
Q 20.21875 74.21875 32.171875 74.21875 
Q 37.3125 74.21875 42.625 73.28125 
Q 47.953125 72.359375 53.515625 70.515625 
z
" id="DejaVuSans-83"/>
      <path d="M 18.3125 70.21875 
L 18.3125 54.6875 
L 36.8125 54.6875 
L 36.8125 47.703125 
L 18.3125 47.703125 
L 18.3125 18.015625 
Q 18.3125 11.328125 20.140625 9.421875 
Q 21.96875 7.515625 27.59375 7.515625 
L 36.8125 7.515625 
L 36.8125 0 
L 27.59375 0 
Q 17.1875 0 13.234375 3.875 
Q 9.28125 7.765625 9.28125 18.015625 
L 9.28125 47.703125 
L 2.6875 47.703125 
L 2.6875 54.6875 
L 9.28125 54.6875 
L 9.28125 70.21875 
z
" id="DejaVuSans-116"/>
      <path d="M 41.109375 46.296875 
Q 39.59375 47.171875 37.8125 47.578125 
Q 36.03125 48 33.890625 48 
Q 26.265625 48 22.1875 43.046875 
Q 18.109375 38.09375 18.109375 28.8125 
L 18.109375 0 
L 9.078125 0 
L 9.078125 54.6875 
L 18.109375 54.6875 
L 18.109375 46.1875 
Q 20.953125 51.171875 25.484375 53.578125 
Q 30.03125 56 36.53125 56 
Q 37.453125 56 38.578125 55.875 
Q 39.703125 55.765625 41.0625 55.515625 
z
" id="DejaVuSans-114"/>
      <path d="M 56.203125 29.59375 
L 56.203125 25.203125 
L 14.890625 25.203125 
Q 15.484375 15.921875 20.484375 11.0625 
Q 25.484375 6.203125 34.421875 6.203125 
Q 39.59375 6.203125 44.453125 7.46875 
Q 49.3125 8.734375 54.109375 11.28125 
L 54.109375 2.78125 
Q 49.265625 0.734375 44.1875 -0.34375 
Q 39.109375 -1.421875 33.890625 -1.421875 
Q 20.796875 -1.421875 13.15625 6.1875 
Q 5.515625 13.8125 5.515625 26.8125 
Q 5.515625 40.234375 12.765625 48.109375 
Q 20.015625 56 32.328125 56 
Q 43.359375 56 49.78125 48.890625 
Q 56.203125 41.796875 56.203125 29.59375 
z
M 47.21875 32.234375 
Q 47.125 39.59375 43.09375 43.984375 
Q 39.0625 48.390625 32.421875 48.390625 
Q 24.90625 48.390625 20.390625 44.140625 
Q 15.875 39.890625 15.1875 32.171875 
z
" id="DejaVuSans-101"/>
      <path d="M 48.78125 52.59375 
L 48.78125 44.1875 
Q 44.96875 46.296875 41.140625 47.34375 
Q 37.3125 48.390625 33.40625 48.390625 
Q 24.65625 48.390625 19.8125 42.84375 
Q 14.984375 37.3125 14.984375 27.296875 
Q 14.984375 17.28125 19.8125 11.734375 
Q 24.65625 6.203125 33.40625 6.203125 
Q 37.3125 6.203125 41.140625 7.25 
Q 44.96875 8.296875 48.78125 10.40625 
L 48.78125 2.09375 
Q 45.015625 0.34375 40.984375 -0.53125 
Q 36.96875 -1.421875 32.421875 -1.421875 
Q 20.0625 -1.421875 12.78125 6.34375 
Q 5.515625 14.109375 5.515625 27.296875 
Q 5.515625 40.671875 12.859375 48.328125 
Q 20.21875 56 33.015625 56 
Q 37.15625 56 41.109375 55.140625 
Q 45.0625 54.296875 48.78125 52.59375 
z
" id="DejaVuSans-99"/>
      <path d="M 54.890625 33.015625 
L 54.890625 0 
L 45.90625 0 
L 45.90625 32.71875 
Q 45.90625 40.484375 42.875 44.328125 
Q 39.84375 48.1875 33.796875 48.1875 
Q 26.515625 48.1875 22.3125 43.546875 
Q 18.109375 38.921875 18.109375 30.90625 
L 18.109375 0 
L 9.078125 0 
L 9.078125 75.984375 
L 18.109375 75.984375 
L 18.109375 46.1875 
Q 21.34375 51.125 25.703125 53.5625 
Q 30.078125 56 35.796875 56 
Q 45.21875 56 50.046875 50.171875 
Q 54.890625 44.34375 54.890625 33.015625 
z
" id="DejaVuSans-104"/>
      <path d="M 45.40625 46.390625 
L 45.40625 75.984375 
L 54.390625 75.984375 
L 54.390625 0 
L 45.40625 0 
L 45.40625 8.203125 
Q 42.578125 3.328125 38.25 0.953125 
Q 33.9375 -1.421875 27.875 -1.421875 
Q 17.96875 -1.421875 11.734375 6.484375 
Q 5.515625 14.40625 5.515625 27.296875 
Q 5.515625 40.1875 11.734375 48.09375 
Q 17.96875 56 27.875 56 
Q 33.9375 56 38.25 53.625 
Q 42.578125 51.265625 45.40625 46.390625 
z
M 14.796875 27.296875 
Q 14.796875 17.390625 18.875 11.75 
Q 22.953125 6.109375 30.078125 6.109375 
Q 37.203125 6.109375 41.296875 11.75 
Q 45.40625 17.390625 45.40625 27.296875 
Q 45.40625 37.203125 41.296875 42.84375 
Q 37.203125 48.484375 30.078125 48.484375 
Q 22.953125 48.484375 18.875 42.84375 
Q 14.796875 37.203125 14.796875 27.296875 
z
" id="DejaVuSans-100"/>
      <path id="DejaVuSans-32"/>
      <path d="M 9.8125 72.90625 
L 51.703125 72.90625 
L 51.703125 64.59375 
L 19.671875 64.59375 
L 19.671875 43.109375 
L 48.578125 43.109375 
L 48.578125 34.8125 
L 19.671875 34.8125 
L 19.671875 0 
L 9.8125 0 
z
" id="DejaVuSans-70"/>
      <path d="M 34.28125 27.484375 
Q 23.390625 27.484375 19.1875 25 
Q 14.984375 22.515625 14.984375 16.5 
Q 14.984375 11.71875 18.140625 8.90625 
Q 21.296875 6.109375 26.703125 6.109375 
Q 34.1875 6.109375 38.703125 11.40625 
Q 43.21875 16.703125 43.21875 25.484375 
L 43.21875 27.484375 
z
M 52.203125 31.203125 
L 52.203125 0 
L 43.21875 0 
L 43.21875 8.296875 
Q 40.140625 3.328125 35.546875 0.953125 
Q 30.953125 -1.421875 24.3125 -1.421875 
Q 15.921875 -1.421875 10.953125 3.296875 
Q 6 8.015625 6 15.921875 
Q 6 25.140625 12.171875 29.828125 
Q 18.359375 34.515625 30.609375 34.515625 
L 43.21875 34.515625 
L 43.21875 35.40625 
Q 43.21875 41.609375 39.140625 45 
Q 35.0625 48.390625 27.6875 48.390625 
Q 23 48.390625 18.546875 47.265625 
Q 14.109375 46.140625 10.015625 43.890625 
L 10.015625 52.203125 
Q 14.9375 54.109375 19.578125 55.046875 
Q 24.21875 56 28.609375 56 
Q 40.484375 56 46.34375 49.84375 
Q 52.203125 43.703125 52.203125 31.203125 
z
" id="DejaVuSans-97"/>
      <path d="M 52 44.1875 
Q 55.375 50.25 60.0625 53.125 
Q 64.75 56 71.09375 56 
Q 79.640625 56 84.28125 50.015625 
Q 88.921875 44.046875 88.921875 33.015625 
L 88.921875 0 
L 79.890625 0 
L 79.890625 32.71875 
Q 79.890625 40.578125 77.09375 44.375 
Q 74.3125 48.1875 68.609375 48.1875 
Q 61.625 48.1875 57.5625 43.546875 
Q 53.515625 38.921875 53.515625 30.90625 
L 53.515625 0 
L 44.484375 0 
L 44.484375 32.71875 
Q 44.484375 40.625 41.703125 44.40625 
Q 38.921875 48.1875 33.109375 48.1875 
Q 26.21875 48.1875 22.15625 43.53125 
Q 18.109375 38.875 18.109375 30.90625 
L 18.109375 0 
L 9.078125 0 
L 9.078125 54.6875 
L 18.109375 54.6875 
L 18.109375 46.1875 
Q 21.1875 51.21875 25.484375 53.609375 
Q 29.78125 56 35.6875 56 
Q 41.65625 56 45.828125 52.96875 
Q 50 49.953125 52 44.1875 
z
" id="DejaVuSans-109"/>
      <path d="M 44.28125 53.078125 
L 44.28125 44.578125 
Q 40.484375 46.53125 36.375 47.5 
Q 32.28125 48.484375 27.875 48.484375 
Q 21.1875 48.484375 17.84375 46.4375 
Q 14.5 44.390625 14.5 40.28125 
Q 14.5 37.15625 16.890625 35.375 
Q 19.28125 33.59375 26.515625 31.984375 
L 29.59375 31.296875 
Q 39.15625 29.25 43.1875 25.515625 
Q 47.21875 21.78125 47.21875 15.09375 
Q 47.21875 7.46875 41.1875 3.015625 
Q 35.15625 -1.421875 24.609375 -1.421875 
Q 20.21875 -1.421875 15.453125 -0.5625 
Q 10.6875 0.296875 5.421875 2 
L 5.421875 11.28125 
Q 10.40625 8.6875 15.234375 7.390625 
Q 20.0625 6.109375 24.8125 6.109375 
Q 31.15625 6.109375 34.5625 8.28125 
Q 37.984375 10.453125 37.984375 14.40625 
Q 37.984375 18.0625 35.515625 20.015625 
Q 33.0625 21.96875 24.703125 23.78125 
L 21.578125 24.515625 
Q 13.234375 26.265625 9.515625 29.90625 
Q 5.8125 33.546875 5.8125 39.890625 
Q 5.8125 47.609375 11.28125 51.796875 
Q 16.75 56 26.8125 56 
Q 31.78125 56 36.171875 55.265625 
Q 40.578125 54.546875 44.28125 53.078125 
z
" id="DejaVuSans-115"/>
     </defs>
     <g transform="translate(150.16125 284.835625)scale(0.16 -0.16)">
      <use xlink:href="#DejaVuSans-83"/>
      <use x="63.476562" xlink:href="#DejaVuSans-116"/>
      <use x="102.685547" xlink:href="#DejaVuSans-114"/>
      <use x="143.767578" xlink:href="#DejaVuSans-101"/>
      <use x="205.291016" xlink:href="#DejaVuSans-116"/>
      <use x="244.5" xlink:href="#DejaVuSans-99"/>
      <use x="299.480469" xlink:href="#DejaVuSans-104"/>
      <use x="362.859375" xlink:href="#DejaVuSans-101"/>
      <use x="424.382812" xlink:href="#DejaVuSans-100"/>
      <use x="487.859375" xlink:href="#DejaVuSans-32"/>
      <use x="519.646484" xlink:href="#DejaVuSans-70"/>
      <use x="577.056641" xlink:href="#DejaVuSans-114"/>
      <use x="618.169922" xlink:href="#DejaVuSans-97"/>
      <use x="679.449219" xlink:href="#DejaVuSans-109"/>
      <use x="776.861328" xlink:href="#DejaVuSans-101"/>
      <use x="838.384766" xlink:href="#DejaVuSans-115"/>
     </g>
    </g>
   </g>
   <g id="matplotlib.axis_2">
    <g id="ytick_1">
     <g id="line2d_10">
      <defs>
       <path d="M 0 0 
L -3.5 0 
" id="mddd1465ee4" style="stroke:#000000;stroke-width:0.8;"/>
      </defs>
      <g>
       <use style="stroke:#000000;stroke-width:0.8;" x="54" xlink:href="#mddd1465ee4" y="216.936001"/>
      </g>
     </g>
     <g id="text_11">
      <!-- 40 -->
      <defs>
       <path d="M 37.796875 64.3125 
L 12.890625 25.390625 
L 37.796875 25.390625 
z
M 35.203125 72.90625 
L 47.609375 72.90625 
L 47.609375 25.390625 
L 58.015625 25.390625 
L 58.015625 17.1875 
L 47.609375 17.1875 
L 47.609375 0 
L 37.796875 0 
L 37.796875 17.1875 
L 4.890625 17.1875 
L 4.890625 26.703125 
z
" id="DejaVuSans-52"/>
      </defs>
      <g transform="translate(34.275 220.73522)scale(0.1 -0.1)">
       <use xlink:href="#DejaVuSans-52"/>
       <use x="63.623047" xlink:href="#DejaVuSans-48"/>
      </g>
     </g>
    </g>
    <g id="ytick_2">
     <g id="line2d_11">
      <g>
       <use style="stroke:#000000;stroke-width:0.8;" x="54" xlink:href="#mddd1465ee4" y="173.017317"/>
      </g>
     </g>
     <g id="text_12">
      <!-- 60 -->
      <defs>
       <path d="M 33.015625 40.375 
Q 26.375 40.375 22.484375 35.828125 
Q 18.609375 31.296875 18.609375 23.390625 
Q 18.609375 15.53125 22.484375 10.953125 
Q 26.375 6.390625 33.015625 6.390625 
Q 39.65625 6.390625 43.53125 10.953125 
Q 47.40625 15.53125 47.40625 23.390625 
Q 47.40625 31.296875 43.53125 35.828125 
Q 39.65625 40.375 33.015625 40.375 
z
M 52.59375 71.296875 
L 52.59375 62.3125 
Q 48.875 64.0625 45.09375 64.984375 
Q 41.3125 65.921875 37.59375 65.921875 
Q 27.828125 65.921875 22.671875 59.328125 
Q 17.53125 52.734375 16.796875 39.40625 
Q 19.671875 43.65625 24.015625 45.921875 
Q 28.375 48.1875 33.59375 48.1875 
Q 44.578125 48.1875 50.953125 41.515625 
Q 57.328125 34.859375 57.328125 23.390625 
Q 57.328125 12.15625 50.6875 5.359375 
Q 44.046875 -1.421875 33.015625 -1.421875 
Q 20.359375 -1.421875 13.671875 8.265625 
Q 6.984375 17.96875 6.984375 36.375 
Q 6.984375 53.65625 15.1875 63.9375 
Q 23.390625 74.21875 37.203125 74.21875 
Q 40.921875 74.21875 44.703125 73.484375 
Q 48.484375 72.75 52.59375 71.296875 
z
" id="DejaVuSans-54"/>
      </defs>
      <g transform="translate(34.275 176.816535)scale(0.1 -0.1)">
       <use xlink:href="#DejaVuSans-54"/>
       <use x="63.623047" xlink:href="#DejaVuSans-48"/>
      </g>
     </g>
    </g>
    <g id="ytick_3">
     <g id="line2d_12">
      <g>
       <use style="stroke:#000000;stroke-width:0.8;" x="54" xlink:href="#mddd1465ee4" y="129.098632"/>
      </g>
     </g>
     <g id="text_13">
      <!-- 80 -->
      <defs>
       <path d="M 31.78125 34.625 
Q 24.75 34.625 20.71875 30.859375 
Q 16.703125 27.09375 16.703125 20.515625 
Q 16.703125 13.921875 20.71875 10.15625 
Q 24.75 6.390625 31.78125 6.390625 
Q 38.8125 6.390625 42.859375 10.171875 
Q 46.921875 13.96875 46.921875 20.515625 
Q 46.921875 27.09375 42.890625 30.859375 
Q 38.875 34.625 31.78125 34.625 
z
M 21.921875 38.8125 
Q 15.578125 40.375 12.03125 44.71875 
Q 8.5 49.078125 8.5 55.328125 
Q 8.5 64.0625 14.71875 69.140625 
Q 20.953125 74.21875 31.78125 74.21875 
Q 42.671875 74.21875 48.875 69.140625 
Q 55.078125 64.0625 55.078125 55.328125 
Q 55.078125 49.078125 51.53125 44.71875 
Q 48 40.375 41.703125 38.8125 
Q 48.828125 37.15625 52.796875 32.3125 
Q 56.78125 27.484375 56.78125 20.515625 
Q 56.78125 9.90625 50.3125 4.234375 
Q 43.84375 -1.421875 31.78125 -1.421875 
Q 19.734375 -1.421875 13.25 4.234375 
Q 6.78125 9.90625 6.78125 20.515625 
Q 6.78125 27.484375 10.78125 32.3125 
Q 14.796875 37.15625 21.921875 38.8125 
z
M 18.3125 54.390625 
Q 18.3125 48.734375 21.84375 45.5625 
Q 25.390625 42.390625 31.78125 42.390625 
Q 38.140625 42.390625 41.71875 45.5625 
Q 45.3125 48.734375 45.3125 54.390625 
Q 45.3125 60.0625 41.71875 63.234375 
Q 38.140625 66.40625 31.78125 66.40625 
Q 25.390625 66.40625 21.84375 63.234375 
Q 18.3125 60.0625 18.3125 54.390625 
z
" id="DejaVuSans-56"/>
      </defs>
      <g transform="translate(34.275 132.897851)scale(0.1 -0.1)">
       <use xlink:href="#DejaVuSans-56"/>
       <use x="63.623047" xlink:href="#DejaVuSans-48"/>
      </g>
     </g>
    </g>
    <g id="ytick_4">
     <g id="line2d_13">
      <g>
       <use style="stroke:#000000;stroke-width:0.8;" x="54" xlink:href="#mddd1465ee4" y="85.179948"/>
      </g>
     </g>
     <g id="text_14">
      <!-- 100 -->
      <g transform="translate(27.9125 88.979167)scale(0.1 -0.1)">
       <use xlink:href="#DejaVuSans-49"/>
       <use x="63.623047" xlink:href="#DejaVuSans-48"/>
       <use x="127.246094" xlink:href="#DejaVuSans-48"/>
      </g>
     </g>
    </g>
    <g id="ytick_5">
     <g id="line2d_14">
      <g>
       <use style="stroke:#000000;stroke-width:0.8;" x="54" xlink:href="#mddd1465ee4" y="41.261264"/>
      </g>
     </g>
     <g id="text_15">
      <!-- 120 -->
      <g transform="translate(27.9125 45.060483)scale(0.1 -0.1)">
       <use xlink:href="#DejaVuSans-49"/>
       <use x="63.623047" xlink:href="#DejaVuSans-50"/>
       <use x="127.246094" xlink:href="#DejaVuSans-48"/>
      </g>
     </g>
    </g>
    <g id="text_16">
     <!-- Average Brightness -->
     <defs>
      <path d="M 34.1875 63.1875 
L 20.796875 26.90625 
L 47.609375 26.90625 
z
M 28.609375 72.90625 
L 39.796875 72.90625 
L 67.578125 0 
L 57.328125 0 
L 50.6875 18.703125 
L 17.828125 18.703125 
L 11.1875 0 
L 0.78125 0 
z
" id="DejaVuSans-65"/>
      <path d="M 2.984375 54.6875 
L 12.5 54.6875 
L 29.59375 8.796875 
L 46.6875 54.6875 
L 56.203125 54.6875 
L 35.6875 0 
L 23.484375 0 
z
" id="DejaVuSans-118"/>
      <path d="M 45.40625 27.984375 
Q 45.40625 37.75 41.375 43.109375 
Q 37.359375 48.484375 30.078125 48.484375 
Q 22.859375 48.484375 18.828125 43.109375 
Q 14.796875 37.75 14.796875 27.984375 
Q 14.796875 18.265625 18.828125 12.890625 
Q 22.859375 7.515625 30.078125 7.515625 
Q 37.359375 7.515625 41.375 12.890625 
Q 45.40625 18.265625 45.40625 27.984375 
z
M 54.390625 6.78125 
Q 54.390625 -7.171875 48.1875 -13.984375 
Q 42 -20.796875 29.203125 -20.796875 
Q 24.46875 -20.796875 20.265625 -20.09375 
Q 16.0625 -19.390625 12.109375 -17.921875 
L 12.109375 -9.1875 
Q 16.0625 -11.328125 19.921875 -12.34375 
Q 23.78125 -13.375 27.78125 -13.375 
Q 36.625 -13.375 41.015625 -8.765625 
Q 45.40625 -4.15625 45.40625 5.171875 
L 45.40625 9.625 
Q 42.625 4.78125 38.28125 2.390625 
Q 33.9375 0 27.875 0 
Q 17.828125 0 11.671875 7.65625 
Q 5.515625 15.328125 5.515625 27.984375 
Q 5.515625 40.671875 11.671875 48.328125 
Q 17.828125 56 27.875 56 
Q 33.9375 56 38.28125 53.609375 
Q 42.625 51.21875 45.40625 46.390625 
L 45.40625 54.6875 
L 54.390625 54.6875 
z
" id="DejaVuSans-103"/>
      <path d="M 19.671875 34.8125 
L 19.671875 8.109375 
L 35.5 8.109375 
Q 43.453125 8.109375 47.28125 11.40625 
Q 51.125 14.703125 51.125 21.484375 
Q 51.125 28.328125 47.28125 31.5625 
Q 43.453125 34.8125 35.5 34.8125 
z
M 19.671875 64.796875 
L 19.671875 42.828125 
L 34.28125 42.828125 
Q 41.5 42.828125 45.03125 45.53125 
Q 48.578125 48.25 48.578125 53.8125 
Q 48.578125 59.328125 45.03125 62.0625 
Q 41.5 64.796875 34.28125 64.796875 
z
M 9.8125 72.90625 
L 35.015625 72.90625 
Q 46.296875 72.90625 52.390625 68.21875 
Q 58.5 63.53125 58.5 54.890625 
Q 58.5 48.1875 55.375 44.234375 
Q 52.25 40.28125 46.1875 39.3125 
Q 53.46875 37.75 57.5 32.78125 
Q 61.53125 27.828125 61.53125 20.40625 
Q 61.53125 10.640625 54.890625 5.3125 
Q 48.25 0 35.984375 0 
L 9.8125 0 
z
" id="DejaVuSans-66"/>
      <path d="M 9.421875 54.6875 
L 18.40625 54.6875 
L 18.40625 0 
L 9.421875 0 
z
M 9.421875 75.984375 
L 18.40625 75.984375 
L 18.40625 64.59375 
L 9.421875 64.59375 
z
" id="DejaVuSans-105"/>
      <path d="M 54.890625 33.015625 
L 54.890625 0 
L 45.90625 0 
L 45.90625 32.71875 
Q 45.90625 40.484375 42.875 44.328125 
Q 39.84375 48.1875 33.796875 48.1875 
Q 26.515625 48.1875 22.3125 43.546875 
Q 18.109375 38.921875 18.109375 30.90625 
L 18.109375 0 
L 9.078125 0 
L 9.078125 54.6875 
L 18.109375 54.6875 
L 18.109375 46.1875 
Q 21.34375 51.125 25.703125 53.5625 
Q 30.078125 56 35.796875 56 
Q 45.21875 56 50.046875 50.171875 
Q 54.890625 44.34375 54.890625 33.015625 
z
" id="DejaVuSans-110"/>
     </defs>
     <g transform="translate(20.585 221.75125)rotate(-90)scale(0.16 -0.16)">
      <use xlink:href="#DejaVuSans-65"/>
      <use x="68.330078" xlink:href="#DejaVuSans-118"/>
      <use x="127.509766" xlink:href="#DejaVuSans-101"/>
      <use x="189.033203" xlink:href="#DejaVuSans-114"/>
      <use x="230.146484" xlink:href="#DejaVuSans-97"/>
      <use x="291.425781" xlink:href="#DejaVuSans-103"/>
      <use x="354.902344" xlink:href="#DejaVuSans-101"/>
      <use x="416.425781" xlink:href="#DejaVuSans-32"/>
      <use x="448.212891" xlink:href="#DejaVuSans-66"/>
      <use x="516.816406" xlink:href="#DejaVuSans-114"/>
      <use x="557.929688" xlink:href="#DejaVuSans-105"/>
      <use x="585.712891" xlink:href="#DejaVuSans-103"/>
      <use x="649.189453" xlink:href="#DejaVuSans-104"/>
      <use x="712.568359" xlink:href="#DejaVuSans-116"/>
      <use x="751.777344" xlink:href="#DejaVuSans-110"/>
      <use x="815.15625" xlink:href="#DejaVuSans-101"/>
      <use x="876.679688" xlink:href="#DejaVuSans-115"/>
      <use x="928.779297" xlink:href="#DejaVuSans-115"/>
     </g>
    </g>
   </g>
   <g id="line2d_15">
    <path clip-path="url(#p70affd3cb0)" d="M 69.218182 217.311324 
L 70.17258 217.223772 
L 70.284112 217.113599 
L 70.331911 217.113599 
L 70.443444 216.956628 
L 71.447234 216.987414 
L 71.558766 217.093876 
L 71.92523 217.109004 
L 72.036762 217.222782 
L 72.403225 217.225363 
L 72.514757 217.345927 
L 72.562557 217.345927 
L 72.674089 217.514598 
L 73.359216 217.413544 
L 73.470748 217.281633 
L 73.67788 217.27725 
L 73.789412 217.39573 
L 74.474539 217.45299 
L 74.586071 217.615157 
L 74.633871 217.615157 
L 74.745403 217.809312 
L 74.793203 217.809312 
L 74.904735 217.997069 
L 74.952535 217.997069 
L 75.064067 218.146123 
L 75.271198 218.219324 
L 75.38273 218.267678 
L 75.749194 218.219077 
L 75.860726 218.037965 
L 76.227189 217.982189 
L 76.338721 217.924257 
L 77.023848 217.982507 
L 77.135381 218.048957 
L 77.18318 218.048957 
L 77.294712 218.331654 
L 77.342512 218.331654 
L 77.454044 218.545708 
L 78.457835 218.614315 
L 78.569367 218.767963 
L 78.93583 218.803627 
L 79.047363 219.014925 
L 79.573158 219.071691 
L 79.68469 216.919515 
L 79.73249 216.919515 
L 79.844022 217.06104 
L 80.847812 217.118971 
L 80.959345 217.254417 
L 81.166476 217.267071 
L 81.278008 217.086347 
L 81.48514 217.136043 
L 81.596672 217.470663 
L 81.803803 217.494274 
L 81.915336 217.658138 
L 81.963135 217.658138 
L 82.074668 217.891456 
L 82.759794 217.863108 
L 82.871327 217.662945 
L 82.919126 217.662945 
L 83.030659 217.436201 
L 83.078458 217.436201 
L 83.18999 217.579458 
L 83.23779 217.579458 
L 83.349322 217.384242 
L 83.397122 217.384242 
L 83.508654 217.079914 
L 83.715785 216.991797 
L 83.827318 217.19295 
L 84.512445 217.088927 
L 84.623977 219.050483 
L 84.831108 219.051543 
L 84.942641 216.905023 
L 85.787099 216.922837 
L 85.898632 217.068285 
L 85.946431 217.068285 
L 86.057963 217.185139 
L 87.061754 217.29001 
L 87.173286 217.338081 
L 87.221086 217.338081 
L 87.332618 217.449844 
L 87.539749 217.512654 
L 87.651282 217.669943 
L 88.017745 217.64969 
L 88.129277 217.809984 
L 88.336409 217.918319 
L 88.447941 218.023756 
L 89.451731 217.956422 
L 89.563264 217.90669 
L 89.611063 217.90669 
L 89.722596 217.770608 
L 90.567054 217.811892 
L 90.678587 217.887108 
L 91.363713 217.98332 
L 91.475246 218.035985 
L 91.841709 217.999296 
L 91.953241 217.870602 
L 92.7977 217.769901 
L 92.909232 217.681325 
L 93.116364 217.674326 
L 93.227896 217.849465 
L 93.275695 217.849465 
L 93.387228 217.996469 
L 94.231686 218.002901 
L 94.343219 217.85922 
L 94.391018 217.85922 
L 94.502551 217.734803 
L 94.55035 217.734803 
L 94.661882 217.58324 
L 94.869014 217.569066 
L 94.980546 217.431818 
L 95.347009 217.431959 
L 95.458542 217.572106 
L 95.665673 217.612541 
L 95.777205 217.790755 
L 96.303 217.774037 
L 96.414533 217.925388 
L 96.462332 217.925388 
L 96.573864 218.060091 
L 96.621664 218.060091 
L 96.733196 218.291642 
L 97.099659 218.37679 
L 97.211192 218.442074 
L 97.258991 218.442074 
L 97.370524 218.602933 
L 97.577655 218.64549 
L 97.689187 218.78143 
L 97.896319 218.673696 
L 98.007851 218.600636 
L 98.05565 218.600636 
L 98.167183 218.337804 
L 98.374314 218.260679 
L 98.485846 218.202535 
L 98.692978 218.126683 
L 98.80451 217.934012 
L 99.011642 217.876434 
L 99.123174 217.797294 
L 99.489637 217.838225 
L 99.601169 217.968722 
L 99.808301 217.972045 
L 99.919833 217.816346 
L 100.126964 217.745018 
L 100.238497 217.956104 
L 100.60496 217.862402 
L 100.716492 217.769513 
L 100.923624 217.730385 
L 101.035156 217.58172 
L 101.082955 217.58172 
L 101.194488 217.426976 
L 101.242287 217.426976 
L 101.353819 217.298635 
L 101.401619 217.298635 
L 101.513151 217.157852 
L 101.560951 217.157852 
L 101.672483 217.017918 
L 101.720283 217.017918 
L 101.831815 219.049493 
L 101.879615 219.049493 
L 101.991147 216.900923 
L 102.038946 216.900923 
L 102.150479 219.068863 
L 102.198278 219.068863 
L 102.30981 218.889094 
L 102.516942 218.999373 
L 102.628474 216.940757 
L 102.835606 217.011414 
L 102.947138 217.158029 
L 103.154269 217.063584 
L 103.265801 217.3314 
L 103.313601 217.3314 
L 103.425133 217.450198 
L 103.472933 217.450198 
L 103.584465 217.622474 
L 103.632265 217.622474 
L 103.743797 217.734237 
L 103.950928 217.761277 
L 104.062461 217.896546 
L 104.11026 217.896546 
L 104.221792 218.047225 
L 104.428924 218.089145 
L 104.540456 218.245904 
L 104.906919 218.139266 
L 105.018452 218.057193 
L 105.544247 218.032945 
L 105.655779 217.906584 
L 106.340906 217.965682 
L 106.452438 218.07483 
L 107.137565 218.010572 
L 107.249097 217.925953 
L 107.774892 217.841406 
L 107.886425 217.68857 
L 108.571552 217.741307 
L 108.683084 217.815639 
L 108.730883 217.815639 
L 108.842416 217.6885 
L 109.208879 217.799274 
L 109.320411 217.875197 
L 110.483534 217.792629 
L 110.595066 217.576489 
L 110.642865 217.576489 
L 110.754398 217.461402 
L 110.802197 217.461402 
L 110.91373 217.20571 
L 110.961529 217.20571 
L 111.073061 217.055702 
L 111.120861 217.055702 
L 111.232393 216.902124 
L 111.280193 216.902124 
L 111.391725 218.932463 
L 111.91752 218.958442 
L 112.029052 217.059696 
L 112.076852 217.059696 
L 112.188384 217.227625 
L 112.236184 217.227625 
L 112.347716 217.510003 
L 112.554847 217.602256 
L 112.66638 217.828752 
L 112.714179 217.828752 
L 112.825712 218.000463 
L 112.873511 218.000463 
L 112.985043 218.124809 
L 113.510838 218.067125 
L 113.622371 217.889971 
L 113.67017 217.889971 
L 113.781703 217.733212 
L 113.829502 217.733212 
L 113.941034 217.60625 
L 113.988834 217.60625 
L 114.100366 217.414074 
L 114.148166 217.414074 
L 114.259698 217.177434 
L 114.466829 217.071007 
L 114.578362 217.03453 
L 114.626161 217.03453 
L 114.737694 216.899085 
L 114.785493 216.899085 
L 114.897025 218.990289 
L 115.104157 218.976645 
L 115.215689 216.946802 
L 115.263489 216.946802 
L 115.375021 217.159336 
L 116.378811 217.171601 
L 116.490344 217.372826 
L 116.538143 217.372826 
L 116.649676 217.260814 
L 116.697475 217.260814 
L 116.809007 217.139755 
L 117.016139 217.029688 
L 117.127671 216.930012 
L 117.334802 216.917323 
L 117.446335 218.933241 
L 117.653466 218.927444 
L 117.764998 218.759904 
L 117.812798 218.759904 
L 117.92433 218.622374 
L 118.450125 218.726891 
L 118.561658 218.85495 
L 118.928121 218.95876 
L 119.039653 216.907886 
L 119.087453 216.907886 
L 119.198985 217.027885 
L 119.246784 217.027885 
L 119.358317 216.907497 
L 119.565448 216.916864 
L 119.67698 219.003013 
L 119.884112 218.900157 
L 119.995644 218.855727 
L 120.043444 218.855727 
L 120.154976 218.659451 
L 120.999435 218.633083 
L 121.110967 218.534928 
L 122.274089 218.445538 
L 122.385622 218.359294 
L 122.592753 218.283088 
L 122.704285 218.141917 
L 122.911417 218.150117 
L 123.022949 218.364879 
L 123.389412 218.308396 
L 123.500944 218.041923 
L 123.867408 217.936734 
L 123.97894 217.791321 
L 124.186071 217.702638 
L 124.297604 217.423582 
L 124.345403 217.423582 
L 124.456935 217.024209 
L 124.504735 217.024209 
L 124.616267 216.561602 
L 124.664067 216.561602 
L 124.775599 216.251371 
L 125.142062 216.348254 
L 125.255188 216.362923 
L 125.301394 216.362923 
L 125.412926 216.543576 
L 126.257385 216.579982 
L 126.368917 216.395406 
L 126.416717 216.395406 
L 126.528249 216.181952 
L 126.735381 216.15265 
L 126.846913 216.054176 
L 127.054044 216.106877 
L 127.165577 215.938878 
L 127.213376 215.938878 
L 127.324908 216.130594 
L 127.372708 216.130594 
L 127.48424 216.495823 
L 127.53204 216.495823 
L 127.643572 216.668382 
L 127.691372 216.668382 
L 127.802904 216.828746 
L 127.850704 216.828746 
L 127.962236 217.072492 
L 128.010035 217.072492 
L 128.121568 216.831079 
L 128.169367 216.831079 
L 128.280899 216.705778 
L 128.488031 216.701395 
L 128.599563 216.901983 
L 128.806695 216.957723 
L 128.918227 216.745966 
L 128.966026 216.745966 
L 129.077559 216.540395 
L 129.28469 216.433615 
L 129.396222 216.335494 
L 129.444022 216.335494 
L 129.555554 216.558527 
L 130.081349 216.53838 
L 130.192881 216.371583 
L 130.400013 216.39682 
L 130.511545 216.49084 
L 130.878008 216.557502 
L 130.989541 216.639823 
L 131.03734 216.639823 
L 131.148872 216.794001 
L 132.152663 216.837053 
L 132.264195 216.474934 
L 132.311995 216.474934 
L 132.423527 216.243913 
L 132.78999 216.338251 
L 132.901523 216.467441 
L 133.108654 216.448566 
L 133.220186 216.616459 
L 133.427318 216.674285 
L 133.53885 216.813972 
L 133.58665 216.813972 
L 133.698182 217.066306 
L 133.745981 217.066306 
L 133.857514 217.24961 
L 133.905313 217.24961 
L 134.016845 217.067225 
L 134.223977 217.016044 
L 134.335509 216.856811 
L 134.542641 216.799339 
L 134.654173 216.680541 
L 135.020636 216.588111 
L 135.132168 216.405161 
L 135.179968 216.405161 
L 135.2915 216.147596 
L 136.135959 216.085846 
L 136.247491 215.990483 
L 136.613954 215.949093 
L 136.725487 216.141233 
L 136.773286 216.141233 
L 136.884819 216.343589 
L 137.09195 216.28442 
L 137.203482 216.203407 
L 138.047941 216.116138 
L 138.159473 216.055237 
L 138.207273 216.055237 
L 138.318805 215.847544 
L 138.685268 215.815768 
L 138.796801 215.72242 
L 138.8446 215.72242 
L 138.956132 215.890525 
L 139.481927 215.899079 
L 139.59346 215.754479 
L 140.278587 215.761159 
L 140.390119 215.476943 
L 140.915914 215.441809 
L 141.027446 215.352313 
L 141.234578 215.309332 
L 141.34611 215.190005 
L 141.393909 215.190005 
L 141.505442 215.028898 
L 141.871905 214.999243 
L 141.983437 214.831527 
L 143.14656 214.78844 
L 143.258092 214.627227 
L 143.305891 214.627227 
L 143.417424 214.418722 
L 143.624555 214.334457 
L 143.736087 214.224426 
L 144.421214 214.13698 
L 144.532747 214.075549 
L 144.739878 214.152002 
L 144.85141 214.325197 
L 144.89921 214.325197 
L 145.010742 214.45884 
L 145.217873 214.53805 
L 145.329406 214.629065 
L 146.014533 214.533101 
L 146.126065 214.463682 
L 146.333196 214.42975 
L 146.444729 214.218594 
L 146.492528 214.218594 
L 146.60406 214.060774 
L 146.65186 214.060774 
L 146.763392 213.847709 
L 146.811192 213.847709 
L 146.922724 213.732411 
L 146.970524 213.732411 
L 147.082056 213.603151 
L 147.289187 213.492766 
L 147.40072 213.26733 
L 147.607851 213.183454 
L 147.719383 213.137221 
L 147.926515 213.071938 
L 148.038047 213.021746 
L 148.723174 213.081057 
L 148.834706 213.208726 
L 149.041837 213.219082 
L 149.15337 213.075154 
L 149.519833 212.969187 
L 149.631365 212.933983 
L 149.838497 212.88874 
L 149.950029 212.748098 
L 149.997828 212.748098 
L 150.109361 212.61898 
L 150.316492 212.578332 
L 150.428024 212.401956 
L 150.475824 212.401956 
L 150.587356 212.289061 
L 150.953819 212.378274 
L 151.065352 212.488766 
L 152.228474 212.522733 
L 152.340006 212.332148 
L 152.387806 212.332148 
L 152.499338 212.112685 
L 153.025133 212.103389 
L 153.136666 212.280437 
L 153.503129 212.346675 
L 153.614661 212.12283 
L 154.140456 212.042382 
L 154.251988 211.847945 
L 154.618452 211.750602 
L 154.729984 211.72897 
L 154.937115 211.759156 
L 155.048648 211.840345 
L 155.893106 211.768699 
L 156.004639 211.500035 
L 156.052438 211.500035 
L 156.16397 211.335818 
L 156.21177 211.335818 
L 156.323302 211.054606 
L 156.530434 211.055666 
L 156.641966 210.939838 
L 157.167761 210.938071 
L 157.279293 210.686832 
L 157.486425 210.660994 
L 157.597957 210.810543 
L 158.442416 210.814996 
L 158.553948 210.665059 
L 158.761079 210.765618 
L 158.872612 210.865718 
L 159.239075 210.884804 
L 159.350607 210.733453 
L 159.398407 210.733453 
L 159.509939 210.590833 
L 159.71707 210.526008 
L 159.828603 210.440789 
L 160.195066 210.367553 
L 160.306598 210.243877 
L 160.354398 210.243877 
L 160.46593 210.014836 
L 160.832393 209.952415 
L 160.943925 209.822201 
L 161.310389 209.931526 
L 161.421921 210.08475 
L 161.788384 210.156573 
L 161.899916 209.946901 
L 161.947716 209.946901 
L 162.059248 209.720334 
L 162.425712 209.691633 
L 162.537244 209.549755 
L 162.744375 209.536783 
L 162.855907 209.367617 
L 162.903707 209.367617 
L 163.015239 209.100084 
L 163.063039 209.100084 
L 163.174571 209.226481 
L 164.178362 209.28558 
L 164.289894 209.426574 
L 164.337694 209.426574 
L 164.449226 209.609807 
L 164.497025 209.609807 
L 164.608558 209.419081 
L 164.975021 209.499811 
L 165.086553 209.631934 
L 165.453016 209.67442 
L 165.564549 209.300531 
L 165.612348 209.300531 
L 165.723881 208.75684 
L 165.77168 208.75684 
L 165.883212 210.461184 
L 165.931012 210.461184 
L 166.042544 210.172655 
L 166.090344 210.172655 
L 166.201876 209.903002 
L 166.249676 209.903002 
L 166.361208 209.741329 
L 167.046335 209.674526 
L 167.157867 210.018123 
L 167.205667 210.018123 
L 167.317199 210.349067 
L 167.364998 210.349067 
L 167.476531 210.568176 
L 167.52433 210.568176 
L 167.635863 210.741689 
L 168.002326 210.6371 
L 168.113858 210.496353 
L 168.798985 210.408625 
L 168.910517 210.349844 
L 169.117649 210.258864 
L 169.229181 210.18439 
L 169.754976 210.100338 
L 169.866508 209.965175 
L 169.914308 209.965175 
L 170.02584 209.83079 
L 170.392303 209.760063 
L 170.503836 209.615887 
L 171.666958 209.566509 
L 171.77849 209.78993 
L 172.304285 209.793995 
L 172.415818 209.678767 
L 172.463617 209.678767 
L 172.575149 209.488571 
L 172.622949 209.488571 
L 172.734481 209.254475 
L 172.941613 209.144479 
L 173.053145 208.991325 
L 173.100944 208.991325 
L 173.212477 208.700075 
L 173.260276 208.700075 
L 173.371809 208.56265 
L 173.419608 208.56265 
L 173.53114 208.441272 
L 173.738272 208.343011 
L 173.849804 208.297803 
L 174.056935 208.203995 
L 174.168468 208.172573 
L 175.172258 208.120119 
L 175.283791 208.0226 
L 175.490922 207.965729 
L 175.602454 207.877929 
L 175.650254 207.877929 
L 175.761786 207.689607 
L 176.287581 207.615628 
L 176.399113 207.395493 
L 176.446913 207.395493 
L 176.558445 207.234599 
L 176.765577 207.304937 
L 176.877109 207.386657 
L 177.243572 207.419882 
L 177.355104 207.273515 
L 178.040231 207.188331 
L 178.151764 207.069428 
L 178.199563 207.069428 
L 178.311095 206.882907 
L 178.677559 206.98283 
L 178.789091 207.137857 
L 179.952213 207.108308 
L 180.063746 206.977952 
L 180.111545 206.977952 
L 180.223077 206.713954 
L 180.748872 206.724027 
L 180.860405 206.55723 
L 181.226868 206.495021 
L 181.3384 206.420795 
L 181.704863 206.374209 
L 181.816396 206.264531 
L 181.864195 206.264531 
L 181.975728 206.12039 
L 182.023527 206.12039 
L 182.135059 205.971372 
L 182.182859 205.971372 
L 182.294391 205.857417 
L 182.342191 205.857417 
L 182.453723 205.695285 
L 182.660854 205.715432 
L 182.772387 205.465608 
L 182.820186 205.465608 
L 182.931719 205.350521 
L 183.13885 205.363105 
L 183.250382 205.463558 
L 183.776177 205.456665 
L 183.88771 205.336312 
L 184.413505 205.326168 
L 184.525037 205.08465 
L 184.572836 205.08465 
L 184.684369 204.759715 
L 184.732168 204.759715 
L 184.843701 204.493808 
L 185.369496 204.511127 
L 185.481028 204.371087 
L 185.528827 204.371087 
L 185.64036 204.243205 
L 185.688159 204.243205 
L 185.799692 204.119671 
L 186.484819 204.026464 
L 186.596351 203.848781 
L 186.64415 203.848781 
L 186.755683 203.727191 
L 186.803482 203.727191 
L 186.915014 203.580929 
L 187.600141 203.567038 
L 187.711674 203.715986 
L 188.078137 203.757164 
L 188.189669 203.836303 
L 188.396801 203.946441 
L 188.508333 203.700999 
L 188.715464 203.608358 
L 188.826996 203.466126 
L 189.034128 203.367723 
L 189.14566 203.204814 
L 189.512123 203.118923 
L 189.623656 202.981074 
L 189.990119 203.019283 
L 190.101651 203.115636 
L 190.94611 203.019106 
L 191.057642 202.924698 
L 191.105442 202.924698 
L 191.216974 202.80537 
L 191.264774 202.80537 
L 191.376306 202.676534 
L 192.061433 202.605171 
L 192.172965 202.470503 
L 192.69876 202.550773 
L 192.810292 202.778613 
L 193.017424 202.752775 
L 193.128956 202.665577 
L 193.336087 202.607185 
L 193.44762 202.792292 
L 193.814083 202.819084 
L 193.925615 202.557701 
L 193.973415 202.557701 
L 194.084947 202.387051 
L 194.132747 202.387051 
L 194.244279 202.076785 
L 194.292078 202.076785 
L 194.403611 201.884645 
L 194.770074 201.80699 
L 194.881606 201.616864 
L 194.929406 201.616864 
L 195.040938 201.472653 
L 195.248069 201.413979 
L 195.359602 201.624605 
L 195.566733 201.637011 
L 195.678265 201.774896 
L 195.726065 201.774896 
L 195.837597 201.895567 
L 196.044729 201.817629 
L 196.156261 201.701447 
L 196.682056 201.733718 
L 196.793588 201.52758 
L 197.00072 201.591132 
L 197.112252 201.416029 
L 197.638047 201.422497 
L 197.749579 201.234033 
L 197.797379 201.234033 
L 197.908911 201.017787 
L 198.275374 200.964238 
L 198.386907 200.88934 
L 198.912702 200.827873 
L 199.024234 200.689918 
L 199.231365 200.763579 
L 199.342898 200.826 
L 199.550029 200.760221 
L 199.661561 200.675002 
L 199.868693 200.624846 
L 199.980225 200.489648 
L 200.028024 200.489648 
L 200.139557 202.493584 
L 200.346688 202.497295 
L 200.45822 202.278999 
L 200.50602 202.278999 
L 200.617552 202.032567 
L 200.665352 202.032567 
L 200.776884 201.910659 
L 201.462011 202.00938 
L 201.573543 202.123972 
L 201.780675 202.182434 
L 201.892207 202.425684 
L 201.940006 202.425684 
L 202.051539 200.419557 
L 202.418002 200.427192 
L 202.529534 202.517265 
L 202.577334 202.517265 
L 202.688866 202.364536 
L 202.736666 202.364536 
L 202.848198 202.061763 
L 202.895997 202.061763 
L 203.00753 201.879661 
L 203.055329 201.879661 
L 203.166862 201.611562 
L 203.214661 201.611562 
L 203.326193 201.37676 
L 203.373993 201.37676 
L 203.485525 201.223323 
L 203.692657 201.118982 
L 203.804189 201.029592 
L 204.01132 200.960314 
L 204.122853 200.861346 
L 204.489316 200.781181 
L 204.600848 201.067236 
L 204.967311 201.110676 
L 205.078844 201.17861 
L 205.285975 201.078334 
L 205.397507 200.97576 
L 205.604639 200.970741 
L 205.716171 200.772133 
L 205.76397 200.772133 
L 205.875503 200.624316 
L 205.923302 200.624316 
L 206.034835 200.268631 
L 206.082634 200.268631 
L 206.194166 200.048673 
L 206.241966 200.048673 
L 206.353498 199.881593 
L 206.401298 199.881593 
L 206.51283 199.6376 
L 206.56063 199.6376 
L 206.672162 199.503109 
L 206.879293 199.487274 
L 206.990826 199.361902 
L 207.038625 199.361902 
L 207.150157 199.481584 
L 208.472612 199.438037 
L 208.584144 199.366639 
L 208.631943 199.366639 
L 208.743476 199.575886 
L 208.950607 199.557648 
L 209.062139 199.44645 
L 209.109939 199.44645 
L 209.221471 199.318321 
L 209.428603 199.234834 
L 209.540135 199.015265 
L 209.747266 198.916261 
L 209.858799 198.812627 
L 210.06593 198.814359 
L 210.177462 198.602213 
L 211.659248 198.492358 
L 211.770781 198.377625 
L 211.977912 198.335104 
L 212.089444 198.160177 
L 212.296576 198.078034 
L 212.408108 198.02862 
L 212.455907 198.02862 
L 212.56744 197.880662 
L 212.774571 197.823932 
L 212.886103 197.667632 
L 212.933903 197.667632 
L 213.045435 197.515539 
L 214.049226 197.595951 
L 214.160758 197.664911 
L 214.686553 197.698454 
L 214.798085 197.511863 
L 214.845885 197.511863 
L 214.957417 197.325484 
L 215.005217 197.325484 
L 215.116749 197.210363 
L 215.483212 197.099483 
L 215.597931 197.091636 
L 215.801876 197.124366 
L 215.913408 196.84167 
L 215.961208 196.84167 
L 216.07274 196.713435 
L 216.279872 196.821628 
L 216.391404 197.063712 
L 216.757867 196.974429 
L 216.869399 196.919643 
L 217.554526 196.83658 
L 217.666058 196.619097 
L 217.713858 196.619097 
L 217.82539 196.290097 
L 217.87319 196.290097 
L 217.984722 196.123194 
L 218.351185 196.049886 
L 218.462718 195.827702 
L 218.510517 195.827702 
L 218.622049 195.632805 
L 218.829181 195.525601 
L 218.940713 195.454025 
L 219.62584 195.410267 
L 219.737372 195.336783 
L 219.944504 195.377749 
L 220.056036 195.448688 
L 220.263167 195.546031 
L 220.3747 195.565294 
L 220.422499 195.565294 
L 220.534031 195.398497 
L 220.900495 195.326639 
L 221.012027 195.276094 
L 221.219158 195.184089 
L 221.330691 195.060944 
L 221.37849 195.060944 
L 221.490022 194.74435 
L 221.537822 194.74435 
L 221.649354 194.493995 
L 221.697154 194.493995 
L 221.716274 83.282197 
L 221.807093 194.391316 
L 222.525679 194.464588 
L 222.554359 81.185267 
L 222.637212 81.843124 
L 222.735997 79.566637 
L 222.739184 83.754559 
L 222.845936 78.659591 
L 222.84753 78.659591 
L 223.051474 70.548133 
L 223.076968 70.765581 
L 223.104054 68.138886 
L 223.15026 69.427456 
L 223.279319 64.912442 
L 223.280912 64.912442 
L 223.300032 63.229271 
L 223.339865 67.396622 
L 223.394038 64.159433 
L 223.395631 64.159433 
L 223.484857 63.125071 
L 223.438651 67.467597 
L 223.49123 66.841833 
L 223.523097 67.4495 
L 223.49601 63.099905 
L 223.583643 63.61546 
L 223.644189 63.09835 
L 223.645782 67.469788 
L 223.695175 63.519885 
L 223.781214 60.379756 
L 223.728635 64.483484 
L 223.800334 63.611501 
L 223.806707 64.281659 
L 223.849727 58.7636 
L 223.89912 59.494483 
L 223.975599 56.322259 
L 223.942139 60.722328 
L 224.009059 59.656791 
L 224.010652 59.656791 
L 224.048892 53.928777 
L 224.136524 54.681079 
L 224.141304 54.75375 
L 224.147677 54.941932 
L 224.219377 52.941001 
L 224.22097 52.941001 
L 224.267176 53.791635 
L 224.340469 51.011469 
L 224.342062 51.011469 
L 224.444035 49.523619 
L 224.407388 51.532608 
L 224.464748 49.951375 
L 224.466341 49.951375 
L 224.491834 47.839316 
L 224.589027 49.026231 
L 224.593807 48.979857 
L 224.63842 47.53209 
L 224.705339 48.402023 
L 224.708526 48.420191 
L 224.735612 47.501268 
L 224.743579 47.579453 
L 224.746765 47.565739 
L 224.761105 48.354589 
L 224.762698 48.354589 
L 224.788191 49.442677 
L 224.859891 47.670009 
L 224.861484 47.670009 
L 224.882197 47.782833 
L 224.909284 46.69319 
L 224.915657 50.930102 
L 224.91725 46.638263 
L 225.019223 47.070048 
L 225.020816 47.070048 
L 225.065429 50.863511 
L 225.051089 46.608219 
L 225.137128 47.862362 
L 225.138721 47.862362 
L 225.223167 47.117836 
L 225.263 49.943104 
L 225.32992 46.718851 
L 225.318766 50.975628 
L 225.380906 47.800931 
L 225.425519 46.617691 
L 225.457385 46.759923 
L 225.476505 50.94728 
L 225.478098 46.744654 
L 225.567324 47.63021 
L 225.568917 47.63021 
L 225.581664 46.631194 
L 225.589631 50.944029 
L 225.67089 49.144923 
L 225.753742 58.045513 
L 225.710723 47.19284 
L 225.766489 49.962473 
L 225.782422 44.443636 
L 225.815882 60.902168 
L 225.873241 57.420103 
L 225.874835 57.420103 
L 225.948127 59.512085 
L 225.914668 46.451212 
L 225.97362 48.951934 
L 226.053286 46.935663 
L 226.010267 59.825391 
L 226.072406 57.064523 
L 226.081966 58.925555 
L 226.109052 49.119756 
L 226.179158 54.956706 
L 226.180752 54.956706 
L 226.199872 59.441747 
L 226.290691 54.788743 
L 226.292284 54.788743 
L 226.356017 53.287673 
L 226.325744 60.740425 
L 226.38151 58.112458 
L 226.457989 58.820366 
L 226.414969 52.764695 
L 226.475516 54.653156 
L 226.477109 54.653156 
L 226.550402 52.466023 
L 226.516942 59.961755 
L 226.579081 57.903352 
L 226.70336 60.538954 
L 226.606168 55.251208 
L 226.72248 59.699206 
L 226.744786 58.313081 
L 226.826046 61.832118 
L 226.827639 61.832118 
L 226.846759 61.189318 
L 226.877032 62.870722 
L 226.929611 62.483755 
L 227.098503 67.013968 
L 227.109656 66.273683 
L 227.11125 66.273683 
L 227.178169 63.084282 
L 227.186136 67.466607 
L 227.235528 64.513599 
L 227.353434 68.065225 
L 227.362994 67.719542 
L 227.378927 66.350384 
L 227.406013 72.746576 
L 227.455406 72.255975 
L 227.477713 69.691914 
L 227.504799 78.951618 
L 227.547819 73.62061 
L 227.630671 82.097403 
L 227.597212 73.547797 
L 227.659351 76.214927 
L 227.662538 75.790777 
L 227.695997 83.715962 
L 227.74539 82.526643 
L 227.775663 80.101067 
L 227.981201 194.379899 
L 228.009881 78.910829 
L 228.017848 196.109621 
L 228.09114 196.109621 
L 228.175586 196.109621 
L 228.287119 197.07626 
L 228.334918 197.07626 
L 228.44645 196.103647 
L 228.49425 196.103647 
L 228.605782 195.133049 
L 228.653582 195.133049 
L 228.765114 194.89913 
L 228.812914 194.89913 
L 228.924446 195.353926 
L 228.972245 195.353926 
L 229.083778 195.582755 
L 229.131577 195.582755 
L 229.24311 194.527503 
L 229.290909 194.527503 
L 229.300469 79.147081 
L 229.321182 195.439286 
L 229.400848 195.439286 
L 229.478921 195.439286 
L 229.590453 196.879172 
L 229.638252 196.879172 
L 229.749785 197.036143 
L 229.797584 197.036143 
L 229.909117 196.527056 
L 229.956916 196.527056 
L 230.068448 195.765953 
L 230.116248 195.765953 
L 230.22778 195.314338 
L 230.434912 195.332329 
L 230.546444 195.79833 
L 230.594243 195.79833 
L 230.705776 195.432818 
L 230.753575 195.432818 
L 230.865108 194.76167 
L 230.912907 194.76167 
L 230.916094 83.877563 
L 231.022846 194.657117 
L 231.075426 194.657117 
L 231.186958 195.157155 
L 231.234757 195.157155 
L 231.34629 194.767997 
L 231.394089 194.767997 
L 231.400463 83.473206 
L 231.504028 194.737564 
L 231.562981 194.737564 
L 231.674513 194.865481 
L 231.881645 194.843955 
L 231.993177 194.456635 
L 232.040977 194.456635 
L 232.044163 82.794494 
L 232.048943 195.198934 
L 232.150916 195.198934 
L 232.206682 195.198934 
L 232.318214 196.158363 
L 232.525345 196.079153 
L 232.636878 195.767367 
L 232.684677 195.767367 
L 232.796209 195.62312 
L 232.844009 195.62312 
L 232.955541 195.502308 
L 233.003341 195.502308 
L 233.114873 195.770866 
L 233.162673 195.770866 
L 233.274205 196.886948 
L 233.322004 196.886948 
L 233.433537 197.812056 
L 233.481336 197.812056 
L 233.592869 198.225921 
L 233.640668 198.225921 
L 233.7522 197.690501 
L 233.8 197.690501 
L 233.911532 197.086086 
L 233.959332 197.086086 
L 234.070864 196.684204 
L 234.437327 196.744327 
L 234.54886 197.146881 
L 234.596659 197.146881 
L 234.708191 196.644652 
L 234.755991 196.644652 
L 234.867523 195.996585 
L 234.915323 195.996585 
L 235.026855 195.212295 
L 235.233987 195.316 
L 235.345519 196.158752 
L 235.393318 196.158752 
L 235.504851 196.906706 
L 235.55265 196.906706 
L 235.664182 197.328559 
L 235.711982 197.328559 
L 235.823514 196.801835 
L 235.871314 196.801835 
L 235.982846 195.927978 
L 236.030646 195.927978 
L 236.142178 195.758636 
L 236.189978 195.758636 
L 236.30151 196.333572 
L 236.349309 196.333572 
L 236.460842 197.454709 
L 236.508641 197.454709 
L 236.620173 198.444146 
L 236.667973 198.444146 
L 236.779505 198.902759 
L 236.827305 198.902759 
L 236.938837 198.702772 
L 236.986637 198.702772 
L 237.098169 198.068419 
L 237.3053 198.080755 
L 237.416833 198.488717 
L 237.464632 198.488717 
L 237.576164 199.024597 
L 237.623964 199.024597 
L 237.735496 199.139047 
L 237.783296 199.139047 
L 237.894828 198.953834 
L 237.942628 198.953834 
L 238.05416 198.68973 
L 238.10196 198.68973 
L 238.213492 198.307428 
L 238.261291 198.307428 
L 238.372824 198.143459 
L 238.579955 198.154699 
L 238.691487 197.933327 
L 238.739287 197.933327 
L 238.850819 197.751685 
L 239.217282 197.814035 
L 239.328815 197.973233 
L 239.376614 197.973233 
L 239.488146 198.090581 
L 239.85461 198.125892 
L 239.966142 198.225744 
L 240.013942 198.225744 
L 240.125474 198.641376 
L 240.173273 198.641376 
L 240.284806 199.225821 
L 240.332605 199.225821 
L 240.444137 199.704793 
L 240.491937 199.704793 
L 240.603469 199.965575 
L 241.288596 199.931537 
L 241.400128 199.743355 
L 241.447928 199.743355 
L 241.55946 199.393502 
L 241.60726 199.393502 
L 241.718792 198.998299 
L 241.766592 198.998299 
L 241.878124 198.710159 
L 242.085255 198.730342 
L 242.196788 199.090234 
L 242.244587 199.090234 
L 242.356119 199.612681 
L 242.403919 199.612681 
L 242.515451 200.096143 
L 242.881915 200.127318 
L 242.993447 200.313661 
L 243.041246 200.313661 
L 243.152779 200.505872 
L 243.519242 200.425637 
L 243.630774 200.270645 
L 243.678574 200.270645 
L 243.790106 200.034111 
L 243.997237 200.020255 
L 244.10877 200.592222 
L 244.156569 200.592222 
L 244.268102 200.800303 
L 244.475233 200.75803 
L 244.586765 200.463634 
L 244.634565 200.463634 
L 244.746097 200.346073 
L 244.953228 200.450768 
L 245.064761 200.765417 
L 245.11256 200.765417 
L 245.224093 201.260436 
L 245.271892 201.260436 
L 245.383424 201.473183 
L 245.431224 201.473183 
L 245.542756 201.079147 
L 245.909219 201.064726 
L 246.020752 201.342015 
L 246.068551 201.342015 
L 246.180084 201.794371 
L 246.227883 201.794371 
L 246.339415 202.14836 
L 246.387215 202.14836 
L 246.498747 202.287588 
L 247.024542 202.381502 
L 247.136075 202.554237 
L 247.343206 202.587745 
L 247.454738 200.415775 
L 247.502538 200.415775 
L 247.61407 202.497295 
L 247.821201 202.436359 
L 247.932734 202.357785 
L 248.139865 202.249273 
L 248.252991 202.236513 
L 248.458529 202.192649 
L 248.570061 201.979654 
L 248.617861 201.979654 
L 248.729393 201.828021 
L 248.936524 201.752027 
L 249.048057 202.007578 
L 249.095856 202.007578 
L 249.207388 202.377932 
L 249.255188 202.377932 
L 249.36672 200.564122 
L 249.41452 200.564122 
L 249.526052 200.854701 
L 249.892515 200.959678 
L 250.004048 201.312218 
L 250.051847 201.312218 
L 250.163379 201.708021 
L 250.211179 201.708021 
L 250.322711 202.13295 
L 250.370511 202.13295 
L 250.482043 202.246162 
L 250.689174 202.165114 
L 250.800707 202.057345 
L 251.16717 202.132773 
L 251.278702 202.174728 
L 251.485834 202.078057 
L 251.597366 201.893729 
L 251.645165 201.893729 
L 251.756698 201.67575 
L 251.804497 201.67575 
L 251.91603 201.441443 
L 252.282493 201.544829 
L 252.394025 201.719544 
L 252.441825 201.719544 
L 252.553357 201.832969 
L 252.601156 201.832969 
L 252.712689 202.17487 
L 252.760488 202.17487 
L 252.872021 202.366692 
L 252.91982 202.366692 
L 253.031352 202.596511 
L 253.079152 202.596511 
L 253.190684 202.890447 
L 253.238484 202.890447 
L 253.350016 203.262781 
L 253.397816 203.262781 
L 253.509348 203.566332 
L 253.716479 203.59482 
L 253.828012 203.37154 
L 253.875811 203.37154 
L 253.987343 203.165014 
L 254.035143 203.165014 
L 254.146675 202.930212 
L 254.67247 203.007902 
L 254.784003 203.054664 
L 255.150466 203.006241 
L 255.261998 203.295299 
L 255.309798 203.295299 
L 255.42133 203.673253 
L 255.469129 203.673253 
L 255.580662 203.804492 
L 255.628461 203.804492 
L 255.739994 203.662013 
L 256.106457 203.75978 
L 256.217989 203.823473 
L 256.265789 203.823473 
L 256.377321 204.021127 
L 256.42512 204.021127 
L 256.536653 204.264908 
L 257.22178 204.33263 
L 257.333312 204.565984 
L 257.699775 204.553224 
L 257.811307 204.436583 
L 258.337102 204.411664 
L 258.448635 204.654243 
L 258.97443 204.683226 
L 259.085962 204.875861 
L 259.133762 204.875861 
L 259.245294 205.122611 
L 259.611757 205.222993 
L 259.723289 205.289868 
L 259.771089 205.289868 
L 259.882621 205.478544 
L 259.930421 205.478544 
L 260.041953 205.689983 
L 260.089753 205.689983 
L 260.201285 205.831332 
L 260.249084 205.831332 
L 260.360617 206.011348 
L 261.842403 206.106888 
L 261.953935 206.422774 
L 262.001735 206.422774 
L 262.113267 206.724133 
L 262.161066 206.724133 
L 262.272599 207.038005 
L 262.320398 207.038005 
L 262.431931 207.246122 
L 262.639062 207.322009 
L 262.750594 207.495911 
L 262.798394 207.495911 
L 262.909926 207.73386 
L 262.957726 207.73386 
L 263.069258 208.07265 
L 263.117058 208.07265 
L 263.22859 208.355099 
L 263.435721 208.36648 
L 263.547253 208.219866 
L 264.869708 208.290805 
L 264.98124 208.485136 
L 265.188371 208.555475 
L 265.299904 208.68371 
L 265.507035 208.662785 
L 265.618567 208.874259 
L 265.666367 208.874259 
L 265.777899 209.039501 
L 265.985031 209.12981 
L 266.096563 209.231465 
L 266.144362 209.231465 
L 266.255895 209.392006 
L 266.303694 209.392006 
L 266.415226 209.545619 
L 266.622358 209.621366 
L 266.73389 209.66986 
L 267.100353 209.644411 
L 267.211886 209.431346 
L 267.578349 209.337927 
L 267.689881 209.280879 
L 268.056344 209.369243 
L 268.167877 209.53703 
L 268.215676 209.53703 
L 268.327208 209.837152 
L 268.375008 209.837152 
L 268.48654 210.011867 
L 268.693672 210.079024 
L 268.805204 210.315948 
L 268.853004 210.315948 
L 268.964536 210.500489 
L 269.012335 210.500489 
L 269.123868 210.809447 
L 269.171667 210.809447 
L 269.283199 208.870371 
L 269.330999 208.870371 
L 269.442531 209.099943 
L 269.649663 209.180638 
L 269.761195 209.226693 
L 269.968326 209.309898 
L 270.079859 209.552724 
L 270.605654 209.621719 
L 270.717186 209.668694 
L 270.924317 209.750661 
L 271.03585 209.85638 
L 271.402313 209.965988 
L 271.513845 210.085952 
L 271.880308 210.161451 
L 271.991841 210.229386 
L 272.03964 210.229386 
L 272.151173 210.392896 
L 272.198972 210.392896 
L 272.310504 210.535552 
L 272.358304 210.535552 
L 272.469836 210.675239 
L 273.154963 210.705247 
L 273.266495 210.793329 
L 273.473627 210.794319 
L 273.585159 210.637595 
L 273.632959 210.637595 
L 273.744491 210.453443 
L 274.110954 210.539157 
L 274.222486 210.778873 
L 274.270286 210.778873 
L 274.381818 211.024491 
L 274.429618 211.024491 
L 274.54115 211.252578 
L 274.58895 211.252578 
L 274.700482 211.372472 
L 274.748281 211.372472 
L 274.859814 211.514668 
L 274.907613 211.514668 
L 275.019146 211.784287 
L 275.066945 211.784287 
L 275.178477 212.145769 
L 275.226277 212.145769 
L 275.337809 212.478515 
L 275.385609 212.478515 
L 275.497141 212.711445 
L 275.704272 212.755627 
L 275.815805 212.824834 
L 275.863604 212.824834 
L 275.975137 212.960103 
L 276.022936 212.960103 
L 276.134468 213.143336 
L 276.3416 213.238805 
L 276.453132 213.293344 
L 276.819595 213.255065 
L 276.931128 213.432996 
L 276.978927 213.432996 
L 277.090459 213.672217 
L 277.138259 213.672217 
L 277.249791 213.874607 
L 277.297591 213.874607 
L 277.409123 214.005741 
L 277.616254 214.066712 
L 277.727787 214.307983 
L 277.775586 214.307983 
L 277.887119 214.6168 
L 278.09425 214.661654 
L 278.205782 214.788935 
L 278.253582 214.788935 
L 278.365114 215.082942 
L 278.412914 215.082942 
L 278.524446 215.246487 
L 278.572245 215.246487 
L 278.683778 215.49656 
L 278.731577 215.49656 
L 278.84311 215.842561 
L 278.890909 215.842561 
L 279.002441 216.061882 
L 279.050241 216.061882 
L 279.161773 216.403394 
L 279.209573 216.403394 
L 279.321105 216.7407 
L 279.368905 216.7407 
L 279.480437 217.263324 
L 279.528236 217.263324 
L 279.639769 217.72533 
L 279.687568 217.72533 
L 279.799101 217.959285 
L 279.8469 217.959285 
L 279.958432 218.256155 
L 280.006232 218.256155 
L 280.117764 218.557054 
L 280.165564 218.557054 
L 280.277096 218.785318 
L 280.324896 218.785318 
L 280.436428 219.019449 
L 280.484227 219.019449 
L 280.59576 216.992999 
L 281.121555 216.999432 
L 281.233087 219.074801 
L 281.280887 219.074801 
L 281.392419 216.899509 
L 281.440218 216.899509 
L 281.551751 218.900687 
L 281.59955 218.900687 
L 281.711083 218.62764 
L 281.758882 218.62764 
L 281.870414 218.325892 
L 281.918214 218.325892 
L 282.029746 217.836104 
L 282.077546 217.836104 
L 282.189078 217.236744 
L 282.236878 217.236744 
L 282.34841 216.48324 
L 282.396209 216.48324 
L 282.507742 215.84203 
L 282.555541 215.84203 
L 282.667074 214.984786 
L 282.714873 214.984786 
L 282.826405 213.902283 
L 282.874205 213.902283 
L 282.985737 212.69508 
L 283.033537 212.69508 
L 283.145069 211.46628 
L 283.192869 211.46628 
L 283.304401 210.084361 
L 283.3522 210.084361 
L 283.463733 210.785094 
L 283.511532 210.785094 
L 283.623065 209.181592 
L 283.670864 209.181592 
L 283.782396 207.410798 
L 283.830196 207.410798 
L 283.941728 205.624099 
L 283.989528 205.624099 
L 284.10106 203.850406 
L 284.14886 203.850406 
L 284.260392 201.849334 
L 284.308191 201.849334 
L 284.419724 202.13355 
L 284.467523 202.13355 
L 284.579056 199.834159 
L 284.626855 199.834159 
L 284.738387 197.730265 
L 284.786187 197.730265 
L 284.897719 195.627043 
L 284.945519 195.627043 
L 285.002878 46.632113 
L 285.049084 196.589406 
L 285.055458 196.589406 
L 285.206823 196.589406 
L 285.318355 200.006081 
L 285.366155 200.006081 
L 285.477687 201.297479 
L 285.525487 201.297479 
L 285.637019 204.438916 
L 285.684819 204.438916 
L 285.796351 207.574096 
L 285.84415 207.574096 
L 285.955683 210.458038 
L 286.003482 210.458038 
L 286.115014 210.791491 
L 286.162814 210.791491 
L 286.274346 212.909311 
L 286.322146 212.909311 
L 286.433678 214.628889 
L 286.481478 214.628889 
L 286.59301 215.860481 
L 286.64081 215.860481 
L 286.752342 216.31107 
L 286.959473 216.214117 
L 287.071005 215.675869 
L 287.118805 215.675869 
L 287.230337 214.434416 
L 287.278137 214.434416 
L 287.389669 212.663728 
L 287.437469 212.663728 
L 287.549001 210.314817 
L 287.596801 210.314817 
L 287.708333 209.90742 
L 287.756132 209.90742 
L 287.867665 206.686031 
L 287.915464 206.686031 
L 288.026996 203.333473 
L 288.074796 203.333473 
L 288.186328 202.090499 
L 288.234128 202.090499 
L 288.34566 198.77714 
L 288.39346 198.77714 
L 288.504992 195.628917 
L 288.552792 195.628917 
L 288.597404 48.378977 
L 288.634051 197.083153 
L 288.66273 197.083153 
L 288.791789 197.083153 
L 288.903322 200.487846 
L 288.951121 200.487846 
L 289.062653 201.657512 
L 289.110453 201.657512 
L 289.221985 205.184961 
L 289.269785 205.184961 
L 289.381317 208.484748 
L 289.429117 208.484748 
L 289.540649 209.180143 
L 289.588448 209.180143 
L 289.699981 211.507069 
L 289.74778 211.507069 
L 289.859313 213.604883 
L 289.907112 213.604883 
L 290.018644 215.31778 
L 290.066444 215.31778 
L 290.177976 216.66354 
L 290.225776 216.66354 
L 290.337308 217.22508 
L 290.385108 217.22508 
L 290.49664 217.073234 
L 290.544439 217.073234 
L 290.655972 216.14703 
L 290.703771 216.14703 
L 290.815304 214.903986 
L 290.863103 214.903986 
L 290.974635 213.160444 
L 291.022435 213.160444 
L 291.133967 211.041599 
L 291.181767 211.041599 
L 291.293299 210.63908 
L 291.341099 210.63908 
L 291.452631 207.626302 
L 291.50043 207.626302 
L 291.611963 204.287883 
L 291.659762 204.287883 
L 291.771295 201.070912 
L 291.819094 201.070912 
L 291.930626 199.984662 
L 291.978426 199.984662 
L 292.089958 196.818094 
L 292.137758 196.818094 
L 292.182371 49.284539 
L 292.247697 196.114817 
L 292.383129 196.114817 
L 292.494661 199.257279 
L 292.542461 199.257279 
L 292.653993 202.523663 
L 292.701792 202.523663 
L 292.813325 203.672864 
L 292.861124 203.672864 
L 292.972657 206.881953 
L 293.020456 206.881953 
L 293.131988 209.787809 
L 293.179788 209.787809 
L 293.29132 210.329379 
L 293.33912 210.329379 
L 293.450652 212.76047 
L 293.498452 212.76047 
L 293.609984 214.845877 
L 293.657783 214.845877 
L 293.769316 216.6886 
L 293.817115 216.6886 
L 293.928648 217.885695 
L 293.976447 217.885695 
L 294.087979 218.527753 
L 294.295111 218.61329 
L 294.406643 218.215931 
L 294.454443 218.215931 
L 294.565975 217.409409 
L 294.613774 217.409409 
L 294.725307 215.994583 
L 294.773106 215.994583 
L 294.884639 214.261928 
L 294.932438 214.261928 
L 295.04397 212.009546 
L 295.09177 212.009546 
L 295.203302 209.457573 
L 295.251102 209.457573 
L 295.362634 208.975596 
L 295.410434 208.975596 
L 295.521966 206.161886 
L 295.569765 206.161886 
L 295.681298 203.19474 
L 295.729097 203.19474 
L 295.84063 202.444665 
L 295.888429 202.444665 
L 295.999961 199.387952 
L 296.047761 199.387952 
L 296.159293 196.577176 
L 296.207093 196.577176 
L 296.261266 47.989678 
L 296.317032 195.803914 
L 296.471584 195.803914 
L 296.583116 198.420571 
L 296.630916 198.420571 
L 296.742448 200.972473 
L 296.790247 200.972473 
L 296.90178 201.424264 
L 296.949579 201.424264 
L 297.061111 203.924103 
L 297.108911 203.924103 
L 297.220443 206.524535 
L 297.268243 206.524535 
L 297.379775 208.908651 
L 297.427575 208.908651 
L 297.539107 209.021758 
L 297.586907 209.021758 
L 297.698439 211.147106 
L 297.746238 211.147106 
L 297.857771 213.054865 
L 297.90557 213.054865 
L 298.017102 214.61217 
L 298.064902 214.61217 
L 298.176434 216.07906 
L 298.224234 216.07906 
L 298.335766 217.188815 
L 298.383566 217.188815 
L 298.495098 218.079567 
L 298.542898 218.079567 
L 298.65443 218.501915 
L 298.702229 218.501915 
L 298.813762 218.749195 
L 299.020893 218.643758 
L 299.132425 218.303483 
L 299.180225 218.303483 
L 299.291757 217.740776 
L 299.339557 217.740776 
L 299.451089 216.693442 
L 299.498889 216.693442 
L 299.610421 215.401797 
L 299.65822 215.401797 
L 299.769753 213.955055 
L 299.817552 213.955055 
L 299.929084 212.383258 
L 299.976884 212.383258 
L 300.088416 210.623704 
L 300.136216 210.623704 
L 300.247748 208.709477 
L 300.45488 208.790596 
L 300.566412 206.577978 
L 300.614211 206.577978 
L 300.725744 204.242604 
L 300.773543 204.242604 
L 300.885075 202.129238 
L 300.932875 202.129238 
L 301.044407 201.940244 
L 301.092207 201.940244 
L 301.203739 199.552593 
L 301.251539 199.552593 
L 301.363071 197.174769 
L 301.410871 197.174769 
L 301.522403 194.912562 
L 301.570202 194.912562 
L 301.637122 48.092393 
L 301.681735 66.034604 
L 301.845846 196.22863 
L 301.860186 196.22863 
L 301.971719 198.400706 
L 302.019518 198.400706 
L 302.13105 200.378273 
L 302.17885 200.378273 
L 302.290382 202.141503 
L 302.338182 202.141503 
L 302.449714 201.708233 
L 302.497514 201.708233 
L 302.609046 204.082028 
L 302.656845 204.082028 
L 302.768378 206.573807 
L 302.816177 206.573807 
L 302.92771 208.679468 
L 302.975509 208.679468 
L 303.087041 210.513213 
L 303.134841 210.513213 
L 303.246373 210.144414 
L 303.294173 210.144414 
L 303.405705 211.908492 
L 303.453505 211.908492 
L 303.565037 213.572329 
L 303.612836 213.572329 
L 303.724369 215.114541 
L 303.772168 215.114541 
L 303.883701 216.546262 
L 303.9315 216.546262 
L 304.043032 217.500742 
L 304.090832 217.500742 
L 304.202364 218.127213 
L 304.250164 218.127213 
L 304.361696 218.708264 
L 304.409496 218.708264 
L 304.521028 216.992256 
L 304.568827 216.992256 
L 304.68036 217.222888 
L 304.728159 217.222888 
L 304.839692 217.099602 
L 304.887491 217.099602 
L 304.999023 216.953022 
L 305.046823 216.953022 
L 305.158355 218.601237 
L 305.206155 218.601237 
L 305.317687 217.731516 
L 305.365487 217.731516 
L 305.477019 216.574998 
L 305.524819 216.574998 
L 305.636351 215.410704 
L 305.68415 215.410704 
L 305.795683 214.099443 
L 305.843482 214.099443 
L 305.955014 212.641354 
L 306.002814 212.641354 
L 306.114346 211.198676 
L 306.162146 211.198676 
L 306.273678 209.480159 
L 306.321478 209.480159 
L 306.43301 209.783851 
L 306.48081 209.783851 
L 306.592342 207.884893 
L 306.640141 207.884893 
L 306.751674 206.052102 
L 306.799473 206.052102 
L 306.911005 204.562237 
L 306.958805 204.562237 
L 307.070337 202.837747 
L 307.118137 202.837747 
L 307.229669 201.036061 
L 307.277469 201.036061 
L 307.389001 201.248843 
L 307.436801 201.248843 
L 307.548333 199.40711 
L 307.596132 199.40711 
L 307.707665 197.528087 
L 307.755464 197.528087 
L 307.866996 195.552994 
L 307.914796 195.552994 
L 307.988089 49.731947 
L 308.026328 76.554531 
L 308.16654 194.730283 
L 308.188847 194.730283 
L 308.300379 197.939548 
L 308.348179 197.939548 
L 308.459711 201.569147 
L 308.50751 201.569147 
L 308.619043 202.810954 
L 308.666842 202.810954 
L 308.778375 206.169026 
L 308.826174 206.169026 
L 308.937706 209.41894 
L 308.985506 209.41894 
L 309.097038 210.227936 
L 309.144838 210.227936 
L 309.25637 212.714166 
L 309.30417 212.714166 
L 309.415702 214.782184 
L 309.463501 214.782184 
L 309.575034 216.312484 
L 309.622833 216.312484 
L 309.734366 217.367524 
L 309.941497 217.413968 
L 310.053029 216.917252 
L 310.100829 216.917252 
L 310.212361 215.951355 
L 310.260161 215.951355 
L 310.371693 214.255707 
L 310.419492 214.255707 
L 310.531025 211.709353 
L 310.578824 211.709353 
L 310.690357 208.829052 
L 310.738156 208.829052 
L 310.849688 207.537619 
L 310.897488 207.537619 
L 311.00902 203.965069 
L 311.05682 203.965069 
L 311.168352 202.297591 
L 311.216152 202.297591 
L 311.327684 198.615291 
L 311.375483 198.615291 
L 311.487016 194.95844 
L 311.534815 194.95844 
L 311.566682 51.293529 
L 311.600141 195.891077 
L 311.644754 195.891077 
L 311.75788 195.891077 
L 311.869412 199.332919 
L 311.917212 199.332919 
L 312.028744 200.821087 
L 312.076544 200.821087 
L 312.188076 204.524594 
L 312.235875 204.524594 
L 312.347408 207.839897 
L 312.395207 207.839897 
L 312.506739 208.770095 
L 312.554539 208.770095 
L 312.666071 211.434292 
L 312.713871 211.434292 
L 312.825403 213.229262 
L 312.873203 213.229262 
L 312.984735 214.342269 
L 313.032535 214.342269 
L 313.144067 214.632247 
L 313.191866 214.632247 
L 313.303399 214.221527 
L 313.351198 214.221527 
L 313.46273 212.762414 
L 313.51053 212.762414 
L 313.622062 210.570579 
L 313.669862 210.570579 
L 313.781394 209.820999 
L 313.829194 209.820999 
L 313.940726 206.258133 
L 313.988526 206.258133 
L 314.100058 202.430315 
L 314.147857 202.430315 
L 314.25939 200.688858 
L 314.307189 200.688858 
L 314.418721 196.623126 
L 314.466521 196.623126 
L 314.498387 51.593403 
L 314.57646 196.043453 
L 314.683212 196.043453 
L 314.794745 200.482014 
L 314.842544 200.482014 
L 314.954076 202.755461 
L 315.001876 202.755461 
L 315.113408 206.938294 
L 315.161208 206.938294 
L 315.27274 210.69429 
L 315.32054 210.69429 
L 315.432072 211.558144 
L 315.479872 211.558144 
L 315.591404 213.868422 
L 315.639203 213.868422 
L 315.750736 215.160703 
L 315.798535 215.160703 
L 315.910067 215.347824 
L 315.957867 215.347824 
L 316.069399 214.373621 
L 316.117199 214.373621 
L 316.228731 212.5643 
L 316.276531 212.5643 
L 316.388063 209.850407 
L 316.435863 209.850407 
L 316.547395 208.494432 
L 316.595194 208.494432 
L 316.706727 204.405584 
L 316.754526 204.405584 
L 316.866058 202.242699 
L 316.913858 202.242699 
L 317.02539 197.808026 
L 317.07319 197.808026 
L 317.10187 52.04887 
L 317.183129 195.068402 
L 317.283508 195.068402 
L 317.39504 200.248059 
L 317.44284 200.248059 
L 317.554372 203.124543 
L 317.602172 203.124543 
L 317.713704 207.648817 
L 317.761503 207.648817 
L 317.873036 209.367723 
L 317.920835 209.367723 
L 318.032367 212.212043 
L 318.080167 212.212043 
L 318.191699 213.835868 
L 318.239499 213.835868 
L 318.351031 214.363123 
L 318.398831 214.363123 
L 318.510363 213.394999 
L 318.558163 213.394999 
L 318.669695 210.890566 
L 318.717494 210.890566 
L 318.829027 209.213863 
L 318.876826 209.213863 
L 318.988358 204.528199 
L 319.036158 204.528199 
L 319.14769 201.858241 
L 319.19549 201.858241 
L 319.307022 196.780981 
L 319.354822 196.780981 
L 319.373942 57.315833 
L 319.394655 199.137421 
L 319.464761 199.137421 
L 319.552393 199.137421 
L 319.663925 202.511115 
L 319.711725 202.511115 
L 319.823257 207.138493 
L 319.871057 207.138493 
L 319.982589 210.434498 
L 320.030389 210.434498 
L 320.141921 210.168767 
L 320.189721 210.168767 
L 320.301253 210.405055 
L 320.349052 210.405055 
L 320.460585 208.790666 
L 320.508384 208.790666 
L 320.619916 207.642809 
L 320.667716 207.642809 
L 320.779248 202.986482 
L 320.827048 202.986482 
L 320.93858 199.707656 
L 320.98638 199.707656 
L 321.0055 59.727341 
L 321.096319 196.348206 
L 321.177578 196.348206 
L 321.28911 202.166988 
L 321.33691 202.166988 
L 321.448442 205.002824 
L 321.496242 205.002824 
L 321.607774 208.773312 
L 321.814905 208.739061 
L 321.926438 208.954601 
L 321.974237 208.954601 
L 322.085769 209.472524 
L 322.133569 209.472524 
L 322.245101 206.469148 
L 322.292901 206.469148 
L 322.404433 201.827031 
L 322.452233 201.827031 
L 322.563765 198.642401 
L 322.611564 198.642401 
L 322.627498 59.448179 
L 322.721503 197.830718 
L 322.802763 197.830718 
L 322.914295 201.261355 
L 322.962094 201.261355 
L 323.073627 206.071472 
L 323.121426 206.071472 
L 323.232959 209.614508 
L 323.280758 209.614508 
L 323.39229 209.075342 
L 323.44009 209.075342 
L 323.551622 208.864292 
L 323.599422 208.864292 
L 323.710954 209.110299 
L 323.758754 209.110299 
L 323.870286 205.475787 
L 323.918085 205.475787 
L 324.029618 200.636298 
L 324.077417 200.636298 
L 324.18895 197.410632 
L 324.236749 197.410632 
L 324.255869 57.872177 
L 324.346688 195.270969 
L 324.427947 195.270969 
L 324.53948 200.973604 
L 324.587279 200.973604 
L 324.698811 204.048096 
L 324.746611 204.048096 
L 324.858143 208.196926 
L 324.905943 208.196926 
L 325.017475 208.950041 
L 325.065275 208.950041 
L 325.176807 210.236278 
L 325.224606 210.236278 
L 325.336139 210.067749 
L 325.383938 210.067749 
L 325.495471 210.213975 
L 325.54327 210.213975 
L 325.654802 206.616187 
L 325.702602 206.616187 
L 325.814134 201.973504 
L 325.861934 201.973504 
L 325.973466 198.712987 
L 326.021266 198.712987 
L 326.043572 56.610753 
L 326.131205 198.103836 
L 326.218837 198.103836 
L 326.330369 201.424971 
L 326.378169 201.424971 
L 326.489701 206.327623 
L 326.537501 206.327623 
L 326.649033 210.600659 
L 326.696833 210.600659 
L 326.808365 211.292166 
L 326.856164 211.292166 
L 326.967697 212.401214 
L 327.015496 212.401214 
L 327.127029 212.036091 
L 327.174828 212.036091 
L 327.28636 210.140667 
L 327.33416 210.140667 
L 327.445692 209.142005 
L 327.493492 209.142005 
L 327.605024 204.842106 
L 327.652824 204.842106 
L 327.764356 201.979089 
L 327.812155 201.979089 
L 327.923688 196.838948 
L 327.971487 196.838948 
L 327.990607 58.102561 
L 328.01132 197.785935 
L 328.081426 197.785935 
L 328.169059 197.785935 
L 328.280591 200.917829 
L 328.328391 200.917829 
L 328.439923 206.086812 
L 328.487722 206.086812 
L 328.599255 210.295518 
L 328.647054 210.295518 
L 328.758587 211.238051 
L 328.806386 211.238051 
L 328.917918 213.100108 
L 328.965718 213.100108 
L 329.07725 213.77419 
L 329.12505 213.77419 
L 329.236582 212.648458 
L 329.284382 212.648458 
L 329.395914 210.092597 
L 329.443713 210.092597 
L 329.555246 208.548264 
L 329.603045 208.548264 
L 329.714578 203.823438 
L 329.762377 203.823438 
L 329.873909 200.766548 
L 329.921709 200.766548 
L 330.033241 195.609406 
L 330.081041 195.609406 
L 330.103347 56.623689 
L 330.19098 194.747496 
L 330.278612 194.747496 
L 330.390145 200.19345 
L 330.437944 200.19345 
L 330.549476 203.296854 
L 330.597276 203.296854 
L 330.708808 208.211135 
L 330.756608 208.211135 
L 330.86814 210.137981 
L 330.91594 210.137981 
L 331.027472 213.157156 
L 331.075271 213.157156 
L 331.186804 214.683922 
L 331.393935 214.73019 
L 331.505467 213.290128 
L 331.553267 213.290128 
L 331.664799 210.670608 
L 331.712599 210.670608 
L 331.824131 209.049716 
L 331.871931 209.049716 
L 331.983463 204.397879 
L 332.031262 204.397879 
L 332.142795 201.541118 
L 332.190594 201.541118 
L 332.302127 196.420912 
L 332.349926 196.420912 
L 332.372233 56.932471 
L 332.392946 198.199305 
L 332.459865 198.199305 
L 332.550684 198.199305 
L 332.662217 201.234386 
L 332.710016 201.234386 
L 332.821548 206.286057 
L 332.869348 206.286057 
L 332.98088 210.661913 
L 333.02868 210.661913 
L 333.140212 211.923055 
L 333.188012 211.923055 
L 333.299544 214.529284 
L 333.347343 214.529284 
L 333.458876 215.834254 
L 333.666007 215.746879 
L 333.777539 214.237468 
L 333.825339 214.237468 
L 333.936871 211.476707 
L 333.984671 211.476707 
L 334.096203 209.813612 
L 334.144003 209.813612 
L 334.255535 205.090022 
L 334.303334 205.090022 
L 334.414867 202.353225 
L 334.462666 202.353225 
L 334.574199 197.432441 
L 334.621998 197.432441 
L 334.647491 54.360916 
L 334.731937 196.786989 
L 334.829129 196.786989 
L 334.940662 201.55614 
L 334.988461 201.55614 
L 335.099994 204.145545 
L 335.147793 204.145545 
L 335.259325 208.622243 
L 335.307125 208.622243 
L 335.418657 210.210299 
L 335.466457 210.210299 
L 335.577989 213.493331 
L 335.625789 213.493331 
L 335.737321 216.03258 
L 335.78512 216.03258 
L 335.896653 217.162341 
L 335.944452 217.162341 
L 336.055985 217.435034 
L 336.103784 217.435034 
L 336.215316 216.55273 
L 336.263116 216.55273 
L 336.374648 214.704317 
L 336.422448 214.704317 
L 336.53398 211.84031 
L 336.58178 211.84031 
L 336.693312 210.504695 
L 336.741111 210.504695 
L 336.852644 206.692393 
L 336.900443 206.692393 
L 337.011976 202.284725 
L 337.059775 202.284725 
L 337.171307 199.968226 
L 337.219107 199.968226 
L 337.330639 195.700563 
L 337.378439 195.700563 
L 337.410305 52.641126 
L 337.443765 196.321802 
L 337.488378 196.321802 
L 337.601503 196.321802 
L 337.713036 200.054894 
L 337.760835 200.054894 
L 337.872367 201.405319 
L 337.920167 201.405319 
L 338.031699 204.871302 
L 338.079499 204.871302 
L 338.191031 208.188903 
L 338.238831 208.188903 
L 338.350363 209.083048 
L 338.398163 209.083048 
L 338.509695 211.862295 
L 338.557494 211.862295 
L 338.669027 214.184697 
L 338.716826 214.184697 
L 338.828358 216.044174 
L 338.876158 216.044174 
L 338.98769 217.06104 
L 339.03549 217.06104 
L 339.147022 217.638132 
L 339.354154 217.658032 
L 339.465686 217.158241 
L 339.513485 217.158241 
L 339.625018 215.987797 
L 339.672817 215.987797 
L 339.78435 214.432719 
L 339.832149 214.432719 
L 339.943681 212.362545 
L 339.991481 212.362545 
L 340.103013 209.987832 
L 340.150813 209.987832 
L 340.262345 209.379706 
L 340.310145 209.379706 
L 340.421677 206.572181 
L 340.469476 206.572181 
L 340.581009 203.562231 
L 340.628808 203.562231 
L 340.740341 200.551009 
L 340.78814 200.551009 
L 340.899672 199.606001 
L 340.947472 199.606001 
L 341.059004 196.862418 
L 341.106804 196.862418 
L 341.16735 47.56072 
L 341.218336 70.419615 
L 341.385634 195.571515 
L 341.393601 195.571515 
L 341.505133 197.188059 
L 341.552933 197.188059 
L 341.664465 199.002541 
L 341.712265 199.002541 
L 341.823797 200.669877 
L 341.871597 200.669877 
L 341.983129 202.311058 
L 342.030928 202.311058 
L 342.142461 201.640263 
L 342.19026 201.640263 
L 342.301792 203.102205 
L 342.349592 203.102205 
L 342.461124 204.485607 
L 342.508924 204.485607 
L 342.620456 206.034853 
L 342.668256 206.034853 
L 342.779788 207.75125 
L 342.827588 207.75125 
L 342.93912 209.377302 
L 342.986919 209.377302 
L 343.098452 210.80107 
L 343.146251 210.80107 
L 343.257783 210.017098 
L 343.305583 210.017098 
L 343.417115 211.122965 
L 343.464915 211.122965 
L 343.576447 212.395806 
L 343.624247 212.395806 
L 343.735779 213.614426 
L 343.783579 213.614426 
L 343.895111 214.878466 
L 343.94291 214.878466 
L 344.054443 215.942766 
L 344.102242 215.942766 
L 344.213774 216.816976 
L 344.261574 216.816976 
L 344.373106 217.694791 
L 344.420906 217.694791 
L 344.532438 218.397008 
L 344.580238 218.397008 
L 344.69177 218.565007 
L 344.73957 218.565007 
L 344.851102 218.887998 
L 344.898901 218.887998 
L 345.010434 219.036062 
L 345.058233 219.036062 
L 345.169765 216.90011 
L 345.536229 216.912905 
L 345.647761 218.954766 
L 345.695561 218.954766 
L 345.807093 218.665602 
L 345.854892 218.665602 
L 345.966425 218.292985 
L 346.014224 218.292985 
L 346.125757 218.002619 
L 346.173556 218.002619 
L 346.285088 217.346917 
L 346.332888 217.346917 
L 346.44442 216.722532 
L 346.49222 216.722532 
L 346.603752 216.105852 
L 346.651552 216.105852 
L 346.763084 215.335913 
L 346.810883 215.335913 
L 346.922416 214.743056 
L 346.970215 214.743056 
L 347.081748 214.039849 
L 347.129547 214.039849 
L 347.241079 213.182535 
L 347.288879 213.182535 
L 347.400411 212.328825 
L 347.448211 212.328825 
L 347.559743 211.55772 
L 347.607543 211.55772 
L 347.719075 210.893217 
L 347.766874 210.893217 
L 347.878407 210.006247 
L 347.926206 210.006247 
L 348.037739 209.21312 
L 348.085538 209.21312 
L 348.19707 210.572205 
L 348.24487 210.572205 
L 348.356402 209.458244 
L 348.404202 209.458244 
L 348.515734 208.485101 
L 348.563534 208.485101 
L 348.675066 207.37114 
L 348.722865 207.37114 
L 348.834398 206.226287 
L 348.882197 206.226287 
L 348.99373 205.069451 
L 349.041529 205.069451 
L 349.153061 203.815767 
L 349.200861 203.815767 
L 349.312393 202.634967 
L 349.360193 202.634967 
L 349.471725 201.432288 
L 349.519525 201.432288 
L 349.631057 202.230151 
L 349.678856 202.230151 
L 349.790389 201.275847 
L 349.838188 201.275847 
L 349.949721 200.079495 
L 349.99752 200.079495 
L 350.109052 199.086982 
L 350.156852 199.086982 
L 350.268384 198.252819 
L 350.316184 198.252819 
L 350.427716 197.535297 
L 350.475516 197.535297 
L 350.587048 196.902394 
L 350.634847 196.902394 
L 350.74638 196.267299 
L 350.794179 196.267299 
L 350.905712 195.683243 
L 350.953511 195.683243 
L 351.065043 195.394679 
L 351.112843 195.394679 
L 351.224375 194.784327 
L 351.272175 194.784327 
L 351.383707 194.482579 
L 351.431507 194.482579 
L 351.543039 69.921096 
L 351.931809 48.71243 
L 351.936588 49.424862 
L 351.944555 49.356433 
L 351.973235 47.494058 
L 352.048121 50.067238 
L 352.049714 50.067238 
L 352.212233 81.991082 
L 352.323765 198.048626 
L 352.371564 198.048626 
L 352.483097 201.785994 
L 352.530896 201.785994 
L 352.642429 207.731385 
L 352.690228 207.731385 
L 352.80176 211.755444 
L 352.84956 211.755444 
L 352.961092 217.434999 
L 353.008892 217.434999 
L 353.120424 221.141687 
L 353.168224 221.141687 
L 353.279756 225.97803 
L 353.327555 225.97803 
L 353.439088 231.82569 
L 353.486887 231.82569 
L 353.59842 233.710545 
L 353.646219 233.710545 
L 353.757751 233.356591 
L 353.805551 233.356591 
L 353.917083 233.649644 
L 353.964883 233.649644 
L 354.076415 233.932517 
L 354.124215 233.932517 
L 354.235747 234.484196 
L 354.442878 234.402688 
L 354.554411 233.887663 
L 354.60221 233.887663 
L 354.713742 231.854426 
L 354.761542 231.854426 
L 354.873074 230.070201 
L 354.920874 230.070201 
L 355.032406 228.883215 
L 355.080206 228.883215 
L 355.191738 228.280144 
L 355.239537 228.280144 
L 355.35107 226.725631 
L 355.398869 226.725631 
L 355.510402 224.328791 
L 355.558201 224.328791 
L 355.669733 218.970389 
L 355.717533 218.970389 
L 355.829065 216.68298 
L 355.876865 216.68298 
L 355.988397 212.381173 
L 356.036197 212.381173 
L 356.147729 210.80054 
L 356.195528 210.80054 
L 356.307061 206.645347 
L 356.35486 206.645347 
L 356.466393 202.038329 
L 356.514192 202.038329 
L 356.625724 199.655238 
L 356.673524 199.655238 
L 356.785056 196.307134 
L 356.832856 196.307134 
L 356.944388 195.890087 
L 356.992188 195.890087 
L 357.10372 195.755985 
L 357.310851 195.683915 
L 357.422384 195.586254 
L 357.470183 195.586254 
L 357.581715 195.469719 
L 357.629515 195.469719 
L 357.741047 195.317767 
L 357.788847 195.317767 
L 357.900379 195.199323 
L 357.948179 195.199323 
L 358.059711 195.048078 
L 358.266842 194.950982 
L 358.378375 194.814759 
L 358.585506 194.735054 
L 358.697038 194.650224 
L 358.744838 194.650224 
L 358.85637 194.530649 
L 358.90417 194.530649 
L 359.015702 194.406302 
L 359.382165 194.447021 
L 359.388538 83.721193 
L 359.492104 194.444971 
L 359.560617 194.444971 
L 359.672149 194.588228 
L 359.719949 194.588228 
L 359.831481 194.709711 
L 359.87928 194.709711 
L 359.990813 195.074728 
L 360.197944 195.174086 
L 360.309476 195.358697 
L 360.516608 195.46675 
L 360.629733 195.477601 
L 360.835271 195.583533 
L 360.946804 195.797269 
L 361.313267 195.767402 
L 361.424799 195.598555 
L 361.472599 195.598555 
L 361.584131 195.759944 
L 361.950594 195.828798 
L 362.062127 195.93632 
L 362.587922 196.001568 
L 362.699454 196.074452 
L 362.906585 196.131924 
L 363.018118 195.960426 
L 363.543913 195.853151 
L 363.655445 195.827985 
L 363.862576 195.747997 
L 363.974109 195.709329 
L 364.18124 195.622943 
L 364.292772 195.835761 
L 364.340572 195.835761 
L 364.452104 196.094422 
L 364.499904 196.094422 
L 364.611436 196.233402 
L 364.659235 196.233402 
L 364.770768 196.393484 
L 364.818567 196.393484 
L 364.9301 196.529353 
L 365.296563 196.620828 
L 365.408095 196.678089 
L 365.455895 196.678089 
L 365.567427 196.79526 
L 365.615226 196.79526 
L 365.726759 196.649777 
L 365.774558 196.649777 
L 365.886091 196.413171 
L 365.93389 196.413171 
L 366.045422 196.283947 
L 366.411886 196.284088 
L 366.523418 196.409637 
L 367.049213 196.508535 
L 367.160745 196.547662 
L 367.208545 196.547662 
L 367.320077 196.772003 
L 367.367877 196.772003 
L 367.479409 196.938482 
L 367.527208 196.938482 
L 367.638741 197.061981 
L 367.68654 197.061981 
L 367.798073 197.196189 
L 368.005204 197.288477 
L 368.116736 197.460223 
L 368.323868 197.55085 
L 368.4354 197.67707 
L 368.483199 197.67707 
L 368.594732 198.030105 
L 368.642531 198.030105 
L 368.754064 198.166964 
L 369.279859 198.211535 
L 369.391391 198.307534 
L 369.598522 198.384942 
L 369.710055 198.532087 
L 369.757854 198.532087 
L 369.869386 198.665553 
L 369.917186 198.665553 
L 370.028718 198.490909 
L 370.076518 198.490909 
L 370.18805 198.249249 
L 370.23585 198.249249 
L 370.347382 198.040638 
L 370.395181 198.040638 
L 370.506714 197.863767 
L 370.873177 197.826795 
L 370.984709 198.308559 
L 371.032509 198.308559 
L 371.144041 202.3563 
L 371.191841 202.3563 
L 371.303373 205.510992 
L 371.351173 205.510992 
L 371.462705 209.238711 
L 371.510504 209.238711 
L 371.622037 215.230971 
L 371.669836 215.230971 
L 371.781368 219.173522 
L 371.829168 219.173522 
L 371.9407 225.366158 
L 371.9885 225.366158 
L 372.100032 229.306023 
L 372.147832 229.306023 
L 372.259364 235.21476 
L 372.307164 235.21476 
L 372.418696 238.645644 
L 372.466495 238.645644 
L 372.578028 240.611654 
L 372.625827 240.611654 
L 372.737359 241.251732 
L 372.785159 241.251732 
L 372.896691 241.477911 
L 372.944491 241.477911 
L 373.056023 241.733426 
L 373.103823 241.733426 
L 373.215355 241.876577 
L 373.263155 241.876577 
L 373.374687 241.991663 
L 373.422486 241.991663 
L 373.534019 242.116364 
L 373.581818 242.116364 
L 373.581818 242.116364 
" style="fill:none;stroke:#1f77b4;stroke-linecap:square;stroke-width:1.5;"/>
   </g>
   <g id="patch_31">
    <path d="M 54 252 
L 54 34.56 
" style="fill:none;stroke:#000000;stroke-linecap:square;stroke-linejoin:miter;stroke-width:0.8;"/>
   </g>
   <g id="patch_32">
    <path d="M 388.8 252 
L 388.8 34.56 
" style="fill:none;stroke:#000000;stroke-linecap:square;stroke-linejoin:miter;stroke-width:0.8;"/>
   </g>
   <g id="patch_33">
    <path d="M 54 252 
L 388.8 252 
" style="fill:none;stroke:#000000;stroke-linecap:square;stroke-linejoin:miter;stroke-width:0.8;"/>
   </g>
   <g id="patch_34">
    <path d="M 54 34.56 
L 388.8 34.56 
" style="fill:none;stroke:#000000;stroke-linecap:square;stroke-linejoin:miter;stroke-width:0.8;"/>
   </g>
  </g>
 </g>
 <defs>
  <clipPath id="p70affd3cb0">
   <rect height="217.44" width="334.8" x="54" y="34.56"/>
  </clipPath>
 </defs>
</svg>
