<?xml version="1.0" encoding="utf-8" standalone="no"?>
<!DOCTYPE svg PUBLIC "-//W3C//DTD SVG 1.1//EN"
  "http://www.w3.org/Graphics/SVG/1.1/DTD/svg11.dtd">
<!-- Created with matplotlib (https://matplotlib.org/) -->
<svg height="288pt" version="1.1" viewBox="0 0 432 288" width="432pt" xmlns="http://www.w3.org/2000/svg" xmlns:xlink="http://www.w3.org/1999/xlink">
 <defs>
  <style type="text/css">
*{stroke-linecap:butt;stroke-linejoin:round;}
  </style>
 </defs>
 <g id="figure_1">
  <g id="patch_1">
   <path d="M 0 288 
L 432 288 
L 432 0 
L 0 0 
z
" style="fill:#ffffff;"/>
  </g>
  <g id="axes_1">
   <g id="patch_2">
    <path d="M 54 252 
L 388.8 252 
L 388.8 34.56 
L 54 34.56 
z
" style="fill:#ffffff;"/>
   </g>
   <g id="matplotlib.axis_1">
    <g id="xtick_1">
     <g id="line2d_1">
      <defs>
       <path d="M 0 0 
L 0 3.5 
" id="mf1744f3c01" style="stroke:#000000;stroke-width:0.8;"/>
      </defs>
      <g>
       <use style="stroke:#000000;stroke-width:0.8;" x="69.218182" xlink:href="#mf1744f3c01" y="252"/>
      </g>
     </g>
     <g id="text_1">
      <!-- 0 -->
      <defs>
       <path d="M 31.78125 66.40625 
Q 24.171875 66.40625 20.328125 58.90625 
Q 16.5 51.421875 16.5 36.375 
Q 16.5 21.390625 20.328125 13.890625 
Q 24.171875 6.390625 31.78125 6.390625 
Q 39.453125 6.390625 43.28125 13.890625 
Q 47.125 21.390625 47.125 36.375 
Q 47.125 51.421875 43.28125 58.90625 
Q 39.453125 66.40625 31.78125 66.40625 
z
M 31.78125 74.21875 
Q 44.046875 74.21875 50.515625 64.515625 
Q 56.984375 54.828125 56.984375 36.375 
Q 56.984375 17.96875 50.515625 8.265625 
Q 44.046875 -1.421875 31.78125 -1.421875 
Q 19.53125 -1.421875 13.0625 8.265625 
Q 6.59375 17.96875 6.59375 36.375 
Q 6.59375 54.828125 13.0625 64.515625 
Q 19.53125 74.21875 31.78125 74.21875 
z
" id="DejaVuSans-48"/>
      </defs>
      <g transform="translate(66.036932 266.598437)scale(0.1 -0.1)">
       <use xlink:href="#DejaVuSans-48"/>
      </g>
     </g>
    </g>
    <g id="xtick_2">
     <g id="line2d_2">
      <g>
       <use style="stroke:#000000;stroke-width:0.8;" x="141.120765" xlink:href="#mf1744f3c01" y="252"/>
      </g>
     </g>
     <g id="text_2">
      <!-- 1000 -->
      <defs>
       <path d="M 12.40625 8.296875 
L 28.515625 8.296875 
L 28.515625 63.921875 
L 10.984375 60.40625 
L 10.984375 69.390625 
L 28.421875 72.90625 
L 38.28125 72.90625 
L 38.28125 8.296875 
L 54.390625 8.296875 
L 54.390625 0 
L 12.40625 0 
z
" id="DejaVuSans-49"/>
      </defs>
      <g transform="translate(128.395765 266.598437)scale(0.1 -0.1)">
       <use xlink:href="#DejaVuSans-49"/>
       <use x="63.623047" xlink:href="#DejaVuSans-48"/>
       <use x="127.246094" xlink:href="#DejaVuSans-48"/>
       <use x="190.869141" xlink:href="#DejaVuSans-48"/>
      </g>
     </g>
    </g>
    <g id="xtick_3">
     <g id="line2d_3">
      <g>
       <use style="stroke:#000000;stroke-width:0.8;" x="213.023349" xlink:href="#mf1744f3c01" y="252"/>
      </g>
     </g>
     <g id="text_3">
      <!-- 2000 -->
      <defs>
       <path d="M 19.1875 8.296875 
L 53.609375 8.296875 
L 53.609375 0 
L 7.328125 0 
L 7.328125 8.296875 
Q 12.9375 14.109375 22.625 23.890625 
Q 32.328125 33.6875 34.8125 36.53125 
Q 39.546875 41.84375 41.421875 45.53125 
Q 43.3125 49.21875 43.3125 52.78125 
Q 43.3125 58.59375 39.234375 62.25 
Q 35.15625 65.921875 28.609375 65.921875 
Q 23.96875 65.921875 18.8125 64.3125 
Q 13.671875 62.703125 7.8125 59.421875 
L 7.8125 69.390625 
Q 13.765625 71.78125 18.9375 73 
Q 24.125 74.21875 28.421875 74.21875 
Q 39.75 74.21875 46.484375 68.546875 
Q 53.21875 62.890625 53.21875 53.421875 
Q 53.21875 48.921875 51.53125 44.890625 
Q 49.859375 40.875 45.40625 35.40625 
Q 44.1875 33.984375 37.640625 27.21875 
Q 31.109375 20.453125 19.1875 8.296875 
z
" id="DejaVuSans-50"/>
      </defs>
      <g transform="translate(200.298349 266.598437)scale(0.1 -0.1)">
       <use xlink:href="#DejaVuSans-50"/>
       <use x="63.623047" xlink:href="#DejaVuSans-48"/>
       <use x="127.246094" xlink:href="#DejaVuSans-48"/>
       <use x="190.869141" xlink:href="#DejaVuSans-48"/>
      </g>
     </g>
    </g>
    <g id="xtick_4">
     <g id="line2d_4">
      <g>
       <use style="stroke:#000000;stroke-width:0.8;" x="284.925933" xlink:href="#mf1744f3c01" y="252"/>
      </g>
     </g>
     <g id="text_4">
      <!-- 3000 -->
      <defs>
       <path d="M 40.578125 39.3125 
Q 47.65625 37.796875 51.625 33 
Q 55.609375 28.21875 55.609375 21.1875 
Q 55.609375 10.40625 48.1875 4.484375 
Q 40.765625 -1.421875 27.09375 -1.421875 
Q 22.515625 -1.421875 17.65625 -0.515625 
Q 12.796875 0.390625 7.625 2.203125 
L 7.625 11.71875 
Q 11.71875 9.328125 16.59375 8.109375 
Q 21.484375 6.890625 26.8125 6.890625 
Q 36.078125 6.890625 40.9375 10.546875 
Q 45.796875 14.203125 45.796875 21.1875 
Q 45.796875 27.640625 41.28125 31.265625 
Q 36.765625 34.90625 28.71875 34.90625 
L 20.21875 34.90625 
L 20.21875 43.015625 
L 29.109375 43.015625 
Q 36.375 43.015625 40.234375 45.921875 
Q 44.09375 48.828125 44.09375 54.296875 
Q 44.09375 59.90625 40.109375 62.90625 
Q 36.140625 65.921875 28.71875 65.921875 
Q 24.65625 65.921875 20.015625 65.03125 
Q 15.375 64.15625 9.8125 62.3125 
L 9.8125 71.09375 
Q 15.4375 72.65625 20.34375 73.4375 
Q 25.25 74.21875 29.59375 74.21875 
Q 40.828125 74.21875 47.359375 69.109375 
Q 53.90625 64.015625 53.90625 55.328125 
Q 53.90625 49.265625 50.4375 45.09375 
Q 46.96875 40.921875 40.578125 39.3125 
z
" id="DejaVuSans-51"/>
      </defs>
      <g transform="translate(272.200933 266.598437)scale(0.1 -0.1)">
       <use xlink:href="#DejaVuSans-51"/>
       <use x="63.623047" xlink:href="#DejaVuSans-48"/>
       <use x="127.246094" xlink:href="#DejaVuSans-48"/>
       <use x="190.869141" xlink:href="#DejaVuSans-48"/>
      </g>
     </g>
    </g>
    <g id="xtick_5">
     <g id="line2d_5">
      <g>
       <use style="stroke:#000000;stroke-width:0.8;" x="356.828516" xlink:href="#mf1744f3c01" y="252"/>
      </g>
     </g>
     <g id="text_5">
      <!-- 4000 -->
      <defs>
       <path d="M 37.796875 64.3125 
L 12.890625 25.390625 
L 37.796875 25.390625 
z
M 35.203125 72.90625 
L 47.609375 72.90625 
L 47.609375 25.390625 
L 58.015625 25.390625 
L 58.015625 17.1875 
L 47.609375 17.1875 
L 47.609375 0 
L 37.796875 0 
L 37.796875 17.1875 
L 4.890625 17.1875 
L 4.890625 26.703125 
z
" id="DejaVuSans-52"/>
      </defs>
      <g transform="translate(344.103516 266.598437)scale(0.1 -0.1)">
       <use xlink:href="#DejaVuSans-52"/>
       <use x="63.623047" xlink:href="#DejaVuSans-48"/>
       <use x="127.246094" xlink:href="#DejaVuSans-48"/>
       <use x="190.869141" xlink:href="#DejaVuSans-48"/>
      </g>
     </g>
    </g>
    <g id="text_6">
     <!-- Frames -->
     <defs>
      <path d="M 9.8125 72.90625 
L 51.703125 72.90625 
L 51.703125 64.59375 
L 19.671875 64.59375 
L 19.671875 43.109375 
L 48.578125 43.109375 
L 48.578125 34.8125 
L 19.671875 34.8125 
L 19.671875 0 
L 9.8125 0 
z
" id="DejaVuSans-70"/>
      <path d="M 41.109375 46.296875 
Q 39.59375 47.171875 37.8125 47.578125 
Q 36.03125 48 33.890625 48 
Q 26.265625 48 22.1875 43.046875 
Q 18.109375 38.09375 18.109375 28.8125 
L 18.109375 0 
L 9.078125 0 
L 9.078125 54.6875 
L 18.109375 54.6875 
L 18.109375 46.1875 
Q 20.953125 51.171875 25.484375 53.578125 
Q 30.03125 56 36.53125 56 
Q 37.453125 56 38.578125 55.875 
Q 39.703125 55.765625 41.0625 55.515625 
z
" id="DejaVuSans-114"/>
      <path d="M 34.28125 27.484375 
Q 23.390625 27.484375 19.1875 25 
Q 14.984375 22.515625 14.984375 16.5 
Q 14.984375 11.71875 18.140625 8.90625 
Q 21.296875 6.109375 26.703125 6.109375 
Q 34.1875 6.109375 38.703125 11.40625 
Q 43.21875 16.703125 43.21875 25.484375 
L 43.21875 27.484375 
z
M 52.203125 31.203125 
L 52.203125 0 
L 43.21875 0 
L 43.21875 8.296875 
Q 40.140625 3.328125 35.546875 0.953125 
Q 30.953125 -1.421875 24.3125 -1.421875 
Q 15.921875 -1.421875 10.953125 3.296875 
Q 6 8.015625 6 15.921875 
Q 6 25.140625 12.171875 29.828125 
Q 18.359375 34.515625 30.609375 34.515625 
L 43.21875 34.515625 
L 43.21875 35.40625 
Q 43.21875 41.609375 39.140625 45 
Q 35.0625 48.390625 27.6875 48.390625 
Q 23 48.390625 18.546875 47.265625 
Q 14.109375 46.140625 10.015625 43.890625 
L 10.015625 52.203125 
Q 14.9375 54.109375 19.578125 55.046875 
Q 24.21875 56 28.609375 56 
Q 40.484375 56 46.34375 49.84375 
Q 52.203125 43.703125 52.203125 31.203125 
z
" id="DejaVuSans-97"/>
      <path d="M 52 44.1875 
Q 55.375 50.25 60.0625 53.125 
Q 64.75 56 71.09375 56 
Q 79.640625 56 84.28125 50.015625 
Q 88.921875 44.046875 88.921875 33.015625 
L 88.921875 0 
L 79.890625 0 
L 79.890625 32.71875 
Q 79.890625 40.578125 77.09375 44.375 
Q 74.3125 48.1875 68.609375 48.1875 
Q 61.625 48.1875 57.5625 43.546875 
Q 53.515625 38.921875 53.515625 30.90625 
L 53.515625 0 
L 44.484375 0 
L 44.484375 32.71875 
Q 44.484375 40.625 41.703125 44.40625 
Q 38.921875 48.1875 33.109375 48.1875 
Q 26.21875 48.1875 22.15625 43.53125 
Q 18.109375 38.875 18.109375 30.90625 
L 18.109375 0 
L 9.078125 0 
L 9.078125 54.6875 
L 18.109375 54.6875 
L 18.109375 46.1875 
Q 21.1875 51.21875 25.484375 53.609375 
Q 29.78125 56 35.6875 56 
Q 41.65625 56 45.828125 52.96875 
Q 50 49.953125 52 44.1875 
z
" id="DejaVuSans-109"/>
      <path d="M 56.203125 29.59375 
L 56.203125 25.203125 
L 14.890625 25.203125 
Q 15.484375 15.921875 20.484375 11.0625 
Q 25.484375 6.203125 34.421875 6.203125 
Q 39.59375 6.203125 44.453125 7.46875 
Q 49.3125 8.734375 54.109375 11.28125 
L 54.109375 2.78125 
Q 49.265625 0.734375 44.1875 -0.34375 
Q 39.109375 -1.421875 33.890625 -1.421875 
Q 20.796875 -1.421875 13.15625 6.1875 
Q 5.515625 13.8125 5.515625 26.8125 
Q 5.515625 40.234375 12.765625 48.109375 
Q 20.015625 56 32.328125 56 
Q 43.359375 56 49.78125 48.890625 
Q 56.203125 41.796875 56.203125 29.59375 
z
M 47.21875 32.234375 
Q 47.125 39.59375 43.09375 43.984375 
Q 39.0625 48.390625 32.421875 48.390625 
Q 24.90625 48.390625 20.390625 44.140625 
Q 15.875 39.890625 15.1875 32.171875 
z
" id="DejaVuSans-101"/>
      <path d="M 44.28125 53.078125 
L 44.28125 44.578125 
Q 40.484375 46.53125 36.375 47.5 
Q 32.28125 48.484375 27.875 48.484375 
Q 21.1875 48.484375 17.84375 46.4375 
Q 14.5 44.390625 14.5 40.28125 
Q 14.5 37.15625 16.890625 35.375 
Q 19.28125 33.59375 26.515625 31.984375 
L 29.59375 31.296875 
Q 39.15625 29.25 43.1875 25.515625 
Q 47.21875 21.78125 47.21875 15.09375 
Q 47.21875 7.46875 41.1875 3.015625 
Q 35.15625 -1.421875 24.609375 -1.421875 
Q 20.21875 -1.421875 15.453125 -0.5625 
Q 10.6875 0.296875 5.421875 2 
L 5.421875 11.28125 
Q 10.40625 8.6875 15.234375 7.390625 
Q 20.0625 6.109375 24.8125 6.109375 
Q 31.15625 6.109375 34.5625 8.28125 
Q 37.984375 10.453125 37.984375 14.40625 
Q 37.984375 18.0625 35.515625 20.015625 
Q 33.0625 21.96875 24.703125 23.78125 
L 21.578125 24.515625 
Q 13.234375 26.265625 9.515625 29.90625 
Q 5.8125 33.546875 5.8125 39.890625 
Q 5.8125 47.609375 11.28125 51.796875 
Q 16.75 56 26.8125 56 
Q 31.78125 56 36.171875 55.265625 
Q 40.578125 54.546875 44.28125 53.078125 
z
" id="DejaVuSans-115"/>
     </defs>
     <g transform="translate(191.73375 284.835625)scale(0.16 -0.16)">
      <use xlink:href="#DejaVuSans-70"/>
      <use x="57.410156" xlink:href="#DejaVuSans-114"/>
      <use x="98.523438" xlink:href="#DejaVuSans-97"/>
      <use x="159.802734" xlink:href="#DejaVuSans-109"/>
      <use x="257.214844" xlink:href="#DejaVuSans-101"/>
      <use x="318.738281" xlink:href="#DejaVuSans-115"/>
     </g>
    </g>
   </g>
   <g id="matplotlib.axis_2">
    <g id="ytick_1">
     <g id="line2d_6">
      <defs>
       <path d="M 0 0 
L -3.5 0 
" id="mbf0e093a87" style="stroke:#000000;stroke-width:0.8;"/>
      </defs>
      <g>
       <use style="stroke:#000000;stroke-width:0.8;" x="54" xlink:href="#mbf0e093a87" y="244.42225"/>
      </g>
     </g>
     <g id="text_7">
      <!-- 0 -->
      <g transform="translate(40.6375 248.221469)scale(0.1 -0.1)">
       <use xlink:href="#DejaVuSans-48"/>
      </g>
     </g>
    </g>
    <g id="ytick_2">
     <g id="line2d_7">
      <g>
       <use style="stroke:#000000;stroke-width:0.8;" x="54" xlink:href="#mbf0e093a87" y="220.128092"/>
      </g>
     </g>
     <g id="text_8">
      <!-- 5 -->
      <defs>
       <path d="M 10.796875 72.90625 
L 49.515625 72.90625 
L 49.515625 64.59375 
L 19.828125 64.59375 
L 19.828125 46.734375 
Q 21.96875 47.46875 24.109375 47.828125 
Q 26.265625 48.1875 28.421875 48.1875 
Q 40.625 48.1875 47.75 41.5 
Q 54.890625 34.8125 54.890625 23.390625 
Q 54.890625 11.625 47.5625 5.09375 
Q 40.234375 -1.421875 26.90625 -1.421875 
Q 22.3125 -1.421875 17.546875 -0.640625 
Q 12.796875 0.140625 7.71875 1.703125 
L 7.71875 11.625 
Q 12.109375 9.234375 16.796875 8.0625 
Q 21.484375 6.890625 26.703125 6.890625 
Q 35.15625 6.890625 40.078125 11.328125 
Q 45.015625 15.765625 45.015625 23.390625 
Q 45.015625 31 40.078125 35.4375 
Q 35.15625 39.890625 26.703125 39.890625 
Q 22.75 39.890625 18.8125 39.015625 
Q 14.890625 38.140625 10.796875 36.28125 
z
" id="DejaVuSans-53"/>
      </defs>
      <g transform="translate(40.6375 223.92731)scale(0.1 -0.1)">
       <use xlink:href="#DejaVuSans-53"/>
      </g>
     </g>
    </g>
    <g id="ytick_3">
     <g id="line2d_8">
      <g>
       <use style="stroke:#000000;stroke-width:0.8;" x="54" xlink:href="#mbf0e093a87" y="195.833934"/>
      </g>
     </g>
     <g id="text_9">
      <!-- 10 -->
      <g transform="translate(34.275 199.633152)scale(0.1 -0.1)">
       <use xlink:href="#DejaVuSans-49"/>
       <use x="63.623047" xlink:href="#DejaVuSans-48"/>
      </g>
     </g>
    </g>
    <g id="ytick_4">
     <g id="line2d_9">
      <g>
       <use style="stroke:#000000;stroke-width:0.8;" x="54" xlink:href="#mbf0e093a87" y="171.539776"/>
      </g>
     </g>
     <g id="text_10">
      <!-- 15 -->
      <g transform="translate(34.275 175.338994)scale(0.1 -0.1)">
       <use xlink:href="#DejaVuSans-49"/>
       <use x="63.623047" xlink:href="#DejaVuSans-53"/>
      </g>
     </g>
    </g>
    <g id="ytick_5">
     <g id="line2d_10">
      <g>
       <use style="stroke:#000000;stroke-width:0.8;" x="54" xlink:href="#mbf0e093a87" y="147.245617"/>
      </g>
     </g>
     <g id="text_11">
      <!-- 20 -->
      <g transform="translate(34.275 151.044836)scale(0.1 -0.1)">
       <use xlink:href="#DejaVuSans-50"/>
       <use x="63.623047" xlink:href="#DejaVuSans-48"/>
      </g>
     </g>
    </g>
    <g id="ytick_6">
     <g id="line2d_11">
      <g>
       <use style="stroke:#000000;stroke-width:0.8;" x="54" xlink:href="#mbf0e093a87" y="122.951459"/>
      </g>
     </g>
     <g id="text_12">
      <!-- 25 -->
      <g transform="translate(34.275 126.750678)scale(0.1 -0.1)">
       <use xlink:href="#DejaVuSans-50"/>
       <use x="63.623047" xlink:href="#DejaVuSans-53"/>
      </g>
     </g>
    </g>
    <g id="ytick_7">
     <g id="line2d_12">
      <g>
       <use style="stroke:#000000;stroke-width:0.8;" x="54" xlink:href="#mbf0e093a87" y="98.657301"/>
      </g>
     </g>
     <g id="text_13">
      <!-- 30 -->
      <g transform="translate(34.275 102.45652)scale(0.1 -0.1)">
       <use xlink:href="#DejaVuSans-51"/>
       <use x="63.623047" xlink:href="#DejaVuSans-48"/>
      </g>
     </g>
    </g>
    <g id="ytick_8">
     <g id="line2d_13">
      <g>
       <use style="stroke:#000000;stroke-width:0.8;" x="54" xlink:href="#mbf0e093a87" y="74.363143"/>
      </g>
     </g>
     <g id="text_14">
      <!-- 35 -->
      <g transform="translate(34.275 78.162362)scale(0.1 -0.1)">
       <use xlink:href="#DejaVuSans-51"/>
       <use x="63.623047" xlink:href="#DejaVuSans-53"/>
      </g>
     </g>
    </g>
    <g id="ytick_9">
     <g id="line2d_14">
      <g>
       <use style="stroke:#000000;stroke-width:0.8;" x="54" xlink:href="#mbf0e093a87" y="50.068985"/>
      </g>
     </g>
     <g id="text_15">
      <!-- 40 -->
      <g transform="translate(34.275 53.868204)scale(0.1 -0.1)">
       <use xlink:href="#DejaVuSans-52"/>
       <use x="63.623047" xlink:href="#DejaVuSans-48"/>
      </g>
     </g>
    </g>
    <g id="text_16">
     <!-- Average Brightness -->
     <defs>
      <path d="M 34.1875 63.1875 
L 20.796875 26.90625 
L 47.609375 26.90625 
z
M 28.609375 72.90625 
L 39.796875 72.90625 
L 67.578125 0 
L 57.328125 0 
L 50.6875 18.703125 
L 17.828125 18.703125 
L 11.1875 0 
L 0.78125 0 
z
" id="DejaVuSans-65"/>
      <path d="M 2.984375 54.6875 
L 12.5 54.6875 
L 29.59375 8.796875 
L 46.6875 54.6875 
L 56.203125 54.6875 
L 35.6875 0 
L 23.484375 0 
z
" id="DejaVuSans-118"/>
      <path d="M 45.40625 27.984375 
Q 45.40625 37.75 41.375 43.109375 
Q 37.359375 48.484375 30.078125 48.484375 
Q 22.859375 48.484375 18.828125 43.109375 
Q 14.796875 37.75 14.796875 27.984375 
Q 14.796875 18.265625 18.828125 12.890625 
Q 22.859375 7.515625 30.078125 7.515625 
Q 37.359375 7.515625 41.375 12.890625 
Q 45.40625 18.265625 45.40625 27.984375 
z
M 54.390625 6.78125 
Q 54.390625 -7.171875 48.1875 -13.984375 
Q 42 -20.796875 29.203125 -20.796875 
Q 24.46875 -20.796875 20.265625 -20.09375 
Q 16.0625 -19.390625 12.109375 -17.921875 
L 12.109375 -9.1875 
Q 16.0625 -11.328125 19.921875 -12.34375 
Q 23.78125 -13.375 27.78125 -13.375 
Q 36.625 -13.375 41.015625 -8.765625 
Q 45.40625 -4.15625 45.40625 5.171875 
L 45.40625 9.625 
Q 42.625 4.78125 38.28125 2.390625 
Q 33.9375 0 27.875 0 
Q 17.828125 0 11.671875 7.65625 
Q 5.515625 15.328125 5.515625 27.984375 
Q 5.515625 40.671875 11.671875 48.328125 
Q 17.828125 56 27.875 56 
Q 33.9375 56 38.28125 53.609375 
Q 42.625 51.21875 45.40625 46.390625 
L 45.40625 54.6875 
L 54.390625 54.6875 
z
" id="DejaVuSans-103"/>
      <path id="DejaVuSans-32"/>
      <path d="M 19.671875 34.8125 
L 19.671875 8.109375 
L 35.5 8.109375 
Q 43.453125 8.109375 47.28125 11.40625 
Q 51.125 14.703125 51.125 21.484375 
Q 51.125 28.328125 47.28125 31.5625 
Q 43.453125 34.8125 35.5 34.8125 
z
M 19.671875 64.796875 
L 19.671875 42.828125 
L 34.28125 42.828125 
Q 41.5 42.828125 45.03125 45.53125 
Q 48.578125 48.25 48.578125 53.8125 
Q 48.578125 59.328125 45.03125 62.0625 
Q 41.5 64.796875 34.28125 64.796875 
z
M 9.8125 72.90625 
L 35.015625 72.90625 
Q 46.296875 72.90625 52.390625 68.21875 
Q 58.5 63.53125 58.5 54.890625 
Q 58.5 48.1875 55.375 44.234375 
Q 52.25 40.28125 46.1875 39.3125 
Q 53.46875 37.75 57.5 32.78125 
Q 61.53125 27.828125 61.53125 20.40625 
Q 61.53125 10.640625 54.890625 5.3125 
Q 48.25 0 35.984375 0 
L 9.8125 0 
z
" id="DejaVuSans-66"/>
      <path d="M 9.421875 54.6875 
L 18.40625 54.6875 
L 18.40625 0 
L 9.421875 0 
z
M 9.421875 75.984375 
L 18.40625 75.984375 
L 18.40625 64.59375 
L 9.421875 64.59375 
z
" id="DejaVuSans-105"/>
      <path d="M 54.890625 33.015625 
L 54.890625 0 
L 45.90625 0 
L 45.90625 32.71875 
Q 45.90625 40.484375 42.875 44.328125 
Q 39.84375 48.1875 33.796875 48.1875 
Q 26.515625 48.1875 22.3125 43.546875 
Q 18.109375 38.921875 18.109375 30.90625 
L 18.109375 0 
L 9.078125 0 
L 9.078125 75.984375 
L 18.109375 75.984375 
L 18.109375 46.1875 
Q 21.34375 51.125 25.703125 53.5625 
Q 30.078125 56 35.796875 56 
Q 45.21875 56 50.046875 50.171875 
Q 54.890625 44.34375 54.890625 33.015625 
z
" id="DejaVuSans-104"/>
      <path d="M 18.3125 70.21875 
L 18.3125 54.6875 
L 36.8125 54.6875 
L 36.8125 47.703125 
L 18.3125 47.703125 
L 18.3125 18.015625 
Q 18.3125 11.328125 20.140625 9.421875 
Q 21.96875 7.515625 27.59375 7.515625 
L 36.8125 7.515625 
L 36.8125 0 
L 27.59375 0 
Q 17.1875 0 13.234375 3.875 
Q 9.28125 7.765625 9.28125 18.015625 
L 9.28125 47.703125 
L 2.6875 47.703125 
L 2.6875 54.6875 
L 9.28125 54.6875 
L 9.28125 70.21875 
z
" id="DejaVuSans-116"/>
      <path d="M 54.890625 33.015625 
L 54.890625 0 
L 45.90625 0 
L 45.90625 32.71875 
Q 45.90625 40.484375 42.875 44.328125 
Q 39.84375 48.1875 33.796875 48.1875 
Q 26.515625 48.1875 22.3125 43.546875 
Q 18.109375 38.921875 18.109375 30.90625 
L 18.109375 0 
L 9.078125 0 
L 9.078125 54.6875 
L 18.109375 54.6875 
L 18.109375 46.1875 
Q 21.34375 51.125 25.703125 53.5625 
Q 30.078125 56 35.796875 56 
Q 45.21875 56 50.046875 50.171875 
Q 54.890625 44.34375 54.890625 33.015625 
z
" id="DejaVuSans-110"/>
     </defs>
     <g transform="translate(26.9475 221.75125)rotate(-90)scale(0.16 -0.16)">
      <use xlink:href="#DejaVuSans-65"/>
      <use x="68.330078" xlink:href="#DejaVuSans-118"/>
      <use x="127.509766" xlink:href="#DejaVuSans-101"/>
      <use x="189.033203" xlink:href="#DejaVuSans-114"/>
      <use x="230.146484" xlink:href="#DejaVuSans-97"/>
      <use x="291.425781" xlink:href="#DejaVuSans-103"/>
      <use x="354.902344" xlink:href="#DejaVuSans-101"/>
      <use x="416.425781" xlink:href="#DejaVuSans-32"/>
      <use x="448.212891" xlink:href="#DejaVuSans-66"/>
      <use x="516.816406" xlink:href="#DejaVuSans-114"/>
      <use x="557.929688" xlink:href="#DejaVuSans-105"/>
      <use x="585.712891" xlink:href="#DejaVuSans-103"/>
      <use x="649.189453" xlink:href="#DejaVuSans-104"/>
      <use x="712.568359" xlink:href="#DejaVuSans-116"/>
      <use x="751.777344" xlink:href="#DejaVuSans-110"/>
      <use x="815.15625" xlink:href="#DejaVuSans-101"/>
      <use x="876.679688" xlink:href="#DejaVuSans-115"/>
      <use x="928.779297" xlink:href="#DejaVuSans-115"/>
     </g>
    </g>
   </g>
   <g id="line2d_15">
    <path clip-path="url(#pfd16424851)" d="M 69.218182 171.161092 
L 69.290084 168.308297 
L 69.361987 170.905586 
L 69.43389 169.078334 
L 69.649597 173.633092 
L 69.7215 173.363509 
L 69.865305 169.842035 
L 69.937208 170.733138 
L 70.081013 169.378183 
L 70.152915 169.725192 
L 70.440526 171.895935 
L 70.512428 169.243744 
L 70.584331 171.044953 
L 70.656233 170.041231 
L 70.800039 171.845256 
L 70.871941 169.376775 
L 71.015746 173.54722 
L 71.159552 170.343896 
L 71.231454 173.445862 
L 71.303357 173.40011 
L 71.590967 169.445755 
L 71.878577 173.31283 
L 72.022383 171.805135 
L 72.094285 172.984122 
L 72.166188 172.897546 
L 72.23809 173.312126 
L 72.309993 174.659338 
L 72.381895 173.728115 
L 72.453798 174.160997 
L 72.525701 174.275728 
L 72.741408 169.377479 
L 72.885214 172.875022 
L 73.029019 173.671805 
L 73.100921 173.495837 
L 73.172824 173.645058 
L 73.244726 174.954261 
L 73.316629 172.178892 
L 73.460434 176.486591 
L 73.532337 171.426452 
L 73.604239 176.295138 
L 73.676142 173.818915 
L 73.748045 171.891008 
L 73.89185 175.777792 
L 74.035655 174.50519 
L 74.107558 177.69866 
L 74.323265 174.474924 
L 74.395168 173.006646 
L 74.538973 178.596097 
L 74.682778 174.153958 
L 74.826583 176.687899 
L 74.898486 175.820728 
L 74.970389 176.126209 
L 75.186096 174.997197 
L 75.257999 176.523896 
L 75.329901 180.817518 
L 75.401804 176.5063 
L 75.545609 180.46699 
L 75.689414 174.198302 
L 75.761317 174.969042 
L 75.83322 175.000013 
L 75.905122 172.537867 
L 76.048927 179.359095 
L 76.192732 174.406648 
L 76.336538 178.20404 
L 76.480343 174.709313 
L 76.552245 174.781108 
L 76.624148 172.143698 
L 76.767953 176.08468 
L 76.839856 175.390662 
L 76.911758 175.939682 
L 76.983661 178.037222 
L 77.055563 174.88317 
L 77.127466 174.962707 
L 77.199369 175.098555 
L 77.271271 175.040133 
L 77.343174 177.018719 
L 77.415076 176.061452 
L 77.558882 176.956074 
L 77.630784 175.319571 
L 77.702687 176.561906 
L 77.774589 176.161402 
L 77.846492 176.055821 
L 78.0622 179.193685 
L 78.134102 175.968541 
L 78.206005 176.910322 
L 78.34981 178.719275 
L 78.421713 178.261054 
L 78.493615 176.535158 
L 78.63742 178.148434 
L 78.781225 176.140286 
L 78.925031 177.521284 
L 78.996933 176.009366 
L 79.068836 178.866384 
L 79.140738 177.399514 
L 79.212641 177.82043 
L 79.356446 176.55909 
L 79.500251 177.67684 
L 79.572154 178.097051 
L 79.644056 177.082067 
L 79.715959 178.93114 
L 79.787862 178.448284 
L 79.859764 179.110628 
L 80.003569 173.99629 
L 80.075472 178.175885 
L 80.147375 176.587949 
L 80.29118 177.617714 
L 80.363082 177.661354 
L 80.434985 176.684379 
L 80.506887 178.971261 
L 80.57879 178.61299 
L 80.650693 176.923696 
L 80.722595 178.995193 
L 80.794498 176.972967 
L 80.8664 177.048985 
L 80.938303 176.118466 
L 81.010206 178.412386 
L 81.082108 173.823138 
L 81.154011 176.49363 
L 81.225913 175.594785 
L 81.441621 177.604341 
L 81.513524 176.420427 
L 81.657329 179.217616 
L 81.801134 175.295639 
L 81.873037 177.959796 
L 81.944939 175.141491 
L 82.088744 180.286799 
L 82.160647 181.031496 
L 82.232549 178.922694 
L 82.304452 180.899872 
L 82.448257 178.498963 
L 82.52016 178.807259 
L 82.663965 177.130635 
L 82.735868 178.831894 
L 82.80777 175.7975 
L 82.879673 177.386844 
L 82.951575 179.742001 
L 83.09538 174.662154 
L 83.167283 177.66065 
L 83.239186 176.272614 
L 83.382991 178.754468 
L 83.454893 178.396197 
L 83.670601 175.74119 
L 83.742504 178.86568 
L 83.814406 175.929828 
L 83.886309 176.13747 
L 83.958211 176.173368 
L 84.030114 177.975281 
L 84.245822 174.085682 
L 84.317724 172.937666 
L 84.389627 176.079049 
L 84.46153 172.656821 
L 84.533432 177.08066 
L 84.605335 175.615901 
L 84.677237 174.395386 
L 84.74914 177.631792 
L 84.821042 177.105999 
L 85.03675 174.198302 
L 85.180555 179.446375 
L 85.252458 179.046575 
L 85.324361 176.621031 
L 85.468166 179.799719 
L 85.611971 176.692122 
L 85.683873 177.319976 
L 85.755776 177.340389 
L 85.827679 177.972466 
L 85.899581 177.412184 
L 85.971484 178.320883 
L 86.043386 177.695844 
L 86.115289 178.09142 
L 86.187192 175.976988 
L 86.259094 176.60273 
L 86.330997 178.250496 
L 86.402899 176.834304 
L 86.546704 179.585742 
L 86.69051 176.611177 
L 86.762412 178.629179 
L 86.906217 174.91766 
L 86.97812 178.986042 
L 87.050023 176.970855 
L 87.121925 176.258537 
L 87.193828 176.542197 
L 87.26573 177.163013 
L 87.337633 176.635108 
L 87.481438 178.064673 
L 87.553341 176.397903 
L 87.625243 176.454213 
L 87.769048 178.270908 
L 87.840951 178.054115 
L 87.984756 177.120076 
L 88.056659 177.519172 
L 88.128561 178.874127 
L 88.416172 173.966728 
L 88.488074 175.762306 
L 88.559977 172.235202 
L 88.631879 174.132842 
L 88.703782 174.460846 
L 88.91949 177.466382 
L 88.991392 175.35406 
L 89.063295 179.884887 
L 89.135197 179.106405 
L 89.279003 175.969949 
L 89.422808 178.995897 
L 89.566613 175.882669 
L 89.710418 178.010475 
L 89.926126 173.441639 
L 89.998028 175.144306 
L 90.069931 174.28347 
L 90.141834 175.441341 
L 90.213736 175.156272 
L 90.285639 174.966227 
L 90.357541 175.924901 
L 90.429444 175.306901 
L 90.501347 178.044261 
L 90.573249 177.674024 
L 90.717054 173.941388 
L 90.788957 175.237218 
L 90.860859 176.140286 
L 90.932762 173.823138 
L 91.076567 179.314047 
L 91.292275 173.849181 
L 91.364178 171.956468 
L 91.43608 174.984527 
L 91.507983 172.555464 
L 91.579885 173.707703 
L 91.651788 172.641336 
L 91.72369 176.575279 
L 91.795593 174.365823 
L 91.867496 177.266482 
L 92.011301 174.506598 
L 92.083203 175.960798 
L 92.155106 173.646466 
L 92.227009 176.596395 
L 92.298911 175.030983 
L 92.370814 174.17789 
L 92.442716 174.55235 
L 92.514619 175.080254 
L 92.730327 172.052195 
L 92.874132 175.545514 
L 92.946034 173.538773 
L 93.017937 175.097851 
L 93.161742 173.1256 
L 93.305547 173.951243 
L 93.37745 172.216901 
L 93.593158 176.381714 
L 93.736963 172.413985 
L 93.880768 171.095632 
L 94.024573 176.49363 
L 94.240281 171.07522 
L 94.312183 171.624944 
L 94.384086 171.205436 
L 94.455989 168.71232 
L 94.527891 169.329616 
L 94.671696 168.540575 
L 94.743599 165.42242 
L 94.815502 165.663144 
L 94.887404 172.820823 
L 94.959307 171.808655 
L 95.031209 171.497543 
L 95.103112 172.309812 
L 95.390722 164.410955 
L 95.534527 169.145201 
L 95.60643 167.557969 
L 95.678333 170.914033 
L 95.750235 170.348823 
L 95.822138 170.325596 
L 95.89404 166.844242 
L 96.037845 171.684069 
L 96.109748 171.277231 
L 96.253553 172.411874 
L 96.325456 166.106584 
L 96.397358 167.853595 
L 96.613066 171.448272 
L 96.756871 167.183509 
L 96.900677 170.457924 
L 96.972579 170.548019 
L 97.044482 167.6544 
L 97.188287 171.174466 
L 97.332092 167.969734 
L 97.403995 169.05581 
L 97.475897 168.474411 
L 97.5478 173.523288 
L 97.619702 172.187338 
L 97.83541 169.060033 
L 97.907313 170.200306 
L 97.979215 168.316744 
L 98.051118 168.525794 
L 98.12302 168.613074 
L 98.194923 166.312115 
L 98.266826 167.586828 
L 98.338728 172.317555 
L 98.410631 170.928814 
L 98.482533 171.632687 
L 98.554436 169.824438 
L 98.626339 171.660138 
L 98.698241 169.677329 
L 98.770144 171.394778 
L 98.842046 171.33706 
L 98.913949 171.23711 
L 98.985851 168.685573 
L 99.057754 169.909607 
L 99.129657 168.461741 
L 99.201559 168.679942 
L 99.345364 170.094022 
L 99.561072 166.107992 
L 99.77678 169.703372 
L 99.848682 169.830069 
L 99.920585 167.415787 
L 99.992488 168.194974 
L 100.06439 168.568026 
L 100.136293 167.439015 
L 100.280098 172.02052 
L 100.352001 167.683258 
L 100.423903 168.090097 
L 100.495806 168.595477 
L 100.567708 167.882454 
L 100.639611 168.679238 
L 100.783416 166.637304 
L 100.855319 168.72147 
L 100.927221 167.884566 
L 100.999124 166.496529 
L 101.071026 168.644044 
L 101.142929 166.73655 
L 101.214832 171.230072 
L 101.430539 166.300149 
L 101.502442 165.841928 
L 101.71815 167.528406 
L 101.790052 168.583511 
L 101.861955 165.570233 
L 101.933857 169.364106 
L 102.149565 164.059723 
L 102.221468 166.137554 
L 102.365273 164.320156 
L 102.437175 166.882955 
L 102.509078 166.68024 
L 102.580981 166.024231 
L 102.652883 166.428958 
L 102.724786 166.03127 
L 102.796688 166.584513 
L 102.940494 164.219502 
L 103.012396 164.84806 
L 103.084299 164.81709 
L 103.228104 161.872087 
L 103.300006 164.750926 
L 103.371909 163.840115 
L 103.515714 165.630766 
L 103.587617 164.943787 
L 103.731422 163.593759 
L 103.94713 167.412267 
L 104.019032 165.417493 
L 104.090935 166.214276 
L 104.306643 163.788732 
L 104.378545 163.322768 
L 104.450448 163.609948 
L 104.52235 164.645345 
L 104.738058 161.971333 
L 104.809961 162.447151 
L 104.953766 161.590538 
L 105.025668 158.83347 
L 105.169474 163.72468 
L 105.313279 161.275203 
L 105.528987 163.083452 
L 105.672792 161.375857 
L 105.744694 162.145894 
L 105.888499 160.636791 
L 105.960402 160.435484 
L 106.104207 161.579276 
L 106.248012 159.312807 
L 106.319915 160.566404 
L 106.46372 158.610342 
L 106.679428 163.369224 
L 106.895136 159.892094 
L 106.967038 158.336536 
L 107.182746 161.431463 
L 107.254649 157.665042 
L 107.326551 158.99888 
L 107.470356 161.871383 
L 107.542259 159.698529 
L 107.614161 161.862233 
L 107.829869 156.973839 
L 107.973674 158.579372 
L 108.045577 158.504761 
L 108.11748 157.999381 
L 108.189382 158.522358 
L 108.261285 161.099939 
L 108.333187 159.858308 
L 108.40509 160.834579 
L 108.476992 158.590634 
L 108.548895 159.368413 
L 108.620798 158.983395 
L 108.764603 156.460012 
L 108.836505 159.210042 
L 108.908408 155.749805 
L 108.980311 156.588117 
L 109.052213 155.23457 
L 109.124116 158.61175 
L 109.196018 157.061823 
L 109.267921 157.598878 
L 109.339823 156.547996 
L 109.411726 157.719944 
L 109.483629 154.206916 
L 109.555531 155.235274 
L 109.627434 159.566201 
L 109.699336 157.225825 
L 109.771239 158.538547 
L 109.986947 154.651764 
L 110.058849 154.734117 
L 110.274557 160.960572 
L 110.418362 155.524565 
L 110.490265 154.368807 
L 110.562167 156.227734 
L 110.63407 152.954727 
L 110.705973 154.565891 
L 110.777875 154.919235 
L 110.849778 154.765791 
L 110.92168 156.399479 
L 110.993583 156.065843 
L 111.137388 151.775741 
L 111.353096 157.617178 
L 111.424998 156.81406 
L 111.640706 151.554021 
L 111.784511 152.868855 
L 111.856414 152.623203 
L 111.928316 155.65267 
L 112.000219 154.248445 
L 112.072122 151.486449 
L 112.144024 156.818283 
L 112.215927 152.541554 
L 112.287829 153.113802 
L 112.359732 150.73049 
L 112.503537 152.396556 
L 112.57544 157.845937 
L 112.647342 157.056192 
L 112.86305 152.741454 
L 112.934953 154.521547 
L 113.222563 150.400374 
L 113.366368 145.345866 
L 113.653978 153.123656 
L 113.725881 152.776647 
L 113.869686 150.989515 
L 113.941589 153.07157 
L 114.013491 151.936224 
L 114.085394 151.637782 
L 114.157297 150.826921 
L 114.229199 152.012946 
L 114.373004 149.973827 
L 114.444907 149.771112 
L 114.516809 154.101335 
L 114.660615 149.821791 
L 114.732517 150.467242 
L 114.80442 149.015153 
L 114.876322 150.529886 
L 114.948225 149.115103 
L 115.020128 150.384889 
L 115.09203 148.901125 
L 115.163933 151.409727 
L 115.235835 148.89831 
L 115.307738 150.567895 
L 115.451543 146.144057 
L 115.523446 149.660604 
L 115.595348 149.597959 
L 115.667251 149.269251 
L 115.739153 151.681422 
L 115.811056 150.879007 
L 115.882959 148.390818 
L 115.954861 149.344565 
L 116.026764 152.761866 
L 116.098666 147.983276 
L 116.170569 148.590014 
L 116.242471 148.910276 
L 116.314374 146.974627 
L 116.386277 147.893884 
L 116.530082 146.200367 
L 116.601984 146.294686 
L 116.673887 146.961957 
L 116.74579 145.24662 
L 116.817692 146.172916 
L 116.889595 146.95351 
L 117.105302 145.591517 
L 117.177205 147.027417 
L 117.249108 146.329176 
L 117.392913 144.114793 
L 117.536718 147.199866 
L 117.608621 144.13239 
L 117.680523 144.893276 
L 117.824328 143.277185 
L 117.896231 146.090563 
L 117.968133 145.798456 
L 118.111939 142.253754 
L 118.327646 146.520629 
L 118.471452 142.693674 
L 118.543354 143.175827 
L 118.615257 144.627916 
L 118.687159 142.070747 
L 118.759062 142.220672 
L 118.830964 143.990911 
L 118.902867 143.165269 
L 118.97477 142.806294 
L 119.190477 146.263012 
L 119.334283 142.356519 
L 119.406185 141.937715 
L 119.54999 144.706749 
L 119.621893 142.619768 
L 119.693796 144.199961 
L 119.837601 141.005788 
L 119.909503 142.757023 
L 119.981406 142.481809 
L 120.125211 140.914285 
L 120.197114 144.651847 
L 120.269016 141.435854 
L 120.340919 142.721829 
L 120.700432 139.057469 
L 120.772334 138.645 
L 120.916139 141.837061 
L 120.988042 137.746859 
L 121.059945 139.507244 
L 121.20375 142.573312 
L 121.419458 137.899599 
L 121.563263 140.072453 
L 121.635165 139.030722 
L 121.707068 139.785977 
L 121.922776 134.233831 
L 122.066581 140.740428 
L 122.282289 136.484111 
L 122.354191 137.325943 
L 122.426094 134.69346 
L 122.497996 137.655355 
L 122.569899 134.887025 
L 122.641801 135.7732 
L 122.713704 137.202061 
L 122.857509 134.371086 
L 122.929412 137.116893 
L 123.001314 135.545145 
L 123.217022 137.853143 
L 123.360827 136.697385 
L 123.43273 137.268225 
L 123.504632 136.564353 
L 123.576535 132.229202 
L 123.648438 133.700296 
L 123.72034 133.763644 
L 123.936048 136.636148 
L 124.079853 134.523123 
L 124.151756 134.778628 
L 124.223658 134.775813 
L 124.295561 135.619052 
L 124.367463 133.054141 
L 124.439366 133.999442 
L 124.511269 135.265708 
L 124.583171 135.210806 
L 124.655074 135.669731 
L 124.798879 132.402355 
L 124.870782 132.210198 
L 125.014587 135.019353 
L 125.086489 134.9553 
L 125.230294 132.529052 
L 125.3741 134.204972 
L 125.446002 134.333781 
L 125.517905 136.74736 
L 125.66171 133.282899 
L 125.733613 133.792503 
L 125.805515 136.244091 
L 126.021223 128.999835 
L 126.093125 130.935485 
L 126.236931 129.643879 
L 126.380736 133.133678 
L 126.596444 131.38174 
L 126.668346 133.194211 
L 126.740249 131.182544 
L 126.812151 133.314574 
L 127.027859 130.82005 
L 127.171664 132.896473 
L 127.315469 129.089227 
L 127.387372 132.448107 
L 127.459275 129.827589 
L 127.531177 130.917184 
L 127.60308 131.002353 
L 127.674982 131.919498 
L 127.818787 128.590182 
L 127.962593 129.535482 
L 128.106398 131.52181 
L 128.1783 131.224072 
L 128.250203 127.777209 
L 128.322106 129.172284 
L 128.394008 130.308334 
L 128.465911 129.83322 
L 128.537813 127.584348 
L 128.609716 127.838446 
L 128.681618 129.957806 
L 128.753521 128.829498 
L 128.969229 124.825168 
L 129.041131 125.400936 
L 129.256839 129.429902 
L 129.328742 129.461576 
L 129.400644 129.846594 
L 129.472547 129.682592 
L 129.544449 129.015321 
L 129.616352 129.669218 
L 129.688255 129.180731 
L 129.760157 127.480175 
L 129.83206 127.515368 
L 129.903962 127.321803 
L 129.975865 126.420143 
L 130.047768 123.817223 
L 130.11967 126.056241 
L 130.191573 123.676448 
L 130.335378 126.12522 
L 130.40728 125.402343 
L 130.479183 125.735275 
L 130.551086 125.942213 
L 130.694891 123.385045 
L 130.766793 124.892036 
L 130.838696 129.372888 
L 130.982501 125.135576 
L 131.054404 126.755186 
L 131.126306 123.738389 
L 131.198209 123.899576 
L 131.270111 124.34935 
L 131.342014 119.429985 
L 131.413917 121.948441 
L 131.557722 122.467899 
L 131.77343 121.060154 
L 131.845332 123.584241 
L 132.06104 120.885594 
L 132.204845 122.292635 
L 132.276748 121.754172 
L 132.34865 121.98645 
L 132.420553 124.029792 
L 132.492455 120.868701 
L 132.564358 122.036425 
L 132.636261 120.391475 
L 132.708163 125.052519 
L 132.923871 119.202635 
L 132.995773 120.323903 
L 133.139579 118.897154 
L 133.427189 122.026571 
L 133.499092 119.430689 
L 133.570994 120.891929 
L 133.642897 120.352762 
L 133.786702 118.474127 
L 133.858604 118.907712 
L 133.930507 120.635015 
L 134.218117 117.408464 
L 134.29002 118.716963 
L 134.433825 115.527716 
L 134.505728 117.777997 
L 134.57763 117.522491 
L 134.649533 116.637019 
L 134.721435 118.986546 
L 134.793338 118.753564 
L 134.937143 118.331241 
L 135.009046 116.871409 
L 135.152851 119.151252 
L 135.224754 116.175983 
L 135.296656 119.431393 
L 135.368559 118.206655 
L 135.512364 114.705593 
L 135.656169 117.044562 
L 135.728072 115.492523 
L 135.799974 118.994992 
L 135.943779 113.801821 
L 136.015682 115.653006 
L 136.159487 119.526416 
L 136.303292 115.31022 
L 136.375195 114.401521 
L 136.447097 117.280359 
L 136.519 116.682771 
L 136.662805 113.793375 
L 136.734708 112.861448 
L 136.80661 112.974771 
L 136.878513 112.671402 
L 137.022318 114.83229 
L 137.166123 112.801618 
L 137.238026 113.732138 
L 137.453734 110.897643 
L 137.525636 113.701167 
L 137.597539 113.608256 
L 137.669441 113.36894 
L 137.813247 114.21429 
L 137.885149 115.670603 
L 138.028954 109.527204 
L 138.100857 110.943395 
L 138.244662 112.601719 
L 138.46037 107.909705 
L 138.532272 110.685074 
L 138.604175 109.172452 
L 138.676078 109.141482 
L 138.819883 111.614889 
L 138.891785 109.911518 
L 138.963688 110.597794 
L 139.03559 113.196491 
L 139.107493 112.123085 
L 139.251298 108.752944 
L 139.323201 111.554356 
L 139.395103 111.092616 
L 139.467006 109.864359 
L 139.538909 110.293721 
L 139.610811 112.195584 
L 139.826519 105.921969 
L 139.898421 108.453798 
L 139.970324 107.310709 
L 140.042227 108.374965 
L 140.114129 108.345402 
L 140.257934 107.053092 
L 140.40174 112.552448 
L 140.473642 109.264659 
L 140.545545 109.527204 
L 140.617447 109.651789 
L 140.68935 109.052794 
L 140.761252 109.11755 
L 140.833155 109.475821 
L 141.048863 105.325085 
L 141.264571 110.357069 
L 141.408376 106.46747 
L 141.552181 108.803623 
L 141.624083 109.222427 
L 141.695986 107.5817 
L 141.767889 109.406138 
L 141.839791 108.277126 
L 141.911694 108.738867 
L 141.983596 108.566418 
L 142.199304 106.506183 
L 142.343109 108.209554 
L 142.486915 105.79316 
L 142.774525 108.650179 
L 142.990233 104.828151 
L 143.062135 106.411864 
L 143.134038 106.385821 
L 143.277843 107.635898 
L 143.349746 105.924784 
L 143.421648 107.010156 
L 143.493551 106.729311 
L 143.709258 104.457914 
L 143.781161 106.675816 
L 143.853064 106.394971 
L 143.924966 105.939566 
L 143.996869 108.374261 
L 144.068771 107.144595 
L 144.356382 103.009345 
L 144.428284 104.645144 
L 144.500187 103.694213 
L 144.572089 105.611561 
L 144.643992 103.309194 
L 144.715895 106.459728 
L 144.787797 104.9098 
L 144.8597 105.700953 
L 144.931602 104.771137 
L 145.075408 107.576069 
L 145.219213 103.389436 
L 145.363018 105.535543 
L 145.43492 105.281445 
L 145.578726 99.772235 
L 145.650628 103.066358 
L 145.722531 102.736946 
L 145.866336 100.733725 
L 145.938239 104.566311 
L 146.010141 102.616584 
L 146.369654 97.54096 
L 146.441557 102.170329 
L 146.513459 100.482443 
L 146.585362 99.361174 
L 146.729167 101.137044 
L 146.80107 98.890987 
L 146.872972 100.041115 
L 147.016777 98.401796 
L 147.08868 98.063937 
L 147.160582 100.977969 
L 147.304388 98.44614 
L 147.37629 99.133119 
L 147.448193 97.453679 
L 147.591998 98.900841 
L 147.663901 97.953429 
L 147.735803 98.301142 
L 147.807706 97.643021 
L 147.879608 95.701741 
L 147.951511 99.581486 
L 148.023413 98.739654 
L 148.167219 93.533814 
L 148.454829 96.644226 
L 148.670537 94.443217 
L 148.742439 95.96147 
L 148.814342 95.15624 
L 148.886244 95.206215 
L 148.958147 94.702242 
L 149.03005 98.407427 
L 149.101952 95.658805 
L 149.173855 97.007424 
L 149.389563 93.20229 
L 149.461465 95.111192 
L 149.533368 94.900734 
L 149.60527 94.906365 
L 149.677173 95.169613 
L 149.820978 94.0948 
L 149.892881 94.365791 
L 150.180491 91.042809 
L 150.324296 92.271066 
L 150.396199 91.168098 
L 150.468101 93.208625 
L 150.540004 90.960456 
L 150.611906 92.627226 
L 150.683809 92.43718 
L 150.827614 91.296907 
L 150.899517 91.136424 
L 151.043322 91.504549 
L 151.115225 91.337028 
L 151.187127 92.922852 
L 151.25903 90.023602 
L 151.330932 90.66131 
L 151.402835 89.906055 
L 151.54664 92.677905 
L 151.618543 91.643916 
L 151.690445 90.334009 
L 151.762348 90.633155 
L 151.83425 91.979663 
L 151.906153 91.24834 
L 151.978056 92.200679 
L 152.265666 86.324048 
L 152.409471 89.858192 
L 152.625179 87.983779 
L 152.768984 91.302538 
L 152.840887 90.740144 
L 152.912789 90.99213 
L 152.984692 88.265328 
L 153.056594 88.886144 
L 153.128497 92.825718 
L 153.200399 91.147686 
L 153.272302 89.487955 
L 153.344205 91.012542 
L 153.48801 88.156228 
L 153.703718 89.338734 
L 153.847523 88.824907 
L 153.991328 86.878699 
L 154.06323 88.324454 
L 154.135133 86.183273 
L 154.278938 88.35472 
L 154.350841 87.594538 
L 154.422743 88.355424 
L 154.494646 87.106754 
L 154.566549 87.379857 
L 154.638451 87.286242 
L 154.854159 90.233356 
L 154.926061 89.665331 
L 154.997964 89.426718 
L 155.069867 86.132595 
L 155.141769 87.626916 
L 155.213672 87.742351 
L 155.357477 86.340237 
L 155.42938 83.188296 
L 155.573185 86.429629 
L 155.645087 84.957128 
L 155.788892 86.389508 
L 156.0046 83.592319 
L 156.076503 86.243103 
L 156.148405 85.085232 
L 156.220308 86.614747 
L 156.507918 83.890761 
L 156.579821 84.192722 
L 156.651723 81.888244 
L 156.723626 82.283116 
L 156.795529 84.030128 
L 156.867431 82.926456 
L 156.939334 83.137617 
L 157.011236 83.504335 
L 157.083139 80.866925 
L 157.226944 85.085232 
L 157.298847 83.26361 
L 157.370749 84.067433 
L 157.442652 84.819169 
L 157.586457 82.974319 
L 157.65836 85.116203 
L 157.874067 81.808002 
L 157.94597 81.280802 
L 158.017873 78.898897 
L 158.161678 83.670449 
L 158.23358 83.640886 
L 158.305483 83.911173 
L 158.377385 81.91851 
L 158.449288 82.522433 
L 158.521191 83.62892 
L 158.593093 82.354911 
L 158.664996 83.517005 
L 158.736898 87.869048 
L 158.808801 83.56698 
L 158.880704 84.912784 
L 158.952606 83.799961 
L 159.024509 84.243401 
L 159.384022 80.011016 
L 159.527827 82.488647 
L 159.599729 81.571501 
L 159.671632 82.497093 
L 159.743535 80.797945 
L 159.815437 83.040483 
L 159.88734 82.453453 
L 160.103047 83.529674 
L 160.17495 80.971098 
L 160.318755 86.454264 
L 160.46256 84.486237 
L 160.534463 85.25557 
L 160.606366 83.074973 
L 160.678268 86.999062 
L 160.822073 81.049932 
L 160.965878 81.239977 
L 161.037781 81.264613 
L 161.109684 83.3889 
L 161.181586 83.077084 
L 161.325391 82.560442 
L 161.397294 82.563961 
L 161.541099 84.518615 
L 161.613002 81.90936 
L 161.684904 83.12354 
L 161.900612 80.518508 
L 161.972515 84.651647 
L 162.044417 82.762453 
L 162.11632 82.727964 
L 162.332028 80.447417 
L 162.475833 84.792421 
L 162.547735 84.705141 
L 162.619638 83.882314 
L 162.69154 80.842289 
L 162.763443 82.681508 
L 162.835346 80.727558 
L 162.979151 84.895187 
L 163.051053 83.734501 
L 163.122956 84.020977 
L 163.194859 84.634754 
L 163.266761 80.767679 
L 163.338664 81.520118 
L 163.410566 81.803075 
L 163.482469 84.995841 
L 163.698177 78.237961 
L 163.770079 80.423485 
L 163.985787 75.787781 
L 164.05769 77.315888 
L 164.201495 83.290358 
L 164.3453 82.252146 
L 164.489105 83.255868 
L 164.561008 83.299508 
L 164.63291 84.524246 
L 164.848618 80.759232 
L 164.920521 82.646314 
L 165.280034 76.024282 
L 165.351936 76.828105 
L 165.495741 80.815542 
L 165.639546 78.540626 
L 165.711449 76.970287 
L 165.783352 78.43223 
L 165.855254 76.072146 
L 165.927157 76.098189 
L 165.999059 78.855961 
L 166.070962 77.794521 
L 166.142865 78.483613 
L 166.214767 78.335096 
L 166.28667 82.704736 
L 166.358572 81.156216 
L 166.57428 77.525642 
L 166.789988 79.558426 
L 166.86189 78.039469 
L 166.933793 80.053952 
L 167.005696 79.304328 
L 167.077598 76.267822 
L 167.149501 79.053045 
L 167.221403 78.040877 
L 167.293306 78.908752 
L 167.437111 75.40769 
L 167.509014 78.104225 
L 167.652819 71.364646 
L 167.724721 71.391394 
L 168.012332 78.350581 
L 168.084234 77.257467 
L 168.228039 80.755713 
L 168.299942 81.690456 
L 168.875163 73.132774 
L 168.947065 73.873248 
L 169.018968 74.330765 
L 169.09087 74.120307 
L 169.162773 72.503512 
L 169.234676 74.220257 
L 169.306578 71.617337 
L 169.378481 72.733678 
L 169.450383 72.987073 
L 169.522286 72.140314 
L 169.809896 77.56154 
L 169.881799 77.973305 
L 170.025604 75.678681 
L 170.097507 76.470537 
L 170.313214 73.041975 
L 170.385117 74.787578 
L 170.45702 72.450018 
L 170.528922 74.464501 
L 170.672727 68.811701 
L 170.74463 69.476157 
L 170.816532 70.127943 
L 171.03224 74.569378 
L 171.247948 76.593715 
L 171.391753 75.866615 
L 171.463656 76.048918 
L 171.535558 73.320004 
L 171.607461 73.507938 
L 171.751266 71.594813 
L 171.823169 69.129851 
L 171.895071 71.007079 
L 171.966974 70.024473 
L 172.038876 71.292148 
L 172.182682 69.650013 
L 172.326487 71.329453 
L 172.542194 74.638357 
L 172.757902 76.968175 
L 172.97361 72.800546 
L 173.045513 72.407785 
L 173.189318 69.692949 
L 173.26122 71.121107 
L 173.405025 66.878867 
L 173.548831 67.328642 
L 173.620733 68.073339 
L 173.692636 67.539804 
L 173.764538 67.670724 
L 173.836441 70.93458 
L 173.980246 67.408883 
L 174.124051 68.987669 
L 174.195954 68.271127 
L 174.339759 73.034936 
L 174.627369 68.321102 
L 174.699272 68.551972 
L 174.771175 65.174088 
L 174.91498 69.721104 
L 174.986882 69.561325 
L 175.130687 67.625676 
L 175.20259 67.723514 
L 175.274493 68.62799 
L 175.346395 66.751466 
L 175.418298 67.865696 
L 175.4902 67.459562 
L 175.562103 66.743724 
L 175.705908 70.856451 
L 175.777811 70.245489 
L 175.849713 67.190683 
L 175.921616 68.08812 
L 175.993518 69.715473 
L 176.281129 65.473234 
L 176.353031 65.939901 
L 176.424934 69.284703 
L 176.496837 68.955291 
L 176.568739 68.772284 
L 176.640642 69.609189 
L 176.712544 67.711548 
L 176.784447 68.658961 
L 176.856349 69.230505 
L 177.000155 67.111849 
L 177.215862 69.394507 
L 177.287765 69.311451 
L 177.647278 65.834321 
L 177.71918 66.071526 
L 177.862986 64.783439 
L 178.078693 67.052724 
L 178.150596 65.086808 
L 178.222499 66.623362 
L 178.294401 65.518986 
L 178.438206 67.822056 
L 178.510109 66.614211 
L 178.582011 69.086211 
L 178.725817 66.993598 
L 178.797719 68.795512 
L 179.013427 66.222154 
L 179.08533 65.79068 
L 179.157232 66.903503 
L 179.229135 66.384045 
L 179.301037 66.371375 
L 179.516745 63.900783 
L 179.588648 65.74704 
L 179.66055 65.618232 
L 179.732453 64.307621 
L 179.804355 64.912951 
L 179.876258 65.621047 
L 179.948161 65.445079 
L 180.020063 64.456842 
L 180.091966 65.928639 
L 180.163868 65.073434 
L 180.235771 65.644275 
L 180.307673 65.295154 
L 180.379576 62.990676 
L 180.451479 63.875443 
L 180.523381 64.70179 
L 180.667186 63.046986 
L 180.739089 64.080974 
L 180.954797 61.986954 
L 181.098602 62.330443 
L 181.242407 64.006364 
L 181.31431 63.784644 
L 181.386212 65.662576 
L 181.458115 64.429391 
L 181.530017 66.70853 
L 181.673823 64.952368 
L 181.745725 65.274038 
L 181.88953 64.119687 
L 182.105238 65.683692 
L 182.320946 62.875241 
L 182.392848 62.184742 
L 182.608556 64.069712 
L 182.752361 61.997512 
L 182.824264 62.592988 
L 183.039972 64.780623 
L 183.183777 63.777605 
L 183.255679 63.841658 
L 183.471387 61.444972 
L 183.54329 62.525416 
L 183.687095 60.303291 
L 183.758997 61.009275 
L 183.902803 60.168851 
L 183.974705 60.85935 
L 184.046608 63.121596 
L 184.11851 62.788664 
L 184.190413 63.536881 
L 184.262316 63.456639 
L 184.334218 63.475644 
L 184.406121 62.911138 
L 184.478023 64.839045 
L 184.621828 62.374084 
L 184.693731 62.720389 
L 184.909439 60.799521 
L 185.053244 62.400831 
L 185.197049 62.219935 
L 185.268952 60.842457 
L 185.340854 63.559405 
L 185.412757 61.107817 
L 185.484659 64.501186 
L 185.556562 61.425967 
L 185.628465 61.665988 
L 185.700367 65.732963 
L 185.77227 64.216118 
L 185.844172 63.688213 
L 185.987978 61.278154 
L 186.05988 61.162015 
L 186.131783 61.266188 
L 186.203685 61.082478 
L 186.275588 61.204247 
L 186.34749 59.876744 
L 186.563198 62.942109 
L 186.922711 59.913345 
L 186.994614 61.644872 
L 187.066516 60.553165 
L 187.138419 61.397812 
L 187.210321 59.236924 
L 187.354127 61.59912 
L 187.426029 61.206359 
L 187.569834 62.83512 
L 187.641737 62.873833 
L 187.71364 61.162719 
L 187.785542 61.238033 
L 187.857445 62.283284 
L 187.929347 60.948038 
L 188.00125 62.973783 
L 188.073153 62.359302 
L 188.216958 61.150753 
L 188.28886 60.891728 
L 188.432665 62.101685 
L 188.504568 61.871519 
L 188.576471 61.231699 
L 188.648373 62.428986 
L 188.720276 62.272022 
L 188.935984 60.311737 
L 189.007886 60.88117 
L 189.079789 60.160405 
L 189.223594 61.233106 
L 189.295496 60.522899 
L 189.367399 60.654523 
L 189.439302 60.467293 
L 189.583107 61.100778 
L 189.655009 60.870612 
L 189.726912 60.023853 
L 190.014522 63.569259 
L 190.086425 61.911639 
L 190.158327 61.938386 
L 190.23023 62.793591 
L 190.302133 62.190373 
L 190.445938 63.925418 
L 190.51784 62.41702 
L 190.589743 64.08027 
L 190.661646 63.634719 
L 190.877353 60.517268 
L 190.949256 60.849496 
L 191.164964 64.374489 
L 191.236866 61.3774 
L 191.308769 61.497058 
L 191.452574 63.145528 
L 191.524477 62.773179 
L 191.596379 63.336277 
L 191.955892 59.997106 
L 192.027795 59.672621 
L 192.099697 61.127525 
L 192.1716 60.747434 
L 192.315405 62.129136 
L 192.387308 61.625867 
L 192.45921 60.079459 
L 192.531113 60.107614 
L 192.674918 60.148439 
L 192.74682 61.97358 
L 192.818723 61.803947 
L 192.962528 59.231997 
L 193.034431 59.680364 
L 193.106333 58.60907 
L 193.178236 58.692127 
L 193.322041 60.771366 
L 193.393944 59.762013 
L 193.681554 60.691124 
L 193.753457 60.008368 
L 193.897262 62.027074 
L 193.969164 59.98514 
L 194.041067 60.458143 
L 194.11297 61.428079 
L 194.184872 61.09022 
L 194.256775 59.379106 
L 194.40058 62.205858 
L 194.472482 61.735671 
L 194.544385 62.588765 
L 194.68819 60.422949 
L 194.831995 61.162719 
L 194.975801 60.071717 
L 195.047703 59.930942 
L 195.191508 58.99268 
L 195.407216 61.129637 
L 195.551021 59.644466 
L 195.622924 60.785443 
L 195.766729 59.771867 
L 195.838632 59.852812 
L 195.982437 62.154475 
L 196.054339 61.121894 
L 196.126242 59.549443 
L 196.198144 59.666286 
L 196.270047 59.548036 
L 196.34195 59.108115 
L 196.413852 60.025261 
L 196.485755 58.98353 
L 196.62956 59.804949 
L 196.701463 58.829382 
L 196.773365 60.025261 
L 196.845268 58.95819 
L 196.989073 61.269004 
L 197.060975 61.263373 
L 197.276683 59.722596 
L 197.348586 60.822749 
L 197.420488 60.802336 
L 197.492391 60.080867 
L 197.564294 61.249999 
L 197.636196 60.912844 
L 197.708099 60.851607 
L 197.851904 58.288808 
L 198.067612 62.509227 
L 198.139514 62.253017 
L 198.211417 61.782127 
L 198.283319 60.028077 
L 198.355222 60.636222 
L 198.427125 60.116061 
L 198.499027 60.21953 
L 198.642832 62.799926 
L 198.85854 59.664175 
L 199.14615 61.933459 
L 199.218053 61.847587 
L 199.289956 59.85422 
L 199.577566 63.907118 
L 199.793274 60.845273 
L 199.865176 60.883986 
L 200.152787 59.629685 
L 200.296592 61.088812 
L 200.440397 60.346227 
L 200.512299 60.395498 
L 200.79991 63.572074 
L 200.871812 64.4491 
L 200.943715 61.819432 
L 201.015618 62.896357 
L 201.08752 65.042464 
L 201.159423 63.887409 
L 201.231325 62.811188 
L 201.303228 63.72763 
L 201.37513 62.495853 
L 201.447033 59.137678 
L 201.518936 59.921088 
L 201.662741 62.683787 
L 201.734643 62.568352 
L 201.806546 62.719685 
L 201.878449 62.668302 
L 202.166059 59.678956 
L 202.237961 58.236721 
L 202.381767 61.365434 
L 202.453669 60.394794 
L 202.669377 58.699869 
L 202.813182 60.479259 
L 202.885085 60.361712 
L 202.956987 64.593393 
L 203.02889 63.333462 
L 203.244598 60.194894 
L 203.3165 60.311033 
L 203.532208 62.464883 
L 203.604111 62.131248 
L 203.747916 60.370862 
L 203.963623 60.797409 
L 204.035526 60.52853 
L 204.107429 60.69394 
L 204.179331 59.704295 
L 204.251234 59.795095 
L 204.395039 59.870409 
L 204.466942 60.667193 
L 204.538844 59.86337 
L 204.682649 60.671416 
L 204.898357 58.529532 
L 204.97026 58.867391 
L 205.042162 58.522493 
L 205.114065 62.70068 
L 205.185967 62.544421 
L 205.329773 59.437528 
L 205.401675 60.371566 
L 205.473578 59.235516 
L 205.54548 60.270209 
L 205.617383 57.892528 
L 205.689285 58.889915 
L 205.761188 59.509323 
L 205.904993 58.804042 
L 205.976896 59.450901 
L 206.048798 61.193689 
L 206.120701 60.621441 
L 206.192604 61.44638 
L 206.264506 59.776794 
L 206.336409 59.850701 
L 206.480214 58.773776 
L 206.552116 60.135769 
L 206.624019 57.841145 
L 206.695922 58.419024 
L 206.767824 58.486596 
L 206.839727 58.718874 
L 206.911629 58.359195 
L 207.271142 62.196708 
L 207.48685 59.636723 
L 207.558753 62.05171 
L 207.630655 61.580115 
L 207.846363 62.415612 
L 208.205876 58.835717 
L 208.493486 60.183632 
L 208.565389 59.24889 
L 208.637291 60.391979 
L 208.709194 59.718373 
L 208.781097 60.582728 
L 208.852999 60.2322 
L 208.996804 61.211286 
L 209.140609 60.196302 
L 209.212512 63.551662 
L 209.284415 62.194596 
L 209.356317 61.750453 
L 209.42822 63.164532 
L 209.500122 60.904398 
L 209.572025 61.561111 
L 209.643928 62.263576 
L 209.787733 60.391979 
L 210.00344 63.569963 
L 210.075343 63.512949 
L 210.147246 62.06438 
L 210.219148 62.192484 
L 210.291051 61.69907 
L 210.362953 63.137785 
L 210.434856 62.719685 
L 210.578661 61.672323 
L 210.722466 65.607674 
L 210.794369 64.860161 
L 211.010077 59.243963 
L 211.225784 63.284894 
L 211.513395 55.302981 
L 211.585297 52.542393 
L 211.6572 53.551746 
L 211.872908 70.108234 
L 211.94481 78.141531 
L 212.016713 77.051936 
L 212.088615 76.842182 
L 212.663836 52.321377 
L 212.807641 44.443636 
L 212.879544 45.537454 
L 213.095252 58.36201 
L 213.310959 71.357608 
L 213.454765 76.046806 
L 213.526667 80.485426 
L 213.59857 80.383364 
L 213.670472 80.03002 
L 213.742375 77.865613 
L 214.101888 54.889808 
L 214.317596 50.829871 
L 214.389498 50.096436 
L 214.749011 66.196111 
L 214.892816 75.145145 
L 214.964719 76.235444 
L 215.108524 79.320517 
L 215.82755 49.705083 
L 216.330868 72.160022 
L 216.546576 79.198747 
L 216.762283 72.782246 
L 217.121796 54.86306 
L 217.265601 54.038826 
L 217.553212 58.825862 
L 217.840822 75.284512 
L 217.912725 78.507544 
L 217.984627 77.81423 
L 218.05653 77.265209 
L 218.775556 56.245466 
L 218.919361 58.088908 
L 218.991263 58.103689 
L 219.278874 71.606075 
L 219.350776 71.569473 
L 219.422679 73.320708 
L 219.494582 78.561039 
L 219.566484 76.747159 
L 220.141705 60.829083 
L 220.213607 61.184539 
L 220.28551 59.449493 
L 220.357413 60.130842 
L 220.716925 72.80125 
L 220.932633 75.197936 
L 221.004536 74.994517 
L 221.507854 63.912749 
L 221.579756 64.428687 
L 221.651659 64.390678 
L 221.723562 64.188667 
L 221.867367 71.192198 
L 222.083075 76.525439 
L 222.22688 75.352788 
L 222.370685 71.95238 
L 222.586393 71.233726 
L 222.658295 71.838353 
L 222.874003 66.742316 
L 222.945906 67.995209 
L 223.017808 66.566348 
L 223.233516 72.431717 
L 223.305418 73.146148 
L 223.521126 70.491845 
L 223.593029 71.12181 
L 223.736834 77.613626 
L 223.808737 76.616239 
L 224.096347 68.847599 
L 224.240152 67.864289 
L 224.312055 69.167861 
L 224.383957 68.898277 
L 224.45586 68.945437 
L 224.599665 67.843173 
L 224.815373 70.456651 
L 224.959178 79.345152 
L 225.03108 79.04108 
L 225.246788 75.323225 
L 225.606301 66.809888 
L 225.750106 65.017828 
L 225.893911 67.640457 
L 225.965814 67.572182 
L 226.037717 67.588371 
L 226.253424 72.992703 
L 226.325327 74.439865 
L 226.39723 74.138608 
L 226.469132 74.035842 
L 226.828645 66.635327 
L 226.900548 67.658758 
L 226.97245 67.13015 
L 227.116255 65.862475 
L 227.188158 66.001842 
L 227.403866 66.586056 
L 227.619573 71.504013 
L 227.691476 69.790788 
L 228.050989 78.195729 
L 228.266697 71.501198 
L 228.338599 70.831111 
L 228.554307 67.455339 
L 228.698112 66.201038 
L 228.770015 66.091234 
L 228.841917 65.169161 
L 228.91382 65.641459 
L 228.985723 67.001341 
L 229.129528 74.299091 
L 229.20143 73.341824 
L 229.489041 75.993312 
L 229.848554 66.317881 
L 229.992359 66.646589 
L 230.064261 66.216523 
L 230.136164 63.859958 
L 230.208066 65.61612 
L 230.279969 64.622956 
L 230.495677 69.343125 
L 230.711385 74.741827 
L 230.783287 74.159724 
L 231.070897 69.824574 
L 231.1428 70.001246 
L 231.214703 70.292649 
L 231.502313 68.884904 
L 231.574216 67.242769 
L 231.933728 71.65605 
L 232.005631 71.801047 
L 232.149436 70.696672 
L 232.293241 72.584457 
L 232.437047 73.315781 
L 232.652754 71.694059 
L 232.724657 72.839963 
L 232.868462 70.396118 
L 233.012267 71.345642 
L 233.156072 73.748663 
L 233.227975 72.89205 
L 233.299878 75.617444 
L 233.37178 74.940319 
L 233.587488 73.986571 
L 233.659391 77.437658 
L 233.731293 77.070237 
L 233.875098 73.199642 
L 233.947001 73.576918 
L 234.162709 74.396929 
L 234.378416 72.308539 
L 234.450319 72.649918 
L 234.522222 72.255749 
L 234.594124 72.796323 
L 234.666027 72.444387 
L 234.737929 72.522517 
L 234.809832 72.452833 
L 235.02554 76.288234 
L 235.097442 76.239667 
L 235.169345 76.558521 
L 235.241247 77.833938 
L 235.31315 75.433733 
L 235.385053 75.639968 
L 235.672663 72.675257 
L 235.744565 73.005373 
L 235.816468 74.4462 
L 235.960273 72.250822 
L 236.175981 77.019558 
L 236.247884 76.352991 
L 236.319786 76.753494 
L 236.391689 76.7183 
L 236.463591 76.711966 
L 236.535494 75.898993 
L 236.607396 76.205881 
L 236.679299 76.499396 
L 236.751202 75.550576 
L 236.823104 75.572396 
L 236.895007 75.66038 
L 236.966909 76.364253 
L 237.038812 75.357715 
L 237.110715 75.569581 
L 237.25452 79.044599 
L 237.326422 78.509656 
L 237.398325 77.94867 
L 237.470227 78.302717 
L 237.54213 76.69648 
L 237.614033 77.358824 
L 237.685935 77.957116 
L 237.757838 76.228405 
L 237.82974 77.37431 
L 237.901643 75.683608 
L 238.117351 79.175519 
L 238.189253 78.763754 
L 238.404961 76.304423 
L 238.548766 75.814528 
L 238.620669 76.169984 
L 238.764474 78.814433 
L 238.908279 77.902214 
L 238.980182 78.913679 
L 239.052084 77.159628 
L 239.123987 77.37431 
L 239.195889 78.977027 
L 239.267792 78.523733 
L 239.339695 78.455458 
L 239.411597 79.207897 
L 239.555402 78.767273 
L 239.627305 81.261093 
L 239.699208 80.171499 
L 239.843013 80.705034 
L 239.986818 76.988587 
L 240.05872 80.366471 
L 240.130623 79.699904 
L 240.274428 77.757216 
L 240.346331 77.84872 
L 240.418233 78.853146 
L 240.490136 76.815435 
L 240.562039 79.43384 
L 240.633941 79.051638 
L 240.705844 79.369084 
L 240.777746 80.223585 
L 240.849649 77.820565 
L 240.921551 78.593417 
L 240.993454 80.808503 
L 241.065357 78.259077 
L 241.137259 79.046007 
L 241.209162 77.848016 
L 241.352967 81.734096 
L 241.640577 79.0629 
L 241.71248 79.716093 
L 241.784382 82.170497 
L 241.856285 80.552998 
L 242.00009 82.342241 
L 242.143895 80.877483 
L 242.287701 81.827007 
L 242.359603 82.913786 
L 242.431506 82.446415 
L 242.503408 82.829321 
L 242.575311 82.377435 
L 242.719116 83.217859 
L 242.934824 79.404982 
L 243.294337 82.746968 
L 243.366239 82.279597 
L 243.581947 82.275374 
L 243.65385 83.997749 
L 243.725752 83.494481 
L 243.869557 83.008105 
L 243.94146 84.22862 
L 244.013363 83.300212 
L 244.085265 83.681007 
L 244.157168 84.113185 
L 244.300973 79.497189 
L 244.444778 82.834248 
L 244.588583 84.672763 
L 244.660486 84.198353 
L 244.876194 82.81454 
L 245.019999 86.500016 
L 245.091901 86.374727 
L 245.307609 82.75823 
L 245.451414 83.85064 
L 245.523317 83.626809 
L 245.667122 85.764469 
L 245.88283 84.589002 
L 245.954732 85.419572 
L 246.17044 83.424093 
L 246.242343 83.983672 
L 246.386148 86.543656 
L 246.601856 84.781863 
L 246.673758 85.383674 
L 246.745661 86.189608 
L 246.817563 85.838376 
L 246.889466 85.94818 
L 246.961368 86.350795 
L 247.105174 85.16477 
L 247.177076 87.301727 
L 247.248979 86.921636 
L 247.320881 85.99182 
L 247.392784 86.545064 
L 247.464687 86.236768 
L 247.536589 86.219171 
L 247.752297 88.116107 
L 247.824199 88.002784 
L 247.896102 87.543859 
L 248.039907 89.555526 
L 248.11181 88.34205 
L 248.183712 89.020583 
L 248.255615 86.730182 
L 248.327518 87.921135 
L 248.39942 87.102531 
L 248.471323 87.382672 
L 248.543225 89.875788 
L 248.615128 88.693987 
L 248.830836 85.071155 
L 248.902738 85.332292 
L 249.046543 83.949182 
L 249.262251 92.381574 
L 249.334154 97.082035 
L 249.406056 96.770219 
L 249.477959 97.609235 
L 249.621764 94.390426 
L 249.837472 84.582667 
L 249.981277 86.345868 
L 250.196985 94.431955 
L 250.412692 88.72003 
L 250.556498 93.580269 
L 250.700303 97.171427 
L 250.772205 97.0757 
L 250.987913 85.248531 
L 251.059816 85.313991 
L 251.131718 86.0791 
L 251.563134 102.453285 
L 251.635036 102.038705 
L 251.778842 100.725279 
L 251.850744 100.617586 
L 251.994549 98.320146 
L 252.425965 86.131187 
L 252.497867 88.045016 
L 252.641673 95.485652 
L 252.785478 97.477611 
L 253.073088 105.945197 
L 253.144991 105.703769 
L 253.360698 97.376253 
L 253.432601 97.041914 
L 253.504504 97.762679 
L 253.720211 92.242208 
L 253.792114 94.353825 
L 253.864016 93.778057 
L 253.935919 93.909682 
L 254.079724 95.197768 
L 254.295432 103.750522 
L 254.367335 103.176162 
L 254.439237 103.718144 
L 254.51114 103.518245 
L 254.583042 103.949718 
L 254.654945 103.459823 
L 254.726847 105.907188 
L 254.79875 105.239917 
L 255.014458 97.759864 
L 255.230166 95.753123 
L 255.373971 96.756142 
L 255.445873 98.301846 
L 255.517776 95.915718 
L 255.589679 101.973948 
L 255.661581 99.955946 
L 255.949191 107.524687 
L 256.021094 107.692912 
L 256.092997 108.23419 
L 256.380607 100.643629 
L 256.45251 101.144083 
L 256.596315 100.485258 
L 256.74012 97.48465 
L 256.883925 100.973746 
L 256.955828 100.551422 
L 257.171535 105.535543 
L 257.387243 109.684871 
L 257.459146 111.835202 
L 257.602951 107.809051 
L 257.674853 107.824536 
L 257.746756 108.67763 
L 258.106269 102.232973 
L 258.178172 101.764898 
L 258.250074 101.903561 
L 258.68149 110.184621 
L 258.753392 115.112432 
L 258.825295 113.052901 
L 258.9691 92.625114 
L 259.112905 127.984147 
L 259.25671 97.662729 
L 259.328613 99.109891 
L 259.472418 109.516646 
L 259.544321 109.2175 
L 259.760028 89.213444 
L 259.831931 94.405208 
L 260.047639 161.097828 
L 260.263346 80.445305 
L 260.479054 98.962078 
L 260.550957 100.507078 
L 260.694762 117.493632 
L 260.766665 116.726411 
L 261.054275 90.873176 
L 261.126177 100.048857 
L 261.269983 148.071964 
L 261.341885 146.167285 
L 261.557593 93.069962 
L 261.629496 85.974223 
L 261.701398 91.231447 
L 261.989008 137.480795 
L 262.132814 110.878639 
L 262.276619 77.580544 
L 262.348521 86.786492 
L 262.564229 137.254148 
L 262.636132 137.052136 
L 262.851839 92.786301 
L 263.067547 111.563507 
L 263.283255 134.6463 
L 263.642768 95.230146 
L 263.71467 99.527288 
L 263.930378 137.330166 
L 264.002281 132.108136 
L 264.217989 90.916112 
L 264.289891 97.295308 
L 264.505599 141.295784 
L 264.721307 106.334438 
L 264.937014 116.99881 
L 265.08082 128.598628 
L 265.152722 128.663384 
L 265.224625 127.08671 
L 265.512235 109.553951 
L 265.584138 111.739475 
L 265.799845 128.887216 
L 266.087456 113.471001 
L 266.159358 112.724192 
L 266.231261 114.076331 
L 266.518871 130.955193 
L 266.590774 130.851724 
L 266.806482 113.375978 
L 266.878384 113.971454 
L 267.094092 127.128239 
L 267.165994 123.988264 
L 267.3098 120.608268 
L 267.381702 119.066083 
L 267.453605 120.542808 
L 267.59741 127.537892 
L 267.669313 126.362425 
L 267.741215 126.117478 
L 267.813118 127.699079 
L 267.88502 126.809384 
L 268.028825 117.287398 
L 268.100728 117.456327 
L 268.172631 119.665079 
L 268.316436 137.75249 
L 268.604046 118.448083 
L 268.675949 119.372268 
L 268.891656 131.498583 
L 269.179267 126.46871 
L 269.251169 127.456243 
L 269.323072 126.421551 
L 269.394975 126.494753 
L 269.53878 131.72171 
L 269.610682 131.302202 
L 269.682585 131.610498 
L 269.898293 125.177808 
L 269.970195 125.208074 
L 270.042098 124.930045 
L 270.185903 131.467612 
L 270.257806 130.428697 
L 270.473513 125.43261 
L 270.617318 132.58325 
L 270.689221 132.53961 
L 270.761124 133.399038 
L 270.833026 132.793708 
L 270.904929 131.193102 
L 270.976831 134.389387 
L 271.048734 134.190191 
L 271.120637 133.894565 
L 271.336344 130.393503 
L 271.480149 134.2282 
L 271.695857 130.519496 
L 271.839662 127.855339 
L 271.911565 129.248302 
L 272.05537 136.945852 
L 272.127273 136.486927 
L 272.199175 138.837157 
L 272.34298 135.096075 
L 272.414883 135.407186 
L 272.486786 135.269931 
L 272.558688 135.293159 
L 272.630591 134.740619 
L 272.774396 132.3742 
L 272.918201 137.010608 
L 272.990104 133.803765 
L 273.062006 137.520212 
L 273.133909 136.201155 
L 273.205811 134.309849 
L 273.277714 134.759624 
L 273.421519 139.900708 
L 273.565324 134.173298 
L 273.924837 139.614232 
L 273.99674 140.097793 
L 274.068642 139.175016 
L 274.140545 134.887025 
L 274.212448 136.293362 
L 274.28435 140.25546 
L 274.356253 138.253647 
L 274.500058 135.923125 
L 274.643863 140.434948 
L 274.715766 139.973911 
L 274.787668 139.717701 
L 274.859571 137.80528 
L 275.075279 140.460287 
L 275.147181 140.836859 
L 275.219084 139.477681 
L 275.434792 143.474973 
L 275.578597 141.870143 
L 275.650499 142.103829 
L 275.722402 139.05043 
L 275.794304 140.065414 
L 275.866207 139.543141 
L 276.010012 143.339125 
L 276.081915 142.921025 
L 276.22572 141.133893 
L 276.441428 146.066631 
L 276.51333 145.793529 
L 276.585233 146.396747 
L 276.657135 144.850339 
L 276.944746 149.95623 
L 277.088551 143.146968 
L 277.304259 147.451148 
L 277.376161 144.15069 
L 277.519966 148.660401 
L 277.591869 148.443608 
L 277.807577 146.88805 
L 277.879479 147.078096 
L 277.951382 147.034456 
L 278.095187 151.67016 
L 278.238992 150.467946 
L 278.310895 150.829032 
L 278.598505 146.888754 
L 278.74231 147.427217 
L 278.886116 149.938634 
L 278.958018 149.692982 
L 279.101823 150.196251 
L 279.245629 152.865335 
L 279.389434 148.764574 
L 279.461336 153.84583 
L 279.533239 153.613552 
L 279.605141 155.845531 
L 279.677044 155.150809 
L 279.748947 154.767902 
L 279.820849 152.992032 
L 279.892752 153.782481 
L 279.964654 153.13703 
L 280.39607 156.400183 
L 280.611778 154.250556 
L 280.68368 155.989121 
L 280.755583 155.254278 
L 280.827485 155.576652 
L 280.971291 159.34237 
L 281.043193 159.241012 
L 281.330803 154.658098 
L 281.474609 157.330702 
L 281.690316 155.573836 
L 281.906024 159.897021 
L 281.977927 159.549308 
L 282.049829 160.824021 
L 282.193634 159.555643 
L 282.409342 164.238506 
L 282.553147 160.776862 
L 282.62505 160.92749 
L 282.696953 163.517741 
L 282.768855 163.367112 
L 282.840758 161.456803 
L 282.984563 163.999894 
L 283.056465 162.248659 
L 283.200271 165.540671 
L 283.272173 164.957864 
L 283.344076 166.129108 
L 283.415978 164.581292 
L 283.559784 168.826347 
L 283.703589 164.783304 
L 283.775491 170.890101 
L 283.847394 168.797488 
L 283.919296 169.937762 
L 283.991199 173.019315 
L 284.063102 168.948821 
L 284.206907 175.543402 
L 284.278809 175.300566 
L 284.350712 173.983621 
L 284.422615 175.549033 
L 284.494517 174.709313 
L 284.638322 177.564924 
L 284.710225 173.611272 
L 284.782127 176.43732 
L 284.85403 174.691013 
L 284.925933 177.439635 
L 284.997835 172.825047 
L 285.069738 173.148124 
L 285.14164 175.120375 
L 285.501153 162.755447 
L 285.573056 162.434481 
L 285.788764 153.563577 
L 286.220179 127.171175 
L 286.363984 120.756081 
L 286.723497 95.025319 
L 287.514426 59.825361 
L 287.586328 59.405149 
L 287.658231 58.201528 
L 287.730133 58.489411 
L 287.802036 58.659749 
L 288.017744 61.315459 
L 288.089646 61.831398 
L 288.449159 80.589599 
L 289.383893 170.308703 
L 289.527698 172.830678 
L 289.599601 172.603327 
L 289.671503 173.09463 
L 289.743406 171.215994 
L 290.246724 120.761008 
L 290.462432 96.558354 
L 290.606237 88.761558 
L 290.893847 69.881587 
L 291.181457 61.135268 
L 291.325263 58.84909 
L 291.397165 59.288307 
L 291.756678 75.241576 
L 292.331899 132.526236 
L 292.835217 174.190559 
L 292.907119 172.299958 
L 292.979022 174.301771 
L 293.050925 174.180705 
L 293.122827 172.826454 
L 294.201366 74.463093 
L 294.560879 61.645576 
L 294.704684 62.623254 
L 294.776587 60.185744 
L 294.848489 61.207063 
L 294.920392 61.887004 
L 294.992294 66.86127 
L 295.064197 65.849806 
L 295.208002 72.390189 
L 296.502249 177.296045 
L 296.574151 178.885389 
L 296.646054 178.641849 
L 297.149372 142.792216 
L 297.580787 102.720053 
L 297.796495 87.032144 
L 297.868398 84.854362 
L 298.156008 68.015621 
L 298.299813 65.174088 
L 298.443618 59.281972 
L 298.515521 59.417819 
L 299.090742 65.96876 
L 299.378352 80.681806 
L 299.450254 82.295786 
L 300.241183 144.02892 
L 300.816404 174.858534 
L 300.888306 175.040837 
L 300.960209 177.764824 
L 301.032111 176.630885 
L 301.104014 176.090311 
L 301.463527 163.652885 
L 301.679235 147.820681 
L 301.82304 138.484517 
L 302.542066 92.283736 
L 302.613968 91.165987 
L 302.901579 72.597127 
L 303.117286 65.801239 
L 303.189189 65.386658 
L 303.261091 63.194799 
L 303.332994 64.114056 
L 303.620604 59.598714 
L 303.76441 61.480869 
L 303.836312 59.990067 
L 303.908215 62.662671 
L 303.980117 62.146029 
L 304.267728 67.110441 
L 304.699143 86.595743 
L 304.842948 90.449444 
L 305.418169 128.92804 
L 305.490072 130.837646 
L 305.705779 145.57392 
L 305.777682 148.703337 
L 305.99339 165.922169 
L 306.065292 165.444944 
L 306.137195 167.222926 
L 306.281 175.587746 
L 306.496708 177.842953 
L 306.56861 177.544512 
L 306.640513 177.493129 
L 306.784318 171.815694 
L 306.856221 171.966322 
L 306.928123 172.668787 
L 307.215734 154.358953 
L 307.431441 143.086435 
L 307.719052 123.397011 
L 307.790954 125.143318 
L 308.50998 80.123635 
L 308.653785 75.853945 
L 309.013298 64.91084 
L 309.085201 68.575904 
L 309.157103 66.270018 
L 309.229006 67.846692 
L 309.516616 62.720389 
L 309.660421 60.715056 
L 310.019934 68.60617 
L 310.379447 88.602483 
L 311.314181 177.797202 
L 311.457986 177.491721 
L 311.817499 150.192028 
L 312.39272 81.91851 
L 312.752232 60.715056 
L 312.824135 60.935368 
L 312.96794 64.799628 
L 313.039843 63.759305 
L 313.255551 73.91548 
L 313.471258 96.722356 
L 313.902674 146.911278 
L 313.974576 148.484433 
L 314.190284 173.961097 
L 314.262187 176.936366 
L 314.334089 174.113133 
L 315.19692 76.971695 
L 315.556433 60.453216 
L 315.628336 60.465885 
L 315.772141 64.347038 
L 316.203556 113.691313 
L 316.706875 175.730632 
L 316.778777 177.612787 
L 316.922582 170.286179 
L 317.713511 70.279979 
L 317.929218 58.942001 
L 318.001121 59.909826 
L 318.144926 65.419036 
L 318.504439 109.023231 
L 318.935855 180.241751 
L 319.007757 177.616307 
L 319.151562 165.664552 
L 319.798686 67.263886 
L 319.942491 62.327628 
L 320.086296 67.606671 
L 320.302004 100.093905 
L 320.661517 178.180812 
L 320.733419 178.519375 
L 321.02103 123.837635 
L 321.30864 69.157302 
L 321.452445 61.757491 
L 321.524348 63.67484 
L 321.740055 94.170114 
L 322.171471 179.54914 
L 322.315276 154.661618 
L 322.746692 68.067004 
L 322.818594 63.359505 
L 322.890497 63.402441 
L 323.034302 69.783045 
L 323.178107 99.455493 
L 323.53762 172.850386 
L 323.609523 177.346723 
L 323.897133 115.78463 
L 324.184743 64.8855 
L 324.328548 60.42858 
L 324.544256 81.137916 
L 324.831867 143.891665 
L 325.047574 178.627067 
L 325.119477 175.41389 
L 325.838503 62.161514 
L 325.910405 62.375491 
L 326.05421 69.098177 
L 326.269918 101.538955 
L 326.701334 178.964222 
L 326.917041 159.039001 
L 327.276554 87.688857 
L 327.564165 63.324311 
L 327.70797 68.991892 
L 327.851775 78.329465 
L 328.498898 181.263774 
L 328.714606 154.404704 
L 329.289827 68.048703 
L 329.505534 63.470013 
L 329.64934 74.829811 
L 330.008853 136.938813 
L 330.296463 180.360001 
L 330.368365 182.373781 
L 330.512171 168.145703 
L 330.943586 87.72405 
L 331.303099 62.354375 
L 331.446904 67.743223 
L 331.662612 94.243317 
L 332.237833 183.814607 
L 332.309735 181.383432 
L 332.597346 142.098902 
L 332.956858 83.153806 
L 333.172566 66.987264 
L 333.316371 63.493945 
L 333.388274 63.548847 
L 333.460177 64.763027 
L 333.747787 92.323153 
L 334.39491 181.471416 
L 334.610618 173.379698 
L 335.329644 77.111765 
L 335.617254 64.62366 
L 335.689157 63.987359 
L 335.761059 64.20204 
L 335.832962 63.859254 
L 335.904864 64.843972 
L 336.408182 98.758659 
L 336.695793 131.704113 
L 337.127208 170.93163 
L 337.342916 177.952054 
L 337.414819 176.936366 
L 338.709065 76.388184 
L 338.780968 76.060884 
L 338.85287 74.964954 
L 338.996675 69.726735 
L 339.140481 65.135375 
L 339.499994 58.216309 
L 339.787604 62.503596 
L 339.931409 69.822462 
L 340.003312 69.730959 
L 340.219019 71.035938 
L 340.50663 86.103032 
L 340.578532 87.020882 
L 340.650435 86.219171 
L 341.08185 117.043154 
L 341.369461 123.416719 
L 341.800876 147.929078 
L 341.872779 148.864524 
L 342.376097 172.761698 
L 342.447999 172.196489 
L 342.73561 178.703789 
L 342.807512 177.690213 
L 342.879415 172.18945 
L 342.951318 175.734855 
L 343.02322 175.71022 
L 343.095123 173.39096 
L 343.167025 175.86296 
L 343.31083 171.937463 
L 343.382733 172.945409 
L 343.814149 160.530506 
L 343.886051 160.94016 
L 344.317467 145.613337 
L 344.389369 145.316303 
L 344.461272 143.865622 
L 344.748882 130.470929 
L 345.108395 116.02465 
L 345.180298 119.753063 
L 345.324103 113.924999 
L 345.467908 113.725803 
L 345.611713 109.451889 
L 345.683616 109.73555 
L 345.755518 110.278236 
L 345.827421 107.598593 
L 345.899323 108.721974 
L 346.186934 104.344591 
L 346.402642 102.489887 
L 346.474544 102.701049 
L 346.762155 97.05036 
L 346.834057 97.079923 
L 346.90596 100.887169 
L 347.19357 94.672679 
L 347.265473 97.090481 
L 347.409278 94.538943 
L 347.48118 98.517935 
L 347.696888 92.644823 
L 347.840693 89.81244 
L 347.912596 92.436476 
L 347.984498 91.776244 
L 348.056401 91.394041 
L 348.128304 92.121845 
L 348.344011 87.561456 
L 348.415914 88.20198 
L 348.487817 88.661608 
L 348.559719 88.104845 
L 348.631622 90.15241 
L 348.703524 89.661811 
L 348.991135 83.495185 
L 349.063037 83.166476 
L 349.13494 84.857882 
L 349.206842 84.629827 
L 349.278745 84.672763 
L 349.42255 86.861103 
L 349.853966 81.827711 
L 349.925868 81.853754 
L 350.213479 78.330168 
L 350.285381 78.551184 
L 350.357284 78.39774 
L 350.429186 79.141029 
L 350.572991 77.419357 
L 350.716797 78.442788 
L 350.788699 78.03595 
L 350.860602 76.563449 
L 350.932504 76.913977 
L 351.004407 76.008093 
L 351.07631 77.6453 
L 351.148212 77.619257 
L 351.435822 75.091651 
L 351.507725 75.899697 
L 351.579628 73.654344 
L 351.65153 75.27677 
L 351.723433 73.089838 
L 351.795335 75.66038 
L 351.939141 72.652029 
L 352.011043 73.283403 
L 352.226751 70.493956 
L 352.298653 71.436441 
L 352.370556 71.827091 
L 352.514361 69.900592 
L 352.658166 72.112159 
L 352.730069 71.810198 
L 352.801972 70.823369 
L 352.945777 71.5744 
L 353.017679 71.568066 
L 353.089582 69.60215 
L 353.161484 71.769373 
L 353.233387 70.653735 
L 353.30529 70.552378 
L 353.377192 68.580127 
L 353.5929 71.263993 
L 353.664803 71.919298 
L 353.808608 69.033421 
L 353.88051 69.21502 
L 353.952413 70.054036 
L 354.024315 69.535282 
L 354.096218 71.695467 
L 354.168121 71.318895 
L 354.383828 67.025273 
L 354.455731 66.880275 
L 354.599536 67.459562 
L 354.671439 67.277259 
L 354.887146 65.267703 
L 354.959049 66.121501 
L 355.030952 65.766045 
L 355.102854 65.728036 
L 355.318562 68.071227 
L 355.390465 64.38927 
L 355.462367 64.953776 
L 355.53427 65.450006 
L 355.678075 61.723705 
L 355.893783 64.622956 
L 355.965685 64.969965 
L 356.037588 61.109225 
L 356.181393 66.175699 
L 356.253296 66.841562 
L 356.397101 61.607566 
L 356.540906 62.742913 
L 356.612808 60.329334 
L 356.828516 62.970263 
L 356.972321 61.778607 
L 357.044224 63.728334 
L 357.116127 61.319683 
L 357.188029 61.603343 
L 357.331834 64.628587 
L 357.547542 59.814803 
L 357.619445 59.977398 
L 357.691347 59.397407 
L 357.835152 61.411186 
L 357.907055 60.855127 
L 358.05086 61.967245 
L 358.122763 61.054323 
L 358.266568 63.201134 
L 358.33847 61.009275 
L 358.410373 61.86448 
L 358.482276 61.216917 
L 358.554178 61.880669 
L 358.626081 61.278154 
L 358.697983 63.077252 
L 358.769886 62.464179 
L 358.841789 61.849699 
L 358.913691 62.131248 
L 359.057496 61.138787 
L 359.129399 65.055838 
L 359.201301 63.166644 
L 359.273204 63.06951 
L 359.345107 63.137081 
L 359.417009 63.695956 
L 359.560814 62.291027 
L 359.70462 65.11074 
L 359.776522 63.577002 
L 360.136035 68.538599 
L 360.207938 67.640457 
L 360.495548 73.674052 
L 360.567451 69.596519 
L 360.639353 71.726437 
L 360.711256 72.000947 
L 360.783158 71.968569 
L 361.430282 81.601768 
L 361.502184 80.127859 
L 361.574087 80.238367 
L 361.645989 79.960337 
L 361.717892 83.87598 
L 361.789794 79.113578 
L 361.861697 80.156014 
L 361.9336 82.606897 
L 362.005502 81.487036 
L 362.149307 83.793626 
L 362.22121 83.444506 
L 362.293113 82.611121 
L 362.365015 85.767285 
L 362.436918 85.76095 
L 362.50882 84.754412 
L 362.580723 82.129672 
L 362.796431 87.9148 
L 362.868333 87.722643 
L 362.940236 88.344866 
L 363.012138 87.39675 
L 363.084041 88.362463 
L 363.155944 87.732497 
L 363.299749 92.58429 
L 363.371651 90.290369 
L 363.443554 115.379903 
L 363.587359 225.000297 
L 363.659262 205.551597 
L 363.731164 206.758034 
L 363.803067 211.596454 
L 363.874969 205.491768 
L 363.946872 210.128176 
L 364.090677 231.829268 
L 364.16258 228.583712 
L 364.306385 211.387403 
L 364.378287 212.391126 
L 364.45019 222.582495 
L 364.665898 189.84046 
L 364.881606 205.942246 
L 365.241118 114.206548 
L 365.313021 114.634502 
L 365.456826 113.202826 
L 365.528729 114.756272 
L 365.672534 112.626354 
L 365.744437 113.205641 
L 365.816339 113.152851 
L 366.032047 110.526703 
L 366.103949 110.844149 
L 366.247755 111.82394 
L 366.319657 109.91363 
L 366.39156 111.618409 
L 366.463462 111.463557 
L 366.607268 109.837611 
L 366.67917 110.157873 
L 366.751073 112.023839 
L 366.822975 107.806236 
L 366.894878 111.784523 
L 366.96678 111.538871 
L 367.038683 110.801213 
L 367.110586 111.518459 
L 367.182488 111.142591 
L 367.254391 111.649379 
L 367.470099 115.075126 
L 367.542001 113.763108 
L 367.613904 115.215197 
L 367.757709 111.734548 
L 367.901514 115.905696 
L 368.117222 111.712728 
L 368.189124 116.97699 
L 368.261027 116.002127 
L 368.33293 113.537165 
L 368.404832 113.875728 
L 368.476735 114.026357 
L 368.62054 115.106097 
L 368.692442 114.635206 
L 368.764345 112.857224 
L 368.836248 113.561801 
L 368.90815 115.096947 
L 369.051955 112.983218 
L 369.267663 114.33606 
L 369.339566 112.914942 
L 369.483371 118.712739 
L 369.770981 114.256523 
L 369.842884 114.497247 
L 369.914786 115.476334 
L 369.986689 115.248279 
L 370.130494 114.001017 
L 370.274299 116.965024 
L 370.346202 115.113136 
L 370.418105 116.756678 
L 370.490007 115.509416 
L 370.56191 115.921885 
L 370.633812 115.759994 
L 370.705715 114.977288 
L 370.84952 118.606455 
L 370.921423 119.424354 
L 370.993325 117.785739 
L 371.065228 118.594489 
L 371.13713 118.929532 
L 371.209033 117.726614 
L 371.280936 118.273523 
L 371.352838 122.007566 
L 371.424741 121.19389 
L 371.640448 117.431692 
L 371.712351 120.506206 
L 371.784254 120.471013 
L 371.928059 120.931345 
L 372.143767 115.889507 
L 372.215669 115.7065 
L 372.287572 116.077441 
L 372.431377 130.064794 
L 372.647085 236.492423 
L 372.718987 235.71042 
L 372.862792 239.02566 
L 372.934695 238.264774 
L 373.006598 238.789862 
L 373.0785 242.116364 
L 373.150403 240.413696 
L 373.222305 240.229282 
L 373.294208 240.996503 
L 373.36611 240.798714 
L 373.509916 241.317468 
L 373.581818 240.748036 
L 373.581818 240.748036 
" style="fill:none;stroke:#1f77b4;stroke-linecap:square;stroke-width:1.5;"/>
   </g>
   <g id="patch_3">
    <path d="M 54 252 
L 54 34.56 
" style="fill:none;stroke:#000000;stroke-linecap:square;stroke-linejoin:miter;stroke-width:0.8;"/>
   </g>
   <g id="patch_4">
    <path d="M 388.8 252 
L 388.8 34.56 
" style="fill:none;stroke:#000000;stroke-linecap:square;stroke-linejoin:miter;stroke-width:0.8;"/>
   </g>
   <g id="patch_5">
    <path d="M 54 252 
L 388.8 252 
" style="fill:none;stroke:#000000;stroke-linecap:square;stroke-linejoin:miter;stroke-width:0.8;"/>
   </g>
   <g id="patch_6">
    <path d="M 54 34.56 
L 388.8 34.56 
" style="fill:none;stroke:#000000;stroke-linecap:square;stroke-linejoin:miter;stroke-width:0.8;"/>
   </g>
  </g>
 </g>
 <defs>
  <clipPath id="pfd16424851">
   <rect height="217.44" width="334.8" x="54" y="34.56"/>
  </clipPath>
 </defs>
</svg>
