<?xml version="1.0" encoding="utf-8" standalone="no"?>
<!DOCTYPE svg PUBLIC "-//W3C//DTD SVG 1.1//EN"
  "http://www.w3.org/Graphics/SVG/1.1/DTD/svg11.dtd">
<!-- Created with matplotlib (https://matplotlib.org/) -->
<svg height="288pt" version="1.1" viewBox="0 0 432 288" width="432pt" xmlns="http://www.w3.org/2000/svg" xmlns:xlink="http://www.w3.org/1999/xlink">
 <defs>
  <style type="text/css">
*{stroke-linecap:butt;stroke-linejoin:round;}
  </style>
 </defs>
 <g id="figure_1">
  <g id="patch_1">
   <path d="M 0 288 
L 432 288 
L 432 0 
L 0 0 
z
" style="fill:#ffffff;"/>
  </g>
  <g id="axes_1">
   <g id="patch_2">
    <path d="M 54 252 
L 388.8 252 
L 388.8 34.56 
L 54 34.56 
z
" style="fill:#ffffff;"/>
   </g>
   <g id="matplotlib.axis_1">
    <g id="xtick_1">
     <g id="line2d_1">
      <defs>
       <path d="M 0 0 
L 0 3.5 
" id="ma123a6e139" style="stroke:#000000;stroke-width:0.8;"/>
      </defs>
      <g>
       <use style="stroke:#000000;stroke-width:0.8;" x="69.218182" xlink:href="#ma123a6e139" y="252"/>
      </g>
     </g>
     <g id="text_1">
      <!-- 0 -->
      <defs>
       <path d="M 31.78125 66.40625 
Q 24.171875 66.40625 20.328125 58.90625 
Q 16.5 51.421875 16.5 36.375 
Q 16.5 21.390625 20.328125 13.890625 
Q 24.171875 6.390625 31.78125 6.390625 
Q 39.453125 6.390625 43.28125 13.890625 
Q 47.125 21.390625 47.125 36.375 
Q 47.125 51.421875 43.28125 58.90625 
Q 39.453125 66.40625 31.78125 66.40625 
z
M 31.78125 74.21875 
Q 44.046875 74.21875 50.515625 64.515625 
Q 56.984375 54.828125 56.984375 36.375 
Q 56.984375 17.96875 50.515625 8.265625 
Q 44.046875 -1.421875 31.78125 -1.421875 
Q 19.53125 -1.421875 13.0625 8.265625 
Q 6.59375 17.96875 6.59375 36.375 
Q 6.59375 54.828125 13.0625 64.515625 
Q 19.53125 74.21875 31.78125 74.21875 
z
" id="DejaVuSans-48"/>
      </defs>
      <g transform="translate(66.036932 266.598437)scale(0.1 -0.1)">
       <use xlink:href="#DejaVuSans-48"/>
      </g>
     </g>
    </g>
    <g id="xtick_2">
     <g id="line2d_2">
      <g>
       <use style="stroke:#000000;stroke-width:0.8;" x="131.055572" xlink:href="#ma123a6e139" y="252"/>
      </g>
     </g>
     <g id="text_2">
      <!-- 1000 -->
      <defs>
       <path d="M 12.40625 8.296875 
L 28.515625 8.296875 
L 28.515625 63.921875 
L 10.984375 60.40625 
L 10.984375 69.390625 
L 28.421875 72.90625 
L 38.28125 72.90625 
L 38.28125 8.296875 
L 54.390625 8.296875 
L 54.390625 0 
L 12.40625 0 
z
" id="DejaVuSans-49"/>
      </defs>
      <g transform="translate(118.330572 266.598437)scale(0.1 -0.1)">
       <use xlink:href="#DejaVuSans-49"/>
       <use x="63.623047" xlink:href="#DejaVuSans-48"/>
       <use x="127.246094" xlink:href="#DejaVuSans-48"/>
       <use x="190.869141" xlink:href="#DejaVuSans-48"/>
      </g>
     </g>
    </g>
    <g id="xtick_3">
     <g id="line2d_3">
      <g>
       <use style="stroke:#000000;stroke-width:0.8;" x="192.892963" xlink:href="#ma123a6e139" y="252"/>
      </g>
     </g>
     <g id="text_3">
      <!-- 2000 -->
      <defs>
       <path d="M 19.1875 8.296875 
L 53.609375 8.296875 
L 53.609375 0 
L 7.328125 0 
L 7.328125 8.296875 
Q 12.9375 14.109375 22.625 23.890625 
Q 32.328125 33.6875 34.8125 36.53125 
Q 39.546875 41.84375 41.421875 45.53125 
Q 43.3125 49.21875 43.3125 52.78125 
Q 43.3125 58.59375 39.234375 62.25 
Q 35.15625 65.921875 28.609375 65.921875 
Q 23.96875 65.921875 18.8125 64.3125 
Q 13.671875 62.703125 7.8125 59.421875 
L 7.8125 69.390625 
Q 13.765625 71.78125 18.9375 73 
Q 24.125 74.21875 28.421875 74.21875 
Q 39.75 74.21875 46.484375 68.546875 
Q 53.21875 62.890625 53.21875 53.421875 
Q 53.21875 48.921875 51.53125 44.890625 
Q 49.859375 40.875 45.40625 35.40625 
Q 44.1875 33.984375 37.640625 27.21875 
Q 31.109375 20.453125 19.1875 8.296875 
z
" id="DejaVuSans-50"/>
      </defs>
      <g transform="translate(180.167963 266.598437)scale(0.1 -0.1)">
       <use xlink:href="#DejaVuSans-50"/>
       <use x="63.623047" xlink:href="#DejaVuSans-48"/>
       <use x="127.246094" xlink:href="#DejaVuSans-48"/>
       <use x="190.869141" xlink:href="#DejaVuSans-48"/>
      </g>
     </g>
    </g>
    <g id="xtick_4">
     <g id="line2d_4">
      <g>
       <use style="stroke:#000000;stroke-width:0.8;" x="254.730354" xlink:href="#ma123a6e139" y="252"/>
      </g>
     </g>
     <g id="text_4">
      <!-- 3000 -->
      <defs>
       <path d="M 40.578125 39.3125 
Q 47.65625 37.796875 51.625 33 
Q 55.609375 28.21875 55.609375 21.1875 
Q 55.609375 10.40625 48.1875 4.484375 
Q 40.765625 -1.421875 27.09375 -1.421875 
Q 22.515625 -1.421875 17.65625 -0.515625 
Q 12.796875 0.390625 7.625 2.203125 
L 7.625 11.71875 
Q 11.71875 9.328125 16.59375 8.109375 
Q 21.484375 6.890625 26.8125 6.890625 
Q 36.078125 6.890625 40.9375 10.546875 
Q 45.796875 14.203125 45.796875 21.1875 
Q 45.796875 27.640625 41.28125 31.265625 
Q 36.765625 34.90625 28.71875 34.90625 
L 20.21875 34.90625 
L 20.21875 43.015625 
L 29.109375 43.015625 
Q 36.375 43.015625 40.234375 45.921875 
Q 44.09375 48.828125 44.09375 54.296875 
Q 44.09375 59.90625 40.109375 62.90625 
Q 36.140625 65.921875 28.71875 65.921875 
Q 24.65625 65.921875 20.015625 65.03125 
Q 15.375 64.15625 9.8125 62.3125 
L 9.8125 71.09375 
Q 15.4375 72.65625 20.34375 73.4375 
Q 25.25 74.21875 29.59375 74.21875 
Q 40.828125 74.21875 47.359375 69.109375 
Q 53.90625 64.015625 53.90625 55.328125 
Q 53.90625 49.265625 50.4375 45.09375 
Q 46.96875 40.921875 40.578125 39.3125 
z
" id="DejaVuSans-51"/>
      </defs>
      <g transform="translate(242.005354 266.598437)scale(0.1 -0.1)">
       <use xlink:href="#DejaVuSans-51"/>
       <use x="63.623047" xlink:href="#DejaVuSans-48"/>
       <use x="127.246094" xlink:href="#DejaVuSans-48"/>
       <use x="190.869141" xlink:href="#DejaVuSans-48"/>
      </g>
     </g>
    </g>
    <g id="xtick_5">
     <g id="line2d_5">
      <g>
       <use style="stroke:#000000;stroke-width:0.8;" x="316.567744" xlink:href="#ma123a6e139" y="252"/>
      </g>
     </g>
     <g id="text_5">
      <!-- 4000 -->
      <defs>
       <path d="M 37.796875 64.3125 
L 12.890625 25.390625 
L 37.796875 25.390625 
z
M 35.203125 72.90625 
L 47.609375 72.90625 
L 47.609375 25.390625 
L 58.015625 25.390625 
L 58.015625 17.1875 
L 47.609375 17.1875 
L 47.609375 0 
L 37.796875 0 
L 37.796875 17.1875 
L 4.890625 17.1875 
L 4.890625 26.703125 
z
" id="DejaVuSans-52"/>
      </defs>
      <g transform="translate(303.842744 266.598437)scale(0.1 -0.1)">
       <use xlink:href="#DejaVuSans-52"/>
       <use x="63.623047" xlink:href="#DejaVuSans-48"/>
       <use x="127.246094" xlink:href="#DejaVuSans-48"/>
       <use x="190.869141" xlink:href="#DejaVuSans-48"/>
      </g>
     </g>
    </g>
    <g id="xtick_6">
     <g id="line2d_6">
      <g>
       <use style="stroke:#000000;stroke-width:0.8;" x="378.405135" xlink:href="#ma123a6e139" y="252"/>
      </g>
     </g>
     <g id="text_6">
      <!-- 5000 -->
      <defs>
       <path d="M 10.796875 72.90625 
L 49.515625 72.90625 
L 49.515625 64.59375 
L 19.828125 64.59375 
L 19.828125 46.734375 
Q 21.96875 47.46875 24.109375 47.828125 
Q 26.265625 48.1875 28.421875 48.1875 
Q 40.625 48.1875 47.75 41.5 
Q 54.890625 34.8125 54.890625 23.390625 
Q 54.890625 11.625 47.5625 5.09375 
Q 40.234375 -1.421875 26.90625 -1.421875 
Q 22.3125 -1.421875 17.546875 -0.640625 
Q 12.796875 0.140625 7.71875 1.703125 
L 7.71875 11.625 
Q 12.109375 9.234375 16.796875 8.0625 
Q 21.484375 6.890625 26.703125 6.890625 
Q 35.15625 6.890625 40.078125 11.328125 
Q 45.015625 15.765625 45.015625 23.390625 
Q 45.015625 31 40.078125 35.4375 
Q 35.15625 39.890625 26.703125 39.890625 
Q 22.75 39.890625 18.8125 39.015625 
Q 14.890625 38.140625 10.796875 36.28125 
z
" id="DejaVuSans-53"/>
      </defs>
      <g transform="translate(365.680135 266.598437)scale(0.1 -0.1)">
       <use xlink:href="#DejaVuSans-53"/>
       <use x="63.623047" xlink:href="#DejaVuSans-48"/>
       <use x="127.246094" xlink:href="#DejaVuSans-48"/>
       <use x="190.869141" xlink:href="#DejaVuSans-48"/>
      </g>
     </g>
    </g>
    <g id="text_7">
     <!-- Frames -->
     <defs>
      <path d="M 9.8125 72.90625 
L 51.703125 72.90625 
L 51.703125 64.59375 
L 19.671875 64.59375 
L 19.671875 43.109375 
L 48.578125 43.109375 
L 48.578125 34.8125 
L 19.671875 34.8125 
L 19.671875 0 
L 9.8125 0 
z
" id="DejaVuSans-70"/>
      <path d="M 41.109375 46.296875 
Q 39.59375 47.171875 37.8125 47.578125 
Q 36.03125 48 33.890625 48 
Q 26.265625 48 22.1875 43.046875 
Q 18.109375 38.09375 18.109375 28.8125 
L 18.109375 0 
L 9.078125 0 
L 9.078125 54.6875 
L 18.109375 54.6875 
L 18.109375 46.1875 
Q 20.953125 51.171875 25.484375 53.578125 
Q 30.03125 56 36.53125 56 
Q 37.453125 56 38.578125 55.875 
Q 39.703125 55.765625 41.0625 55.515625 
z
" id="DejaVuSans-114"/>
      <path d="M 34.28125 27.484375 
Q 23.390625 27.484375 19.1875 25 
Q 14.984375 22.515625 14.984375 16.5 
Q 14.984375 11.71875 18.140625 8.90625 
Q 21.296875 6.109375 26.703125 6.109375 
Q 34.1875 6.109375 38.703125 11.40625 
Q 43.21875 16.703125 43.21875 25.484375 
L 43.21875 27.484375 
z
M 52.203125 31.203125 
L 52.203125 0 
L 43.21875 0 
L 43.21875 8.296875 
Q 40.140625 3.328125 35.546875 0.953125 
Q 30.953125 -1.421875 24.3125 -1.421875 
Q 15.921875 -1.421875 10.953125 3.296875 
Q 6 8.015625 6 15.921875 
Q 6 25.140625 12.171875 29.828125 
Q 18.359375 34.515625 30.609375 34.515625 
L 43.21875 34.515625 
L 43.21875 35.40625 
Q 43.21875 41.609375 39.140625 45 
Q 35.0625 48.390625 27.6875 48.390625 
Q 23 48.390625 18.546875 47.265625 
Q 14.109375 46.140625 10.015625 43.890625 
L 10.015625 52.203125 
Q 14.9375 54.109375 19.578125 55.046875 
Q 24.21875 56 28.609375 56 
Q 40.484375 56 46.34375 49.84375 
Q 52.203125 43.703125 52.203125 31.203125 
z
" id="DejaVuSans-97"/>
      <path d="M 52 44.1875 
Q 55.375 50.25 60.0625 53.125 
Q 64.75 56 71.09375 56 
Q 79.640625 56 84.28125 50.015625 
Q 88.921875 44.046875 88.921875 33.015625 
L 88.921875 0 
L 79.890625 0 
L 79.890625 32.71875 
Q 79.890625 40.578125 77.09375 44.375 
Q 74.3125 48.1875 68.609375 48.1875 
Q 61.625 48.1875 57.5625 43.546875 
Q 53.515625 38.921875 53.515625 30.90625 
L 53.515625 0 
L 44.484375 0 
L 44.484375 32.71875 
Q 44.484375 40.625 41.703125 44.40625 
Q 38.921875 48.1875 33.109375 48.1875 
Q 26.21875 48.1875 22.15625 43.53125 
Q 18.109375 38.875 18.109375 30.90625 
L 18.109375 0 
L 9.078125 0 
L 9.078125 54.6875 
L 18.109375 54.6875 
L 18.109375 46.1875 
Q 21.1875 51.21875 25.484375 53.609375 
Q 29.78125 56 35.6875 56 
Q 41.65625 56 45.828125 52.96875 
Q 50 49.953125 52 44.1875 
z
" id="DejaVuSans-109"/>
      <path d="M 56.203125 29.59375 
L 56.203125 25.203125 
L 14.890625 25.203125 
Q 15.484375 15.921875 20.484375 11.0625 
Q 25.484375 6.203125 34.421875 6.203125 
Q 39.59375 6.203125 44.453125 7.46875 
Q 49.3125 8.734375 54.109375 11.28125 
L 54.109375 2.78125 
Q 49.265625 0.734375 44.1875 -0.34375 
Q 39.109375 -1.421875 33.890625 -1.421875 
Q 20.796875 -1.421875 13.15625 6.1875 
Q 5.515625 13.8125 5.515625 26.8125 
Q 5.515625 40.234375 12.765625 48.109375 
Q 20.015625 56 32.328125 56 
Q 43.359375 56 49.78125 48.890625 
Q 56.203125 41.796875 56.203125 29.59375 
z
M 47.21875 32.234375 
Q 47.125 39.59375 43.09375 43.984375 
Q 39.0625 48.390625 32.421875 48.390625 
Q 24.90625 48.390625 20.390625 44.140625 
Q 15.875 39.890625 15.1875 32.171875 
z
" id="DejaVuSans-101"/>
      <path d="M 44.28125 53.078125 
L 44.28125 44.578125 
Q 40.484375 46.53125 36.375 47.5 
Q 32.28125 48.484375 27.875 48.484375 
Q 21.1875 48.484375 17.84375 46.4375 
Q 14.5 44.390625 14.5 40.28125 
Q 14.5 37.15625 16.890625 35.375 
Q 19.28125 33.59375 26.515625 31.984375 
L 29.59375 31.296875 
Q 39.15625 29.25 43.1875 25.515625 
Q 47.21875 21.78125 47.21875 15.09375 
Q 47.21875 7.46875 41.1875 3.015625 
Q 35.15625 -1.421875 24.609375 -1.421875 
Q 20.21875 -1.421875 15.453125 -0.5625 
Q 10.6875 0.296875 5.421875 2 
L 5.421875 11.28125 
Q 10.40625 8.6875 15.234375 7.390625 
Q 20.0625 6.109375 24.8125 6.109375 
Q 31.15625 6.109375 34.5625 8.28125 
Q 37.984375 10.453125 37.984375 14.40625 
Q 37.984375 18.0625 35.515625 20.015625 
Q 33.0625 21.96875 24.703125 23.78125 
L 21.578125 24.515625 
Q 13.234375 26.265625 9.515625 29.90625 
Q 5.8125 33.546875 5.8125 39.890625 
Q 5.8125 47.609375 11.28125 51.796875 
Q 16.75 56 26.8125 56 
Q 31.78125 56 36.171875 55.265625 
Q 40.578125 54.546875 44.28125 53.078125 
z
" id="DejaVuSans-115"/>
     </defs>
     <g transform="translate(191.73375 284.835625)scale(0.16 -0.16)">
      <use xlink:href="#DejaVuSans-70"/>
      <use x="57.410156" xlink:href="#DejaVuSans-114"/>
      <use x="98.523438" xlink:href="#DejaVuSans-97"/>
      <use x="159.802734" xlink:href="#DejaVuSans-109"/>
      <use x="257.214844" xlink:href="#DejaVuSans-101"/>
      <use x="318.738281" xlink:href="#DejaVuSans-115"/>
     </g>
    </g>
   </g>
   <g id="matplotlib.axis_2">
    <g id="ytick_1">
     <g id="line2d_7">
      <defs>
       <path d="M 0 0 
L -3.5 0 
" id="m125ad0c985" style="stroke:#000000;stroke-width:0.8;"/>
      </defs>
      <g>
       <use style="stroke:#000000;stroke-width:0.8;" x="54" xlink:href="#m125ad0c985" y="245.789644"/>
      </g>
     </g>
     <g id="text_8">
      <!-- 10 -->
      <g transform="translate(34.275 249.588862)scale(0.1 -0.1)">
       <use xlink:href="#DejaVuSans-49"/>
       <use x="63.623047" xlink:href="#DejaVuSans-48"/>
      </g>
     </g>
    </g>
    <g id="ytick_2">
     <g id="line2d_8">
      <g>
       <use style="stroke:#000000;stroke-width:0.8;" x="54" xlink:href="#m125ad0c985" y="219.517607"/>
      </g>
     </g>
     <g id="text_9">
      <!-- 15 -->
      <g transform="translate(34.275 223.316826)scale(0.1 -0.1)">
       <use xlink:href="#DejaVuSans-49"/>
       <use x="63.623047" xlink:href="#DejaVuSans-53"/>
      </g>
     </g>
    </g>
    <g id="ytick_3">
     <g id="line2d_9">
      <g>
       <use style="stroke:#000000;stroke-width:0.8;" x="54" xlink:href="#m125ad0c985" y="193.24557"/>
      </g>
     </g>
     <g id="text_10">
      <!-- 20 -->
      <g transform="translate(34.275 197.044789)scale(0.1 -0.1)">
       <use xlink:href="#DejaVuSans-50"/>
       <use x="63.623047" xlink:href="#DejaVuSans-48"/>
      </g>
     </g>
    </g>
    <g id="ytick_4">
     <g id="line2d_10">
      <g>
       <use style="stroke:#000000;stroke-width:0.8;" x="54" xlink:href="#m125ad0c985" y="166.973533"/>
      </g>
     </g>
     <g id="text_11">
      <!-- 25 -->
      <g transform="translate(34.275 170.772752)scale(0.1 -0.1)">
       <use xlink:href="#DejaVuSans-50"/>
       <use x="63.623047" xlink:href="#DejaVuSans-53"/>
      </g>
     </g>
    </g>
    <g id="ytick_5">
     <g id="line2d_11">
      <g>
       <use style="stroke:#000000;stroke-width:0.8;" x="54" xlink:href="#m125ad0c985" y="140.701496"/>
      </g>
     </g>
     <g id="text_12">
      <!-- 30 -->
      <g transform="translate(34.275 144.500715)scale(0.1 -0.1)">
       <use xlink:href="#DejaVuSans-51"/>
       <use x="63.623047" xlink:href="#DejaVuSans-48"/>
      </g>
     </g>
    </g>
    <g id="ytick_6">
     <g id="line2d_12">
      <g>
       <use style="stroke:#000000;stroke-width:0.8;" x="54" xlink:href="#m125ad0c985" y="114.429459"/>
      </g>
     </g>
     <g id="text_13">
      <!-- 35 -->
      <g transform="translate(34.275 118.228678)scale(0.1 -0.1)">
       <use xlink:href="#DejaVuSans-51"/>
       <use x="63.623047" xlink:href="#DejaVuSans-53"/>
      </g>
     </g>
    </g>
    <g id="ytick_7">
     <g id="line2d_13">
      <g>
       <use style="stroke:#000000;stroke-width:0.8;" x="54" xlink:href="#m125ad0c985" y="88.157423"/>
      </g>
     </g>
     <g id="text_14">
      <!-- 40 -->
      <g transform="translate(34.275 91.956641)scale(0.1 -0.1)">
       <use xlink:href="#DejaVuSans-52"/>
       <use x="63.623047" xlink:href="#DejaVuSans-48"/>
      </g>
     </g>
    </g>
    <g id="ytick_8">
     <g id="line2d_14">
      <g>
       <use style="stroke:#000000;stroke-width:0.8;" x="54" xlink:href="#m125ad0c985" y="61.885386"/>
      </g>
     </g>
     <g id="text_15">
      <!-- 45 -->
      <g transform="translate(34.275 65.684605)scale(0.1 -0.1)">
       <use xlink:href="#DejaVuSans-52"/>
       <use x="63.623047" xlink:href="#DejaVuSans-53"/>
      </g>
     </g>
    </g>
    <g id="ytick_9">
     <g id="line2d_15">
      <g>
       <use style="stroke:#000000;stroke-width:0.8;" x="54" xlink:href="#m125ad0c985" y="35.613349"/>
      </g>
     </g>
     <g id="text_16">
      <!-- 50 -->
      <g transform="translate(34.275 39.412568)scale(0.1 -0.1)">
       <use xlink:href="#DejaVuSans-53"/>
       <use x="63.623047" xlink:href="#DejaVuSans-48"/>
      </g>
     </g>
    </g>
    <g id="text_17">
     <!-- Average Brightness -->
     <defs>
      <path d="M 34.1875 63.1875 
L 20.796875 26.90625 
L 47.609375 26.90625 
z
M 28.609375 72.90625 
L 39.796875 72.90625 
L 67.578125 0 
L 57.328125 0 
L 50.6875 18.703125 
L 17.828125 18.703125 
L 11.1875 0 
L 0.78125 0 
z
" id="DejaVuSans-65"/>
      <path d="M 2.984375 54.6875 
L 12.5 54.6875 
L 29.59375 8.796875 
L 46.6875 54.6875 
L 56.203125 54.6875 
L 35.6875 0 
L 23.484375 0 
z
" id="DejaVuSans-118"/>
      <path d="M 45.40625 27.984375 
Q 45.40625 37.75 41.375 43.109375 
Q 37.359375 48.484375 30.078125 48.484375 
Q 22.859375 48.484375 18.828125 43.109375 
Q 14.796875 37.75 14.796875 27.984375 
Q 14.796875 18.265625 18.828125 12.890625 
Q 22.859375 7.515625 30.078125 7.515625 
Q 37.359375 7.515625 41.375 12.890625 
Q 45.40625 18.265625 45.40625 27.984375 
z
M 54.390625 6.78125 
Q 54.390625 -7.171875 48.1875 -13.984375 
Q 42 -20.796875 29.203125 -20.796875 
Q 24.46875 -20.796875 20.265625 -20.09375 
Q 16.0625 -19.390625 12.109375 -17.921875 
L 12.109375 -9.1875 
Q 16.0625 -11.328125 19.921875 -12.34375 
Q 23.78125 -13.375 27.78125 -13.375 
Q 36.625 -13.375 41.015625 -8.765625 
Q 45.40625 -4.15625 45.40625 5.171875 
L 45.40625 9.625 
Q 42.625 4.78125 38.28125 2.390625 
Q 33.9375 0 27.875 0 
Q 17.828125 0 11.671875 7.65625 
Q 5.515625 15.328125 5.515625 27.984375 
Q 5.515625 40.671875 11.671875 48.328125 
Q 17.828125 56 27.875 56 
Q 33.9375 56 38.28125 53.609375 
Q 42.625 51.21875 45.40625 46.390625 
L 45.40625 54.6875 
L 54.390625 54.6875 
z
" id="DejaVuSans-103"/>
      <path id="DejaVuSans-32"/>
      <path d="M 19.671875 34.8125 
L 19.671875 8.109375 
L 35.5 8.109375 
Q 43.453125 8.109375 47.28125 11.40625 
Q 51.125 14.703125 51.125 21.484375 
Q 51.125 28.328125 47.28125 31.5625 
Q 43.453125 34.8125 35.5 34.8125 
z
M 19.671875 64.796875 
L 19.671875 42.828125 
L 34.28125 42.828125 
Q 41.5 42.828125 45.03125 45.53125 
Q 48.578125 48.25 48.578125 53.8125 
Q 48.578125 59.328125 45.03125 62.0625 
Q 41.5 64.796875 34.28125 64.796875 
z
M 9.8125 72.90625 
L 35.015625 72.90625 
Q 46.296875 72.90625 52.390625 68.21875 
Q 58.5 63.53125 58.5 54.890625 
Q 58.5 48.1875 55.375 44.234375 
Q 52.25 40.28125 46.1875 39.3125 
Q 53.46875 37.75 57.5 32.78125 
Q 61.53125 27.828125 61.53125 20.40625 
Q 61.53125 10.640625 54.890625 5.3125 
Q 48.25 0 35.984375 0 
L 9.8125 0 
z
" id="DejaVuSans-66"/>
      <path d="M 9.421875 54.6875 
L 18.40625 54.6875 
L 18.40625 0 
L 9.421875 0 
z
M 9.421875 75.984375 
L 18.40625 75.984375 
L 18.40625 64.59375 
L 9.421875 64.59375 
z
" id="DejaVuSans-105"/>
      <path d="M 54.890625 33.015625 
L 54.890625 0 
L 45.90625 0 
L 45.90625 32.71875 
Q 45.90625 40.484375 42.875 44.328125 
Q 39.84375 48.1875 33.796875 48.1875 
Q 26.515625 48.1875 22.3125 43.546875 
Q 18.109375 38.921875 18.109375 30.90625 
L 18.109375 0 
L 9.078125 0 
L 9.078125 75.984375 
L 18.109375 75.984375 
L 18.109375 46.1875 
Q 21.34375 51.125 25.703125 53.5625 
Q 30.078125 56 35.796875 56 
Q 45.21875 56 50.046875 50.171875 
Q 54.890625 44.34375 54.890625 33.015625 
z
" id="DejaVuSans-104"/>
      <path d="M 18.3125 70.21875 
L 18.3125 54.6875 
L 36.8125 54.6875 
L 36.8125 47.703125 
L 18.3125 47.703125 
L 18.3125 18.015625 
Q 18.3125 11.328125 20.140625 9.421875 
Q 21.96875 7.515625 27.59375 7.515625 
L 36.8125 7.515625 
L 36.8125 0 
L 27.59375 0 
Q 17.1875 0 13.234375 3.875 
Q 9.28125 7.765625 9.28125 18.015625 
L 9.28125 47.703125 
L 2.6875 47.703125 
L 2.6875 54.6875 
L 9.28125 54.6875 
L 9.28125 70.21875 
z
" id="DejaVuSans-116"/>
      <path d="M 54.890625 33.015625 
L 54.890625 0 
L 45.90625 0 
L 45.90625 32.71875 
Q 45.90625 40.484375 42.875 44.328125 
Q 39.84375 48.1875 33.796875 48.1875 
Q 26.515625 48.1875 22.3125 43.546875 
Q 18.109375 38.921875 18.109375 30.90625 
L 18.109375 0 
L 9.078125 0 
L 9.078125 54.6875 
L 18.109375 54.6875 
L 18.109375 46.1875 
Q 21.34375 51.125 25.703125 53.5625 
Q 30.078125 56 35.796875 56 
Q 45.21875 56 50.046875 50.171875 
Q 54.890625 44.34375 54.890625 33.015625 
z
" id="DejaVuSans-110"/>
     </defs>
     <g transform="translate(26.9475 221.75125)rotate(-90)scale(0.16 -0.16)">
      <use xlink:href="#DejaVuSans-65"/>
      <use x="68.330078" xlink:href="#DejaVuSans-118"/>
      <use x="127.509766" xlink:href="#DejaVuSans-101"/>
      <use x="189.033203" xlink:href="#DejaVuSans-114"/>
      <use x="230.146484" xlink:href="#DejaVuSans-97"/>
      <use x="291.425781" xlink:href="#DejaVuSans-103"/>
      <use x="354.902344" xlink:href="#DejaVuSans-101"/>
      <use x="416.425781" xlink:href="#DejaVuSans-32"/>
      <use x="448.212891" xlink:href="#DejaVuSans-66"/>
      <use x="516.816406" xlink:href="#DejaVuSans-114"/>
      <use x="557.929688" xlink:href="#DejaVuSans-105"/>
      <use x="585.712891" xlink:href="#DejaVuSans-103"/>
      <use x="649.189453" xlink:href="#DejaVuSans-104"/>
      <use x="712.568359" xlink:href="#DejaVuSans-116"/>
      <use x="751.777344" xlink:href="#DejaVuSans-110"/>
      <use x="815.15625" xlink:href="#DejaVuSans-101"/>
      <use x="876.679688" xlink:href="#DejaVuSans-115"/>
      <use x="928.779297" xlink:href="#DejaVuSans-115"/>
     </g>
    </g>
   </g>
   <g id="line2d_16">
    <path clip-path="url(#pf8d5f0c47e)" d="M 69.218182 152.233661 
L 69.403694 147.842218 
L 69.465531 149.740869 
L 69.651044 144.155951 
L 69.712881 145.941618 
L 69.774718 144.820219 
L 69.836556 145.399425 
L 69.898393 145.105926 
L 69.960231 144.872166 
L 70.022068 143.648172 
L 70.145743 147.413658 
L 70.20758 146.872763 
L 70.269417 146.648093 
L 70.331255 147.242883 
L 70.393092 146.451995 
L 70.45493 147.024057 
L 70.516767 147.23639 
L 70.702279 145.115666 
L 70.764117 147.501318 
L 70.825954 147.227299 
L 70.887791 147.756506 
L 70.949629 145.19943 
L 71.011466 146.907177 
L 71.073304 146.093562 
L 71.258816 148.592847 
L 71.320653 147.711052 
L 71.444328 149.538926 
L 71.568003 147.921436 
L 71.62984 151.231739 
L 71.691677 150.644742 
L 71.87719 147.668196 
L 71.939027 150.337607 
L 72.000864 148.031823 
L 72.186377 150.560328 
L 72.248214 150.864216 
L 72.310051 152.626508 
L 72.371889 151.257063 
L 72.433726 150.916163 
L 72.495564 153.222596 
L 72.557401 153.173896 
L 72.681076 152.35119 
L 72.742913 152.93624 
L 73.113937 149.333737 
L 73.175775 154.956317 
L 73.237612 151.807698 
L 73.29945 150.897332 
L 73.361287 151.830425 
L 73.423124 154.880994 
L 73.484962 152.093405 
L 73.546799 152.189506 
L 73.732311 157.329631 
L 73.794149 158.506223 
L 73.979661 155.493315 
L 74.165173 159.484769 
L 74.350685 155.102417 
L 74.412523 159.071793 
L 74.47436 156.814709 
L 74.598035 157.994548 
L 74.72171 156.060184 
L 74.783547 160.443835 
L 74.845384 159.469834 
L 75.030897 157.171193 
L 75.092734 157.128337 
L 75.154571 158.136103 
L 75.216409 158.127662 
L 75.278246 158.078312 
L 75.401921 161.830811 
L 75.463758 161.358096 
L 75.525596 158.999067 
L 75.587433 159.03543 
L 75.711108 164.533338 
L 75.772945 161.006807 
L 75.834783 165.585258 
L 75.89662 163.022988 
L 75.958457 163.207398 
L 76.020295 160.928238 
L 76.082132 163.730761 
L 76.14397 162.977534 
L 76.267644 165.47617 
L 76.329482 164.804759 
L 76.514994 161.824967 
L 76.638669 166.482637 
L 76.700506 165.028779 
L 76.762343 165.334615 
L 76.824181 163.105453 
L 76.886018 164.737878 
L 77.009693 168.783226 
L 77.133368 164.826187 
L 77.195205 165.319681 
L 77.257043 165.498247 
L 77.442555 171.236408 
L 77.56623 166.400172 
L 77.628067 168.679982 
L 77.689904 167.130672 
L 77.751742 166.16836 
L 77.813579 168.1748 
L 77.875416 165.341758 
L 78.060929 170.5624 
L 78.184603 167.905976 
L 78.370116 170.082542 
L 78.555628 168.497519 
L 78.679303 166.587829 
L 78.74114 166.922885 
L 78.802977 170.914988 
L 78.864815 169.52996 
L 78.926652 170.929923 
L 78.98849 168.000779 
L 79.050327 169.477363 
L 79.112164 170.462403 
L 79.174002 173.675305 
L 79.235839 172.864287 
L 79.297676 170.283836 
L 79.359514 171.436403 
L 79.545026 172.474687 
L 79.606863 171.581204 
L 79.730538 173.00844 
L 79.792376 173.116878 
L 79.854213 174.463596 
L 79.91605 171.418222 
L 79.977888 171.636398 
L 80.039725 172.935714 
L 80.101563 172.020803 
L 80.1634 172.911689 
L 80.225237 172.905845 
L 80.287075 172.481181 
L 80.348912 172.720785 
L 80.41075 170.833172 
L 80.658099 179.083605 
L 80.719936 178.67907 
L 80.843611 173.453882 
L 80.905449 173.760368 
L 80.967286 172.476635 
L 81.090961 178.219991 
L 81.152798 176.936258 
L 81.214636 177.179758 
L 81.276473 176.770678 
L 81.33831 175.584995 
L 81.461985 177.94792 
L 81.523823 176.417441 
L 81.58566 179.186199 
L 81.647497 177.757665 
L 81.894847 175.727199 
L 81.956684 175.693434 
L 82.018522 179.686835 
L 82.080359 178.196615 
L 82.204034 176.500556 
L 82.327709 177.677148 
L 82.451383 182.1569 
L 82.575058 178.10376 
L 82.636896 178.155707 
L 82.822408 181.111473 
L 82.946083 175.734991 
L 83.069757 182.460789 
L 83.131595 180.648498 
L 83.193432 179.366065 
L 83.255269 179.84852 
L 83.317107 180.343312 
L 83.440782 179.093994 
L 83.502619 179.874493 
L 83.564456 179.026463 
L 83.626294 179.275158 
L 83.688131 180.806287 
L 83.749969 179.55567 
L 83.873643 182.334168 
L 83.935481 181.470555 
L 83.997318 180.78356 
L 84.18283 183.399725 
L 84.306505 182.74195 
L 84.368343 184.486709 
L 84.492017 178.782963 
L 84.553855 180.153706 
L 84.801204 183.678938 
L 84.863042 184.029578 
L 84.924879 183.958152 
L 84.986716 183.96984 
L 85.048554 180.103058 
L 85.110391 182.384816 
L 85.172229 184.726963 
L 85.234066 182.19651 
L 85.295903 182.597149 
L 85.357741 186.477566 
L 85.419578 181.820546 
L 85.481416 185.30422 
L 85.543253 184.808779 
L 85.60509 183.31661 
L 85.666928 184.584109 
L 85.728765 181.683536 
L 85.85244 185.736027 
L 85.914277 183.299078 
L 86.037952 187.805453 
L 86.099789 187.317804 
L 86.161627 187.627536 
L 86.223464 184.930204 
L 86.285302 186.22043 
L 86.347139 190.49824 
L 86.408976 187.26261 
L 86.470814 186.550941 
L 86.532651 187.122354 
L 86.594489 187.606108 
L 86.656326 186.852232 
L 86.718163 187.537278 
L 86.780001 187.289233 
L 86.841838 186.971709 
L 86.965513 188.571018 
L 87.02735 187.921684 
L 87.089188 188.186612 
L 87.151025 187.044434 
L 87.336537 191.069004 
L 87.398375 190.26383 
L 87.460212 189.258012 
L 87.522049 193.90854 
L 87.583887 193.429981 
L 87.707562 189.352166 
L 87.769399 191.450163 
L 87.831236 191.241727 
L 87.893074 188.839842 
L 88.016749 191.559251 
L 88.078586 190.948228 
L 88.140423 194.602028 
L 88.202261 190.640444 
L 88.325936 196.366917 
L 88.387773 195.461096 
L 88.44961 195.692908 
L 88.511448 196.385098 
L 88.573285 202.152479 
L 88.635122 201.783657 
L 88.758797 203.93425 
L 88.820635 202.179101 
L 88.882472 204.871888 
L 88.944309 202.526495 
L 89.129822 214.618385 
L 89.253496 217.587138 
L 89.315334 217.342989 
L 89.562683 222.4474 
L 89.748195 221.114318 
L 89.87187 219.359819 
L 89.933708 219.639032 
L 89.995545 220.218887 
L 90.304732 209.333459 
L 90.366569 210.352263 
L 90.428407 209.609426 
L 90.737594 200.625246 
L 90.799431 200.568105 
L 90.861269 201.016794 
L 90.923106 198.479199 
L 90.984943 201.315488 
L 91.046781 199.182427 
L 91.108618 199.14087 
L 91.170455 200.511613 
L 91.29413 193.370891 
L 91.355968 198.572703 
L 91.417805 197.54221 
L 91.54148 193.492966 
L 91.726992 195.926668 
L 91.788829 194.290997 
L 91.850667 194.576704 
L 91.974342 198.588287 
L 92.036179 197.220141 
L 92.098016 200.801865 
L 92.159854 199.585663 
L 92.221691 194.543588 
L 92.283528 197.303256 
L 92.345366 197.961031 
L 92.407203 195.481226 
L 92.469041 203.118687 
L 92.530878 199.260347 
L 92.592715 202.066767 
L 92.654553 196.925993 
L 92.71639 198.057781 
L 92.901902 203.021287 
L 93.025577 198.037003 
L 93.087415 198.464264 
L 93.149252 200.277203 
L 93.211089 199.168791 
L 93.272927 199.497354 
L 93.334764 201.057702 
L 93.520276 196.90911 
L 93.643951 205.467327 
L 93.705788 200.5246 
L 93.767626 200.69018 
L 93.829463 199.776567 
L 93.891301 196.927291 
L 94.014975 202.41416 
L 94.076813 201.657037 
L 94.200488 203.308293 
L 94.262325 198.988276 
L 94.324162 200.450575 
L 94.386 200.368759 
L 94.447837 198.101287 
L 94.571512 204.915393 
L 94.633349 201.45964 
L 94.695187 201.759632 
L 94.757024 200.094741 
L 94.880699 203.377122 
L 95.004374 198.203881 
L 95.128048 198.958407 
L 95.251723 202.79402 
L 95.313561 202.31741 
L 95.375398 202.508963 
L 95.437235 203.985548 
L 95.499073 201.906381 
L 95.56091 203.876459 
L 95.684585 191.138483 
L 95.746422 194.363073 
L 95.80826 191.150171 
L 95.870097 192.877398 
L 95.993772 203.883602 
L 96.055609 202.499872 
L 96.117447 201.463536 
L 96.302959 205.169932 
L 96.364796 202.43364 
L 96.426634 207.533506 
L 96.488471 204.495924 
L 96.550308 203.677763 
L 96.673983 207.381562 
L 96.735821 204.964743 
L 96.859495 210.086037 
L 96.921333 207.84129 
L 96.98317 208.025701 
L 97.045008 208.249072 
L 97.106845 205.267981 
L 97.168682 206.700411 
L 97.354195 209.051648 
L 97.416032 205.156945 
L 97.477869 206.92573 
L 97.539707 207.523766 
L 97.725219 204.190737 
L 97.787056 206.756254 
L 97.848894 205.869914 
L 97.910731 204.218658 
L 97.972568 208.069206 
L 98.158081 202.544676 
L 98.281755 207.47117 
L 98.343593 201.395356 
L 98.529105 148.581809 
L 98.590942 147.38249 
L 98.838292 181.522501 
L 99.023804 198.543483 
L 99.085641 193.765037 
L 99.147479 194.407228 
L 99.209316 199.621377 
L 99.271154 196.008484 
L 99.518503 201.683011 
L 99.889528 176.647954 
L 100.013202 196.087054 
L 100.07504 195.113703 
L 100.198714 190.869658 
L 100.260552 192.4852 
L 100.322389 188.492448 
L 100.446064 200.756412 
L 100.507901 196.144195 
L 100.569739 194.83384 
L 100.631576 197.480524 
L 100.693414 194.514368 
L 100.755251 195.269543 
L 100.817088 195.109807 
L 100.878926 195.894851 
L 100.940763 195.588366 
L 101.002601 195.824723 
L 101.064438 199.142818 
L 101.126275 198.529197 
L 101.188113 198.096092 
L 101.311788 199.104507 
L 101.559137 193.962434 
L 101.620974 196.902617 
L 101.682812 196.591586 
L 101.744649 196.21757 
L 101.806487 197.058457 
L 101.868324 194.549432 
L 101.930161 195.469538 
L 101.991999 198.020769 
L 102.053836 196.658467 
L 102.177511 196.535094 
L 102.363023 198.29284 
L 102.424861 197.857786 
L 102.548535 195.861086 
L 102.610373 198.440888 
L 102.67221 196.841579 
L 102.734048 197.340917 
L 102.91956 193.049471 
L 102.981397 198.85841 
L 103.043234 197.119494 
L 103.228747 194.072821 
L 103.290584 196.397435 
L 103.352421 196.127962 
L 103.414259 194.442941 
L 103.599771 183.479593 
L 103.723446 192.491694 
L 103.785283 188.1496 
L 103.847121 188.507383 
L 103.908958 194.236453 
L 103.970795 192.091704 
L 104.09447 193.570237 
L 104.279982 190.791738 
L 104.34182 191.689767 
L 104.403657 194.80462 
L 104.465494 194.295542 
L 104.712844 188.827504 
L 104.774681 189.185287 
L 104.836519 190.080069 
L 104.898356 188.806726 
L 104.960194 184.706833 
L 105.022031 185.701612 
L 105.083868 185.973683 
L 105.269381 191.018356 
L 105.331218 189.768389 
L 105.454893 191.518343 
L 105.51673 191.050823 
L 105.578567 191.350165 
L 105.640405 191.798855 
L 105.825917 190.456033 
L 105.887754 189.746311 
L 105.949592 192.430007 
L 106.011429 186.21069 
L 106.073267 193.268946 
L 106.135104 187.413256 
L 106.196941 190.496292 
L 106.258779 190.538498 
L 106.382454 191.10212 
L 106.444291 187.404814 
L 106.506128 190.62486 
L 106.567966 188.669716 
L 106.629803 188.306089 
L 106.691641 185.994462 
L 106.753478 186.356141 
L 106.877153 187.780779 
L 106.93899 184.800337 
L 107.000827 184.952281 
L 107.124502 186.659379 
L 107.248177 181.953659 
L 107.310014 184.235417 
L 107.433689 192.507927 
L 107.557364 181.847168 
L 107.681039 190.630704 
L 107.742876 169.731902 
L 107.804714 172.138333 
L 107.866551 186.830154 
L 107.928388 184.887997 
L 108.052063 186.360686 
L 108.1139 184.469827 
L 108.237575 175.85317 
L 108.36125 187.601563 
L 108.423087 187.261312 
L 108.546762 179.629045 
L 108.6086 181.467308 
L 108.670437 181.378999 
L 108.855949 176.381727 
L 108.917787 178.93166 
L 108.979624 175.235004 
L 109.041461 176.075242 
L 109.103299 182.515982 
L 109.165136 182.160147 
L 109.226974 176.851845 
L 109.288811 179.008931 
L 109.474323 185.347076 
L 109.597998 184.429568 
L 109.721673 179.783586 
L 109.78351 181.307572 
L 109.907185 179.566059 
L 109.969022 181.350428 
L 110.092697 179.460867 
L 110.154534 180.831611 
L 110.216372 177.313521 
L 110.278209 178.709588 
L 110.401884 183.943866 
L 110.463721 182.260144 
L 110.587396 184.956177 
L 110.649233 184.189315 
L 110.772908 181.252379 
L 110.95842 184.841245 
L 111.020258 183.478944 
L 111.082095 184.683457 
L 111.20577 179.365415 
L 111.267607 179.806962 
L 111.329445 178.195966 
L 111.391282 183.469853 
L 111.45312 180.599149 
L 111.576794 179.637486 
L 111.638632 182.29391 
L 111.824144 178.823222 
L 111.885981 183.801662 
L 111.947819 181.086799 
L 112.009656 178.050515 
L 112.071493 183.048435 
L 112.133331 181.664056 
L 112.257006 178.560242 
L 112.38068 170.442923 
L 112.442518 173.9727 
L 112.566193 173.375313 
L 112.62803 174.712291 
L 112.751705 170.29877 
L 113.060892 175.949921 
L 113.122729 175.706421 
L 113.184567 176.197317 
L 113.246404 174.770082 
L 113.308241 175.286302 
L 113.370079 175.868105 
L 113.431916 175.838235 
L 113.617428 167.381964 
L 113.741103 171.29355 
L 113.80294 167.871562 
L 113.864778 168.464403 
L 113.926615 171.435104 
L 113.988453 169.546842 
L 114.05029 167.465728 
L 114.112127 168.382587 
L 114.173965 167.847536 
L 114.235802 174.053217 
L 114.29764 169.922806 
L 114.359477 169.789044 
L 114.421314 170.29942 
L 114.483152 167.121581 
L 114.544989 167.441703 
L 114.606826 169.063089 
L 114.668664 168.979325 
L 114.792339 165.169035 
L 114.916013 168.255318 
L 115.039688 165.062544 
L 115.163363 161.095766 
L 115.287038 166.172256 
L 115.348875 165.660581 
L 115.534387 159.692556 
L 115.658062 170.631879 
L 115.781737 158.385447 
L 115.843574 161.45225 
L 115.905412 161.478223 
L 115.967249 160.241243 
L 116.029086 161.280826 
L 116.090924 164.556714 
L 116.152761 158.017924 
L 116.214599 159.355552 
L 116.338273 161.594454 
L 116.523786 154.688142 
L 116.64746 160.435393 
L 116.832973 156.367968 
L 116.89481 156.243945 
L 116.956647 156.533548 
L 117.018485 157.893902 
L 117.080322 154.260231 
L 117.14216 155.999146 
L 117.203997 157.1647 
L 117.389509 155.160857 
L 117.575021 156.222517 
L 117.698696 153.161558 
L 117.760533 153.973875 
L 117.822371 153.932967 
L 117.884208 153.77388 
L 117.946046 153.953096 
L 118.007883 153.276491 
L 118.06972 158.028314 
L 118.131558 157.259503 
L 118.255233 153.956343 
L 118.378907 157.317293 
L 118.440745 152.834294 
L 118.502582 153.456356 
L 118.626257 152.511576 
L 118.811769 156.504328 
L 118.935444 152.327165 
L 118.997281 153.885565 
L 119.059119 149.764895 
L 119.182793 155.108261 
L 119.244631 153.256361 
L 119.306468 153.632975 
L 119.430143 156.595234 
L 119.553818 153.236232 
L 119.615655 155.769282 
L 119.73933 149.898657 
L 119.801167 150.438903 
L 119.863005 151.795361 
L 119.924842 150.707727 
L 120.048517 153.529081 
L 120.172192 149.089588 
L 120.234029 149.731129 
L 120.295866 149.608405 
L 120.357704 150.907722 
L 120.419541 150.031121 
L 120.543216 147.803907 
L 120.666891 150.712922 
L 120.728728 148.325971 
L 120.790566 151.525238 
L 120.91424 137.548332 
L 120.976078 142.215093 
L 121.037915 144.914373 
L 121.223427 135.265925 
L 121.285265 139.600227 
L 121.347102 138.465191 
L 121.470777 139.054786 
L 121.532614 136.223692 
L 121.656289 139.492437 
L 121.718126 139.422959 
L 121.841801 141.653419 
L 122.089151 134.634123 
L 122.150988 136.246419 
L 122.274663 133.72181 
L 122.398338 134.872429 
L 122.460175 138.721029 
L 122.522012 136.840559 
L 122.58385 137.358727 
L 122.769362 141.669653 
L 122.954874 139.711912 
L 123.016712 142.478722 
L 123.078549 142.079382 
L 123.140386 142.462489 
L 123.202224 141.851466 
L 123.264061 142.593654 
L 123.449573 140.250209 
L 123.511411 145.441632 
L 123.696923 138.837909 
L 123.820598 142.894296 
L 123.882435 141.621602 
L 123.944272 142.926113 
L 124.067947 140.151511 
L 124.129785 141.21447 
L 124.191622 140.7463 
L 124.438972 136.063956 
L 124.500809 137.208082 
L 124.748159 133.618566 
L 124.933671 136.891856 
L 124.995508 136.756795 
L 125.18102 132.806899 
L 125.242858 136.421739 
L 125.304695 135.765912 
L 125.42837 133.720511 
L 125.490207 134.849702 
L 125.552045 136.223692 
L 125.613882 133.032867 
L 125.675719 133.240653 
L 125.737557 134.845157 
L 125.861232 130.013466 
L 125.923069 126.54018 
L 125.984906 135.081514 
L 126.046744 134.696459 
L 126.170419 130.351768 
L 126.232256 133.860767 
L 126.294093 132.414052 
L 126.60328 127.408339 
L 126.726955 129.466077 
L 126.912467 125.220085 
L 126.974305 126.573946 
L 127.036142 125.823965 
L 127.159817 126.860951 
L 127.221654 122.849368 
L 127.283492 124.948014 
L 127.345329 124.485689 
L 127.407166 127.215487 
L 127.469004 126.568751 
L 127.592679 118.974795 
L 127.716353 124.702566 
L 127.840028 119.334525 
L 127.901865 120.098142 
L 128.02554 117.252113 
L 128.211052 121.68771 
L 128.396565 117.224191 
L 128.458402 118.787137 
L 128.520239 118.470912 
L 128.582077 118.207932 
L 128.829426 114.619714 
L 128.891264 116.119675 
L 128.953101 116.006041 
L 129.014938 115.018405 
L 129.076776 117.870927 
L 129.138613 117.224841 
L 129.262288 118.115726 
L 129.385963 115.941757 
L 129.4478 118.34559 
L 129.633312 113.831423 
L 129.69515 114.128169 
L 129.756987 113.228192 
L 129.818825 115.447615 
L 129.880662 113.280139 
L 129.942499 113.55156 
L 130.004337 114.106741 
L 130.189849 109.658156 
L 130.313524 115.730724 
L 130.375361 115.702803 
L 130.437198 115.589169 
L 130.499036 115.952147 
L 130.560873 114.058041 
L 130.622711 114.558677 
L 130.684548 116.361227 
L 130.746385 115.093728 
L 130.808223 116.157336 
L 130.993735 112.210037 
L 131.055572 114.289853 
L 131.11741 120.159828 
L 131.179247 116.91316 
L 131.241085 113.583378 
L 131.302922 113.999601 
L 131.364759 113.587274 
L 131.426597 116.098247 
L 131.488434 113.534678 
L 131.550272 116.28071 
L 131.673946 111.383436 
L 131.921296 114.791788 
L 132.230483 110.413331 
L 132.29232 112.060691 
L 132.354158 109.146481 
L 132.415995 109.265959 
L 132.477832 109.977628 
L 132.53967 106.802387 
L 132.601507 108.074432 
L 132.663345 111.338632 
L 132.725182 109.179597 
L 132.787019 108.812724 
L 132.848857 107.237441 
L 132.910694 107.504966 
L 132.972531 110.688649 
L 133.034369 109.304919 
L 133.219881 107.125755 
L 133.281718 108.847139 
L 133.467231 103.178456 
L 133.529068 103.335595 
L 133.590905 105.066069 
L 133.652743 104.528421 
L 133.71458 104.46089 
L 133.776418 105.703065 
L 133.838255 105.694624 
L 133.900092 105.345932 
L 134.023767 101.163574 
L 134.085605 101.951865 
L 134.271117 105.651768 
L 134.456629 102.233676 
L 134.518466 102.303804 
L 134.580304 103.251182 
L 134.642141 102.75574 
L 134.827653 100.254507 
L 134.889491 103.436242 
L 135.075003 98.582473 
L 135.13684 98.798701 
L 135.446027 102.352504 
L 135.631539 96.927322 
L 135.693377 97.149394 
L 135.817051 99.13116 
L 135.878889 95.651382 
L 135.940726 96.244872 
L 136.002564 98.403907 
L 136.064401 98.120797 
L 136.249913 94.652057 
L 136.435425 97.111733 
L 136.5591 94.818287 
L 136.744612 98.642861 
L 136.930124 95.762418 
L 136.991962 91.644993 
L 137.053799 92.044983 
L 137.115637 96.127992 
L 137.177474 95.519567 
L 137.239311 95.688394 
L 137.301149 93.989088 
L 137.362986 94.641018 
L 137.424824 95.133213 
L 137.486661 94.769587 
L 137.734011 92.870935 
L 137.795848 92.789119 
L 137.857685 91.093709 
L 137.98136 94.236484 
L 138.166872 92.079397 
L 138.22871 92.393675 
L 138.414222 89.561931 
L 138.599734 93.221575 
L 138.661571 92.624188 
L 138.785246 89.532062 
L 138.847084 92.316404 
L 138.908921 90.315807 
L 139.094433 93.180667 
L 139.156271 91.835897 
L 139.218108 92.946907 
L 139.279945 92.397571 
L 139.465458 87.622372 
L 139.527295 88.243135 
L 139.589132 87.160696 
L 139.712807 89.466479 
L 139.774644 86.634735 
L 139.836482 87.100957 
L 139.898319 87.608736 
L 140.021994 85.599048 
L 140.145669 87.096412 
L 140.207506 85.982155 
L 140.393018 91.339157 
L 140.640368 86.600321 
L 140.702205 85.684111 
L 140.764043 86.332146 
L 140.82588 86.126957 
L 140.887717 87.602242 
L 140.949555 86.34773 
L 141.011392 86.841223 
L 141.07323 87.233421 
L 141.135067 84.625048 
L 141.196904 84.675047 
L 141.382417 88.380793 
L 141.506091 84.941273 
L 141.567929 84.679592 
L 141.629766 85.232175 
L 141.815278 89.593749 
L 141.938953 86.008128 
L 142.062628 87.888599 
L 142.186303 87.272381 
L 142.371815 84.489337 
L 142.49549 85.126333 
L 142.619164 83.020545 
L 142.681002 83.986753 
L 142.742839 82.817953 
L 142.804677 84.38934 
L 142.866514 83.365341 
L 142.928351 82.095244 
L 142.990189 83.277031 
L 143.052026 82.896522 
L 143.113864 83.503649 
L 143.237538 80.14075 
L 143.299376 80.466066 
L 143.361213 81.334225 
L 143.484888 79.267397 
L 143.546725 80.056986 
L 143.732237 78.583648 
L 143.794075 78.512871 
L 143.855912 77.803799 
L 143.91775 78.12392 
L 143.979587 80.005039 
L 144.041424 79.595959 
L 144.103262 79.299863 
L 144.165099 79.670633 
L 144.226937 76.414874 
L 144.288774 78.163529 
L 144.536124 76.102545 
L 144.783473 73.79741 
L 144.84531 74.590896 
L 144.907148 72.895486 
L 144.968985 74.310384 
L 145.030823 73.461056 
L 145.09266 73.179245 
L 145.278172 71.81954 
L 145.401847 73.948705 
L 145.587359 70.394253 
L 145.649197 72.347449 
L 145.711034 72.152648 
L 145.896546 71.180596 
L 145.958384 72.941589 
L 146.020221 72.425369 
L 146.26757 68.092366 
L 146.51492 71.165661 
L 146.576757 71.101377 
L 146.700432 71.666947 
L 146.824107 71.238387 
L 146.885944 68.676116 
L 146.947782 68.872215 
L 147.133294 69.680635 
L 147.256969 67.446279 
L 147.318806 67.699519 
L 147.442481 69.408565 
L 147.504318 68.52612 
L 147.566156 68.524172 
L 147.627993 68.396254 
L 147.68983 67.916396 
L 147.751668 69.730634 
L 147.813505 69.426746 
L 147.875343 69.497523 
L 147.999017 67.048886 
L 148.060855 67.128105 
L 148.122692 67.920292 
L 148.246367 66.369684 
L 148.308204 66.530069 
L 148.370042 67.200831 
L 148.431879 66.80214 
L 148.493717 66.736557 
L 148.555554 64.8431 
L 148.617391 65.655417 
L 148.679229 64.706091 
L 148.864741 66.510589 
L 148.926578 65.383346 
L 148.988416 66.260595 
L 149.235765 64.130781 
L 149.297603 64.327529 
L 149.35944 64.041173 
L 149.421277 64.692455 
L 149.483115 64.232077 
L 149.60679 63.899619 
L 149.668627 64.458045 
L 149.792302 63.106782 
L 149.854139 63.291842 
L 150.101489 61.92954 
L 150.225163 63.326906 
L 150.287001 62.386671 
L 150.348838 62.682767 
L 150.410676 62.300959 
L 150.596188 60.203612 
L 150.658025 60.5562 
L 150.7817 59.952969 
L 150.843537 60.679573 
L 151.02905 57.756274 
L 151.090887 58.271844 
L 151.152724 58.340024 
L 151.400074 60.939307 
L 151.461911 60.871127 
L 151.523749 61.145795 
L 151.647423 59.373114 
L 151.709261 59.720508 
L 151.832936 57.57446 
L 151.894773 58.995851 
L 152.018448 56.799805 
L 152.080285 57.271221 
L 152.142123 57.249144 
L 152.20396 56.098525 
L 152.265797 56.358258 
L 152.389472 57.973151 
L 152.45131 57.784844 
L 152.698659 55.488151 
L 152.760496 54.981671 
L 152.822334 55.456983 
L 152.884171 54.769339 
L 152.946009 56.078396 
L 153.007846 55.083616 
L 153.131521 54.411556 
L 153.193358 56.168004 
L 153.255196 55.379063 
L 153.317033 55.125174 
L 153.37887 57.621212 
L 153.440708 56.806948 
L 153.502545 56.601109 
L 153.564383 56.838765 
L 153.811732 54.022605 
L 153.935407 55.751131 
L 153.997244 54.249223 
L 154.059082 54.65181 
L 154.244594 55.749183 
L 154.553781 52.529138 
L 154.615618 53.648589 
L 154.677456 54.424543 
L 154.739293 53.914816 
L 154.80113 53.888193 
L 154.862968 54.007671 
L 154.924805 54.784923 
L 154.986643 54.588824 
L 155.04848 54.716743 
L 155.172155 53.223925 
L 155.419504 54.640771 
L 155.666854 52.955101 
L 155.790529 50.740224 
L 155.852366 51.224627 
L 155.914203 52.316806 
L 155.976041 52.023957 
L 156.037878 52.054475 
L 156.285228 55.138161 
L 156.347065 53.94988 
L 156.408903 54.016761 
L 156.47074 54.150524 
L 156.779927 51.066839 
L 156.903602 52.210315 
L 157.027276 51.132422 
L 157.089114 51.588254 
L 157.150951 53.26743 
L 157.336463 50.387636 
L 157.398301 50.040243 
L 157.460138 51.80643 
L 157.521976 50.444128 
L 157.769325 52.666797 
L 158.078512 47.449402 
L 158.140349 47.270835 
L 158.325862 49.610384 
L 158.449536 47.90848 
L 158.696886 51.266834 
L 158.758723 51.031126 
L 158.882398 52.510307 
L 159.253422 47.140968 
L 159.31526 48.314314 
L 159.438935 46.306574 
L 159.500772 46.851365 
L 159.562609 46.48644 
L 159.686284 46.798769 
L 159.748122 47.237719 
L 159.871796 49.45844 
L 159.933634 48.421454 
L 160.180983 52.563553 
L 160.242821 52.528489 
L 160.304658 52.55641 
L 160.366496 52.392129 
L 160.552008 47.746147 
L 160.613845 47.999387 
L 160.675682 48.543529 
L 160.861195 46.08645 
L 160.984869 46.102034 
L 161.046707 46.31112 
L 161.108544 46.270212 
L 161.417731 52.181745 
L 161.479569 50.765548 
L 161.541406 53.197952 
L 161.603243 52.606409 
L 162.097942 47.803288 
L 162.221617 44.443636 
L 162.592642 50.658408 
L 162.716316 48.41561 
L 162.778154 48.695473 
L 162.839991 48.19159 
L 163.087341 49.620124 
L 163.211015 48.572099 
L 163.272853 45.772173 
L 163.33469 46.066321 
L 163.396528 46.481894 
L 163.458365 46.461765 
L 163.520202 45.990349 
L 163.58204 46.617605 
L 163.705715 44.963753 
L 163.953064 47.913026 
L 164.014902 47.564983 
L 164.076739 47.348105 
L 164.138576 47.472128 
L 164.262251 49.641552 
L 164.324089 49.634409 
L 164.447763 47.736407 
L 164.509601 50.236991 
L 164.695113 45.731914 
L 164.818788 46.448129 
L 164.880625 45.243615 
L 164.942462 45.355301 
L 165.375324 49.407142 
L 165.437162 49.138968 
L 165.498999 49.037671 
L 165.560836 49.222082 
L 165.746348 46.05723 
L 165.870023 48.07471 
L 165.931861 47.668876 
L 166.117373 45.400754 
L 166.17921 44.878041 
L 166.241048 45.16115 
L 166.302885 45.435169 
L 166.364722 49.831157 
L 166.42656 48.384442 
L 166.488397 48.184447 
L 166.612072 46.675396 
L 166.673909 47.67472 
L 166.735747 47.089021 
L 166.859422 46.340989 
L 166.983096 48.840274 
L 167.044934 48.550671 
L 167.106771 48.559762 
L 167.168608 48.106527 
L 167.354121 48.692226 
L 167.725145 45.607242 
L 168.034332 50.300625 
L 168.219844 51.58241 
L 168.281682 51.06554 
L 168.343519 49.474024 
L 168.405356 50.229199 
L 168.529031 50.478543 
L 168.714543 47.88965 
L 168.776381 47.881858 
L 168.838218 47.357845 
L 168.900055 47.905234 
L 168.961893 47.322781 
L 169.085568 48.837677 
L 169.147405 47.877962 
L 169.332917 50.490231 
L 169.518429 48.946765 
L 169.580267 49.814924 
L 169.642104 49.368182 
L 169.703941 49.059099 
L 169.827616 47.91822 
L 170.074966 51.814871 
L 170.136803 49.947388 
L 170.198641 50.298677 
L 170.260478 50.528541 
L 170.322315 49.523373 
L 170.384153 49.668824 
L 170.507828 50.405168 
L 170.569665 50.901259 
L 170.631502 50.388285 
L 170.69334 50.417505 
L 170.755177 50.793469 
L 170.878852 52.521346 
L 171.064364 50.837624 
L 171.126201 51.003204 
L 171.188039 51.58176 
L 171.373551 50.381143 
L 171.435388 50.420103 
L 171.497226 51.986945 
L 171.559063 50.799963 
L 171.620901 50.311664 
L 171.682738 52.221354 
L 171.744575 51.956426 
L 171.806413 51.777859 
L 171.930088 55.27517 
L 171.991925 53.535605 
L 172.053762 53.87196 
L 172.1156 53.629109 
L 172.177437 54.079747 
L 172.239275 53.872609 
L 172.301112 53.892739 
L 172.362949 53.26743 
L 172.424787 53.664823 
L 172.486624 53.604435 
L 172.672136 52.590176 
L 172.795811 53.586253 
L 172.857648 53.095357 
L 173.043161 55.124525 
L 173.166835 54.419998 
L 173.352348 55.549189 
L 173.476022 55.203094 
L 173.53786 55.558929 
L 173.599697 55.319974 
L 173.723372 54.803104 
L 173.785209 54.938815 
L 173.908884 53.902479 
L 173.970721 54.068708 
L 174.094396 54.85635 
L 174.156234 53.829104 
L 174.218071 54.655056 
L 174.279908 53.255742 
L 174.341746 53.751184 
L 174.403583 53.758976 
L 174.465421 53.945984 
L 174.527258 52.711601 
L 174.589095 52.791469 
L 174.71277 54.898556 
L 174.774608 53.904427 
L 174.836445 54.201172 
L 174.898282 55.106343 
L 174.96012 54.851804 
L 175.021957 54.151823 
L 175.083794 54.211561 
L 175.145632 54.55441 
L 175.269307 53.630408 
L 175.331144 53.990139 
L 175.392981 54.195977 
L 175.454819 54.131693 
L 175.516656 53.832351 
L 175.578494 54.207016 
L 175.640331 59.294545 
L 175.702168 58.00367 
L 175.825843 59.499734 
L 175.887681 58.934814 
L 176.073193 56.904997 
L 176.13503 57.310831 
L 176.196867 56.871232 
L 176.38238 59.030266 
L 176.444217 58.25626 
L 176.629729 58.671834 
L 176.691567 58.503007 
L 176.753404 57.965359 
L 176.938916 60.181534 
L 177.000754 58.547162 
L 177.062591 58.980917 
L 177.124428 59.594537 
L 177.186266 61.909411 
L 177.248103 61.432151 
L 177.433615 60.073096 
L 177.55729 60.517889 
L 177.619127 60.193872 
L 177.928314 62.657443 
L 177.990152 62.308102 
L 178.051989 60.899697 
L 178.113827 61.159431 
L 178.175664 61.399035 
L 178.237501 61.213326 
L 178.299339 61.030213 
L 178.423014 59.458177 
L 178.608526 60.052317 
L 178.670363 60.018552 
L 178.794038 61.493838 
L 178.855875 60.749052 
L 178.917713 63.054186 
L 178.97955 61.799024 
L 179.041387 61.912008 
L 179.103225 62.775622 
L 179.165062 61.225014 
L 179.2269 61.654223 
L 179.350574 64.447656 
L 179.412412 64.271687 
L 179.536087 63.607418 
L 179.597924 64.294413 
L 179.659761 63.754817 
L 179.721599 63.486642 
L 179.907111 65.594379 
L 179.968948 66.761232 
L 180.030786 66.259946 
L 180.15446 64.363243 
L 180.339973 66.116443 
L 180.40181 67.624845 
L 180.525485 65.302179 
L 180.710997 67.361216 
L 180.772834 67.148884 
L 180.834672 65.715805 
L 180.896509 65.782037 
L 181.082021 66.917721 
L 181.267534 69.61765 
L 181.453046 67.291737 
L 181.57672 68.759231 
L 181.638558 68.638455 
L 181.700395 68.692999 
L 181.82407 70.298801 
L 181.947745 71.035795 
L 182.009582 70.184518 
L 182.07142 70.664376 
L 182.195094 72.477315 
L 182.318769 71.75201 
L 182.442444 72.420823 
L 182.504281 71.687076 
L 182.689794 74.579857 
L 182.813468 75.869434 
L 182.937143 75.690867 
L 182.99898 75.757748 
L 183.122655 80.755669 
L 183.184493 79.411549 
L 183.24633 80.235553 
L 183.308167 79.558298 
L 183.431842 81.514091 
L 183.617354 78.196645 
L 183.864704 84.1361 
L 183.926541 83.199761 
L 183.988379 81.736812 
L 184.050216 81.893302 
L 184.173891 84.566608 
L 184.235728 84.533492 
L 184.297566 83.182229 
L 184.544915 86.825639 
L 184.606753 87.12758 
L 184.66859 86.555517 
L 184.977777 93.466374 
L 185.039614 93.347546 
L 185.101452 92.480686 
L 185.348801 95.195549 
L 185.534313 96.213055 
L 185.596151 99.871401 
L 185.657988 99.140251 
L 185.8435 100.9928 
L 185.905338 101.420061 
L 186.029013 106.69265 
L 186.09085 105.044641 
L 187.018411 124.577894 
L 187.203923 130.562802 
L 187.636785 144.52672 
L 187.698622 148.412333 
L 187.76046 148.391554 
L 187.822297 148.803231 
L 188.316996 167.185865 
L 188.626183 176.292769 
L 188.997207 183.532838 
L 189.120882 181.56341 
L 189.306394 189.787869 
L 189.430069 191.072251 
L 189.615581 197.896746 
L 189.677419 197.148714 
L 189.862931 201.340163 
L 189.986606 202.217412 
L 190.048443 201.326526 
L 190.11028 203.652439 
L 190.172118 200.846669 
L 190.233955 203.169985 
L 190.481305 193.106613 
L 190.604979 193.73322 
L 190.666817 194.021524 
L 190.976004 179.127759 
L 191.099679 179.178407 
L 191.161516 178.99075 
L 191.223353 176.651201 
L 191.285191 177.240796 
L 191.347028 176.780418 
L 191.656215 160.619155 
L 191.718053 162.073013 
L 191.903565 150.186961 
L 192.398264 127.07588 
L 192.460101 128.501817 
L 192.707451 122.079908 
L 192.769288 122.370809 
L 193.387662 95.315676 
L 193.635012 90.398273 
L 193.820524 85.56853 
L 193.882361 87.912624 
L 193.944199 87.541854 
L 194.067873 83.166645 
L 194.129711 83.871821 
L 194.191548 83.757538 
L 194.438898 71.657856 
L 194.500735 71.570196 
L 194.871759 61.697079 
L 194.933597 61.932138 
L 194.995434 61.39384 
L 195.057272 62.317193 
L 195.119109 61.39384 
L 195.180946 62.793803 
L 195.242784 62.212001 
L 195.366459 59.560772 
L 195.428296 60.034136 
L 195.490133 60.37114 
L 195.984832 49.949985 
L 196.04667 51.588254 
L 196.108507 51.025282 
L 196.294019 49.04871 
L 196.355857 49.155201 
L 196.479532 47.809132 
L 196.541369 48.382494 
L 196.665044 51.423972 
L 196.788719 51.305144 
L 196.850556 51.923959 
L 196.912393 51.489555 
L 197.097906 48.145487 
L 197.159743 49.921414 
L 197.22158 49.512984 
L 197.283418 49.27273 
L 197.839954 57.127719 
L 197.901792 62.697702 
L 197.963629 60.232182 
L 198.149141 62.963929 
L 198.334653 65.22361 
L 198.396491 64.398307 
L 199.262214 94.50336 
L 199.447726 105.589432 
L 199.880588 131.097853 
L 199.942425 131.257589 
L 200.437125 168.741669 
L 200.498962 169.815017 
L 201.117336 199.366838 
L 201.179173 198.207128 
L 201.241011 198.881786 
L 201.302848 202.762203 
L 201.364685 201.246658 
L 201.426523 198.242841 
L 201.550198 201.181725 
L 201.73571 195.879267 
L 201.859385 192.178715 
L 201.921222 199.168142 
L 202.106734 180.908881 
L 202.168572 179.856312 
L 202.477758 162.235995 
L 202.601433 154.879046 
L 202.663271 155.860838 
L 203.096132 128.55766 
L 203.15797 128.98557 
L 203.652669 96.82213 
L 203.900018 93.459881 
L 204.209205 79.093375 
L 204.394718 73.706504 
L 204.58023 65.282699 
L 204.642067 65.98333 
L 205.198604 52.649265 
L 205.260441 52.22525 
L 205.322278 52.703809 
L 205.507791 49.819469 
L 205.693303 48.001335 
L 205.878815 45.90204 
L 205.940652 46.275406 
L 206.00249 45.398157 
L 206.064327 46.663708 
L 206.126165 46.552023 
L 206.311677 45.345561 
L 206.559026 53.013541 
L 206.682701 52.463555 
L 206.991888 59.823752 
L 207.1774 63.474954 
L 207.239238 62.726273 
L 208.537823 133.886091 
L 209.156197 176.230433 
L 209.341709 182.036774 
L 209.712733 199.949939 
L 209.774571 199.984354 
L 209.836408 201.887551 
L 209.898245 200.957056 
L 209.960083 199.292814 
L 210.02192 201.03043 
L 210.083758 200.929134 
L 210.392944 191.825477 
L 210.454782 193.324139 
L 210.578457 189.980721 
L 210.640294 182.260144 
L 210.702131 182.752339 
L 210.825806 176.182382 
L 211.320505 143.187145 
L 211.815204 113.184687 
L 212.742765 65.300231 
L 212.804603 64.803491 
L 213.175627 54.175848 
L 213.422977 50.514256 
L 213.484814 50.884376 
L 213.794001 47.339664 
L 213.979513 48.331846 
L 214.103188 48.095488 
L 214.474212 58.084836 
L 214.53605 57.393945 
L 214.721562 61.973695 
L 214.783399 63.374957 
L 215.092586 77.0233 
L 215.216261 82.56731 
L 215.834635 134.039334 
L 216.576684 197.27988 
L 216.638521 197.199362 
L 216.88587 209.276967 
L 216.947708 208.274396 
L 217.504244 193.199467 
L 217.689757 170.624736 
L 217.751594 173.286354 
L 217.875269 166.123556 
L 218.122618 142.752741 
L 218.184456 141.782637 
L 218.431805 120.889679 
L 218.493643 120.935133 
L 218.864667 94.187784 
L 218.988342 91.921609 
L 219.235691 79.307006 
L 219.668553 61.765259 
L 219.73039 62.960033 
L 219.97774 55.422569 
L 220.163252 52.301871 
L 220.286927 52.014217 
L 220.348764 49.849988 
L 220.410602 50.731783 
L 220.596114 47.71368 
L 220.719789 47.946791 
L 220.781626 47.776666 
L 221.64735 78.829096 
L 221.956537 100.671379 
L 222.203886 123.873367 
L 223.316959 233.443864 
L 223.378796 232.528953 
L 223.440634 235.089276 
L 223.502471 232.551031 
L 223.564309 233.29192 
L 223.626146 233.110756 
L 223.811658 230.131614 
L 224.059008 211.321069 
L 224.120845 209.417872 
L 224.924731 130.309562 
L 225.048406 120.758514 
L 225.975967 66.356697 
L 226.346991 56.40501 
L 226.656178 53.594045 
L 226.718016 52.077202 
L 226.779853 53.192108 
L 226.903528 52.233691 
L 227.08904 53.55054 
L 227.274552 57.741988 
L 228.078438 97.002645 
L 228.5113 135.158785 
L 229.315186 217.679993 
L 229.562536 227.035591 
L 229.624373 226.395348 
L 229.68621 227.41675 
L 229.748048 226.706379 
L 230.119072 207.034818 
L 230.428259 178.738808 
L 231.850519 77.316149 
L 231.912356 77.08174 
L 232.283381 59.993877 
L 232.468893 56.172549 
L 232.716242 53.21938 
L 232.77808 52.993412 
L 233.087267 49.383117 
L 233.149104 52.805754 
L 233.210942 51.477867 
L 233.272779 50.857104 
L 233.334616 51.146058 
L 233.396454 51.518126 
L 233.458291 51.09476 
L 233.767478 53.411583 
L 234.756876 102.433671 
L 235.127901 133.619215 
L 235.37525 156.9699 
L 235.746275 185.65551 
L 236.117299 202.016768 
L 236.179136 204.518001 
L 236.240974 202.943367 
L 236.302811 202.59987 
L 236.611998 190.689144 
L 236.735673 184.384115 
L 237.168535 154.009588 
L 237.230372 150.827854 
L 237.415884 128.466104 
L 238.528957 68.685856 
L 238.590795 69.072859 
L 238.838144 60.025045 
L 239.332843 48.88313 
L 239.394681 50.180499 
L 239.456518 49.480517 
L 239.518355 48.23055 
L 239.64203 51.677213 
L 239.703868 51.442803 
L 239.765705 50.635032 
L 239.951217 52.292131 
L 240.074892 54.336883 
L 240.507754 65.861255 
L 240.693266 72.41433 
L 241.682664 139.13855 
L 241.868176 158.108182 
L 241.930014 160.101636 
L 242.177363 181.977035 
L 242.239201 182.32248 
L 242.610225 201.397953 
L 242.672062 198.083105 
L 242.7339 200.688881 
L 242.795737 200.7681 
L 243.104924 187.945709 
L 243.166761 189.167106 
L 243.599623 160.676945 
L 244.712696 84.971143 
L 245.57842 53.992087 
L 245.640257 56.423841 
L 245.825769 52.163563 
L 245.887607 52.05967 
L 246.073119 50.940219 
L 246.134956 51.87461 
L 246.196794 51.341507 
L 246.258631 51.651888 
L 246.320468 50.340235 
L 246.382306 51.213588 
L 246.938842 58.784818 
L 247.619054 89.174279 
L 247.866403 105.571251 
L 249.041314 191.830672 
L 249.350501 204.721242 
L 249.59785 193.365697 
L 249.659687 194.031264 
L 249.8452 186.921061 
L 249.907037 185.958099 
L 250.154387 169.652684 
L 250.710923 131.902377 
L 250.896435 118.068325 
L 251.081947 108.510784 
L 251.329297 94.944257 
L 251.762159 74.098701 
L 252.071346 62.703546 
L 252.627882 52.827182 
L 252.68972 52.864844 
L 252.751557 52.589526 
L 252.998907 46.762407 
L 253.122581 49.167538 
L 253.184419 48.730537 
L 253.308094 50.305171 
L 253.740955 56.475788 
L 253.802793 55.57711 
L 254.297492 71.401369 
L 254.792191 95.353337 
L 255.53424 152.951824 
L 255.596077 152.826502 
L 255.967101 185.846414 
L 256.028939 183.444529 
L 256.214451 197.053912 
L 256.276288 196.020822 
L 256.523638 202.224555 
L 256.585475 201.059001 
L 256.770987 195.449408 
L 257.327524 162.622349 
L 258.316922 92.293678 
L 258.502434 87.752888 
L 258.811621 70.179973 
L 259.182646 60.321791 
L 259.244483 59.779597 
L 259.55367 51.129824 
L 259.615507 50.244783 
L 259.677345 50.438284 
L 259.739182 50.829832 
L 259.924694 48.711057 
L 260.048369 49.046113 
L 260.110206 51.575916 
L 260.172044 51.064242 
L 260.295719 50.797365 
L 260.914093 63.06003 
L 261.099605 72.749386 
L 261.470629 86.81525 
L 261.903491 117.565091 
L 262.089003 126.505765 
L 263.140239 190.806024 
L 263.202076 189.98137 
L 263.5731 200.799268 
L 263.696775 197.611689 
L 263.82045 201.616129 
L 263.944125 193.998148 
L 264.005962 193.035186 
L 264.191474 176.965478 
L 264.253312 176.313547 
L 264.686173 146.116289 
L 265.366385 99.172718 
L 265.428222 99.505826 
L 265.737409 80.763461 
L 265.984759 71.240984 
L 266.293946 61.400983 
L 266.479458 58.301064 
L 266.541295 58.798454 
L 266.788645 52.199926 
L 266.850482 52.352519 
L 266.912319 50.786327 
L 266.974157 51.588254 
L 267.035994 50.573345 
L 267.097832 50.876584 
L 267.159669 50.853858 
L 267.283344 52.201874 
L 267.407019 52.065514 
L 267.778043 60.539317 
L 267.83988 60.290623 
L 267.901718 60.605549 
L 268.396417 79.502455 
L 269.014791 113.668441 
L 269.200303 128.661553 
L 270.189701 194.787737 
L 270.375213 199.711634 
L 270.437051 198.11752 
L 270.498888 199.08243 
L 270.622563 203.527767 
L 270.808075 198.833086 
L 270.869912 198.859059 
L 271.055425 194.105288 
L 271.117262 192.35858 
L 271.302774 183.049085 
L 271.550124 175.138903 
L 271.673799 166.731332 
L 271.982985 145.879932 
L 272.044823 144.825414 
L 273.281571 86.60097 
L 273.343408 86.171111 
L 273.714432 72.098754 
L 273.77627 71.969536 
L 274.827505 50.768145 
L 274.95118 50.386337 
L 275.19853 48.157175 
L 275.384042 52.386285 
L 275.445879 52.908349 
L 275.569554 51.243458 
L 275.631392 53.23821 
L 275.693229 52.51745 
L 275.755066 53.520021 
L 275.816904 58.462748 
L 275.878741 58.333531 
L 275.940578 58.781571 
L 276.62079 78.865459 
L 276.868139 90.183993 
L 276.991814 94.743613 
L 277.177326 107.230947 
L 277.301001 112.254841 
L 277.486513 130.37904 
L 277.548351 129.07323 
L 278.475911 187.067161 
L 278.599586 190.018382 
L 278.846936 202.598571 
L 278.908773 199.501899 
L 278.970611 202.019365 
L 279.032448 200.94277 
L 279.156123 203.069338 
L 279.279798 200.829786 
L 279.341635 201.305098 
L 279.588985 188.484007 
L 279.650822 191.048225 
L 279.712659 189.667093 
L 279.774497 189.833322 
L 279.960009 178.258951 
L 280.021846 179.839429 
L 280.207358 168.966338 
L 280.269196 169.435806 
L 280.392871 159.067897 
L 280.763895 133.373117 
L 281.011245 123.507143 
L 281.320431 109.571795 
L 281.382269 107.7647 
L 281.567781 98.812337 
L 281.629618 98.200016 
L 281.876968 84.872444 
L 282.371667 71.970186 
L 282.433504 72.220828 
L 282.804529 62.301609 
L 283.113716 56.474489 
L 283.175553 56.325142 
L 283.237391 57.353037 
L 283.299228 57.118628 
L 283.546578 51.985646 
L 283.608415 52.08889 
L 283.670252 51.975257 
L 283.793927 49.607786 
L 283.855764 49.73051 
L 283.917602 52.070059 
L 283.979439 50.381792 
L 284.041277 51.514879 
L 284.103114 50.825287 
L 284.164951 49.841546 
L 284.226789 51.714874 
L 284.288626 51.468127 
L 284.350464 51.483062 
L 284.597813 53.234964 
L 284.659651 53.196653 
L 284.783325 53.744691 
L 285.15435 62.022395 
L 285.216187 61.300986 
L 285.401699 64.887255 
L 285.525374 68.065094 
L 285.587211 69.592326 
L 285.649049 69.412461 
L 285.710886 69.48129 
L 285.772724 70.692947 
L 286.081911 82.428352 
L 286.57661 102.877815 
L 287.009471 127.352496 
L 287.071309 128.535582 
L 287.442333 147.527291 
L 287.875195 169.563725 
L 287.937032 179.368662 
L 287.99887 177.757016 
L 288.493569 195.94485 
L 288.555406 192.899475 
L 288.740918 200.472003 
L 288.802756 200.068118 
L 288.92643 204.478392 
L 288.988268 200.040846 
L 289.050105 202.615454 
L 289.111943 201.296657 
L 289.17378 202.419355 
L 289.297455 195.742258 
L 289.359292 196.933785 
L 289.482967 194.211129 
L 289.544804 195.464992 
L 289.977666 178.955036 
L 290.039504 179.617357 
L 290.286853 166.87938 
L 290.410528 160.649024 
L 290.59604 150.770712 
L 291.832788 97.041605 
L 292.080137 88.935974 
L 292.26565 83.660138 
L 292.822186 70.395552 
L 293.069536 61.923047 
L 293.316885 57.95432 
L 293.44056 58.493267 
L 293.502397 58.496514 
L 293.873422 52.590176 
L 293.935259 53.892089 
L 293.997097 53.044709 
L 294.058934 52.340182 
L 294.120771 52.419401 
L 294.182609 52.864844 
L 294.244446 51.283067 
L 294.306283 51.362286 
L 294.368121 53.273924 
L 294.429958 52.666797 
L 294.491796 52.472646 
L 294.61547 51.491503 
L 294.677308 51.666823 
L 294.739145 52.177849 
L 294.800983 51.541502 
L 294.86282 51.742795 
L 294.924657 51.994087 
L 294.986495 51.627214 
L 295.048332 52.03045 
L 295.11017 51.846689 
L 295.172007 53.821961 
L 295.233844 53.672615 
L 295.295682 53.408985 
L 296.779779 82.262123 
L 297.274478 104.531668 
L 297.521828 120.115024 
L 297.645503 126.310965 
L 297.95469 141.311221 
L 298.758576 185.790571 
L 298.820413 184.386063 
L 299.005925 195.991602 
L 299.253275 201.32328 
L 299.315112 199.29606 
L 299.438787 201.447952 
L 299.500624 200.630441 
L 299.624299 202.066767 
L 299.686136 200.392135 
L 299.871649 192.00794 
L 299.933486 193.573483 
L 300.428185 167.490403 
L 300.490023 169.522168 
L 301.170234 128.073257 
L 301.232071 128.78103 
L 301.355746 118.860512 
L 301.541258 109.969187 
L 301.72677 104.793349 
L 301.850445 95.926699 
L 301.912283 97.851973 
L 302.901681 65.161923 
L 303.334542 58.579629 
L 303.39638 58.331583 
L 303.581892 53.413531 
L 303.705567 53.869363 
L 304.138429 50.001283 
L 304.200266 50.370753 
L 304.262103 49.986348 
L 304.323941 50.99736 
L 304.385778 50.232445 
L 304.447616 51.119435 
L 304.509453 50.770743 
L 304.81864 53.181069 
L 304.880477 56.647212 
L 304.942315 55.658277 
L 305.004152 55.003099 
L 305.189664 58.87053 
L 305.251502 59.032863 
L 306.488249 110.080872 
L 306.797436 134.949699 
L 306.921111 137.522359 
L 307.353973 167.159892 
L 307.477648 174.58632 
L 307.539485 173.018829 
L 307.786835 189.275544 
L 307.848672 188.493098 
L 308.034184 194.446837 
L 308.157859 198.542833 
L 308.343371 202.231048 
L 308.405209 202.108324 
L 308.528883 203.220633 
L 308.652558 198.577248 
L 308.714395 199.574624 
L 309.023582 188.124276 
L 309.08542 186.191859 
L 309.270932 179.240094 
L 309.332769 177.134954 
L 309.518282 167.038467 
L 309.889306 150.89019 
L 310.26033 127.392106 
L 310.322168 127.927157 
L 310.445842 121.725372 
L 310.693192 109.438682 
L 310.816867 107.348477 
L 311.064216 96.533177 
L 311.126054 96.348116 
L 311.373403 86.996414 
L 311.806265 71.681882 
L 311.868102 71.126052 
L 311.92994 71.581235 
L 312.300964 63.141846 
L 312.362802 62.405502 
L 312.424639 63.046394 
L 312.548314 60.330881 
L 312.610151 58.593265 
L 312.671988 58.612745 
L 312.733826 58.595213 
L 312.857501 55.519319 
L 312.919338 56.601758 
L 312.981175 55.891387 
L 313.228525 51.210342 
L 313.3522 52.510307 
L 313.414037 51.510334 
L 313.475875 51.741497 
L 313.537712 51.951881 
L 313.599549 52.799261 
L 313.785062 50.709705 
L 313.846899 50.78308 
L 313.908736 51.010347 
L 314.032411 51.792145 
L 314.094248 50.262964 
L 314.156086 50.735679 
L 314.217923 51.563579 
L 314.279761 50.918791 
L 314.465273 53.707029 
L 314.77446 60.13673 
L 314.836297 59.891282 
L 315.021809 62.846399 
L 315.083647 62.790557 
L 315.330996 66.830061 
L 315.516508 69.983225 
L 316.382232 95.578656 
L 316.567744 102.829764 
L 316.629581 102.098615 
L 316.691419 102.790155 
L 316.938768 118.55013 
L 317.000606 117.796903 
L 317.062443 118.315721 
L 317.309793 134.380883 
L 317.37163 133.54584 
L 317.866329 155.755646 
L 318.051841 164.977482 
L 318.113679 165.871614 
L 318.299191 174.93696 
L 318.361028 174.066204 
L 318.422866 175.082411 
L 318.608378 187.065862 
L 318.670215 184.674367 
L 318.917565 195.571483 
L 318.979402 194.963707 
L 319.288589 202.058325 
L 319.350427 201.978457 
L 319.474101 202.295332 
L 319.659614 205.684854 
L 319.968801 203.805033 
L 320.030638 206.875731 
L 320.092475 205.630959 
L 320.339825 195.096171 
L 320.401662 193.866982 
L 320.4635 196.15913 
L 320.587174 190.539797 
L 320.710849 193.714389 
L 320.834524 185.647718 
L 320.896361 185.923685 
L 321.020036 181.858856 
L 321.63841 161.499651 
L 321.700247 162.44573 
L 321.762085 163.250254 
L 321.947597 153.226492 
L 322.009434 152.3908 
L 322.071272 152.881046 
L 322.256784 144.299454 
L 322.318621 144.900087 
L 322.627808 130.042686 
L 322.689646 130.156968 
L 322.875158 121.057857 
L 323.246182 106.118639 
L 323.431694 99.668159 
L 323.679044 95.858519 
L 323.740881 97.303286 
L 324.050068 84.110776 
L 324.111906 84.232201 
L 324.173743 83.756889 
L 324.359255 76.076571 
L 324.421093 75.762943 
L 324.48293 76.06813 
L 324.792117 70.521522 
L 324.853954 70.882552 
L 325.224979 63.880788 
L 325.286816 63.759363 
L 325.410491 61.917852 
L 325.719678 56.949152 
L 325.90519 56.721885 
L 326.090702 54.697263 
L 326.15254 54.529735 
L 326.461727 52.038242 
L 326.523564 51.61098 
L 326.709076 50.06232 
L 326.770914 49.846092 
L 326.832751 49.094163 
L 326.894588 49.968167 
L 327.018263 48.44483 
L 327.0801 48.90261 
L 327.265613 50.327897 
L 327.389287 51.854481 
L 327.451125 51.60189 
L 327.512962 50.730484 
L 327.5748 51.3967 
L 327.760312 54.82648 
L 327.883987 53.015489 
L 328.069499 54.383635 
L 328.131336 53.649239 
L 328.193174 53.714172 
L 328.316848 54.61285 
L 328.564198 58.640666 
L 328.74971 61.344491 
L 328.811547 60.921775 
L 328.873385 59.780896 
L 329.058897 62.127587 
L 329.182572 63.767155 
L 329.553596 67.968992 
L 329.800946 74.767515 
L 330.110133 78.200541 
L 330.17197 77.221996 
L 330.790344 86.363314 
L 331.285043 97.946126 
L 331.408718 107.734181 
L 331.470555 106.901735 
L 331.59423 103.491435 
L 331.656067 105.70826 
L 331.84158 115.176193 
L 331.965254 113.021704 
L 332.027092 113.537924 
L 332.150767 124.857757 
L 332.212604 124.681138 
L 332.336279 125.568777 
L 332.398116 126.911599 
L 332.583628 133.589995 
L 332.707303 132.919883 
L 332.892815 140.787858 
L 333.01649 139.629447 
L 333.078327 140.252807 
L 333.944051 169.447494 
L 334.253238 178.519983 
L 334.376913 187.230793 
L 334.43875 186.575615 
L 334.562425 190.774206 
L 334.624262 187.859348 
L 334.871612 198.503224 
L 334.933449 198.249335 
L 334.995286 199.825917 
L 335.057124 198.198037 
L 335.118961 199.601247 
L 335.180799 199.097364 
L 335.242636 205.682256 
L 335.304473 203.114791 
L 335.366311 202.078455 
L 335.551823 210.740565 
L 335.984685 222.286365 
L 336.046522 219.148785 
L 336.108359 221.508464 
L 336.232034 225.681731 
L 336.293872 225.510307 
L 336.355709 222.901284 
L 336.417546 224.627862 
L 336.603059 231.428982 
L 336.664896 230.034214 
L 336.726733 231.43093 
L 336.788571 228.717365 
L 336.850408 229.870582 
L 336.974083 233.210754 
L 337.03592 231.282233 
L 337.159595 238.102183 
L 337.28327 233.279583 
L 337.345107 234.283453 
L 337.530619 238.922941 
L 337.592457 238.156727 
L 337.716132 241.115741 
L 337.777969 240.320956 
L 337.839806 240.646922 
L 337.901644 240.607962 
L 337.963481 242.116364 
L 338.025319 241.465731 
L 338.087156 240.481991 
L 338.148993 241.208595 
L 338.210831 241.341059 
L 338.272668 241.792346 
L 338.45818 239.85928 
L 338.581855 242.05208 
L 338.643693 240.439135 
L 338.70553 240.848864 
L 338.829205 240.051483 
L 338.891042 240.0833 
L 339.014717 236.114573 
L 339.138392 237.120391 
L 339.385741 241.076131 
L 339.571253 235.882112 
L 339.633091 235.459396 
L 339.818603 236.758712 
L 339.942278 233.284778 
L 340.065952 234.675001 
L 340.12779 231.862088 
L 340.189627 232.45428 
L 340.251465 232.449085 
L 340.375139 233.760739 
L 340.622489 225.530436 
L 340.684326 227.499865 
L 340.746164 230.783545 
L 340.931676 224.450594 
L 341.055351 221.996763 
L 341.117188 223.264911 
L 341.179026 222.390908 
L 341.240863 220.656538 
L 341.3027 222.472075 
L 341.364538 221.038346 
L 341.673725 214.204759 
L 341.735562 211.026921 
L 341.797399 211.53405 
L 341.921074 211.789239 
L 342.044749 208.349069 
L 342.106586 208.378939 
L 342.168424 209.581504 
L 342.415773 204.484236 
L 342.477611 204.35307 
L 343.034147 190.637846 
L 343.095985 190.589146 
L 343.157822 190.190456 
L 343.467009 179.55567 
L 343.528846 178.812183 
L 343.590684 179.512814 
L 343.838033 174.606449 
L 343.961708 176.803794 
L 344.14722 172.343522 
L 344.270895 171.22472 
L 344.332732 174.624631 
L 344.39457 173.962311 
L 344.456407 173.067529 
L 344.580082 175.739537 
L 344.641919 175.613566 
L 344.765594 173.562321 
L 344.827432 173.950623 
L 344.951106 173.997375 
L 345.198456 171.408482 
L 345.260293 168.570244 
L 345.445805 172.292225 
L 345.631318 165.843693 
L 345.693155 166.609257 
L 345.81683 168.200124 
L 346.002342 163.998287 
L 346.064179 164.16062 
L 346.126017 165.196956 
L 346.187854 164.591778 
L 346.249692 164.083349 
L 346.435204 159.151011 
L 346.497041 160.06852 
L 346.620716 160.717204 
L 347.795626 128.724538 
L 347.857464 130.278394 
L 348.042976 124.190242 
L 348.104813 124.228553 
L 348.166651 124.93308 
L 348.537675 114.413875 
L 348.599512 116.211231 
L 348.66135 113.070404 
L 348.723187 114.919057 
L 349.156049 108.8361 
L 349.341561 113.639221 
L 349.527073 110.196454 
L 349.650748 108.43676 
L 349.774423 111.446421 
L 349.83626 109.549718 
L 349.898098 110.152948 
L 349.959935 111.142533 
L 350.207285 106.203052 
L 350.269122 108.438708 
L 350.330959 108.167936 
L 350.392797 104.418034 
L 350.454634 106.252402 
L 350.516472 105.229701 
L 350.578309 106.827062 
L 350.640146 104.944644 
L 350.701984 106.212792 
L 350.825658 102.721975 
L 350.887496 103.386243 
L 350.949333 103.374555 
L 351.134845 100.38827 
L 351.196683 100.425931 
L 351.25852 101.44019 
L 351.320358 101.01163 
L 351.444032 101.788233 
L 351.50587 101.690184 
L 351.567707 97.107837 
L 351.629545 99.418815 
L 351.753219 100.163601 
L 351.876894 103.240143 
L 351.938731 102.586264 
L 352.062406 101.007734 
L 352.124244 98.847401 
L 352.186081 99.583096 
L 352.247918 101.190846 
L 352.371593 97.959762 
L 352.433431 98.359103 
L 352.495268 99.266871 
L 352.618943 96.398764 
L 352.68078 96.433829 
L 352.804455 97.33835 
L 352.866292 96.838363 
L 353.237317 93.485854 
L 353.299154 90.60606 
L 353.360991 93.172875 
L 353.546504 89.196356 
L 353.608341 90.842417 
L 353.670178 89.570373 
L 353.732016 89.390507 
L 353.793853 89.862573 
L 353.855691 88.209369 
L 353.917528 89.506738 
L 353.979365 89.752186 
L 354.164878 87.006154 
L 354.412227 93.103397 
L 354.474064 93.116383 
L 354.535902 92.715095 
L 354.597739 92.775483 
L 354.721414 95.777352 
L 354.845089 95.586448 
L 354.906926 93.657927 
L 354.968764 93.698186 
L 355.030601 93.383259 
L 355.092438 90.998906 
L 355.154276 92.527438 
L 355.216113 92.507958 
L 355.401625 90.511906 
L 355.587138 93.039113 
L 355.648975 93.796885 
L 355.77265 92.433934 
L 355.834487 92.727432 
L 355.958162 91.537853 
L 356.205511 95.142953 
L 356.267349 92.676135 
L 356.452861 96.613045 
L 356.514698 94.322845 
L 356.576536 94.748159 
L 356.638373 94.289729 
L 356.823885 98.355207 
L 356.885723 97.875998 
L 356.94756 99.507774 
L 357.009398 98.840908 
L 357.071235 98.665588 
L 357.133072 100.194769 
L 357.19491 98.424036 
L 357.318584 101.464216 
L 357.504097 98.603901 
L 357.627771 97.420816 
L 357.689609 97.661718 
L 357.875121 100.007761 
L 358.184308 96.455257 
L 358.246145 94.156616 
L 358.307983 95.685147 
L 358.431657 99.001943 
L 358.555332 95.641642 
L 358.61717 98.255209 
L 358.679007 96.442919 
L 358.740844 96.372142 
L 358.802682 95.040359 
L 358.864519 95.422167 
L 358.926357 95.921504 
L 358.988194 94.939063 
L 359.235544 96.999398 
L 359.421056 95.060488 
L 359.482893 96.190978 
L 359.544731 96.076695 
L 359.606568 96.332532 
L 359.730243 94.328689 
L 359.79208 94.49362 
L 359.853917 95.578007 
L 359.977592 91.795639 
L 360.03943 92.844962 
L 360.163104 94.498814 
L 360.224942 93.208589 
L 360.286779 93.248847 
L 360.348617 93.620266 
L 360.410454 92.605358 
L 360.472291 93.580657 
L 360.534129 92.56445 
L 360.657804 94.972828 
L 360.843316 101.227209 
L 361.338015 91.234614 
L 361.46169 94.020905 
L 361.523527 93.974802 
L 361.585364 94.402064 
L 361.647202 94.06506 
L 361.832714 92.306664 
L 361.894551 93.874156 
L 361.956389 92.182642 
L 362.018226 93.564423 
L 362.080064 93.189758 
L 362.38925 88.078853 
L 362.451088 88.607411 
L 362.6366 88.233395 
L 362.698437 88.869742 
L 362.760275 87.465882 
L 362.822112 89.077528 
L 362.88395 86.625645 
L 362.945787 87.929507 
L 363.069462 86.014622 
L 363.131299 86.170462 
L 363.193137 87.726265 
L 363.254974 87.479518 
L 363.378649 86.450325 
L 363.440486 87.558737 
L 363.502324 86.700967 
L 363.625998 87.491206 
L 363.81151 84.389989 
L 363.997023 87.363937 
L 364.120697 85.025037 
L 364.182535 87.566529 
L 364.244372 87.114593 
L 364.368047 87.928857 
L 364.429884 87.362638 
L 364.553559 84.432196 
L 364.615397 86.06462 
L 364.677234 85.531518 
L 364.739071 85.086724 
L 364.862746 86.723694 
L 364.986421 83.734812 
L 365.048258 84.017272 
L 365.110096 83.257551 
L 365.171933 85.384119 
L 365.23377 85.330874 
L 365.295608 85.617879 
L 365.48112 83.922469 
L 365.604795 84.838029 
L 365.666632 82.663411 
L 365.72847 83.165346 
L 365.790307 84.961403 
L 365.852144 83.761434 
L 365.975819 84.625697 
L 366.037657 82.719254 
L 366.099494 84.965948 
L 366.161331 83.741954 
L 366.223169 82.888081 
L 366.285006 83.312095 
L 366.408681 83.719877 
L 366.594193 82.209527 
L 366.65603 82.30368 
L 366.717868 86.059426 
L 366.779705 84.836081 
L 366.841543 85.479571 
L 366.965217 83.295862 
L 367.088892 83.578322 
L 367.15073 82.666658 
L 367.212567 84.17506 
L 367.274404 83.388067 
L 367.336242 83.166645 
L 367.398079 81.721228 
L 367.459917 82.19654 
L 367.521754 82.36277 
L 367.645429 83.248461 
L 367.707266 83.181579 
L 367.769103 82.682891 
L 367.954616 85.180228 
L 368.07829 83.675722 
L 368.263803 85.486714 
L 368.32564 85.57827 
L 368.387477 84.784135 
L 368.449315 85.182176 
L 368.57299 86.413962 
L 368.758502 80.692684 
L 368.820339 81.91473 
L 368.882176 81.588115 
L 369.005851 83.106906 
L 369.067689 83.017947 
L 369.129526 81.079687 
L 369.191363 81.234877 
L 369.315038 82.850419 
L 369.376876 81.532272 
L 369.438713 82.624451 
L 369.50055 82.41082 
L 369.562388 82.716007 
L 369.624225 84.536739 
L 369.686063 82.727046 
L 369.7479 82.975741 
L 369.809737 82.905613 
L 369.871575 83.095218 
L 369.933412 82.44069 
L 369.99525 82.551726 
L 370.057087 83.710137 
L 370.118924 83.440014 
L 370.242599 82.257578 
L 370.304436 82.510168 
L 370.366274 81.780317 
L 370.428111 84.793225 
L 370.613623 79.290123 
L 370.675461 81.839407 
L 370.737298 81.663437 
L 370.984648 79.682321 
L 371.046485 81.118647 
L 371.108323 80.410873 
L 371.17016 79.999845 
L 371.231997 80.167373 
L 371.355672 82.519908 
L 371.41751 82.321212 
L 371.603022 80.014779 
L 371.788534 82.52835 
L 371.912209 82.573154 
L 372.097721 79.695957 
L 372.159558 79.785565 
L 372.221396 80.843978 
L 372.283233 85.154904 
L 372.34507 82.017974 
L 372.406908 81.803044 
L 372.468745 80.945924 
L 372.530583 81.521233 
L 372.59242 81.092673 
L 372.654257 81.269941 
L 372.716095 81.277084 
L 372.777932 81.500455 
L 372.839769 81.208255 
L 372.901607 81.564739 
L 372.963444 81.424483 
L 373.025282 81.527077 
L 373.087119 83.081582 
L 373.210794 81.223839 
L 373.272631 83.369237 
L 373.334469 81.997844 
L 373.396306 82.318615 
L 373.458143 80.835537 
L 373.519981 81.848498 
L 373.581818 81.299161 
L 373.581818 81.299161 
" style="fill:none;stroke:#1f77b4;stroke-linecap:square;stroke-width:1.5;"/>
   </g>
   <g id="patch_3">
    <path d="M 54 252 
L 54 34.56 
" style="fill:none;stroke:#000000;stroke-linecap:square;stroke-linejoin:miter;stroke-width:0.8;"/>
   </g>
   <g id="patch_4">
    <path d="M 388.8 252 
L 388.8 34.56 
" style="fill:none;stroke:#000000;stroke-linecap:square;stroke-linejoin:miter;stroke-width:0.8;"/>
   </g>
   <g id="patch_5">
    <path d="M 54 252 
L 388.8 252 
" style="fill:none;stroke:#000000;stroke-linecap:square;stroke-linejoin:miter;stroke-width:0.8;"/>
   </g>
   <g id="patch_6">
    <path d="M 54 34.56 
L 388.8 34.56 
" style="fill:none;stroke:#000000;stroke-linecap:square;stroke-linejoin:miter;stroke-width:0.8;"/>
   </g>
  </g>
 </g>
 <defs>
  <clipPath id="pf8d5f0c47e">
   <rect height="217.44" width="334.8" x="54" y="34.56"/>
  </clipPath>
 </defs>
</svg>
