<?xml version="1.0" encoding="utf-8" standalone="no"?>
<!DOCTYPE svg PUBLIC "-//W3C//DTD SVG 1.1//EN"
  "http://www.w3.org/Graphics/SVG/1.1/DTD/svg11.dtd">
<!-- Created with matplotlib (https://matplotlib.org/) -->
<svg height="288pt" version="1.1" viewBox="0 0 432 288" width="432pt" xmlns="http://www.w3.org/2000/svg" xmlns:xlink="http://www.w3.org/1999/xlink">
 <defs>
  <style type="text/css">
*{stroke-linecap:butt;stroke-linejoin:round;}
  </style>
 </defs>
 <g id="figure_1">
  <g id="patch_1">
   <path d="M 0 288 
L 432 288 
L 432 0 
L 0 0 
z
" style="fill:#ffffff;"/>
  </g>
  <g id="axes_1">
   <g id="patch_2">
    <path d="M 54 252 
L 388.8 252 
L 388.8 34.56 
L 54 34.56 
z
" style="fill:#ffffff;"/>
   </g>
   <g id="matplotlib.axis_1">
    <g id="xtick_1">
     <g id="line2d_1">
      <defs>
       <path d="M 0 0 
L 0 3.5 
" id="m3f4537d6e0" style="stroke:#000000;stroke-width:0.8;"/>
      </defs>
      <g>
       <use style="stroke:#000000;stroke-width:0.8;" x="69.218182" xlink:href="#m3f4537d6e0" y="252"/>
      </g>
     </g>
     <g id="text_1">
      <!-- 0 -->
      <defs>
       <path d="M 31.78125 66.40625 
Q 24.171875 66.40625 20.328125 58.90625 
Q 16.5 51.421875 16.5 36.375 
Q 16.5 21.390625 20.328125 13.890625 
Q 24.171875 6.390625 31.78125 6.390625 
Q 39.453125 6.390625 43.28125 13.890625 
Q 47.125 21.390625 47.125 36.375 
Q 47.125 51.421875 43.28125 58.90625 
Q 39.453125 66.40625 31.78125 66.40625 
z
M 31.78125 74.21875 
Q 44.046875 74.21875 50.515625 64.515625 
Q 56.984375 54.828125 56.984375 36.375 
Q 56.984375 17.96875 50.515625 8.265625 
Q 44.046875 -1.421875 31.78125 -1.421875 
Q 19.53125 -1.421875 13.0625 8.265625 
Q 6.59375 17.96875 6.59375 36.375 
Q 6.59375 54.828125 13.0625 64.515625 
Q 19.53125 74.21875 31.78125 74.21875 
z
" id="DejaVuSans-48"/>
      </defs>
      <g transform="translate(66.036932 266.598437)scale(0.1 -0.1)">
       <use xlink:href="#DejaVuSans-48"/>
      </g>
     </g>
    </g>
    <g id="xtick_2">
     <g id="line2d_2">
      <g>
       <use style="stroke:#000000;stroke-width:0.8;" x="124.809714" xlink:href="#m3f4537d6e0" y="252"/>
      </g>
     </g>
     <g id="text_2">
      <!-- 1000 -->
      <defs>
       <path d="M 12.40625 8.296875 
L 28.515625 8.296875 
L 28.515625 63.921875 
L 10.984375 60.40625 
L 10.984375 69.390625 
L 28.421875 72.90625 
L 38.28125 72.90625 
L 38.28125 8.296875 
L 54.390625 8.296875 
L 54.390625 0 
L 12.40625 0 
z
" id="DejaVuSans-49"/>
      </defs>
      <g transform="translate(112.084714 266.598437)scale(0.1 -0.1)">
       <use xlink:href="#DejaVuSans-49"/>
       <use x="63.623047" xlink:href="#DejaVuSans-48"/>
       <use x="127.246094" xlink:href="#DejaVuSans-48"/>
       <use x="190.869141" xlink:href="#DejaVuSans-48"/>
      </g>
     </g>
    </g>
    <g id="xtick_3">
     <g id="line2d_3">
      <g>
       <use style="stroke:#000000;stroke-width:0.8;" x="180.401245" xlink:href="#m3f4537d6e0" y="252"/>
      </g>
     </g>
     <g id="text_3">
      <!-- 2000 -->
      <defs>
       <path d="M 19.1875 8.296875 
L 53.609375 8.296875 
L 53.609375 0 
L 7.328125 0 
L 7.328125 8.296875 
Q 12.9375 14.109375 22.625 23.890625 
Q 32.328125 33.6875 34.8125 36.53125 
Q 39.546875 41.84375 41.421875 45.53125 
Q 43.3125 49.21875 43.3125 52.78125 
Q 43.3125 58.59375 39.234375 62.25 
Q 35.15625 65.921875 28.609375 65.921875 
Q 23.96875 65.921875 18.8125 64.3125 
Q 13.671875 62.703125 7.8125 59.421875 
L 7.8125 69.390625 
Q 13.765625 71.78125 18.9375 73 
Q 24.125 74.21875 28.421875 74.21875 
Q 39.75 74.21875 46.484375 68.546875 
Q 53.21875 62.890625 53.21875 53.421875 
Q 53.21875 48.921875 51.53125 44.890625 
Q 49.859375 40.875 45.40625 35.40625 
Q 44.1875 33.984375 37.640625 27.21875 
Q 31.109375 20.453125 19.1875 8.296875 
z
" id="DejaVuSans-50"/>
      </defs>
      <g transform="translate(167.676245 266.598437)scale(0.1 -0.1)">
       <use xlink:href="#DejaVuSans-50"/>
       <use x="63.623047" xlink:href="#DejaVuSans-48"/>
       <use x="127.246094" xlink:href="#DejaVuSans-48"/>
       <use x="190.869141" xlink:href="#DejaVuSans-48"/>
      </g>
     </g>
    </g>
    <g id="xtick_4">
     <g id="line2d_4">
      <g>
       <use style="stroke:#000000;stroke-width:0.8;" x="235.992777" xlink:href="#m3f4537d6e0" y="252"/>
      </g>
     </g>
     <g id="text_4">
      <!-- 3000 -->
      <defs>
       <path d="M 40.578125 39.3125 
Q 47.65625 37.796875 51.625 33 
Q 55.609375 28.21875 55.609375 21.1875 
Q 55.609375 10.40625 48.1875 4.484375 
Q 40.765625 -1.421875 27.09375 -1.421875 
Q 22.515625 -1.421875 17.65625 -0.515625 
Q 12.796875 0.390625 7.625 2.203125 
L 7.625 11.71875 
Q 11.71875 9.328125 16.59375 8.109375 
Q 21.484375 6.890625 26.8125 6.890625 
Q 36.078125 6.890625 40.9375 10.546875 
Q 45.796875 14.203125 45.796875 21.1875 
Q 45.796875 27.640625 41.28125 31.265625 
Q 36.765625 34.90625 28.71875 34.90625 
L 20.21875 34.90625 
L 20.21875 43.015625 
L 29.109375 43.015625 
Q 36.375 43.015625 40.234375 45.921875 
Q 44.09375 48.828125 44.09375 54.296875 
Q 44.09375 59.90625 40.109375 62.90625 
Q 36.140625 65.921875 28.71875 65.921875 
Q 24.65625 65.921875 20.015625 65.03125 
Q 15.375 64.15625 9.8125 62.3125 
L 9.8125 71.09375 
Q 15.4375 72.65625 20.34375 73.4375 
Q 25.25 74.21875 29.59375 74.21875 
Q 40.828125 74.21875 47.359375 69.109375 
Q 53.90625 64.015625 53.90625 55.328125 
Q 53.90625 49.265625 50.4375 45.09375 
Q 46.96875 40.921875 40.578125 39.3125 
z
" id="DejaVuSans-51"/>
      </defs>
      <g transform="translate(223.267777 266.598437)scale(0.1 -0.1)">
       <use xlink:href="#DejaVuSans-51"/>
       <use x="63.623047" xlink:href="#DejaVuSans-48"/>
       <use x="127.246094" xlink:href="#DejaVuSans-48"/>
       <use x="190.869141" xlink:href="#DejaVuSans-48"/>
      </g>
     </g>
    </g>
    <g id="xtick_5">
     <g id="line2d_5">
      <g>
       <use style="stroke:#000000;stroke-width:0.8;" x="291.584309" xlink:href="#m3f4537d6e0" y="252"/>
      </g>
     </g>
     <g id="text_5">
      <!-- 4000 -->
      <defs>
       <path d="M 37.796875 64.3125 
L 12.890625 25.390625 
L 37.796875 25.390625 
z
M 35.203125 72.90625 
L 47.609375 72.90625 
L 47.609375 25.390625 
L 58.015625 25.390625 
L 58.015625 17.1875 
L 47.609375 17.1875 
L 47.609375 0 
L 37.796875 0 
L 37.796875 17.1875 
L 4.890625 17.1875 
L 4.890625 26.703125 
z
" id="DejaVuSans-52"/>
      </defs>
      <g transform="translate(278.859309 266.598437)scale(0.1 -0.1)">
       <use xlink:href="#DejaVuSans-52"/>
       <use x="63.623047" xlink:href="#DejaVuSans-48"/>
       <use x="127.246094" xlink:href="#DejaVuSans-48"/>
       <use x="190.869141" xlink:href="#DejaVuSans-48"/>
      </g>
     </g>
    </g>
    <g id="xtick_6">
     <g id="line2d_6">
      <g>
       <use style="stroke:#000000;stroke-width:0.8;" x="347.175841" xlink:href="#m3f4537d6e0" y="252"/>
      </g>
     </g>
     <g id="text_6">
      <!-- 5000 -->
      <defs>
       <path d="M 10.796875 72.90625 
L 49.515625 72.90625 
L 49.515625 64.59375 
L 19.828125 64.59375 
L 19.828125 46.734375 
Q 21.96875 47.46875 24.109375 47.828125 
Q 26.265625 48.1875 28.421875 48.1875 
Q 40.625 48.1875 47.75 41.5 
Q 54.890625 34.8125 54.890625 23.390625 
Q 54.890625 11.625 47.5625 5.09375 
Q 40.234375 -1.421875 26.90625 -1.421875 
Q 22.3125 -1.421875 17.546875 -0.640625 
Q 12.796875 0.140625 7.71875 1.703125 
L 7.71875 11.625 
Q 12.109375 9.234375 16.796875 8.0625 
Q 21.484375 6.890625 26.703125 6.890625 
Q 35.15625 6.890625 40.078125 11.328125 
Q 45.015625 15.765625 45.015625 23.390625 
Q 45.015625 31 40.078125 35.4375 
Q 35.15625 39.890625 26.703125 39.890625 
Q 22.75 39.890625 18.8125 39.015625 
Q 14.890625 38.140625 10.796875 36.28125 
z
" id="DejaVuSans-53"/>
      </defs>
      <g transform="translate(334.450841 266.598437)scale(0.1 -0.1)">
       <use xlink:href="#DejaVuSans-53"/>
       <use x="63.623047" xlink:href="#DejaVuSans-48"/>
       <use x="127.246094" xlink:href="#DejaVuSans-48"/>
       <use x="190.869141" xlink:href="#DejaVuSans-48"/>
      </g>
     </g>
    </g>
    <g id="text_7">
     <!-- Frames -->
     <defs>
      <path d="M 9.8125 72.90625 
L 51.703125 72.90625 
L 51.703125 64.59375 
L 19.671875 64.59375 
L 19.671875 43.109375 
L 48.578125 43.109375 
L 48.578125 34.8125 
L 19.671875 34.8125 
L 19.671875 0 
L 9.8125 0 
z
" id="DejaVuSans-70"/>
      <path d="M 41.109375 46.296875 
Q 39.59375 47.171875 37.8125 47.578125 
Q 36.03125 48 33.890625 48 
Q 26.265625 48 22.1875 43.046875 
Q 18.109375 38.09375 18.109375 28.8125 
L 18.109375 0 
L 9.078125 0 
L 9.078125 54.6875 
L 18.109375 54.6875 
L 18.109375 46.1875 
Q 20.953125 51.171875 25.484375 53.578125 
Q 30.03125 56 36.53125 56 
Q 37.453125 56 38.578125 55.875 
Q 39.703125 55.765625 41.0625 55.515625 
z
" id="DejaVuSans-114"/>
      <path d="M 34.28125 27.484375 
Q 23.390625 27.484375 19.1875 25 
Q 14.984375 22.515625 14.984375 16.5 
Q 14.984375 11.71875 18.140625 8.90625 
Q 21.296875 6.109375 26.703125 6.109375 
Q 34.1875 6.109375 38.703125 11.40625 
Q 43.21875 16.703125 43.21875 25.484375 
L 43.21875 27.484375 
z
M 52.203125 31.203125 
L 52.203125 0 
L 43.21875 0 
L 43.21875 8.296875 
Q 40.140625 3.328125 35.546875 0.953125 
Q 30.953125 -1.421875 24.3125 -1.421875 
Q 15.921875 -1.421875 10.953125 3.296875 
Q 6 8.015625 6 15.921875 
Q 6 25.140625 12.171875 29.828125 
Q 18.359375 34.515625 30.609375 34.515625 
L 43.21875 34.515625 
L 43.21875 35.40625 
Q 43.21875 41.609375 39.140625 45 
Q 35.0625 48.390625 27.6875 48.390625 
Q 23 48.390625 18.546875 47.265625 
Q 14.109375 46.140625 10.015625 43.890625 
L 10.015625 52.203125 
Q 14.9375 54.109375 19.578125 55.046875 
Q 24.21875 56 28.609375 56 
Q 40.484375 56 46.34375 49.84375 
Q 52.203125 43.703125 52.203125 31.203125 
z
" id="DejaVuSans-97"/>
      <path d="M 52 44.1875 
Q 55.375 50.25 60.0625 53.125 
Q 64.75 56 71.09375 56 
Q 79.640625 56 84.28125 50.015625 
Q 88.921875 44.046875 88.921875 33.015625 
L 88.921875 0 
L 79.890625 0 
L 79.890625 32.71875 
Q 79.890625 40.578125 77.09375 44.375 
Q 74.3125 48.1875 68.609375 48.1875 
Q 61.625 48.1875 57.5625 43.546875 
Q 53.515625 38.921875 53.515625 30.90625 
L 53.515625 0 
L 44.484375 0 
L 44.484375 32.71875 
Q 44.484375 40.625 41.703125 44.40625 
Q 38.921875 48.1875 33.109375 48.1875 
Q 26.21875 48.1875 22.15625 43.53125 
Q 18.109375 38.875 18.109375 30.90625 
L 18.109375 0 
L 9.078125 0 
L 9.078125 54.6875 
L 18.109375 54.6875 
L 18.109375 46.1875 
Q 21.1875 51.21875 25.484375 53.609375 
Q 29.78125 56 35.6875 56 
Q 41.65625 56 45.828125 52.96875 
Q 50 49.953125 52 44.1875 
z
" id="DejaVuSans-109"/>
      <path d="M 56.203125 29.59375 
L 56.203125 25.203125 
L 14.890625 25.203125 
Q 15.484375 15.921875 20.484375 11.0625 
Q 25.484375 6.203125 34.421875 6.203125 
Q 39.59375 6.203125 44.453125 7.46875 
Q 49.3125 8.734375 54.109375 11.28125 
L 54.109375 2.78125 
Q 49.265625 0.734375 44.1875 -0.34375 
Q 39.109375 -1.421875 33.890625 -1.421875 
Q 20.796875 -1.421875 13.15625 6.1875 
Q 5.515625 13.8125 5.515625 26.8125 
Q 5.515625 40.234375 12.765625 48.109375 
Q 20.015625 56 32.328125 56 
Q 43.359375 56 49.78125 48.890625 
Q 56.203125 41.796875 56.203125 29.59375 
z
M 47.21875 32.234375 
Q 47.125 39.59375 43.09375 43.984375 
Q 39.0625 48.390625 32.421875 48.390625 
Q 24.90625 48.390625 20.390625 44.140625 
Q 15.875 39.890625 15.1875 32.171875 
z
" id="DejaVuSans-101"/>
      <path d="M 44.28125 53.078125 
L 44.28125 44.578125 
Q 40.484375 46.53125 36.375 47.5 
Q 32.28125 48.484375 27.875 48.484375 
Q 21.1875 48.484375 17.84375 46.4375 
Q 14.5 44.390625 14.5 40.28125 
Q 14.5 37.15625 16.890625 35.375 
Q 19.28125 33.59375 26.515625 31.984375 
L 29.59375 31.296875 
Q 39.15625 29.25 43.1875 25.515625 
Q 47.21875 21.78125 47.21875 15.09375 
Q 47.21875 7.46875 41.1875 3.015625 
Q 35.15625 -1.421875 24.609375 -1.421875 
Q 20.21875 -1.421875 15.453125 -0.5625 
Q 10.6875 0.296875 5.421875 2 
L 5.421875 11.28125 
Q 10.40625 8.6875 15.234375 7.390625 
Q 20.0625 6.109375 24.8125 6.109375 
Q 31.15625 6.109375 34.5625 8.28125 
Q 37.984375 10.453125 37.984375 14.40625 
Q 37.984375 18.0625 35.515625 20.015625 
Q 33.0625 21.96875 24.703125 23.78125 
L 21.578125 24.515625 
Q 13.234375 26.265625 9.515625 29.90625 
Q 5.8125 33.546875 5.8125 39.890625 
Q 5.8125 47.609375 11.28125 51.796875 
Q 16.75 56 26.8125 56 
Q 31.78125 56 36.171875 55.265625 
Q 40.578125 54.546875 44.28125 53.078125 
z
" id="DejaVuSans-115"/>
     </defs>
     <g transform="translate(191.73375 284.835625)scale(0.16 -0.16)">
      <use xlink:href="#DejaVuSans-70"/>
      <use x="57.410156" xlink:href="#DejaVuSans-114"/>
      <use x="98.523438" xlink:href="#DejaVuSans-97"/>
      <use x="159.802734" xlink:href="#DejaVuSans-109"/>
      <use x="257.214844" xlink:href="#DejaVuSans-101"/>
      <use x="318.738281" xlink:href="#DejaVuSans-115"/>
     </g>
    </g>
   </g>
   <g id="matplotlib.axis_2">
    <g id="ytick_1">
     <g id="line2d_7">
      <defs>
       <path d="M 0 0 
L -3.5 0 
" id="mc9f2c2196d" style="stroke:#000000;stroke-width:0.8;"/>
      </defs>
      <g>
       <use style="stroke:#000000;stroke-width:0.8;" x="54" xlink:href="#mc9f2c2196d" y="245.433722"/>
      </g>
     </g>
     <g id="text_8">
      <!-- 0 -->
      <g transform="translate(40.6375 249.232941)scale(0.1 -0.1)">
       <use xlink:href="#DejaVuSans-48"/>
      </g>
     </g>
    </g>
    <g id="ytick_2">
     <g id="line2d_8">
      <g>
       <use style="stroke:#000000;stroke-width:0.8;" x="54" xlink:href="#mc9f2c2196d" y="199.142049"/>
      </g>
     </g>
     <g id="text_9">
      <!-- 10 -->
      <g transform="translate(34.275 202.941268)scale(0.1 -0.1)">
       <use xlink:href="#DejaVuSans-49"/>
       <use x="63.623047" xlink:href="#DejaVuSans-48"/>
      </g>
     </g>
    </g>
    <g id="ytick_3">
     <g id="line2d_9">
      <g>
       <use style="stroke:#000000;stroke-width:0.8;" x="54" xlink:href="#mc9f2c2196d" y="152.850376"/>
      </g>
     </g>
     <g id="text_10">
      <!-- 20 -->
      <g transform="translate(34.275 156.649595)scale(0.1 -0.1)">
       <use xlink:href="#DejaVuSans-50"/>
       <use x="63.623047" xlink:href="#DejaVuSans-48"/>
      </g>
     </g>
    </g>
    <g id="ytick_4">
     <g id="line2d_10">
      <g>
       <use style="stroke:#000000;stroke-width:0.8;" x="54" xlink:href="#mc9f2c2196d" y="106.558703"/>
      </g>
     </g>
     <g id="text_11">
      <!-- 30 -->
      <g transform="translate(34.275 110.357922)scale(0.1 -0.1)">
       <use xlink:href="#DejaVuSans-51"/>
       <use x="63.623047" xlink:href="#DejaVuSans-48"/>
      </g>
     </g>
    </g>
    <g id="ytick_5">
     <g id="line2d_11">
      <g>
       <use style="stroke:#000000;stroke-width:0.8;" x="54" xlink:href="#mc9f2c2196d" y="60.26703"/>
      </g>
     </g>
     <g id="text_12">
      <!-- 40 -->
      <g transform="translate(34.275 64.066248)scale(0.1 -0.1)">
       <use xlink:href="#DejaVuSans-52"/>
       <use x="63.623047" xlink:href="#DejaVuSans-48"/>
      </g>
     </g>
    </g>
    <g id="text_13">
     <!-- Average Brightness -->
     <defs>
      <path d="M 34.1875 63.1875 
L 20.796875 26.90625 
L 47.609375 26.90625 
z
M 28.609375 72.90625 
L 39.796875 72.90625 
L 67.578125 0 
L 57.328125 0 
L 50.6875 18.703125 
L 17.828125 18.703125 
L 11.1875 0 
L 0.78125 0 
z
" id="DejaVuSans-65"/>
      <path d="M 2.984375 54.6875 
L 12.5 54.6875 
L 29.59375 8.796875 
L 46.6875 54.6875 
L 56.203125 54.6875 
L 35.6875 0 
L 23.484375 0 
z
" id="DejaVuSans-118"/>
      <path d="M 45.40625 27.984375 
Q 45.40625 37.75 41.375 43.109375 
Q 37.359375 48.484375 30.078125 48.484375 
Q 22.859375 48.484375 18.828125 43.109375 
Q 14.796875 37.75 14.796875 27.984375 
Q 14.796875 18.265625 18.828125 12.890625 
Q 22.859375 7.515625 30.078125 7.515625 
Q 37.359375 7.515625 41.375 12.890625 
Q 45.40625 18.265625 45.40625 27.984375 
z
M 54.390625 6.78125 
Q 54.390625 -7.171875 48.1875 -13.984375 
Q 42 -20.796875 29.203125 -20.796875 
Q 24.46875 -20.796875 20.265625 -20.09375 
Q 16.0625 -19.390625 12.109375 -17.921875 
L 12.109375 -9.1875 
Q 16.0625 -11.328125 19.921875 -12.34375 
Q 23.78125 -13.375 27.78125 -13.375 
Q 36.625 -13.375 41.015625 -8.765625 
Q 45.40625 -4.15625 45.40625 5.171875 
L 45.40625 9.625 
Q 42.625 4.78125 38.28125 2.390625 
Q 33.9375 0 27.875 0 
Q 17.828125 0 11.671875 7.65625 
Q 5.515625 15.328125 5.515625 27.984375 
Q 5.515625 40.671875 11.671875 48.328125 
Q 17.828125 56 27.875 56 
Q 33.9375 56 38.28125 53.609375 
Q 42.625 51.21875 45.40625 46.390625 
L 45.40625 54.6875 
L 54.390625 54.6875 
z
" id="DejaVuSans-103"/>
      <path id="DejaVuSans-32"/>
      <path d="M 19.671875 34.8125 
L 19.671875 8.109375 
L 35.5 8.109375 
Q 43.453125 8.109375 47.28125 11.40625 
Q 51.125 14.703125 51.125 21.484375 
Q 51.125 28.328125 47.28125 31.5625 
Q 43.453125 34.8125 35.5 34.8125 
z
M 19.671875 64.796875 
L 19.671875 42.828125 
L 34.28125 42.828125 
Q 41.5 42.828125 45.03125 45.53125 
Q 48.578125 48.25 48.578125 53.8125 
Q 48.578125 59.328125 45.03125 62.0625 
Q 41.5 64.796875 34.28125 64.796875 
z
M 9.8125 72.90625 
L 35.015625 72.90625 
Q 46.296875 72.90625 52.390625 68.21875 
Q 58.5 63.53125 58.5 54.890625 
Q 58.5 48.1875 55.375 44.234375 
Q 52.25 40.28125 46.1875 39.3125 
Q 53.46875 37.75 57.5 32.78125 
Q 61.53125 27.828125 61.53125 20.40625 
Q 61.53125 10.640625 54.890625 5.3125 
Q 48.25 0 35.984375 0 
L 9.8125 0 
z
" id="DejaVuSans-66"/>
      <path d="M 9.421875 54.6875 
L 18.40625 54.6875 
L 18.40625 0 
L 9.421875 0 
z
M 9.421875 75.984375 
L 18.40625 75.984375 
L 18.40625 64.59375 
L 9.421875 64.59375 
z
" id="DejaVuSans-105"/>
      <path d="M 54.890625 33.015625 
L 54.890625 0 
L 45.90625 0 
L 45.90625 32.71875 
Q 45.90625 40.484375 42.875 44.328125 
Q 39.84375 48.1875 33.796875 48.1875 
Q 26.515625 48.1875 22.3125 43.546875 
Q 18.109375 38.921875 18.109375 30.90625 
L 18.109375 0 
L 9.078125 0 
L 9.078125 75.984375 
L 18.109375 75.984375 
L 18.109375 46.1875 
Q 21.34375 51.125 25.703125 53.5625 
Q 30.078125 56 35.796875 56 
Q 45.21875 56 50.046875 50.171875 
Q 54.890625 44.34375 54.890625 33.015625 
z
" id="DejaVuSans-104"/>
      <path d="M 18.3125 70.21875 
L 18.3125 54.6875 
L 36.8125 54.6875 
L 36.8125 47.703125 
L 18.3125 47.703125 
L 18.3125 18.015625 
Q 18.3125 11.328125 20.140625 9.421875 
Q 21.96875 7.515625 27.59375 7.515625 
L 36.8125 7.515625 
L 36.8125 0 
L 27.59375 0 
Q 17.1875 0 13.234375 3.875 
Q 9.28125 7.765625 9.28125 18.015625 
L 9.28125 47.703125 
L 2.6875 47.703125 
L 2.6875 54.6875 
L 9.28125 54.6875 
L 9.28125 70.21875 
z
" id="DejaVuSans-116"/>
      <path d="M 54.890625 33.015625 
L 54.890625 0 
L 45.90625 0 
L 45.90625 32.71875 
Q 45.90625 40.484375 42.875 44.328125 
Q 39.84375 48.1875 33.796875 48.1875 
Q 26.515625 48.1875 22.3125 43.546875 
Q 18.109375 38.921875 18.109375 30.90625 
L 18.109375 0 
L 9.078125 0 
L 9.078125 54.6875 
L 18.109375 54.6875 
L 18.109375 46.1875 
Q 21.34375 51.125 25.703125 53.5625 
Q 30.078125 56 35.796875 56 
Q 45.21875 56 50.046875 50.171875 
Q 54.890625 44.34375 54.890625 33.015625 
z
" id="DejaVuSans-110"/>
     </defs>
     <g transform="translate(26.9475 221.75125)rotate(-90)scale(0.16 -0.16)">
      <use xlink:href="#DejaVuSans-65"/>
      <use x="68.330078" xlink:href="#DejaVuSans-118"/>
      <use x="127.509766" xlink:href="#DejaVuSans-101"/>
      <use x="189.033203" xlink:href="#DejaVuSans-114"/>
      <use x="230.146484" xlink:href="#DejaVuSans-97"/>
      <use x="291.425781" xlink:href="#DejaVuSans-103"/>
      <use x="354.902344" xlink:href="#DejaVuSans-101"/>
      <use x="416.425781" xlink:href="#DejaVuSans-32"/>
      <use x="448.212891" xlink:href="#DejaVuSans-66"/>
      <use x="516.816406" xlink:href="#DejaVuSans-114"/>
      <use x="557.929688" xlink:href="#DejaVuSans-105"/>
      <use x="585.712891" xlink:href="#DejaVuSans-103"/>
      <use x="649.189453" xlink:href="#DejaVuSans-104"/>
      <use x="712.568359" xlink:href="#DejaVuSans-116"/>
      <use x="751.777344" xlink:href="#DejaVuSans-110"/>
      <use x="815.15625" xlink:href="#DejaVuSans-101"/>
      <use x="876.679688" xlink:href="#DejaVuSans-115"/>
      <use x="928.779297" xlink:href="#DejaVuSans-115"/>
     </g>
    </g>
   </g>
   <g id="line2d_12">
    <path clip-path="url(#p62b2a4fcaa)" d="M 69.218182 175.458887 
L 69.273773 175.800534 
L 69.329365 174.709101 
L 69.496139 176.681722 
L 69.551731 175.538995 
L 69.607323 177.554045 
L 69.662914 175.164736 
L 69.718506 175.494033 
L 69.774097 176.280549 
L 69.829689 175.996846 
L 69.940872 173.446054 
L 69.996463 174.17051 
L 70.052055 176.398653 
L 70.107646 175.532663 
L 70.163238 175.578891 
L 70.218829 171.979413 
L 70.274421 175.644117 
L 70.330012 174.338958 
L 70.385604 172.593996 
L 70.441196 174.685354 
L 70.496787 173.807649 
L 70.552379 174.184125 
L 70.663562 173.170584 
L 70.719153 175.71536 
L 70.774745 174.505507 
L 70.830336 174.887049 
L 70.885928 177.128174 
L 70.941519 174.213888 
L 70.997111 176.001912 
L 71.219477 174.218638 
L 71.386252 175.809399 
L 71.608618 171.727373 
L 71.775392 173.88459 
L 71.830984 171.824579 
L 71.886575 172.097833 
L 71.942167 175.235978 
L 71.997758 173.587272 
L 72.108941 174.866468 
L 72.164533 174.049873 
L 72.275716 175.834413 
L 72.442491 172.243484 
L 72.553674 172.878966 
L 72.609265 174.575483 
L 72.664857 173.405525 
L 72.720448 173.426423 
L 72.942814 170.099882 
L 72.998406 170.009958 
L 73.053998 169.459334 
L 73.220772 171.960098 
L 73.387547 168.622158 
L 73.443138 171.87809 
L 73.49873 169.692059 
L 73.609913 172.787459 
L 73.665504 170.778425 
L 73.721096 173.031266 
L 73.776687 171.376544 
L 73.88787 170.113497 
L 74.054645 172.89828 
L 74.165828 169.380176 
L 74.22142 170.202471 
L 74.277011 169.393475 
L 74.332603 171.930968 
L 74.388194 170.073918 
L 74.443786 170.057137 
L 74.554969 170.805972 
L 74.61056 169.550841 
L 74.666152 170.591296 
L 74.721743 171.776451 
L 74.777335 171.04883 
L 74.832927 169.696176 
L 74.888518 171.81603 
L 74.94411 170.14991 
L 74.999701 169.215527 
L 75.055293 171.624468 
L 75.110884 170.810089 
L 75.166476 169.96658 
L 75.222067 172.094983 
L 75.277659 170.64544 
L 75.388842 170.041305 
L 75.500025 172.173825 
L 75.555616 171.619718 
L 75.611208 171.205879 
L 75.722391 168.999584 
L 75.777983 169.679711 
L 75.833574 170.018507 
L 75.944757 171.126405 
L 76.000349 170.728398 
L 76.05594 169.024915 
L 76.111532 170.344956 
L 76.167123 171.647265 
L 76.278306 166.879729 
L 76.333898 167.134302 
L 76.500672 169.608152 
L 76.556264 167.214093 
L 76.611856 168.687068 
L 76.667447 168.180139 
L 76.723039 166.244881 
L 76.77863 167.472465 
L 76.834222 166.394015 
L 77.056588 171.04598 
L 77.112179 169.608152 
L 77.167771 170.609027 
L 77.223362 170.287012 
L 77.278954 166.708431 
L 77.334545 167.347079 
L 77.390137 168.157975 
L 77.445729 166.797405 
L 77.50132 168.088632 
L 77.612503 169.269355 
L 77.723686 167.341696 
L 77.946052 169.561607 
L 78.057235 168.57213 
L 78.22401 166.925008 
L 78.279601 167.063376 
L 78.335193 167.558273 
L 78.390785 165.646129 
L 78.446376 167.492413 
L 78.501968 169.765835 
L 78.557559 167.571888 
L 78.613151 167.964829 
L 78.724334 166.100497 
L 78.835517 167.34138 
L 78.9467 164.49422 
L 79.002291 167.359428 
L 79.057883 162.66915 
L 79.113474 164.623723 
L 79.169066 164.240281 
L 79.224658 169.292469 
L 79.280249 166.673285 
L 79.391432 163.648811 
L 79.447024 167.116254 
L 79.502615 166.580512 
L 79.780573 163.799845 
L 79.836164 164.726945 
L 79.891756 161.06509 
L 79.947347 163.450283 
L 80.002939 164.430893 
L 80.058531 163.452182 
L 80.114122 162.987049 
L 80.169714 161.020128 
L 80.225305 162.991165 
L 80.280897 162.554529 
L 80.336488 162.447507 
L 80.39208 161.336127 
L 80.447671 161.486528 
L 80.503263 162.57796 
L 80.725629 158.450022 
L 80.892403 160.189918 
L 80.947995 159.257435 
L 81.003587 159.745682 
L 81.059178 162.899342 
L 81.11477 161.856988 
L 81.392727 157.81644 
L 81.448319 158.856895 
L 81.50391 158.492134 
L 81.559502 157.566301 
L 81.615093 158.800534 
L 81.670685 157.590681 
L 81.726276 156.731974 
L 81.781868 160.17187 
L 81.83746 157.994388 
L 81.893051 156.462203 
L 81.948643 158.088744 
L 82.004234 157.833855 
L 82.059826 158.031434 
L 82.115417 154.438605 
L 82.171009 156.890923 
L 82.2266 155.766245 
L 82.282192 157.125548 
L 82.337783 154.88284 
L 82.393375 155.015192 
L 82.448966 156.293438 
L 82.560149 153.457677 
L 82.615741 156.212063 
L 82.671333 155.677904 
L 82.782516 152.788633 
L 82.838107 154.004818 
L 82.94929 156.227262 
L 83.116065 153.920911 
L 83.171656 152.987161 
L 83.227248 153.350972 
L 83.282839 154.999677 
L 83.338431 154.277755 
L 83.394022 154.581406 
L 83.449614 154.125138 
L 83.505205 154.971814 
L 83.560797 154.473434 
L 83.616389 152.653431 
L 83.67198 153.267698 
L 83.727572 154.074477 
L 83.838755 150.243857 
L 83.949938 154.096008 
L 84.005529 154.084293 
L 84.061121 154.87999 
L 84.116712 154.581406 
L 84.172304 153.129329 
L 84.227895 155.681704 
L 84.283487 154.238176 
L 84.39467 150.398057 
L 84.450262 152.911169 
L 84.505853 152.172782 
L 84.561445 152.314317 
L 84.617036 152.832328 
L 84.839402 148.913367 
L 84.894994 149.948439 
L 84.950585 149.250581 
L 85.006177 149.110629 
L 85.061768 153.429813 
L 85.11736 151.60886 
L 85.172951 150.36861 
L 85.228543 150.497163 
L 85.339726 151.108897 
L 85.784458 146.867605 
L 85.84005 146.988242 
L 85.895641 144.978258 
L 86.006824 149.148309 
L 86.062416 148.124952 
L 86.118007 148.432403 
L 86.173599 145.809735 
L 86.229191 146.991725 
L 86.340374 146.285634 
L 86.395965 148.595152 
L 86.451557 146.796996 
L 86.507148 146.669076 
L 86.56274 145.807836 
L 86.673923 147.978352 
L 86.785106 143.330186 
L 86.840697 145.020054 
L 86.95188 149.16509 
L 87.007472 147.895077 
L 87.063064 144.794928 
L 87.118655 144.909233 
L 87.174247 144.836724 
L 87.28543 146.032011 
L 87.341021 145.897759 
L 87.452204 144.919681 
L 87.618979 143.597107 
L 87.67457 146.871404 
L 87.730162 144.783213 
L 87.785753 145.203068 
L 87.841345 144.860155 
L 87.896936 145.02132 
L 88.00812 147.781089 
L 88.063711 147.048402 
L 88.119303 148.208227 
L 88.230486 145.448774 
L 88.286077 145.621339 
L 88.452852 147.097163 
L 88.508443 144.184777 
L 88.564035 145.868312 
L 88.619626 145.927839 
L 88.730809 145.109028 
L 88.841993 146.152332 
L 88.897584 144.185727 
L 88.953176 144.298448 
L 89.008767 144.254753 
L 89.064359 144.564103 
L 89.11995 142.660192 
L 89.175542 142.796027 
L 89.286725 143.832999 
L 89.342316 141.809717 
L 89.397908 142.042758 
L 89.453499 142.971442 
L 89.509091 142.55412 
L 89.620274 141.853729 
L 89.675866 142.983474 
L 89.898232 139.502732 
L 90.065006 141.444006 
L 90.176189 138.518005 
L 90.231781 139.413759 
L 90.287372 139.011952 
L 90.398555 140.17241 
L 90.509738 135.650898 
L 90.56533 138.435364 
L 90.676513 134.075018 
L 90.787696 136.117298 
L 90.843288 133.285653 
L 90.898879 134.850451 
L 90.954471 134.562632 
L 91.010062 135.526461 
L 91.065654 135.237693 
L 91.176837 133.397424 
L 91.28802 136.502639 
L 91.343611 135.491315 
L 91.399203 135.486249 
L 91.788344 131.51726 
L 91.899527 133.885988 
L 92.01071 133.27932 
L 92.066301 133.833744 
L 92.121893 131.008749 
L 92.177484 133.238791 
L 92.233076 131.816162 
L 92.288667 134.071218 
L 92.344259 130.637022 
L 92.399851 130.944156 
L 92.455442 131.684126 
L 92.622217 130.2235 
L 92.677808 131.000833 
L 92.7334 130.135793 
L 92.788991 131.037879 
L 92.844583 129.785914 
L 92.900174 131.096456 
L 92.955766 130.090831 
L 93.011357 130.477123 
L 93.066949 129.391073 
L 93.178132 131.598635 
L 93.233724 129.816627 
L 93.289315 130.160174 
L 93.344907 130.624357 
L 93.400498 127.77878 
L 93.45609 130.398914 
L 93.567273 127.869971 
L 93.622864 132.022923 
L 93.678456 130.432161 
L 93.900822 128.492787 
L 93.956413 129.280252 
L 94.012005 128.809103 
L 94.067597 127.84844 
L 94.123188 130.017056 
L 94.234371 125.791595 
L 94.401146 128.262912 
L 94.456737 128.562446 
L 94.512329 125.315379 
L 94.56792 126.325121 
L 94.623512 126.080364 
L 94.679103 126.177886 
L 94.734695 127.002398 
L 94.790286 126.608823 
L 94.901469 123.712902 
L 94.957061 126.124059 
L 95.012653 126.029386 
L 95.123836 125.229889 
L 95.235019 126.630038 
L 95.29061 126.002155 
L 95.457385 127.294966 
L 95.624159 123.659708 
L 95.679751 125.038326 
L 95.735342 123.911431 
L 95.790934 123.21199 
L 95.846526 124.989248 
L 95.902117 124.336985 
L 96.0133 123.255368 
L 96.124483 124.10616 
L 96.291258 120.492116 
L 96.458032 124.355033 
L 96.680399 120.756505 
L 96.847173 121.649092 
L 96.958356 119.758796 
L 97.013948 120.681146 
L 97.180722 116.699176 
L 97.291905 119.192657 
L 97.403088 117.412865 
L 97.45868 118.135104 
L 97.625455 115.896196 
L 97.681046 115.832236 
L 97.792229 114.294035 
L 97.847821 116.289453 
L 97.903412 114.809196 
L 97.959004 114.504596 
L 98.014595 112.465482 
L 98.070187 112.833093 
L 98.125778 113.119012 
L 98.18137 112.136184 
L 98.236961 114.661012 
L 98.292553 113.493588 
L 98.348144 113.371685 
L 98.403736 109.29979 
L 98.459328 111.171089 
L 98.514919 110.652444 
L 98.570511 111.127393 
L 98.626102 111.963936 
L 98.848468 109.711413 
L 98.90406 110.595134 
L 98.959651 109.79627 
L 99.070834 106.679656 
L 99.182017 109.927356 
L 99.2932 105.636669 
L 99.515567 108.341977 
L 99.682341 104.878017 
L 99.793524 107.746075 
L 99.849116 107.08083 
L 99.960299 104.452463 
L 100.01589 107.0441 
L 100.071482 105.234546 
L 100.127073 104.645926 
L 100.182665 105.456822 
L 100.34944 103.315753 
L 100.405031 102.809457 
L 100.516214 105.391912 
L 100.682989 103.130839 
L 100.794172 105.176918 
L 101.016538 100.625959 
L 101.127721 104.009494 
L 101.183313 102.702752 
L 101.238904 102.547919 
L 101.294496 101.507464 
L 101.350087 102.22812 
L 101.46127 102.278148 
L 101.516862 99.797649 
L 101.572453 100.919478 
L 101.628045 101.154419 
L 101.683636 101.092359 
L 101.794819 97.644548 
L 101.850411 98.927859 
L 102.017186 97.179098 
L 102.128369 99.162801 
L 102.239552 97.663546 
L 102.350735 99.746671 
L 102.406326 97.069226 
L 102.461918 98.603311 
L 102.573101 97.009066 
L 102.628692 99.209029 
L 102.684284 98.181873 
L 102.851059 96.431845 
L 102.90665 97.389975 
L 103.017833 95.008899 
L 103.073425 95.33503 
L 103.129016 95.283102 
L 103.295791 94.033987 
L 103.351382 97.30955 
L 103.406974 97.042313 
L 103.462565 97.042946 
L 103.62934 96.008191 
L 103.684932 96.754177 
L 103.796115 94.051402 
L 103.851706 94.80657 
L 103.907298 94.627673 
L 104.129664 91.447416 
L 104.240847 92.992583 
L 104.407621 91.644045 
L 104.463213 92.005956 
L 104.574396 92.483754 
L 104.741171 91.143132 
L 104.796762 91.351476 
L 104.963537 94.400648 
L 105.07472 91.106403 
L 105.130311 91.237805 
L 105.241494 92.411562 
L 105.297086 91.294483 
L 105.352677 92.016405 
L 105.408269 92.497053 
L 105.463861 91.681091 
L 105.519452 93.088839 
L 105.575044 92.783605 
L 105.741818 89.705937 
L 105.908593 91.833391 
L 106.075367 90.899642 
L 106.130959 91.252054 
L 106.242142 90.159672 
L 106.297733 90.279675 
L 106.408917 88.47392 
L 106.5201 89.003963 
L 106.686874 90.513667 
L 106.853649 92.017038 
L 107.020423 90.027319 
L 107.187198 87.174777 
L 107.353973 88.693347 
L 107.576339 85.322793 
L 107.63193 85.775895 
L 107.743113 87.211506 
L 107.798705 85.003628 
L 107.854296 85.704969 
L 107.909888 87.02216 
L 107.965479 85.469078 
L 108.021071 86.213164 
L 108.076663 86.239128 
L 108.132254 86.802734 
L 108.187846 85.034025 
L 108.243437 85.959541 
L 108.299029 87.785244 
L 108.35462 86.990814 
L 108.410212 87.332777 
L 108.743761 83.106682 
L 108.854944 83.085468 
L 109.021719 85.722067 
L 109.132902 82.705826 
L 109.244085 82.996811 
L 109.355268 83.701952 
L 109.410859 83.262466 
L 109.466451 83.970773 
L 109.633225 81.06377 
L 109.744408 81.882898 
L 109.8 81.716666 
L 109.855592 81.694501 
L 109.966775 80.051179 
L 110.022366 80.208862 
L 110.077958 82.187815 
L 110.133549 81.265464 
L 110.189141 80.790516 
L 110.355915 79.05252 
L 110.52269 78.354345 
L 110.578281 76.425103 
L 110.633873 77.610575 
L 110.856239 74.914766 
L 110.967422 77.473473 
L 111.023014 76.971928 
L 111.078605 75.172822 
L 111.134197 76.133801 
L 111.24538 75.508452 
L 111.356563 77.638756 
L 111.412154 76.654978 
L 111.467746 78.319516 
L 111.578929 75.725979 
L 111.634521 77.495638 
L 111.745704 74.934397 
L 111.801295 75.127543 
L 111.856887 74.361609 
L 111.912478 77.183121 
L 112.023661 72.228456 
L 112.079253 74.081706 
L 112.134844 73.234714 
L 112.190436 71.66485 
L 112.246027 72.938663 
L 112.412802 74.796029 
L 112.468394 73.110277 
L 112.523985 74.183028 
L 112.579577 73.535832 
L 112.635168 74.934081 
L 112.801943 72.550155 
L 112.913126 72.244288 
L 112.968717 69.503833 
L 113.024309 72.503293 
L 113.0799 71.459356 
L 113.135492 70.201375 
L 113.191083 71.031585 
L 113.246675 70.484127 
L 113.41345 74.056375 
L 113.469041 72.924414 
L 113.524633 72.017895 
L 113.635816 74.348311 
L 113.691407 73.914524 
L 113.80259 71.308005 
L 113.858182 71.32257 
L 114.080548 68.121732 
L 114.358506 69.469004 
L 114.414097 69.265092 
L 114.52528 70.40117 
L 114.803238 66.209272 
L 114.914421 68.32881 
L 114.970012 67.890907 
L 115.192379 62.60726 
L 115.24797 62.963472 
L 115.414745 64.95889 
L 115.470336 63.389343 
L 115.525928 64.62421 
L 115.637111 66.620894 
L 115.692702 65.635534 
L 115.748294 65.871108 
L 116.026252 62.809589 
L 116.081843 62.661088 
L 116.193026 61.12827 
L 116.359801 64.727432 
L 116.415392 64.110632 
L 116.470984 64.180291 
L 116.526575 64.082451 
L 116.637758 62.326091 
L 116.69335 62.79914 
L 116.804533 63.729723 
L 116.860125 60.806571 
L 116.915716 61.671928 
L 116.971308 62.214319 
L 117.026899 61.720373 
L 117.249265 58.667402 
L 117.304857 59.115754 
L 117.41604 56.919591 
L 117.527223 59.099289 
L 117.582814 57.281185 
L 117.638406 58.47299 
L 117.693998 59.641364 
L 117.749589 59.614133 
L 117.971955 58.148758 
L 118.027547 58.540749 
L 118.083138 58.428978 
L 118.416687 52.619088 
L 118.52787 55.216424 
L 118.583462 55.167346 
L 118.750237 53.899866 
L 118.86142 56.661535 
L 118.917011 56.267961 
L 119.139377 54.284258 
L 119.194969 55.649261 
L 119.417335 50.406143 
L 119.472927 50.596123 
L 119.528518 50.093627 
L 119.58411 50.74779 
L 119.750884 49.117132 
L 119.806476 49.688971 
L 119.862067 48.98193 
L 120.084433 51.495992 
L 120.140025 51.379472 
L 120.3068 49.053489 
L 120.362391 50.15347 
L 120.473574 48.719758 
L 120.529166 48.958816 
L 120.807123 44.443636 
L 121.085081 47.52827 
L 121.140672 47.485525 
L 121.307447 48.805249 
L 121.363039 48.683029 
L 121.529813 49.328009 
L 121.585405 49.01296 
L 121.640996 49.192491 
L 121.696588 49.469228 
L 121.752179 51.280366 
L 121.807771 50.816816 
L 121.863362 51.052074 
L 122.363686 65.832796 
L 122.752827 78.83246 
L 122.808418 79.662987 
L 123.197559 112.810295 
L 123.308742 121.289397 
L 123.809066 160.101894 
L 124.031432 170.815788 
L 124.087024 169.380176 
L 124.364981 176.29828 
L 124.976488 150.541808 
L 125.254446 132.764793 
L 125.587995 106.95671 
L 125.865953 89.054624 
L 125.921544 88.225997 
L 126.310685 66.763062 
L 126.644234 54.737993 
L 126.699826 53.792211 
L 126.755417 56.040302 
L 126.922192 52.53613 
L 127.088966 50.496067 
L 127.311333 47.927544 
L 127.422516 48.723241 
L 127.58929 48.136838 
L 127.867248 57.226408 
L 128.256389 73.090646 
L 128.367572 77.476323 
L 128.589938 93.082506 
L 128.812304 107.058349 
L 129.201445 140.543504 
L 129.368219 150.383175 
L 129.646177 169.214577 
L 129.701768 169.883305 
L 129.868543 175.995579 
L 129.924134 176.5766 
L 129.979726 176.338492 
L 130.090909 179.636537 
L 130.257684 175.690029 
L 130.313275 175.726758 
L 130.368867 176.430316 
L 130.535641 168.966654 
L 130.646824 162.633054 
L 130.869191 149.955722 
L 131.147148 128.567195 
L 132.370162 61.381259 
L 132.870486 52.420559 
L 132.981669 51.08247 
L 133.03726 51.779695 
L 133.148443 50.908956 
L 133.204035 48.411042 
L 133.259626 49.501524 
L 133.370809 47.99752 
L 133.426401 52.296123 
L 133.481993 50.228512 
L 133.704359 52.607056 
L 133.75995 53.145331 
L 134.593823 85.647025 
L 135.594471 154.688744 
L 135.705654 158.380363 
L 136.039203 175.671348 
L 136.094795 173.924486 
L 136.261569 177.40681 
L 136.428344 175.534879 
L 136.483935 176.378071 
L 136.595118 173.677196 
L 136.65071 173.862743 
L 136.873076 163.854306 
L 137.484583 139.086994 
L 137.76254 118.454586 
L 138.151681 98.056803 
L 138.374047 87.73015 
L 138.540822 80.276304 
L 138.929963 64.429797 
L 139.374695 54.674666 
L 139.430286 55.4444 
L 139.485878 55.420019 
L 139.541469 52.186884 
L 139.597061 52.28884 
L 139.652653 52.480719 
L 139.875019 49.621528 
L 139.93061 50.458704 
L 139.986202 49.805491 
L 140.152976 46.97258 
L 140.375342 50.8108 
L 140.430934 50.581558 
L 140.6533 56.114394 
L 141.320399 72.480179 
L 142.09868 120.800517 
L 143.043736 173.598038 
L 143.154919 177.297572 
L 143.210511 176.217855 
L 143.266102 177.277941 
L 143.432877 175.140672 
L 143.54406 177.098094 
L 143.710834 174.644508 
L 143.766426 174.817073 
L 143.9332 169.035047 
L 143.988792 169.09869 
L 144.878257 128.079265 
L 145.37858 101.905471 
L 145.600946 93.510277 
L 145.823313 83.233652 
L 145.934496 80.005267 
L 146.10127 73.607391 
L 146.156862 73.650136 
L 146.434819 63.316201 
L 146.490411 63.10469 
L 146.768369 54.657885 
L 146.82396 55.586568 
L 147.213101 50.581558 
L 147.268692 51.641643 
L 147.491059 48.707093 
L 147.54665 48.903089 
L 147.602242 48.546244 
L 148.158157 54.590442 
L 148.547298 65.912587 
L 149.381171 98.15116 
L 149.71472 120.869226 
L 149.992677 135.509363 
L 150.270635 151.141827 
L 150.548593 164.5205 
L 150.770959 173.952033 
L 150.82655 172.236518 
L 150.993325 178.756615 
L 151.048917 178.661625 
L 151.104508 177.957118 
L 151.215691 180.539256 
L 151.271283 179.168237 
L 151.326874 179.796436 
L 151.382466 179.981349 
L 151.54924 172.68392 
L 151.660423 171.434488 
L 151.993973 161.474812 
L 152.049564 160.88081 
L 152.661071 128.830634 
L 153.105803 105.351066 
L 153.272578 100.671238 
L 153.772902 79.119013 
L 153.939676 74.801095 
L 154.162042 64.058071 
L 154.273225 63.220578 
L 154.384408 63.849093 
L 154.606775 58.220634 
L 154.773549 53.98884 
L 154.829141 54.224098 
L 155.16269 49.263733 
L 155.218281 49.666173 
L 155.273873 49.460045 
L 155.385056 47.978522 
L 155.496239 48.564609 
L 155.551831 48.135571 
L 155.829788 51.994689 
L 155.940971 52.620671 
L 156.107746 51.921863 
L 156.330112 56.032703 
L 156.385704 56.199252 
L 156.60807 62.914077 
L 156.663661 63.346597 
L 157.163985 83.03449 
L 157.275168 86.844213 
L 157.608717 101.3311 
L 157.831083 115.477291 
L 157.942267 119.868667 
L 158.164633 133.302751 
L 158.553773 152.825995 
L 159.054097 170.102732 
L 159.109689 170.081834 
L 159.16528 169.478966 
L 159.332055 175.347116 
L 159.387646 175.096026 
L 159.498829 177.096827 
L 159.554421 175.515881 
L 159.610012 177.205116 
L 159.776787 173.129422 
L 159.832379 173.164251 
L 159.88797 172.498373 
L 159.943562 170.090383 
L 159.999153 170.769876 
L 160.054745 170.945607 
L 160.221519 164.845365 
L 160.833026 141.108376 
L 160.944209 134.379935 
L 160.999801 134.681369 
L 161.110984 129.745385 
L 161.33335 118.636967 
L 161.833674 94.568779 
L 161.889265 94.03462 
L 163.001096 59.007782 
L 163.334645 52.208732 
L 163.390237 52.268259 
L 163.557011 53.742817 
L 163.779377 49.745964 
L 163.834969 50.246877 
L 163.89056 50.158537 
L 164.168518 47.727432 
L 164.22411 48.863193 
L 164.279701 48.727358 
L 164.390884 48.662765 
L 164.446476 49.583215 
L 164.502067 48.348982 
L 164.557659 49.285581 
L 164.724433 50.837713 
L 164.9468 53.581651 
L 165.057983 53.827674 
L 165.224757 57.88057 
L 165.725081 72.360808 
L 165.891856 80.312717 
L 165.947447 79.927692 
L 166.225405 92.620856 
L 166.447771 100.877682 
L 167.114869 140.956709 
L 167.281644 147.138325 
L 167.448418 155.656373 
L 167.50401 156.436872 
L 167.837559 170.933892 
L 168.115517 175.499733 
L 168.171108 174.937077 
L 168.2267 175.301204 
L 168.337883 177.542013 
L 168.615841 171.90817 
L 168.671432 172.105116 
L 168.727024 172.722866 
L 168.893798 169.525194 
L 169.449714 151.521469 
L 169.505305 151.473658 
L 170.116812 123.778445 
L 170.172403 123.837656 
L 170.39477 112.36036 
L 170.895093 90.054866 
L 171.673375 66.929611 
L 171.784558 63.718324 
L 172.006924 58.09873 
L 172.062516 58.172189 
L 172.284882 52.772021 
L 172.396065 52.942053 
L 172.451656 53.100369 
L 172.674022 50.084128 
L 172.729614 50.342183 
L 172.785205 50.041383 
L 172.840797 50.818082 
L 172.896389 49.323893 
L 172.95198 49.38532 
L 173.007572 50.489418 
L 173.063163 49.646542 
L 173.229938 47.419665 
L 173.396712 46.643282 
L 173.507895 49.795676 
L 173.563487 49.231753 
L 173.619078 50.147454 
L 173.67467 49.782377 
L 173.730262 49.599047 
L 173.897036 52.189418 
L 174.286177 57.647529 
L 174.508543 63.96878 
L 174.564134 64.252166 
L 174.675318 69.192583 
L 175.008867 79.836819 
L 175.064458 80.75442 
L 175.286824 92.066433 
L 175.675965 110.454549 
L 176.120697 130.515435 
L 176.454247 145.674533 
L 176.787796 159.163395 
L 176.843387 158.009586 
L 177.232528 170.067585 
L 177.28812 169.016366 
L 177.343711 169.088241 
L 177.399303 169.991277 
L 177.454894 167.764717 
L 177.510486 168.870715 
L 177.566077 170.417781 
L 177.67726 167.501279 
L 177.732852 169.260173 
L 177.788443 167.091556 
L 177.899626 170.498522 
L 178.066401 164.887478 
L 178.177584 163.115602 
L 178.344359 158.134973 
L 178.39995 158.229012 
L 178.455542 158.941752 
L 178.677908 149.469057 
L 178.733499 148.45615 
L 179.011457 136.00426 
L 179.12264 131.134768 
L 179.400598 117.942908 
L 179.456189 117.289062 
L 180.734795 71.464105 
L 181.123935 61.0032 
L 181.401893 55.123334 
L 181.735442 49.363789 
L 181.791034 51.129648 
L 181.846625 50.03315 
L 182.458132 45.391634 
L 182.513724 45.809906 
L 182.569315 45.241234 
L 182.73609 46.7864 
L 182.791681 47.855668 
L 182.847273 47.209105 
L 183.069639 50.672431 
L 183.236413 53.411302 
L 183.403188 57.092789 
L 183.569963 59.814245 
L 183.736737 61.831827 
L 184.515019 87.875801 
L 184.792976 100.316926 
L 184.904159 105.71646 
L 185.515666 134.379935 
L 185.571258 134.623109 
L 186.01599 152.057528 
L 186.071582 152.768685 
L 186.127173 152.729739 
L 186.349539 163.455982 
L 186.405131 159.732384 
L 186.460722 162.676749 
L 186.627497 166.515919 
L 186.683088 165.816161 
L 186.73868 168.814987 
L 186.794271 168.399882 
L 186.849863 165.999174 
L 186.905455 166.901577 
L 186.961046 168.900478 
L 187.016638 168.306475 
L 187.127821 163.767548 
L 187.183412 165.667343 
L 187.405778 160.457472 
L 187.46137 160.878277 
L 187.516961 158.012752 
L 187.572553 161.255703 
L 187.739328 153.009326 
L 187.961694 144.755033 
L 188.18406 136.569765 
L 188.239651 136.665705 
L 188.517609 122.880792 
L 188.739975 112.770716 
L 189.62944 79.645889 
L 189.685031 80.119255 
L 189.907397 70.174777 
L 190.074172 66.745964 
L 190.296538 60.6986 
L 190.35213 60.794223 
L 191.186002 48.631101 
L 191.46396 46.544176 
L 191.519552 46.537527 
L 191.630735 47.138496 
L 191.686326 46.708192 
L 191.741918 47.275598 
L 191.853101 45.855817 
L 192.075467 48.875225 
L 192.131059 47.568483 
L 192.18665 47.749596 
L 192.353425 48.813165 
L 192.409016 49.122515 
L 192.631382 52.621938 
L 192.742565 54.816517 
L 192.798157 56.542481 
L 192.853748 55.9089 
L 192.90934 56.486754 
L 193.298481 67.356115 
L 193.409664 70.238104 
L 193.63203 79.314692 
L 193.687621 79.51512 
L 194.132354 98.902212 
L 194.410311 114.685393 
L 194.465903 115.724581 
L 194.688269 128.666935 
L 195.244184 154.970231 
L 195.299776 151.674719 
L 195.522142 163.431285 
L 195.577733 162.961402 
L 195.633325 161.329478 
L 195.744508 166.272745 
L 195.8001 164.992916 
L 195.911283 167.134618 
L 196.022466 165.309232 
L 196.133649 166.889545 
L 196.18924 166.154008 
L 196.244832 165.572987 
L 196.411606 163.395505 
L 196.467198 163.934097 
L 196.633973 159.294164 
L 196.689564 158.756206 
L 196.745156 159.936612 
L 196.856339 153.476675 
L 196.91193 154.814764 
L 196.967522 153.881331 
L 197.245479 140.32566 
L 197.301071 141.25561 
L 197.467846 135.692693 
L 197.690212 125.248253 
L 197.745803 125.37174 
L 198.023761 111.24993 
L 198.079352 110.717987 
L 198.35731 101.247509 
L 198.412902 100.398301 
L 198.802042 84.468519 
L 199.524732 64.80944 
L 200.358605 51.553936 
L 200.414197 52.44494 
L 200.580971 49.517039 
L 200.858929 46.502064 
L 201.025704 48.816965 
L 201.081295 49.510706 
L 201.24807 47.540619 
L 201.303661 47.171109 
L 201.359253 47.191057 
L 201.526027 48.847361 
L 201.581619 48.733057 
L 201.803985 54.555296 
L 201.859577 53.71242 
L 201.915168 53.205491 
L 201.97076 53.504709 
L 202.026351 53.453731 
L 202.860224 72.603982 
L 203.08259 80.758536 
L 203.249365 86.826798 
L 203.471731 95.527543 
L 203.694097 102.839221 
L 204.583562 140.101801 
L 204.694745 143.840914 
L 204.861519 151.312492 
L 205.083885 155.462594 
L 205.306252 161.46278 
L 205.473026 162.751791 
L 205.528618 161.625846 
L 205.584209 166.726163 
L 205.639801 166.710964 
L 205.806575 164.194369 
L 205.862167 164.952704 
L 205.917758 168.444844 
L 206.084533 162.250879 
L 206.140125 161.49951 
L 206.195716 161.524524 
L 206.251308 163.948346 
L 206.418082 158.665015 
L 206.529265 156.799417 
L 206.584857 156.879841 
L 206.918406 148.218359 
L 207.085181 141.788503 
L 207.251955 132.867382 
L 207.307547 133.317316 
L 207.41873 131.058777 
L 207.752279 115.05522 
L 208.030237 105.47107 
L 209.308842 66.752613 
L 209.364433 66.646858 
L 209.642391 60.803405 
L 209.97594 54.396029 
L 210.142715 56.144791 
L 210.309489 51.939278 
L 210.365081 52.628903 
L 210.531856 49.60348 
L 210.587447 50.351366 
L 210.643039 50.190516 
L 210.69863 50.212681 
L 210.809813 47.923744 
L 210.865405 50.160436 
L 210.920996 48.992379 
L 211.143362 51.061572 
L 211.310137 50.131623 
L 212.032827 59.098656 
L 212.255193 64.404467 
L 212.310785 64.625476 
L 212.477559 67.476119 
L 212.8667 79.060119 
L 213.033474 83.054438 
L 213.756164 115.872131 
L 213.811756 116.168183 
L 214.200897 134.644956 
L 214.590037 144.994723 
L 214.756812 150.414839 
L 214.979178 157.47891 
L 215.03477 156.458403 
L 215.145953 161.883268 
L 215.257136 160.681965 
L 215.479502 164.981517 
L 215.646276 167.058627 
L 215.75746 167.040895 
L 215.868643 164.951437 
L 215.924234 165.859539 
L 216.091009 160.375464 
L 216.1466 160.535364 
L 216.202192 161.505526 
L 216.257783 160.683231 
L 216.313375 160.287757 
L 216.924882 145.648253 
L 217.258431 133.638382 
L 217.314022 132.624841 
L 217.59198 120.077961 
L 217.647572 120.326201 
L 217.814346 111.015622 
L 217.869938 111.188503 
L 217.925529 111.456374 
L 218.259078 96.605993 
L 218.31467 95.830877 
L 218.592628 87.203591 
L 218.814994 80.337731 
L 219.593275 62.902679 
L 219.704458 61.088691 
L 219.871233 56.749559 
L 219.926824 56.831567 
L 220.093599 55.337061 
L 220.204782 53.337844 
L 220.260374 53.349876 
L 220.315965 53.258685 
L 220.427148 50.795285 
L 220.48274 51.321844 
L 220.538331 51.114767 
L 220.649514 53.058257 
L 220.705106 52.043133 
L 220.927472 49.938477 
L 220.983064 51.08627 
L 221.038655 50.845312 
L 221.20543 48.946467 
L 221.261021 50.733858 
L 221.316613 50.228196 
L 221.372204 50.507149 
L 221.427796 50.165502 
L 221.538979 52.529797 
L 221.650162 52.06973 
L 221.816936 55.627413 
L 221.872528 55.029611 
L 221.92812 55.088505 
L 221.983711 55.231306 
L 222.039303 55.062858 
L 222.761993 66.62786 
L 222.928767 71.280142 
L 222.984359 71.164571 
L 224.763288 140.167027 
L 224.930062 145.159689 
L 224.985654 145.370883 
L 225.263611 157.4159 
L 225.319203 155.888465 
L 225.597161 164.173471 
L 225.652752 162.297107 
L 225.708344 164.205134 
L 225.763935 163.484479 
L 225.819527 163.340094 
L 225.875118 165.686025 
L 225.93071 161.68474 
L 225.986301 163.030111 
L 226.041893 164.258329 
L 226.097484 163.836891 
L 226.153076 162.348401 
L 226.208667 166.988334 
L 226.319851 160.334935 
L 226.431034 163.089005 
L 226.597808 158.925604 
L 226.764583 160.428975 
L 226.931357 155.422699 
L 226.986949 154.66658 
L 227.04254 155.761812 
L 227.654047 136.206588 
L 227.709639 136.471293 
L 227.76523 137.665314 
L 227.932005 129.613033 
L 227.987597 128.986733 
L 228.209963 120.126089 
L 228.265554 120.024134 
L 228.432329 111.677701 
L 228.543512 110.96971 
L 228.599103 109.389714 
L 228.765878 102.419683 
L 229.099427 94.280644 
L 229.766526 76.009365 
L 229.822117 75.244697 
L 230.100075 67.760455 
L 230.211258 66.833038 
L 230.433624 61.373344 
L 230.544807 60.842984 
L 230.767173 57.804578 
L 230.822765 57.485096 
L 230.933948 54.174703 
L 230.989539 54.633187 
L 231.601046 49.780794 
L 231.656638 50.445089 
L 231.767821 48.635534 
L 231.823412 51.694521 
L 231.879004 50.706627 
L 231.934595 48.586456 
L 231.990187 49.078186 
L 232.10137 48.520597 
L 232.323736 51.287015 
L 232.379328 51.155612 
L 232.490511 50.521714 
L 232.546102 51.566918 
L 232.601694 51.417467 
L 232.657285 51.45388 
L 232.712877 50.992863 
L 232.990834 54.604374 
L 233.046426 54.963435 
L 233.268792 60.068184 
L 233.324384 59.928549 
L 233.379975 59.976677 
L 233.435567 60.485823 
L 233.713524 68.7322 
L 234.102665 77.684984 
L 234.65858 98.589062 
L 234.880946 104.45088 
L 235.548045 131.89342 
L 235.603636 132.581462 
L 235.826002 141.593774 
L 235.937186 144.218657 
L 236.10396 149.128677 
L 236.381918 154.959149 
L 236.437509 157.674272 
L 236.493101 155.477159 
L 236.548692 155.644341 
L 236.82665 162.881294 
L 236.882242 162.846781 
L 236.937833 163.676991 
L 236.993425 163.022512 
L 237.049016 163.291966 
L 237.215791 164.70953 
L 237.271382 163.851773 
L 237.326974 167.188129 
L 237.493748 163.083306 
L 237.604932 166.185038 
L 237.660523 164.354585 
L 237.716115 164.504036 
L 237.771706 164.239331 
L 237.994072 155.604129 
L 238.049664 156.047414 
L 238.105255 153.580214 
L 238.160847 155.242851 
L 238.383213 152.472 
L 238.605579 141.752723 
L 238.661171 143.53948 
L 239.217086 120.431323 
L 239.439452 112.797946 
L 239.495044 113.102864 
L 239.661818 104.628194 
L 239.71741 103.314169 
L 239.884184 95.047844 
L 239.939776 95.453451 
L 240.4401 75.655686 
L 240.606874 71.611023 
L 241.16279 57.690274 
L 241.607522 51.533672 
L 241.718705 52.054849 
L 242.052254 50.066713 
L 242.107846 50.611321 
L 242.27462 51.037192 
L 242.330212 50.161386 
L 242.385803 50.732591 
L 242.441395 50.854178 
L 242.608169 52.701412 
L 243.219676 66.06742 
L 243.553225 78.965446 
L 243.608817 79.787424 
L 244.275915 116.853059 
L 244.553873 133.06781 
L 244.609465 131.705024 
L 244.831831 145.018471 
L 245.16538 161.312697 
L 245.220971 159.334693 
L 245.276563 160.257994 
L 245.387746 165.120519 
L 245.443337 163.822642 
L 245.498929 165.20221 
L 245.554521 164.448942 
L 245.610112 164.635755 
L 245.665704 164.132942 
L 245.943661 157.558385 
L 245.999253 157.406401 
L 246.388394 144.325996 
L 246.555168 133.186864 
L 246.666351 125.667158 
L 248.056139 63.913053 
L 248.111731 64.273697 
L 248.389689 57.345461 
L 248.778829 53.108602 
L 249.223562 48.170718 
L 249.501519 51.82624 
L 249.557111 51.640693 
L 249.835068 53.608564 
L 249.89066 53.437266 
L 250.168618 60.87813 
L 250.224209 60.359803 
L 250.335392 63.391243 
L 251.613998 117.721582 
L 252.169913 146.578836 
L 252.225504 146.888819 
L 252.614645 159.308096 
L 252.725828 158.763805 
L 252.78142 159.449314 
L 252.948194 163.923015 
L 253.059377 160.732309 
L 253.114969 161.346576 
L 253.226152 163.488278 
L 253.392927 158.450972 
L 253.448518 158.867027 
L 253.559701 159.997405 
L 253.615293 156.616086 
L 253.670884 157.614745 
L 253.726476 157.799342 
L 253.948842 146.466115 
L 254.004433 145.835066 
L 254.560349 122.132273 
L 254.782715 110.982376 
L 254.838306 110.555238 
L 255.394222 86.516815 
L 256.116912 63.186381 
L 256.172503 62.839352 
L 256.450461 56.976268 
L 256.672827 53.296365 
L 256.839601 54.926072 
L 257.006376 50.609421 
L 257.061968 50.984947 
L 257.228742 50.569209 
L 257.284334 50.768054 
L 257.451108 50.236428 
L 258.118207 60.381334 
L 258.340573 67.231362 
L 258.451756 69.791019 
L 258.618531 77.881929 
L 258.95208 88.371331 
L 259.063263 96.034788 
L 260.119502 148.744919 
L 260.175093 146.705805 
L 260.39746 155.270715 
L 260.7866 163.898001 
L 260.842192 160.659167 
L 260.897783 161.953244 
L 261.064558 166.233799 
L 261.231333 159.232421 
L 261.50929 156.080978 
L 261.787248 144.80506 
L 261.842839 144.945645 
L 262.065205 131.793047 
L 262.120797 131.40074 
L 262.676712 101.544827 
L 262.732304 100.661422 
L 263.177036 82.45062 
L 263.955318 59.260138 
L 264.010909 60.740712 
L 264.122092 54.878577 
L 264.177684 54.928289 
L 264.233275 54.272859 
L 264.288867 54.520149 
L 264.40005 53.724452 
L 264.733599 49.645275 
L 264.789191 50.397277 
L 264.844782 50.263025 
L 264.900374 49.150379 
L 264.955965 49.694987 
L 265.011557 49.81784 
L 265.067148 49.399885 
L 265.178331 52.568743 
L 265.233923 51.588449 
L 265.289514 51.875318 
L 265.345106 51.704336 
L 265.567472 54.51255 
L 265.623064 54.507167 
L 266.56812 81.146727 
L 266.790486 91.930281 
L 266.846077 92.538215 
L 267.179626 111.826518 
L 268.40264 157.299063 
L 268.569415 159.631061 
L 268.625006 157.874067 
L 268.791781 162.85723 
L 268.847372 161.905749 
L 268.902964 162.861346 
L 269.014147 161.664159 
L 269.180922 164.473006 
L 269.403288 159.016478 
L 269.514471 160.721544 
L 269.625654 155.99802 
L 269.681245 156.897889 
L 270.681893 125.327095 
L 270.737484 124.681798 
L 271.126625 109.066432 
L 271.237808 106.24777 
L 271.460174 98.636557 
L 271.515766 101.194948 
L 271.738132 89.762298 
L 271.793724 89.948478 
L 272.071681 79.784574 
L 272.238456 75.370084 
L 272.294047 76.509961 
L 272.460822 70.593999 
L 272.516413 71.091112 
L 272.794371 63.096774 
L 272.849963 63.613835 
L 273.461469 54.016704 
L 273.517061 55.47353 
L 273.572653 54.512867 
L 273.683836 53.685189 
L 273.906202 50.86526 
L 273.961793 51.375355 
L 274.017385 51.344642 
L 274.072976 51.197724 
L 274.128568 50.570475 
L 274.184159 51.517207 
L 274.239751 50.966583 
L 274.350934 50.962783 
L 274.406526 50.43749 
L 274.462117 51.204057 
L 274.517709 49.790926 
L 274.5733 49.836521 
L 274.740075 50.179751 
L 274.795666 50.257959 
L 274.851258 51.630878 
L 274.906849 51.141364 
L 274.962441 50.269675 
L 275.018032 51.398153 
L 275.073624 50.329518 
L 275.129215 51.227805 
L 275.29599 55.925681 
L 275.351582 54.427693 
L 275.407173 54.925122 
L 275.462765 55.667942 
L 275.518356 55.611582 
L 275.573948 55.118902 
L 275.685131 57.803629 
L 275.740722 57.347361 
L 275.796314 57.548739 
L 275.851905 57.440768 
L 276.796961 75.355835 
L 276.963736 79.623092 
L 277.630834 102.251234 
L 277.686426 102.119515 
L 277.908792 110.243672 
L 278.131158 118.181016 
L 279.29858 152.660396 
L 279.354172 150.655163 
L 279.63213 157.281015 
L 279.854496 161.886118 
L 279.910087 161.363991 
L 279.965679 165.015397 
L 280.02127 162.442441 
L 280.076862 162.14164 
L 280.132453 162.94462 
L 280.188045 159.668107 
L 280.243636 161.542888 
L 280.299228 161.584684 
L 280.354819 161.864587 
L 280.410411 161.038493 
L 280.466002 161.513442 
L 280.521594 161.192693 
L 280.577186 161.884851 
L 280.688369 160.845347 
L 280.74396 161.490961 
L 280.799552 161.365891 
L 280.966326 156.364997 
L 281.021918 158.24801 
L 281.077509 160.149705 
L 281.133101 159.994239 
L 281.244284 154.897405 
L 281.299875 155.637692 
L 281.411059 155.925194 
L 281.46665 152.676545 
L 281.522242 153.652723 
L 281.577833 153.407966 
L 281.633425 152.545776 
L 281.800199 149.079283 
L 282.467298 134.05602 
L 282.522889 133.540859 
L 282.856438 123.527039 
L 282.91203 123.530839 
L 282.967621 123.527672 
L 283.245579 114.467866 
L 283.301171 115.866432 
L 283.467945 109.304857 
L 283.523537 109.816535 
L 284.023861 98.467792 
L 284.246227 93.467215 
L 284.301818 93.580569 
L 284.524184 88.929238 
L 284.579776 88.817783 
L 284.690959 86.001337 
L 284.74655 86.780253 
L 285.969564 65.771052 
L 286.025156 65.810948 
L 286.080747 65.879024 
L 286.525479 60.083066 
L 286.581071 60.481706 
L 286.636663 60.253731 
L 286.803437 57.941997 
L 286.859029 57.954979 
L 286.91462 59.406422 
L 286.970212 58.524601 
L 287.136986 55.286717 
L 287.192578 56.044735 
L 287.359352 53.719069 
L 287.581719 52.433225 
L 287.63731 53.335944 
L 287.692902 53.105752 
L 287.859676 51.613146 
L 287.915268 52.019702 
L 288.082042 52.852446 
L 288.137634 52.361032 
L 288.304408 49.478093 
L 288.36 50.219013 
L 288.415592 49.750714 
L 288.471183 49.904597 
L 288.526775 49.277032 
L 288.582366 50.726575 
L 288.637958 50.071463 
L 288.804732 49.348274 
L 289.08269 50.756022 
L 289.249465 48.836912 
L 289.471831 51.777162 
L 289.638605 50.080328 
L 289.860971 51.806609 
L 289.972154 51.98519 
L 290.083337 51.14643 
L 290.138929 52.13179 
L 290.250112 55.4425 
L 290.305704 53.554104 
L 290.361295 54.135758 
L 290.91721 59.060976 
L 290.972802 58.063267 
L 291.028394 59.017598 
L 291.25076 61.62285 
L 291.417534 59.860473 
L 291.584309 62.687052 
L 291.6399 62.67027 
L 291.695492 61.924917 
L 291.751083 62.474908 
L 291.97345 67.685096 
L 292.029041 67.379546 
L 292.084633 67.36688 
L 292.140224 67.699028 
L 292.36259 72.945629 
L 292.418182 71.274126 
L 292.473773 71.788337 
L 292.696139 75.361535 
L 292.751731 75.145908 
L 293.029689 82.090292 
L 293.08528 81.889547 
L 293.140872 81.214803 
L 293.418829 84.875075 
L 293.474421 85.337359 
L 293.696787 91.93883 
L 293.752379 90.439891 
L 293.80797 91.093104 
L 293.974745 93.608433 
L 294.030336 93.458666 
L 294.475068 101.892806 
L 294.53066 102.118882 
L 294.641843 105.522048 
L 294.697435 104.826406 
L 296.420772 133.535793 
L 296.476364 132.435811 
L 296.531955 132.995618 
L 296.69873 135.485616 
L 296.754321 135.69396 
L 297.032279 140.791427 
L 297.08787 141.254027 
L 297.199054 140.079004 
L 297.365828 143.775055 
L 297.42142 142.231471 
L 297.643786 147.397964 
L 297.699377 146.002565 
L 297.754969 146.50506 
L 297.977335 150.58677 
L 298.032927 148.035345 
L 298.088518 151.378035 
L 298.14411 150.555424 
L 298.199701 149.20182 
L 298.310884 152.034414 
L 298.366476 151.001559 
L 298.477659 157.97539 
L 298.53325 157.140747 
L 298.588842 154.76157 
L 298.644433 157.355107 
L 298.700025 153.579264 
L 298.755616 156.86401 
L 298.811208 157.373155 
L 298.922391 155.337841 
L 299.089166 156.969765 
L 299.367123 159.770696 
L 299.533898 158.983548 
L 299.589489 158.842646 
L 299.756264 157.829739 
L 299.867447 160.921339 
L 299.923039 160.520165 
L 300.034222 159.010145 
L 300.089813 159.653859 
L 300.145405 160.182002 
L 300.200996 158.951568 
L 300.256588 159.875502 
L 300.367771 161.051791 
L 300.478954 160.536314 
L 300.534545 159.436332 
L 300.590137 161.150897 
L 300.645729 159.421451 
L 300.70132 160.369765 
L 300.756912 162.248979 
L 300.812503 162.092879 
L 300.868095 159.682356 
L 300.923686 162.567195 
L 300.979278 161.193009 
L 301.034869 161.542572 
L 301.090461 160.320687 
L 301.146052 163.613982 
L 301.201644 161.529906 
L 301.257235 162.389247 
L 301.368418 160.000255 
L 301.535193 162.231247 
L 301.590785 161.095487 
L 301.646376 162.191352 
L 301.813151 160.450823 
L 301.868742 160.150022 
L 301.924334 161.515341 
L 302.035517 157.574533 
L 302.091108 159.24287 
L 302.202291 155.714 
L 302.313474 161.499193 
L 302.369066 157.485876 
L 302.424658 158.397144 
L 302.591432 156.490067 
L 302.702615 156.510331 
L 302.758207 161.292432 
L 302.813798 161.105935 
L 302.924981 158.249277 
L 303.036164 160.607556 
L 303.091756 157.07457 
L 303.147347 158.529497 
L 303.202939 158.398727 
L 303.258531 158.893941 
L 303.425305 155.44043 
L 303.480897 156.841212 
L 303.536488 153.698951 
L 303.59208 155.219104 
L 303.647671 158.393028 
L 303.703263 157.565034 
L 303.758854 157.778128 
L 303.925629 155.4056 
L 303.98122 155.614894 
L 304.036812 154.298653 
L 304.092403 156.240877 
L 304.147995 154.042497 
L 304.203587 155.024058 
L 304.259178 154.10709 
L 304.31477 154.116589 
L 304.370361 154.26224 
L 304.425953 151.230484 
L 304.481544 152.861458 
L 304.537136 152.495114 
L 304.648319 156.257975 
L 304.815093 149.252481 
L 304.870685 150.058627 
L 304.926276 152.540076 
L 304.981868 151.444528 
L 305.148643 149.667903 
L 305.204234 149.947489 
L 305.315417 151.743429 
L 305.371009 148.386491 
L 305.4266 149.453859 
L 305.482192 149.562147 
L 305.648966 146.365109 
L 305.815741 149.974403 
L 305.982516 145.036835 
L 306.038107 146.552555 
L 306.093699 145.717595 
L 306.14929 145.755591 
L 306.482839 141.939536 
L 306.594022 141.806551 
L 306.649614 144.082188 
L 306.705205 143.406811 
L 306.760797 142.930279 
L 306.816389 143.558795 
L 306.983163 140.45358 
L 307.094346 142.92363 
L 307.261121 139.010052 
L 307.316712 138.04464 
L 307.427895 139.472652 
L 307.483487 136.830037 
L 307.539078 136.904763 
L 307.59467 136.844603 
L 307.705853 138.986938 
L 307.817036 135.107557 
L 307.872628 137.450954 
L 307.983811 132.178073 
L 308.039402 133.061794 
L 308.094994 132.093532 
L 308.150585 132.189471 
L 308.261768 136.823705 
L 308.539726 131.724022 
L 308.595318 131.64423 
L 308.762092 134.815621 
L 308.928867 130.443243 
L 308.984458 128.693215 
L 309.04005 130.28271 
L 309.262416 127.134433 
L 309.318007 128.791688 
L 309.484782 126.068648 
L 309.595965 127.735085 
L 309.651557 125.879935 
L 309.707148 128.604558 
L 309.76274 128.537749 
L 309.873923 125.323929 
L 309.985106 127.919682 
L 310.096289 124.75114 
L 310.15188 125.015845 
L 310.207472 126.337786 
L 310.263064 125.61713 
L 310.318655 126.273193 
L 310.541021 122.336501 
L 310.652204 124.739425 
L 310.985753 120.36198 
L 311.096936 122.561627 
L 311.152528 123.425083 
L 311.20812 123.099269 
L 311.374894 116.662446 
L 311.486077 121.501224 
L 311.59726 119.242051 
L 311.652852 120.406309 
L 311.708443 119.444379 
L 311.764035 119.446913 
L 311.819626 122.440356 
L 311.930809 115.303776 
L 311.986401 116.543076 
L 312.041993 117.287162 
L 312.097584 120.474068 
L 312.153176 118.228511 
L 312.264359 113.927058 
L 312.31995 117.666805 
L 312.375542 116.35183 
L 312.431133 117.468593 
L 312.486725 116.544976 
L 312.542316 114.18923 
L 312.597908 116.096624 
L 312.653499 115.636557 
L 312.709091 117.794724 
L 312.764682 116.138736 
L 312.875866 112.606384 
L 312.931457 113.270362 
L 312.987049 118.041381 
L 313.04264 117.8647 
L 313.098232 116.646931 
L 313.153823 112.445851 
L 313.209415 112.893253 
L 313.265006 113.181388 
L 313.376189 115.296494 
L 313.487372 112.82391 
L 313.542964 114.299418 
L 313.598555 115.008991 
L 313.654147 117.387218 
L 313.820922 110.116386 
L 313.987696 112.044994 
L 314.043288 111.594426 
L 314.098879 110.232273 
L 314.154471 110.317447 
L 314.210062 111.279694 
L 314.265654 110.928231 
L 314.321245 110.229423 
L 314.376837 112.374609 
L 314.432428 110.282618 
L 314.599203 108.22514 
L 314.654795 108.480662 
L 314.710386 110.679042 
L 314.765978 108.99899 
L 314.821569 109.493253 
L 314.932752 105.832348 
L 314.988344 107.197351 
L 315.043935 109.481537 
L 315.099527 108.830858 
L 315.155118 108.864421 
L 315.266301 106.471945 
L 315.321893 108.242238 
L 315.377484 107.840115 
L 315.544259 105.168369 
L 315.711034 109.204167 
L 315.9334 105.644901 
L 315.988991 107.674199 
L 316.044583 107.376248 
L 316.100174 104.675056 
L 316.155766 106.39532 
L 316.32254 107.922122 
L 316.489315 104.933111 
L 316.600498 108.216591 
L 316.711681 105.745274 
L 316.878456 108.990757 
L 316.934047 107.42026 
L 317.04523 102.736632 
L 317.100822 107.742592 
L 317.156413 105.735142 
L 317.212005 106.465296 
L 317.267597 103.564626 
L 317.323188 104.755164 
L 317.37878 105.556244 
L 317.434371 104.944194 
L 317.489963 104.5712 
L 317.545554 102.523221 
L 317.601146 103.223296 
L 317.656737 103.399344 
L 317.712329 106.894966 
L 317.76792 106.153413 
L 317.823512 105.651234 
L 317.934695 102.670456 
L 318.045878 104.767829 
L 318.268244 100.783009 
L 318.379427 105.091744 
L 318.435019 104.122849 
L 318.546202 100.598096 
L 318.768568 105.880159 
L 318.879751 98.464942 
L 318.935342 99.796066 
L 319.046526 107.096661 
L 319.102117 104.441381 
L 319.157709 102.275931 
L 319.2133 102.29303 
L 319.324483 104.280215 
L 319.380075 103.872393 
L 319.491258 100.078185 
L 319.546849 101.017317 
L 319.658032 105.155071 
L 319.713624 103.608321 
L 319.769215 102.666656 
L 319.824807 99.435421 
L 319.880399 100.719366 
L 319.93599 99.889789 
L 320.047173 104.808991 
L 320.158356 99.579806 
L 320.213948 100.46416 
L 320.325131 102.234769 
L 320.380722 103.280923 
L 320.436314 102.508973 
L 320.547497 100.486641 
L 320.65868 102.185058 
L 320.825455 99.293886 
L 320.992229 102.148645 
L 321.270187 99.248925 
L 321.325778 101.275689 
L 321.38137 101.031249 
L 321.436961 99.81348 
L 321.492553 99.874907 
L 321.603736 101.857027 
L 321.770511 98.634024 
L 321.826102 96.465092 
L 321.992877 101.918453 
L 322.10406 97.002734 
L 322.159651 99.329349 
L 322.215243 101.040431 
L 322.270834 99.694743 
L 322.326426 99.545609 
L 322.382017 101.317168 
L 322.548792 97.771517 
L 322.604384 99.048813 
L 322.771158 96.485989 
L 322.937933 99.453153 
L 322.993524 99.149819 
L 323.049116 98.512437 
L 323.104707 100.385002 
L 323.160299 98.007409 
L 323.21589 99.275838 
L 323.271482 98.865166 
L 323.327073 97.446969 
L 323.382665 97.643598 
L 323.493848 98.508638 
L 323.54944 96.425196 
L 323.605031 96.620241 
L 323.660623 96.48029 
L 323.716214 96.001858 
L 323.827397 101.338066 
L 323.882989 100.684536 
L 323.994172 92.965036 
L 324.049763 94.22175 
L 324.160946 101.696177 
L 324.216538 97.043579 
L 324.27213 92.948887 
L 324.327721 93.999474 
L 324.383313 94.920242 
L 324.494496 99.099157 
L 324.550087 97.800014 
L 324.605679 93.419087 
L 324.66127 93.985542 
L 324.828045 100.437246 
L 324.939228 94.65237 
L 325.106002 99.689994 
L 325.161594 98.835719 
L 325.217186 94.250247 
L 325.272777 94.343337 
L 325.439552 99.982879 
L 325.606326 94.47474 
L 325.773101 100.025941 
L 325.939875 94.843933 
L 326.10665 98.587479 
L 326.217833 95.918267 
L 326.273425 97.887405 
L 326.329016 97.215511 
L 326.440199 97.581221 
L 326.495791 94.355686 
L 326.551382 96.316908 
L 326.662565 97.723389 
L 326.773748 95.780532 
L 326.884932 101.289304 
L 326.940523 98.090999 
L 326.996115 98.712232 
L 327.051706 96.653805 
L 327.107298 98.050471 
L 327.218481 99.222644 
L 327.385255 96.87798 
L 327.607621 99.903087 
L 327.829988 95.847658 
L 327.941171 97.504913 
L 328.052354 96.562298 
L 328.107945 96.689901 
L 328.163537 96.780774 
L 328.330311 98.282246 
L 328.441494 97.257623 
L 328.608269 98.691335 
L 328.663861 97.030597 
L 328.719452 97.554624 
L 328.775044 97.366861 
L 328.941818 99.860025 
L 329.108593 96.32514 
L 329.275367 99.002584 
L 329.330959 99.018099 
L 329.38655 97.488448 
L 329.442142 98.095116 
L 329.497733 101.368146 
L 329.553325 100.093067 
L 329.608917 99.980346 
L 329.775691 98.694818 
L 329.886874 100.46226 
L 330.053649 98.57703 
L 330.164832 96.503087 
L 330.276015 100.270064 
L 330.331606 99.319534 
L 330.387198 100.932776 
L 330.44279 99.872691 
L 330.498381 98.694501 
L 330.553973 99.422756 
L 330.609564 100.458144 
L 330.665156 100.192173 
L 330.720747 100.03544 
L 330.776339 99.259373 
L 330.887522 96.563564 
L 330.943113 100.298561 
L 330.998705 100.288746 
L 331.109888 96.697183 
L 331.165479 97.492881 
L 331.221071 96.719031 
L 331.332254 99.697276 
L 331.499029 96.518602 
L 331.55462 99.485132 
L 331.610212 99.212512 
L 331.665803 98.896829 
L 331.832578 96.126611 
L 331.888169 99.100741 
L 331.943761 98.064086 
L 331.999352 97.723706 
L 332.110535 95.021564 
L 332.27731 99.144436 
L 332.332902 98.761944 
L 332.444085 97.571406 
L 332.610859 101.816181 
L 332.777634 99.234359 
L 332.888817 101.650582 
L 332.944408 100.567699 
L 333 99.705192 
L 333.055592 100.683586 
L 333.111183 99.710891 
L 333.333549 101.413108 
L 333.389141 98.183773 
L 333.444732 99.409774 
L 333.555915 101.901355 
L 333.72269 98.841102 
L 333.778281 99.119739 
L 333.833873 102.535253 
L 333.889465 101.20888 
L 334.000648 98.388317 
L 334.167422 100.06647 
L 334.278605 99.041214 
L 334.334197 100.605062 
L 334.389788 99.283121 
L 334.44538 99.422756 
L 334.612154 97.573939 
L 334.667746 100.171275 
L 334.723337 99.942033 
L 334.945704 98.404782 
L 335.001295 95.3078 
L 335.112478 99.832795 
L 335.334844 96.525568 
L 335.390436 97.661329 
L 335.446027 97.518528 
L 335.501619 97.555891 
L 335.612802 94.334471 
L 335.723985 98.434546 
L 335.89076 95.146317 
L 336.113126 99.433521 
L 336.2799 95.976211 
L 336.335492 95.991093 
L 336.391083 96.193421 
L 336.446675 97.233559 
L 336.61345 94.924358 
L 336.835816 96.66457 
L 336.946999 94.866731 
L 337.00259 96.13611 
L 337.058182 95.779582 
L 337.169365 94.275261 
L 337.224956 95.493346 
L 337.280548 95.339463 
L 337.336139 93.550489 
L 337.391731 93.818044 
L 337.447323 94.668202 
L 337.502914 94.540599 
L 337.892055 91.556338 
L 337.947646 91.597183 
L 338.003238 91.550005 
L 338.170012 94.911376 
L 338.225604 90.987982 
L 338.281196 93.288318 
L 338.392379 91.365408 
L 338.503562 92.719962 
L 338.614745 89.433 
L 338.670336 89.569152 
L 338.837111 92.045218 
L 338.948294 88.59804 
L 339.003885 90.629554 
L 339.059477 89.31268 
L 339.393026 92.194985 
L 339.448618 91.859038 
L 339.504209 90.712512 
L 339.559801 92.946671 
L 339.615392 92.86403 
L 339.726575 92.235831 
L 339.89335 93.926965 
L 339.948941 94.120111 
L 340.004533 93.966228 
L 340.171308 92.707614 
L 340.226899 95.236241 
L 340.282491 91.423669 
L 340.338082 91.836557 
L 340.393674 93.315231 
L 340.449265 91.771331 
L 340.504857 94.837917 
L 340.560448 94.40508 
L 340.61604 93.387424 
L 340.671631 93.772132 
L 340.727223 94.489305 
L 340.949589 92.396997 
L 341.060772 95.620316 
L 341.116364 93.414337 
L 341.171955 95.034229 
L 341.227547 95.300517 
L 341.283138 94.92974 
L 341.33873 93.366842 
L 341.394321 93.63978 
L 341.561096 96.273212 
L 341.672279 93.282935 
L 341.72787 94.277161 
L 341.783462 96.157641 
L 341.839054 96.105397 
L 341.894645 94.614058 
L 341.950237 95.085524 
L 342.005828 94.863564 
L 342.06142 95.555723 
L 342.172603 93.501411 
L 342.228194 93.844324 
L 342.283786 94.484872 
L 342.339377 93.026779 
L 342.394969 93.41972 
L 342.506152 92.980867 
L 342.561743 94.292359 
L 342.617335 93.841475 
L 342.728518 94.435794 
L 342.895293 92.947304 
L 342.950884 94.167923 
L 343.006476 92.504969 
L 343.117659 95.361311 
L 343.17325 94.93449 
L 343.340025 92.733261 
L 343.451208 93.792713 
L 343.5068 93.356077 
L 343.617983 91.947379 
L 343.784757 93.462782 
L 343.89594 91.190627 
L 344.007123 92.527133 
L 344.062715 91.968277 
L 344.118306 92.545181 
L 344.340672 91.246988 
L 344.451856 92.932423 
L 344.507447 92.776639 
L 344.563039 91.955611 
L 344.61863 92.629722 
L 344.674222 93.333913 
L 344.729813 93.066675 
L 344.785405 92.821601 
L 344.840996 90.756841 
L 344.896588 91.101653 
L 344.952179 91.215641 
L 345.007771 92.901076 
L 345.063362 92.572095 
L 345.118954 91.452166 
L 345.285729 94.581445 
L 345.396912 91.636762 
L 345.452503 92.424227 
L 345.508095 92.652519 
L 345.563686 94.491521 
L 345.619278 93.85129 
L 345.786052 91.138066 
L 345.841644 91.360026 
L 346.119601 94.048236 
L 346.175193 93.107204 
L 346.286376 96.337805 
L 346.341968 96.030988 
L 346.397559 95.902119 
L 346.453151 93.678092 
L 346.508742 95.532925 
L 346.564334 94.92974 
L 346.619925 95.038662 
L 346.675517 95.025364 
L 346.842291 93.460566 
L 347.009066 96.328623 
L 347.120249 93.842741 
L 347.175841 94.825568 
L 347.287024 96.78394 
L 347.342615 95.407539 
L 347.398207 95.721955 
L 347.564981 96.100648 
L 347.731756 94.490888 
L 347.787347 94.449409 
L 347.842939 93.964961 
L 347.898531 96.349521 
L 347.954122 94.741977 
L 348.065305 96.8479 
L 348.176488 95.151067 
L 348.343263 96.674069 
L 348.454446 94.060901 
L 348.510037 95.518994 
L 348.565629 94.278111 
L 348.62122 94.40888 
L 348.676812 96.436911 
L 348.732403 95.065576 
L 348.787995 95.246056 
L 348.843587 93.673026 
L 348.899178 95.040878 
L 348.95477 95.379359 
L 349.065953 93.678092 
L 349.121544 96.477757 
L 349.177136 95.015231 
L 349.232727 94.18882 
L 349.288319 94.599809 
L 349.34391 96.238699 
L 349.399502 94.953805 
L 349.455093 94.629256 
L 349.510685 96.20387 
L 349.566276 96.196904 
L 349.621868 95.111171 
L 349.67746 95.424637 
L 349.788643 97.010016 
L 349.844234 95.345162 
L 349.899826 95.498412 
L 349.955417 96.347621 
L 350.011009 96.221285 
L 350.0666 92.071499 
L 350.122192 93.073007 
L 350.177783 93.519143 
L 350.233375 95.37081 
L 350.288966 94.865781 
L 350.344558 95.322998 
L 350.455741 92.413145 
L 350.511333 93.343095 
L 350.678107 96.148459 
L 350.844882 93.689174 
L 350.900473 94.897127 
L 351.067248 93.263304 
L 351.122839 94.733428 
L 351.178431 94.202119 
L 351.234022 94.09573 
L 351.289614 93.566954 
L 351.345205 93.678409 
L 351.400797 94.936706 
L 351.456389 94.489305 
L 351.51198 94.59791 
L 351.567572 94.473156 
L 351.623163 94.546932 
L 351.678755 93.364626 
L 351.789938 96.803888 
L 351.845529 96.170307 
L 352.012304 92.752259 
L 352.067895 92.761124 
L 352.23467 97.920018 
L 352.401445 93.433969 
L 352.457036 93.711339 
L 352.512628 95.88787 
L 352.568219 94.144492 
L 352.623811 94.359169 
L 352.679402 95.710873 
L 352.846177 91.601616 
L 352.901768 91.7555 
L 353.012951 93.863322 
L 353.068543 92.050284 
L 353.124134 94.700815 
L 353.179726 94.614058 
L 353.346501 91.222607 
L 353.402092 90.278726 
L 353.568867 93.78923 
L 353.624458 93.727803 
L 353.68005 94.961404 
L 353.791233 92.479955 
L 353.846824 92.647137 
L 353.902416 90.431659 
L 353.958007 90.692881 
L 354.124782 93.095488 
L 354.180374 93.275019 
L 354.235965 90.590925 
L 354.291557 91.525308 
L 354.347148 92.376099 
L 354.40274 91.897984 
L 354.458331 91.205509 
L 354.513923 91.757399 
L 354.569514 92.49167 
L 354.625106 91.04181 
L 354.680697 91.858088 
L 354.736289 91.897668 
L 354.847472 92.968519 
L 354.903064 92.654736 
L 355.12543 103.467103 
L 355.181021 107.019086 
L 355.347796 100.849502 
L 355.403387 102.585281 
L 355.458979 101.766786 
L 355.51457 102.205956 
L 355.736936 106.192676 
L 355.792528 106.511841 
L 355.84812 110.850973 
L 355.903711 108.570269 
L 355.959303 108.471796 
L 356.014894 107.854046 
L 356.126077 111.103329 
L 356.181669 110.065724 
L 356.23726 110.587535 
L 356.292852 110.648645 
L 356.348443 112.689658 
L 356.404035 112.391707 
L 356.459626 112.032329 
L 356.570809 109.977067 
L 356.681993 111.928157 
L 356.737584 111.427878 
L 356.793176 110.947229 
L 356.848767 111.826834 
L 356.904359 111.389248 
L 357.071133 109.838382 
L 357.126725 109.94952 
L 357.237908 108.334061 
L 357.293499 108.725419 
L 357.349091 110.888969 
L 357.404682 109.467922 
L 357.460274 108.487628 
L 357.515866 108.509476 
L 357.571457 108.624413 
L 357.627049 109.004689 
L 357.68264 111.038103 
L 357.738232 109.786771 
L 357.793823 109.58476 
L 357.849415 108.470846 
L 357.905006 108.733968 
L 357.960598 111.075782 
L 358.016189 110.053376 
L 358.071781 109.582543 
L 358.127372 107.708079 
L 358.238555 110.07364 
L 358.294147 108.376173 
L 358.349738 108.764998 
L 358.40533 121.206439 
L 358.460922 113.870064 
L 358.516513 110.368109 
L 358.627696 117.476192 
L 358.850062 106.132199 
L 359.016837 116.322383 
L 359.12802 115.716032 
L 359.183611 115.08625 
L 359.350386 118.11199 
L 359.405978 116.519328 
L 359.461569 117.818472 
L 359.572752 115.960789 
L 359.739527 119.603646 
L 359.906301 117.189323 
L 360.073076 120.633968 
L 360.128667 119.336091 
L 360.406625 126.631621 
L 360.462217 123.595748 
L 360.517808 126.552146 
L 360.5734 125.233688 
L 360.628991 125.654176 
L 360.740174 127.286734 
L 360.795766 126.588875 
L 360.851357 125.724785 
L 361.018132 130.114895 
L 361.129315 128.344919 
L 361.351681 132.134061 
L 361.407273 132.171423 
L 361.462864 131.065426 
L 361.518456 131.584387 
L 361.574047 134.723165 
L 361.629639 133.852425 
L 361.796413 134.132328 
L 361.907597 131.504912 
L 362.185554 135.815863 
L 362.241146 134.593979 
L 362.296737 135.889006 
L 362.40792 133.629833 
L 362.463512 134.005675 
L 362.519103 135.987162 
L 362.574695 135.0094 
L 362.630286 134.543951 
L 362.685878 134.618359 
L 362.852653 136.781276 
L 362.908244 135.04518 
L 362.963836 136.815789 
L 363.019427 136.749296 
L 363.075019 135.732589 
L 363.186202 138.304912 
L 363.241793 137.700144 
L 363.297385 137.974031 
L 363.352976 138.454679 
L 363.408568 136.130596 
L 363.464159 138.815957 
L 363.519751 136.52512 
L 363.686526 139.533129 
L 363.742117 139.195916 
L 363.908892 140.178743 
L 364.242441 125.135532 
L 364.298032 124.962334 
L 364.520399 114.632832 
L 364.57599 113.81212 
L 365.020722 94.78219 
L 365.076314 98.994669 
L 365.131905 95.125736 
L 365.521046 100.272597 
L 365.576638 98.023873 
L 365.632229 101.219329 
L 365.687821 99.237526 
L 365.743412 99.708358 
L 366.076961 95.452501 
L 366.299328 105.567643 
L 366.354919 104.516106 
L 366.410511 106.457064 
L 366.577285 102.931361 
L 366.632877 103.886641 
L 366.688468 102.374721 
L 366.74406 105.048366 
L 366.799651 102.063788 
L 366.855243 102.673305 
L 367.022017 106.663191 
L 367.188792 105.763639 
L 367.244384 106.064756 
L 367.299975 102.879116 
L 367.355567 103.702677 
L 367.522341 106.233838 
L 367.633524 107.793886 
L 367.689116 107.636203 
L 367.744707 107.191651 
L 367.800299 104.806775 
L 367.85589 105.810817 
L 367.911482 104.94356 
L 367.967073 107.506384 
L 368.022665 106.14708 
L 368.18944 104.269133 
L 368.300623 107.027319 
L 368.356214 105.794035 
L 368.411806 106.804093 
L 368.467397 107.246429 
L 368.57858 109.83205 
L 368.745355 107.701113 
L 368.856538 110.587218 
L 368.91213 108.454065 
L 369.023313 111.782506 
L 369.190087 109.057883 
L 369.245679 109.46064 
L 369.30127 107.538997 
L 369.356862 112.415138 
L 369.412453 109.160472 
L 369.468045 111.401597 
L 369.523636 110.337395 
L 369.690411 109.263378 
L 369.746002 105.258926 
L 369.801594 107.767289 
L 369.912777 112.557939 
L 369.968369 111.312623 
L 370.135143 110.833242 
L 370.190735 110.673342 
L 370.357509 107.924655 
L 370.524284 109.73326 
L 370.74665 113.175372 
L 370.802242 110.913666 
L 370.857833 114.393141 
L 370.913425 106.170511 
L 370.969016 110.897835 
L 371.024608 113.587311 
L 371.080199 112.789714 
L 371.246974 109.592992 
L 371.413748 111.959187 
L 371.46934 111.752109 
L 371.524932 110.499511 
L 371.580523 110.702472 
L 371.636115 110.926332 
L 371.802889 107.901225 
L 371.914072 110.63123 
L 371.969664 108.183977 
L 372.080847 111.658386 
L 372.136438 128.753692 
L 372.303213 239.380025 
L 372.358804 227.75328 
L 372.414396 232.885893 
L 372.469988 232.353317 
L 372.525579 229.376338 
L 372.692354 237.000216 
L 372.747945 235.602283 
L 372.91472 240.876114 
L 372.970311 240.304276 
L 373.025903 242.116364 
L 373.081494 240.819437 
L 373.137086 241.184514 
L 373.192677 240.297943 
L 373.248269 240.549666 
L 373.303861 241.412806 
L 373.359452 241.092374 
L 373.415044 239.254639 
L 373.470635 240.441378 
L 373.526227 239.9221 
L 373.581818 240.60286 
L 373.581818 240.60286 
" style="fill:none;stroke:#1f77b4;stroke-linecap:square;stroke-width:1.5;"/>
   </g>
   <g id="patch_3">
    <path d="M 54 252 
L 54 34.56 
" style="fill:none;stroke:#000000;stroke-linecap:square;stroke-linejoin:miter;stroke-width:0.8;"/>
   </g>
   <g id="patch_4">
    <path d="M 388.8 252 
L 388.8 34.56 
" style="fill:none;stroke:#000000;stroke-linecap:square;stroke-linejoin:miter;stroke-width:0.8;"/>
   </g>
   <g id="patch_5">
    <path d="M 54 252 
L 388.8 252 
" style="fill:none;stroke:#000000;stroke-linecap:square;stroke-linejoin:miter;stroke-width:0.8;"/>
   </g>
   <g id="patch_6">
    <path d="M 54 34.56 
L 388.8 34.56 
" style="fill:none;stroke:#000000;stroke-linecap:square;stroke-linejoin:miter;stroke-width:0.8;"/>
   </g>
  </g>
 </g>
 <defs>
  <clipPath id="p62b2a4fcaa">
   <rect height="217.44" width="334.8" x="54" y="34.56"/>
  </clipPath>
 </defs>
</svg>
