<?xml version="1.0" encoding="utf-8" standalone="no"?>
<!DOCTYPE svg PUBLIC "-//W3C//DTD SVG 1.1//EN"
  "http://www.w3.org/Graphics/SVG/1.1/DTD/svg11.dtd">
<!-- Created with matplotlib (https://matplotlib.org/) -->
<svg height="288pt" version="1.1" viewBox="0 0 432 288" width="432pt" xmlns="http://www.w3.org/2000/svg" xmlns:xlink="http://www.w3.org/1999/xlink">
 <defs>
  <style type="text/css">
*{stroke-linecap:butt;stroke-linejoin:round;}
  </style>
 </defs>
 <g id="figure_1">
  <g id="patch_1">
   <path d="M 0 288 
L 432 288 
L 432 0 
L 0 0 
z
" style="fill:#ffffff;"/>
  </g>
  <g id="axes_1">
   <g id="patch_2">
    <path d="M 54 252 
L 388.8 252 
L 388.8 34.56 
L 54 34.56 
z
" style="fill:#ffffff;"/>
   </g>
   <g id="matplotlib.axis_1">
    <g id="xtick_1">
     <g id="line2d_1">
      <defs>
       <path d="M 0 0 
L 0 3.5 
" id="m0a3d95d0ca" style="stroke:#000000;stroke-width:0.8;"/>
      </defs>
      <g>
       <use style="stroke:#000000;stroke-width:0.8;" x="69.218182" xlink:href="#m0a3d95d0ca" y="252"/>
      </g>
     </g>
     <g id="text_1">
      <!-- 0 -->
      <defs>
       <path d="M 31.78125 66.40625 
Q 24.171875 66.40625 20.328125 58.90625 
Q 16.5 51.421875 16.5 36.375 
Q 16.5 21.390625 20.328125 13.890625 
Q 24.171875 6.390625 31.78125 6.390625 
Q 39.453125 6.390625 43.28125 13.890625 
Q 47.125 21.390625 47.125 36.375 
Q 47.125 51.421875 43.28125 58.90625 
Q 39.453125 66.40625 31.78125 66.40625 
z
M 31.78125 74.21875 
Q 44.046875 74.21875 50.515625 64.515625 
Q 56.984375 54.828125 56.984375 36.375 
Q 56.984375 17.96875 50.515625 8.265625 
Q 44.046875 -1.421875 31.78125 -1.421875 
Q 19.53125 -1.421875 13.0625 8.265625 
Q 6.59375 17.96875 6.59375 36.375 
Q 6.59375 54.828125 13.0625 64.515625 
Q 19.53125 74.21875 31.78125 74.21875 
z
" id="DejaVuSans-48"/>
      </defs>
      <g transform="translate(66.036932 266.598437)scale(0.1 -0.1)">
       <use xlink:href="#DejaVuSans-48"/>
      </g>
     </g>
    </g>
    <g id="xtick_2">
     <g id="line2d_2">
      <g>
       <use style="stroke:#000000;stroke-width:0.8;" x="121.077721" xlink:href="#m0a3d95d0ca" y="252"/>
      </g>
     </g>
     <g id="text_2">
      <!-- 1000 -->
      <defs>
       <path d="M 12.40625 8.296875 
L 28.515625 8.296875 
L 28.515625 63.921875 
L 10.984375 60.40625 
L 10.984375 69.390625 
L 28.421875 72.90625 
L 38.28125 72.90625 
L 38.28125 8.296875 
L 54.390625 8.296875 
L 54.390625 0 
L 12.40625 0 
z
" id="DejaVuSans-49"/>
      </defs>
      <g transform="translate(108.352721 266.598437)scale(0.1 -0.1)">
       <use xlink:href="#DejaVuSans-49"/>
       <use x="63.623047" xlink:href="#DejaVuSans-48"/>
       <use x="127.246094" xlink:href="#DejaVuSans-48"/>
       <use x="190.869141" xlink:href="#DejaVuSans-48"/>
      </g>
     </g>
    </g>
    <g id="xtick_3">
     <g id="line2d_3">
      <g>
       <use style="stroke:#000000;stroke-width:0.8;" x="172.93726" xlink:href="#m0a3d95d0ca" y="252"/>
      </g>
     </g>
     <g id="text_3">
      <!-- 2000 -->
      <defs>
       <path d="M 19.1875 8.296875 
L 53.609375 8.296875 
L 53.609375 0 
L 7.328125 0 
L 7.328125 8.296875 
Q 12.9375 14.109375 22.625 23.890625 
Q 32.328125 33.6875 34.8125 36.53125 
Q 39.546875 41.84375 41.421875 45.53125 
Q 43.3125 49.21875 43.3125 52.78125 
Q 43.3125 58.59375 39.234375 62.25 
Q 35.15625 65.921875 28.609375 65.921875 
Q 23.96875 65.921875 18.8125 64.3125 
Q 13.671875 62.703125 7.8125 59.421875 
L 7.8125 69.390625 
Q 13.765625 71.78125 18.9375 73 
Q 24.125 74.21875 28.421875 74.21875 
Q 39.75 74.21875 46.484375 68.546875 
Q 53.21875 62.890625 53.21875 53.421875 
Q 53.21875 48.921875 51.53125 44.890625 
Q 49.859375 40.875 45.40625 35.40625 
Q 44.1875 33.984375 37.640625 27.21875 
Q 31.109375 20.453125 19.1875 8.296875 
z
" id="DejaVuSans-50"/>
      </defs>
      <g transform="translate(160.21226 266.598437)scale(0.1 -0.1)">
       <use xlink:href="#DejaVuSans-50"/>
       <use x="63.623047" xlink:href="#DejaVuSans-48"/>
       <use x="127.246094" xlink:href="#DejaVuSans-48"/>
       <use x="190.869141" xlink:href="#DejaVuSans-48"/>
      </g>
     </g>
    </g>
    <g id="xtick_4">
     <g id="line2d_4">
      <g>
       <use style="stroke:#000000;stroke-width:0.8;" x="224.7968" xlink:href="#m0a3d95d0ca" y="252"/>
      </g>
     </g>
     <g id="text_4">
      <!-- 3000 -->
      <defs>
       <path d="M 40.578125 39.3125 
Q 47.65625 37.796875 51.625 33 
Q 55.609375 28.21875 55.609375 21.1875 
Q 55.609375 10.40625 48.1875 4.484375 
Q 40.765625 -1.421875 27.09375 -1.421875 
Q 22.515625 -1.421875 17.65625 -0.515625 
Q 12.796875 0.390625 7.625 2.203125 
L 7.625 11.71875 
Q 11.71875 9.328125 16.59375 8.109375 
Q 21.484375 6.890625 26.8125 6.890625 
Q 36.078125 6.890625 40.9375 10.546875 
Q 45.796875 14.203125 45.796875 21.1875 
Q 45.796875 27.640625 41.28125 31.265625 
Q 36.765625 34.90625 28.71875 34.90625 
L 20.21875 34.90625 
L 20.21875 43.015625 
L 29.109375 43.015625 
Q 36.375 43.015625 40.234375 45.921875 
Q 44.09375 48.828125 44.09375 54.296875 
Q 44.09375 59.90625 40.109375 62.90625 
Q 36.140625 65.921875 28.71875 65.921875 
Q 24.65625 65.921875 20.015625 65.03125 
Q 15.375 64.15625 9.8125 62.3125 
L 9.8125 71.09375 
Q 15.4375 72.65625 20.34375 73.4375 
Q 25.25 74.21875 29.59375 74.21875 
Q 40.828125 74.21875 47.359375 69.109375 
Q 53.90625 64.015625 53.90625 55.328125 
Q 53.90625 49.265625 50.4375 45.09375 
Q 46.96875 40.921875 40.578125 39.3125 
z
" id="DejaVuSans-51"/>
      </defs>
      <g transform="translate(212.0718 266.598437)scale(0.1 -0.1)">
       <use xlink:href="#DejaVuSans-51"/>
       <use x="63.623047" xlink:href="#DejaVuSans-48"/>
       <use x="127.246094" xlink:href="#DejaVuSans-48"/>
       <use x="190.869141" xlink:href="#DejaVuSans-48"/>
      </g>
     </g>
    </g>
    <g id="xtick_5">
     <g id="line2d_5">
      <g>
       <use style="stroke:#000000;stroke-width:0.8;" x="276.656339" xlink:href="#m0a3d95d0ca" y="252"/>
      </g>
     </g>
     <g id="text_5">
      <!-- 4000 -->
      <defs>
       <path d="M 37.796875 64.3125 
L 12.890625 25.390625 
L 37.796875 25.390625 
z
M 35.203125 72.90625 
L 47.609375 72.90625 
L 47.609375 25.390625 
L 58.015625 25.390625 
L 58.015625 17.1875 
L 47.609375 17.1875 
L 47.609375 0 
L 37.796875 0 
L 37.796875 17.1875 
L 4.890625 17.1875 
L 4.890625 26.703125 
z
" id="DejaVuSans-52"/>
      </defs>
      <g transform="translate(263.931339 266.598437)scale(0.1 -0.1)">
       <use xlink:href="#DejaVuSans-52"/>
       <use x="63.623047" xlink:href="#DejaVuSans-48"/>
       <use x="127.246094" xlink:href="#DejaVuSans-48"/>
       <use x="190.869141" xlink:href="#DejaVuSans-48"/>
      </g>
     </g>
    </g>
    <g id="xtick_6">
     <g id="line2d_6">
      <g>
       <use style="stroke:#000000;stroke-width:0.8;" x="328.515878" xlink:href="#m0a3d95d0ca" y="252"/>
      </g>
     </g>
     <g id="text_6">
      <!-- 5000 -->
      <defs>
       <path d="M 10.796875 72.90625 
L 49.515625 72.90625 
L 49.515625 64.59375 
L 19.828125 64.59375 
L 19.828125 46.734375 
Q 21.96875 47.46875 24.109375 47.828125 
Q 26.265625 48.1875 28.421875 48.1875 
Q 40.625 48.1875 47.75 41.5 
Q 54.890625 34.8125 54.890625 23.390625 
Q 54.890625 11.625 47.5625 5.09375 
Q 40.234375 -1.421875 26.90625 -1.421875 
Q 22.3125 -1.421875 17.546875 -0.640625 
Q 12.796875 0.140625 7.71875 1.703125 
L 7.71875 11.625 
Q 12.109375 9.234375 16.796875 8.0625 
Q 21.484375 6.890625 26.703125 6.890625 
Q 35.15625 6.890625 40.078125 11.328125 
Q 45.015625 15.765625 45.015625 23.390625 
Q 45.015625 31 40.078125 35.4375 
Q 35.15625 39.890625 26.703125 39.890625 
Q 22.75 39.890625 18.8125 39.015625 
Q 14.890625 38.140625 10.796875 36.28125 
z
" id="DejaVuSans-53"/>
      </defs>
      <g transform="translate(315.790878 266.598437)scale(0.1 -0.1)">
       <use xlink:href="#DejaVuSans-53"/>
       <use x="63.623047" xlink:href="#DejaVuSans-48"/>
       <use x="127.246094" xlink:href="#DejaVuSans-48"/>
       <use x="190.869141" xlink:href="#DejaVuSans-48"/>
      </g>
     </g>
    </g>
    <g id="xtick_7">
     <g id="line2d_7">
      <g>
       <use style="stroke:#000000;stroke-width:0.8;" x="380.375418" xlink:href="#m0a3d95d0ca" y="252"/>
      </g>
     </g>
     <g id="text_7">
      <!-- 6000 -->
      <defs>
       <path d="M 33.015625 40.375 
Q 26.375 40.375 22.484375 35.828125 
Q 18.609375 31.296875 18.609375 23.390625 
Q 18.609375 15.53125 22.484375 10.953125 
Q 26.375 6.390625 33.015625 6.390625 
Q 39.65625 6.390625 43.53125 10.953125 
Q 47.40625 15.53125 47.40625 23.390625 
Q 47.40625 31.296875 43.53125 35.828125 
Q 39.65625 40.375 33.015625 40.375 
z
M 52.59375 71.296875 
L 52.59375 62.3125 
Q 48.875 64.0625 45.09375 64.984375 
Q 41.3125 65.921875 37.59375 65.921875 
Q 27.828125 65.921875 22.671875 59.328125 
Q 17.53125 52.734375 16.796875 39.40625 
Q 19.671875 43.65625 24.015625 45.921875 
Q 28.375 48.1875 33.59375 48.1875 
Q 44.578125 48.1875 50.953125 41.515625 
Q 57.328125 34.859375 57.328125 23.390625 
Q 57.328125 12.15625 50.6875 5.359375 
Q 44.046875 -1.421875 33.015625 -1.421875 
Q 20.359375 -1.421875 13.671875 8.265625 
Q 6.984375 17.96875 6.984375 36.375 
Q 6.984375 53.65625 15.1875 63.9375 
Q 23.390625 74.21875 37.203125 74.21875 
Q 40.921875 74.21875 44.703125 73.484375 
Q 48.484375 72.75 52.59375 71.296875 
z
" id="DejaVuSans-54"/>
      </defs>
      <g transform="translate(367.650418 266.598437)scale(0.1 -0.1)">
       <use xlink:href="#DejaVuSans-54"/>
       <use x="63.623047" xlink:href="#DejaVuSans-48"/>
       <use x="127.246094" xlink:href="#DejaVuSans-48"/>
       <use x="190.869141" xlink:href="#DejaVuSans-48"/>
      </g>
     </g>
    </g>
    <g id="text_8">
     <!-- Frames -->
     <defs>
      <path d="M 9.8125 72.90625 
L 51.703125 72.90625 
L 51.703125 64.59375 
L 19.671875 64.59375 
L 19.671875 43.109375 
L 48.578125 43.109375 
L 48.578125 34.8125 
L 19.671875 34.8125 
L 19.671875 0 
L 9.8125 0 
z
" id="DejaVuSans-70"/>
      <path d="M 41.109375 46.296875 
Q 39.59375 47.171875 37.8125 47.578125 
Q 36.03125 48 33.890625 48 
Q 26.265625 48 22.1875 43.046875 
Q 18.109375 38.09375 18.109375 28.8125 
L 18.109375 0 
L 9.078125 0 
L 9.078125 54.6875 
L 18.109375 54.6875 
L 18.109375 46.1875 
Q 20.953125 51.171875 25.484375 53.578125 
Q 30.03125 56 36.53125 56 
Q 37.453125 56 38.578125 55.875 
Q 39.703125 55.765625 41.0625 55.515625 
z
" id="DejaVuSans-114"/>
      <path d="M 34.28125 27.484375 
Q 23.390625 27.484375 19.1875 25 
Q 14.984375 22.515625 14.984375 16.5 
Q 14.984375 11.71875 18.140625 8.90625 
Q 21.296875 6.109375 26.703125 6.109375 
Q 34.1875 6.109375 38.703125 11.40625 
Q 43.21875 16.703125 43.21875 25.484375 
L 43.21875 27.484375 
z
M 52.203125 31.203125 
L 52.203125 0 
L 43.21875 0 
L 43.21875 8.296875 
Q 40.140625 3.328125 35.546875 0.953125 
Q 30.953125 -1.421875 24.3125 -1.421875 
Q 15.921875 -1.421875 10.953125 3.296875 
Q 6 8.015625 6 15.921875 
Q 6 25.140625 12.171875 29.828125 
Q 18.359375 34.515625 30.609375 34.515625 
L 43.21875 34.515625 
L 43.21875 35.40625 
Q 43.21875 41.609375 39.140625 45 
Q 35.0625 48.390625 27.6875 48.390625 
Q 23 48.390625 18.546875 47.265625 
Q 14.109375 46.140625 10.015625 43.890625 
L 10.015625 52.203125 
Q 14.9375 54.109375 19.578125 55.046875 
Q 24.21875 56 28.609375 56 
Q 40.484375 56 46.34375 49.84375 
Q 52.203125 43.703125 52.203125 31.203125 
z
" id="DejaVuSans-97"/>
      <path d="M 52 44.1875 
Q 55.375 50.25 60.0625 53.125 
Q 64.75 56 71.09375 56 
Q 79.640625 56 84.28125 50.015625 
Q 88.921875 44.046875 88.921875 33.015625 
L 88.921875 0 
L 79.890625 0 
L 79.890625 32.71875 
Q 79.890625 40.578125 77.09375 44.375 
Q 74.3125 48.1875 68.609375 48.1875 
Q 61.625 48.1875 57.5625 43.546875 
Q 53.515625 38.921875 53.515625 30.90625 
L 53.515625 0 
L 44.484375 0 
L 44.484375 32.71875 
Q 44.484375 40.625 41.703125 44.40625 
Q 38.921875 48.1875 33.109375 48.1875 
Q 26.21875 48.1875 22.15625 43.53125 
Q 18.109375 38.875 18.109375 30.90625 
L 18.109375 0 
L 9.078125 0 
L 9.078125 54.6875 
L 18.109375 54.6875 
L 18.109375 46.1875 
Q 21.1875 51.21875 25.484375 53.609375 
Q 29.78125 56 35.6875 56 
Q 41.65625 56 45.828125 52.96875 
Q 50 49.953125 52 44.1875 
z
" id="DejaVuSans-109"/>
      <path d="M 56.203125 29.59375 
L 56.203125 25.203125 
L 14.890625 25.203125 
Q 15.484375 15.921875 20.484375 11.0625 
Q 25.484375 6.203125 34.421875 6.203125 
Q 39.59375 6.203125 44.453125 7.46875 
Q 49.3125 8.734375 54.109375 11.28125 
L 54.109375 2.78125 
Q 49.265625 0.734375 44.1875 -0.34375 
Q 39.109375 -1.421875 33.890625 -1.421875 
Q 20.796875 -1.421875 13.15625 6.1875 
Q 5.515625 13.8125 5.515625 26.8125 
Q 5.515625 40.234375 12.765625 48.109375 
Q 20.015625 56 32.328125 56 
Q 43.359375 56 49.78125 48.890625 
Q 56.203125 41.796875 56.203125 29.59375 
z
M 47.21875 32.234375 
Q 47.125 39.59375 43.09375 43.984375 
Q 39.0625 48.390625 32.421875 48.390625 
Q 24.90625 48.390625 20.390625 44.140625 
Q 15.875 39.890625 15.1875 32.171875 
z
" id="DejaVuSans-101"/>
      <path d="M 44.28125 53.078125 
L 44.28125 44.578125 
Q 40.484375 46.53125 36.375 47.5 
Q 32.28125 48.484375 27.875 48.484375 
Q 21.1875 48.484375 17.84375 46.4375 
Q 14.5 44.390625 14.5 40.28125 
Q 14.5 37.15625 16.890625 35.375 
Q 19.28125 33.59375 26.515625 31.984375 
L 29.59375 31.296875 
Q 39.15625 29.25 43.1875 25.515625 
Q 47.21875 21.78125 47.21875 15.09375 
Q 47.21875 7.46875 41.1875 3.015625 
Q 35.15625 -1.421875 24.609375 -1.421875 
Q 20.21875 -1.421875 15.453125 -0.5625 
Q 10.6875 0.296875 5.421875 2 
L 5.421875 11.28125 
Q 10.40625 8.6875 15.234375 7.390625 
Q 20.0625 6.109375 24.8125 6.109375 
Q 31.15625 6.109375 34.5625 8.28125 
Q 37.984375 10.453125 37.984375 14.40625 
Q 37.984375 18.0625 35.515625 20.015625 
Q 33.0625 21.96875 24.703125 23.78125 
L 21.578125 24.515625 
Q 13.234375 26.265625 9.515625 29.90625 
Q 5.8125 33.546875 5.8125 39.890625 
Q 5.8125 47.609375 11.28125 51.796875 
Q 16.75 56 26.8125 56 
Q 31.78125 56 36.171875 55.265625 
Q 40.578125 54.546875 44.28125 53.078125 
z
" id="DejaVuSans-115"/>
     </defs>
     <g transform="translate(191.73375 284.835625)scale(0.16 -0.16)">
      <use xlink:href="#DejaVuSans-70"/>
      <use x="57.410156" xlink:href="#DejaVuSans-114"/>
      <use x="98.523438" xlink:href="#DejaVuSans-97"/>
      <use x="159.802734" xlink:href="#DejaVuSans-109"/>
      <use x="257.214844" xlink:href="#DejaVuSans-101"/>
      <use x="318.738281" xlink:href="#DejaVuSans-115"/>
     </g>
    </g>
   </g>
   <g id="matplotlib.axis_2">
    <g id="ytick_1">
     <g id="line2d_8">
      <defs>
       <path d="M 0 0 
L -3.5 0 
" id="m0f1e9e4f9f" style="stroke:#000000;stroke-width:0.8;"/>
      </defs>
      <g>
       <use style="stroke:#000000;stroke-width:0.8;" x="54" xlink:href="#m0f1e9e4f9f" y="244.022484"/>
      </g>
     </g>
     <g id="text_9">
      <!-- 0 -->
      <g transform="translate(40.6375 247.821702)scale(0.1 -0.1)">
       <use xlink:href="#DejaVuSans-48"/>
      </g>
     </g>
    </g>
    <g id="ytick_2">
     <g id="line2d_9">
      <g>
       <use style="stroke:#000000;stroke-width:0.8;" x="54" xlink:href="#m0f1e9e4f9f" y="199.849198"/>
      </g>
     </g>
     <g id="text_10">
      <!-- 10 -->
      <g transform="translate(34.275 203.648417)scale(0.1 -0.1)">
       <use xlink:href="#DejaVuSans-49"/>
       <use x="63.623047" xlink:href="#DejaVuSans-48"/>
      </g>
     </g>
    </g>
    <g id="ytick_3">
     <g id="line2d_10">
      <g>
       <use style="stroke:#000000;stroke-width:0.8;" x="54" xlink:href="#m0f1e9e4f9f" y="155.675912"/>
      </g>
     </g>
     <g id="text_11">
      <!-- 20 -->
      <g transform="translate(34.275 159.475131)scale(0.1 -0.1)">
       <use xlink:href="#DejaVuSans-50"/>
       <use x="63.623047" xlink:href="#DejaVuSans-48"/>
      </g>
     </g>
    </g>
    <g id="ytick_4">
     <g id="line2d_11">
      <g>
       <use style="stroke:#000000;stroke-width:0.8;" x="54" xlink:href="#m0f1e9e4f9f" y="111.502627"/>
      </g>
     </g>
     <g id="text_12">
      <!-- 30 -->
      <g transform="translate(34.275 115.301846)scale(0.1 -0.1)">
       <use xlink:href="#DejaVuSans-51"/>
       <use x="63.623047" xlink:href="#DejaVuSans-48"/>
      </g>
     </g>
    </g>
    <g id="ytick_5">
     <g id="line2d_12">
      <g>
       <use style="stroke:#000000;stroke-width:0.8;" x="54" xlink:href="#m0f1e9e4f9f" y="67.329341"/>
      </g>
     </g>
     <g id="text_13">
      <!-- 40 -->
      <g transform="translate(34.275 71.12856)scale(0.1 -0.1)">
       <use xlink:href="#DejaVuSans-52"/>
       <use x="63.623047" xlink:href="#DejaVuSans-48"/>
      </g>
     </g>
    </g>
    <g id="text_14">
     <!-- Average Brightness -->
     <defs>
      <path d="M 34.1875 63.1875 
L 20.796875 26.90625 
L 47.609375 26.90625 
z
M 28.609375 72.90625 
L 39.796875 72.90625 
L 67.578125 0 
L 57.328125 0 
L 50.6875 18.703125 
L 17.828125 18.703125 
L 11.1875 0 
L 0.78125 0 
z
" id="DejaVuSans-65"/>
      <path d="M 2.984375 54.6875 
L 12.5 54.6875 
L 29.59375 8.796875 
L 46.6875 54.6875 
L 56.203125 54.6875 
L 35.6875 0 
L 23.484375 0 
z
" id="DejaVuSans-118"/>
      <path d="M 45.40625 27.984375 
Q 45.40625 37.75 41.375 43.109375 
Q 37.359375 48.484375 30.078125 48.484375 
Q 22.859375 48.484375 18.828125 43.109375 
Q 14.796875 37.75 14.796875 27.984375 
Q 14.796875 18.265625 18.828125 12.890625 
Q 22.859375 7.515625 30.078125 7.515625 
Q 37.359375 7.515625 41.375 12.890625 
Q 45.40625 18.265625 45.40625 27.984375 
z
M 54.390625 6.78125 
Q 54.390625 -7.171875 48.1875 -13.984375 
Q 42 -20.796875 29.203125 -20.796875 
Q 24.46875 -20.796875 20.265625 -20.09375 
Q 16.0625 -19.390625 12.109375 -17.921875 
L 12.109375 -9.1875 
Q 16.0625 -11.328125 19.921875 -12.34375 
Q 23.78125 -13.375 27.78125 -13.375 
Q 36.625 -13.375 41.015625 -8.765625 
Q 45.40625 -4.15625 45.40625 5.171875 
L 45.40625 9.625 
Q 42.625 4.78125 38.28125 2.390625 
Q 33.9375 0 27.875 0 
Q 17.828125 0 11.671875 7.65625 
Q 5.515625 15.328125 5.515625 27.984375 
Q 5.515625 40.671875 11.671875 48.328125 
Q 17.828125 56 27.875 56 
Q 33.9375 56 38.28125 53.609375 
Q 42.625 51.21875 45.40625 46.390625 
L 45.40625 54.6875 
L 54.390625 54.6875 
z
" id="DejaVuSans-103"/>
      <path id="DejaVuSans-32"/>
      <path d="M 19.671875 34.8125 
L 19.671875 8.109375 
L 35.5 8.109375 
Q 43.453125 8.109375 47.28125 11.40625 
Q 51.125 14.703125 51.125 21.484375 
Q 51.125 28.328125 47.28125 31.5625 
Q 43.453125 34.8125 35.5 34.8125 
z
M 19.671875 64.796875 
L 19.671875 42.828125 
L 34.28125 42.828125 
Q 41.5 42.828125 45.03125 45.53125 
Q 48.578125 48.25 48.578125 53.8125 
Q 48.578125 59.328125 45.03125 62.0625 
Q 41.5 64.796875 34.28125 64.796875 
z
M 9.8125 72.90625 
L 35.015625 72.90625 
Q 46.296875 72.90625 52.390625 68.21875 
Q 58.5 63.53125 58.5 54.890625 
Q 58.5 48.1875 55.375 44.234375 
Q 52.25 40.28125 46.1875 39.3125 
Q 53.46875 37.75 57.5 32.78125 
Q 61.53125 27.828125 61.53125 20.40625 
Q 61.53125 10.640625 54.890625 5.3125 
Q 48.25 0 35.984375 0 
L 9.8125 0 
z
" id="DejaVuSans-66"/>
      <path d="M 9.421875 54.6875 
L 18.40625 54.6875 
L 18.40625 0 
L 9.421875 0 
z
M 9.421875 75.984375 
L 18.40625 75.984375 
L 18.40625 64.59375 
L 9.421875 64.59375 
z
" id="DejaVuSans-105"/>
      <path d="M 54.890625 33.015625 
L 54.890625 0 
L 45.90625 0 
L 45.90625 32.71875 
Q 45.90625 40.484375 42.875 44.328125 
Q 39.84375 48.1875 33.796875 48.1875 
Q 26.515625 48.1875 22.3125 43.546875 
Q 18.109375 38.921875 18.109375 30.90625 
L 18.109375 0 
L 9.078125 0 
L 9.078125 75.984375 
L 18.109375 75.984375 
L 18.109375 46.1875 
Q 21.34375 51.125 25.703125 53.5625 
Q 30.078125 56 35.796875 56 
Q 45.21875 56 50.046875 50.171875 
Q 54.890625 44.34375 54.890625 33.015625 
z
" id="DejaVuSans-104"/>
      <path d="M 18.3125 70.21875 
L 18.3125 54.6875 
L 36.8125 54.6875 
L 36.8125 47.703125 
L 18.3125 47.703125 
L 18.3125 18.015625 
Q 18.3125 11.328125 20.140625 9.421875 
Q 21.96875 7.515625 27.59375 7.515625 
L 36.8125 7.515625 
L 36.8125 0 
L 27.59375 0 
Q 17.1875 0 13.234375 3.875 
Q 9.28125 7.765625 9.28125 18.015625 
L 9.28125 47.703125 
L 2.6875 47.703125 
L 2.6875 54.6875 
L 9.28125 54.6875 
L 9.28125 70.21875 
z
" id="DejaVuSans-116"/>
      <path d="M 54.890625 33.015625 
L 54.890625 0 
L 45.90625 0 
L 45.90625 32.71875 
Q 45.90625 40.484375 42.875 44.328125 
Q 39.84375 48.1875 33.796875 48.1875 
Q 26.515625 48.1875 22.3125 43.546875 
Q 18.109375 38.921875 18.109375 30.90625 
L 18.109375 0 
L 9.078125 0 
L 9.078125 54.6875 
L 18.109375 54.6875 
L 18.109375 46.1875 
Q 21.34375 51.125 25.703125 53.5625 
Q 30.078125 56 35.796875 56 
Q 45.21875 56 50.046875 50.171875 
Q 54.890625 44.34375 54.890625 33.015625 
z
" id="DejaVuSans-110"/>
     </defs>
     <g transform="translate(26.9475 221.75125)rotate(-90)scale(0.16 -0.16)">
      <use xlink:href="#DejaVuSans-65"/>
      <use x="68.330078" xlink:href="#DejaVuSans-118"/>
      <use x="127.509766" xlink:href="#DejaVuSans-101"/>
      <use x="189.033203" xlink:href="#DejaVuSans-114"/>
      <use x="230.146484" xlink:href="#DejaVuSans-97"/>
      <use x="291.425781" xlink:href="#DejaVuSans-103"/>
      <use x="354.902344" xlink:href="#DejaVuSans-101"/>
      <use x="416.425781" xlink:href="#DejaVuSans-32"/>
      <use x="448.212891" xlink:href="#DejaVuSans-66"/>
      <use x="516.816406" xlink:href="#DejaVuSans-114"/>
      <use x="557.929688" xlink:href="#DejaVuSans-105"/>
      <use x="585.712891" xlink:href="#DejaVuSans-103"/>
      <use x="649.189453" xlink:href="#DejaVuSans-104"/>
      <use x="712.568359" xlink:href="#DejaVuSans-116"/>
      <use x="751.777344" xlink:href="#DejaVuSans-110"/>
      <use x="815.15625" xlink:href="#DejaVuSans-101"/>
      <use x="876.679688" xlink:href="#DejaVuSans-115"/>
      <use x="928.779297" xlink:href="#DejaVuSans-115"/>
     </g>
    </g>
   </g>
   <g id="line2d_13">
    <path clip-path="url(#p7578c651d9)" d="M 69.218182 124.293528 
L 69.270041 122.683138 
L 69.321901 124.124085 
L 69.42562 122.29292 
L 69.47748 119.355151 
L 69.529339 122.631805 
L 69.736777 126.330932 
L 69.788637 121.479775 
L 69.840496 124.504764 
L 69.892356 122.791709 
L 69.944215 123.847888 
L 69.996075 126.034293 
L 70.047934 125.475086 
L 70.099794 122.57911 
L 70.151654 122.839407 
L 70.307232 126.451768 
L 70.359092 122.513695 
L 70.462811 122.891194 
L 70.56653 122.401944 
L 70.722108 124.428446 
L 70.773968 122.982502 
L 70.825828 124.503855 
L 70.877687 123.830626 
L 70.929547 125.111669 
L 70.981406 124.554279 
L 71.085125 125.294286 
L 71.136985 124.200857 
L 71.292563 125.993863 
L 71.344423 124.600615 
L 71.448142 124.636502 
L 71.500002 124.579264 
L 71.603721 121.42072 
L 71.65558 126.00204 
L 71.759299 125.848042 
L 71.811159 123.098796 
L 71.863018 123.573963 
L 71.966737 124.860458 
L 72.018597 124.437077 
L 72.070456 124.623783 
L 72.122316 126.878783 
L 72.174176 125.044437 
L 72.226035 125.140288 
L 72.277895 126.139684 
L 72.329754 124.886351 
L 72.433473 124.981748 
L 72.485333 126.983719 
L 72.537192 124.583807 
L 72.640911 124.790046 
L 72.74463 126.682083 
L 72.84835 123.770662 
L 72.900209 126.830176 
L 72.952069 125.887564 
L 73.055788 125.219786 
L 73.159507 128.390595 
L 73.211366 127.950861 
L 73.263226 127.56246 
L 73.366945 123.166028 
L 73.522524 127.889535 
L 73.574383 129.280966 
L 73.626243 126.461762 
L 73.729962 126.731599 
L 73.781821 127.35395 
L 73.833681 124.023691 
L 73.88554 125.495074 
L 73.989259 127.740988 
L 74.041119 126.47539 
L 74.092979 129.352741 
L 74.144838 127.994017 
L 74.300417 126.677086 
L 74.559714 130.611525 
L 74.611574 129.961009 
L 74.767153 124.569724 
L 74.819012 125.568666 
L 74.870872 125.201161 
L 74.974591 127.645137 
L 75.02645 130.793233 
L 75.07831 129.491293 
L 75.130169 126.944652 
L 75.182029 128.972971 
L 75.285748 130.188599 
L 75.337607 129.280512 
L 75.389467 131.53642 
L 75.441327 128.853043 
L 75.493186 129.474485 
L 75.596905 131.076698 
L 75.700624 129.782935 
L 75.804343 132.27143 
L 75.908062 129.814734 
L 76.011781 132.323217 
L 76.063641 132.001139 
L 76.16736 128.36879 
L 76.21922 128.637719 
L 76.271079 129.121971 
L 76.322939 131.788086 
L 76.374798 129.98554 
L 76.426658 129.387265 
L 76.582236 131.677244 
L 76.634096 130.951774 
L 76.685955 131.108497 
L 76.737815 132.290964 
L 76.789675 128.069426 
L 76.841534 130.80141 
L 76.893394 133.396659 
L 76.945253 129.593959 
L 76.997113 129.763856 
L 77.152691 133.865921 
L 77.204551 133.279457 
L 77.30827 131.073518 
L 77.360129 131.817614 
L 77.515708 128.570487 
L 77.619427 131.851684 
L 77.671287 130.812767 
L 77.723146 129.285055 
L 77.775006 129.451318 
L 77.930584 132.407712 
L 77.982444 132.324126 
L 78.086163 131.185269 
L 78.241742 132.902867 
L 78.293601 130.975396 
L 78.345461 131.967069 
L 78.39732 132.396355 
L 78.44918 131.742205 
L 78.501039 131.887117 
L 78.604758 134.951173 
L 78.812197 130.477969 
L 78.967775 132.697536 
L 79.019635 130.499774 
L 79.071494 132.196021 
L 79.175213 132.264162 
L 79.278932 130.203136 
L 79.59009 133.751899 
L 79.797528 131.778547 
L 79.849387 132.607591 
L 79.901247 131.820794 
L 79.953106 131.044445 
L 80.004966 133.089118 
L 80.056826 131.608195 
L 80.160545 129.448138 
L 80.316123 134.654989 
L 80.471702 129.819277 
L 80.62728 135.254626 
L 80.67914 132.666646 
L 80.731 134.844874 
L 80.782859 134.393329 
L 80.834719 134.994783 
L 80.938438 132.082908 
L 80.990297 133.119099 
L 81.042157 133.008257 
L 81.094016 132.118795 
L 81.249595 133.606532 
L 81.405174 131.820794 
L 81.457033 132.991449 
L 81.508893 131.956621 
L 81.560752 131.335178 
L 81.612612 133.350323 
L 81.664471 132.277336 
L 81.76819 131.239781 
L 81.871909 134.398326 
L 81.923769 132.217826 
L 81.975628 132.376367 
L 82.027488 131.588661 
L 82.183067 134.818072 
L 82.286786 130.98221 
L 82.338645 132.244628 
L 82.390505 129.290052 
L 82.442364 131.861224 
L 82.597943 130.440265 
L 82.701662 132.428608 
L 82.753522 132.355016 
L 82.805381 132.095173 
L 82.857241 132.356833 
L 82.9091 132.765223 
L 82.96096 129.648925 
L 83.012819 131.706318 
L 83.064679 132.549444 
L 83.116538 131.63318 
L 83.168398 130.003257 
L 83.220257 130.786419 
L 83.272117 130.310798 
L 83.375836 131.897111 
L 83.427696 131.008558 
L 83.479555 127.090927 
L 83.531415 134.510531 
L 83.583274 132.567161 
L 83.635134 133.282183 
L 83.842572 129.142868 
L 83.998151 131.246596 
L 84.10187 129.661191 
L 84.153729 130.421186 
L 84.205589 130.657406 
L 84.257448 131.501441 
L 84.309308 130.234026 
L 84.361167 130.63333 
L 84.464886 132.081999 
L 84.620465 129.807012 
L 84.672325 130.07912 
L 84.724184 130.035056 
L 84.776044 132.993721 
L 84.827903 131.116674 
L 84.931622 129.634389 
L 84.983482 134.91574 
L 85.035341 133.472522 
L 85.087201 129.73342 
L 85.13906 131.329273 
L 85.19092 133.47979 
L 85.346499 129.919671 
L 85.398358 130.192233 
L 85.553937 132.020673 
L 85.605796 132.747052 
L 85.657656 132.11289 
L 85.709515 129.864704 
L 85.761375 132.986452 
L 85.813234 128.32836 
L 85.865094 128.980239 
L 85.968813 130.161797 
L 86.072532 131.507801 
L 86.124392 131.187086 
L 86.27997 127.871364 
L 86.383689 130.684208 
L 86.435549 128.799439 
L 86.487408 129.544443 
L 86.539268 130.164977 
L 86.591127 128.684963 
L 86.642987 129.448138 
L 86.694847 130.69284 
L 86.746706 129.426333 
L 86.850425 129.496745 
L 86.902285 127.136354 
L 86.954144 127.80822 
L 87.006004 132.067008 
L 87.057863 130.343051 
L 87.109723 131.400139 
L 87.161582 130.62379 
L 87.265302 126.473573 
L 87.317161 127.432539 
L 87.369021 127.232659 
L 87.42088 128.456919 
L 87.47274 127.072302 
L 87.524599 126.336838 
L 87.628318 130.445262 
L 87.680178 130.117733 
L 87.732037 130.348048 
L 87.783897 129.427241 
L 87.835756 130.342143 
L 87.887616 131.475548 
L 87.991335 131.482816 
L 88.043195 129.737508 
L 88.095054 131.307468 
L 88.146914 130.231755 
L 88.302492 127.8114 
L 88.354352 129.930573 
L 88.406211 129.813826 
L 88.458071 128.298833 
L 88.50993 130.29081 
L 88.56179 124.109094 
L 88.61365 127.418002 
L 88.665509 129.474485 
L 88.717369 128.848955 
L 88.769228 126.810642 
L 88.821088 127.069576 
L 88.924807 127.507947 
L 88.976666 126.886051 
L 89.080385 129.832905 
L 89.132245 129.284146 
L 89.184104 129.138325 
L 89.235964 127.224937 
L 89.287824 129.533086 
L 89.339683 123.384986 
L 89.391543 128.036264 
L 89.547121 126.737959 
L 89.65084 126.776572 
L 89.7027 124.335775 
L 89.754559 124.822753 
L 89.806419 128.866217 
L 89.858278 127.005978 
L 89.910138 126.435414 
L 89.961998 130.315795 
L 90.013857 127.403465 
L 90.065717 127.753708 
L 90.117576 128.96116 
L 90.169436 128.0081 
L 90.221295 125.36379 
L 90.273155 127.155888 
L 90.325014 126.914216 
L 90.376874 129.353195 
L 90.480593 124.639228 
L 90.532452 128.694957 
L 90.584312 127.493411 
L 90.739891 125.971604 
L 90.84361 127.820486 
L 90.895469 126.299133 
L 90.947329 128.358797 
L 91.102907 124.704189 
L 91.206626 124.587895 
L 91.310346 127.976755 
L 91.362205 123.754308 
L 91.414065 125.937534 
L 91.465924 125.875298 
L 91.517784 129.264158 
L 91.569643 124.558822 
L 91.621503 126.846984 
L 91.673362 129.084267 
L 91.725222 126.92103 
L 91.777081 124.358034 
L 91.828941 125.058974 
L 91.880801 125.167545 
L 92.088239 122.574567 
L 92.243817 125.744923 
L 92.295677 123.671631 
L 92.347536 125.133929 
L 92.451255 123.524902 
L 92.503115 126.27642 
L 92.554975 124.50113 
L 92.606834 124.246738 
L 92.710553 121.879079 
L 92.762413 123.22372 
L 92.814272 122.902551 
L 92.917991 119.45191 
L 92.969851 120.912391 
L 93.02171 123.881959 
L 93.07357 120.351366 
L 93.125429 121.805033 
L 93.177289 122.207517 
L 93.229149 120.825625 
L 93.281008 120.929653 
L 93.332868 122.771267 
L 93.384727 122.243404 
L 93.436587 121.61651 
L 93.488446 122.520055 
L 93.540306 122.204337 
L 93.592165 121.988104 
L 93.644025 120.07199 
L 93.695884 121.054123 
L 93.747744 122.10258 
L 93.799603 121.539284 
L 93.851463 121.477958 
L 93.903323 121.620599 
L 93.955182 121.338497 
L 94.007042 121.915421 
L 94.110761 119.764903 
L 94.16262 121.185862 
L 94.21448 120.219174 
L 94.266339 120.240979 
L 94.318199 119.813964 
L 94.421918 121.309423 
L 94.473777 119.493249 
L 94.525637 123.096979 
L 94.577497 121.471598 
L 94.629356 121.539284 
L 94.681216 119.922989 
L 94.733075 121.879533 
L 94.784935 121.508394 
L 94.888654 119.368325 
L 95.044232 121.181773 
L 95.147951 117.84788 
L 95.199811 119.061692 
L 95.251671 118.99446 
L 95.35539 121.180411 
L 95.407249 120.85061 
L 95.459109 120.851973 
L 95.510968 115.728253 
L 95.562828 118.083193 
L 95.614687 118.169504 
L 95.666547 118.10954 
L 95.822125 115.663747 
L 95.873985 116.733554 
L 96.029564 118.937676 
L 96.133283 114.594848 
L 96.185142 115.714625 
L 96.237002 116.60863 
L 96.340721 115.089094 
L 96.39258 115.242184 
L 96.4963 113.513229 
L 96.548159 112.042755 
L 96.600019 112.500205 
L 96.703738 116.515959 
L 96.859316 112.273524 
L 96.911176 111.163287 
L 97.014895 113.637245 
L 97.066754 113.293362 
L 97.170474 112.004596 
L 97.222333 112.312592 
L 97.274193 113.270194 
L 97.326052 112.235366 
L 97.377912 111.422675 
L 97.429771 111.990059 
L 97.58535 112.389818 
L 97.689069 110.600445 
L 97.792788 112.035941 
L 97.896507 109.562891 
L 98.052086 112.909958 
L 98.103945 109.767313 
L 98.155805 111.811531 
L 98.311383 110.102565 
L 98.363243 110.453262 
L 98.415102 110.398295 
L 98.518822 108.473095 
L 98.72626 113.626797 
L 98.829979 110.859834 
L 98.933698 113.033519 
L 98.985557 111.851507 
L 99.089276 114.66208 
L 99.141136 111.421312 
L 99.192996 113.685852 
L 99.244855 113.69312 
L 99.296715 112.094087 
L 99.400434 115.953117 
L 99.452293 115.503389 
L 99.607872 114.128766 
L 99.659731 112.364833 
L 99.81531 119.73583 
L 99.86717 118.741885 
L 99.970889 116.669956 
L 100.022748 116.999757 
L 100.074608 118.316234 
L 100.126467 117.898759 
L 100.178327 115.958568 
L 100.230186 119.108482 
L 100.333905 118.712358 
L 100.385765 119.101668 
L 100.541344 116.902089 
L 100.593203 118.653757 
L 100.645063 117.215536 
L 100.696922 114.188275 
L 100.748782 114.832431 
L 100.852501 117.207813 
L 100.90436 116.719018 
L 100.95622 114.583945 
L 101.059939 114.831977 
L 101.163658 113.467348 
L 101.267377 114.66526 
L 101.319237 114.093787 
L 101.371096 113.390122 
L 101.422956 115.134521 
L 101.526675 114.908295 
L 101.630394 110.568192 
L 101.682253 112.458413 
L 101.785973 113.396027 
L 101.837832 109.877701 
L 101.889692 110.347871 
L 101.993411 113.125282 
L 102.200849 108.126487 
L 102.304568 107.736723 
L 102.408287 111.945995 
L 102.512006 108.212798 
L 102.563866 108.55441 
L 102.615725 108.885119 
L 102.667585 112.414348 
L 102.719444 111.137848 
L 102.978742 105.500802 
L 103.030601 105.616187 
L 103.082461 105.974152 
L 103.134321 104.599983 
L 103.18618 107.299714 
L 103.23804 104.849378 
L 103.289899 104.192048 
L 103.497337 106.95674 
L 103.549197 104.99111 
L 103.601056 107.907528 
L 103.652916 107.559557 
L 103.756635 106.569701 
L 103.808495 104.687657 
L 103.912214 104.726725 
L 104.015933 107.284723 
L 104.067792 106.532905 
L 104.171511 104.398287 
L 104.27523 106.449319 
L 104.430809 100.207185 
L 104.482669 102.821059 
L 104.534528 100.14495 
L 104.586388 102.638442 
L 104.638247 99.940983 
L 104.690107 100.729597 
L 104.741966 102.183717 
L 104.793826 100.613303 
L 104.845685 98.187498 
L 104.897545 99.560304 
L 104.949404 99.099673 
L 105.104983 103.064094 
L 105.260562 100.164484 
L 105.312421 100.193103 
L 105.519859 102.986414 
L 105.623578 97.7623 
L 105.675438 99.68432 
L 105.831017 101.718998 
L 105.934736 99.501703 
L 105.986595 99.623902 
L 106.038455 101.018059 
L 106.090314 98.729443 
L 106.194033 98.762604 
L 106.245893 97.303941 
L 106.297752 98.920236 
L 106.401472 96.181438 
L 106.453331 93.928255 
L 106.55705 98.978383 
L 106.60891 97.963088 
L 106.660769 99.816967 
L 106.712629 98.158424 
L 106.764488 98.591799 
L 106.816348 96.766539 
L 106.868207 99.072417 
L 106.920067 96.511239 
L 107.023786 97.102699 
L 107.075646 99.803339 
L 107.127505 99.216421 
L 107.231224 97.445674 
L 107.283084 95.751244 
L 107.438662 99.144646 
L 107.490522 97.287587 
L 107.542381 97.30485 
L 107.6461 99.119207 
L 107.69796 98.938861 
L 107.801679 96.261844 
L 107.853539 96.620718 
L 108.009117 100.363 
L 108.164696 95.751698 
L 108.216555 99.114664 
L 108.268415 97.590586 
L 108.423994 95.3424 
L 108.475853 98.323779 
L 108.527713 97.093159 
L 108.579572 97.385256 
L 108.631432 98.464603 
L 108.735151 98.323325 
L 108.942589 96.77835 
L 108.994448 97.0709 
L 109.046308 98.299248 
L 109.201887 94.596488 
L 109.305606 98.216571 
L 109.357465 97.76866 
L 109.409325 96.020626 
L 109.461184 97.770931 
L 109.513044 98.359212 
L 109.564903 95.400547 
L 109.616763 96.929168 
L 109.668623 96.367235 
L 109.720482 94.38298 
L 109.772342 95.13071 
L 109.97978 98.801672 
L 110.083499 95.240189 
L 110.135358 95.687646 
L 110.187218 96.055605 
L 110.239077 99.095585 
L 110.342797 99.045161 
L 110.550235 96.993674 
L 110.602094 97.046824 
L 110.705813 98.825294 
L 110.809532 97.143129 
L 110.913251 98.191132 
L 111.016971 94.487008 
L 111.06883 96.784255 
L 111.276268 101.075751 
L 111.379987 100.089529 
L 111.483706 100.365271 
L 111.535566 100.260789 
L 111.587425 98.793949 
L 111.639285 99.409486 
L 111.794864 102.475813 
L 111.898583 101.444619 
L 112.20974 107.300168 
L 112.261599 106.860434 
L 112.313459 105.283206 
L 112.469038 108.888753 
L 112.624616 105.236417 
L 112.676476 105.506708 
L 112.728335 106.770034 
L 112.780195 106.580149 
L 112.832054 106.404347 
L 112.935773 109.080001 
L 112.987633 106.358011 
L 113.039493 107.328787 
L 113.091352 108.870128 
L 113.143212 106.083631 
L 113.195071 106.55789 
L 113.246931 106.666915 
L 113.29879 107.99384 
L 113.35065 106.881331 
L 113.558088 109.445235 
L 113.609947 108.608468 
L 113.713667 104.537294 
L 113.765526 104.887991 
L 113.869245 106.233995 
L 113.972964 105.901015 
L 114.076683 104.306979 
L 114.128543 105.107858 
L 114.180402 105.054254 
L 114.232262 105.488991 
L 114.387841 101.66176 
L 114.4397 102.749739 
L 114.49156 101.850282 
L 114.595279 101.720815 
L 114.647138 102.764729 
L 114.698998 101.905249 
L 114.906436 97.789102 
L 114.958296 99.268208 
L 115.010155 97.234892 
L 115.062015 98.610424 
L 115.113874 98.861181 
L 115.165734 97.808182 
L 115.217593 98.843919 
L 115.269453 99.483078 
L 115.321312 98.875718 
L 115.373172 94.790915 
L 115.476891 95.317415 
L 115.58061 94.289401 
L 115.63247 95.120716 
L 115.684329 94.531527 
L 115.736189 93.396759 
L 115.788048 93.479436 
L 115.839908 95.166597 
L 115.891767 95.147972 
L 115.943627 93.681586 
L 116.047346 96.558483 
L 116.099205 95.972474 
L 116.202924 97.350731 
L 116.254784 96.066508 
L 116.306644 96.916902 
L 116.358503 96.505333 
L 116.410363 97.386164 
L 116.462222 96.480348 
L 116.514082 96.868295 
L 116.565941 94.726863 
L 116.617801 96.188706 
L 116.72152 95.016688 
L 116.825239 98.659485 
L 117.032677 93.617988 
L 117.084537 93.980951 
L 117.136396 96.883286 
L 117.188256 95.504575 
L 117.291975 92.495031 
L 117.447553 98.238376 
L 117.499413 98.181592 
L 117.654992 96.61027 
L 117.81057 94.299849 
L 117.86243 94.692793 
L 118.018008 87.034243 
L 118.069868 89.041211 
L 118.121727 86.996538 
L 118.173587 89.564076 
L 118.225446 88.431125 
L 118.277306 87.769707 
L 118.329166 88.962168 
L 118.381025 85.533786 
L 118.432885 87.429004 
L 118.484744 86.823007 
L 118.536604 87.23821 
L 118.588463 86.952474 
L 118.640323 87.786515 
L 118.795901 83.413251 
L 118.847761 83.333299 
L 118.899621 84.797868 
L 118.95148 84.599806 
L 119.055199 83.403257 
L 119.107059 84.745173 
L 119.158918 83.512736 
L 119.210778 83.618127 
L 119.262637 84.369491 
L 119.418216 81.765157 
L 119.470075 82.26122 
L 119.573795 85.803169 
L 119.677514 82.523789 
L 119.729373 84.853743 
L 119.781233 82.948078 
L 119.833092 84.038327 
L 119.988671 80.239261 
L 120.04053 81.035143 
L 120.09239 81.368124 
L 120.144249 81.221849 
L 120.247969 78.109186 
L 120.299828 79.211247 
L 120.507266 82.545594 
L 120.559126 81.239111 
L 120.610985 81.956859 
L 120.662845 82.331178 
L 120.714704 79.720938 
L 120.766564 82.153558 
L 121.025862 79.011367 
L 121.077721 79.842683 
L 121.18144 79.821332 
L 121.337019 80.417335 
L 121.388878 79.628267 
L 121.440738 76.98214 
L 121.492597 77.558155 
L 121.544457 81.177784 
L 121.596317 80.891594 
L 121.700036 77.298312 
L 121.751895 77.844346 
L 121.907474 78.802857 
L 121.959333 74.58995 
L 122.011193 75.567541 
L 122.218631 79.509702 
L 122.270491 78.965486 
L 122.32235 76.696404 
L 122.37421 77.001219 
L 122.426069 78.274086 
L 122.477929 77.928386 
L 122.633507 74.703518 
L 122.789086 78.356309 
L 122.944665 74.946099 
L 122.996524 75.612514 
L 123.048384 77.89159 
L 123.100243 75.174597 
L 123.152103 76.494253 
L 123.203962 75.84828 
L 123.255822 75.874174 
L 123.307681 77.289227 
L 123.359541 76.014089 
L 123.4114 75.004245 
L 123.46326 76.076778 
L 123.618839 74.925202 
L 123.670698 75.364028 
L 123.722558 74.015752 
L 123.826277 76.515604 
L 123.981855 72.95821 
L 124.033715 73.959877 
L 124.085574 73.761361 
L 124.137434 73.536951 
L 124.189294 73.597369 
L 124.241153 74.549066 
L 124.293013 73.481984 
L 124.396732 74.312845 
L 124.448591 75.63659 
L 124.500451 74.207 
L 124.55231 73.963057 
L 124.60417 74.360089 
L 124.707889 72.438979 
L 124.759748 73.399761 
L 124.811608 73.477896 
L 124.967187 71.429135 
L 125.019046 71.488644 
L 125.070906 70.570563 
L 125.226484 73.374776 
L 125.278344 71.003029 
L 125.330203 71.768929 
L 125.433922 71.419141 
L 125.589501 72.75288 
L 125.641361 71.038462 
L 125.69322 73.21669 
L 125.74508 72.803758 
L 125.900658 68.89067 
L 125.952518 69.123711 
L 126.004377 70.368413 
L 126.056237 67.481068 
L 126.108096 68.583129 
L 126.211816 67.831311 
L 126.263675 67.889457 
L 126.315535 69.97774 
L 126.419254 69.931858 
L 126.471113 70.984404 
L 126.522973 70.222592 
L 126.574832 70.266202 
L 126.626692 70.530133 
L 126.730411 68.508174 
L 126.88599 70.580103 
L 127.041568 67.294363 
L 127.093428 67.316168 
L 127.197147 66.434882 
L 127.300866 67.993939 
L 127.352725 67.706386 
L 127.404585 67.595998 
L 127.456444 67.933521 
L 127.508304 69.240913 
L 127.560164 68.365079 
L 127.612023 68.355993 
L 127.715742 67.585096 
L 127.871321 69.592972 
L 128.078759 65.609472 
L 128.130619 65.734851 
L 128.182478 65.425493 
L 128.338057 68.326466 
L 128.389916 68.18019 
L 128.441776 67.221679 
L 128.493635 67.57601 
L 128.545495 67.762261 
L 128.701073 66.550721 
L 128.856652 68.96835 
L 128.908512 68.937005 
L 129.012231 64.933063 
L 129.06409 65.854324 
L 129.11595 66.080551 
L 129.167809 64.847206 
L 129.219669 65.465923 
L 129.271528 65.90384 
L 129.427107 65.24333 
L 129.478967 65.288757 
L 129.530826 66.403992 
L 129.582686 65.828885 
L 129.738264 67.204871 
L 129.790124 66.983641 
L 130.101281 63.794661 
L 130.153141 63.915043 
L 130.25686 62.268311 
L 130.360579 62.885665 
L 130.412438 64.704565 
L 130.464298 64.118102 
L 130.516157 63.527095 
L 130.568017 66.552084 
L 130.619876 64.404292 
L 130.671736 63.210923 
L 130.723595 66.793756 
L 130.775455 65.173372 
L 130.931034 63.819191 
L 130.982893 63.123249 
L 131.034753 63.872341 
L 131.138472 62.116585 
L 131.190331 63.948659 
L 131.242191 62.506803 
L 131.397769 63.65838 
L 131.449629 63.498476 
L 131.553348 64.63279 
L 131.708927 62.743024 
L 131.760786 63.029669 
L 131.812646 62.004834 
L 131.864505 62.111134 
L 131.968224 65.309654 
L 132.175663 60.712434 
L 132.331241 64.156715 
L 132.48682 61.243931 
L 132.642398 61.974852 
L 132.694258 60.855529 
L 132.746118 61.374761 
L 132.849837 63.148234 
L 132.901696 61.937602 
L 132.953556 60.587055 
L 133.005415 61.974852 
L 133.057275 61.328879 
L 133.109134 61.738632 
L 133.160994 61.971672 
L 133.368432 58.210765 
L 133.420292 59.898381 
L 133.472151 59.415491 
L 133.57587 57.984992 
L 133.62773 58.806314 
L 133.679589 61.106287 
L 133.731449 60.859163 
L 133.835168 59.837509 
L 133.938887 61.802684 
L 133.990746 60.855983 
L 134.094466 62.386876 
L 134.146325 61.807226 
L 134.198185 62.276942 
L 134.301904 61.417008 
L 134.353763 61.506045 
L 134.457482 59.191081 
L 134.561201 61.35659 
L 134.71678 59.174728 
L 134.76864 59.455467 
L 134.820499 59.055254 
L 134.872359 59.981512 
L 134.924218 59.866128 
L 134.976078 59.54405 
L 135.027937 60.750593 
L 135.131656 59.152468 
L 135.183516 59.491808 
L 135.287235 58.259372 
L 135.442814 60.856892 
L 135.650252 56.192894 
L 135.702111 58.401104 
L 135.80583 58.184417 
L 135.909549 57.773757 
L 136.168847 60.544808 
L 136.324426 59.167913 
L 136.376285 59.300561 
L 136.480004 56.301465 
L 136.531864 56.957432 
L 136.635583 60.484844 
L 136.739302 57.523453 
L 136.791162 58.184872 
L 136.94674 58.987568 
L 137.050459 57.154131 
L 137.102319 57.774211 
L 137.154178 59.931088 
L 137.206038 57.607039 
L 137.257897 57.167305 
L 137.309757 57.379904 
L 137.361617 57.433962 
L 137.413476 57.717881 
L 137.465336 57.646107 
L 137.517195 57.524362 
L 137.620914 57.738778 
L 137.776493 54.786472 
L 137.983931 59.808889 
L 138.191369 55.231658 
L 138.243229 55.575541 
L 138.295088 55.696831 
L 138.346948 55.487412 
L 138.398807 55.750889 
L 138.450667 54.485745 
L 138.502526 55.306612 
L 138.658105 54.307217 
L 138.761824 55.942591 
L 138.813684 55.933052 
L 138.865543 56.800709 
L 138.917403 55.013608 
L 138.969262 56.5445 
L 139.072981 54.490288 
L 139.124841 55.485595 
L 139.1767 55.413366 
L 139.22856 55.022239 
L 139.280419 55.086745 
L 139.384139 57.205918 
L 139.539717 53.854309 
L 139.695296 53.226052 
L 139.850874 55.45425 
L 139.902734 55.218938 
L 139.954593 55.277539 
L 140.006453 55.333414 
L 140.058313 55.923512 
L 140.110172 54.545255 
L 140.162032 56.231962 
L 140.213891 55.016788 
L 140.31761 54.614758 
L 140.36947 54.707429 
L 140.421329 55.422451 
L 140.576908 51.966814 
L 140.680627 53.216967 
L 140.784346 49.565539 
L 140.836206 51.109151 
L 140.888065 50.392766 
L 141.147363 55.696831 
L 141.199222 54.480294 
L 141.251082 55.004522 
L 141.302941 55.615516 
L 141.354801 55.02133 
L 141.45852 54.083261 
L 141.562239 55.211215 
L 141.614099 54.699252 
L 141.769677 52.081744 
L 141.821537 52.735894 
L 141.873396 50.904275 
L 141.925256 51.995433 
L 141.977116 52.126263 
L 142.028975 50.875201 
L 142.080835 51.672446 
L 142.184554 52.967572 
L 142.236413 52.366572 
L 142.340132 52.655943 
L 142.391992 53.297373 
L 142.443851 52.68547 
L 142.495711 52.370206 
L 142.59943 54.84371 
L 142.755009 51.503912 
L 142.806868 51.544342 
L 142.910587 52.839922 
L 142.962447 52.566451 
L 143.014306 52.422447 
L 143.066166 51.031925 
L 143.118025 51.536165 
L 143.169885 51.573415 
L 143.221744 50.534044 
L 143.273604 50.739829 
L 143.532902 53.206519 
L 143.636621 52.012695 
L 143.68848 53.288287 
L 143.74034 52.104912 
L 143.792199 52.173507 
L 143.844059 52.538741 
L 143.947778 49.822656 
L 143.999638 50.30918 
L 144.051497 50.253305 
L 144.103357 50.019355 
L 144.155216 51.421235 
L 144.207076 51.110059 
L 144.258935 50.04116 
L 144.310795 50.079319 
L 144.518233 52.659577 
L 144.570092 52.727263 
L 144.621952 52.322508 
L 144.673812 53.055701 
L 144.725671 52.750885 
L 144.88125 50.816146 
L 145.088688 50.00709 
L 145.244266 50.789798 
L 145.296126 50.641706 
L 145.503564 53.088408 
L 145.711002 51.461211 
L 145.91844 53.567664 
L 145.9703 53.365059 
L 146.229598 48.935465 
L 146.281457 49.06675 
L 146.333317 48.913206 
L 146.385176 50.089313 
L 146.437036 50.008453 
L 146.592615 48.942734 
L 146.800053 53.405944 
L 146.851912 53.468179 
L 146.955631 54.757399 
L 147.007491 54.347192 
L 147.474227 46.44061 
L 147.629805 49.99437 
L 147.681665 49.383376 
L 147.733524 49.82629 
L 148.044682 54.61067 
L 148.096541 53.661244 
L 148.25212 51.204093 
L 148.407698 48.068263 
L 148.459558 48.698336 
L 148.511417 48.504817 
L 148.563277 48.332648 
L 148.615137 48.97317 
L 148.718856 47.234676 
L 148.926294 51.634288 
L 148.978153 52.34931 
L 149.030013 50.743917 
L 149.133732 53.566301 
L 149.185591 51.616117 
L 149.237451 52.683653 
L 149.289311 52.772236 
L 149.548608 47.221502 
L 149.600468 47.143822 
L 149.704187 47.689401 
L 149.756046 46.909872 
L 150.119063 52.595525 
L 150.170923 52.245736 
L 150.326501 50.189253 
L 150.378361 50.221506 
L 150.637659 45.260415 
L 150.896956 48.369898 
L 150.948816 48.293581 
L 151.156254 51.524808 
L 151.208114 52.754519 
L 151.259973 52.395191 
L 151.311833 52.269358 
L 151.467411 47.727105 
L 151.57113 48.145489 
L 151.62299 47.898365 
L 151.726709 45.626103 
L 151.778568 46.226195 
L 151.934147 47.889734 
L 151.986007 47.772987 
L 152.193445 51.238618 
L 152.245304 51.109151 
L 152.71204 47.531314 
L 152.7639 47.574016 
L 152.815759 47.49997 
L 152.867619 47.343246 
L 153.023197 48.287675 
L 153.075057 47.990582 
L 153.178776 51.35582 
L 153.230636 50.713481 
L 153.282495 50.943342 
L 153.541793 49.223927 
L 153.593652 48.899578 
L 153.645512 48.951819 
L 153.749231 47.080678 
L 153.80109 47.135645 
L 153.90481 47.027528 
L 154.060388 48.27223 
L 154.112248 47.634888 
L 154.319686 49.953486 
L 154.475264 49.064024 
L 154.527124 49.316598 
L 154.578984 48.322654 
L 154.630843 49.200759 
L 154.786422 47.80206 
L 154.942 49.177137 
L 155.045719 48.678348 
L 155.201298 49.873989 
L 155.253158 48.80191 
L 155.305017 50.006181 
L 155.356877 49.253001 
L 155.460596 50.209695 
L 155.512455 50.126563 
L 155.771753 47.662144 
L 155.823613 47.757087 
L 156.031051 48.471655 
L 156.08291 48.485283 
L 156.186629 46.922137 
L 156.394067 49.652759 
L 156.549646 48.718324 
L 156.653365 49.38701 
L 156.808944 48.059631 
L 156.860803 50.435922 
L 156.912663 48.372624 
L 157.016382 48.159571 
L 157.068241 48.466204 
L 157.120101 48.314932 
L 157.171961 47.966052 
L 157.22382 48.635647 
L 157.27568 48.404423 
L 157.379399 48.483466 
L 157.431258 48.671534 
L 157.690556 46.496032 
L 157.742415 47.016171 
L 157.846135 48.686525 
L 157.897994 46.958479 
L 157.949854 47.556754 
L 158.001713 48.162297 
L 158.053573 47.345064 
L 158.105432 47.922896 
L 158.157292 47.670321 
L 158.209151 48.405786 
L 158.261011 47.829316 
L 158.31287 46.76178 
L 158.36473 47.822502 
L 158.468449 49.639585 
L 158.520309 48.862328 
L 158.572168 49.282982 
L 158.624028 49.210299 
L 158.675887 50.241039 
L 158.727747 49.511026 
L 158.831466 48.737403 
L 158.883325 49.605969 
L 158.935185 49.344763 
L 159.090763 46.992095 
L 159.142623 47.799334 
L 159.194483 47.333252 
L 159.246342 47.475893 
L 159.298202 47.401393 
L 159.45378 48.323563 
L 159.661218 49.849004 
L 159.764937 49.189857 
L 159.868657 50.256485 
L 160.024235 49.043582 
L 160.076095 48.886858 
L 160.127954 49.641402 
L 160.283533 48.134132 
L 160.439112 49.053576 
L 160.490971 48.816446 
L 160.542831 50.375049 
L 160.59469 49.892614 
L 160.64655 49.700911 
L 160.802128 50.523596 
L 160.853988 50.238314 
L 160.905847 48.439402 
L 161.009566 48.626561 
L 161.113286 50.024352 
L 161.165145 49.963026 
L 161.268864 49.14125 
L 161.320724 49.637768 
L 161.372583 48.547972 
L 161.476302 48.70515 
L 161.580021 51.382167 
L 161.68374 50.585377 
L 161.7356 51.428503 
L 161.78746 51.325838 
L 161.839319 51.116873 
L 161.891179 51.245432 
L 161.943038 51.277685 
L 162.046757 50.256485 
L 162.306055 47.785252 
L 162.461634 49.978471 
L 162.513493 49.113994 
L 162.720931 52.914423 
L 162.772791 53.431383 
L 162.82465 52.483774 
L 162.87651 52.591436 
L 162.928369 53.429566 
L 162.980229 53.061152 
L 163.083948 51.00694 
L 163.135808 51.135953 
L 163.187667 51.041464 
L 163.291386 47.728922 
L 163.343246 47.951061 
L 163.395105 50.032529 
L 163.446965 49.640948 
L 163.498824 49.455605 
L 163.706262 53.191528 
L 163.758122 53.099311 
L 163.809982 54.295406 
L 163.861841 53.209244 
L 163.913701 53.845678 
L 163.96556 53.731656 
L 164.01742 53.495435 
L 164.069279 53.538591 
L 164.380436 46.045395 
L 164.432296 46.596425 
L 164.639734 51.753761 
L 164.691594 51.493464 
L 165.002751 57.849166 
L 165.10647 52.988014 
L 165.313908 49.301153 
L 165.521346 48.363993 
L 165.573206 48.494368 
L 165.780644 53.921995 
L 165.884363 57.326754 
L 165.936223 56.58175 
L 166.351099 52.164876 
L 166.506678 49.593704 
L 166.558537 50.29964 
L 166.610397 50.154728 
L 166.714116 49.952123 
L 166.921554 54.33947 
L 167.025273 57.438505 
L 167.232711 55.219392 
L 167.284571 55.380204 
L 167.595728 49.884437 
L 167.699447 50.01345 
L 167.803166 53.623539 
L 167.855026 53.380504 
L 168.062464 57.800559 
L 168.166183 57.524362 
L 168.218042 56.710763 
L 168.269902 57.431691 
L 168.373621 55.49786 
L 168.632919 50.647157 
L 168.944076 54.320391 
L 169.047795 56.752556 
L 169.151514 56.27648 
L 169.307093 58.175786 
L 169.462671 53.186077 
L 169.514531 53.328718 
L 169.56639 54.209548 
L 169.721969 53.047978 
L 169.929407 53.201976 
L 170.292424 57.175936 
L 170.344284 56.713489 
L 170.396143 58.39747 
L 170.448003 58.001346 
L 170.811019 53.692134 
L 171.018458 58.354769 
L 171.174036 56.538594 
L 171.225896 56.657613 
L 171.277755 57.460764 
L 171.329615 56.237867 
L 171.381474 57.176845 
L 171.433334 56.632629 
L 171.537053 59.611282 
L 171.588912 58.02724 
L 171.84821 54.826448 
L 171.951929 55.377479 
L 172.159367 56.062064 
L 172.418665 60.129605 
L 172.470525 59.97697 
L 172.729822 57.577512 
L 172.781682 57.039201 
L 172.833541 57.79965 
L 172.885401 57.189564 
L 172.98912 57.694713 
L 173.04098 56.4541 
L 173.092839 57.79647 
L 173.144699 57.54753 
L 173.248418 58.401559 
L 173.300277 57.811461 
L 173.352137 60.771489 
L 173.403996 59.757103 
L 173.455856 58.149438 
L 173.507715 59.308283 
L 173.611435 60.050107 
L 173.663294 60.029211 
L 173.818873 58.665944 
L 173.974451 60.010586 
L 174.13003 59.271487 
L 174.337468 60.619308 
L 174.389328 60.556165 
L 174.441187 60.165038 
L 174.493047 60.854166 
L 174.544906 59.974244 
L 174.596766 60.669278 
L 174.648625 60.850987 
L 174.804204 58.648682 
L 174.856063 59.430028 
L 174.959783 60.899139 
L 175.167221 59.037992 
L 175.426518 62.991964 
L 175.530237 61.419279 
L 175.582097 61.83948 
L 175.737676 60.049653 
L 175.841395 62.443205 
L 175.893254 61.679576 
L 175.945114 61.929425 
L 175.996973 61.419733 
L 176.048833 61.704561 
L 176.100692 61.892175 
L 176.204411 60.536177 
L 176.308131 60.547079 
L 176.35999 60.989993 
L 176.41185 59.831149 
L 176.567428 62.385967 
L 176.619288 62.450474 
L 176.671147 62.318735 
L 176.723007 63.214103 
L 176.826726 63.157319 
L 176.878585 63.320856 
L 176.930445 62.937906 
L 176.982305 60.593415 
L 177.034164 60.729242 
L 177.189743 63.735606 
L 177.241602 63.68291 
L 177.293462 63.775127 
L 177.397181 65.229248 
L 177.44904 64.809956 
L 177.604619 63.696084 
L 177.656479 63.730154 
L 177.760198 64.752264 
L 177.812057 64.680489 
L 177.967636 62.806168 
L 178.123214 65.229702 
L 178.175074 63.676096 
L 178.226934 63.792844 
L 178.278793 64.979853 
L 178.330653 64.299356 
L 178.382512 64.667315 
L 178.434372 63.193206 
L 178.486231 65.449569 
L 178.538091 64.301627 
L 178.797388 66.668377 
L 178.849248 66.041938 
L 178.952967 66.135518 
L 179.004827 66.111442 
L 179.056686 64.078126 
L 179.108546 64.928066 
L 179.160405 64.903081 
L 179.212265 66.859171 
L 179.264124 65.855233 
L 179.315984 66.006959 
L 179.367843 67.252115 
L 179.419703 66.619316 
L 179.471562 66.764229 
L 179.523422 66.389001 
L 179.679001 67.836762 
L 179.834579 66.366742 
L 179.886439 66.318135 
L 179.938298 68.216532 
L 179.990158 67.192152 
L 180.042017 66.341757 
L 180.197596 68.424134 
L 180.405034 67.68549 
L 180.456894 67.775889 
L 180.716191 71.096154 
L 180.92363 68.660809 
L 181.079208 70.689128 
L 181.131068 69.017411 
L 181.182927 70.542398 
L 181.234787 71.004392 
L 181.286646 70.593277 
L 181.338506 70.754543 
L 181.390365 70.386583 
L 181.597804 71.962449 
L 181.701523 70.547395 
L 181.753382 73.302547 
L 181.805242 73.028168 
L 181.908961 71.584495 
L 181.96082 72.909603 
L 182.01268 72.317234 
L 182.064539 70.599182 
L 182.116399 71.803908 
L 182.220118 72.817386 
L 182.323837 74.021203 
L 182.375697 73.227138 
L 182.427556 73.674141 
L 182.479416 74.39734 
L 182.531275 74.233802 
L 182.583135 74.249247 
L 182.634994 73.59328 
L 182.738713 73.622808 
L 182.790573 74.317388 
L 182.842433 73.268023 
L 182.894292 74.737134 
L 182.946152 73.842675 
L 182.998011 73.534225 
L 183.049871 72.38492 
L 183.10173 72.941402 
L 183.15359 73.305727 
L 183.205449 73.259391 
L 183.309168 78.940047 
L 183.412887 77.008488 
L 183.620326 74.067539 
L 183.827764 78.28408 
L 183.931483 75.973205 
L 184.138921 80.14659 
L 184.24264 78.833748 
L 184.2945 80.017577 
L 184.346359 79.194438 
L 184.398219 78.928236 
L 184.501938 81.219123 
L 184.553797 80.40825 
L 184.605657 77.982898 
L 184.657516 80.677632 
L 184.709376 79.67006 
L 184.761235 80.599498 
L 184.813095 80.727148 
L 184.864955 82.723214 
L 184.916814 82.431117 
L 185.072393 80.999256 
L 185.124252 80.777572 
L 185.279831 82.619186 
L 185.38355 84.11737 
L 185.539129 85.943084 
L 185.694707 81.899621 
L 185.746567 82.664158 
L 185.798426 83.380998 
L 185.850286 82.738204 
L 185.954005 80.877057 
L 186.005864 85.051805 
L 186.057724 84.74381 
L 186.109583 83.879787 
L 186.161443 83.909769 
L 186.368881 87.812863 
L 186.420741 86.917041 
L 186.4726 87.34133 
L 186.52446 88.168102 
L 186.628179 88.131307 
L 186.835617 86.175217 
L 186.939336 88.939 
L 186.991196 87.806503 
L 187.043055 86.778488 
L 187.250493 90.389032 
L 187.302353 89.92613 
L 187.717229 94.277589 
L 187.769089 93.711568 
L 187.820948 93.838764 
L 187.872808 95.515023 
L 187.924667 94.475652 
L 187.976527 93.767443 
L 188.028386 94.608299 
L 188.080246 93.955057 
L 188.132106 94.26805 
L 188.183965 97.336194 
L 188.235825 95.884345 
L 188.339544 94.332556 
L 188.391403 94.661448 
L 188.650701 101.704007 
L 188.80628 98.207031 
L 188.961858 102.733385 
L 189.013718 101.034412 
L 189.065577 102.754736 
L 189.117437 102.078781 
L 189.169296 102.515789 
L 189.221156 106.562887 
L 189.324875 100.063636 
L 189.480454 106.787751 
L 189.532313 106.35256 
L 189.584173 103.971727 
L 189.636032 104.853921 
L 189.739751 105.558494 
L 189.89533 111.729308 
L 189.947189 110.754897 
L 189.999049 110.469161 
L 190.050908 112.882701 
L 190.102768 110.267011 
L 190.310206 117.283676 
L 190.362066 115.442517 
L 190.413925 115.296242 
L 190.880661 121.996735 
L 190.932521 125.86803 
L 190.98438 122.759001 
L 191.03624 121.35485 
L 191.243678 131.592296 
L 191.347397 126.380448 
L 191.399256 128.47191 
L 191.451116 126.917396 
L 191.606695 131.070339 
L 191.658554 126.913761 
L 191.710414 129.716157 
L 191.762273 133.099566 
L 191.814133 129.161493 
L 191.917852 129.528544 
L 192.021571 126.906493 
L 192.073431 129.654377 
L 192.12529 127.843199 
L 193.058762 89.218376 
L 193.318059 76.531049 
L 193.369919 77.817544 
L 193.784795 60.58433 
L 193.888514 58.80268 
L 194.199672 51.064178 
L 194.251531 51.489375 
L 194.666407 46.624136 
L 194.770127 47.856118 
L 194.821986 47.773441 
L 194.873846 46.537824 
L 194.925705 46.898515 
L 195.444301 60.071912 
L 196.58521 115.299876 
L 196.740789 123.795193 
L 196.792649 123.966907 
L 196.948227 128.749924 
L 197.051946 131.443295 
L 197.259384 126.396801 
L 197.311244 126.066092 
L 197.933558 101.45643 
L 198.400294 81.766065 
L 198.452154 82.829059 
L 198.711452 70.794064 
L 199.178187 56.798892 
L 199.230047 56.19244 
L 199.385626 52.014967 
L 199.437485 52.188044 
L 199.593064 49.857181 
L 199.644923 50.435922 
L 199.696783 50.373232 
L 199.95608 46.390186 
L 200.00794 47.299636 
L 200.0598 47.206511 
L 200.111659 46.049938 
L 200.163519 47.337795 
L 200.319097 44.443636 
L 200.422816 49.786314 
L 200.526535 49.71772 
L 200.578395 50.286466 
L 200.630254 49.931681 
L 200.682114 49.256635 
L 200.889552 55.029507 
L 201.14885 60.047382 
L 201.304429 66.350388 
L 201.926743 88.408412 
L 202.134181 97.99307 
L 202.808355 127.118637 
L 202.912074 125.510519 
L 203.015793 130.184056 
L 203.067653 127.177693 
L 203.171372 131.607287 
L 203.223231 131.146656 
L 203.275091 127.675573 
L 203.326951 128.321092 
L 203.37881 128.340171 
L 203.482529 125.288835 
L 203.534389 127.893623 
L 203.586248 125.036715 
L 203.689967 120.874232 
L 203.741827 123.160577 
L 203.897405 112.684639 
L 203.949265 111.721585 
L 204.208563 100.958549 
L 204.260422 100.252158 
L 204.416001 93.860115 
L 204.571579 90.295452 
L 204.986456 76.653248 
L 205.038315 77.319209 
L 205.090175 77.282867 
L 205.816208 56.360975 
L 205.868068 57.112338 
L 206.023647 53.187439 
L 206.075506 53.885653 
L 206.438523 48.795096 
L 206.490382 49.229378 
L 206.697821 45.668805 
L 206.80154 47.259661 
L 206.853399 46.312052 
L 206.905259 46.965293 
L 207.060837 46.529193 
L 207.112697 46.787673 
L 207.268276 45.323104 
L 207.320135 45.98634 
L 207.423854 46.648212 
L 207.631292 49.375199 
L 207.735011 49.17532 
L 207.94245 53.420934 
L 207.994309 53.346888 
L 208.149888 56.141108 
L 208.357326 61.483331 
L 208.512904 65.082973 
L 209.187078 81.233206 
L 209.342657 86.922492 
L 210.068691 113.434186 
L 210.12055 112.815469 
L 210.276129 122.294282 
L 210.327988 120.547157 
L 210.483567 127.936779 
L 210.535427 126.716608 
L 210.639146 123.991892 
L 210.794724 129.387265 
L 210.846584 129.137871 
L 210.950303 131.31837 
L 211.002162 130.808679 
L 211.209601 127.187687 
L 211.26146 128.226604 
L 211.31332 124.508852 
L 211.365179 127.056857 
L 212.246791 103.538353 
L 212.298651 104.20613 
L 212.454229 94.421593 
L 212.506089 97.63783 
L 212.557949 95.890251 
L 212.817246 89.63676 
L 213.024684 83.596322 
L 213.076544 85.03 
L 213.232123 81.430813 
L 214.580471 56.984688 
L 214.63233 57.383992 
L 214.68419 57.021939 
L 214.839768 54.972723 
L 214.891628 54.730143 
L 214.943487 55.15534 
L 215.202785 49.360208 
L 215.358364 47.921987 
L 215.410223 48.555241 
L 215.462083 48.947276 
L 215.513942 48.760117 
L 215.565802 48.223623 
L 215.72138 49.819476 
L 215.77324 49.60824 
L 215.928819 47.872926 
L 216.032538 48.450758 
L 216.084397 48.253151 
L 216.291835 47.206965 
L 216.343695 47.439098 
L 216.395554 47.188794 
L 216.447414 46.688188 
L 216.602993 47.679861 
L 216.706712 47.625803 
L 217.017869 51.894131 
L 217.069728 51.517086 
L 217.121588 51.518449 
L 217.173448 52.142617 
L 217.225307 51.440314 
L 217.380886 53.02799 
L 217.743902 60.649745 
L 217.847622 61.88309 
L 217.899481 59.798896 
L 218.05506 65.848873 
L 218.106919 64.304353 
L 218.158779 65.428218 
L 218.366217 68.873408 
L 218.884812 83.895686 
L 218.936672 82.483813 
L 218.988531 83.059828 
L 219.351548 95.310147 
L 219.455267 96.303637 
L 219.714565 110.255654 
L 219.766425 108.807893 
L 219.818284 109.447052 
L 220.025722 114.720681 
L 220.28502 124.145436 
L 220.336879 122.27702 
L 220.388739 123.589862 
L 220.544318 126.123785 
L 220.699896 128.931632 
L 220.751756 129.285963 
L 220.803615 128.495078 
L 220.855475 129.030209 
L 220.907334 129.111977 
L 220.959194 130.56201 
L 221.011053 129.997805 
L 221.114773 129.424516 
L 221.218492 130.476152 
L 221.529649 119.117567 
L 221.633368 122.724477 
L 221.840806 113.523223 
L 221.892666 109.783212 
L 221.944525 112.144057 
L 221.996385 112.418437 
L 222.048244 111.58485 
L 222.255682 102.441289 
L 222.307542 101.32878 
L 222.359401 102.675692 
L 222.774278 88.184002 
L 222.826137 87.852839 
L 222.981716 83.383269 
L 223.033575 83.292415 
L 223.241014 79.091773 
L 223.292873 80.270606 
L 223.448452 75.228201 
L 223.500311 75.716088 
L 223.65589 69.075558 
L 223.70775 70.035432 
L 223.759609 69.850544 
L 223.811469 70.007267 
L 223.967047 67.802691 
L 224.018907 67.526495 
L 224.174485 62.186088 
L 224.226345 60.455771 
L 224.278204 61.026335 
L 224.330064 62.104319 
L 224.433783 59.055709 
L 224.485643 59.240597 
L 224.693081 55.739532 
L 224.74494 55.760429 
L 224.952378 52.21212 
L 225.159817 49.451063 
L 225.315395 51.644736 
L 225.470974 47.45954 
L 225.522833 48.130043 
L 225.626552 47.162901 
L 225.678412 47.313719 
L 225.730272 47.662599 
L 225.88585 46.302966 
L 225.989569 47.747093 
L 226.145148 46.348848 
L 226.248867 46.06402 
L 226.300726 46.11399 
L 226.508165 47.416384 
L 226.611884 45.656539 
L 226.819322 50.169265 
L 226.871181 49.467871 
L 227.07862 51.95046 
L 227.286058 54.769664 
L 228.012091 66.229098 
L 228.271389 70.890824 
L 228.426968 75.052852 
L 228.478827 74.474566 
L 228.634406 80.810279 
L 228.686265 79.218969 
L 228.997423 91.62374 
L 229.049282 90.89827 
L 229.101142 90.998209 
L 229.204861 98.895706 
L 229.25672 97.645553 
L 229.516018 105.822426 
L 229.671597 112.476129 
L 229.723456 109.178578 
L 229.879035 119.664963 
L 229.982754 121.813664 
L 230.086473 125.1362 
L 230.242051 122.568662 
L 230.293911 130.371216 
L 230.345771 126.444045 
L 230.553209 129.223274 
L 230.605068 129.84517 
L 230.864366 125.036715 
L 230.916225 127.527481 
L 230.968085 126.420878 
L 231.123664 123.253248 
L 231.279242 120.939647 
L 231.434821 110.637241 
L 231.48668 110.650869 
L 231.590399 110.034878 
L 231.745978 102.059701 
L 231.849697 101.102099 
L 232.005276 95.850729 
L 232.62759 75.585712 
L 232.67945 77.02575 
L 232.835028 67.054053 
L 232.938748 68.707144 
L 233.146186 64.345237 
L 233.249905 62.027093 
L 233.561062 56.034808 
L 233.612922 55.443348 
L 233.7685 52.771327 
L 233.82036 52.442435 
L 233.872219 49.71772 
L 233.924079 50.528138 
L 233.975938 50.637163 
L 234.027798 49.289342 
L 234.079657 49.500578 
L 234.131517 49.717265 
L 234.287096 48.344459 
L 234.338955 49.907605 
L 234.390815 47.693035 
L 234.442674 48.282224 
L 234.494534 48.944096 
L 234.650112 46.541913 
L 234.701972 46.613233 
L 235.324286 53.174265 
L 235.583584 57.449407 
L 235.635444 57.88051 
L 235.842882 62.437754 
L 236.309618 78.532566 
L 236.361477 79.061791 
L 237.035651 104.0008 
L 237.087511 103.914489 
L 237.502387 121.094099 
L 237.554247 120.225988 
L 237.761685 125.355158 
L 237.813544 124.006883 
L 237.865404 124.398919 
L 238.020982 130.14726 
L 238.072842 129.532178 
L 238.228421 126.705705 
L 238.28028 126.877874 
L 238.383999 128.71767 
L 238.435859 128.647713 
L 239.42119 97.461573 
L 239.628628 90.787427 
L 239.680488 90.473526 
L 239.887926 83.241082 
L 240.043504 76.616906 
L 240.147223 78.27772 
L 240.199083 78.789683 
L 240.51024 66.907778 
L 240.613959 65.923828 
L 240.717678 66.201387 
L 240.976976 57.324483 
L 241.080695 60.791477 
L 241.132555 60.369005 
L 241.184414 60.258163 
L 241.391852 49.251183 
L 241.547431 54.568877 
L 241.70301 50.895644 
L 241.858588 47.335524 
L 242.066026 51.984985 
L 242.273465 45.648362 
L 242.429043 48.841431 
L 242.480903 49.266629 
L 242.584622 47.935161 
L 242.636481 48.145034 
L 242.7402 48.673351 
L 242.895779 52.54828 
L 242.947639 52.238922 
L 242.999498 52.681382 
L 243.051358 52.548735 
L 243.206936 56.567668 
L 243.258796 56.062064 
L 243.414374 58.640505 
L 243.466234 58.93033 
L 243.673672 63.91368 
L 244.607144 94.639189 
L 244.659003 93.792428 
L 244.710863 94.39252 
L 245.177599 114.79291 
L 245.229458 113.542302 
L 245.385037 121.126807 
L 245.436896 120.301851 
L 245.592475 123.661183 
L 245.644335 122.608183 
L 245.748054 130.954499 
L 245.799913 125.739926 
L 245.851773 128.738567 
L 245.903632 131.133936 
L 245.955492 129.698441 
L 246.007351 127.944502 
L 246.059211 129.979634 
L 246.11107 129.438144 
L 246.16293 128.960705 
L 246.21479 123.767937 
L 246.266649 124.782777 
L 246.370368 126.070181 
L 246.474087 124.416181 
L 246.629666 116.591368 
L 246.681525 116.083947 
L 247.096402 99.907821 
L 247.148261 102.772906 
L 247.200121 99.6716 
L 247.407559 91.409778 
L 247.511278 88.598297 
L 247.978014 71.398244 
L 248.133593 70.731829 
L 248.289171 66.138698 
L 248.341031 65.509533 
L 248.39289 66.433065 
L 248.652188 58.613703 
L 248.807767 55.727721 
L 248.911486 53.348705 
L 248.963345 53.930172 
L 249.015205 53.758912 
L 249.067064 52.998008 
L 249.170783 50.124292 
L 249.222643 50.812966 
L 249.274502 50.529501 
L 249.378221 49.193945 
L 249.481941 50.332348 
L 249.741238 45.66199 
L 249.844957 45.725588 
L 249.896817 46.366564 
L 249.948676 46.093093 
L 250.000536 45.214988 
L 250.207974 50.966964 
L 250.259834 50.432742 
L 250.363553 49.880348 
L 250.467272 50.920628 
L 250.67471 54.734231 
L 250.726569 53.240135 
L 250.934008 58.367943 
L 250.985867 58.094926 
L 251.400744 72.728349 
L 251.504463 77.919301 
L 251.556322 77.023479 
L 251.711901 79.93808 
L 251.867479 84.738358 
L 252.645372 121.229926 
L 252.697232 119.500063 
L 252.749092 121.090011 
L 252.90467 125.722664 
L 252.95653 124.970391 
L 253.060249 128.237961 
L 253.112108 126.753858 
L 253.163968 127.595622 
L 253.215827 127.496136 
L 253.475125 117.319564 
L 253.526985 118.415265 
L 253.578844 118.399365 
L 253.941861 101.474601 
L 253.99372 100.70234 
L 254.149299 94.735949 
L 254.304878 87.751536 
L 254.460456 82.406587 
L 254.771614 72.70291 
L 254.823473 72.115083 
L 255.18649 60.511192 
L 255.238349 61.121732 
L 255.497647 53.779354 
L 255.808804 49.293885 
L 255.860664 48.903666 
L 255.912523 49.439706 
L 255.964383 48.833254 
L 256.068102 47.829316 
L 256.119962 48.128681 
L 256.223681 47.455451 
L 256.27554 47.941067 
L 256.482978 46.189399 
L 256.534838 46.193033 
L 256.949714 52.637772 
L 257.157152 57.071454 
L 257.572029 70.39158 
L 258.712939 121.245825 
L 258.764798 120.073807 
L 259.024096 129.478574 
L 259.075955 128.022636 
L 259.127815 127.26355 
L 259.231534 130.771883 
L 259.490832 117.082889 
L 259.542691 117.838341 
L 259.957567 100.661002 
L 260.78732 70.788159 
L 260.83918 71.282859 
L 261.565213 52.799946 
L 261.617073 53.425023 
L 261.668932 53.251946 
L 261.98009 45.817805 
L 262.187528 47.236039 
L 262.239387 46.291155 
L 262.291247 47.248758 
L 262.446825 45.277677 
L 262.498685 45.940004 
L 262.654264 50.328259 
L 262.706123 49.672747 
L 262.757983 48.483466 
L 262.861702 48.57432 
L 263.06914 53.961971 
L 263.328438 59.457738 
L 263.484016 63.529821 
L 263.691454 70.585554 
L 264.106331 85.533786 
L 264.15819 85.675065 
L 264.365628 98.801217 
L 264.884224 119.719476 
L 264.936083 119.783528 
L 265.2991 128.526877 
L 265.35096 126.424512 
L 265.402819 128.155738 
L 265.454679 128.622728 
L 265.506538 128.022636 
L 265.558398 125.455098 
L 265.610257 127.317608 
L 265.765836 123.479475 
L 266.180712 102.940987 
L 266.491869 91.211716 
L 266.647448 86.263345 
L 266.854886 78.885989 
L 267.166043 67.023163 
L 267.217903 67.116288 
L 267.373482 62.90111 
L 267.425341 62.968342 
L 267.632779 57.327663 
L 267.684639 58.069941 
L 267.736498 57.570698 
L 268.255094 47.1043 
L 268.306953 49.754515 
L 268.358813 47.707117 
L 268.410672 47.897002 
L 268.462532 47.860207 
L 268.566251 46.285704 
L 268.877408 51.20909 
L 268.929268 50.568114 
L 268.981127 51.085983 
L 269.551582 64.553293 
L 269.81088 73.346611 
L 269.966459 78.965486 
L 270.848071 120.062905 
L 270.95179 122.315633 
L 271.107368 127.907251 
L 271.159228 126.382265 
L 271.211088 127.909523 
L 271.262947 127.068213 
L 271.314807 129.140142 
L 271.366666 128.687234 
L 271.522245 123.442679 
L 271.574104 125.697679 
L 271.729683 117.973713 
L 271.781542 117.814719 
L 271.885262 115.087277 
L 272.0927 103.157674 
L 272.144559 102.733839 
L 272.611295 82.268943 
L 272.663155 83.350107 
L 273.078031 71.236978 
L 273.18175 66.254537 
L 273.23361 67.435641 
L 273.285469 66.700176 
L 273.596626 58.518306 
L 274.063362 49.23801 
L 274.115222 49.401093 
L 274.167081 48.196367 
L 274.218941 48.385343 
L 274.2708 48.403514 
L 274.32266 49.802214 
L 274.374519 48.180013 
L 274.426379 48.817355 
L 274.478239 48.806452 
L 274.581958 48.162751 
L 274.633817 48.615659 
L 274.996834 53.748464 
L 275.048693 53.13429 
L 275.567289 73.978502 
L 275.671008 76.679596 
L 275.826587 84.814676 
L 275.878446 85.602381 
L 276.500761 118.694641 
L 276.708199 129.277786 
L 276.760058 127.320334 
L 276.811918 126.448588 
L 276.863777 127.432539 
L 276.915637 128.453739 
L 277.278654 111.677067 
L 277.330513 111.258229 
L 277.64167 89.058019 
L 277.745389 85.175367 
L 277.952828 77.192013 
L 278.212125 68.224255 
L 278.315844 65.501356 
L 278.523283 59.534964 
L 278.990018 47.900637 
L 279.145597 45.861415 
L 279.249316 46.043578 
L 279.508614 49.119445 
L 279.560473 48.930014 
L 279.819771 55.928509 
L 279.871631 56.162913 
L 281.11626 129.855164 
L 281.168119 129.072002 
L 281.219979 128.30701 
L 282.257169 62.432303 
L 282.309029 62.594932 
L 282.412748 59.636267 
L 282.672046 49.827653 
L 282.723905 49.835376 
L 282.775765 50.067508 
L 282.827624 49.834921 
L 282.983203 48.35627 
L 283.035063 48.435768 
L 283.190641 49.023594 
L 283.449939 56.116577 
L 283.812956 71.530891 
L 284.694568 127.262641 
L 284.746427 125.009913 
L 284.798287 125.856219 
L 284.850146 126.758855 
L 285.005725 118.868627 
L 285.057585 119.386495 
L 285.109444 117.927832 
L 285.316882 96.536224 
L 285.368742 97.355274 
L 286.198494 56.240593 
L 286.509652 48.439856 
L 286.66523 47.36596 
L 286.820809 47.476348 
L 286.976387 49.045853 
L 287.028247 48.647458 
L 287.235685 52.424265 
L 287.287545 52.59189 
L 287.391264 54.595679 
L 287.702421 68.920197 
L 287.80614 71.838887 
L 288.272876 101.973844 
L 288.739612 126.636656 
L 288.791471 126.114245 
L 288.94705 123.034289 
L 288.99891 126.03293 
L 289.050769 125.689047 
L 289.206348 116.297 
L 289.258207 117.373622 
L 289.517505 99.895101 
L 289.984241 77.175205 
L 290.0361 77.341014 
L 290.243538 69.686098 
L 290.295398 65.366892 
L 290.399117 65.488636 
L 290.762134 52.317511 
L 290.865853 51.946826 
L 291.332589 46.578255 
L 291.384448 46.174408 
L 291.540027 47.75527 
L 291.591886 47.261023 
L 291.799325 49.978017 
L 291.851184 48.4871 
L 291.903044 49.234375 
L 292.162341 54.484382 
L 292.36978 62.524066 
L 292.421639 62.526337 
L 292.732796 75.171417 
L 292.784656 75.594797 
L 293.40697 107.345595 
L 293.45883 107.740811 
L 293.977425 126.356825 
L 294.081144 124.67239 
L 294.133004 125.817152 
L 294.184863 125.628629 
L 294.236723 124.728719 
L 294.288583 120.434044 
L 294.340442 121.515662 
L 294.392302 122.2057 
L 294.444161 121.720538 
L 294.59974 117.141035 
L 294.807178 107.730363 
L 294.962757 100.950372 
L 295.118335 93.848758 
L 295.170195 94.398425 
L 295.377633 85.061345 
L 295.429492 86.523642 
L 295.636931 78.430809 
L 295.68879 78.390379 
L 296.103666 63.552535 
L 297.037138 49.501487 
L 297.088998 49.635042 
L 297.140857 50.190615 
L 297.244576 46.259811 
L 297.296436 48.037826 
L 297.400155 48.646549 
L 297.555734 46.328406 
L 297.659453 48.10097 
L 297.711312 47.955603 
L 297.763172 47.313719 
L 297.815031 48.085071 
L 297.866891 46.976196 
L 297.91875 47.873835 
L 297.97061 47.877469 
L 298.644784 56.211065 
L 298.748503 58.120365 
L 298.800362 56.968789 
L 298.852222 57.884144 
L 298.955941 61.370672 
L 299.007801 61.298443 
L 299.578256 77.735321 
L 299.630115 76.104035 
L 299.681975 76.680959 
L 299.993132 93.559387 
L 300.044991 92.90978 
L 300.096851 92.922046 
L 300.25243 98.732622 
L 300.356149 105.866036 
L 300.408008 104.288353 
L 300.874744 116.588188 
L 300.926604 117.244609 
L 301.082182 121.717813 
L 301.237761 126.126056 
L 301.28962 125.32336 
L 301.393339 123.614393 
L 301.445199 127.796864 
L 301.497059 126.685717 
L 301.704497 122.419661 
L 301.756356 124.894074 
L 301.808216 123.247797 
L 301.911935 121.671931 
L 302.119373 114.411322 
L 302.274952 115.606509 
L 302.48239 108.758832 
L 302.586109 104.429177 
L 302.637968 104.838021 
L 302.689828 105.667519 
L 303.104704 92.753511 
L 303.364002 88.840877 
L 303.467721 84.21095 
L 303.519581 84.445354 
L 303.6233 84.483058 
L 303.727019 80.895682 
L 303.778878 83.671277 
L 303.934457 77.229718 
L 303.986316 78.94459 
L 304.141895 73.226684 
L 304.245614 76.169904 
L 304.401193 71.358268 
L 304.453052 71.815719 
L 304.504912 71.778015 
L 304.608631 67.770893 
L 304.71235 70.208963 
L 304.816069 65.980612 
L 304.867929 65.989243 
L 304.919788 66.918681 
L 305.179086 60.75877 
L 305.230945 62.447748 
L 305.282805 60.572973 
L 305.334664 60.227273 
L 305.438383 57.727421 
L 305.490243 58.602346 
L 305.542103 58.755436 
L 305.697681 57.555252 
L 305.749541 57.830995 
L 305.956979 54.410336 
L 306.008838 54.353098 
L 306.060698 54.696981 
L 306.683012 49.319778 
L 306.734872 50.878835 
L 306.786732 50.445007 
L 306.838591 50.563117 
L 306.94231 49.133073 
L 306.99417 49.397004 
L 307.046029 49.17214 
L 307.149748 48.438493 
L 307.201608 48.872776 
L 307.253467 46.538733 
L 307.305327 47.347789 
L 307.357186 47.327801 
L 307.564625 45.773287 
L 307.720203 48.01057 
L 307.772063 47.433646 
L 307.823922 48.389432 
L 307.875782 47.058419 
L 307.927641 48.708784 
L 308.03136 48.602031 
L 308.08322 46.547818 
L 308.13508 47.950606 
L 308.238799 46.580072 
L 308.290658 47.180163 
L 308.342518 47.161992 
L 308.446237 46.616413 
L 308.498096 46.715444 
L 308.601815 46.361113 
L 308.964832 50.176987 
L 309.068551 48.066445 
L 309.275989 49.55827 
L 309.431568 48.105058 
L 310.053882 55.17124 
L 310.157602 54.465303 
L 310.416899 55.262548 
L 310.468759 55.394741 
L 310.572478 54.577508 
L 310.624337 53.958791 
L 310.676197 54.004672 
L 310.935495 59.730755 
L 310.987354 59.43775 
L 311.039214 60.137781 
L 311.091073 59.498168 
L 311.142933 59.792536 
L 311.246652 62.785726 
L 311.298511 61.394294 
L 311.402231 61.696384 
L 311.45409 62.703503 
L 311.50595 61.496051 
L 311.557809 62.257409 
L 311.765247 65.825705 
L 311.817107 65.10614 
L 311.868966 65.670799 
L 311.920826 65.490908 
L 312.076405 68.27695 
L 312.128264 67.874466 
L 312.283843 70.4043 
L 312.335702 69.171863 
L 312.387562 69.841913 
L 312.439421 71.689432 
L 312.54314 69.114171 
L 312.646859 70.710933 
L 312.802438 73.283014 
L 312.958017 74.651731 
L 313.009876 73.991676 
L 313.165455 77.880233 
L 313.217314 75.842829 
L 313.321033 76.112212 
L 313.476612 79.456553 
L 313.528472 78.27772 
L 313.580331 83.692627 
L 313.632191 82.621457 
L 313.73591 80.585415 
L 313.787769 81.506222 
L 314.306365 89.664016 
L 314.358224 88.796813 
L 314.513803 91.659173 
L 314.565662 91.550148 
L 314.669381 92.641761 
L 314.721241 92.28425 
L 314.773101 90.88237 
L 314.928679 96.86239 
L 315.032398 96.619809 
L 315.136117 94.933556 
L 315.343556 100.577416 
L 315.395415 99.694768 
L 315.447275 100.337561 
L 315.602853 104.307433 
L 315.654713 105.077876 
L 315.706572 103.717335 
L 315.758432 104.702194 
L 315.810291 105.136023 
L 315.862151 107.545475 
L 315.91401 106.248077 
L 315.96587 104.693563 
L 316.01773 106.404347 
L 316.225168 111.228247 
L 316.328887 109.795478 
L 316.432606 112.461592 
L 316.484465 112.17949 
L 316.536325 112.060017 
L 316.640044 114.186458 
L 316.691904 112.781399 
L 316.847482 116.369683 
L 317.003061 114.153751 
L 317.10678 115.25354 
L 317.158639 115.244455 
L 317.210499 113.227039 
L 317.262358 114.911929 
L 317.366078 120.057908 
L 317.417937 119.29973 
L 317.469797 117.570775 
L 317.625375 120.994614 
L 317.677235 120.396339 
L 317.729094 117.699788 
L 317.780954 119.476895 
L 317.832813 122.023083 
L 317.884673 121.550187 
L 317.936532 118.547912 
L 318.092111 123.281867 
L 318.24769 120.059725 
L 318.351409 121.895887 
L 318.403268 121.31124 
L 318.455128 120.802912 
L 318.506987 120.964632 
L 318.558847 124.014151 
L 318.610706 123.970541 
L 318.662566 123.496737 
L 318.714426 124.048676 
L 318.870004 120.442675 
L 319.025583 124.040953 
L 319.129302 121.199944 
L 319.233021 123.742043 
L 319.28488 122.212968 
L 319.33674 121.607425 
L 319.3886 122.262483 
L 319.544178 126.118333 
L 319.699757 127.735537 
L 319.751616 127.357584 
L 319.803476 127.31034 
L 320.010914 123.580777 
L 320.062774 123.035198 
L 320.114633 123.69389 
L 320.166493 123.483109 
L 320.42579 122.138013 
L 320.529509 124.318513 
L 320.581369 120.355455 
L 320.685088 120.512178 
L 320.788807 122.815785 
L 320.840667 121.406637 
L 320.944386 118.918142 
L 320.996245 119.643158 
L 321.048105 121.559272 
L 321.203683 118.681013 
L 321.307403 119.932529 
L 321.359262 118.91042 
L 321.411122 119.868022 
L 321.462981 119.445096 
L 321.514841 119.568658 
L 321.5667 119.606817 
L 321.61856 121.123627 
L 321.670419 120.230076 
L 321.774138 117.943277 
L 321.825998 118.067293 
L 321.877857 118.245367 
L 322.137155 115.368925 
L 322.189015 114.16965 
L 322.240874 114.49718 
L 322.344593 118.023229 
L 322.396453 114.866047 
L 322.448312 115.606963 
L 322.500172 115.771409 
L 322.603891 112.527916 
L 322.655751 115.704177 
L 322.70761 113.414198 
L 322.811329 113.861655 
L 322.966908 110.884819 
L 323.018767 115.291245 
L 323.070627 112.363016 
L 323.122486 112.723707 
L 323.174346 110.153443 
L 323.226205 110.544116 
L 323.329925 113.76217 
L 323.485503 106.659192 
L 323.537363 104.955223 
L 323.692941 108.928275 
L 323.79666 105.92282 
L 323.84852 107.176153 
L 323.900379 106.757315 
L 324.004099 107.486874 
L 324.055958 107.34605 
L 324.159677 108.309558 
L 324.522694 101.639501 
L 324.678273 105.392231 
L 324.781992 101.882536 
L 324.833851 102.570302 
L 324.885711 104.504132 
L 324.93757 101.271996 
L 325.041289 101.382384 
L 325.145008 105.596199 
L 325.248728 102.527146 
L 325.300587 103.796833 
L 325.352447 102.682052 
L 325.456166 101.15116 
L 325.508025 101.165697 
L 325.559885 99.044706 
L 325.611744 100.138136 
L 325.663604 100.456126 
L 325.715463 102.239593 
L 325.767323 100.302582 
L 325.819182 98.394645 
L 325.871042 100.031383 
L 325.922902 99.978687 
L 325.974761 97.482469 
L 326.07848 97.749581 
L 326.182199 95.392824 
L 326.285918 97.731864 
L 326.337778 96.331802 
L 326.389637 97.238526 
L 326.441497 94.333465 
L 326.493356 99.241406 
L 326.545216 96.384497 
L 326.804514 91.399784 
L 327.011952 95.164326 
L 327.115671 96.303637 
L 327.27125 90.553932 
L 327.323109 91.190366 
L 327.374969 91.433855 
L 327.426828 91.10678 
L 327.530547 89.237001 
L 327.582407 92.413262 
L 327.634266 91.464291 
L 327.686126 91.095877 
L 327.737985 91.868592 
L 327.841704 87.265467 
L 327.893564 88.608745 
L 327.997283 93.418109 
L 328.049143 90.809232 
L 328.152862 86.696265 
L 328.204721 88.740029 
L 328.256581 89.234276 
L 328.30844 85.492902 
L 328.3603 87.323613 
L 328.412159 87.157804 
L 328.464019 85.69051 
L 328.515878 86.82119 
L 328.567738 87.411742 
L 328.619598 87.329519 
L 328.671457 84.374033 
L 328.723317 88.290301 
L 328.775176 85.434301 
L 328.827036 84.701563 
L 328.878895 87.305442 
L 328.930755 87.151445 
L 329.034474 87.383577 
L 329.086333 85.104501 
L 329.138193 86.159317 
L 329.190053 85.736391 
L 329.345631 83.308314 
L 329.397491 81.870547 
L 329.44935 83.01531 
L 329.50121 85.326185 
L 329.553069 82.511069 
L 329.604929 83.539538 
L 329.656788 83.043929 
L 329.708648 84.280908 
L 329.760507 83.473669 
L 330.019805 80.296954 
L 330.123524 82.284842 
L 330.175384 81.632964 
L 330.227243 79.202161 
L 330.279103 80.769849 
L 330.330962 81.6634 
L 330.382822 80.531812 
L 330.434681 82.664613 
L 330.59026 77.964728 
L 330.64212 77.974722 
L 330.693979 78.629326 
L 330.745839 78.409459 
L 330.797698 76.865847 
L 330.849558 78.209125 
L 330.901417 80.560431 
L 330.953277 78.834656 
L 331.005136 79.645984 
L 331.160715 76.93535 
L 331.212575 79.130386 
L 331.316294 79.104039 
L 331.471872 76.203066 
L 331.627451 78.251827 
L 331.67931 77.840712 
L 331.783029 74.493645 
L 331.834889 75.000157 
L 331.886749 73.921718 
L 331.938608 76.699584 
L 331.990468 75.160514 
L 332.197906 69.885068 
L 332.353484 72.931408 
L 332.457203 68.390972 
L 332.509063 70.923077 
L 332.560923 70.690036 
L 332.612782 70.511962 
L 332.716501 71.359177 
L 332.768361 71.241975 
L 332.87208 70.726378 
L 332.923939 66.812836 
L 332.975799 71.069352 
L 333.183237 69.231827 
L 333.235097 67.314805 
L 333.286956 68.490457 
L 333.338816 68.363716 
L 333.390675 67.242121 
L 333.442535 67.768621 
L 333.494394 68.942911 
L 333.649973 67.477888 
L 333.701832 67.437912 
L 333.753692 67.18352 
L 333.805552 68.312837 
L 333.857411 68.151571 
L 333.909271 67.210322 
L 334.01299 68.699422 
L 334.064849 68.160203 
L 334.168568 66.04103 
L 334.272287 68.329191 
L 334.376006 68.109778 
L 334.531585 66.720619 
L 334.583445 67.252115 
L 334.635304 69.172318 
L 334.687164 66.616591 
L 334.739023 68.410506 
L 334.790883 70.09267 
L 334.842742 69.76605 
L 335.10204 67.349784 
L 335.1539 66.715622 
L 335.205759 69.199574 
L 335.257619 68.739398 
L 335.361338 64.993936 
L 335.413197 69.159144 
L 335.465057 68.721227 
L 335.620635 64.97849 
L 335.776214 70.652332 
L 335.931793 69.186854 
L 335.983652 68.258325 
L 336.035512 70.520593 
L 336.087371 69.093275 
L 336.24295 66.695179 
L 336.346669 69.22683 
L 336.398528 68.311929 
L 336.450388 68.578586 
L 336.502248 68.645818 
L 336.554107 69.471228 
L 336.605967 66.609777 
L 336.709686 66.660655 
L 336.761545 64.988484 
L 336.813405 66.599783 
L 336.968983 68.465927 
L 337.020843 67.836307 
L 337.072702 65.192906 
L 337.124562 67.57283 
L 337.176422 68.033461 
L 337.280141 65.800266 
L 337.435719 71.023925 
L 337.591298 65.899297 
L 337.643157 66.902781 
L 337.695017 66.847814 
L 337.746877 65.608564 
L 337.798736 68.627193 
L 337.850596 67.285731 
L 337.902455 67.937156 
L 337.954315 67.173526 
L 338.006174 69.87144 
L 338.058034 67.600087 
L 338.109893 69.17686 
L 338.213612 65.719406 
L 338.265472 67.251661 
L 338.421051 63.865981 
L 338.47291 65.526341 
L 338.52477 65.973343 
L 338.576629 65.287849 
L 338.784067 69.167775 
L 338.939646 66.020133 
L 338.991505 66.288153 
L 339.043365 67.288457 
L 339.095225 66.507111 
L 339.147084 66.876888 
L 339.250803 64.632336 
L 339.302663 66.921406 
L 339.354522 64.950326 
L 339.406382 65.542695 
L 339.510101 62.944266 
L 339.56196 65.26241 
L 339.61382 64.160349 
L 339.873118 67.274375 
L 339.976837 63.624309 
L 340.028696 64.137181 
L 340.132415 66.136881 
L 340.236134 63.494388 
L 340.287994 64.427006 
L 340.339853 64.204413 
L 340.391713 64.540119 
L 340.495432 61.832211 
L 340.547292 62.945175 
L 340.599151 63.030577 
L 340.70287 60.714705 
L 340.75473 63.309954 
L 340.858449 63.205472 
L 340.910308 63.993631 
L 340.962168 62.241963 
L 341.014027 64.839029 
L 341.065887 64.620525 
L 341.117747 61.953047 
L 341.221466 62.30965 
L 341.273325 63.936393 
L 341.325185 63.589785 
L 341.480763 61.915797 
L 341.532623 63.41489 
L 341.584482 61.38748 
L 341.688201 61.547384 
L 341.89564 63.755139 
L 342.103078 60.08554 
L 342.154937 62.145204 
L 342.206797 61.441084 
L 342.310516 59.433662 
L 342.362376 59.625364 
L 342.414235 60.296776 
L 342.466095 57.468487 
L 342.517954 58.35704 
L 342.569814 59.517702 
L 342.621673 57.756494 
L 342.673533 60.150955 
L 342.777252 59.995595 
L 342.829111 59.958799 
L 342.880971 57.365821 
L 342.93283 58.690929 
L 342.98469 60.180029 
L 343.03655 59.029361 
L 343.140269 58.984388 
L 343.243988 60.853712 
L 343.295847 60.491658 
L 343.347707 60.66519 
L 343.503285 59.066611 
L 343.555145 59.347805 
L 343.607004 59.559041 
L 343.710724 57.997712 
L 343.866302 61.151714 
L 343.918162 60.778303 
L 343.970021 61.312071 
L 344.07374 58.754527 
L 344.1256 59.604468 
L 344.229319 58.732268 
L 344.281178 60.13233 
L 344.333038 59.999683 
L 344.384898 59.442747 
L 344.436757 60.734239 
L 344.488617 60.02376 
L 344.644195 58.089475 
L 344.696055 58.104466 
L 344.747914 56.97424 
L 344.799774 57.389444 
L 344.851633 57.389898 
L 344.955352 56.809794 
L 345.110931 59.720307 
L 345.21465 58.729542 
L 345.26651 58.833116 
L 345.318369 59.044352 
L 345.525807 57.778754 
L 345.577667 57.846894 
L 345.629526 57.137778 
L 345.681386 57.477572 
L 345.733246 58.821759 
L 345.785105 58.103103 
L 345.836965 55.458793 
L 345.888824 58.037234 
L 345.940684 59.211069 
L 345.992543 58.577362 
L 346.148122 56.973332 
L 346.199981 56.92427 
L 346.251841 57.271333 
L 346.3037 55.961671 
L 346.35556 56.119303 
L 346.40742 56.615821 
L 346.459279 55.381567 
L 346.614858 58.718185 
L 346.666717 58.894897 
L 346.718577 58.418367 
L 346.770436 59.2356 
L 346.822296 59.149743 
L 346.874155 58.342049 
L 346.926015 60.737419 
L 346.977875 59.494534 
L 347.029734 60.310404 
L 347.081594 58.402013 
L 347.133453 58.613249 
L 347.237172 59.603559 
L 347.392751 56.469091 
L 347.44461 58.568276 
L 347.49647 57.870971 
L 347.548329 56.199709 
L 347.600189 56.772998 
L 347.652049 58.844018 
L 347.703908 58.211674 
L 347.755768 57.393078 
L 347.859487 59.566763 
L 347.911346 57.767851 
L 347.963206 59.966521 
L 348.015065 58.854012 
L 348.118784 58.01452 
L 348.170644 58.774515 
L 348.222503 58.197591 
L 348.274363 58.355223 
L 348.429942 60.228636 
L 348.63738 57.047832 
L 348.741099 56.718486 
L 348.844818 58.070395 
L 348.896677 60.496201 
L 348.948537 59.991052 
L 349.000397 57.897318 
L 349.052256 58.938052 
L 349.207835 60.373094 
L 349.467132 56.671242 
L 349.570851 58.906708 
L 349.72643 54.213637 
L 349.882009 57.548893 
L 349.933868 60.6184 
L 349.985728 58.606435 
L 350.089447 57.891867 
L 350.296885 62.390056 
L 350.348745 61.926245 
L 350.556183 52.152611 
L 350.659902 52.583714 
L 350.711761 50.561755 
L 350.81548 55.600071 
L 350.86734 55.406098 
L 351.022919 58.133539 
L 351.230357 64.677763 
L 351.645233 51.013754 
L 351.697093 51.16866 
L 351.748952 50.75482 
L 351.904531 51.796008 
L 352.060109 60.338115 
L 352.111969 59.953348 
L 352.267548 65.253324 
L 352.319407 60.769672 
L 352.371267 61.394749 
L 352.423126 62.664435 
L 352.578705 53.887925 
L 352.630564 56.976966 
L 352.838002 50.759817 
L 353.0973 57.489837 
L 353.14916 57.516185 
L 353.252879 60.586147 
L 353.304738 60.450774 
L 353.356598 60.576607 
L 353.408457 60.487116 
L 353.460317 60.333118 
L 353.512176 60.806922 
L 353.771474 55.310246 
L 353.823334 55.685928 
L 353.875193 56.084778 
L 354.030772 50.781167 
L 354.082631 50.856576 
L 354.134491 49.999822 
L 354.445648 60.651107 
L 354.549367 57.227723 
L 354.653086 65.210168 
L 354.704946 64.26256 
L 354.756805 65.039817 
L 355.067963 52.050854 
L 355.119822 52.332502 
L 355.171682 52.058122 
L 355.223541 50.898369 
L 355.275401 51.531168 
L 355.638418 62.461376 
L 355.690277 60.418067 
L 355.742137 60.289508 
L 355.793996 60.496201 
L 356.105153 55.022693 
L 356.157013 55.53511 
L 356.312592 52.109455 
L 356.623749 58.740445 
L 356.675608 57.478481 
L 356.727468 57.832358 
L 356.831187 59.529967 
L 356.883047 59.499985 
L 356.986766 56.862035 
L 357.038625 58.370668 
L 357.246063 52.44289 
L 357.401642 53.795254 
L 357.453501 54.021935 
L 357.60908 52.839922 
L 357.66094 53.713485 
L 357.816518 58.287083 
L 357.972097 56.719849 
L 358.023956 56.369152 
L 358.075816 56.681235 
L 358.179535 52.104458 
L 358.283254 53.261031 
L 358.386973 50.30918 
L 358.490692 54.42669 
L 358.542552 53.562213 
L 358.646271 52.17169 
L 358.69813 55.90943 
L 358.74999 54.343558 
L 358.853709 56.097952 
L 358.905569 55.266636 
L 359.009288 54.379446 
L 359.061147 52.782684 
L 359.113007 54.792378 
L 359.164866 54.299494 
L 359.216726 54.37036 
L 359.320445 53.401401 
L 359.372304 51.577504 
L 359.424164 51.887771 
L 359.527883 55.49468 
L 359.579743 54.335836 
L 359.683462 52.976658 
L 359.735321 55.162608 
L 359.787181 52.887166 
L 359.942759 53.706217 
L 360.046478 51.38035 
L 360.098338 51.700157 
L 360.253917 55.128992 
L 360.357636 53.053429 
L 360.461355 55.333414 
L 360.720652 52.369298 
L 360.876231 55.141258 
L 361.03181 54.570239 
L 361.083669 54.097798 
L 361.135529 54.421693 
L 361.187388 54.652917 
L 361.239248 53.684412 
L 361.291107 54.132322 
L 361.342967 54.090984 
L 361.394826 52.276627 
L 361.446686 52.322962 
L 361.498546 52.56736 
L 361.602265 51.918661 
L 361.654124 52.41745 
L 361.861562 57.533447 
L 361.913422 57.235446 
L 362.069 59.112492 
L 362.380158 53.015725 
L 362.535736 56.81252 
L 362.691315 54.399888 
L 362.898753 60.108708 
L 362.950613 60.033753 
L 363.158051 62.601292 
L 363.313629 60.678364 
L 363.521068 57.172756 
L 363.780365 62.891116 
L 363.884084 62.271945 
L 363.935944 62.542691 
L 363.987803 61.977124 
L 364.039663 62.147929 
L 364.195242 64.165346 
L 364.661977 57.320849 
L 364.713837 58.534206 
L 364.765696 57.288141 
L 364.973135 61.702744 
L 365.180573 53.757095 
L 365.232432 57.090533 
L 365.284292 54.631112 
L 365.388011 53.477264 
L 365.439871 54.449403 
L 365.49173 52.929868 
L 365.54359 55.129901 
L 365.595449 54.964546 
L 365.751028 51.371265 
L 365.854747 53.936986 
L 365.906606 49.338858 
L 365.958466 51.955003 
L 366.010325 51.807365 
L 366.062185 49.495127 
L 366.114045 51.65791 
L 366.165904 53.209699 
L 366.321483 50.710301 
L 366.373342 51.376716 
L 366.477061 48.180467 
L 366.528921 52.30888 
L 366.58078 49.203485 
L 366.684499 50.30282 
L 366.736359 49.957574 
L 366.788219 50.661694 
L 366.943797 48.921837 
L 366.995657 50.740737 
L 367.047516 48.361721 
L 367.099376 48.651546 
L 367.151235 49.729076 
L 367.203095 48.01693 
L 367.254954 51.712877 
L 367.306814 51.076898 
L 367.358673 50.203335 
L 367.410533 52.111726 
L 367.462393 49.844007 
L 367.514252 51.769206 
L 367.566112 51.483924 
L 367.617971 48.446216 
L 367.669831 50.566297 
L 367.72169 50.032529 
L 367.77355 50.458181 
L 367.825409 52.392466 
L 367.877269 50.986952 
L 367.929128 51.017842 
L 367.980988 49.920779 
L 368.344005 60.386722 
L 368.499583 53.582655 
L 368.551443 52.110363 
L 368.707021 55.553736 
L 368.810741 50.977412 
L 368.966319 55.892167 
L 369.121898 54.822814 
L 369.225617 53.355065 
L 369.277476 53.503612 
L 369.381195 52.737257 
L 369.433055 54.116423 
L 369.484915 53.081594 
L 369.588634 54.165484 
L 369.692353 52.613695 
L 369.796072 55.20849 
L 369.847931 53.938803 
L 369.899791 54.914577 
L 369.95165 54.544346 
L 370.05537 55.383384 
L 370.107229 52.407456 
L 370.159089 54.730143 
L 370.314667 55.690017 
L 370.470246 53.628536 
L 370.522105 53.638984 
L 370.625824 52.200763 
L 370.677684 52.734986 
L 370.729544 51.770115 
L 370.781403 52.098552 
L 370.885122 54.25861 
L 370.988841 51.101882 
L 371.040701 53.731656 
L 371.09256 53.517694 
L 371.14442 52.017238 
L 371.196279 55.720907 
L 371.248139 53.824781 
L 371.299998 54.743317 
L 371.351858 53.963334 
L 371.403718 52.501036 
L 371.611156 57.205918 
L 371.663015 53.240135 
L 371.766734 53.796616 
L 371.870453 60.797837 
L 372.077892 76.179444 
L 372.129751 212.855423 
L 372.181611 72.887798 
L 372.337189 63.566163 
L 372.389049 65.574948 
L 372.492768 60.784209 
L 372.596487 62.450019 
L 372.752066 61.345233 
L 372.803925 61.761345 
L 372.855785 61.474246 
L 372.959504 65.931096 
L 373.063223 62.410498 
L 373.32252 237.033074 
L 373.37438 240.562758 
L 373.478099 240.506882 
L 373.529959 240.419208 
L 373.581818 242.116364 
L 373.581818 242.116364 
" style="fill:none;stroke:#1f77b4;stroke-linecap:square;stroke-width:1.5;"/>
   </g>
   <g id="patch_3">
    <path d="M 54 252 
L 54 34.56 
" style="fill:none;stroke:#000000;stroke-linecap:square;stroke-linejoin:miter;stroke-width:0.8;"/>
   </g>
   <g id="patch_4">
    <path d="M 388.8 252 
L 388.8 34.56 
" style="fill:none;stroke:#000000;stroke-linecap:square;stroke-linejoin:miter;stroke-width:0.8;"/>
   </g>
   <g id="patch_5">
    <path d="M 54 252 
L 388.8 252 
" style="fill:none;stroke:#000000;stroke-linecap:square;stroke-linejoin:miter;stroke-width:0.8;"/>
   </g>
   <g id="patch_6">
    <path d="M 54 34.56 
L 388.8 34.56 
" style="fill:none;stroke:#000000;stroke-linecap:square;stroke-linejoin:miter;stroke-width:0.8;"/>
   </g>
  </g>
 </g>
 <defs>
  <clipPath id="p7578c651d9">
   <rect height="217.44" width="334.8" x="54" y="34.56"/>
  </clipPath>
 </defs>
</svg>
