<?xml version="1.0" encoding="utf-8" standalone="no"?>
<!DOCTYPE svg PUBLIC "-//W3C//DTD SVG 1.1//EN"
  "http://www.w3.org/Graphics/SVG/1.1/DTD/svg11.dtd">
<!-- Created with matplotlib (https://matplotlib.org/) -->
<svg height="288pt" version="1.1" viewBox="0 0 432 288" width="432pt" xmlns="http://www.w3.org/2000/svg" xmlns:xlink="http://www.w3.org/1999/xlink">
 <defs>
  <style type="text/css">
*{stroke-linecap:butt;stroke-linejoin:round;}
  </style>
 </defs>
 <g id="figure_1">
  <g id="patch_1">
   <path d="M 0 288 
L 432 288 
L 432 0 
L 0 0 
z
" style="fill:#ffffff;"/>
  </g>
  <g id="axes_1">
   <g id="patch_2">
    <path d="M 54 252 
L 388.8 252 
L 388.8 34.56 
L 54 34.56 
z
" style="fill:#ffffff;"/>
   </g>
   <g id="matplotlib.axis_1">
    <g id="xtick_1">
     <g id="line2d_1">
      <defs>
       <path d="M 0 0 
L 0 3.5 
" id="me747e57aa2" style="stroke:#000000;stroke-width:0.8;"/>
      </defs>
      <g>
       <use style="stroke:#000000;stroke-width:0.8;" x="69.218182" xlink:href="#me747e57aa2" y="252"/>
      </g>
     </g>
     <g id="text_1">
      <!-- 0 -->
      <defs>
       <path d="M 31.78125 66.40625 
Q 24.171875 66.40625 20.328125 58.90625 
Q 16.5 51.421875 16.5 36.375 
Q 16.5 21.390625 20.328125 13.890625 
Q 24.171875 6.390625 31.78125 6.390625 
Q 39.453125 6.390625 43.28125 13.890625 
Q 47.125 21.390625 47.125 36.375 
Q 47.125 51.421875 43.28125 58.90625 
Q 39.453125 66.40625 31.78125 66.40625 
z
M 31.78125 74.21875 
Q 44.046875 74.21875 50.515625 64.515625 
Q 56.984375 54.828125 56.984375 36.375 
Q 56.984375 17.96875 50.515625 8.265625 
Q 44.046875 -1.421875 31.78125 -1.421875 
Q 19.53125 -1.421875 13.0625 8.265625 
Q 6.59375 17.96875 6.59375 36.375 
Q 6.59375 54.828125 13.0625 64.515625 
Q 19.53125 74.21875 31.78125 74.21875 
z
" id="DejaVuSans-48"/>
      </defs>
      <g transform="translate(66.036932 266.598437)scale(0.1 -0.1)">
       <use xlink:href="#DejaVuSans-48"/>
      </g>
     </g>
    </g>
    <g id="xtick_2">
     <g id="line2d_2">
      <g>
       <use style="stroke:#000000;stroke-width:0.8;" x="131.51119" xlink:href="#me747e57aa2" y="252"/>
      </g>
     </g>
     <g id="text_2">
      <!-- 1000 -->
      <defs>
       <path d="M 12.40625 8.296875 
L 28.515625 8.296875 
L 28.515625 63.921875 
L 10.984375 60.40625 
L 10.984375 69.390625 
L 28.421875 72.90625 
L 38.28125 72.90625 
L 38.28125 8.296875 
L 54.390625 8.296875 
L 54.390625 0 
L 12.40625 0 
z
" id="DejaVuSans-49"/>
      </defs>
      <g transform="translate(118.78619 266.598437)scale(0.1 -0.1)">
       <use xlink:href="#DejaVuSans-49"/>
       <use x="63.623047" xlink:href="#DejaVuSans-48"/>
       <use x="127.246094" xlink:href="#DejaVuSans-48"/>
       <use x="190.869141" xlink:href="#DejaVuSans-48"/>
      </g>
     </g>
    </g>
    <g id="xtick_3">
     <g id="line2d_3">
      <g>
       <use style="stroke:#000000;stroke-width:0.8;" x="193.804198" xlink:href="#me747e57aa2" y="252"/>
      </g>
     </g>
     <g id="text_3">
      <!-- 2000 -->
      <defs>
       <path d="M 19.1875 8.296875 
L 53.609375 8.296875 
L 53.609375 0 
L 7.328125 0 
L 7.328125 8.296875 
Q 12.9375 14.109375 22.625 23.890625 
Q 32.328125 33.6875 34.8125 36.53125 
Q 39.546875 41.84375 41.421875 45.53125 
Q 43.3125 49.21875 43.3125 52.78125 
Q 43.3125 58.59375 39.234375 62.25 
Q 35.15625 65.921875 28.609375 65.921875 
Q 23.96875 65.921875 18.8125 64.3125 
Q 13.671875 62.703125 7.8125 59.421875 
L 7.8125 69.390625 
Q 13.765625 71.78125 18.9375 73 
Q 24.125 74.21875 28.421875 74.21875 
Q 39.75 74.21875 46.484375 68.546875 
Q 53.21875 62.890625 53.21875 53.421875 
Q 53.21875 48.921875 51.53125 44.890625 
Q 49.859375 40.875 45.40625 35.40625 
Q 44.1875 33.984375 37.640625 27.21875 
Q 31.109375 20.453125 19.1875 8.296875 
z
" id="DejaVuSans-50"/>
      </defs>
      <g transform="translate(181.079198 266.598437)scale(0.1 -0.1)">
       <use xlink:href="#DejaVuSans-50"/>
       <use x="63.623047" xlink:href="#DejaVuSans-48"/>
       <use x="127.246094" xlink:href="#DejaVuSans-48"/>
       <use x="190.869141" xlink:href="#DejaVuSans-48"/>
      </g>
     </g>
    </g>
    <g id="xtick_4">
     <g id="line2d_4">
      <g>
       <use style="stroke:#000000;stroke-width:0.8;" x="256.097205" xlink:href="#me747e57aa2" y="252"/>
      </g>
     </g>
     <g id="text_4">
      <!-- 3000 -->
      <defs>
       <path d="M 40.578125 39.3125 
Q 47.65625 37.796875 51.625 33 
Q 55.609375 28.21875 55.609375 21.1875 
Q 55.609375 10.40625 48.1875 4.484375 
Q 40.765625 -1.421875 27.09375 -1.421875 
Q 22.515625 -1.421875 17.65625 -0.515625 
Q 12.796875 0.390625 7.625 2.203125 
L 7.625 11.71875 
Q 11.71875 9.328125 16.59375 8.109375 
Q 21.484375 6.890625 26.8125 6.890625 
Q 36.078125 6.890625 40.9375 10.546875 
Q 45.796875 14.203125 45.796875 21.1875 
Q 45.796875 27.640625 41.28125 31.265625 
Q 36.765625 34.90625 28.71875 34.90625 
L 20.21875 34.90625 
L 20.21875 43.015625 
L 29.109375 43.015625 
Q 36.375 43.015625 40.234375 45.921875 
Q 44.09375 48.828125 44.09375 54.296875 
Q 44.09375 59.90625 40.109375 62.90625 
Q 36.140625 65.921875 28.71875 65.921875 
Q 24.65625 65.921875 20.015625 65.03125 
Q 15.375 64.15625 9.8125 62.3125 
L 9.8125 71.09375 
Q 15.4375 72.65625 20.34375 73.4375 
Q 25.25 74.21875 29.59375 74.21875 
Q 40.828125 74.21875 47.359375 69.109375 
Q 53.90625 64.015625 53.90625 55.328125 
Q 53.90625 49.265625 50.4375 45.09375 
Q 46.96875 40.921875 40.578125 39.3125 
z
" id="DejaVuSans-51"/>
      </defs>
      <g transform="translate(243.372205 266.598437)scale(0.1 -0.1)">
       <use xlink:href="#DejaVuSans-51"/>
       <use x="63.623047" xlink:href="#DejaVuSans-48"/>
       <use x="127.246094" xlink:href="#DejaVuSans-48"/>
       <use x="190.869141" xlink:href="#DejaVuSans-48"/>
      </g>
     </g>
    </g>
    <g id="xtick_5">
     <g id="line2d_5">
      <g>
       <use style="stroke:#000000;stroke-width:0.8;" x="318.390213" xlink:href="#me747e57aa2" y="252"/>
      </g>
     </g>
     <g id="text_5">
      <!-- 4000 -->
      <defs>
       <path d="M 37.796875 64.3125 
L 12.890625 25.390625 
L 37.796875 25.390625 
z
M 35.203125 72.90625 
L 47.609375 72.90625 
L 47.609375 25.390625 
L 58.015625 25.390625 
L 58.015625 17.1875 
L 47.609375 17.1875 
L 47.609375 0 
L 37.796875 0 
L 37.796875 17.1875 
L 4.890625 17.1875 
L 4.890625 26.703125 
z
" id="DejaVuSans-52"/>
      </defs>
      <g transform="translate(305.665213 266.598437)scale(0.1 -0.1)">
       <use xlink:href="#DejaVuSans-52"/>
       <use x="63.623047" xlink:href="#DejaVuSans-48"/>
       <use x="127.246094" xlink:href="#DejaVuSans-48"/>
       <use x="190.869141" xlink:href="#DejaVuSans-48"/>
      </g>
     </g>
    </g>
    <g id="xtick_6">
     <g id="line2d_6">
      <g>
       <use style="stroke:#000000;stroke-width:0.8;" x="380.683221" xlink:href="#me747e57aa2" y="252"/>
      </g>
     </g>
     <g id="text_6">
      <!-- 5000 -->
      <defs>
       <path d="M 10.796875 72.90625 
L 49.515625 72.90625 
L 49.515625 64.59375 
L 19.828125 64.59375 
L 19.828125 46.734375 
Q 21.96875 47.46875 24.109375 47.828125 
Q 26.265625 48.1875 28.421875 48.1875 
Q 40.625 48.1875 47.75 41.5 
Q 54.890625 34.8125 54.890625 23.390625 
Q 54.890625 11.625 47.5625 5.09375 
Q 40.234375 -1.421875 26.90625 -1.421875 
Q 22.3125 -1.421875 17.546875 -0.640625 
Q 12.796875 0.140625 7.71875 1.703125 
L 7.71875 11.625 
Q 12.109375 9.234375 16.796875 8.0625 
Q 21.484375 6.890625 26.703125 6.890625 
Q 35.15625 6.890625 40.078125 11.328125 
Q 45.015625 15.765625 45.015625 23.390625 
Q 45.015625 31 40.078125 35.4375 
Q 35.15625 39.890625 26.703125 39.890625 
Q 22.75 39.890625 18.8125 39.015625 
Q 14.890625 38.140625 10.796875 36.28125 
z
" id="DejaVuSans-53"/>
      </defs>
      <g transform="translate(367.958221 266.598437)scale(0.1 -0.1)">
       <use xlink:href="#DejaVuSans-53"/>
       <use x="63.623047" xlink:href="#DejaVuSans-48"/>
       <use x="127.246094" xlink:href="#DejaVuSans-48"/>
       <use x="190.869141" xlink:href="#DejaVuSans-48"/>
      </g>
     </g>
    </g>
    <g id="text_7">
     <!-- Frames -->
     <defs>
      <path d="M 9.8125 72.90625 
L 51.703125 72.90625 
L 51.703125 64.59375 
L 19.671875 64.59375 
L 19.671875 43.109375 
L 48.578125 43.109375 
L 48.578125 34.8125 
L 19.671875 34.8125 
L 19.671875 0 
L 9.8125 0 
z
" id="DejaVuSans-70"/>
      <path d="M 41.109375 46.296875 
Q 39.59375 47.171875 37.8125 47.578125 
Q 36.03125 48 33.890625 48 
Q 26.265625 48 22.1875 43.046875 
Q 18.109375 38.09375 18.109375 28.8125 
L 18.109375 0 
L 9.078125 0 
L 9.078125 54.6875 
L 18.109375 54.6875 
L 18.109375 46.1875 
Q 20.953125 51.171875 25.484375 53.578125 
Q 30.03125 56 36.53125 56 
Q 37.453125 56 38.578125 55.875 
Q 39.703125 55.765625 41.0625 55.515625 
z
" id="DejaVuSans-114"/>
      <path d="M 34.28125 27.484375 
Q 23.390625 27.484375 19.1875 25 
Q 14.984375 22.515625 14.984375 16.5 
Q 14.984375 11.71875 18.140625 8.90625 
Q 21.296875 6.109375 26.703125 6.109375 
Q 34.1875 6.109375 38.703125 11.40625 
Q 43.21875 16.703125 43.21875 25.484375 
L 43.21875 27.484375 
z
M 52.203125 31.203125 
L 52.203125 0 
L 43.21875 0 
L 43.21875 8.296875 
Q 40.140625 3.328125 35.546875 0.953125 
Q 30.953125 -1.421875 24.3125 -1.421875 
Q 15.921875 -1.421875 10.953125 3.296875 
Q 6 8.015625 6 15.921875 
Q 6 25.140625 12.171875 29.828125 
Q 18.359375 34.515625 30.609375 34.515625 
L 43.21875 34.515625 
L 43.21875 35.40625 
Q 43.21875 41.609375 39.140625 45 
Q 35.0625 48.390625 27.6875 48.390625 
Q 23 48.390625 18.546875 47.265625 
Q 14.109375 46.140625 10.015625 43.890625 
L 10.015625 52.203125 
Q 14.9375 54.109375 19.578125 55.046875 
Q 24.21875 56 28.609375 56 
Q 40.484375 56 46.34375 49.84375 
Q 52.203125 43.703125 52.203125 31.203125 
z
" id="DejaVuSans-97"/>
      <path d="M 52 44.1875 
Q 55.375 50.25 60.0625 53.125 
Q 64.75 56 71.09375 56 
Q 79.640625 56 84.28125 50.015625 
Q 88.921875 44.046875 88.921875 33.015625 
L 88.921875 0 
L 79.890625 0 
L 79.890625 32.71875 
Q 79.890625 40.578125 77.09375 44.375 
Q 74.3125 48.1875 68.609375 48.1875 
Q 61.625 48.1875 57.5625 43.546875 
Q 53.515625 38.921875 53.515625 30.90625 
L 53.515625 0 
L 44.484375 0 
L 44.484375 32.71875 
Q 44.484375 40.625 41.703125 44.40625 
Q 38.921875 48.1875 33.109375 48.1875 
Q 26.21875 48.1875 22.15625 43.53125 
Q 18.109375 38.875 18.109375 30.90625 
L 18.109375 0 
L 9.078125 0 
L 9.078125 54.6875 
L 18.109375 54.6875 
L 18.109375 46.1875 
Q 21.1875 51.21875 25.484375 53.609375 
Q 29.78125 56 35.6875 56 
Q 41.65625 56 45.828125 52.96875 
Q 50 49.953125 52 44.1875 
z
" id="DejaVuSans-109"/>
      <path d="M 56.203125 29.59375 
L 56.203125 25.203125 
L 14.890625 25.203125 
Q 15.484375 15.921875 20.484375 11.0625 
Q 25.484375 6.203125 34.421875 6.203125 
Q 39.59375 6.203125 44.453125 7.46875 
Q 49.3125 8.734375 54.109375 11.28125 
L 54.109375 2.78125 
Q 49.265625 0.734375 44.1875 -0.34375 
Q 39.109375 -1.421875 33.890625 -1.421875 
Q 20.796875 -1.421875 13.15625 6.1875 
Q 5.515625 13.8125 5.515625 26.8125 
Q 5.515625 40.234375 12.765625 48.109375 
Q 20.015625 56 32.328125 56 
Q 43.359375 56 49.78125 48.890625 
Q 56.203125 41.796875 56.203125 29.59375 
z
M 47.21875 32.234375 
Q 47.125 39.59375 43.09375 43.984375 
Q 39.0625 48.390625 32.421875 48.390625 
Q 24.90625 48.390625 20.390625 44.140625 
Q 15.875 39.890625 15.1875 32.171875 
z
" id="DejaVuSans-101"/>
      <path d="M 44.28125 53.078125 
L 44.28125 44.578125 
Q 40.484375 46.53125 36.375 47.5 
Q 32.28125 48.484375 27.875 48.484375 
Q 21.1875 48.484375 17.84375 46.4375 
Q 14.5 44.390625 14.5 40.28125 
Q 14.5 37.15625 16.890625 35.375 
Q 19.28125 33.59375 26.515625 31.984375 
L 29.59375 31.296875 
Q 39.15625 29.25 43.1875 25.515625 
Q 47.21875 21.78125 47.21875 15.09375 
Q 47.21875 7.46875 41.1875 3.015625 
Q 35.15625 -1.421875 24.609375 -1.421875 
Q 20.21875 -1.421875 15.453125 -0.5625 
Q 10.6875 0.296875 5.421875 2 
L 5.421875 11.28125 
Q 10.40625 8.6875 15.234375 7.390625 
Q 20.0625 6.109375 24.8125 6.109375 
Q 31.15625 6.109375 34.5625 8.28125 
Q 37.984375 10.453125 37.984375 14.40625 
Q 37.984375 18.0625 35.515625 20.015625 
Q 33.0625 21.96875 24.703125 23.78125 
L 21.578125 24.515625 
Q 13.234375 26.265625 9.515625 29.90625 
Q 5.8125 33.546875 5.8125 39.890625 
Q 5.8125 47.609375 11.28125 51.796875 
Q 16.75 56 26.8125 56 
Q 31.78125 56 36.171875 55.265625 
Q 40.578125 54.546875 44.28125 53.078125 
z
" id="DejaVuSans-115"/>
     </defs>
     <g transform="translate(191.73375 284.835625)scale(0.16 -0.16)">
      <use xlink:href="#DejaVuSans-70"/>
      <use x="57.410156" xlink:href="#DejaVuSans-114"/>
      <use x="98.523438" xlink:href="#DejaVuSans-97"/>
      <use x="159.802734" xlink:href="#DejaVuSans-109"/>
      <use x="257.214844" xlink:href="#DejaVuSans-101"/>
      <use x="318.738281" xlink:href="#DejaVuSans-115"/>
     </g>
    </g>
   </g>
   <g id="matplotlib.axis_2">
    <g id="ytick_1">
     <g id="line2d_7">
      <defs>
       <path d="M 0 0 
L -3.5 0 
" id="mbe85412fb8" style="stroke:#000000;stroke-width:0.8;"/>
      </defs>
      <g>
       <use style="stroke:#000000;stroke-width:0.8;" x="54" xlink:href="#mbe85412fb8" y="244.524171"/>
      </g>
     </g>
     <g id="text_8">
      <!-- 0 -->
      <g transform="translate(40.6375 248.32339)scale(0.1 -0.1)">
       <use xlink:href="#DejaVuSans-48"/>
      </g>
     </g>
    </g>
    <g id="ytick_2">
     <g id="line2d_8">
      <g>
       <use style="stroke:#000000;stroke-width:0.8;" x="54" xlink:href="#mbe85412fb8" y="203.694915"/>
      </g>
     </g>
     <g id="text_9">
      <!-- 10 -->
      <g transform="translate(34.275 207.494134)scale(0.1 -0.1)">
       <use xlink:href="#DejaVuSans-49"/>
       <use x="63.623047" xlink:href="#DejaVuSans-48"/>
      </g>
     </g>
    </g>
    <g id="ytick_3">
     <g id="line2d_9">
      <g>
       <use style="stroke:#000000;stroke-width:0.8;" x="54" xlink:href="#mbe85412fb8" y="162.865658"/>
      </g>
     </g>
     <g id="text_10">
      <!-- 20 -->
      <g transform="translate(34.275 166.664877)scale(0.1 -0.1)">
       <use xlink:href="#DejaVuSans-50"/>
       <use x="63.623047" xlink:href="#DejaVuSans-48"/>
      </g>
     </g>
    </g>
    <g id="ytick_4">
     <g id="line2d_10">
      <g>
       <use style="stroke:#000000;stroke-width:0.8;" x="54" xlink:href="#mbe85412fb8" y="122.036402"/>
      </g>
     </g>
     <g id="text_11">
      <!-- 30 -->
      <g transform="translate(34.275 125.835621)scale(0.1 -0.1)">
       <use xlink:href="#DejaVuSans-51"/>
       <use x="63.623047" xlink:href="#DejaVuSans-48"/>
      </g>
     </g>
    </g>
    <g id="ytick_5">
     <g id="line2d_11">
      <g>
       <use style="stroke:#000000;stroke-width:0.8;" x="54" xlink:href="#mbe85412fb8" y="81.207146"/>
      </g>
     </g>
     <g id="text_12">
      <!-- 40 -->
      <g transform="translate(34.275 85.006364)scale(0.1 -0.1)">
       <use xlink:href="#DejaVuSans-52"/>
       <use x="63.623047" xlink:href="#DejaVuSans-48"/>
      </g>
     </g>
    </g>
    <g id="ytick_6">
     <g id="line2d_12">
      <g>
       <use style="stroke:#000000;stroke-width:0.8;" x="54" xlink:href="#mbe85412fb8" y="40.377889"/>
      </g>
     </g>
     <g id="text_13">
      <!-- 50 -->
      <g transform="translate(34.275 44.177108)scale(0.1 -0.1)">
       <use xlink:href="#DejaVuSans-53"/>
       <use x="63.623047" xlink:href="#DejaVuSans-48"/>
      </g>
     </g>
    </g>
    <g id="text_14">
     <!-- Average Brightness -->
     <defs>
      <path d="M 34.1875 63.1875 
L 20.796875 26.90625 
L 47.609375 26.90625 
z
M 28.609375 72.90625 
L 39.796875 72.90625 
L 67.578125 0 
L 57.328125 0 
L 50.6875 18.703125 
L 17.828125 18.703125 
L 11.1875 0 
L 0.78125 0 
z
" id="DejaVuSans-65"/>
      <path d="M 2.984375 54.6875 
L 12.5 54.6875 
L 29.59375 8.796875 
L 46.6875 54.6875 
L 56.203125 54.6875 
L 35.6875 0 
L 23.484375 0 
z
" id="DejaVuSans-118"/>
      <path d="M 45.40625 27.984375 
Q 45.40625 37.75 41.375 43.109375 
Q 37.359375 48.484375 30.078125 48.484375 
Q 22.859375 48.484375 18.828125 43.109375 
Q 14.796875 37.75 14.796875 27.984375 
Q 14.796875 18.265625 18.828125 12.890625 
Q 22.859375 7.515625 30.078125 7.515625 
Q 37.359375 7.515625 41.375 12.890625 
Q 45.40625 18.265625 45.40625 27.984375 
z
M 54.390625 6.78125 
Q 54.390625 -7.171875 48.1875 -13.984375 
Q 42 -20.796875 29.203125 -20.796875 
Q 24.46875 -20.796875 20.265625 -20.09375 
Q 16.0625 -19.390625 12.109375 -17.921875 
L 12.109375 -9.1875 
Q 16.0625 -11.328125 19.921875 -12.34375 
Q 23.78125 -13.375 27.78125 -13.375 
Q 36.625 -13.375 41.015625 -8.765625 
Q 45.40625 -4.15625 45.40625 5.171875 
L 45.40625 9.625 
Q 42.625 4.78125 38.28125 2.390625 
Q 33.9375 0 27.875 0 
Q 17.828125 0 11.671875 7.65625 
Q 5.515625 15.328125 5.515625 27.984375 
Q 5.515625 40.671875 11.671875 48.328125 
Q 17.828125 56 27.875 56 
Q 33.9375 56 38.28125 53.609375 
Q 42.625 51.21875 45.40625 46.390625 
L 45.40625 54.6875 
L 54.390625 54.6875 
z
" id="DejaVuSans-103"/>
      <path id="DejaVuSans-32"/>
      <path d="M 19.671875 34.8125 
L 19.671875 8.109375 
L 35.5 8.109375 
Q 43.453125 8.109375 47.28125 11.40625 
Q 51.125 14.703125 51.125 21.484375 
Q 51.125 28.328125 47.28125 31.5625 
Q 43.453125 34.8125 35.5 34.8125 
z
M 19.671875 64.796875 
L 19.671875 42.828125 
L 34.28125 42.828125 
Q 41.5 42.828125 45.03125 45.53125 
Q 48.578125 48.25 48.578125 53.8125 
Q 48.578125 59.328125 45.03125 62.0625 
Q 41.5 64.796875 34.28125 64.796875 
z
M 9.8125 72.90625 
L 35.015625 72.90625 
Q 46.296875 72.90625 52.390625 68.21875 
Q 58.5 63.53125 58.5 54.890625 
Q 58.5 48.1875 55.375 44.234375 
Q 52.25 40.28125 46.1875 39.3125 
Q 53.46875 37.75 57.5 32.78125 
Q 61.53125 27.828125 61.53125 20.40625 
Q 61.53125 10.640625 54.890625 5.3125 
Q 48.25 0 35.984375 0 
L 9.8125 0 
z
" id="DejaVuSans-66"/>
      <path d="M 9.421875 54.6875 
L 18.40625 54.6875 
L 18.40625 0 
L 9.421875 0 
z
M 9.421875 75.984375 
L 18.40625 75.984375 
L 18.40625 64.59375 
L 9.421875 64.59375 
z
" id="DejaVuSans-105"/>
      <path d="M 54.890625 33.015625 
L 54.890625 0 
L 45.90625 0 
L 45.90625 32.71875 
Q 45.90625 40.484375 42.875 44.328125 
Q 39.84375 48.1875 33.796875 48.1875 
Q 26.515625 48.1875 22.3125 43.546875 
Q 18.109375 38.921875 18.109375 30.90625 
L 18.109375 0 
L 9.078125 0 
L 9.078125 75.984375 
L 18.109375 75.984375 
L 18.109375 46.1875 
Q 21.34375 51.125 25.703125 53.5625 
Q 30.078125 56 35.796875 56 
Q 45.21875 56 50.046875 50.171875 
Q 54.890625 44.34375 54.890625 33.015625 
z
" id="DejaVuSans-104"/>
      <path d="M 18.3125 70.21875 
L 18.3125 54.6875 
L 36.8125 54.6875 
L 36.8125 47.703125 
L 18.3125 47.703125 
L 18.3125 18.015625 
Q 18.3125 11.328125 20.140625 9.421875 
Q 21.96875 7.515625 27.59375 7.515625 
L 36.8125 7.515625 
L 36.8125 0 
L 27.59375 0 
Q 17.1875 0 13.234375 3.875 
Q 9.28125 7.765625 9.28125 18.015625 
L 9.28125 47.703125 
L 2.6875 47.703125 
L 2.6875 54.6875 
L 9.28125 54.6875 
L 9.28125 70.21875 
z
" id="DejaVuSans-116"/>
      <path d="M 54.890625 33.015625 
L 54.890625 0 
L 45.90625 0 
L 45.90625 32.71875 
Q 45.90625 40.484375 42.875 44.328125 
Q 39.84375 48.1875 33.796875 48.1875 
Q 26.515625 48.1875 22.3125 43.546875 
Q 18.109375 38.921875 18.109375 30.90625 
L 18.109375 0 
L 9.078125 0 
L 9.078125 54.6875 
L 18.109375 54.6875 
L 18.109375 46.1875 
Q 21.34375 51.125 25.703125 53.5625 
Q 30.078125 56 35.796875 56 
Q 45.21875 56 50.046875 50.171875 
Q 54.890625 44.34375 54.890625 33.015625 
z
" id="DejaVuSans-110"/>
     </defs>
     <g transform="translate(26.9475 221.75125)rotate(-90)scale(0.16 -0.16)">
      <use xlink:href="#DejaVuSans-65"/>
      <use x="68.330078" xlink:href="#DejaVuSans-118"/>
      <use x="127.509766" xlink:href="#DejaVuSans-101"/>
      <use x="189.033203" xlink:href="#DejaVuSans-114"/>
      <use x="230.146484" xlink:href="#DejaVuSans-97"/>
      <use x="291.425781" xlink:href="#DejaVuSans-103"/>
      <use x="354.902344" xlink:href="#DejaVuSans-101"/>
      <use x="416.425781" xlink:href="#DejaVuSans-32"/>
      <use x="448.212891" xlink:href="#DejaVuSans-66"/>
      <use x="516.816406" xlink:href="#DejaVuSans-114"/>
      <use x="557.929688" xlink:href="#DejaVuSans-105"/>
      <use x="585.712891" xlink:href="#DejaVuSans-103"/>
      <use x="649.189453" xlink:href="#DejaVuSans-104"/>
      <use x="712.568359" xlink:href="#DejaVuSans-116"/>
      <use x="751.777344" xlink:href="#DejaVuSans-110"/>
      <use x="815.15625" xlink:href="#DejaVuSans-101"/>
      <use x="876.679688" xlink:href="#DejaVuSans-115"/>
      <use x="928.779297" xlink:href="#DejaVuSans-115"/>
     </g>
    </g>
   </g>
   <g id="line2d_13">
    <path clip-path="url(#p83ec54e421)" d="M 69.218182 128.700919 
L 69.280475 129.358901 
L 69.342768 128.798398 
L 69.405061 131.120312 
L 69.467354 130.262578 
L 69.654233 126.554387 
L 69.778819 131.362012 
L 69.841112 131.337642 
L 69.903405 131.13869 
L 70.090284 128.239493 
L 70.152577 129.399651 
L 70.277163 134.156539 
L 70.464042 128.427659 
L 70.526335 127.78286 
L 70.588628 128.187557 
L 70.713214 129.221872 
L 70.8378 128.252676 
L 70.962386 131.497044 
L 71.024679 130.965705 
L 71.149265 129.185916 
L 71.273851 132.278073 
L 71.336144 131.690404 
L 71.647609 128.184361 
L 71.709902 130.279757 
L 71.772195 129.329338 
L 71.834488 128.663366 
L 71.896781 131.288503 
L 71.959074 130.640109 
L 72.08366 131.622888 
L 72.145953 131.578543 
L 72.332832 127.603483 
L 72.582004 133.424648 
L 72.768883 130.072015 
L 72.831176 130.430769 
L 72.893469 132.471034 
L 72.955762 130.94533 
L 73.018055 132.403518 
L 73.142641 128.444838 
L 73.32952 131.171848 
L 73.391813 130.292541 
L 73.454106 130.63931 
L 73.516399 128.697324 
L 73.578692 134.362683 
L 73.640985 131.614498 
L 73.703278 130.22143 
L 73.765571 130.964107 
L 73.827864 132.078322 
L 73.890157 131.701989 
L 73.95245 132.166612 
L 74.014743 132.06394 
L 74.139329 128.062912 
L 74.263915 128.945415 
L 74.450794 125.792933 
L 74.513087 129.011333 
L 74.637674 124.784187 
L 74.76226 128.453227 
L 74.824553 127.854771 
L 74.886846 126.138903 
L 74.949139 127.615868 
L 75.011432 127.089322 
L 75.073725 127.530774 
L 75.136018 127.342607 
L 75.198311 129.58502 
L 75.260604 125.945544 
L 75.322897 126.006668 
L 75.38519 128.510356 
L 75.447483 127.343007 
L 75.572069 125.474529 
L 75.634362 123.54253 
L 75.696655 124.615597 
L 75.821241 126.045819 
L 75.883534 123.890098 
L 75.945827 125.596777 
L 76.00812 122.6017 
L 76.194999 126.214809 
L 76.319585 123.725503 
L 76.444171 126.700605 
L 76.506464 125.114976 
L 76.568757 125.58639 
L 76.63105 126.344248 
L 76.693343 123.251292 
L 76.755636 124.121411 
L 76.880222 125.740998 
L 76.942515 125.665092 
L 77.067101 120.411222 
L 77.25398 124.617994 
L 77.316273 123.977989 
L 77.378566 124.616396 
L 77.440859 123.715915 
L 77.503152 124.196517 
L 77.565445 124.959569 
L 77.690031 122.72235 
L 77.814617 125.539648 
L 77.87691 125.830886 
L 77.939203 122.571337 
L 78.001496 123.97719 
L 78.063789 124.873676 
L 78.126082 124.866884 
L 78.250668 122.006439 
L 78.312961 121.980472 
L 78.375254 122.310062 
L 78.562133 117.141286 
L 78.749012 119.513538 
L 78.811305 118.909089 
L 79.060477 123.504577 
L 79.247356 118.94864 
L 79.309649 121.598546 
L 79.371942 120.658515 
L 79.434235 121.239792 
L 79.558821 119.288218 
L 79.621114 121.556199 
L 79.683407 120.546254 
L 79.7457 120.371272 
L 79.807993 118.474829 
L 79.870286 119.066094 
L 79.994872 117.609504 
L 80.181751 120.035689 
L 80.244044 119.537508 
L 80.306337 120.711649 
L 80.36863 118.56991 
L 80.430923 119.736461 
L 80.680095 117.078564 
L 80.742388 117.140087 
L 80.804681 117.463685 
L 80.866974 116.752169 
L 80.929267 118.539149 
L 80.99156 117.802864 
L 81.053853 118.19198 
L 81.116146 117.994226 
L 81.178439 117.787283 
L 81.240732 114.992357 
L 81.365318 118.468836 
L 81.427611 116.729797 
L 81.489904 118.414903 
L 81.739076 114.448233 
L 81.863662 116.096984 
L 81.925955 115.631562 
L 81.988248 114.971183 
L 82.050541 115.608391 
L 82.175127 113.780663 
L 82.23742 114.261265 
L 82.299713 115.89084 
L 82.362006 114.737873 
L 82.424299 113.671598 
L 82.486592 113.745107 
L 82.548885 113.608077 
L 82.735765 110.825935 
L 82.984937 114.122638 
L 83.109523 113.48503 
L 83.483281 111.153128 
L 83.545574 113.284479 
L 83.607867 113.038385 
L 83.794746 110.589828 
L 83.857039 110.847508 
L 83.981625 112.17346 
L 84.043918 111.077622 
L 84.106211 111.253403 
L 84.168504 113.137062 
L 84.417676 107.605537 
L 84.604555 111.785942 
L 84.666848 112.185046 
L 84.853727 109.553916 
L 84.91602 109.145224 
L 84.978313 111.93176 
L 85.040606 110.454397 
L 85.165192 108.887943 
L 85.227485 110.146779 
L 85.289778 110.05769 
L 85.476657 108.330236 
L 85.53895 108.700576 
L 85.601243 108.106515 
L 85.788122 110.132796 
L 85.850415 109.989774 
L 85.912708 109.819985 
L 86.037294 108.851189 
L 86.099587 111.323317 
L 86.286466 107.751755 
L 86.348759 109.706126 
L 86.411052 109.258283 
L 86.473345 108.042594 
L 86.535638 110.018538 
L 86.597931 109.497186 
L 86.660224 107.625912 
L 86.78481 109.872719 
L 86.847103 108.001046 
L 86.909396 108.199199 
L 86.971689 107.896376 
L 87.033982 108.420924 
L 87.096275 107.377021 
L 87.158568 108.271509 
L 87.220861 107.061014 
L 87.345447 108.706569 
L 87.532326 106.631947 
L 87.656912 108.959055 
L 87.719205 107.9575 
L 87.781498 108.559551 
L 87.968377 106.512496 
L 88.03067 107.312302 
L 88.092963 105.429841 
L 88.155256 107.470904 
L 88.217549 107.001488 
L 88.342135 105.360328 
L 88.404428 107.933929 
L 88.466721 104.339996 
L 88.529014 105.373112 
L 88.778186 107.810882 
L 88.840479 105.160176 
L 88.902772 106.38825 
L 89.027358 103.303684 
L 89.151944 103.457492 
L 89.338823 106.627952 
L 89.525702 104.095899 
L 89.587995 105.031137 
L 89.650288 103.538991 
L 89.774874 106.127374 
L 89.837167 102.900185 
L 89.89946 105.785 
L 89.961753 105.113434 
L 90.024046 104.243715 
L 90.086339 104.59368 
L 90.148632 105.009563 
L 90.210925 104.247311 
L 90.273218 107.947113 
L 90.335511 107.663465 
L 90.397804 105.880082 
L 90.460097 106.247625 
L 90.522391 106.253218 
L 90.584684 105.335159 
L 90.646977 106.534468 
L 90.771563 105.101449 
L 90.833856 106.659113 
L 90.896149 105.331963 
L 90.958442 105.564873 
L 91.020735 105.692315 
L 91.145321 102.499483 
L 91.207614 104.089507 
L 91.269907 103.658443 
L 91.394493 101.782374 
L 91.581372 105.077879 
L 91.643665 105.743052 
L 91.768251 103.859393 
L 91.830544 104.067934 
L 92.017423 101.066065 
L 92.079716 101.215079 
L 92.204302 104.221743 
L 92.391181 101.171533 
L 92.453474 101.992114 
L 92.515767 101.505119 
L 92.57806 100.567085 
L 92.640353 101.902225 
L 92.702646 101.092831 
L 92.764939 100.360142 
L 92.827232 100.73168 
L 92.889525 101.659327 
L 92.951818 100.314199 
L 93.014111 100.390105 
L 93.138697 101.184717 
L 93.263283 104.126261 
L 93.512455 99.302656 
L 93.574748 101.064467 
L 93.637041 99.858366 
L 93.699334 100.541516 
L 93.886213 98.333461 
L 94.073092 99.763284 
L 94.197678 98.600729 
L 94.322264 102.744778 
L 94.384557 100.113648 
L 94.44685 100.629407 
L 94.571436 97.11937 
L 94.633729 97.243216 
L 94.882901 101.97094 
L 94.945194 101.098025 
L 95.007487 101.517104 
L 95.132073 100.158792 
L 95.194366 98.84083 
L 95.256659 99.555142 
L 95.381245 103.629678 
L 95.443538 102.636912 
L 95.505831 99.700162 
L 95.568124 101.006938 
L 95.69271 98.562776 
L 95.755003 98.933914 
L 95.817296 99.686979 
L 95.879589 98.468493 
L 95.941882 99.407326 
L 96.066468 99.35579 
L 96.128761 99.954646 
L 96.377933 96.757819 
L 96.440226 97.542044 
L 96.502519 96.826534 
L 96.564812 97.231231 
L 96.627105 99.648626 
L 96.689398 99.155639 
L 96.876277 100.456422 
L 97.125449 95.18817 
L 97.250035 98.619905 
L 97.312328 96.993526 
L 97.374621 97.112578 
L 97.5615 95.251291 
L 97.623793 94.562947 
L 97.686086 94.676805 
L 97.935258 96.159363 
L 97.997551 93.670057 
L 98.059844 96.469777 
L 98.122137 95.369544 
L 98.18443 95.951621 
L 98.246723 95.344775 
L 98.309016 96.049899 
L 98.371309 94.250136 
L 98.433603 95.59047 
L 98.495896 95.265274 
L 98.558189 96.195318 
L 98.620482 95.930847 
L 98.682775 95.714316 
L 98.745068 96.047901 
L 98.807361 95.83976 
L 98.869654 95.833368 
L 99.056533 93.42556 
L 99.118826 93.371228 
L 99.181119 93.517846 
L 99.243412 93.271352 
L 99.305705 92.0257 
L 99.367998 93.150302 
L 99.430291 92.352894 
L 99.492584 93.183861 
L 99.61717 91.186343 
L 99.679463 91.940206 
L 99.741756 91.201524 
L 99.804049 92.511496 
L 99.866342 92.268598 
L 99.990928 91.257055 
L 100.053221 92.274191 
L 100.115514 91.861105 
L 100.177807 92.44398 
L 100.302393 91.77641 
L 100.489272 93.987262 
L 100.551565 93.655674 
L 100.676151 91.508343 
L 100.738444 91.764824 
L 100.800737 91.238279 
L 101.049909 93.307307 
L 101.112202 92.276189 
L 101.174495 94.488639 
L 101.299081 90.752083 
L 101.361374 91.857909 
L 101.423667 91.48637 
L 101.48596 91.26105 
L 101.548253 90.051354 
L 101.610546 91.481976 
L 101.672839 90.412905 
L 101.735132 90.893507 
L 101.797425 88.988675 
L 101.859718 90.228733 
L 101.922011 91.548693 
L 102.046597 89.930704 
L 102.171183 91.27743 
L 102.233476 89.971853 
L 102.295769 90.320619 
L 102.358062 90.11887 
L 102.482648 90.727314 
L 102.544941 89.514022 
L 102.607234 90.350183 
L 102.669527 90.170406 
L 102.794113 90.565115 
L 102.856406 91.440028 
L 102.980992 89.388178 
L 103.043285 89.562761 
L 103.105578 90.146436 
L 103.167871 89.435719 
L 103.230164 89.669029 
L 103.292457 89.649853 
L 103.35475 88.581581 
L 103.417043 89.095742 
L 103.541629 89.428528 
L 103.603922 92.294566 
L 103.666215 90.6578 
L 103.728508 88.92795 
L 103.790801 90.679773 
L 103.853094 90.130855 
L 103.915387 90.476825 
L 103.97768 90.4169 
L 104.102266 88.456137 
L 104.164559 90.118071 
L 104.226852 89.168451 
L 104.351438 89.821639 
L 104.413731 86.938423 
L 104.476024 88.249194 
L 104.538317 87.701075 
L 104.60061 88.001102 
L 104.725196 86.939621 
L 104.787489 87.047887 
L 104.849782 88.950322 
L 104.912075 85.903309 
L 104.974368 86.125433 
L 105.036661 86.453426 
L 105.098954 86.030751 
L 105.22354 87.560849 
L 105.285833 87.564445 
L 105.472712 85.73392 
L 105.535005 85.389148 
L 105.597298 85.939265 
L 105.659591 84.342449 
L 105.721884 85.393942 
L 105.784177 84.331263 
L 105.908763 86.898073 
L 105.971056 86.265259 
L 106.033349 85.846979 
L 106.095642 86.046331 
L 106.220228 85.471446 
L 106.282521 85.959639 
L 106.407108 83.403616 
L 106.469401 83.763569 
L 106.531694 84.198628 
L 106.593987 83.39203 
L 106.65628 84.41396 
L 106.718573 84.102747 
L 106.780866 83.479122 
L 106.905452 84.74435 
L 106.967745 83.270182 
L 107.030038 83.355276 
L 107.092331 83.196673 
L 107.154624 83.783943 
L 107.216917 82.869879 
L 107.341503 84.089963 
L 107.403796 83.813906 
L 107.466089 84.836635 
L 107.590675 83.262192 
L 107.652968 83.268983 
L 107.777554 83.782345 
L 107.839847 81.109267 
L 107.90214 81.736088 
L 108.026726 82.331748 
L 108.213605 81.865927 
L 108.400484 83.040867 
L 108.462777 83.235425 
L 108.52507 83.848663 
L 108.587363 83.302941 
L 108.649656 83.91538 
L 108.711949 81.47721 
L 108.774242 81.717711 
L 108.961121 83.386837 
L 109.023414 84.118328 
L 109.085707 82.034118 
L 109.148 82.208701 
L 109.210293 83.106385 
L 109.272586 82.995323 
L 109.334879 82.837919 
L 109.397172 82.151172 
L 109.459465 84.714387 
L 109.521758 84.071586 
L 109.77093 80.215578 
L 109.833223 82.187927 
L 109.895516 81.798011 
L 109.957809 80.513208 
L 110.020102 82.166354 
L 110.082395 81.847949 
L 110.206981 80.721349 
L 110.269274 81.035359 
L 110.331567 80.800851 
L 110.39386 80.570337 
L 110.518446 82.49115 
L 110.705325 81.462029 
L 110.829911 82.556669 
L 110.892204 82.247053 
L 110.954497 82.090048 
L 111.01679 81.418084 
L 111.141376 82.678517 
L 111.203669 81.391716 
L 111.265962 81.735689 
L 111.328255 82.74084 
L 111.390548 82.384882 
L 111.452841 81.265873 
L 111.515134 81.354563 
L 111.577427 82.020535 
L 111.702013 81.303027 
L 111.888892 82.967758 
L 111.951185 80.900327 
L 112.013478 81.794416 
L 112.075771 81.09129 
L 112.200357 83.072428 
L 112.26265 82.654147 
L 112.387236 83.791534 
L 112.449529 83.551832 
L 112.636408 82.068875 
L 112.698701 82.133594 
L 112.760994 81.140429 
L 112.823287 81.651394 
L 112.947873 84.767121 
L 113.010166 81.297034 
L 113.072459 81.652992 
L 113.134752 80.86557 
L 113.321631 82.612999 
L 113.383924 81.535538 
L 113.446217 81.810396 
L 113.50851 81.575088 
L 113.633096 79.705412 
L 113.819975 82.428428 
L 113.944561 80.011831 
L 114.006854 80.513608 
L 114.069147 79.321889 
L 114.13144 80.207988 
L 114.193733 80.256327 
L 114.31832 79.275147 
L 114.380613 80.545568 
L 114.442906 78.510497 
L 114.505199 78.759388 
L 114.567492 78.41941 
L 114.629785 78.705854 
L 114.754371 77.755436 
L 114.94125 79.597946 
L 115.128129 78.712646 
L 115.190422 78.985107 
L 115.56418 75.916122 
L 115.688766 76.894506 
L 115.751059 76.517374 
L 115.875645 75.652849 
L 115.937938 77.699905 
L 116.000231 76.846166 
L 116.062524 76.997577 
L 116.18711 75.672424 
L 116.311696 76.417498 
L 116.373989 76.36756 
L 116.498575 75.614097 
L 116.560868 76.890511 
L 116.623161 76.333603 
L 116.747747 76.114675 
L 116.81004 76.405913 
L 116.872333 76.38394 
L 116.934626 75.58733 
L 117.059212 76.501794 
L 117.121505 75.483859 
L 117.183798 75.953275 
L 117.308384 75.489052 
L 117.370677 75.830628 
L 117.495263 74.426373 
L 117.557556 75.228576 
L 117.744435 73.394456 
L 117.869021 75.806258 
L 117.931314 75.684809 
L 117.993607 75.739142 
L 118.0559 74.2438 
L 118.118193 74.727599 
L 118.305072 73.209485 
L 118.429658 74.376435 
L 118.491951 73.494731 
L 118.554244 73.927793 
L 118.803416 72.531528 
L 118.928002 73.005339 
L 118.990295 71.456864 
L 119.052588 72.646585 
L 119.114881 72.975376 
L 119.177174 74.313713 
L 119.239467 73.320547 
L 119.30176 73.009334 
L 119.364053 74.255785 
L 119.426346 72.579868 
L 119.488639 73.440798 
L 119.613225 74.302127 
L 119.800104 71.348598 
L 119.862397 71.005025 
L 119.92469 71.437687 
L 120.049276 69.114175 
L 120.236155 72.495972 
L 120.360741 72.037742 
L 120.423034 73.063667 
L 120.672206 70.469291 
L 120.859085 71.479236 
L 120.921378 71.112492 
L 120.983671 69.798125 
L 121.045964 69.822095 
L 121.108257 69.661495 
L 121.17055 69.843669 
L 121.357429 68.39387 
L 121.544308 70.643475 
L 121.606601 69.704641 
L 121.668894 70.01985 
L 121.855773 71.945856 
L 121.918066 71.264702 
L 121.980359 70.953889 
L 122.104945 69.484914 
L 122.167238 70.669043 
L 122.354118 67.496586 
L 122.478704 68.79617 
L 122.60329 67.135834 
L 122.727876 69.762569 
L 122.852462 68.203307 
L 123.039341 70.055805 
L 123.163927 68.68391 
L 123.22622 70.244371 
L 123.288513 69.763768 
L 123.350806 68.637168 
L 123.413099 69.450957 
L 123.599978 68.723061 
L 123.662271 67.947226 
L 123.724564 68.691101 
L 123.786857 66.662422 
L 123.84915 66.673608 
L 123.973736 67.167395 
L 124.222908 69.708237 
L 124.285201 68.515319 
L 124.347494 68.944786 
L 124.409787 68.585233 
L 124.47208 68.956771 
L 124.534373 68.496543 
L 124.721252 70.26075 
L 124.783545 68.140186 
L 124.845838 68.565657 
L 124.908131 68.862088 
L 124.970424 66.216576 
L 125.032717 66.63246 
L 125.09501 67.116258 
L 125.157303 69.00551 
L 125.219596 67.660382 
L 125.281889 67.269668 
L 125.344182 69.170905 
L 125.406475 69.06983 
L 125.468768 68.486156 
L 125.531061 69.342691 
L 125.593354 68.438215 
L 125.71794 70.511239 
L 125.780233 69.586388 
L 125.842526 68.811751 
L 125.904819 68.910029 
L 125.967112 70.229189 
L 126.091698 67.158606 
L 126.153991 68.153369 
L 126.216284 67.853742 
L 126.278577 67.90328 
L 126.34087 67.723104 
L 126.403163 67.755863 
L 126.465456 66.923298 
L 126.527749 67.95162 
L 126.590042 67.631218 
L 126.652335 67.270866 
L 126.714628 67.365149 
L 126.9638 69.140542 
L 127.026093 69.064237 
L 127.150679 69.580396 
L 127.337558 67.739084 
L 127.399851 67.776638 
L 127.462144 66.823822 
L 127.524437 66.842199 
L 127.58673 68.20091 
L 127.711316 65.963291 
L 127.773609 66.42312 
L 127.835902 65.72279 
L 127.898195 65.731979 
L 128.022781 66.717154 
L 128.085074 68.954773 
L 128.147367 67.264075 
L 128.271953 67.7263 
L 128.334246 67.45264 
L 128.396539 69.115374 
L 128.458832 68.813749 
L 128.583418 67.5653 
L 128.645711 67.658784 
L 128.83259 64.847478 
L 128.957176 67.707124 
L 129.019469 66.371584 
L 129.081762 66.997606 
L 129.144055 66.930489 
L 129.206348 67.433065 
L 129.268641 66.829415 
L 129.45552 68.154168 
L 129.580106 68.226079 
L 129.766985 66.141869 
L 129.891571 67.063524 
L 129.953864 65.902567 
L 130.016157 66.143867 
L 130.203037 66.901325 
L 130.514502 65.322887 
L 130.576795 66.601698 
L 130.701381 65.217818 
L 130.825967 68.572448 
L 130.88826 68.052295 
L 130.950553 68.971153 
L 131.262018 65.635299 
L 131.324311 64.944957 
L 131.386604 65.688832 
L 131.573483 63.764024 
L 131.698069 63.722476 
L 131.884948 66.540973 
L 131.947241 66.458676 
L 132.071827 66.010033 
L 132.258706 67.881307 
L 132.320999 68.255642 
L 132.570171 66.352408 
L 132.819343 64.901011 
L 132.881636 65.365634 
L 133.006222 63.748843 
L 133.068515 63.616208 
L 133.130808 64.807528 
L 133.193101 63.549491 
L 133.255394 63.591439 
L 133.566859 65.725187 
L 133.629152 66.234155 
L 133.691445 65.612527 
L 133.753738 66.091931 
L 133.816031 67.113861 
L 134.065203 63.190337 
L 134.127496 63.978158 
L 134.252082 62.61705 
L 134.314375 62.627038 
L 134.376668 62.13405 
L 134.688133 66.483844 
L 134.750426 66.340822 
L 134.812719 67.57329 
L 134.875012 66.835008 
L 135.124184 65.262562 
L 135.186477 65.318493 
L 135.24877 65.662865 
L 135.435649 61.66783 
L 135.622528 61.915122 
L 135.684821 62.565115 
L 135.747114 62.458447 
L 135.809407 62.67338 
L 135.933993 64.461957 
L 135.996286 64.051667 
L 136.058579 64.415615 
L 136.120872 63.84832 
L 136.183165 64.123977 
L 136.307751 64.958939 
L 136.49463 60.861632 
L 136.556923 62.228333 
L 136.806095 63.3006 
L 136.930681 62.526363 
L 136.992974 62.99538 
L 137.179853 66.140271 
L 137.304439 65.282937 
L 137.366732 65.998447 
L 137.429025 65.64209 
L 137.74049 62.672181 
L 137.802783 62.90669 
L 138.114249 60.25958 
L 138.176542 62.090904 
L 138.238835 62.054949 
L 138.301128 61.483659 
L 138.488007 66.59171 
L 138.5503 66.396353 
L 138.612593 64.498711 
L 138.674886 65.240589 
L 138.737179 64.912597 
L 139.048644 61.45809 
L 139.235523 60.659882 
L 139.297816 60.937537 
L 139.360109 59.947967 
L 139.422402 60.088193 
L 139.546988 61.727755 
L 139.671574 63.658955 
L 139.858453 62.776452 
L 139.920746 63.261449 
L 139.983039 63.190337 
L 140.356797 59.974734 
L 140.41909 60.725001 
L 140.605969 59.093429 
L 140.668262 59.297176 
L 140.855141 60.995066 
L 140.917434 60.047444 
L 141.04202 61.437716 
L 141.228899 62.031777 
L 141.415778 60.182476 
L 141.478071 60.844453 
L 141.66495 57.807428 
L 141.727243 59.264816 
L 141.851829 57.278884 
L 141.914122 57.533768 
L 142.163294 61.227577 
L 142.225587 60.949123 
L 142.350173 60.384225 
L 142.474759 62.11847 
L 142.537052 61.595919 
L 142.599345 61.084555 
L 142.723931 58.210527 
L 142.786224 58.354348 
L 142.848517 57.41911 
L 142.91081 57.983209 
L 142.973103 59.688689 
L 143.035396 58.435846 
L 143.097689 58.924839 
L 143.159982 57.63684 
L 143.222275 57.835792 
L 143.284568 59.773784 
L 143.346861 59.63955 
L 143.409154 59.107012 
L 143.471447 57.349597 
L 143.53374 57.382356 
L 143.658326 57.502606 
L 143.907498 54.679715 
L 143.969791 56.67084 
L 144.032084 54.764409 
L 144.094377 55.115573 
L 144.343549 53.60505 
L 144.468135 54.586231 
L 144.530428 53.093686 
L 144.592721 54.20071 
L 144.655014 54.390474 
L 144.717307 54.336541 
L 144.7796 53.035758 
L 144.841893 53.087693 
L 145.028772 54.323358 
L 145.091065 54.296591 
L 145.277944 52.211982 
L 145.340237 52.390959 
L 145.464823 52.700574 
L 145.589409 53.55671 
L 145.651702 52.621073 
L 145.713995 52.65583 
L 145.776288 52.633458 
L 145.838581 52.168835 
L 146.150047 54.547879 
L 146.21234 53.97539 
L 146.274633 54.686906 
L 146.336926 54.495544 
L 146.523805 52.532383 
L 146.586098 52.674207 
L 146.648391 52.395753 
L 146.959856 49.06709 
L 147.146735 50.240432 
L 147.209028 50.047072 
L 147.271321 49.488966 
L 147.333614 49.637581 
L 147.4582 50.946754 
L 147.520493 49.597231 
L 147.582786 50.184501 
L 147.707372 54.468777 
L 147.831958 53.849946 
L 147.956544 52.424518 
L 148.143423 53.078505 
L 148.205716 52.83321 
L 148.579474 48.298845 
L 148.641767 48.058743 
L 148.890939 51.636697 
L 148.953232 50.772571 
L 149.015525 50.860461 
L 149.077818 50.82131 
L 149.202404 53.938636 
L 149.32699 53.311815 
L 149.700748 46.684052 
L 149.763041 46.465524 
L 149.887627 47.662835 
L 150.012213 47.147076 
L 150.261385 49.89606 
L 150.323678 49.410264 
L 150.385971 49.033931 
L 150.510557 50.857665 
L 150.57285 50.825305 
L 150.759729 49.83933 
L 150.822022 50.024301 
L 151.19578 45.088435 
L 151.258073 45.429211 
L 151.444952 50.003926 
L 151.507245 49.56607 
L 151.631831 49.182147 
L 151.881003 50.927178 
L 151.943296 50.812521 
L 152.005589 51.104958 
L 152.254761 47.693597 
L 152.379347 48.123063 
L 152.503933 45.992911 
L 152.690812 47.173444 
L 152.815398 48.099093 
L 152.939984 48.761071 
L 153.002277 48.176197 
L 153.189156 50.7486 
L 153.251449 50.620759 
L 153.313742 50.872846 
L 153.376035 50.320732 
L 153.562914 47.831426 
L 153.812086 45.718452 
L 153.936672 46.038055 
L 154.123552 49.095455 
L 154.185845 48.368758 
L 154.248138 47.065977 
L 154.372724 49.833737 
L 154.49731 48.226535 
L 154.621896 48.816602 
L 154.808775 47.966059 
L 154.995654 46.618933 
L 155.182533 48.223738 
L 155.244826 48.199369 
L 155.307119 47.654446 
L 155.369412 47.730751 
L 155.493998 48.385138 
L 155.556291 47.899741 
L 155.618584 48.957227 
L 155.680877 47.986034 
L 155.74317 48.82579 
L 155.805463 48.598872 
L 155.992342 47.66763 
L 156.241514 45.020519 
L 156.303807 45.177524 
L 156.428393 46.335285 
L 156.490686 46.300129 
L 156.552979 46.533439 
L 156.615272 46.012087 
L 156.677565 46.409593 
L 156.739858 47.365605 
L 156.802151 46.712417 
L 156.98903 47.596917 
L 157.051323 50.182504 
L 157.113616 48.457048 
L 157.175909 48.791033 
L 157.238202 47.668828 
L 157.300495 48.345187 
L 157.362788 48.113076 
L 157.425081 48.369957 
L 157.61196 46.539432 
L 157.674253 46.83067 
L 157.798839 47.127101 
L 157.861132 47.147076 
L 158.048011 48.022788 
L 158.110304 47.73195 
L 158.172597 47.712773 
L 158.23489 47.475468 
L 158.297183 48.041165 
L 158.359476 47.783885 
L 158.608648 46.781131 
L 158.733234 47.606905 
L 158.85782 45.530685 
L 158.982406 47.991227 
L 159.044699 47.532997 
L 159.169285 49.411063 
L 159.231578 49.59044 
L 159.543043 47.706781 
L 159.729922 46.477109 
L 159.792215 45.760799 
L 159.854508 46.17868 
L 160.041387 46.586573 
L 160.10368 46.165496 
L 160.165973 47.083156 
L 160.228266 45.763196 
L 160.290559 47.392771 
L 160.352852 46.702429 
L 160.72661 48.964817 
L 160.975782 46.998861 
L 161.038075 47.097139 
L 161.100368 47.314069 
L 161.34954 46.515062 
L 161.474126 47.189823 
L 161.536419 46.175084 
L 161.598712 46.276159 
L 161.910178 47.014441 
L 162.097057 45.384068 
L 162.283936 46.694839 
L 162.533108 47.718366 
L 162.595401 46.960109 
L 162.657694 49.157778 
L 162.719987 48.989187 
L 162.844573 49.33276 
L 162.969159 48.814604 
L 163.031452 49.331162 
L 163.342917 46.241003 
L 163.40521 46.714414 
L 163.529796 47.124704 
L 163.592089 46.979684 
L 163.654382 47.716768 
L 163.716675 45.334529 
L 163.778968 46.314511 
L 163.965847 50.379459 
L 164.02814 50.277186 
L 164.152726 48.929262 
L 164.215019 50.039082 
L 164.277312 49.873288 
L 164.464191 47.879366 
L 164.526484 49.016353 
L 164.713363 46.377233 
L 164.837949 47.196615 
L 164.900242 46.844652 
L 164.962535 47.018037 
L 165.024828 47.508627 
L 165.087121 47.057188 
L 165.149414 48.615252 
L 165.211707 47.872974 
L 165.274 47.6912 
L 165.460879 50.387849 
L 165.523172 50.62036 
L 165.585465 50.517288 
L 165.647758 49.894462 
L 165.772344 46.859434 
L 165.834637 46.567397 
L 165.89693 45.185115 
L 165.959223 45.549063 
L 166.146102 44.512351 
L 166.457567 50.599985 
L 166.51986 50.435789 
L 166.582153 50.556839 
L 166.644446 51.379416 
L 166.706739 51.218017 
L 166.893618 49.595234 
L 167.205083 45.834308 
L 167.267376 46.275759 
L 167.329669 45.915008 
L 167.76572 50.532869 
L 167.828013 49.798581 
L 168.014892 48.100292 
L 168.139478 49.89566 
L 168.201771 49.806172 
L 168.264064 50.407025 
L 168.38865 48.59248 
L 168.575529 46.281352 
L 168.762408 47.165054 
L 168.824701 47.16865 
L 169.01158 48.70514 
L 169.073873 48.938051 
L 169.260752 52.283892 
L 169.385338 51.474099 
L 169.572217 47.859391 
L 169.63451 48.467435 
L 169.696803 48.293651 
L 169.759096 47.892949 
L 169.821389 46.624526 
L 169.883683 47.008848 
L 169.945976 46.49229 
L 170.008269 46.739583 
L 170.070562 46.560206 
L 170.257441 50.757389 
L 170.319734 49.907646 
L 170.506613 51.288729 
L 170.631199 49.706296 
L 170.693492 49.746246 
L 170.818078 50.082628 
L 170.880371 49.771015 
L 170.942664 47.368801 
L 171.004957 47.938493 
L 171.06725 47.84421 
L 171.129543 47.281709 
L 171.254129 48.960822 
L 171.316422 48.626438 
L 171.378715 47.554171 
L 171.441008 49.162971 
L 171.503301 47.987632 
L 171.565594 48.896902 
L 171.627887 48.693554 
L 171.69018 48.731907 
L 172.001645 50.567226 
L 172.126231 49.028338 
L 172.250817 49.496956 
L 172.31311 49.921229 
L 172.562282 48.339594 
L 172.624575 48.861346 
L 172.686868 47.782687 
L 172.998333 50.850873 
L 173.060626 50.850873 
L 173.122919 50.68428 
L 173.185212 51.087379 
L 173.372091 49.893263 
L 173.496677 50.17771 
L 173.808142 47.557367 
L 173.870435 50.181705 
L 173.932728 49.628792 
L 173.995021 49.586844 
L 174.057314 49.812963 
L 174.1819 50.953945 
L 174.306486 49.817757 
L 174.431072 50.785754 
L 174.493365 49.475782 
L 174.555658 49.971566 
L 174.617951 49.712288 
L 174.680244 50.919588 
L 174.80483 48.956428 
L 174.991709 50.269196 
L 175.116295 49.125817 
L 175.178588 49.481775 
L 175.240881 49.076678 
L 175.552346 51.551602 
L 175.676932 50.492918 
L 175.739225 50.743407 
L 175.801518 50.581608 
L 175.863811 49.542899 
L 175.926104 49.805772 
L 175.988397 49.669541 
L 176.05069 50.882434 
L 176.112983 50.039881 
L 176.175276 49.270437 
L 176.237569 49.912839 
L 176.299862 49.752638 
L 176.362155 49.424646 
L 176.549034 51.294322 
L 176.67362 50.764581 
L 176.735913 50.848077 
L 176.985085 52.802847 
L 177.171964 51.012273 
L 177.29655 50.693469 
L 177.358843 51.051824 
L 177.483429 50.522481 
L 177.545722 50.921985 
L 177.608015 52.758103 
L 177.670308 51.353049 
L 177.794895 52.851986 
L 177.919481 52.247937 
L 177.981774 52.451284 
L 178.044067 51.772528 
L 178.230946 53.696537 
L 178.417825 52.343418 
L 178.480118 52.225565 
L 178.542411 52.349411 
L 178.604704 51.978272 
L 178.791583 53.74248 
L 178.916169 53.352564 
L 178.978462 53.563901 
L 179.103048 51.385808 
L 179.35222 53.416485 
L 179.476806 53.868723 
L 179.539099 52.441696 
L 179.601392 53.37214 
L 179.725978 52.458076 
L 179.912857 53.861931 
L 179.97515 53.210341 
L 180.037443 53.772842 
L 180.162029 52.450086 
L 180.224322 52.865969 
L 180.411201 53.97579 
L 180.473494 53.277457 
L 180.535787 53.486797 
L 180.59808 53.584276 
L 180.660373 55.275374 
L 180.722666 54.503534 
L 180.909545 55.612555 
L 181.034131 54.704484 
L 181.096424 54.874273 
L 181.158717 55.137146 
L 181.22101 54.94898 
L 181.283303 54.831127 
L 181.407889 56.561376 
L 181.594768 54.625382 
L 181.719354 55.43997 
L 181.781647 55.040067 
L 181.84394 55.209057 
L 181.906233 55.338096 
L 182.030819 56.072783 
L 182.093112 55.968513 
L 182.155405 56.401974 
L 182.342284 55.529059 
L 182.529163 58.886886 
L 182.653749 56.897758 
L 182.778335 58.390303 
L 182.840628 57.605678 
L 182.902921 57.993197 
L 182.965214 57.742708 
L 183.027507 57.87774 
L 183.0898 57.905705 
L 183.152093 57.758688 
L 183.276679 59.12459 
L 183.338972 58.013571 
L 183.401265 58.69073 
L 183.463558 59.714258 
L 183.525851 59.033903 
L 183.588144 59.28559 
L 183.71273 58.168978 
L 183.899609 59.981126 
L 183.961902 59.613583 
L 184.024195 59.118598 
L 184.086488 59.264816 
L 184.148781 59.258424 
L 184.211074 58.608432 
L 184.273367 59.001144 
L 184.33566 58.991156 
L 184.397953 58.802591 
L 184.460246 59.097025 
L 184.584832 60.545225 
L 184.647125 59.93758 
L 184.709418 61.139287 
L 184.771711 60.262376 
L 184.834004 60.090989 
L 184.896297 59.365092 
L 184.95859 59.433007 
L 185.020883 59.47935 
L 185.207762 61.911926 
L 185.332348 60.545225 
L 185.394641 60.714614 
L 185.456934 61.628678 
L 185.519227 60.030265 
L 185.58152 60.442553 
L 185.643813 61.687805 
L 185.706107 61.609502 
L 185.830693 61.368202 
L 185.892986 61.421736 
L 186.079865 62.973807 
L 186.142158 61.647855 
L 186.204451 62.296249 
L 186.266744 62.341792 
L 186.39133 63.256256 
L 186.453623 62.494802 
L 186.640502 63.605022 
L 186.702795 63.592637 
L 186.765088 64.385652 
L 186.827381 63.923027 
L 186.889674 63.779605 
L 186.951967 65.079989 
L 187.01426 64.066049 
L 187.138846 63.318578 
L 187.263432 65.963291 
L 187.388018 65.293324 
L 187.512604 65.404785 
L 187.63719 63.287017 
L 187.761776 63.672938 
L 187.824069 63.583049 
L 187.886362 63.890667 
L 187.948655 63.689317 
L 188.010948 63.345744 
L 188.073241 63.892265 
L 188.135534 63.782402 
L 188.197827 63.380501 
L 188.26012 64.78915 
L 188.322413 64.773969 
L 188.446999 64.534267 
L 188.633878 65.003684 
L 188.758464 64.342106 
L 188.820757 65.655274 
L 188.88305 64.933371 
L 189.007636 66.401147 
L 189.132222 65.073996 
L 189.194515 65.244984 
L 189.443687 63.818357 
L 189.630566 64.883034 
L 189.692859 64.812721 
L 189.755152 64.525878 
L 189.817445 65.624912 
L 189.879738 65.059614 
L 189.942031 64.831098 
L 190.12891 65.882591 
L 190.191203 65.517046 
L 190.253496 66.090733 
L 190.315789 65.505061 
L 190.689547 67.971196 
L 190.75184 67.749871 
L 190.876426 68.778992 
L 190.938719 68.391074 
L 191.001012 67.588871 
L 191.125598 69.202865 
L 191.187891 68.405056 
L 191.250184 68.618391 
L 191.312477 68.877669 
L 191.9977 79.163286 
L 192.059993 77.39788 
L 192.122286 77.471389 
L 192.184579 77.951192 
L 192.309165 75.866983 
L 192.371458 76.534553 
L 192.433751 76.178995 
L 192.496044 76.531756 
L 192.682923 72.491178 
L 192.745216 72.699719 
L 192.994388 70.456906 
L 193.056681 70.724174 
L 193.24356 72.558694 
L 193.368146 71.267898 
L 193.492732 72.427258 
L 193.617318 70.88078 
L 193.679612 70.914338 
L 193.741905 71.046574 
L 193.866491 69.591582 
L 193.928784 70.166068 
L 193.991077 70.079775 
L 194.05337 70.065393 
L 194.177956 69.819299 
L 194.240249 70.12412 
L 194.364835 69.392629 
L 194.551714 70.469291 
L 194.738593 69.323116 
L 194.925472 71.221556 
L 195.112351 69.602768 
L 195.174644 70.293509 
L 195.236937 69.794929 
L 195.29923 69.010704 
L 195.361523 69.033875 
L 195.548402 69.323116 
L 195.610695 70.464896 
L 195.672988 70.105743 
L 195.859867 68.953575 
L 195.984453 69.839674 
L 196.046746 68.648354 
L 196.109039 68.909629 
L 196.233625 68.996322 
L 196.295918 71.94226 
L 196.358211 71.433692 
L 196.420504 70.202023 
L 196.482797 70.527219 
L 196.54509 70.492862 
L 196.607383 69.997078 
L 196.669676 71.05776 
L 196.856555 68.49894 
L 196.918848 69.151729 
L 196.981141 68.80456 
L 197.292606 71.360184 
L 197.417192 72.814376 
L 197.479485 71.530372 
L 197.604071 72.727285 
L 197.666364 71.718139 
L 197.728657 72.014171 
L 197.79095 74.391217 
L 197.853243 73.437202 
L 197.915536 71.7493 
L 197.977829 71.873146 
L 198.289294 73.721249 
L 198.351587 74.291341 
L 198.41388 74.073611 
L 198.476173 73.993711 
L 198.725345 75.397566 
L 198.912224 74.460331 
L 199.03681 77.539704 
L 199.223689 75.743536 
L 199.410568 77.492562 
L 199.535154 77.730666 
L 199.597447 76.259295 
L 199.65974 76.288459 
L 199.722033 76.773856 
L 199.784326 75.792275 
L 199.846619 76.481818 
L 199.908912 76.634429 
L 200.095791 79.175671 
L 200.158084 78.986705 
L 200.220377 80.392958 
L 200.28267 79.582765 
L 200.407256 78.827703 
L 200.469549 78.842884 
L 200.531842 78.952348 
L 200.656428 77.979158 
L 200.718721 79.199241 
L 200.781014 77.943202 
L 200.843307 78.191294 
L 200.967893 77.780205 
L 201.030186 79.876 
L 201.092479 79.301115 
L 201.279358 77.180151 
L 201.341651 80.1173 
L 201.403944 78.319535 
L 201.590824 81.061726 
L 201.71541 79.887586 
L 201.777703 80.18202 
L 201.839996 80.283494 
L 201.902289 79.883191 
L 202.026875 80.895134 
L 202.151461 79.811281 
L 202.276047 80.134878 
L 202.649805 82.496343 
L 202.712098 81.795215 
L 202.774391 81.810796 
L 202.898977 84.52702 
L 202.96127 83.924968 
L 203.023563 84.304496 
L 203.148149 83.912184 
L 203.397321 80.800052 
L 203.459614 84.177454 
L 203.521907 83.53705 
L 203.5842 83.656102 
L 203.646493 83.577799 
L 203.708786 82.835921 
L 203.771079 83.080018 
L 203.833372 83.477524 
L 203.895665 82.607006 
L 204.20713 86.687535 
L 204.456302 84.211811 
L 204.518595 84.375208 
L 204.643181 85.312444 
L 204.83006 83.978501 
L 204.892353 84.361226 
L 204.954646 86.418669 
L 205.016939 85.884533 
L 205.079232 85.336014 
L 205.203818 87.663522 
L 205.266111 87.342321 
L 205.390697 88.108169 
L 205.45299 88.937139 
L 205.515283 88.534839 
L 205.577576 88.158107 
L 205.639869 89.405357 
L 205.702162 87.993911 
L 205.764455 88.791719 
L 205.889041 87.192107 
L 205.951334 87.724646 
L 206.013627 88.002301 
L 206.138213 86.858123 
L 206.325092 90.495602 
L 206.387385 89.486456 
L 206.449678 89.160461 
L 206.511971 89.478466 
L 206.636557 90.928664 
L 206.823436 87.792162 
L 206.885729 88.279156 
L 206.948022 89.268327 
L 207.010315 88.102975 
L 207.072608 88.616737 
L 207.134901 89.301086 
L 207.197194 88.980285 
L 207.259487 88.599159 
L 207.32178 89.446506 
L 207.384073 88.995466 
L 207.446366 87.937181 
L 207.508659 88.667074 
L 207.570952 88.535238 
L 207.757831 89.741739 
L 207.820124 89.575545 
L 207.882417 91.680529 
L 207.94471 90.101691 
L 208.007003 91.103247 
L 208.069296 89.37899 
L 208.131589 89.792875 
L 208.318468 92.671697 
L 208.443054 93.143511 
L 208.629933 91.726872 
L 208.692226 91.855112 
L 208.754519 93.189054 
L 208.816812 92.819514 
L 208.879105 92.748402 
L 208.941398 92.935769 
L 209.003691 94.080746 
L 209.065984 94.000845 
L 209.19057 91.563874 
L 209.315156 94.105116 
L 209.439742 90.583493 
L 209.564329 92.660112 
L 209.751208 91.645373 
L 209.813501 91.904251 
L 210.062673 93.549806 
L 210.124966 91.757234 
L 210.187259 92.792347 
L 210.249552 92.228648 
L 210.374138 93.770332 
L 210.436431 93.598545 
L 210.498724 92.462757 
L 210.561017 93.27295 
L 210.810189 92.555042 
L 210.872482 92.888628 
L 211.059361 95.432266 
L 211.183947 94.844597 
L 211.433119 97.707838 
L 211.495412 96.271623 
L 211.557705 97.483717 
L 211.682291 95.704728 
L 211.806877 97.087809 
L 211.86917 96.976747 
L 211.993756 96.720266 
L 212.056049 94.876957 
L 212.118342 95.411093 
L 212.180635 97.385838 
L 212.242928 96.953176 
L 212.305221 95.324001 
L 212.367514 96.14538 
L 212.554393 98.460503 
L 212.616686 97.27997 
L 212.678979 97.450159 
L 212.741272 97.45695 
L 212.928151 100.419668 
L 213.052737 97.321918 
L 213.11503 102.128744 
L 213.177323 100.994953 
L 213.426495 99.364979 
L 213.488788 99.752098 
L 213.613374 101.296978 
L 213.675667 101.02931 
L 213.800253 99.328224 
L 213.862546 100.235097 
L 213.924839 100.048529 
L 214.174011 101.505119 
L 214.298597 104.190981 
L 214.36089 103.178239 
L 214.423183 103.301287 
L 214.485476 103.274919 
L 214.610062 105.850518 
L 214.672355 105.60003 
L 214.734648 106.015114 
L 214.796941 105.866898 
L 214.921527 103.832626 
L 214.98382 108.567941 
L 215.046113 108.002244 
L 215.232992 104.68237 
L 215.295285 105.215308 
L 215.357578 103.556569 
L 215.419871 107.931931 
L 215.482164 105.343149 
L 215.544457 105.166169 
L 215.669043 107.53922 
L 215.855922 106.139359 
L 215.918215 105.497357 
L 216.105094 108.078549 
L 216.22968 108.438502 
L 216.291973 108.089336 
L 216.478852 105.92123 
L 216.665731 110.277816 
L 216.728024 109.476012 
L 216.790317 110.244258 
L 216.977196 107.834053 
L 217.039489 107.661068 
L 217.101782 107.784914 
L 217.226368 108.675807 
L 217.350954 111.691659 
L 217.600127 107.971083 
L 217.66242 108.022619 
L 217.787006 109.448047 
L 217.849299 110.018538 
L 217.911592 108.197202 
L 218.036178 112.037629 
L 218.098471 109.419682 
L 218.160764 110.043707 
L 218.28535 113.361184 
L 218.409936 111.334103 
L 218.472229 111.524666 
L 218.596815 115.091034 
L 218.659108 113.596891 
L 218.783694 109.75167 
L 218.970573 112.750343 
L 219.095159 110.525109 
L 219.282038 115.589215 
L 219.344331 113.687978 
L 219.406624 115.749815 
L 219.468917 114.184561 
L 219.53121 114.041938 
L 219.655796 112.394785 
L 219.718089 112.434735 
L 219.780382 112.709594 
L 219.904968 116.14812 
L 220.029554 113.617266 
L 220.15414 116.818487 
L 220.216433 113.386353 
L 220.278726 113.729127 
L 220.465605 115.565644 
L 220.527898 114.16858 
L 220.652484 117.315869 
L 220.77707 116.144924 
L 220.839363 118.724918 
L 220.901656 118.625441 
L 220.963949 118.146836 
L 221.150828 120.021706 
L 221.275414 116.881609 
L 221.462293 120.050071 
L 221.524586 119.779207 
L 221.586879 123.071915 
L 221.649172 120.924584 
L 221.711465 122.145467 
L 221.836051 120.381259 
L 221.898344 121.691231 
L 221.960637 121.237795 
L 222.02293 121.60334 
L 222.085223 125.164115 
L 222.147516 123.76825 
L 222.272102 120.0265 
L 222.334395 122.659628 
L 222.396688 119.977361 
L 222.458981 120.260609 
L 222.521274 120.621361 
L 222.583567 122.111908 
L 222.64586 121.659271 
L 222.770446 122.36 
L 222.895032 120.236239 
L 222.957325 121.57138 
L 223.019618 121.382015 
L 223.081911 121.421566 
L 223.206497 124.078264 
L 223.26879 122.516605 
L 223.331083 124.035118 
L 223.393376 121.486685 
L 223.517962 124.342336 
L 223.767134 125.376251 
L 223.829427 123.09229 
L 223.89172 124.185731 
L 223.954013 125.222442 
L 224.078599 123.142627 
L 224.140892 123.629222 
L 224.327771 125.022691 
L 224.452357 121.359244 
L 224.576943 125.526864 
L 224.639236 124.217691 
L 224.701529 123.981585 
L 224.950701 125.100993 
L 225.012994 123.991972 
L 225.075287 124.032721 
L 225.199873 124.592026 
L 225.262166 124.498942 
L 225.324459 124.142185 
L 225.511339 127.647429 
L 225.635925 126.429342 
L 225.698218 128.018967 
L 225.760511 127.572721 
L 225.885097 129.178725 
L 225.94739 125.473331 
L 226.009683 125.922373 
L 226.071976 128.044535 
L 226.134269 125.083815 
L 226.196562 126.941106 
L 226.258855 127.326228 
L 226.445734 130.048844 
L 226.508027 129.450787 
L 226.632613 127.33222 
L 226.819492 129.366892 
L 226.944078 127.603084 
L 227.006371 127.726131 
L 227.130957 131.439516 
L 227.19325 127.543558 
L 227.255543 129.211884 
L 227.317836 128.906664 
L 227.380129 128.956202 
L 227.442422 129.771589 
L 227.504715 127.763684 
L 227.567008 128.552304 
L 227.753887 131.068776 
L 227.940766 126.76932 
L 228.003059 127.713347 
L 228.127645 129.095629 
L 228.376817 125.009907 
L 228.43911 126.490866 
L 228.501403 124.997522 
L 228.563696 125.954333 
L 228.625989 125.822497 
L 228.750575 122.795459 
L 228.875161 122.95526 
L 228.937454 123.543729 
L 229.124333 121.557397 
L 229.186626 121.128331 
L 229.248919 121.804291 
L 229.498091 117.217991 
L 229.560384 116.916365 
L 229.622677 117.466881 
L 229.747263 114.826962 
L 229.809556 115.357103 
L 229.934142 109.726102 
L 229.996435 110.655347 
L 230.058728 108.465668 
L 230.121021 109.155611 
L 230.183314 109.814791 
L 230.868537 93.199441 
L 231.055416 89.414146 
L 231.740639 72.877898 
L 231.865225 69.976304 
L 232.114397 61.953075 
L 232.612741 53.404899 
L 232.737327 52.356202 
L 232.79962 52.666217 
L 232.861913 53.005795 
L 232.924206 52.738527 
L 232.986499 51.790106 
L 233.048792 52.408138 
L 233.111085 52.335428 
L 233.297964 50.278385 
L 233.360258 49.981953 
L 233.484844 50.615965 
L 234.356946 72.984964 
L 235.229048 113.684782 
L 235.353634 119.722078 
L 235.415927 119.701304 
L 235.602806 124.615197 
L 235.851978 128.64419 
L 235.914271 126.684625 
L 235.976564 128.760046 
L 236.038857 128.220317 
L 236.599494 117.005854 
L 236.910959 101.356104 
L 237.160131 92.582209 
L 237.409303 83.196673 
L 237.471596 83.557824 
L 237.596182 80.225965 
L 237.658475 80.183618 
L 238.156819 64.977716 
L 238.343698 60.740183 
L 238.530577 55.807114 
L 238.59287 55.773955 
L 238.655163 56.050411 
L 238.904335 53.513964 
L 238.966628 52.58312 
L 239.028921 53.041351 
L 239.278093 50.479335 
L 239.464972 46.8866 
L 239.589558 47.410349 
L 239.651851 46.705226 
L 239.714144 46.982082 
L 240.087902 54.713672 
L 240.337074 62.074924 
L 241.08459 83.507487 
L 241.27147 93.516647 
L 241.707521 110.586233 
L 241.769814 109.788025 
L 241.956693 116.47052 
L 242.081279 118.072129 
L 242.392744 124.849306 
L 242.766502 129.77039 
L 242.828795 126.876786 
L 242.891088 128.658971 
L 243.077967 124.368703 
L 243.264846 121.04803 
L 243.451725 115.025915 
L 243.514018 114.061114 
L 243.825483 100.946613 
L 243.887776 102.618535 
L 244.074655 95.101877 
L 244.261534 91.134807 
L 244.822171 72.897074 
L 244.884464 73.231858 
L 245.00905 70.907147 
L 245.195929 66.089534 
L 245.258222 66.187812 
L 245.320515 65.186257 
L 245.382808 65.342463 
L 245.445101 65.105957 
L 245.694273 59.699476 
L 245.756566 60.208843 
L 246.130324 50.214065 
L 246.379496 49.192934 
L 246.441789 49.547293 
L 246.690961 48.226135 
L 246.753254 50.682682 
L 246.815547 50.046673 
L 246.87784 49.66235 
L 247.002426 50.463355 
L 247.064719 49.234482 
L 247.127012 49.386693 
L 247.189305 49.518929 
L 247.251598 49.210911 
L 247.313891 48.10988 
L 247.376184 48.681569 
L 247.50077 49.367117 
L 247.563063 49.025941 
L 247.999114 60.039853 
L 248.061407 63.404471 
L 248.1237 63.129613 
L 248.185993 63.576258 
L 248.248286 63.223496 
L 248.559751 73.150359 
L 248.808923 80.257126 
L 248.995802 83.551432 
L 249.307268 97.622744 
L 249.369561 97.885617 
L 249.431854 97.856054 
L 250.366249 122.589714 
L 250.428542 121.055621 
L 250.553128 126.842829 
L 250.615421 126.674638 
L 250.677714 126.65666 
L 250.864593 129.279001 
L 250.989179 126.806873 
L 251.051472 129.230661 
L 251.113765 128.117245 
L 251.176058 127.556741 
L 251.238351 130.59936 
L 251.300644 125.69066 
L 251.362937 126.547196 
L 251.42523 126.392588 
L 251.612109 122.038799 
L 251.674402 120.374068 
L 251.736695 122.466268 
L 251.798988 121.835452 
L 252.172746 109.531543 
L 252.235039 110.678917 
L 252.421918 103.239364 
L 252.484211 104.095899 
L 252.546504 103.95048 
L 252.857969 93.463513 
L 252.920262 93.561392 
L 253.107141 87.408239 
L 253.169434 86.653577 
L 253.356313 83.161517 
L 253.418606 83.254202 
L 253.480899 82.903438 
L 253.979243 74.527048 
L 254.166122 68.373895 
L 254.228415 70.810067 
L 254.290708 69.451356 
L 254.602173 65.00688 
L 254.789052 63.100449 
L 254.913638 60.894391 
L 254.975931 61.621487 
L 255.287396 57.199383 
L 255.411982 55.692057 
L 255.598861 57.018009 
L 255.723447 54.553871 
L 255.78574 54.593821 
L 255.910326 56.146292 
L 256.221791 50.13776 
L 256.284084 49.994338 
L 256.470963 48.164212 
L 256.533256 49.383097 
L 256.595549 47.305679 
L 256.657842 48.120267 
L 256.907014 50.421407 
L 256.969307 50.512094 
L 257.0316 50.430196 
L 257.093893 49.903251 
L 257.156187 49.9444 
L 257.280773 50.397037 
L 257.405359 49.519728 
L 257.654531 52.858378 
L 257.779117 54.243057 
L 258.215168 64.310945 
L 258.277461 64.841485 
L 259.211856 90.607862 
L 259.585614 106.415017 
L 259.834786 109.96101 
L 259.897079 109.491194 
L 259.959372 110.060087 
L 260.208544 118.907091 
L 260.644595 129.110011 
L 260.769181 129.604596 
L 260.831474 132.552532 
L 260.893767 130.634516 
L 261.205232 122.739928 
L 261.267525 122.777881 
L 261.392111 120.801537 
L 262.015041 98.11653 
L 262.139627 93.574575 
L 262.326506 88.180479 
L 263.136315 62.481219 
L 263.198608 62.441668 
L 263.260901 62.610258 
L 263.385487 58.447432 
L 263.44778 59.006737 
L 263.510073 57.827802 
L 263.572366 59.193705 
L 263.883831 52.997406 
L 263.946124 52.636654 
L 264.008417 48.618048 
L 264.07071 48.628036 
L 264.382175 46.607747 
L 264.569054 51.442138 
L 264.631347 52.394954 
L 264.755933 55.620945 
L 264.880519 56.682026 
L 265.067399 59.801749 
L 265.191985 62.217147 
L 265.316571 65.326483 
L 265.378864 65.597745 
L 265.50345 70.922328 
L 265.939501 95.746276 
L 266.064087 99.295465 
L 266.313259 110.320163 
L 266.375552 111.376051 
L 266.562431 117.158465 
L 266.873896 128.314999 
L 266.998482 127.624657 
L 267.185361 129.94737 
L 267.559119 119.584649 
L 267.99517 99.389748 
L 268.119756 98.135307 
L 268.368928 86.080289 
L 268.431221 84.893364 
L 268.742686 74.153512 
L 269.303323 58.016767 
L 269.365616 57.754294 
L 269.677081 53.626224 
L 269.801667 53.099678 
L 269.86396 53.324199 
L 270.113132 50.255214 
L 270.175425 51.100563 
L 270.300011 50.846479 
L 270.362304 51.466508 
L 270.424597 51.339866 
L 270.48689 51.035444 
L 270.611476 52.404542 
L 271.047527 66.077949 
L 271.608164 91.294209 
L 271.857336 103.972053 
L 272.168801 117.562363 
L 272.35568 126.460903 
L 272.480266 126.52003 
L 272.542559 127.200784 
L 272.604852 129.304969 
L 272.667145 129.004542 
L 272.729438 129.118001 
L 272.791731 128.295423 
L 272.978611 123.750672 
L 273.414662 107.126932 
L 273.850713 81.617436 
L 274.099885 74.023674 
L 274.349057 65.555398 
L 274.41135 65.09557 
L 274.598229 58.115445 
L 274.785108 54.841913 
L 274.909694 53.432065 
L 275.096573 47.95727 
L 275.158866 47.840615 
L 275.221159 47.389975 
L 275.283452 47.713972 
L 275.470331 50.163328 
L 275.532624 50.148546 
L 275.65721 51.341863 
L 276.467019 89.335444 
L 277.089949 125.514479 
L 277.152242 125.459747 
L 277.401414 129.97933 
L 278.398102 72.865912 
L 278.709567 58.251276 
L 279.207911 51.166881 
L 279.270204 51.842441 
L 279.332497 51.385009 
L 279.39479 51.687034 
L 279.893134 67.272864 
L 280.889822 127.567528 
L 280.952116 127.647828 
L 281.076702 125.674281 
L 281.699632 88.595963 
L 282.011097 71.060556 
L 282.384855 56.495458 
L 282.634027 51.65787 
L 282.820906 49.120224 
L 282.883199 52.168436 
L 282.945492 50.313142 
L 283.132371 54.215092 
L 284.066766 113.467052 
L 284.253645 122.114305 
L 284.315938 123.893694 
L 284.378231 129.849092 
L 284.440524 126.500854 
L 284.502817 127.652622 
L 284.814282 113.465454 
L 285.18804 86.925639 
L 285.748677 59.284392 
L 285.935556 54.61899 
L 285.997849 54.630975 
L 286.060142 54.90104 
L 286.247021 52.046188 
L 286.309314 52.123292 
L 286.4339 51.491677 
L 286.683072 57.267698 
L 286.869951 64.944557 
L 287.181416 85.117086 
L 287.742053 124.160562 
L 287.866639 125.182892 
L 287.928932 125.28037 
L 288.053518 126.918734 
L 288.115811 126.204821 
L 288.364983 113.826605 
L 288.551862 100.45802 
L 289.174793 64.531071 
L 289.361672 57.199783 
L 289.423965 54.76401 
L 289.486258 55.502692 
L 289.797723 52.46287 
L 289.860016 52.883148 
L 289.922309 52.585118 
L 290.109188 52.850388 
L 290.233774 55.16631 
L 290.482946 67.457834 
L 291.355048 127.601086 
L 291.417341 127.564332 
L 291.479634 127.679788 
L 291.541927 126.663851 
L 292.414029 77.070287 
L 292.476322 75.502635 
L 292.787787 59.466166 
L 292.974666 55.297747 
L 293.099252 53.257882 
L 293.223838 50.16932 
L 293.286131 50.244826 
L 293.410717 52.722547 
L 293.47301 56.188639 
L 293.535303 54.936595 
L 293.597596 55.261791 
L 293.909061 63.317779 
L 294.345112 89.844012 
L 294.905749 126.046219 
L 294.968042 126.204422 
L 295.030335 127.835195 
L 295.092628 127.647828 
L 295.154921 128.079691 
L 295.217214 127.584307 
L 295.96473 86.277244 
L 296.400781 63.031335 
L 296.961419 46.362052 
L 297.335177 53.660981 
L 297.39747 53.912668 
L 297.459763 53.656586 
L 298.0204 79.429355 
L 298.331865 104.485814 
L 298.64333 120.825507 
L 298.705623 126.218804 
L 298.767916 126.022648 
L 298.830209 127.209173 
L 298.954795 124.351924 
L 299.017088 126.57636 
L 299.453139 108.859579 
L 300.262948 66.896132 
L 300.574413 56.853813 
L 301.072757 48.635626 
L 301.446515 52.121294 
L 302.007152 75.457891 
L 303.066133 127.385754 
L 303.190719 126.762528 
L 303.253012 123.801009 
L 303.315305 125.307137 
L 303.62677 115.07785 
L 304.000528 92.584606 
L 304.062821 92.101206 
L 304.561165 69.817301 
L 304.934924 59.065863 
L 305.184096 53.19516 
L 305.370975 51.383012 
L 305.433268 51.585161 
L 305.744733 54.235467 
L 305.807026 53.640207 
L 305.869319 54.068474 
L 306.056198 55.821895 
L 306.30537 63.810367 
L 306.9283 92.440784 
L 307.239765 110.825535 
L 307.613523 125.899601 
L 307.738109 127.472446 
L 307.800402 124.522113 
L 307.862695 127.785657 
L 307.924988 125.230033 
L 308.17416 121.429956 
L 308.298746 120.008522 
L 309.42002 71.51599 
L 309.482313 72.847935 
L 309.669192 66.828616 
L 309.731485 67.665176 
L 309.856071 61.65984 
L 309.918364 61.707381 
L 309.980657 61.183631 
L 310.167536 56.269739 
L 310.354415 53.335785 
L 310.416708 53.093286 
L 310.479001 51.675448 
L 310.541294 51.771729 
L 310.603587 51.949907 
L 310.728173 51.003484 
L 310.852759 51.728183 
L 310.915052 51.704612 
L 310.977345 51.394997 
L 311.28881 55.513079 
L 311.413396 56.310887 
L 312.223205 84.890168 
L 312.53467 101.066464 
L 312.72155 106.206476 
L 313.033015 119.365721 
L 313.095308 118.949439 
L 313.157601 120.01811 
L 313.282187 123.968401 
L 313.34448 123.419483 
L 313.469066 127.53357 
L 313.531359 125.121368 
L 313.718238 129.443197 
L 313.96741 121.507459 
L 314.029703 122.131883 
L 315.275563 81.947026 
L 315.462442 74.192264 
L 315.649321 67.924853 
L 315.8362 63.179551 
L 316.147665 58.287631 
L 316.209958 58.33637 
L 316.272251 59.711861 
L 316.334544 58.783015 
L 317.144353 47.759515 
L 317.206646 47.350823 
L 317.455818 50.553243 
L 317.518111 50.190894 
L 317.580404 50.427799 
L 317.642697 50.401432 
L 317.70499 51.62591 
L 317.767283 55.31133 
L 317.829576 55.229432 
L 317.891869 55.015298 
L 318.016455 53.15481 
L 318.452506 62.225137 
L 318.514799 62.477224 
L 318.888557 75.153869 
L 319.200022 83.172703 
L 319.947538 109.515963 
L 320.009831 107.795701 
L 320.383589 121.086782 
L 320.445882 120.376066 
L 320.695055 125.104988 
L 320.757348 124.525708 
L 320.881934 126.549593 
L 321.068813 125.393829 
L 321.131106 130.01169 
L 321.193399 126.794888 
L 321.255692 125.415802 
L 321.317985 129.177926 
L 321.504864 121.971683 
L 321.567157 120.189497 
L 321.62945 123.312416 
L 321.691743 122.268913 
L 321.754036 122.494633 
L 321.940915 115.676307 
L 322.065501 113.304854 
L 322.501552 101.263419 
L 322.563845 104.902097 
L 322.750724 96.939993 
L 322.813017 96.842514 
L 322.937603 91.748844 
L 322.999896 91.919432 
L 323.124482 88.995866 
L 323.249068 85.456265 
L 323.311361 86.953204 
L 323.49824 78.169721 
L 323.685119 79.478894 
L 323.934291 71.477638 
L 324.058877 71.052167 
L 324.557221 63.004968 
L 324.681807 61.824435 
L 324.7441 61.705783 
L 324.993272 57.203378 
L 325.180151 55.555027 
L 325.242444 57.585703 
L 325.304737 56.041223 
L 325.429323 54.010147 
L 325.491616 54.282608 
L 325.553909 54.43442 
L 325.616202 54.00775 
L 325.678495 54.454794 
L 325.865374 50.570022 
L 326.052253 49.402274 
L 326.114546 49.688718 
L 326.176839 49.926822 
L 326.239132 49.659953 
L 326.301425 49.746246 
L 326.363718 48.461043 
L 326.488304 49.861303 
L 326.550597 49.628792 
L 326.61289 49.737857 
L 326.675183 49.618006 
L 326.737476 49.840129 
L 326.799769 49.616807 
L 326.862062 50.381457 
L 326.924355 50.297161 
L 326.986648 49.730666 
L 327.048941 50.367874 
L 327.173527 53.112463 
L 327.298113 52.96185 
L 327.547285 56.977659 
L 327.609578 56.539004 
L 327.671871 56.319677 
L 328.107922 60.440954 
L 328.170215 60.909972 
L 328.294801 65.179465 
L 328.357094 64.954145 
L 328.980025 78.853671 
L 329.104611 77.850118 
L 329.166904 77.740654 
L 329.478369 86.306808 
L 329.540662 86.471403 
L 330.475057 104.158222 
L 330.53735 104.073127 
L 330.599643 105.282025 
L 330.661936 104.089906 
L 330.911108 114.7163 
L 330.973401 113.765082 
L 331.16028 118.733707 
L 331.222573 119.927024 
L 331.284866 118.293853 
L 331.409452 121.079591 
L 331.534038 119.241476 
L 331.720917 123.361955 
L 331.78321 119.932617 
L 331.970089 125.009907 
L 332.032382 125.593981 
L 332.094675 124.800567 
L 332.219261 127.249523 
L 332.281554 126.25396 
L 332.343847 126.771317 
L 332.468433 128.579071 
L 332.530726 128.178369 
L 332.593019 128.430056 
L 332.655312 128.509957 
L 332.717605 125.958328 
L 332.779898 126.23838 
L 332.904484 127.965833 
L 333.091363 124.534098 
L 333.153656 126.685424 
L 333.215949 126.579156 
L 333.340535 125.806916 
L 333.402828 126.110139 
L 333.714293 120.781562 
L 333.776586 122.956059 
L 333.838879 121.572579 
L 333.901172 118.555528 
L 333.963465 119.745649 
L 334.025758 119.306595 
L 334.337223 112.115932 
L 334.399516 112.803877 
L 334.461809 112.429142 
L 334.524102 112.224996 
L 334.586395 109.929449 
L 334.648688 111.783145 
L 334.835567 107.282339 
L 334.89786 106.947155 
L 334.960153 105.079077 
L 335.022446 106.951949 
L 335.084739 106.842086 
L 335.458497 97.787339 
L 335.52079 99.406927 
L 335.583083 98.317481 
L 335.769962 94.55216 
L 335.832255 96.665933 
L 335.894548 95.057133 
L 336.081427 91.740854 
L 336.268306 89.15327 
L 336.392892 89.239962 
L 336.455186 86.801793 
L 336.517479 87.136976 
L 336.642065 85.412719 
L 336.704358 83.178695 
L 336.828944 85.517389 
L 337.078116 79.381015 
L 337.140409 79.735774 
L 337.451874 75.350425 
L 337.514167 75.864985 
L 337.57646 75.521013 
L 337.763339 73.309361 
L 337.887925 71.388948 
L 338.012511 72.575074 
L 338.137097 70.195631 
L 338.19939 67.843754 
L 338.261683 68.357516 
L 338.386269 69.819698 
L 338.635441 66.623271 
L 338.697734 68.069074 
L 338.946906 65.054021 
L 339.071492 64.196687 
L 339.133785 62.577499 
L 339.196078 63.457206 
L 339.258371 63.809168 
L 339.382957 63.029338 
L 339.44525 63.144395 
L 339.632129 61.178038 
L 339.694422 61.44251 
L 340.06818 57.916492 
L 340.130473 57.939264 
L 340.255059 59.151357 
L 340.317352 59.361097 
L 340.504231 58.013971 
L 340.69111 56.560178 
L 340.877989 51.874801 
L 341.002575 52.365391 
L 341.064868 51.661466 
L 341.127161 51.962691 
L 341.251747 52.691785 
L 341.438626 51.536421 
L 341.563212 51.220015 
L 341.625505 51.214022 
L 341.687798 51.365434 
L 341.93697 49.325569 
L 341.999263 48.884118 
L 342.061556 49.889268 
L 342.123849 49.691514 
L 342.248435 49.159376 
L 342.435314 46.489494 
L 342.622193 48.512579 
L 342.684486 48.522167 
L 342.746779 48.269282 
L 342.809072 46.467921 
L 342.871365 47.358414 
L 342.933658 46.352864 
L 342.995951 46.443551 
L 343.058244 46.928149 
L 343.120537 46.591767 
L 343.18283 45.449986 
L 343.245123 45.706067 
L 343.369709 44.443636 
L 343.556588 46.405997 
L 343.618881 46.254186 
L 343.681174 46.372839 
L 343.743467 47.187027 
L 343.80576 46.909372 
L 343.868053 46.583377 
L 343.930346 48.39153 
L 343.992639 48.333602 
L 344.054932 48.492604 
L 344.117225 47.979242 
L 344.304104 49.489765 
L 344.553277 47.585332 
L 344.61557 48.231329 
L 344.677863 47.656044 
L 344.740156 48.792631 
L 344.802449 47.956071 
L 344.864742 48.165411 
L 344.927035 47.552972 
L 344.989328 48.153026 
L 345.051621 47.548178 
L 345.113914 47.77989 
L 345.549965 51.496471 
L 345.612258 50.638337 
L 345.674551 50.822908 
L 345.923723 52.901924 
L 346.048309 52.287488 
L 346.172895 50.860461 
L 346.235188 51.005481 
L 346.359774 53.088093 
L 346.422067 54.294993 
L 346.48436 53.697336 
L 346.546653 53.752068 
L 346.920411 56.61451 
L 346.982704 56.390788 
L 347.169583 57.454666 
L 347.231876 56.870592 
L 347.418755 59.405841 
L 347.481048 57.95005 
L 347.667927 60.169292 
L 347.73022 60.654689 
L 347.854806 59.244841 
L 348.228564 63.935012 
L 348.290857 63.35693 
L 348.35315 63.464796 
L 348.477736 65.199441 
L 348.540029 64.366875 
L 348.602322 64.422007 
L 348.664615 64.2666 
L 348.726908 64.618163 
L 348.789201 64.232642 
L 349.038373 67.645201 
L 349.100666 68.563659 
L 349.162959 67.575288 
L 349.225252 67.900484 
L 349.287545 70.476083 
L 349.349838 69.84287 
L 349.474424 71.619062 
L 349.661303 69.806115 
L 349.723596 69.975505 
L 349.785889 69.821696 
L 349.972768 71.195988 
L 350.035061 72.438044 
L 350.097354 72.064908 
L 350.346526 74.018879 
L 350.595698 77.942403 
L 350.657991 78.303954 
L 350.720284 79.822467 
L 350.782577 78.470946 
L 350.907163 80.082543 
L 351.031749 79.98906 
L 351.094042 80.541573 
L 351.156335 82.251448 
L 351.343214 79.514449 
L 351.405507 82.328552 
L 351.4678 82.307778 
L 351.592386 81.668572 
L 351.779265 86.467808 
L 351.841558 83.483117 
L 351.903851 84.69601 
L 352.215316 89.126503 
L 352.339903 86.897673 
L 352.651368 92.762385 
L 352.775954 91.451614 
L 353.025126 93.986463 
L 353.274298 98.656659 
L 353.336591 98.665848 
L 353.52347 96.501338 
L 353.585763 96.186928 
L 353.648056 96.487755 
L 353.772642 99.076537 
L 353.834935 97.693856 
L 353.959521 100.961794 
L 354.021814 100.825963 
L 354.1464 98.883178 
L 354.208693 100.41807 
L 354.270986 100.227107 
L 354.333279 100.110053 
L 354.395572 100.867911 
L 354.520158 104.324015 
L 354.582451 103.791078 
L 354.644744 104.160219 
L 354.831623 105.588045 
L 354.893916 104.023589 
L 354.956209 107.118143 
L 355.018502 105.353536 
L 355.080795 103.651651 
L 355.143088 107.62711 
L 355.205381 107.271153 
L 355.267674 106.059459 
L 355.454553 110.042908 
L 355.579139 108.899129 
L 355.703725 111.453155 
L 355.766018 109.712519 
L 355.828311 110.468379 
L 355.890604 111.318523 
L 355.952897 114.806987 
L 356.01519 112.195433 
L 356.077483 114.065509 
L 356.139776 113.474243 
L 356.202069 112.921331 
L 356.326655 114.475799 
L 356.388948 113.756293 
L 356.451241 114.759047 
L 356.513534 113.8306 
L 356.63812 116.351867 
L 356.824999 114.986764 
L 357.011878 119.249066 
L 357.136464 117.080162 
L 357.323343 119.767622 
L 357.385636 117.525608 
L 357.447929 117.899943 
L 357.572515 118.146037 
L 357.634808 118.997779 
L 357.697101 118.013002 
L 357.821687 120.793547 
L 357.88398 120.682884 
L 357.946273 122.316454 
L 358.008566 121.043636 
L 358.070859 121.527035 
L 358.133152 123.640808 
L 358.195445 122.572136 
L 358.257738 123.461032 
L 358.569203 119.75324 
L 358.631496 122.680402 
L 358.693789 121.732779 
L 358.880668 119.553887 
L 358.942961 121.484688 
L 359.005254 119.918634 
L 359.067547 123.403903 
L 359.12984 122.041995 
L 359.192133 123.839361 
L 359.254426 123.207347 
L 359.316719 122.556556 
L 359.379012 124.484959 
L 359.441305 122.962451 
L 359.503598 124.16216 
L 359.565891 123.723505 
L 359.628184 124.166155 
L 359.75277 126.534811 
L 359.815063 126.517233 
L 359.877356 126.380603 
L 359.939649 127.288275 
L 360.064235 124.675522 
L 360.126528 127.086925 
L 360.188821 126.896362 
L 360.251115 126.685424 
L 360.313408 125.508886 
L 360.375701 126.630293 
L 360.437994 123.831771 
L 360.500287 124.647956 
L 360.56258 124.182535 
L 360.687166 127.011819 
L 360.749459 124.886859 
L 360.811752 126.396583 
L 360.874045 126.987049 
L 360.936338 130.004499 
L 360.998631 129.570239 
L 361.060924 127.192794 
L 361.123217 127.659414 
L 361.18551 127.354193 
L 361.247803 128.932232 
L 361.310096 128.929435 
L 361.434682 126.32707 
L 361.559268 129.165142 
L 361.621561 128.83715 
L 361.683854 128.57987 
L 361.80844 127.492421 
L 361.995319 129.951365 
L 362.182198 126.842429 
L 362.244491 128.785614 
L 362.306784 127.588702 
L 362.43137 131.719168 
L 362.493663 129.90742 
L 362.555956 126.324673 
L 362.618249 126.732566 
L 362.805128 130.105973 
L 362.867421 128.774028 
L 362.929714 130.332491 
L 362.992007 127.812424 
L 363.0543 128.228706 
L 363.116593 131.164258 
L 363.178886 130.10837 
L 363.241179 127.803634 
L 363.303472 127.808428 
L 363.365765 129.683698 
L 363.428058 129.31216 
L 363.490351 129.919005 
L 363.614937 128.264262 
L 363.67723 128.566686 
L 363.988695 124.087852 
L 364.050988 124.192522 
L 364.113281 122.463471 
L 364.175574 123.672768 
L 364.30016 121.131127 
L 364.487039 112.8658 
L 364.549332 112.305296 
L 364.611625 108.626269 
L 364.673918 110.196717 
L 364.798504 107.917549 
L 364.860797 108.907919 
L 364.985383 110.052096 
L 365.047676 109.181179 
L 365.109969 105.827747 
L 365.172262 106.62156 
L 365.234555 106.87924 
L 365.296848 108.969043 
L 365.359141 108.452485 
L 365.483727 107.493676 
L 365.54602 107.725788 
L 365.732899 103.055192 
L 365.795192 104.604067 
L 365.857485 103.912926 
L 365.919778 104.264889 
L 365.982071 105.604824 
L 366.044364 103.678018 
L 366.106657 104.587288 
L 366.231243 103.31447 
L 366.293536 106.51729 
L 366.480415 102.954518 
L 366.542708 102.565002 
L 366.729587 100.303812 
L 366.79188 99.871949 
L 366.854173 96.871677 
L 366.916466 101.901826 
L 366.978759 99.101306 
L 367.041052 98.03663 
L 367.103345 98.832041 
L 367.165638 99.230746 
L 367.227931 97.550034 
L 367.290224 101.768392 
L 367.352517 100.134422 
L 367.41481 98.974664 
L 367.663982 108.18282 
L 367.788568 109.837563 
L 367.850861 109.747275 
L 368.162326 103.257341 
L 368.286913 103.640066 
L 368.473792 99.799239 
L 368.598378 102.899386 
L 368.660671 107.541217 
L 368.722964 106.74261 
L 368.84755 109.123251 
L 368.972136 105.083072 
L 369.034429 108.997807 
L 369.096722 107.261165 
L 369.221308 106.668701 
L 369.283601 109.160405 
L 369.345894 108.607891 
L 369.408187 109.052938 
L 369.47048 110.530702 
L 369.532773 108.9227 
L 369.719652 118.868739 
L 370.217996 128.957001 
L 370.342582 127.963835 
L 370.404875 130.117958 
L 370.467168 127.925882 
L 370.529461 129.276204 
L 370.591754 127.502409 
L 370.654047 128.260267 
L 370.71634 130.903382 
L 370.778633 127.25232 
L 370.840926 129.643747 
L 370.903219 130.338484 
L 370.965512 126.73696 
L 371.027805 131.929706 
L 371.090098 129.06247 
L 371.152391 122.489839 
L 371.214684 125.48172 
L 371.276977 121.478695 
L 371.33927 122.551762 
L 371.401563 121.815477 
L 371.463856 122.204593 
L 371.526149 123.483803 
L 371.588442 117.642663 
L 371.650735 119.111637 
L 371.775321 121.306509 
L 371.9622 139.598176 
L 372.273665 117.405757 
L 372.335958 119.819557 
L 372.460544 114.050327 
L 372.522837 114.540119 
L 372.709716 110.463186 
L 372.772009 110.264632 
L 372.958888 106.471746 
L 373.021181 107.100964 
L 373.083474 115.74622 
L 373.20806 232.298965 
L 373.270353 230.080123 
L 373.457232 242.116364 
L 373.519525 241.443999 
L 373.581818 242.108374 
L 373.581818 242.108374 
" style="fill:none;stroke:#1f77b4;stroke-linecap:square;stroke-width:1.5;"/>
   </g>
   <g id="patch_3">
    <path d="M 54 252 
L 54 34.56 
" style="fill:none;stroke:#000000;stroke-linecap:square;stroke-linejoin:miter;stroke-width:0.8;"/>
   </g>
   <g id="patch_4">
    <path d="M 388.8 252 
L 388.8 34.56 
" style="fill:none;stroke:#000000;stroke-linecap:square;stroke-linejoin:miter;stroke-width:0.8;"/>
   </g>
   <g id="patch_5">
    <path d="M 54 252 
L 388.8 252 
" style="fill:none;stroke:#000000;stroke-linecap:square;stroke-linejoin:miter;stroke-width:0.8;"/>
   </g>
   <g id="patch_6">
    <path d="M 54 34.56 
L 388.8 34.56 
" style="fill:none;stroke:#000000;stroke-linecap:square;stroke-linejoin:miter;stroke-width:0.8;"/>
   </g>
  </g>
 </g>
 <defs>
  <clipPath id="p83ec54e421">
   <rect height="217.44" width="334.8" x="54" y="34.56"/>
  </clipPath>
 </defs>
</svg>
