<?xml version="1.0" encoding="utf-8" standalone="no"?>
<!DOCTYPE svg PUBLIC "-//W3C//DTD SVG 1.1//EN"
  "http://www.w3.org/Graphics/SVG/1.1/DTD/svg11.dtd">
<!-- Created with matplotlib (https://matplotlib.org/) -->
<svg height="288pt" version="1.1" viewBox="0 0 432 288" width="432pt" xmlns="http://www.w3.org/2000/svg" xmlns:xlink="http://www.w3.org/1999/xlink">
 <defs>
  <style type="text/css">
*{stroke-linecap:butt;stroke-linejoin:round;}
  </style>
 </defs>
 <g id="figure_1">
  <g id="patch_1">
   <path d="M 0 288 
L 432 288 
L 432 0 
L 0 0 
z
" style="fill:#ffffff;"/>
  </g>
  <g id="axes_1">
   <g id="patch_2">
    <path d="M 54 252 
L 388.8 252 
L 388.8 34.56 
L 54 34.56 
z
" style="fill:#ffffff;"/>
   </g>
   <g id="patch_3">
    <path clip-path="url(#p7527379b84)" d="M 141.059429 252 
L 141.059429 34.56 
L 141.060437 34.56 
L 141.060437 252 
z
" style="fill:#ff0000;opacity:0.5;stroke:#ff0000;stroke-linejoin:miter;"/>
   </g>
   <g id="patch_4">
    <path clip-path="url(#p7527379b84)" d="M 143.712916 252 
L 143.712916 34.56 
L 143.713924 34.56 
L 143.713924 252 
z
" style="fill:#ff0000;opacity:0.5;stroke:#ff0000;stroke-linejoin:miter;"/>
   </g>
   <g id="patch_5">
    <path clip-path="url(#p7527379b84)" d="M 144.549692 252 
L 144.549692 34.56 
L 144.5507 34.56 
L 144.5507 252 
z
" style="fill:#ff0000;opacity:0.5;stroke:#ff0000;stroke-linejoin:miter;"/>
   </g>
   <g id="patch_6">
    <path clip-path="url(#p7527379b84)" d="M 145.180802 252 
L 145.180802 34.56 
L 145.18181 34.56 
L 145.18181 252 
z
" style="fill:#ff0000;opacity:0.5;stroke:#ff0000;stroke-linejoin:miter;"/>
   </g>
   <g id="patch_7">
    <path clip-path="url(#p7527379b84)" d="M 145.916762 252 
L 145.916762 34.56 
L 145.91777 34.56 
L 145.91777 252 
z
" style="fill:#ff0000;opacity:0.5;stroke:#ff0000;stroke-linejoin:miter;"/>
   </g>
   <g id="patch_8">
    <path clip-path="url(#p7527379b84)" d="M 147.172934 252 
L 147.172934 34.56 
L 147.173942 34.56 
L 147.173942 252 
z
" style="fill:#ff0000;opacity:0.5;stroke:#ff0000;stroke-linejoin:miter;"/>
   </g>
   <g id="patch_9">
    <path clip-path="url(#p7527379b84)" d="M 149.366698 252 
L 149.366698 34.56 
L 149.367706 34.56 
L 149.367706 252 
z
" style="fill:#ff0000;opacity:0.5;stroke:#ff0000;stroke-linejoin:miter;"/>
   </g>
   <g id="patch_10">
    <path clip-path="url(#p7527379b84)" d="M 151.979859 252 
L 151.979859 34.56 
L 151.980867 34.56 
L 151.980867 252 
z
" style="fill:#ff0000;opacity:0.5;stroke:#ff0000;stroke-linejoin:miter;"/>
   </g>
   <g id="patch_11">
    <path clip-path="url(#p7527379b84)" d="M 154.693835 252 
L 154.693835 34.56 
L 154.694844 34.56 
L 154.694844 252 
z
" style="fill:#ff0000;opacity:0.5;stroke:#ff0000;stroke-linejoin:miter;"/>
   </g>
   <g id="patch_12">
    <path clip-path="url(#p7527379b84)" d="M 157.724376 252 
L 157.724376 34.56 
L 157.725384 34.56 
L 157.725384 252 
z
" style="fill:#ff0000;opacity:0.5;stroke:#ff0000;stroke-linejoin:miter;"/>
   </g>
   <g id="patch_13">
    <path clip-path="url(#p7527379b84)" d="M 161.077529 252 
L 161.077529 34.56 
L 161.078537 34.56 
L 161.078537 252 
z
" style="fill:#ff0000;opacity:0.5;stroke:#ff0000;stroke-linejoin:miter;"/>
   </g>
   <g id="patch_14">
    <path clip-path="url(#p7527379b84)" d="M 164.839996 252 
L 164.839996 34.56 
L 164.841004 34.56 
L 164.841004 252 
z
" style="fill:#ff0000;opacity:0.5;stroke:#ff0000;stroke-linejoin:miter;"/>
   </g>
   <g id="patch_15">
    <path clip-path="url(#p7527379b84)" d="M 168.277834 252 
L 168.277834 34.56 
L 168.278842 34.56 
L 168.278842 252 
z
" style="fill:#ff0000;opacity:0.5;stroke:#ff0000;stroke-linejoin:miter;"/>
   </g>
   <g id="patch_16">
    <path clip-path="url(#p7527379b84)" d="M 170.897044 252 
L 170.897044 34.56 
L 170.898052 34.56 
L 170.898052 252 
z
" style="fill:#ff0000;opacity:0.5;stroke:#ff0000;stroke-linejoin:miter;"/>
   </g>
   <g id="patch_17">
    <path clip-path="url(#p7527379b84)" d="M 173.723935 252 
L 173.723935 34.56 
L 173.724943 34.56 
L 173.724943 252 
z
" style="fill:#ff0000;opacity:0.5;stroke:#ff0000;stroke-linejoin:miter;"/>
   </g>
   <g id="patch_18">
    <path clip-path="url(#p7527379b84)" d="M 176.683904 252 
L 176.683904 34.56 
L 176.684912 34.56 
L 176.684912 252 
z
" style="fill:#ff0000;opacity:0.5;stroke:#ff0000;stroke-linejoin:miter;"/>
   </g>
   <g id="patch_19">
    <path clip-path="url(#p7527379b84)" d="M 180.317326 252 
L 180.317326 34.56 
L 180.318334 34.56 
L 180.318334 252 
z
" style="fill:#ff0000;opacity:0.5;stroke:#ff0000;stroke-linejoin:miter;"/>
   </g>
   <g id="patch_20">
    <path clip-path="url(#p7527379b84)" d="M 184.610087 252 
L 184.610087 34.56 
L 184.611096 34.56 
L 184.611096 252 
z
" style="fill:#ff0000;opacity:0.5;stroke:#ff0000;stroke-linejoin:miter;"/>
   </g>
   <g id="patch_21">
    <path clip-path="url(#p7527379b84)" d="M 188.503616 252 
L 188.503616 34.56 
L 188.504624 34.56 
L 188.504624 252 
z
" style="fill:#ff0000;opacity:0.5;stroke:#ff0000;stroke-linejoin:miter;"/>
   </g>
   <g id="patch_22">
    <path clip-path="url(#p7527379b84)" d="M 193.631137 252 
L 193.631137 34.56 
L 193.632145 34.56 
L 193.632145 252 
z
" style="fill:#ff0000;opacity:0.5;stroke:#ff0000;stroke-linejoin:miter;"/>
   </g>
   <g id="patch_23">
    <path clip-path="url(#p7527379b84)" d="M 229.808086 252 
L 229.808086 34.56 
L 229.809094 34.56 
L 229.809094 252 
z
" style="fill:#ff0000;opacity:0.5;stroke:#ff0000;stroke-linejoin:miter;"/>
   </g>
   <g id="matplotlib.axis_1">
    <g id="xtick_1">
     <g id="line2d_1">
      <defs>
       <path d="M 0 0 
L 0 3.5 
" id="mc6b0a03a44" style="stroke:#000000;stroke-width:0.8;"/>
      </defs>
      <g>
       <use style="stroke:#000000;stroke-width:0.8;" x="69.218182" xlink:href="#mc6b0a03a44" y="252"/>
      </g>
     </g>
     <g id="text_1">
      <!-- 0 -->
      <defs>
       <path d="M 31.78125 66.40625 
Q 24.171875 66.40625 20.328125 58.90625 
Q 16.5 51.421875 16.5 36.375 
Q 16.5 21.390625 20.328125 13.890625 
Q 24.171875 6.390625 31.78125 6.390625 
Q 39.453125 6.390625 43.28125 13.890625 
Q 47.125 21.390625 47.125 36.375 
Q 47.125 51.421875 43.28125 58.90625 
Q 39.453125 66.40625 31.78125 66.40625 
z
M 31.78125 74.21875 
Q 44.046875 74.21875 50.515625 64.515625 
Q 56.984375 54.828125 56.984375 36.375 
Q 56.984375 17.96875 50.515625 8.265625 
Q 44.046875 -1.421875 31.78125 -1.421875 
Q 19.53125 -1.421875 13.0625 8.265625 
Q 6.59375 17.96875 6.59375 36.375 
Q 6.59375 54.828125 13.0625 64.515625 
Q 19.53125 74.21875 31.78125 74.21875 
z
" id="DejaVuSans-48"/>
      </defs>
      <g transform="translate(66.036932 266.598437)scale(0.1 -0.1)">
       <use xlink:href="#DejaVuSans-48"/>
      </g>
     </g>
    </g>
    <g id="xtick_2">
     <g id="line2d_2">
      <g>
       <use style="stroke:#000000;stroke-width:0.8;" x="119.626371" xlink:href="#mc6b0a03a44" y="252"/>
      </g>
     </g>
     <g id="text_2">
      <!-- 50000 -->
      <defs>
       <path d="M 10.796875 72.90625 
L 49.515625 72.90625 
L 49.515625 64.59375 
L 19.828125 64.59375 
L 19.828125 46.734375 
Q 21.96875 47.46875 24.109375 47.828125 
Q 26.265625 48.1875 28.421875 48.1875 
Q 40.625 48.1875 47.75 41.5 
Q 54.890625 34.8125 54.890625 23.390625 
Q 54.890625 11.625 47.5625 5.09375 
Q 40.234375 -1.421875 26.90625 -1.421875 
Q 22.3125 -1.421875 17.546875 -0.640625 
Q 12.796875 0.140625 7.71875 1.703125 
L 7.71875 11.625 
Q 12.109375 9.234375 16.796875 8.0625 
Q 21.484375 6.890625 26.703125 6.890625 
Q 35.15625 6.890625 40.078125 11.328125 
Q 45.015625 15.765625 45.015625 23.390625 
Q 45.015625 31 40.078125 35.4375 
Q 35.15625 39.890625 26.703125 39.890625 
Q 22.75 39.890625 18.8125 39.015625 
Q 14.890625 38.140625 10.796875 36.28125 
z
" id="DejaVuSans-53"/>
      </defs>
      <g transform="translate(103.720121 266.598437)scale(0.1 -0.1)">
       <use xlink:href="#DejaVuSans-53"/>
       <use x="63.623047" xlink:href="#DejaVuSans-48"/>
       <use x="127.246094" xlink:href="#DejaVuSans-48"/>
       <use x="190.869141" xlink:href="#DejaVuSans-48"/>
       <use x="254.492188" xlink:href="#DejaVuSans-48"/>
      </g>
     </g>
    </g>
    <g id="xtick_3">
     <g id="line2d_3">
      <g>
       <use style="stroke:#000000;stroke-width:0.8;" x="170.03456" xlink:href="#mc6b0a03a44" y="252"/>
      </g>
     </g>
     <g id="text_3">
      <!-- 100000 -->
      <defs>
       <path d="M 12.40625 8.296875 
L 28.515625 8.296875 
L 28.515625 63.921875 
L 10.984375 60.40625 
L 10.984375 69.390625 
L 28.421875 72.90625 
L 38.28125 72.90625 
L 38.28125 8.296875 
L 54.390625 8.296875 
L 54.390625 0 
L 12.40625 0 
z
" id="DejaVuSans-49"/>
      </defs>
      <g transform="translate(150.94706 266.598437)scale(0.1 -0.1)">
       <use xlink:href="#DejaVuSans-49"/>
       <use x="63.623047" xlink:href="#DejaVuSans-48"/>
       <use x="127.246094" xlink:href="#DejaVuSans-48"/>
       <use x="190.869141" xlink:href="#DejaVuSans-48"/>
       <use x="254.492188" xlink:href="#DejaVuSans-48"/>
       <use x="318.115234" xlink:href="#DejaVuSans-48"/>
      </g>
     </g>
    </g>
    <g id="xtick_4">
     <g id="line2d_4">
      <g>
       <use style="stroke:#000000;stroke-width:0.8;" x="220.442748" xlink:href="#mc6b0a03a44" y="252"/>
      </g>
     </g>
     <g id="text_4">
      <!-- 150000 -->
      <g transform="translate(201.355248 266.598437)scale(0.1 -0.1)">
       <use xlink:href="#DejaVuSans-49"/>
       <use x="63.623047" xlink:href="#DejaVuSans-53"/>
       <use x="127.246094" xlink:href="#DejaVuSans-48"/>
       <use x="190.869141" xlink:href="#DejaVuSans-48"/>
       <use x="254.492188" xlink:href="#DejaVuSans-48"/>
       <use x="318.115234" xlink:href="#DejaVuSans-48"/>
      </g>
     </g>
    </g>
    <g id="xtick_5">
     <g id="line2d_5">
      <g>
       <use style="stroke:#000000;stroke-width:0.8;" x="270.850937" xlink:href="#mc6b0a03a44" y="252"/>
      </g>
     </g>
     <g id="text_5">
      <!-- 200000 -->
      <defs>
       <path d="M 19.1875 8.296875 
L 53.609375 8.296875 
L 53.609375 0 
L 7.328125 0 
L 7.328125 8.296875 
Q 12.9375 14.109375 22.625 23.890625 
Q 32.328125 33.6875 34.8125 36.53125 
Q 39.546875 41.84375 41.421875 45.53125 
Q 43.3125 49.21875 43.3125 52.78125 
Q 43.3125 58.59375 39.234375 62.25 
Q 35.15625 65.921875 28.609375 65.921875 
Q 23.96875 65.921875 18.8125 64.3125 
Q 13.671875 62.703125 7.8125 59.421875 
L 7.8125 69.390625 
Q 13.765625 71.78125 18.9375 73 
Q 24.125 74.21875 28.421875 74.21875 
Q 39.75 74.21875 46.484375 68.546875 
Q 53.21875 62.890625 53.21875 53.421875 
Q 53.21875 48.921875 51.53125 44.890625 
Q 49.859375 40.875 45.40625 35.40625 
Q 44.1875 33.984375 37.640625 27.21875 
Q 31.109375 20.453125 19.1875 8.296875 
z
" id="DejaVuSans-50"/>
      </defs>
      <g transform="translate(251.763437 266.598437)scale(0.1 -0.1)">
       <use xlink:href="#DejaVuSans-50"/>
       <use x="63.623047" xlink:href="#DejaVuSans-48"/>
       <use x="127.246094" xlink:href="#DejaVuSans-48"/>
       <use x="190.869141" xlink:href="#DejaVuSans-48"/>
       <use x="254.492188" xlink:href="#DejaVuSans-48"/>
       <use x="318.115234" xlink:href="#DejaVuSans-48"/>
      </g>
     </g>
    </g>
    <g id="xtick_6">
     <g id="line2d_6">
      <g>
       <use style="stroke:#000000;stroke-width:0.8;" x="321.259126" xlink:href="#mc6b0a03a44" y="252"/>
      </g>
     </g>
     <g id="text_6">
      <!-- 250000 -->
      <g transform="translate(302.171626 266.598437)scale(0.1 -0.1)">
       <use xlink:href="#DejaVuSans-50"/>
       <use x="63.623047" xlink:href="#DejaVuSans-53"/>
       <use x="127.246094" xlink:href="#DejaVuSans-48"/>
       <use x="190.869141" xlink:href="#DejaVuSans-48"/>
       <use x="254.492188" xlink:href="#DejaVuSans-48"/>
       <use x="318.115234" xlink:href="#DejaVuSans-48"/>
      </g>
     </g>
    </g>
    <g id="xtick_7">
     <g id="line2d_7">
      <g>
       <use style="stroke:#000000;stroke-width:0.8;" x="371.667315" xlink:href="#mc6b0a03a44" y="252"/>
      </g>
     </g>
     <g id="text_7">
      <!-- 300000 -->
      <defs>
       <path d="M 40.578125 39.3125 
Q 47.65625 37.796875 51.625 33 
Q 55.609375 28.21875 55.609375 21.1875 
Q 55.609375 10.40625 48.1875 4.484375 
Q 40.765625 -1.421875 27.09375 -1.421875 
Q 22.515625 -1.421875 17.65625 -0.515625 
Q 12.796875 0.390625 7.625 2.203125 
L 7.625 11.71875 
Q 11.71875 9.328125 16.59375 8.109375 
Q 21.484375 6.890625 26.8125 6.890625 
Q 36.078125 6.890625 40.9375 10.546875 
Q 45.796875 14.203125 45.796875 21.1875 
Q 45.796875 27.640625 41.28125 31.265625 
Q 36.765625 34.90625 28.71875 34.90625 
L 20.21875 34.90625 
L 20.21875 43.015625 
L 29.109375 43.015625 
Q 36.375 43.015625 40.234375 45.921875 
Q 44.09375 48.828125 44.09375 54.296875 
Q 44.09375 59.90625 40.109375 62.90625 
Q 36.140625 65.921875 28.71875 65.921875 
Q 24.65625 65.921875 20.015625 65.03125 
Q 15.375 64.15625 9.8125 62.3125 
L 9.8125 71.09375 
Q 15.4375 72.65625 20.34375 73.4375 
Q 25.25 74.21875 29.59375 74.21875 
Q 40.828125 74.21875 47.359375 69.109375 
Q 53.90625 64.015625 53.90625 55.328125 
Q 53.90625 49.265625 50.4375 45.09375 
Q 46.96875 40.921875 40.578125 39.3125 
z
" id="DejaVuSans-51"/>
      </defs>
      <g transform="translate(352.579815 266.598437)scale(0.1 -0.1)">
       <use xlink:href="#DejaVuSans-51"/>
       <use x="63.623047" xlink:href="#DejaVuSans-48"/>
       <use x="127.246094" xlink:href="#DejaVuSans-48"/>
       <use x="190.869141" xlink:href="#DejaVuSans-48"/>
       <use x="254.492188" xlink:href="#DejaVuSans-48"/>
       <use x="318.115234" xlink:href="#DejaVuSans-48"/>
      </g>
     </g>
    </g>
    <g id="text_8">
     <!-- Stretched Frames -->
     <defs>
      <path d="M 53.515625 70.515625 
L 53.515625 60.890625 
Q 47.90625 63.578125 42.921875 64.890625 
Q 37.9375 66.21875 33.296875 66.21875 
Q 25.25 66.21875 20.875 63.09375 
Q 16.5 59.96875 16.5 54.203125 
Q 16.5 49.359375 19.40625 46.890625 
Q 22.3125 44.4375 30.421875 42.921875 
L 36.375 41.703125 
Q 47.40625 39.59375 52.65625 34.296875 
Q 57.90625 29 57.90625 20.125 
Q 57.90625 9.515625 50.796875 4.046875 
Q 43.703125 -1.421875 29.984375 -1.421875 
Q 24.8125 -1.421875 18.96875 -0.25 
Q 13.140625 0.921875 6.890625 3.21875 
L 6.890625 13.375 
Q 12.890625 10.015625 18.65625 8.296875 
Q 24.421875 6.59375 29.984375 6.59375 
Q 38.421875 6.59375 43.015625 9.90625 
Q 47.609375 13.234375 47.609375 19.390625 
Q 47.609375 24.75 44.3125 27.78125 
Q 41.015625 30.8125 33.5 32.328125 
L 27.484375 33.5 
Q 16.453125 35.6875 11.515625 40.375 
Q 6.59375 45.0625 6.59375 53.421875 
Q 6.59375 63.09375 13.40625 68.65625 
Q 20.21875 74.21875 32.171875 74.21875 
Q 37.3125 74.21875 42.625 73.28125 
Q 47.953125 72.359375 53.515625 70.515625 
z
" id="DejaVuSans-83"/>
      <path d="M 18.3125 70.21875 
L 18.3125 54.6875 
L 36.8125 54.6875 
L 36.8125 47.703125 
L 18.3125 47.703125 
L 18.3125 18.015625 
Q 18.3125 11.328125 20.140625 9.421875 
Q 21.96875 7.515625 27.59375 7.515625 
L 36.8125 7.515625 
L 36.8125 0 
L 27.59375 0 
Q 17.1875 0 13.234375 3.875 
Q 9.28125 7.765625 9.28125 18.015625 
L 9.28125 47.703125 
L 2.6875 47.703125 
L 2.6875 54.6875 
L 9.28125 54.6875 
L 9.28125 70.21875 
z
" id="DejaVuSans-116"/>
      <path d="M 41.109375 46.296875 
Q 39.59375 47.171875 37.8125 47.578125 
Q 36.03125 48 33.890625 48 
Q 26.265625 48 22.1875 43.046875 
Q 18.109375 38.09375 18.109375 28.8125 
L 18.109375 0 
L 9.078125 0 
L 9.078125 54.6875 
L 18.109375 54.6875 
L 18.109375 46.1875 
Q 20.953125 51.171875 25.484375 53.578125 
Q 30.03125 56 36.53125 56 
Q 37.453125 56 38.578125 55.875 
Q 39.703125 55.765625 41.0625 55.515625 
z
" id="DejaVuSans-114"/>
      <path d="M 56.203125 29.59375 
L 56.203125 25.203125 
L 14.890625 25.203125 
Q 15.484375 15.921875 20.484375 11.0625 
Q 25.484375 6.203125 34.421875 6.203125 
Q 39.59375 6.203125 44.453125 7.46875 
Q 49.3125 8.734375 54.109375 11.28125 
L 54.109375 2.78125 
Q 49.265625 0.734375 44.1875 -0.34375 
Q 39.109375 -1.421875 33.890625 -1.421875 
Q 20.796875 -1.421875 13.15625 6.1875 
Q 5.515625 13.8125 5.515625 26.8125 
Q 5.515625 40.234375 12.765625 48.109375 
Q 20.015625 56 32.328125 56 
Q 43.359375 56 49.78125 48.890625 
Q 56.203125 41.796875 56.203125 29.59375 
z
M 47.21875 32.234375 
Q 47.125 39.59375 43.09375 43.984375 
Q 39.0625 48.390625 32.421875 48.390625 
Q 24.90625 48.390625 20.390625 44.140625 
Q 15.875 39.890625 15.1875 32.171875 
z
" id="DejaVuSans-101"/>
      <path d="M 48.78125 52.59375 
L 48.78125 44.1875 
Q 44.96875 46.296875 41.140625 47.34375 
Q 37.3125 48.390625 33.40625 48.390625 
Q 24.65625 48.390625 19.8125 42.84375 
Q 14.984375 37.3125 14.984375 27.296875 
Q 14.984375 17.28125 19.8125 11.734375 
Q 24.65625 6.203125 33.40625 6.203125 
Q 37.3125 6.203125 41.140625 7.25 
Q 44.96875 8.296875 48.78125 10.40625 
L 48.78125 2.09375 
Q 45.015625 0.34375 40.984375 -0.53125 
Q 36.96875 -1.421875 32.421875 -1.421875 
Q 20.0625 -1.421875 12.78125 6.34375 
Q 5.515625 14.109375 5.515625 27.296875 
Q 5.515625 40.671875 12.859375 48.328125 
Q 20.21875 56 33.015625 56 
Q 37.15625 56 41.109375 55.140625 
Q 45.0625 54.296875 48.78125 52.59375 
z
" id="DejaVuSans-99"/>
      <path d="M 54.890625 33.015625 
L 54.890625 0 
L 45.90625 0 
L 45.90625 32.71875 
Q 45.90625 40.484375 42.875 44.328125 
Q 39.84375 48.1875 33.796875 48.1875 
Q 26.515625 48.1875 22.3125 43.546875 
Q 18.109375 38.921875 18.109375 30.90625 
L 18.109375 0 
L 9.078125 0 
L 9.078125 75.984375 
L 18.109375 75.984375 
L 18.109375 46.1875 
Q 21.34375 51.125 25.703125 53.5625 
Q 30.078125 56 35.796875 56 
Q 45.21875 56 50.046875 50.171875 
Q 54.890625 44.34375 54.890625 33.015625 
z
" id="DejaVuSans-104"/>
      <path d="M 45.40625 46.390625 
L 45.40625 75.984375 
L 54.390625 75.984375 
L 54.390625 0 
L 45.40625 0 
L 45.40625 8.203125 
Q 42.578125 3.328125 38.25 0.953125 
Q 33.9375 -1.421875 27.875 -1.421875 
Q 17.96875 -1.421875 11.734375 6.484375 
Q 5.515625 14.40625 5.515625 27.296875 
Q 5.515625 40.1875 11.734375 48.09375 
Q 17.96875 56 27.875 56 
Q 33.9375 56 38.25 53.625 
Q 42.578125 51.265625 45.40625 46.390625 
z
M 14.796875 27.296875 
Q 14.796875 17.390625 18.875 11.75 
Q 22.953125 6.109375 30.078125 6.109375 
Q 37.203125 6.109375 41.296875 11.75 
Q 45.40625 17.390625 45.40625 27.296875 
Q 45.40625 37.203125 41.296875 42.84375 
Q 37.203125 48.484375 30.078125 48.484375 
Q 22.953125 48.484375 18.875 42.84375 
Q 14.796875 37.203125 14.796875 27.296875 
z
" id="DejaVuSans-100"/>
      <path id="DejaVuSans-32"/>
      <path d="M 9.8125 72.90625 
L 51.703125 72.90625 
L 51.703125 64.59375 
L 19.671875 64.59375 
L 19.671875 43.109375 
L 48.578125 43.109375 
L 48.578125 34.8125 
L 19.671875 34.8125 
L 19.671875 0 
L 9.8125 0 
z
" id="DejaVuSans-70"/>
      <path d="M 34.28125 27.484375 
Q 23.390625 27.484375 19.1875 25 
Q 14.984375 22.515625 14.984375 16.5 
Q 14.984375 11.71875 18.140625 8.90625 
Q 21.296875 6.109375 26.703125 6.109375 
Q 34.1875 6.109375 38.703125 11.40625 
Q 43.21875 16.703125 43.21875 25.484375 
L 43.21875 27.484375 
z
M 52.203125 31.203125 
L 52.203125 0 
L 43.21875 0 
L 43.21875 8.296875 
Q 40.140625 3.328125 35.546875 0.953125 
Q 30.953125 -1.421875 24.3125 -1.421875 
Q 15.921875 -1.421875 10.953125 3.296875 
Q 6 8.015625 6 15.921875 
Q 6 25.140625 12.171875 29.828125 
Q 18.359375 34.515625 30.609375 34.515625 
L 43.21875 34.515625 
L 43.21875 35.40625 
Q 43.21875 41.609375 39.140625 45 
Q 35.0625 48.390625 27.6875 48.390625 
Q 23 48.390625 18.546875 47.265625 
Q 14.109375 46.140625 10.015625 43.890625 
L 10.015625 52.203125 
Q 14.9375 54.109375 19.578125 55.046875 
Q 24.21875 56 28.609375 56 
Q 40.484375 56 46.34375 49.84375 
Q 52.203125 43.703125 52.203125 31.203125 
z
" id="DejaVuSans-97"/>
      <path d="M 52 44.1875 
Q 55.375 50.25 60.0625 53.125 
Q 64.75 56 71.09375 56 
Q 79.640625 56 84.28125 50.015625 
Q 88.921875 44.046875 88.921875 33.015625 
L 88.921875 0 
L 79.890625 0 
L 79.890625 32.71875 
Q 79.890625 40.578125 77.09375 44.375 
Q 74.3125 48.1875 68.609375 48.1875 
Q 61.625 48.1875 57.5625 43.546875 
Q 53.515625 38.921875 53.515625 30.90625 
L 53.515625 0 
L 44.484375 0 
L 44.484375 32.71875 
Q 44.484375 40.625 41.703125 44.40625 
Q 38.921875 48.1875 33.109375 48.1875 
Q 26.21875 48.1875 22.15625 43.53125 
Q 18.109375 38.875 18.109375 30.90625 
L 18.109375 0 
L 9.078125 0 
L 9.078125 54.6875 
L 18.109375 54.6875 
L 18.109375 46.1875 
Q 21.1875 51.21875 25.484375 53.609375 
Q 29.78125 56 35.6875 56 
Q 41.65625 56 45.828125 52.96875 
Q 50 49.953125 52 44.1875 
z
" id="DejaVuSans-109"/>
      <path d="M 44.28125 53.078125 
L 44.28125 44.578125 
Q 40.484375 46.53125 36.375 47.5 
Q 32.28125 48.484375 27.875 48.484375 
Q 21.1875 48.484375 17.84375 46.4375 
Q 14.5 44.390625 14.5 40.28125 
Q 14.5 37.15625 16.890625 35.375 
Q 19.28125 33.59375 26.515625 31.984375 
L 29.59375 31.296875 
Q 39.15625 29.25 43.1875 25.515625 
Q 47.21875 21.78125 47.21875 15.09375 
Q 47.21875 7.46875 41.1875 3.015625 
Q 35.15625 -1.421875 24.609375 -1.421875 
Q 20.21875 -1.421875 15.453125 -0.5625 
Q 10.6875 0.296875 5.421875 2 
L 5.421875 11.28125 
Q 10.40625 8.6875 15.234375 7.390625 
Q 20.0625 6.109375 24.8125 6.109375 
Q 31.15625 6.109375 34.5625 8.28125 
Q 37.984375 10.453125 37.984375 14.40625 
Q 37.984375 18.0625 35.515625 20.015625 
Q 33.0625 21.96875 24.703125 23.78125 
L 21.578125 24.515625 
Q 13.234375 26.265625 9.515625 29.90625 
Q 5.8125 33.546875 5.8125 39.890625 
Q 5.8125 47.609375 11.28125 51.796875 
Q 16.75 56 26.8125 56 
Q 31.78125 56 36.171875 55.265625 
Q 40.578125 54.546875 44.28125 53.078125 
z
" id="DejaVuSans-115"/>
     </defs>
     <g transform="translate(150.16125 284.835625)scale(0.16 -0.16)">
      <use xlink:href="#DejaVuSans-83"/>
      <use x="63.476562" xlink:href="#DejaVuSans-116"/>
      <use x="102.685547" xlink:href="#DejaVuSans-114"/>
      <use x="143.767578" xlink:href="#DejaVuSans-101"/>
      <use x="205.291016" xlink:href="#DejaVuSans-116"/>
      <use x="244.5" xlink:href="#DejaVuSans-99"/>
      <use x="299.480469" xlink:href="#DejaVuSans-104"/>
      <use x="362.859375" xlink:href="#DejaVuSans-101"/>
      <use x="424.382812" xlink:href="#DejaVuSans-100"/>
      <use x="487.859375" xlink:href="#DejaVuSans-32"/>
      <use x="519.646484" xlink:href="#DejaVuSans-70"/>
      <use x="577.056641" xlink:href="#DejaVuSans-114"/>
      <use x="618.169922" xlink:href="#DejaVuSans-97"/>
      <use x="679.449219" xlink:href="#DejaVuSans-109"/>
      <use x="776.861328" xlink:href="#DejaVuSans-101"/>
      <use x="838.384766" xlink:href="#DejaVuSans-115"/>
     </g>
    </g>
   </g>
   <g id="matplotlib.axis_2">
    <g id="ytick_1">
     <g id="line2d_8">
      <defs>
       <path d="M 0 0 
L -3.5 0 
" id="m7d16b03116" style="stroke:#000000;stroke-width:0.8;"/>
      </defs>
      <g>
       <use style="stroke:#000000;stroke-width:0.8;" x="54" xlink:href="#m7d16b03116" y="249.611204"/>
      </g>
     </g>
     <g id="text_9">
      <!-- 20 -->
      <g transform="translate(34.275 253.410422)scale(0.1 -0.1)">
       <use xlink:href="#DejaVuSans-50"/>
       <use x="63.623047" xlink:href="#DejaVuSans-48"/>
      </g>
     </g>
    </g>
    <g id="ytick_2">
     <g id="line2d_9">
      <g>
       <use style="stroke:#000000;stroke-width:0.8;" x="54" xlink:href="#m7d16b03116" y="205.196947"/>
      </g>
     </g>
     <g id="text_10">
      <!-- 40 -->
      <defs>
       <path d="M 37.796875 64.3125 
L 12.890625 25.390625 
L 37.796875 25.390625 
z
M 35.203125 72.90625 
L 47.609375 72.90625 
L 47.609375 25.390625 
L 58.015625 25.390625 
L 58.015625 17.1875 
L 47.609375 17.1875 
L 47.609375 0 
L 37.796875 0 
L 37.796875 17.1875 
L 4.890625 17.1875 
L 4.890625 26.703125 
z
" id="DejaVuSans-52"/>
      </defs>
      <g transform="translate(34.275 208.996166)scale(0.1 -0.1)">
       <use xlink:href="#DejaVuSans-52"/>
       <use x="63.623047" xlink:href="#DejaVuSans-48"/>
      </g>
     </g>
    </g>
    <g id="ytick_3">
     <g id="line2d_10">
      <g>
       <use style="stroke:#000000;stroke-width:0.8;" x="54" xlink:href="#m7d16b03116" y="160.782691"/>
      </g>
     </g>
     <g id="text_11">
      <!-- 60 -->
      <defs>
       <path d="M 33.015625 40.375 
Q 26.375 40.375 22.484375 35.828125 
Q 18.609375 31.296875 18.609375 23.390625 
Q 18.609375 15.53125 22.484375 10.953125 
Q 26.375 6.390625 33.015625 6.390625 
Q 39.65625 6.390625 43.53125 10.953125 
Q 47.40625 15.53125 47.40625 23.390625 
Q 47.40625 31.296875 43.53125 35.828125 
Q 39.65625 40.375 33.015625 40.375 
z
M 52.59375 71.296875 
L 52.59375 62.3125 
Q 48.875 64.0625 45.09375 64.984375 
Q 41.3125 65.921875 37.59375 65.921875 
Q 27.828125 65.921875 22.671875 59.328125 
Q 17.53125 52.734375 16.796875 39.40625 
Q 19.671875 43.65625 24.015625 45.921875 
Q 28.375 48.1875 33.59375 48.1875 
Q 44.578125 48.1875 50.953125 41.515625 
Q 57.328125 34.859375 57.328125 23.390625 
Q 57.328125 12.15625 50.6875 5.359375 
Q 44.046875 -1.421875 33.015625 -1.421875 
Q 20.359375 -1.421875 13.671875 8.265625 
Q 6.984375 17.96875 6.984375 36.375 
Q 6.984375 53.65625 15.1875 63.9375 
Q 23.390625 74.21875 37.203125 74.21875 
Q 40.921875 74.21875 44.703125 73.484375 
Q 48.484375 72.75 52.59375 71.296875 
z
" id="DejaVuSans-54"/>
      </defs>
      <g transform="translate(34.275 164.58191)scale(0.1 -0.1)">
       <use xlink:href="#DejaVuSans-54"/>
       <use x="63.623047" xlink:href="#DejaVuSans-48"/>
      </g>
     </g>
    </g>
    <g id="ytick_4">
     <g id="line2d_11">
      <g>
       <use style="stroke:#000000;stroke-width:0.8;" x="54" xlink:href="#m7d16b03116" y="116.368434"/>
      </g>
     </g>
     <g id="text_12">
      <!-- 80 -->
      <defs>
       <path d="M 31.78125 34.625 
Q 24.75 34.625 20.71875 30.859375 
Q 16.703125 27.09375 16.703125 20.515625 
Q 16.703125 13.921875 20.71875 10.15625 
Q 24.75 6.390625 31.78125 6.390625 
Q 38.8125 6.390625 42.859375 10.171875 
Q 46.921875 13.96875 46.921875 20.515625 
Q 46.921875 27.09375 42.890625 30.859375 
Q 38.875 34.625 31.78125 34.625 
z
M 21.921875 38.8125 
Q 15.578125 40.375 12.03125 44.71875 
Q 8.5 49.078125 8.5 55.328125 
Q 8.5 64.0625 14.71875 69.140625 
Q 20.953125 74.21875 31.78125 74.21875 
Q 42.671875 74.21875 48.875 69.140625 
Q 55.078125 64.0625 55.078125 55.328125 
Q 55.078125 49.078125 51.53125 44.71875 
Q 48 40.375 41.703125 38.8125 
Q 48.828125 37.15625 52.796875 32.3125 
Q 56.78125 27.484375 56.78125 20.515625 
Q 56.78125 9.90625 50.3125 4.234375 
Q 43.84375 -1.421875 31.78125 -1.421875 
Q 19.734375 -1.421875 13.25 4.234375 
Q 6.78125 9.90625 6.78125 20.515625 
Q 6.78125 27.484375 10.78125 32.3125 
Q 14.796875 37.15625 21.921875 38.8125 
z
M 18.3125 54.390625 
Q 18.3125 48.734375 21.84375 45.5625 
Q 25.390625 42.390625 31.78125 42.390625 
Q 38.140625 42.390625 41.71875 45.5625 
Q 45.3125 48.734375 45.3125 54.390625 
Q 45.3125 60.0625 41.71875 63.234375 
Q 38.140625 66.40625 31.78125 66.40625 
Q 25.390625 66.40625 21.84375 63.234375 
Q 18.3125 60.0625 18.3125 54.390625 
z
" id="DejaVuSans-56"/>
      </defs>
      <g transform="translate(34.275 120.167653)scale(0.1 -0.1)">
       <use xlink:href="#DejaVuSans-56"/>
       <use x="63.623047" xlink:href="#DejaVuSans-48"/>
      </g>
     </g>
    </g>
    <g id="ytick_5">
     <g id="line2d_12">
      <g>
       <use style="stroke:#000000;stroke-width:0.8;" x="54" xlink:href="#m7d16b03116" y="71.954178"/>
      </g>
     </g>
     <g id="text_13">
      <!-- 100 -->
      <g transform="translate(27.9125 75.753397)scale(0.1 -0.1)">
       <use xlink:href="#DejaVuSans-49"/>
       <use x="63.623047" xlink:href="#DejaVuSans-48"/>
       <use x="127.246094" xlink:href="#DejaVuSans-48"/>
      </g>
     </g>
    </g>
    <g id="text_14">
     <!-- Average Brightness -->
     <defs>
      <path d="M 34.1875 63.1875 
L 20.796875 26.90625 
L 47.609375 26.90625 
z
M 28.609375 72.90625 
L 39.796875 72.90625 
L 67.578125 0 
L 57.328125 0 
L 50.6875 18.703125 
L 17.828125 18.703125 
L 11.1875 0 
L 0.78125 0 
z
" id="DejaVuSans-65"/>
      <path d="M 2.984375 54.6875 
L 12.5 54.6875 
L 29.59375 8.796875 
L 46.6875 54.6875 
L 56.203125 54.6875 
L 35.6875 0 
L 23.484375 0 
z
" id="DejaVuSans-118"/>
      <path d="M 45.40625 27.984375 
Q 45.40625 37.75 41.375 43.109375 
Q 37.359375 48.484375 30.078125 48.484375 
Q 22.859375 48.484375 18.828125 43.109375 
Q 14.796875 37.75 14.796875 27.984375 
Q 14.796875 18.265625 18.828125 12.890625 
Q 22.859375 7.515625 30.078125 7.515625 
Q 37.359375 7.515625 41.375 12.890625 
Q 45.40625 18.265625 45.40625 27.984375 
z
M 54.390625 6.78125 
Q 54.390625 -7.171875 48.1875 -13.984375 
Q 42 -20.796875 29.203125 -20.796875 
Q 24.46875 -20.796875 20.265625 -20.09375 
Q 16.0625 -19.390625 12.109375 -17.921875 
L 12.109375 -9.1875 
Q 16.0625 -11.328125 19.921875 -12.34375 
Q 23.78125 -13.375 27.78125 -13.375 
Q 36.625 -13.375 41.015625 -8.765625 
Q 45.40625 -4.15625 45.40625 5.171875 
L 45.40625 9.625 
Q 42.625 4.78125 38.28125 2.390625 
Q 33.9375 0 27.875 0 
Q 17.828125 0 11.671875 7.65625 
Q 5.515625 15.328125 5.515625 27.984375 
Q 5.515625 40.671875 11.671875 48.328125 
Q 17.828125 56 27.875 56 
Q 33.9375 56 38.28125 53.609375 
Q 42.625 51.21875 45.40625 46.390625 
L 45.40625 54.6875 
L 54.390625 54.6875 
z
" id="DejaVuSans-103"/>
      <path d="M 19.671875 34.8125 
L 19.671875 8.109375 
L 35.5 8.109375 
Q 43.453125 8.109375 47.28125 11.40625 
Q 51.125 14.703125 51.125 21.484375 
Q 51.125 28.328125 47.28125 31.5625 
Q 43.453125 34.8125 35.5 34.8125 
z
M 19.671875 64.796875 
L 19.671875 42.828125 
L 34.28125 42.828125 
Q 41.5 42.828125 45.03125 45.53125 
Q 48.578125 48.25 48.578125 53.8125 
Q 48.578125 59.328125 45.03125 62.0625 
Q 41.5 64.796875 34.28125 64.796875 
z
M 9.8125 72.90625 
L 35.015625 72.90625 
Q 46.296875 72.90625 52.390625 68.21875 
Q 58.5 63.53125 58.5 54.890625 
Q 58.5 48.1875 55.375 44.234375 
Q 52.25 40.28125 46.1875 39.3125 
Q 53.46875 37.75 57.5 32.78125 
Q 61.53125 27.828125 61.53125 20.40625 
Q 61.53125 10.640625 54.890625 5.3125 
Q 48.25 0 35.984375 0 
L 9.8125 0 
z
" id="DejaVuSans-66"/>
      <path d="M 9.421875 54.6875 
L 18.40625 54.6875 
L 18.40625 0 
L 9.421875 0 
z
M 9.421875 75.984375 
L 18.40625 75.984375 
L 18.40625 64.59375 
L 9.421875 64.59375 
z
" id="DejaVuSans-105"/>
      <path d="M 54.890625 33.015625 
L 54.890625 0 
L 45.90625 0 
L 45.90625 32.71875 
Q 45.90625 40.484375 42.875 44.328125 
Q 39.84375 48.1875 33.796875 48.1875 
Q 26.515625 48.1875 22.3125 43.546875 
Q 18.109375 38.921875 18.109375 30.90625 
L 18.109375 0 
L 9.078125 0 
L 9.078125 54.6875 
L 18.109375 54.6875 
L 18.109375 46.1875 
Q 21.34375 51.125 25.703125 53.5625 
Q 30.078125 56 35.796875 56 
Q 45.21875 56 50.046875 50.171875 
Q 54.890625 44.34375 54.890625 33.015625 
z
" id="DejaVuSans-110"/>
     </defs>
     <g transform="translate(20.585 221.75125)rotate(-90)scale(0.16 -0.16)">
      <use xlink:href="#DejaVuSans-65"/>
      <use x="68.330078" xlink:href="#DejaVuSans-118"/>
      <use x="127.509766" xlink:href="#DejaVuSans-101"/>
      <use x="189.033203" xlink:href="#DejaVuSans-114"/>
      <use x="230.146484" xlink:href="#DejaVuSans-97"/>
      <use x="291.425781" xlink:href="#DejaVuSans-103"/>
      <use x="354.902344" xlink:href="#DejaVuSans-101"/>
      <use x="416.425781" xlink:href="#DejaVuSans-32"/>
      <use x="448.212891" xlink:href="#DejaVuSans-66"/>
      <use x="516.816406" xlink:href="#DejaVuSans-114"/>
      <use x="557.929688" xlink:href="#DejaVuSans-105"/>
      <use x="585.712891" xlink:href="#DejaVuSans-103"/>
      <use x="649.189453" xlink:href="#DejaVuSans-104"/>
      <use x="712.568359" xlink:href="#DejaVuSans-116"/>
      <use x="751.777344" xlink:href="#DejaVuSans-110"/>
      <use x="815.15625" xlink:href="#DejaVuSans-101"/>
      <use x="876.679688" xlink:href="#DejaVuSans-115"/>
      <use x="928.779297" xlink:href="#DejaVuSans-115"/>
     </g>
    </g>
   </g>
   <g id="line2d_13">
    <path clip-path="url(#p7527379b84)" d="M 69.218182 220.439242 
L 69.31799 220.439242 
L 69.418806 220.261413 
L 69.429896 220.282111 
L 69.519623 220.282111 
L 69.631529 220.0012 
L 69.822072 219.905801 
L 69.934986 220.449636 
L 70.023705 220.449636 
L 70.136619 220.779308 
L 70.42697 220.824681 
L 70.539885 221.363545 
L 70.628603 221.363545 
L 70.740509 221.653313 
L 70.931052 221.731991 
L 71.031868 219.559543 
L 71.032877 221.749797 
L 71.04195 221.749797 
L 71.132685 221.749797 
L 71.233501 219.560809 
L 71.244591 219.753731 
L 71.737583 219.840635 
L 71.849489 219.966538 
L 72.040032 220.029309 
L 72.140849 220.28437 
L 72.151938 220.234163 
L 72.443298 220.253685 
L 72.556212 219.746365 
L 72.64493 219.746365 
L 72.745747 221.735019 
L 72.756837 221.495143 
L 72.846563 221.495143 
L 72.960486 221.137542 
L 73.149012 221.038843 
L 73.260919 220.741528 
L 73.350645 220.741528 
L 73.462551 221.186936 
L 73.653094 221.211882 
L 73.765 221.770178 
L 73.854727 221.770178 
L 73.955543 219.896627 
L 73.966633 220.224627 
L 74.05636 220.224627 
L 74.169274 220.525196 
L 74.358809 220.613455 
L 74.472731 221.029896 
L 74.762074 221.117567 
L 74.874989 220.710256 
L 74.963707 220.710256 
L 75.075613 220.342803 
L 75.266156 220.275558 
L 75.380079 219.920398 
L 75.467789 219.920398 
L 75.568605 219.782744 
L 75.579695 219.791511 
L 75.770238 219.845741 
L 75.871055 219.605955 
L 75.881136 219.803668 
L 76.375136 219.891837 
L 76.487043 220.17103 
L 76.677586 220.220786 
L 76.778402 220.516926 
L 76.789492 220.472864 
L 76.980035 220.546798 
L 77.091941 220.673108 
L 77.181667 220.673108 
L 77.282484 220.79029 
L 77.283492 220.614178 
L 77.291557 220.614178 
L 77.685749 220.628143 
L 77.797656 220.429164 
L 77.988199 220.52262 
L 78.102121 220.840859 
L 78.189831 220.840859 
L 78.301737 221.037849 
L 78.391464 221.037849 
L 78.50337 221.267196 
L 78.593097 221.267196 
L 78.706011 221.981132 
L 78.79473 221.981132 
L 78.906636 222.155391 
L 78.996362 222.155391 
L 79.108268 221.924869 
L 79.399628 222.007389 
L 79.511534 222.19403 
L 79.802893 222.276053 
L 79.915808 222.635145 
L 80.004526 222.635145 
L 80.118449 223.036536 
L 80.206159 223.036536 
L 80.306975 223.27099 
L 80.317057 223.194029 
L 80.407792 223.194029 
L 80.508608 223.317763 
L 80.51869 223.218522 
L 80.811057 223.159638 
L 80.911873 223.099443 
L 80.912882 223.303482 
L 80.918931 223.303482 
L 81.214323 223.261048 
L 81.326229 223.55999 
L 81.415955 223.55999 
L 81.516772 223.748484 
L 81.526853 223.644182 
L 81.819221 223.652587 
L 81.931127 223.36535 
L 82.12167 223.284954 
L 82.222486 223.239988 
L 82.232568 223.280254 
L 82.524936 223.360424 
L 82.63785 223.574767 
L 82.726568 223.574767 
L 82.827385 223.762177 
L 82.837466 223.706365 
L 83.029017 223.709303 
L 83.129834 223.860062 
L 83.139915 223.720646 
L 83.633916 223.651503 
L 83.745822 223.486011 
L 83.835548 223.486011 
L 83.936365 223.601385 
L 83.937373 223.416009 
L 83.945438 223.416009 
L 84.137998 223.485017 
L 84.25192 223.949044 
L 84.33963 223.949044 
L 84.451537 224.134645 
L 84.541263 224.134645 
L 84.653169 224.497353 
L 84.843712 224.521711 
L 84.955618 224.628499 
L 85.045345 224.628499 
L 85.158259 224.304475 
L 85.347794 224.323908 
L 85.460708 224.025056 
L 86.86004 223.937204 
L 86.972954 223.677262 
L 87.162489 223.728102 
L 87.274395 223.88329 
L 87.364122 223.88329 
L 87.476028 223.586472 
L 87.565754 223.586472 
L 87.666571 223.374162 
L 87.677661 223.3973 
L 87.96902 223.320023 
L 88.080926 222.966353 
L 88.170653 222.966353 
L 88.283567 222.441137 
L 88.372285 222.441137 
L 88.4852 221.878728 
L 88.573918 221.878728 
L 88.685824 221.641111 
L 88.876367 221.552807 
L 88.977184 221.411855 
L 88.988274 221.433546 
L 89.078 221.433546 
L 89.190914 221.716129 
L 89.279633 221.716129 
L 89.391539 222.230906 
L 89.682898 222.236917 
L 89.794805 222.476522 
L 90.18698 222.471868 
L 90.287797 222.317086 
L 90.298886 222.34854 
L 90.590246 222.381936 
L 90.70316 222.61874 
L 90.791879 222.61874 
L 90.903785 222.294943 
L 90.993511 222.294943 
L 91.105417 222.522482 
L 91.497593 222.442177 
L 91.609499 221.979144 
L 91.900859 221.94629 
L 92.012765 221.655166 
L 92.102491 221.655166 
L 92.214398 221.479551 
L 92.304124 221.479551 
L 92.417039 221.761863 
L 92.606573 221.804343 
L 92.719488 222.03952 
L 92.808206 222.03952 
L 92.92112 222.338101 
L 93.110655 222.355409 
L 93.211472 222.501061 
L 93.21248 222.302038 
L 93.220545 222.302038 
L 93.312288 222.302038 
L 93.424194 222.121497 
L 93.917186 222.181195 
L 94.029092 222.390839 
L 94.219635 222.318216 
L 94.320452 222.27551 
L 94.330533 222.30963 
L 94.522084 222.225393 
L 94.622901 222.106177 
L 94.632982 222.192629 
L 94.824534 222.159775 
L 94.937448 221.937071 
L 95.026166 221.937071 
L 95.138073 222.319934 
L 95.328616 222.421615 
L 95.44153 222.603917 
L 95.933514 222.534548 
L 96.04542 222.200447 
L 96.135147 222.200447 
L 96.247053 221.845919 
L 96.336779 221.845919 
L 96.448685 221.527409 
L 96.639228 221.440732 
L 96.751135 221.318895 
L 97.344943 221.216898 
L 97.458866 220.939648 
L 97.849025 220.919764 
L 97.949841 220.788211 
L 97.959923 220.87412 
L 98.050658 220.87412 
L 98.163572 221.172023 
L 98.353107 221.159234 
L 98.465013 221.390208 
L 98.857189 221.374346 
L 98.970103 221.089955 
L 99.058821 221.089955 
L 99.159638 220.773795 
L 99.170728 220.780483 
L 99.462087 220.672701 
L 99.576009 220.134786 
L 99.764536 220.054888 
L 99.876442 219.994422 
L 99.966169 219.994422 
L 100.066985 220.155077 
L 100.067993 219.978379 
L 100.077067 219.978379 
L 100.167802 219.978379 
L 100.268618 219.825315 
L 100.279708 219.835844 
L 100.470251 219.831235 
L 100.571067 220.087968 
L 100.582157 220.046301 
L 101.780864 219.980231 
L 101.893778 219.810673 
L 102.083313 219.909145 
L 102.195219 220.018373 
L 102.284946 220.018373 
L 102.385762 219.895045 
L 102.395844 219.952258 
L 102.688211 219.991303 
L 102.800117 219.770045 
L 102.889844 219.770045 
L 102.99066 221.760553 
L 103.00175 221.612234 
L 103.091477 221.612234 
L 103.203383 221.286267 
L 103.293109 221.286267 
L 103.405016 221.109161 
L 104.200457 221.210391 
L 104.301273 221.360517 
L 104.311355 221.316274 
L 104.502906 221.268733 
L 104.61582 221.121454 
L 104.704539 221.121454 
L 104.816445 221.304931 
L 105.006988 221.24329 
L 105.121918 220.945794 
L 105.208621 220.945794 
L 105.320527 220.607852 
L 105.51107 220.518327 
L 105.623984 219.958449 
L 105.712702 219.958449 
L 105.813519 219.80525 
L 105.824609 219.817994 
L 105.914335 219.817994 
L 106.015152 219.706732 
L 106.025233 219.749303 
L 106.115968 219.749303 
L 106.227874 219.940644 
L 106.519233 220.007979 
L 106.62005 220.125839 
L 106.63114 220.106677 
L 106.821683 220.058051 
L 106.934597 219.86906 
L 107.124132 219.758883 
L 107.224948 219.634245 
L 107.23503 219.662038 
L 107.527397 219.588737 
L 107.640312 219.35582 
L 108.132295 219.461703 
L 108.246218 219.511369 
L 108.434745 219.418817 
L 108.547659 219.317181 
L 109.039643 219.282745 
L 109.151549 219.146131 
L 109.241276 219.146131 
L 109.35419 219.596284 
L 109.846174 219.557058 
L 109.959088 219.916873 
L 110.350256 219.834308 
L 110.46317 220.230321 
L 110.551889 220.230321 
L 110.663795 220.420442 
L 110.854338 220.334714 
L 110.967252 220.183864 
L 111.156787 220.290426 
L 111.257603 220.459036 
L 111.268693 220.435853 
L 111.35842 220.435853 
L 111.470326 220.127014 
L 111.660869 220.130041 
L 111.772775 220.425278 
L 111.862501 220.425278 
L 111.963318 220.558051 
L 111.973399 220.425052 
L 112.366583 220.433322 
L 112.4674 220.544086 
L 112.477481 220.507662 
L 112.669032 220.432011 
L 112.781947 220.136007 
L 113.57638 220.187163 
L 113.689294 220.358846 
L 114.080462 220.415471 
L 114.181278 220.476706 
L 114.182286 220.400694 
L 114.190352 220.400694 
L 114.382911 220.311124 
L 114.494817 220.092397 
L 114.68536 219.984253 
L 114.798274 219.689107 
L 114.886993 219.689107 
L 114.999907 219.391385 
L 115.189442 219.3311 
L 115.301348 219.081145 
L 115.391075 219.081145 
L 115.503989 218.831733 
L 115.592707 218.831733 
L 115.704614 218.595833 
L 115.995973 218.497361 
L 116.107879 218.317002 
L 116.298422 218.371141 
L 116.399238 218.467083 
L 116.40932 218.441821 
L 117.004137 218.344297 
L 117.117051 218.097099 
L 117.205769 218.097099 
L 117.317676 217.739996 
L 117.508219 217.69607 
L 117.620125 217.576538 
L 118.31475 217.525788 
L 118.426656 217.234935 
L 118.516382 217.234935 
L 118.628289 216.917645 
L 118.718015 216.917645 
L 118.818832 216.746731 
L 118.829921 216.75961 
L 119.020464 216.713244 
L 119.121281 216.63809 
L 119.131362 216.664979 
L 119.322913 216.603699 
L 119.43482 216.459764 
L 119.625363 216.418098 
L 119.739285 216.151513 
L 119.826995 216.151513 
L 119.938901 215.776333 
L 120.028628 215.776333 
L 120.129444 215.614185 
L 120.139526 215.687034 
L 120.230261 215.687034 
L 120.343175 215.986925 
L 120.431894 215.986925 
L 120.544808 216.192863 
L 120.835159 216.225943 
L 120.948073 216.538804 
L 121.036792 216.538804 
L 121.149706 216.222238 
L 121.238425 216.222238 
L 121.351339 215.927769 
L 121.440057 215.927769 
L 121.551964 215.680075 
L 121.742506 215.594572 
L 121.856429 215.181386 
L 122.347405 215.129913 
L 122.448221 215.057109 
L 122.458303 215.094979 
L 122.649854 215.124218 
L 122.76176 214.919998 
L 122.851487 214.919998 
L 122.963393 214.661818 
L 123.053119 214.661818 
L 123.166034 214.331785 
L 123.355569 214.332779 
L 123.456385 214.476443 
L 123.457393 214.33183 
L 123.466467 214.33183 
L 123.557201 214.33183 
L 123.658018 214.130953 
L 123.669107 214.15138 
L 123.85965 214.260563 
L 123.971557 214.465326 
L 124.061283 214.465326 
L 124.173189 214.231956 
L 124.262916 214.231956 
L 124.363732 214.005682 
L 124.373814 214.069854 
L 124.464549 214.069854 
L 124.576455 214.277148 
L 124.666181 214.277148 
L 124.778088 213.999943 
L 124.968631 213.930981 
L 125.069447 214.135066 
L 125.080537 214.12318 
L 125.371896 214.024075 
L 125.485819 213.760021 
L 125.775162 213.854517 
L 125.875978 213.940607 
L 125.876986 213.791429 
L 125.885051 213.791429 
L 126.077611 213.694041 
L 126.189517 213.522946 
L 126.38006 213.412182 
L 126.494991 213.292966 
L 126.581693 213.292966 
L 126.694607 212.775433 
L 127.186591 212.782392 
L 127.287407 212.918057 
L 127.288415 212.74059 
L 127.296481 212.74059 
L 127.388224 212.74059 
L 127.50013 212.411189 
L 127.690673 212.380549 
L 127.803587 212.189163 
L 127.892306 212.189163 
L 127.993122 214.266844 
L 128.004212 214.151877 
L 128.093938 214.151877 
L 128.194755 214.017703 
L 128.204836 214.100901 
L 128.698837 214.204164 
L 128.799653 212.179718 
L 128.810743 212.286596 
L 129.001286 212.297668 
L 129.102102 212.146095 
L 129.202918 214.2245 
L 129.214008 214.022448 
L 129.606184 214.100449 
L 129.707 213.903278 
L 129.71809 213.90495 
L 129.908633 213.999356 
L 130.021547 214.167694 
L 130.110266 214.167694 
L 130.222172 214.310093 
L 130.311899 214.310093 
L 130.424813 213.937759 
L 130.513531 213.937759 
L 130.625438 213.441963 
L 130.715164 213.441963 
L 130.81598 213.273037 
L 130.826062 213.357319 
L 131.017613 213.348914 
L 131.129519 213.218762 
L 131.219246 213.218762 
L 131.320062 213.077538 
L 131.321071 213.228523 
L 131.330144 213.228523 
L 131.420879 213.228523 
L 131.532785 213.643743 
L 131.723328 213.592541 
L 131.836242 213.366764 
L 131.924961 213.366764 
L 132.036867 213.712254 
L 132.328226 213.6465 
L 132.440132 213.139948 
L 132.529859 213.139948 
L 132.642773 212.749448 
L 132.731492 212.749448 
L 132.845414 212.334454 
L 132.933124 212.334454 
L 133.045031 212.080613 
L 133.33639 212.053995 
L 133.449304 211.766757 
L 133.638839 211.672488 
L 133.751753 211.488558 
L 133.840472 211.488558 
L 133.954394 211.111209 
L 134.042105 211.111209 
L 134.154011 210.881771 
L 134.546186 210.807024 
L 134.658093 210.690023 
L 134.949452 210.743485 
L 135.062366 210.210767 
L 135.151085 210.210767 
L 135.262991 209.776612 
L 135.55435 209.776838 
L 135.667265 209.329577 
L 135.755983 209.329577 
L 135.867889 209.039492 
L 136.058432 209.00361 
L 136.172355 208.703177 
L 136.260065 208.703177 
L 136.372979 207.966012 
L 136.66333 207.874319 
L 136.775237 207.612208 
L 136.96578 207.508086 
L 137.077686 207.856649 
L 137.268229 207.91707 
L 137.369045 207.98793 
L 137.370053 207.77092 
L 137.37711 207.77092 
L 137.469861 207.77092 
L 137.581768 207.296499 
L 137.671494 207.296499 
L 137.784409 206.736124 
L 137.873127 206.736124 
L 137.985033 205.807799 
L 138.07476 205.807799 
L 138.187674 205.273545 
L 138.276392 205.273545 
L 138.388299 205.049169 
L 138.478025 205.049169 
L 138.578842 204.710639 
L 138.57985 206.656497 
L 138.583882 206.656497 
L 138.679658 206.656497 
L 138.792572 206.352222 
L 138.881291 206.352222 
L 138.993197 205.799846 
L 139.082923 205.799846 
L 139.195838 205.314308 
L 139.284556 205.314308 
L 139.396462 204.824296 
L 139.486189 204.824296 
L 139.587005 204.625182 
L 139.649512 105.970487 
L 139.698912 107.324697 
L 139.69992 107.324697 
L 139.792671 113.017386 
L 139.816867 109.586805 
L 139.832997 112.942459 
L 139.860218 107.605337 
L 139.893487 108.077317 
L 140.036646 88.789473 
L 139.92474 108.332288 
L 140.037655 88.805832 
L 140.038663 88.805832 
L 140.044712 90.021937 
L 140.132422 84.603741 
L 140.137463 84.617479 
L 140.157626 87.547247 
L 140.217108 82.116579 
L 140.218116 82.116579 
L 140.310867 73.8148 
L 140.247353 82.126069 
L 140.334055 77.403371 
L 140.335063 77.403371 
L 140.447977 70.24277 
L 140.456043 71.779283 
L 140.464108 74.781267 
L 140.531655 66.375367 
L 140.559883 66.592377 
L 140.564924 66.538418 
L 140.704051 59.90231 
L 140.582063 68.092465 
L 140.715141 60.43069 
L 140.722198 60.398604 
L 140.788737 55.889301 
L 140.837128 58.791321 
L 140.937945 48.758706 
L 140.880479 59.827292 
L 140.94601 56.661534 
L 140.998435 66.849155 
L 141.01759 44.821347 
L 141.053884 48.64627 
L 141.054892 48.64627 
L 141.060941 44.443636 
L 141.082112 60.806593 
L 141.161757 57.055062 
L 141.167806 59.372756 
L 141.190994 47.720656 
L 141.267614 51.038439 
L 141.268623 51.038439 
L 141.272655 50.398256 
L 141.366414 55.483119 
L 141.367423 55.483119 
L 141.496468 61.604947 
L 141.39061 51.982129 
L 141.497476 61.517276 
L 141.502517 61.406647 
L 141.510582 61.039782 
L 141.517639 63.146612 
L 141.518647 63.146612 
L 141.784802 207.759577 
L 141.87957 207.759577 
L 141.992484 211.894695 
L 142.081203 211.894695 
L 142.182019 214.070261 
L 142.193109 214.007897 
L 142.282835 214.007897 
L 142.39575 218.41344 
L 142.484468 218.41344 
L 142.585284 220.334533 
L 142.595366 219.812706 
L 142.686101 219.812706 
L 142.798007 221.80362 
L 142.887734 221.80362 
L 142.98855 222.047157 
L 142.989558 221.235065 
L 142.995607 221.235065 
L 143.089366 221.235065 
L 143.201272 219.840906 
L 143.290999 219.840906 
L 143.403913 212.646727 
L 143.492632 212.646727 
L 143.606554 204.946674 
L 143.694265 204.946674 
L 143.714428 56.607846 
L 143.805163 204.399314 
L 143.829359 204.399314 
L 143.942273 212.972875 
L 144.030991 212.972875 
L 144.143906 214.464874 
L 144.232624 214.464874 
L 144.345538 211.572027 
L 144.434257 211.572027 
L 144.551204 59.838048 
L 144.563302 105.296048 
L 144.675208 208.605156 
L 144.764935 208.605156 
L 144.876841 212.153552 
L 144.966567 212.153552 
L 145.08049 206.900576 
L 145.1682 206.900576 
L 145.182314 61.544752 
L 145.197437 207.144294 
L 145.279098 207.144294 
L 145.297245 207.144294 
L 145.409151 214.135698 
L 145.498878 214.135698 
L 145.599694 212.327584 
L 145.610784 212.555802 
L 145.70051 212.555802 
L 145.813425 205.027387 
L 145.902143 205.027387 
L 145.918274 56.721277 
L 145.933396 206.711676 
L 146.013041 206.711676 
L 146.033205 206.711676 
L 146.145111 213.15581 
L 146.234837 213.15581 
L 146.346743 219.163891 
L 146.43647 219.163891 
L 146.537286 220.314332 
L 146.547368 219.986694 
L 146.638103 219.986694 
L 146.751017 215.771407 
L 146.839736 215.771407 
L 146.951642 210.806482 
L 147.041368 210.806482 
L 147.174446 52.396174 
L 147.184528 59.877997 
L 147.186544 58.649872 
L 147.205699 110.61184 
L 147.206707 110.61184 
L 147.318613 207.825286 
L 147.40834 207.825286 
L 147.520246 212.774167 
L 147.609973 212.774167 
L 147.722887 218.959897 
L 147.811605 218.959897 
L 147.912422 221.116076 
L 147.922503 220.565778 
L 148.013238 220.565778 
L 148.125144 222.129858 
L 148.214871 222.129858 
L 148.33081 221.293679 
L 148.416504 221.293679 
L 148.51732 220.266068 
L 148.527402 220.795306 
L 148.618136 220.795306 
L 148.731051 216.18622 
L 148.819769 216.18622 
L 148.931675 212.292425 
L 149.021402 212.292425 
L 149.134316 205.901843 
L 149.223035 205.901843 
L 149.36821 52.543589 
L 149.410553 109.218675 
L 149.522459 206.27386 
L 149.612186 206.27386 
L 149.7251 212.836261 
L 149.813819 212.836261 
L 149.927741 216.239456 
L 150.015451 216.239456 
L 150.127358 220.544357 
L 150.217084 220.544357 
L 150.317901 219.912354 
L 150.318909 221.112686 
L 150.326974 221.112686 
L 150.418717 221.112686 
L 150.530623 222.391833 
L 150.721166 222.404171 
L 150.83408 221.381757 
L 150.922799 221.381757 
L 151.023615 220.062616 
L 151.033697 220.899653 
L 151.124432 220.899653 
L 151.237346 217.130588 
L 151.326064 217.130588 
L 151.438979 212.307429 
L 151.527697 212.307429 
L 151.645652 208.869301 
L 151.72933 208.869301 
L 151.841236 205.163549 
L 151.930963 205.163549 
L 151.981371 52.170669 
L 152.024722 205.311144 
L 152.041861 205.311144 
L 152.12453 205.311144 
L 152.239461 209.739916 
L 152.326163 209.739916 
L 152.438069 213.551236 
L 152.527796 213.551236 
L 152.64071 218.491622 
L 152.729428 218.491622 
L 152.830245 220.483259 
L 152.841335 220.233349 
L 152.931061 220.233349 
L 153.042967 222.568442 
L 153.132694 222.568442 
L 153.2446 223.255625 
L 153.334327 223.255625 
L 153.448249 222.468343 
L 153.535959 222.468343 
L 153.648874 220.415516 
L 153.737592 220.415516 
L 153.838409 221.265208 
L 153.839417 219.478831 
L 153.847482 219.478831 
L 153.939225 219.478831 
L 154.052139 214.855464 
L 154.140858 214.855464 
L 154.252764 211.886244 
L 154.34249 211.886244 
L 154.455405 206.149312 
L 154.544123 206.149312 
L 154.695348 50.734571 
L 154.745756 111.977167 
L 154.857662 206.659841 
L 154.947389 206.659841 
L 155.060303 212.653009 
L 155.149021 212.653009 
L 155.26496 215.317955 
L 155.350654 215.317955 
L 155.463569 219.416241 
L 155.552287 219.416241 
L 155.653103 221.18558 
L 155.663185 220.32206 
L 155.75392 220.32206 
L 155.865826 221.986736 
L 155.955552 221.986736 
L 156.067459 222.701621 
L 156.258002 222.72616 
L 156.371924 221.570296 
L 156.459634 221.570296 
L 156.572549 220.133837 
L 156.661267 220.133837 
L 156.762083 221.21848 
L 156.763092 219.858485 
L 156.771157 219.858485 
L 156.8629 219.858485 
L 156.975814 216.267655 
L 157.064533 216.267655 
L 157.177447 212.133396 
L 157.366982 212.089967 
L 157.479896 206.86953 
L 157.568614 206.86953 
L 157.669431 206.586631 
L 157.725888 52.163619 
L 157.781337 104.096665 
L 157.782345 104.096665 
L 157.915423 206.779147 
L 157.988011 206.779147 
L 158.100925 212.007673 
L 158.189643 212.007673 
L 158.29046 214.093851 
L 158.30155 213.928631 
L 158.391276 213.928631 
L 158.50419 217.819217 
L 158.592909 217.819217 
L 158.705823 221.271083 
L 158.794542 221.271083 
L 158.895358 220.232355 
L 158.90544 221.119736 
L 158.996174 221.119736 
L 159.108081 222.857849 
L 159.197807 222.857849 
L 159.309713 223.58611 
L 159.500256 223.478193 
L 159.613171 222.269952 
L 159.701889 222.269952 
L 159.814803 220.251742 
L 159.903522 220.251742 
L 160.004338 221.151913 
L 160.005346 219.881669 
L 160.013412 219.881669 
L 160.105155 219.881669 
L 160.218069 216.401106 
L 160.306787 216.401106 
L 160.419702 212.359535 
L 160.50842 212.359535 
L 160.609236 212.68166 
L 160.610245 210.657892 
L 160.613269 210.657892 
L 160.710053 210.657892 
L 160.822967 206.252213 
L 160.911686 206.252213 
L 161.012502 206.113927 
L 161.079041 51.00798 
L 161.124408 89.782783 
L 161.127433 89.79146 
L 161.263535 206.855746 
L 161.339147 206.855746 
L 161.4692 209.327679 
L 161.54078 209.327679 
L 161.653694 213.87544 
L 161.742413 213.87544 
L 161.843229 213.573064 
L 161.844237 215.272808 
L 161.84827 215.272808 
L 161.944045 215.272808 
L 162.05696 219.027006 
L 162.145678 219.027006 
L 162.246494 220.461521 
L 162.256576 219.781389 
L 162.347311 219.781389 
L 162.460225 221.821109 
L 162.548944 221.821109 
L 162.661858 223.161219 
L 162.750576 223.161219 
L 162.851393 223.524469 
L 162.861474 223.441497 
L 162.952209 223.441497 
L 163.064115 222.916417 
L 163.153842 222.916417 
L 163.265748 221.586791 
L 163.355475 221.586791 
L 163.468389 220.005765 
L 163.557107 220.005765 
L 163.657924 221.032471 
L 163.658932 219.884425 
L 163.668005 219.884425 
L 163.75874 219.884425 
L 163.871654 217.211255 
L 163.960373 217.211255 
L 164.073287 213.747187 
L 164.162006 213.747187 
L 164.262822 214.19038 
L 164.26383 212.470073 
L 164.269879 212.470073 
L 164.363638 212.470073 
L 164.476553 208.248595 
L 164.565271 208.248595 
L 164.666087 206.078045 
L 164.677177 206.219404 
L 164.766904 206.219404 
L 164.841508 50.876925 
L 164.87881 78.050966 
L 164.879818 78.050966 
L 165.022977 205.648544 
L 165.099598 205.648544 
L 165.212512 210.779051 
L 165.301231 210.779051 
L 165.402047 212.944494 
L 165.413137 212.63552 
L 165.502863 212.63552 
L 165.615778 216.519824 
L 165.704496 216.519824 
L 165.817411 219.987281 
L 165.906129 219.987281 
L 166.006945 221.383655 
L 166.017027 220.273705 
L 166.107762 220.273705 
L 166.219668 222.313019 
L 166.309394 222.313019 
L 166.421301 223.091489 
L 166.71266 222.989853 
L 166.825574 222.082588 
L 166.914293 222.082588 
L 167.027207 220.080195 
L 167.115925 220.080195 
L 167.216742 221.034053 
L 167.21775 219.841313 
L 167.225815 219.841313 
L 167.317558 219.841313 
L 167.430473 216.801232 
L 167.519191 216.801232 
L 167.632105 212.66991 
L 167.82164 212.71343 
L 167.934554 208.165217 
L 168.023273 208.165217 
L 168.135179 205.178733 
L 168.224906 205.178733 
L 168.279346 52.288799 
L 168.328746 206.657355 
L 168.335804 206.657355 
L 168.428555 206.657355 
L 168.543485 210.557929 
L 168.630187 210.557929 
L 168.742094 213.644376 
L 168.83182 213.644376 
L 168.944735 217.971286 
L 169.033453 217.971286 
L 169.145359 221.443398 
L 169.235086 221.443398 
L 169.335902 220.364043 
L 169.345984 221.030528 
L 169.436718 221.030528 
L 169.548625 221.55579 
L 169.638351 221.55579 
L 169.753282 220.668544 
L 169.839984 220.668544 
L 169.9408 219.838059 
L 169.950882 220.660997 
L 170.041617 220.660997 
L 170.154531 217.10388 
L 170.24325 217.10388 
L 170.356164 212.804898 
L 170.444882 212.804898 
L 170.565862 209.823295 
L 170.646515 209.823295 
L 170.758421 206.662055 
L 170.848148 206.662055 
L 170.898556 50.799828 
L 170.959046 205.097343 
L 171.049781 205.097343 
L 171.162695 211.116948 
L 171.251413 211.116948 
L 171.363319 213.971518 
L 171.453046 213.971518 
L 171.56596 218.712156 
L 171.654679 218.712156 
L 171.755495 220.432508 
L 171.765577 219.717533 
L 171.856312 219.717533 
L 171.968218 221.855138 
L 172.057944 221.855138 
L 172.170859 222.780029 
L 172.259577 222.780029 
L 172.360393 222.940188 
L 172.361402 222.485561 
L 172.368459 222.485561 
L 172.46121 222.485561 
L 172.574124 220.401417 
L 172.662843 220.401417 
L 172.763659 221.438382 
L 172.764667 220.069937 
L 172.772732 220.069937 
L 172.864475 220.069937 
L 172.97739 216.680028 
L 173.066108 216.680028 
L 173.178014 214.21049 
L 173.267741 214.21049 
L 173.380655 209.466688 
L 173.469374 209.466688 
L 173.58128 206.38598 
L 173.671006 206.38598 
L 173.725447 51.805973 
L 173.782913 108.947706 
L 173.783921 108.947706 
L 173.895827 206.751083 
L 173.985553 206.751083 
L 174.098468 214.045948 
L 174.187186 214.045948 
L 174.302117 217.954565 
L 174.388819 217.954565 
L 174.500725 221.254407 
L 174.590452 221.254407 
L 174.702358 225.217797 
L 174.792084 225.217797 
L 174.904999 227.057228 
L 174.993717 227.057228 
L 175.094534 227.44931 
L 175.104615 227.237317 
L 175.19535 227.237317 
L 175.309272 225.621312 
L 175.396983 225.621312 
L 175.509897 222.373621 
L 175.598615 222.373621 
L 175.699432 220.217532 
L 175.710522 220.418544 
L 175.800248 220.418544 
L 175.913163 215.291472 
L 176.001881 215.291472 
L 176.113787 211.739597 
L 176.203514 211.739597 
L 176.316428 206.217777 
L 176.405147 206.217777 
L 176.505963 206.498914 
L 176.506971 204.881101 
L 176.511004 204.881101 
L 176.606779 204.881101 
L 176.685416 46.462614 
L 176.718685 94.228457 
L 176.719694 94.228457 
L 176.731792 108.209638 
L 176.843698 205.900397 
L 176.933424 205.900397 
L 177.046339 212.950731 
L 177.135057 212.950731 
L 177.249988 217.115675 
L 177.33669 217.115675 
L 177.448596 219.906479 
L 177.538323 219.906479 
L 177.650229 222.823865 
L 177.739955 222.823865 
L 177.851862 223.804702 
L 178.143221 223.698005 
L 178.256135 222.577525 
L 178.344854 222.577525 
L 178.457768 220.950901 
L 178.546486 220.950901 
L 178.647303 220.140842 
L 178.648311 221.484342 
L 178.656376 221.484342 
L 178.748119 221.484342 
L 178.861033 219.9044 
L 178.949752 219.9044 
L 179.062666 218.521403 
L 179.151385 218.521403 
L 179.264299 217.128193 
L 179.353017 217.128193 
L 179.465932 215.428855 
L 179.55465 215.428855 
L 179.667564 213.016801 
L 179.756283 213.016801 
L 179.857099 213.523037 
L 179.858107 211.421946 
L 179.864156 211.421946 
L 179.957916 211.421946 
L 180.07083 206.235086 
L 180.159548 206.235086 
L 180.318838 50.114453 
L 180.394451 103.43027 
L 180.397475 103.477631 
L 180.502324 205.212988 
L 180.530553 205.004474 
L 180.60314 205.004474 
L 180.716055 209.677868 
L 180.804773 209.677868 
L 180.917688 214.150702 
L 181.006406 214.150702 
L 181.107222 213.915706 
L 181.108231 215.708636 
L 181.110247 215.708636 
L 181.208039 215.708636 
L 181.320953 219.31099 
L 181.409672 219.31099 
L 181.510488 220.749075 
L 181.52057 219.644323 
L 181.611304 219.644323 
L 181.724219 221.165109 
L 181.812937 221.165109 
L 181.924843 222.079695 
L 182.01457 222.079695 
L 182.126476 222.611329 
L 182.619468 222.534187 
L 182.737423 222.050818 
L 182.821101 222.050818 
L 182.935023 221.008836 
L 183.022734 221.008836 
L 183.12355 220.192948 
L 183.124558 221.468525 
L 183.132623 221.468525 
L 183.224366 221.468525 
L 183.337281 219.458179 
L 183.425999 219.458179 
L 183.538913 216.5849 
L 183.627632 216.5849 
L 183.740546 213.202267 
L 183.829265 213.202267 
L 183.930081 213.807743 
L 183.931089 212.243212 
L 183.938146 212.243212 
L 184.030897 212.243212 
L 184.143812 208.753927 
L 184.23253 208.753927 
L 184.345444 205.366911 
L 184.434163 205.366911 
L 184.534979 205.921275 
L 184.6116 52.413076 
L 184.646885 59.369954 
L 184.647894 59.369954 
L 184.78702 205.349828 
L 184.833396 205.289181 
L 184.887837 205.289181 
L 185.000751 209.83762 
L 185.089469 209.83762 
L 185.202384 214.210942 
L 185.391918 214.118752 
L 185.504833 217.868159 
L 185.593551 217.868159 
L 185.706466 220.894908 
L 185.795184 220.894908 
L 185.896 219.97169 
L 185.897008 221.100394 
L 185.905074 221.100394 
L 185.996817 221.100394 
L 186.108723 222.390161 
L 186.198449 222.390161 
L 186.310356 223.063063 
L 186.400082 223.063063 
L 186.511988 222.794219 
L 186.601715 222.794219 
L 186.716646 222.030436 
L 186.803348 222.030436 
L 186.916262 220.495867 
L 187.00498 220.495867 
L 187.105797 219.748444 
L 187.106805 220.810716 
L 187.11487 220.810716 
L 187.206613 220.810716 
L 187.319528 218.673382 
L 187.408246 218.673382 
L 187.52116 215.897988 
L 187.609879 215.897988 
L 187.722793 212.6357 
L 187.811511 212.6357 
L 187.912328 213.143654 
L 187.913336 211.220617 
L 187.919385 211.220617 
L 188.013144 211.220617 
L 188.126059 207.268164 
L 188.214777 207.268164 
L 188.315593 205.174666 
L 188.326683 205.238024 
L 188.41641 205.238024 
L 188.505128 51.471646 
L 188.528316 62.567527 
L 188.529324 62.567527 
L 188.676516 205.568646 
L 188.729949 204.861036 
L 188.777332 204.861036 
L 188.890247 208.172312 
L 188.978965 208.172312 
L 189.091879 211.195627 
L 189.180598 211.195627 
L 189.293512 214.267703 
L 189.382231 214.267703 
L 189.483047 213.810003 
L 189.484055 215.344166 
L 189.490104 215.344166 
L 189.583863 215.344166 
L 189.696778 217.842264 
L 189.785496 217.842264 
L 189.898411 220.026417 
L 189.987129 220.026417 
L 190.087945 221.347954 
L 190.088953 220.025061 
L 190.098027 220.025061 
L 190.188762 220.025061 
L 190.300668 221.170984 
L 190.390394 221.170984 
L 190.502301 222.010552 
L 190.592027 222.010552 
L 190.704942 222.580779 
L 191.096109 222.48434 
L 191.213056 222.082497 
L 191.297742 222.082497 
L 191.410656 221.379452 
L 191.499375 221.379452 
L 191.612289 220.501516 
L 191.701007 220.501516 
L 191.801824 220.033557 
L 191.802832 221.368425 
L 191.809889 221.368425 
L 191.90264 221.368425 
L 192.015554 219.487643 
L 192.104273 219.487643 
L 192.217187 217.701583 
L 192.305906 217.701583 
L 192.41882 215.244292 
L 192.507538 215.244292 
L 192.620453 212.317371 
L 192.709171 212.317371 
L 192.809988 213.368979 
L 192.810996 212.009797 
L 192.819061 212.009797 
L 192.910804 212.009797 
L 193.023718 208.916617 
L 193.112437 208.916617 
L 193.225351 205.949882 
L 193.314069 205.949882 
L 193.414886 206.813357 
L 193.415894 205.174711 
L 193.423959 205.174711 
L 193.515702 205.174711 
L 193.622568 51.705557 
L 193.627608 51.741349 
L 193.628616 51.741349 
L 193.632649 51.341855 
L 193.669951 60.732569 
L 193.670959 60.732569 
L 193.749596 113.095297 
L 193.861502 206.17828 
L 193.951229 206.17828 
L 194.052045 205.373192 
L 194.053053 206.73626 
L 194.061119 206.73626 
L 194.152862 206.73626 
L 194.265776 209.1663 
L 194.354494 209.1663 
L 194.467409 211.994523 
L 194.556127 211.994523 
L 194.669042 214.296083 
L 194.75776 214.296083 
L 194.858576 213.148353 
L 194.859584 214.31303 
L 194.868658 214.31303 
L 194.959393 214.31303 
L 195.072307 216.511238 
L 195.161025 216.511238 
L 195.27394 218.251022 
L 195.362658 218.251022 
L 195.475573 219.855729 
L 195.564291 219.855729 
L 195.677205 221.418814 
L 195.765924 221.418814 
L 195.86674 219.796166 
L 195.876822 220.531794 
L 195.967556 220.531794 
L 196.080471 221.360517 
L 196.169189 221.360517 
L 196.281095 222.097004 
L 196.370822 222.097004 
L 196.482728 222.692854 
L 196.572455 222.692854 
L 196.685369 222.989266 
L 196.774087 222.989266 
L 196.88801 223.379495 
L 197.278169 223.321198 
L 197.391084 222.886048 
L 197.479802 222.886048 
L 197.592716 222.151459 
L 197.681435 222.151459 
L 197.794349 221.085888 
L 197.883068 221.085888 
L 197.995982 219.902231 
L 198.0847 219.902231 
L 198.185517 221.624752 
L 198.195598 220.919493 
L 198.286333 220.919493 
L 198.399247 219.729373 
L 198.487966 219.729373 
L 198.60088 218.602477 
L 198.689599 218.602477 
L 198.802513 217.014039 
L 198.891231 217.014039 
L 199.004146 215.551595 
L 199.092864 215.551595 
L 199.205779 213.593038 
L 199.294497 213.593038 
L 199.395313 212.65798 
L 199.396321 213.914802 
L 199.404387 213.914802 
L 199.49613 213.914802 
L 199.609044 211.719713 
L 199.697762 211.719713 
L 199.810677 209.390314 
L 199.899395 209.390314 
L 200.01231 207.278468 
L 200.101028 207.278468 
L 200.213942 205.455893 
L 200.302661 205.455893 
L 200.403477 206.604075 
L 200.413559 205.651753 
L 200.504293 205.651753 
L 200.80271 51.500839 
L 200.816824 52.752103 
L 201.02249 99.933077 
L 201.248318 205.100235 
L 201.274531 205.100235 
L 201.386437 205.443781 
L 201.476163 205.443781 
L 201.589078 205.736578 
L 201.677796 205.736578 
L 201.79071 206.289044 
L 201.879429 206.289044 
L 201.980245 206.591421 
L 201.981253 204.682078 
L 201.984278 204.682078 
L 202.081062 204.682078 
L 202.181878 206.613881 
L 202.192968 206.577909 
L 202.282694 206.577909 
L 202.383511 206.811097 
L 202.384519 204.787239 
L 202.385527 204.787239 
L 202.484327 204.787239 
L 202.585143 204.935738 
L 202.596233 204.922407 
L 202.68596 204.922407 
L 202.797866 204.748419 
L 202.887593 204.748419 
L 202.988409 206.854165 
L 202.998491 205.275262 
L 203.089225 205.275262 
L 203.201132 205.986351 
L 203.290858 205.986351 
L 203.404781 206.45544 
L 203.492491 206.45544 
L 203.605405 207.131279 
L 203.694124 207.131279 
L 203.807038 207.817422 
L 203.895756 207.817422 
L 204.007663 208.063265 
L 204.097389 208.063265 
L 204.210304 208.362342 
L 204.299022 208.362342 
L 204.410928 208.664403 
L 204.500655 208.664403 
L 204.613569 209.077815 
L 204.803104 209.187133 
L 204.91501 209.308879 
L 205.004737 209.308879 
L 205.116643 209.551829 
L 205.710451 209.627796 
L 205.822357 209.844083 
L 206.0129 209.947707 
L 206.126823 210.497056 
L 206.214533 210.497056 
L 206.328456 211.082919 
L 206.416166 211.082919 
L 206.528072 211.453987 
L 206.617799 211.453987 
L 206.730713 211.783614 
L 206.819431 211.783614 
L 206.932346 212.347695 
L 207.021064 212.347695 
L 207.133978 212.885971 
L 207.525146 212.97893 
L 207.639069 213.299971 
L 207.726779 213.299971 
L 207.827595 213.484217 
L 207.838685 213.462841 
L 207.928412 213.462841 
L 208.040318 213.2715 
L 208.230861 213.309326 
L 208.342767 213.701905 
L 208.432493 213.701905 
L 208.5444 213.935003 
L 208.634126 213.935003 
L 208.747041 214.225856 
L 208.835759 214.225856 
L 208.936575 212.295363 
L 208.947665 212.574285 
L 209.037392 212.574285 
L 209.149298 212.84801 
L 209.239024 212.84801 
L 209.339841 213.037092 
L 209.350931 213.022088 
L 209.440657 213.022088 
L 209.552563 213.338791 
L 209.64229 213.338791 
L 209.754196 213.522223 
L 209.944739 213.589152 
L 210.056645 213.919954 
L 210.247188 213.995785 
L 210.348005 214.124446 
L 210.358086 214.090733 
L 210.448821 214.090733 
L 210.560727 214.327627 
L 210.650454 214.327627 
L 210.76236 214.664756 
L 210.952903 214.654362 
L 211.064809 214.969844 
L 211.154536 214.969844 
L 211.26745 215.536998 
L 211.456985 215.537405 
L 211.568891 215.723684 
L 211.86025 215.733807 
L 211.973165 216.042917 
L 212.666781 216.153727 
L 212.767598 216.242303 
L 212.768606 216.106818 
L 212.776671 216.106818 
L 213.27168 216.010154 
L 213.384594 215.747184 
L 213.775761 215.838878 
L 213.876578 215.889357 
L 213.877586 215.821524 
L 213.885651 215.821524 
L 214.582292 215.733717 
L 214.695207 215.44666 
L 214.985558 215.374128 
L 215.097464 215.31809 
L 215.187191 215.31809 
L 215.300105 215.630093 
L 215.590456 215.608943 
L 215.702362 215.787043 
L 215.993722 215.762865 
L 216.106636 215.174878 
L 216.195354 215.174878 
L 216.307261 214.950592 
L 216.699436 214.968127 
L 216.812351 214.605871 
L 216.901069 214.605871 
L 217.013983 215.003195 
L 217.505967 215.074011 
L 217.618882 215.363869 
L 217.7076 215.363869 
L 217.819506 215.645096 
L 218.312498 215.558509 
L 218.424405 215.191012 
L 218.514131 215.191012 
L 218.626037 214.953711 
L 218.81658 214.84272 
L 218.917397 214.69865 
L 218.927478 214.837297 
L 219.119029 214.832643 
L 219.230936 214.644239 
L 219.421479 214.661005 
L 219.522295 214.962885 
L 219.532377 214.721878 
L 219.723928 214.766482 
L 219.824744 214.859306 
L 219.834826 214.791202 
L 219.92556 214.791202 
L 220.038475 214.588156 
L 220.127193 214.588156 
L 220.22801 214.771137 
L 220.238091 214.7118 
L 220.328826 214.7118 
L 220.440732 214.176054 
L 220.530459 214.176054 
L 220.643373 213.821527 
L 220.933724 213.873452 
L 221.034541 214.043688 
L 221.035549 213.376209 
L 221.041598 213.376209 
L 221.135357 213.376209 
L 221.236173 212.956018 
L 221.247263 213.039125 
L 221.33699 213.039125 
L 221.449904 213.485708 
L 221.538623 213.485708 
L 221.650529 213.71962 
L 221.740255 213.71962 
L 221.85317 213.984533 
L 221.941888 213.984533 
L 222.053794 215.482678 
L 222.143521 215.482678 
L 222.255427 215.954478 
L 222.345154 215.954478 
L 222.458068 216.333499 
L 222.546786 216.333499 
L 222.647603 216.48105 
L 222.657684 216.418821 
L 222.748419 216.418821 
L 222.861333 216.713199 
L 222.950052 216.713199 
L 223.061958 216.946071 
L 223.151685 216.946071 
L 223.252501 217.132486 
L 223.262583 217.026014 
L 223.655766 216.924062 
L 223.768681 216.468667 
L 224.059032 216.51901 
L 224.170938 216.77362 
L 224.260665 216.77362 
L 224.361481 216.897535 
L 224.372571 216.887819 
L 224.462297 216.887819 
L 224.575212 217.277144 
L 224.66393 217.277144 
L 224.775836 217.62548 
L 224.865563 217.62548 
L 224.966379 217.827396 
L 224.976461 217.761462 
L 225.168012 217.804303 
L 225.280926 218.093529 
L 225.369645 218.093529 
L 225.481551 218.276736 
L 225.672094 218.179574 
L 225.77291 218.061127 
L 225.784 218.07003 
L 225.974543 218.106544 
L 226.087457 218.353516 
L 226.377809 218.398798 
L 226.490723 218.797297 
L 226.579441 218.797297 
L 226.692356 219.083676 
L 227.18434 219.169721 
L 227.285156 219.216404 
L 227.286164 219.014036 
L 227.291205 219.014036 
L 227.385972 219.014036 
L 227.498887 218.610204 
L 227.587605 218.610204 
L 227.699511 218.252965 
L 227.890054 218.351392 
L 228.00196 217.803942 
L 228.091687 217.803942 
L 228.192503 217.044543 
L 228.203593 217.176909 
L 228.494953 217.169588 
L 228.607867 214.86753 
L 228.696585 214.86753 
L 228.797402 212.658703 
L 228.808492 213.083504 
L 228.898218 213.083504 
L 229.010124 211.837527 
L 229.099851 211.837527 
L 229.211757 207.390633 
L 229.301484 207.390633 
L 229.41339 205.984318 
L 229.503116 205.984318 
L 229.616031 204.785295 
L 229.704749 204.785295 
L 229.805565 205.669875 
L 229.809598 108.225274 
L 229.916464 205.236081 
L 229.91848 205.236081 
L 230.030386 208.642259 
L 230.120113 208.642259 
L 230.232019 212.553407 
L 230.321745 212.553407 
L 230.43466 214.860887 
L 230.523378 214.860887 
L 230.635284 216.371053 
L 230.725011 216.371053 
L 230.836917 218.191776 
L 231.02746 218.129411 
L 231.140374 218.587563 
L 231.229093 218.587563 
L 231.340999 219.071972 
L 231.430726 219.071972 
L 231.531542 218.734571 
L 231.541624 219.029492 
L 231.833991 218.944893 
L 231.946905 218.488503 
L 232.035624 218.488503 
L 232.14753 218.176727 
L 232.539706 218.218348 
L 232.640522 217.966496 
L 232.651612 217.981906 
L 232.741338 217.981906 
L 232.853245 218.600398 
L 232.942971 218.600398 
L 233.054877 218.990536 
L 233.24542 219.053262 
L 233.358335 219.168456 
L 233.447053 219.168456 
L 233.547869 219.490716 
L 233.557951 219.42189 
L 233.749502 219.454473 
L 233.862417 219.624077 
L 234.253584 219.7263 
L 234.3544 219.843437 
L 234.364482 219.81352 
L 234.455217 219.81352 
L 234.567123 220.288121 
L 235.060115 220.205105 
L 235.172021 220.051182 
L 235.362564 220.115264 
L 235.47447 219.579608 
L 235.665013 219.620326 
L 235.777928 220.0012 
L 235.866646 220.0012 
L 235.980569 220.44471 
L 236.169095 220.352836 
L 236.269912 220.32911 
L 236.27092 220.440552 
L 236.275961 220.440552 
L 236.471544 220.496545 
L 236.583451 220.6511 
L 236.773994 220.715814 
L 236.87481 220.796888 
L 236.875818 220.596147 
L 236.882875 220.596147 
L 237.076443 220.496319 
L 237.177259 220.446608 
L 237.178267 220.557282 
L 237.186333 220.557282 
L 237.278075 220.557282 
L 237.389982 220.865489 
L 237.479708 220.865489 
L 237.592623 220.498307 
L 237.882974 220.593119 
L 237.995888 221.038843 
L 238.286239 220.979145 
L 238.387056 220.907698 
L 238.388064 221.103106 
L 238.395121 221.103106 
L 238.487872 221.103106 
L 238.600786 221.365172 
L 238.689505 221.365172 
L 238.790321 221.477744 
L 238.800403 221.42487 
L 238.891137 221.42487 
L 238.991954 221.300051 
L 239.002035 221.381441 
L 239.09277 221.381441 
L 239.193587 221.515072 
L 239.203668 221.421345 
L 239.596852 221.408781 
L 239.697668 221.206007 
L 239.708758 221.231405 
L 239.798485 221.231405 
L 239.899301 221.509378 
L 239.910391 221.493696 
L 240.100934 221.495414 
L 240.20175 221.640433 
L 240.211832 221.574047 
L 240.403383 221.508429 
L 240.5042 221.413346 
L 240.514281 221.473631 
L 240.605016 221.473631 
L 240.705832 221.628141 
L 240.70684 221.433998 
L 240.714906 221.433998 
L 241.008281 221.353151 
L 241.120188 221.617295 
L 241.310731 221.724354 
L 241.411547 219.570434 
L 241.422637 219.678623 
L 241.814812 219.772441 
L 241.915629 219.932916 
L 241.916637 219.727972 
L 241.924702 219.727972 
L 242.117262 219.776824 
L 242.229168 220.033422 
L 242.72216 220.07423 
L 242.822976 219.890888 
L 242.834066 219.893012 
L 243.024609 219.941276 
L 243.136515 219.638538 
L 243.427874 219.679617 
L 243.528691 221.627057 
L 243.539781 221.466084 
L 243.730324 221.504226 
L 243.84223 221.746046 
L 243.931956 221.746046 
L 244.032773 219.567452 
L 244.043863 219.624258 
L 244.335222 219.727882 
L 244.448136 220.187887 
L 244.637671 220.187661 
L 244.750585 219.880494 
L 245.746651 219.951806 
L 245.858557 220.128595 
L 245.948284 220.128595 
L 246.06019 220.331234 
L 246.149917 220.331234 
L 246.262831 220.707273 
L 246.351549 220.707273 
L 246.463456 221.133023 
L 246.553182 221.133023 
L 246.665088 221.321155 
L 246.754815 221.321155 
L 246.855631 221.451262 
L 246.865713 221.405663 
L 246.956448 221.405663 
L 247.068354 221.273659 
L 247.15808 221.273659 
L 247.270995 220.841447 
L 247.359713 220.841447 
L 247.46053 220.601615 
L 247.471619 220.614359 
L 247.863795 220.586295 
L 247.964611 220.910545 
L 247.975701 220.895903 
L 248.065428 220.895903 
L 248.178342 221.505853 
L 248.267061 221.505853 
L 248.378967 222.049281 
L 248.670326 222.136185 
L 248.771142 222.170937 
L 248.772151 222.110019 
L 248.780216 222.110019 
L 248.972775 222.000429 
L 249.073592 221.961565 
L 249.083673 221.989945 
L 249.174408 221.989945 
L 249.287322 221.590542 
L 250.081755 221.567223 
L 250.193662 221.81293 
L 250.585837 221.889529 
L 250.701776 222.137766 
L 251.392368 222.067042 
L 251.505283 221.844609 
L 251.594001 221.844609 
L 251.706915 221.485652 
L 252.198899 221.541871 
L 252.311814 221.741662 
L 252.400532 221.741662 
L 252.512438 221.936348 
L 252.602165 221.936348 
L 252.714071 222.075628 
L 253.307879 222.001604 
L 253.408696 221.800863 
L 253.418778 221.901324 
L 253.811961 221.88022 
L 253.912778 221.72684 
L 253.922859 221.79648 
L 254.215227 221.839683 
L 254.328141 222.16583 
L 254.41686 222.16583 
L 254.529774 222.56564 
L 254.618492 222.56564 
L 254.731407 223.19326 
L 254.820125 223.19326 
L 254.933039 223.683091 
L 255.021758 223.683091 
L 255.133664 224.113586 
L 255.425023 224.03667 
L 255.53693 223.732983 
L 255.626656 223.732983 
L 255.739571 223.380127 
L 255.929105 223.295755 
L 256.041011 223.082948 
L 256.231554 222.978329 
L 256.332371 222.970556 
L 256.444277 223.062069 
L 256.534004 223.062069 
L 256.646918 223.308228 
L 256.836453 223.386951 
L 256.950375 223.7145 
L 257.239718 223.687023 
L 257.351624 223.503907 
L 257.642984 223.428889 
L 257.75489 223.164383 
L 258.147066 223.110695 
L 258.258972 223.344245 
L 259.054413 223.414383 
L 259.166319 223.588189 
L 259.558495 223.522707 
L 259.670401 223.347183 
L 259.860944 223.249614 
L 259.974867 222.994553 
L 260.566659 223.062431 
L 260.678565 223.195249 
L 260.869108 223.252054 
L 260.984038 223.510776 
L 261.171557 223.495863 
L 261.272373 223.378184 
L 261.273381 223.625201 
L 261.281447 223.625201 
L 261.37319 223.625201 
L 261.486104 223.242203 
L 261.574822 223.242203 
L 261.675639 223.094652 
L 261.68572 223.129721 
L 261.877272 223.109837 
L 261.978088 222.975708 
L 261.98817 223.101069 
L 262.078904 223.101069 
L 262.179721 223.351657 
L 262.189802 223.257297 
L 262.280537 223.257297 
L 262.392443 223.718793 
L 262.582986 223.820835 
L 262.694892 223.494823 
L 262.885435 223.423828 
L 262.997342 223.21685 
L 263.087068 223.21685 
L 263.198974 222.830598 
L 263.389517 222.730815 
L 263.490334 222.59976 
L 263.500415 222.727426 
L 264.196048 222.634828 
L 264.307954 222.412938 
L 264.599314 222.311528 
L 264.714244 221.821877 
L 264.800947 221.821877 
L 264.912853 221.544492 
L 265.002579 221.544492 
L 265.103396 221.382073 
L 265.113477 221.472818 
L 265.204212 221.472818 
L 265.316118 221.24808 
L 265.607478 221.245098 
L 265.719384 221.737369 
L 265.80911 221.737369 
L 265.921017 222.067177 
L 266.313192 222.17166 
L 266.425098 222.253909 
L 266.615641 222.217891 
L 266.727548 222.075718 
L 266.817274 222.075718 
L 266.930188 222.426224 
L 267.018907 222.426224 
L 267.131821 222.818351 
L 267.22054 222.818351 
L 267.332446 223.107758 
L 268.027071 223.12353 
L 268.138977 223.35369 
L 268.228703 223.35369 
L 268.32952 223.589455 
L 268.34061 223.55773 
L 268.430336 223.55773 
L 268.542242 223.738316 
L 268.631969 223.738316 
L 268.743875 224.058181 
L 269.337684 224.123528 
L 269.44959 224.426402 
L 269.841765 224.516333 
L 269.95468 224.622398 
L 270.144215 224.696693 
L 270.245031 224.928571 
L 270.255113 224.84822 
L 270.345847 224.84822 
L 270.457754 225.162572 
L 270.54748 225.162572 
L 270.659386 224.908415 
L 270.849929 225.006119 
L 270.961835 225.05122 
L 271.152378 225.067761 
L 271.253195 225.191495 
L 271.254203 225.061163 
L 271.263276 225.061163 
L 271.354011 225.061163 
L 271.467934 225.445607 
L 271.555644 225.445607 
L 271.66755 225.874339 
L 271.757277 225.874339 
L 271.870191 226.203515 
L 271.958909 226.203515 
L 272.059726 226.355358 
L 272.070816 226.33814 
L 272.160542 226.33814 
L 272.261359 226.50214 
L 272.27144 226.424592 
L 272.76544 226.478776 
L 272.877347 226.16709 
L 273.168706 226.146302 
L 273.280612 226.526996 
L 273.571971 226.436116 
L 273.672788 226.365029 
L 273.673796 226.529165 
L 273.680853 226.529165 
L 274.378502 226.563465 
L 274.479319 226.411215 
L 274.490409 226.41953 
L 274.781768 226.428975 
L 274.882584 226.55976 
L 274.892666 226.486504 
L 274.983401 226.486504 
L 275.084217 226.277222 
L 275.094299 226.332627 
L 275.28585 226.304608 
L 275.397756 226.494051 
L 275.487483 226.494051 
L 275.588299 226.633829 
L 275.598381 226.515653 
L 275.689115 226.515653 
L 275.789932 226.364577 
L 275.800013 226.494277 
L 275.991564 226.575667 
L 276.092381 226.676083 
L 276.103471 226.666141 
L 276.39483 226.616746 
L 276.506736 226.477059 
L 276.697279 226.451345 
L 276.809185 226.063647 
L 276.898912 226.063647 
L 277.010818 225.564325 
L 277.100545 225.564325 
L 277.213459 225.344288 
L 277.302177 225.344288 
L 277.402994 225.14549 
L 277.413075 225.282556 
L 277.50381 225.282556 
L 277.616724 225.663385 
L 277.705443 225.663385 
L 277.819365 226.185438 
L 277.907076 226.185438 
L 278.018982 226.699718 
L 278.108708 226.699718 
L 278.221623 227.128495 
L 278.61279 227.184759 
L 278.725705 226.698453 
L 279.016056 226.595687 
L 279.12897 226.281335 
L 279.318505 226.350478 
L 279.430411 226.042497 
L 279.620954 226.132971 
L 279.72177 226.281832 
L 279.73286 226.271212 
L 279.822587 226.271212 
L 279.935501 226.603641 
L 280.02422 226.603641 
L 280.125036 227.010771 
L 280.136126 226.940679 
L 280.225852 226.940679 
L 280.326669 227.178658 
L 280.33675 227.121219 
L 280.528301 227.182409 
L 280.640208 227.244321 
L 280.830751 227.160039 
L 280.944673 226.488402 
L 281.1332 226.399239 
L 281.234016 226.314505 
L 281.244098 226.335836 
L 281.435649 226.289605 
L 281.548563 225.870634 
L 281.637282 225.870634 
L 281.749188 225.700262 
L 281.939731 225.754943 
L 282.051637 226.043311 
L 282.141364 226.043311 
L 282.24218 226.232889 
L 282.25327 226.231398 
L 282.342996 226.231398 
L 282.455911 226.576797 
L 282.544629 226.576797 
L 282.656535 227.052619 
L 282.947895 226.965625 
L 283.060809 226.363312 
L 283.250344 226.280702 
L 283.363258 225.956452 
L 283.451976 225.956452 
L 283.564891 225.257294 
L 283.653609 225.257294 
L 283.765515 225.080008 
L 284.056875 225.149738 
L 284.168781 224.851293 
L 284.359324 224.775823 
L 284.46014 224.707358 
L 284.461148 224.815953 
L 284.469214 224.815953 
L 284.762589 224.726745 
L 284.874496 224.565502 
L 285.266671 224.616613 
L 285.367488 224.687203 
L 285.378577 224.681237 
L 285.56912 224.591125 
L 285.681027 224.49785 
L 285.87157 224.50386 
L 285.972386 224.633108 
L 285.982468 224.603553 
L 286.073202 224.603553 
L 286.174019 224.446151 
L 286.1841 224.583352 
L 286.98055 224.678978 
L 287.081366 224.789968 
L 287.082374 224.567806 
L 287.09044 224.567806 
L 287.282999 224.473853 
L 287.398938 224.206545 
L 287.484632 224.206545 
L 287.597546 223.570158 
L 287.686264 223.570158 
L 287.79817 222.96563 
L 287.887897 222.96563 
L 287.999803 222.080464 
L 288.08953 222.080464 
L 288.202444 221.233981 
L 288.391979 221.143236 
L 288.507918 220.761187 
L 288.694428 220.803531 
L 288.807342 221.320387 
L 288.896061 221.320387 
L 289.008975 222.064646 
L 289.097694 222.064646 
L 289.19851 222.403764 
L 289.2096 222.388534 
L 289.299326 222.388534 
L 289.412241 222.798693 
L 289.500959 222.798693 
L 289.601775 222.925862 
L 289.602784 222.776865 
L 289.611857 222.776865 
L 289.803408 222.847861 
L 289.915314 222.595828 
L 290.105857 222.665694 
L 290.206674 222.770764 
L 290.207682 222.594427 
L 290.215747 222.594427 
L 290.408307 222.540242 
L 290.520213 222.35446 
L 290.811572 222.272347 
L 290.926503 221.751107 
L 291.214838 221.804298 
L 291.315654 221.879587 
L 291.316662 221.653403 
L 291.323719 221.653403 
L 291.41647 221.653403 
L 291.530393 221.247719 
L 291.618103 221.247719 
L 291.731017 220.928531 
L 291.819736 220.928531 
L 291.920552 221.167097 
L 291.930634 221.07111 
L 292.223001 220.996544 
L 292.334907 221.547022 
L 292.424634 221.547022 
L 292.53654 222.046796 
L 292.626267 222.046796 
L 292.738173 222.277047 
L 292.8279 222.277047 
L 292.928716 222.44403 
L 292.938798 222.405029 
L 293.029532 222.405029 
L 293.141439 222.689646 
L 293.331981 222.607487 
L 293.432798 222.493469 
L 293.442879 222.543135 
L 293.634431 222.61404 
L 293.746337 222.378321 
L 293.836063 222.378321 
L 293.93688 222.499886 
L 293.946961 222.424326 
L 294.037696 222.424326 
L 294.149602 222.145268 
L 294.340145 222.175637 
L 294.452051 221.872944 
L 294.541778 221.872944 
L 294.642594 222.025827 
L 294.652676 221.905934 
L 295.04586 222.002915 
L 295.157766 222.189149 
L 295.247493 222.189149 
L 295.360407 222.507388 
L 295.549942 222.578474 
L 295.650758 222.824 
L 295.661848 222.782785 
L 295.953207 222.688064 
L 296.066122 222.504225 
L 296.15484 222.504225 
L 296.266746 222.302218 
L 296.356473 222.302218 
L 296.469387 221.960073 
L 296.759738 221.95221 
L 296.871644 222.159729 
L 297.062187 222.228375 
L 297.174094 222.500112 
L 297.26382 222.500112 
L 297.364637 222.615215 
L 297.365645 222.387224 
L 297.37371 222.387224 
L 297.465453 222.387224 
L 297.579375 221.98529 
L 297.667086 221.98529 
L 297.778992 221.752825 
L 298.070351 221.673062 
L 298.182257 221.47223 
L 298.271984 221.47223 
L 298.38389 221.679388 
L 298.473617 221.679388 
L 298.586531 221.997447 
L 299.078515 222.093072 
L 299.191429 222.300275 
L 299.380964 222.282199 
L 299.481781 222.44168 
L 299.482789 222.256846 
L 299.491862 222.256846 
L 299.78423 222.15399 
L 299.897144 221.854551 
L 299.985862 221.854551 
L 300.097769 221.545938 
L 300.288312 221.533194 
L 300.389128 221.280392 
L 300.39921 221.337605 
L 300.489944 221.337605 
L 300.602859 221.134017 
L 300.691577 221.134017 
L 300.792393 221.383203 
L 300.802475 221.317495 
L 301.195659 221.402048 
L 301.296475 221.549598 
L 301.306557 221.491392 
L 301.598924 221.495685 
L 301.699741 221.379452 
L 301.700749 221.58661 
L 301.708814 221.58661 
L 302.00219 221.491346 
L 302.103006 221.267106 
L 302.114096 221.310399 
L 302.203823 221.310399 
L 302.315729 221.438879 
L 302.405455 221.438879 
L 302.506272 221.585887 
L 302.517362 221.578702 
L 302.707905 221.611827 
L 302.820819 222.009377 
L 303.211986 222.104189 
L 303.312803 222.254948 
L 303.322885 222.213869 
L 303.615252 222.234928 
L 303.728166 221.979008 
L 303.816885 221.979008 
L 303.917701 222.288073 
L 303.928791 222.257976 
L 304.018518 222.257976 
L 304.131432 221.961248 
L 304.421783 221.886637 
L 304.522599 221.707136 
L 304.533689 221.738138 
L 304.623416 221.738138 
L 304.737338 221.336204 
L 304.925865 221.334215 
L 305.037771 221.168769 
L 305.63158 221.232625 
L 305.732396 221.303621 
L 305.733404 221.123578 
L 305.740461 221.123578 
L 306.135661 221.098587 
L 306.236478 220.959623 
L 306.246559 221.00974 
L 306.337294 221.00974 
L 306.450209 220.759786 
L 306.538927 220.759786 
L 306.650833 220.596689 
L 306.942192 220.48597 
L 307.060148 220.401914 
L 307.446274 220.476977 
L 307.560197 220.74198 
L 307.84954 220.816953 
L 307.962454 220.899428 
L 308.252805 221.00391 
L 308.353622 221.020631 
L 308.35463 220.991031 
L 308.362695 220.991031 
L 308.454438 220.991031 
L 308.566344 220.743969 
L 308.95852 220.639124 
L 309.059336 220.537082 
L 309.069418 220.572738 
L 309.260969 220.4965 
L 309.361786 220.457906 
L 309.362794 220.550413 
L 309.369851 220.550413 
L 309.664235 220.598858 
L 309.776141 220.385645 
L 309.966684 220.436756 
L 310.079598 220.691592 
L 310.269133 220.583629 
L 310.382047 220.229372 
L 310.874031 220.127646 
L 310.974848 221.382299 
L 310.975856 220.0059 
L 310.984929 220.0059 
L 311.075664 220.0059 
L 311.18757 218.892561 
L 311.277297 218.892561 
L 311.390211 217.951944 
L 311.478929 217.951944 
L 311.591844 216.857224 
L 311.680562 216.857224 
L 311.781379 216.551548 
L 311.782387 216.973502 
L 311.790452 216.973502 
L 311.882195 216.973502 
L 311.994101 218.156436 
L 312.083828 218.156436 
L 312.195734 217.945753 
L 312.28546 217.945753 
L 312.399383 218.414751 
L 312.688726 218.369379 
L 312.800632 218.207276 
L 312.890359 218.207276 
L 313.004281 219.172071 
L 313.091992 219.172071 
L 313.204906 220.227022 
L 313.293624 220.227022 
L 313.406539 220.838057 
L 313.495257 220.838057 
L 313.596073 221.273749 
L 313.597082 219.632889 
L 313.603131 219.632889 
L 313.69689 219.632889 
L 313.808796 220.238591 
L 313.999339 220.311666 
L 314.111245 220.566772 
L 314.301788 220.503188 
L 314.413694 220.752329 
L 314.503421 220.752329 
L 314.616335 220.034913 
L 314.705054 220.034913 
L 314.80587 219.749348 
L 314.815952 219.877375 
L 315.209135 219.919629 
L 315.309952 219.738999 
L 315.320033 219.867433 
L 315.410768 219.867433 
L 315.524691 220.831731 
L 315.612401 220.831731 
L 315.713217 221.121047 
L 315.723299 221.024111 
L 315.91485 220.986918 
L 316.026756 220.864901 
L 316.116483 220.864901 
L 316.217299 221.018372 
L 316.227381 220.969158 
L 316.721381 221.051949 
L 316.833287 221.101027 
L 317.02383 221.051271 
L 317.124647 220.984071 
L 317.125655 221.173695 
L 317.132712 221.173695 
L 317.326279 221.257164 
L 317.439194 221.489042 
L 317.628729 221.582498 
L 317.741643 221.841445 
L 317.830361 221.841445 
L 317.942267 222.256575 
L 318.031994 222.256575 
L 318.1439 222.02664 
L 318.334443 221.992521 
L 318.446349 221.765388 
L 318.636892 221.697149 
L 318.749807 221.404353 
L 318.838525 221.404353 
L 318.950431 221.252328 
L 319.54424 221.306423 
L 319.645056 221.527997 
L 319.656146 221.526551 
L 319.947505 221.454786 
L 320.06042 220.96125 
L 320.249954 220.894547 
L 320.362869 220.21699 
L 320.451587 220.21699 
L 320.563493 220.070569 
L 320.854853 220.062977 
L 320.967767 220.321337 
L 321.157302 220.36576 
L 321.269208 220.863093 
L 321.661384 220.904625 
L 321.774298 221.182372 
L 321.963833 221.2056 
L 322.064649 221.310038 
L 322.074731 221.23511 
L 322.165466 221.23511 
L 322.277372 221.532606 
L 322.467915 221.423152 
L 322.580829 221.301587 
L 322.669547 221.301587 
L 322.781454 221.426948 
L 323.375262 221.519727 
L 323.489185 221.737505 
L 323.576895 221.737505 
L 323.688801 221.574092 
L 323.98016 221.511095 
L 324.093075 221.375295 
L 324.585059 221.450584 
L 324.685875 221.495368 
L 324.695957 221.458854 
L 324.786691 221.458854 
L 324.887508 221.681106 
L 324.897589 221.616166 
L 325.593222 221.581549 
L 325.705129 221.760643 
L 325.794855 221.760643 
L 325.906761 222.136049 
L 325.996488 222.136049 
L 326.109402 222.460389 
L 326.50057 222.521849 
L 326.612476 222.324724 
L 326.702203 222.324724 
L 326.814109 222.048694 
L 327.004652 221.93924 
L 327.116558 221.639258 
L 327.206284 221.639258 
L 327.307101 221.479325 
L 327.317182 221.562026 
L 327.407917 221.562026 
L 327.508734 221.758338 
L 327.518815 221.638309 
L 327.911999 221.741843 
L 328.024913 222.037712 
L 328.315265 221.988634 
L 328.427171 221.816138 
L 328.920163 221.732172 
L 329.020979 221.697691 
L 329.021987 221.780934 
L 329.029045 221.780934 
L 329.222612 221.821697 
L 329.334518 222.090677 
L 329.625877 222.104641 
L 329.737784 222.263715 
L 330.432408 222.200492 
L 330.544315 222.024788 
L 330.634041 222.024788 
L 330.734858 222.15643 
L 330.744939 222.115442 
L 330.835674 222.115442 
L 330.94758 221.942223 
L 331.138123 221.940144 
L 331.23894 221.712198 
L 331.250029 221.732353 
L 331.843838 221.826758 
L 331.956752 222.043813 
L 332.045471 222.043813 
L 332.146287 222.186935 
L 332.156369 222.057777 
L 332.852002 222.010643 
L 332.963908 221.772799 
L 333.255267 221.809405 
L 333.356083 221.893868 
L 333.366165 221.847185 
L 333.759349 221.842123 
L 333.872263 222.14459 
L 334.162614 222.087513 
L 334.263431 222.031883 
L 334.273512 222.083898 
L 334.465064 222.193397 
L 334.56588 222.319843 
L 334.57697 222.316137 
L 334.969145 222.40286 
L 335.081052 222.513941 
L 335.170778 222.513941 
L 335.271595 222.626106 
L 335.281676 222.567131 
L 335.372411 222.567131 
L 335.485325 222.315821 
L 335.574044 222.315821 
L 335.68595 222.138489 
L 335.775677 222.138489 
L 335.887583 222.327932 
L 336.279758 222.387856 
L 336.393681 222.578926 
L 336.582208 222.474624 
L 336.695122 222.13144 
L 336.78384 222.13144 
L 336.884657 222.295123 
L 336.885665 222.120096 
L 336.894738 222.120096 
L 337.086289 222.035588 
L 337.187106 221.961836 
L 337.198196 221.977879 
L 337.489555 222.071877 
L 337.602469 222.469744 
L 337.691188 222.469744 
L 337.792004 222.192493 
L 337.802086 222.264574 
L 338.094453 222.258699 
L 338.19527 222.064963 
L 338.196278 222.263896 
L 338.205351 222.263896 
L 338.396902 222.306647 
L 338.508809 222.003728 
L 338.598535 222.003728 
L 338.711449 222.244057 
L 338.900984 222.293948 
L 339.013899 222.61874 
L 339.102617 222.61874 
L 339.203433 222.417547 
L 339.213515 222.466761 
L 339.808332 222.369825 
L 339.920238 222.112143 
L 340.009964 222.112143 
L 340.121871 222.327932 
L 340.41323 222.279939 
L 340.525136 222.120322 
L 340.715679 222.19525 
L 340.816495 222.362097 
L 340.826577 222.241843 
L 340.917312 222.241843 
L 341.029218 222.079469 
L 341.219761 222.146985 
L 341.331667 222.273793 
L 341.52221 222.3085 
L 341.623026 222.402589 
L 341.633108 222.327571 
L 341.723843 222.327571 
L 341.824659 222.47833 
L 341.834741 222.445792 
L 342.026292 222.345331 
L 342.127108 222.218524 
L 342.13719 222.306828 
L 342.328741 222.333536 
L 342.429557 222.166463 
L 342.439639 222.233437 
L 343.236088 222.255671 
L 343.347995 222.436166 
L 343.941803 222.536537 
L 344.042619 222.624389 
L 344.052701 222.540107 
L 344.445885 222.62222 
L 344.558799 222.989356 
L 345.353232 222.949768 
L 345.466147 222.650736 
L 346.663845 222.598811 
L 346.77676 222.293587 
L 346.966294 222.307415 
L 347.078201 222.492339 
L 347.974458 222.417367 
L 348.086364 222.265975 
L 348.377724 222.328158 
L 348.47854 222.450492 
L 348.48963 222.427038 
L 348.780989 222.324227 
L 348.881806 222.313607 
L 348.993712 222.470421 
L 349.184255 222.412124 
L 349.300194 222.118876 
L 349.486704 222.113724 
L 349.59861 222.250474 
L 349.990786 222.252598 
L 350.102692 222.497988 
L 350.192419 222.497988 
L 350.304325 222.744689 
L 350.394051 222.744689 
L 350.505957 222.924461 
L 350.99895 222.943848 
L 351.110856 222.742791 
L 351.301399 222.718704 
L 351.402215 222.570973 
L 351.412297 222.69787 
L 351.603848 222.746316 
L 351.704664 222.908599 
L 351.714746 222.78387 
L 351.906297 222.850528 
L 352.007113 223.01281 
L 352.017195 222.957948 
L 352.10793 222.957948 
L 352.219836 222.527815 
L 352.309562 222.527815 
L 352.421469 222.042819 
L 352.712828 221.987776 
L 352.824734 221.824905 
L 353.015277 221.930337 
L 353.127183 222.307144 
L 353.21691 222.307144 
L 353.328816 221.954063 
L 353.418543 221.954063 
L 353.531457 221.081459 
L 353.620175 221.081459 
L 353.734098 220.373307 
L 353.821808 220.373307 
L 353.922625 219.758115 
L 353.923633 221.418317 
L 353.93069 221.418317 
L 354.023441 221.418317 
L 354.135347 220.792911 
L 354.426706 220.854778 
L 354.527523 221.020676 
L 354.537604 220.93766 
L 354.729156 220.999075 
L 354.84207 221.712152 
L 354.930788 221.712152 
L 355.031605 219.934272 
L 355.041686 220.399519 
L 355.132421 220.399519 
L 355.246344 221.0214 
L 355.334054 221.0214 
L 355.447976 221.393371 
L 355.636503 221.33652 
L 355.748409 221.134378 
L 355.938952 221.181061 
L 356.050858 220.664251 
L 356.140585 220.664251 
L 356.253499 220.186757 
L 356.342218 220.186757 
L 356.443034 219.963556 
L 356.453116 220.174013 
L 356.846299 220.254273 
L 356.958206 220.775738 
L 357.148749 220.738952 
L 357.260655 220.946653 
L 357.350381 220.946653 
L 357.464304 221.527048 
L 357.65283 221.599264 
L 357.753647 221.677762 
L 357.763729 221.658826 
L 357.95528 221.611104 
L 358.068194 222.09018 
L 358.156912 222.09018 
L 358.257729 222.450311 
L 358.26781 222.262224 
L 358.358545 222.262224 
L 358.459362 222.084802 
L 358.469443 222.139484 
L 358.660994 222.099534 
L 358.7729 221.931783 
L 358.862627 221.931783 
L 358.974533 221.759513 
L 359.165076 221.719383 
L 359.276982 222.053168 
L 359.568342 222.155301 
L 359.680248 222.663751 
L 359.769974 222.663751 
L 359.870791 222.79928 
L 359.880872 222.717258 
L 360.072424 222.820746 
L 360.17324 223.081547 
L 360.183322 222.992655 
L 360.274056 222.992655 
L 360.374873 223.111915 
L 360.384954 223.039383 
L 360.475689 223.039383 
L 360.587595 222.740757 
L 360.878955 222.712241 
L 360.994893 222.207904 
L 361.080587 222.207904 
L 361.19451 221.877056 
L 361.786302 221.791147 
L 361.887118 221.762857 
L 361.888127 221.834983 
L 361.895184 221.834983 
L 361.987935 221.834983 
L 362.099841 222.187839 
L 362.592833 222.243876 
L 362.704739 222.523612 
L 362.996099 222.482804 
L 363.108005 220.012995 
L 363.399364 220.10731 
L 363.513287 220.326127 
L 363.600997 220.326127 
L 363.713911 220.705465 
L 363.80263 220.705465 
L 363.925626 223.781248 
L 364.004262 223.781248 
L 364.116168 224.780613 
L 364.205895 224.780613 
L 364.317801 225.65742 
L 364.407528 225.65742 
L 364.519434 225.872532 
L 364.609161 225.872532 
L 364.709977 226.081949 
L 364.720059 225.996537 
L 364.810793 225.996537 
L 364.923708 225.451121 
L 365.012426 225.451121 
L 365.12534 224.796069 
L 365.214059 224.796069 
L 365.326973 224.398474 
L 365.516508 224.463866 
L 365.617324 224.231717 
L 365.627406 224.356039 
L 365.818957 224.315095 
L 365.919773 224.219199 
L 365.920782 224.367472 
L 365.928847 224.367472 
L 366.02059 224.367472 
L 366.133504 224.047426 
L 366.323039 224.096775 
L 366.423855 223.913704 
L 366.433937 223.968928 
L 366.827121 224.010233 
L 366.939027 223.681058 
L 367.331203 223.784727 
L 367.443109 223.387674 
L 367.633652 223.347092 
L 367.734468 223.275373 
L 367.735476 223.395266 
L 367.743542 223.395266 
L 367.835285 223.395266 
L 367.936101 223.279802 
L 367.937109 223.537575 
L 367.944166 223.537575 
L 368.137734 223.47042 
L 368.23855 223.226024 
L 368.239558 223.524288 
L 368.247624 223.524288 
L 368.339367 223.524288 
L 368.440183 223.327344 
L 368.450265 223.477967 
L 368.540999 223.477967 
L 368.653914 221.727969 
L 368.742632 221.727969 
L 368.843448 220.231768 
L 368.85353 221.498396 
L 369.145898 221.514756 
L 369.246714 221.326397 
L 369.247722 221.542865 
L 369.256796 221.542865 
L 369.34753 221.542865 
L 369.467502 219.949366 
L 369.549163 219.949366 
L 369.662077 222.430156 
L 369.750796 222.430156 
L 369.862702 222.223811 
L 370.053245 222.133925 
L 370.154061 222.105228 
L 370.15507 222.382298 
L 370.254878 222.382298 
L 370.373841 224.618557 
L 370.45651 224.618557 
L 370.570433 225.687563 
L 370.658143 225.687563 
L 370.771058 229.100971 
L 370.960592 229.066128 
L 371.061409 230.62004 
L 371.072499 230.614436 
L 371.263041 230.548411 
L 371.374948 228.526722 
L 371.464674 228.526722 
L 371.57658 227.96237 
L 371.666307 227.96237 
L 371.767123 228.312333 
L 371.768132 226.526137 
L 371.773172 226.526137 
L 371.86794 226.526137 
L 371.979846 225.35066 
L 372.170389 225.265654 
L 372.284311 226.311568 
L 372.372022 226.311568 
L 372.484936 228.72317 
L 372.674471 228.692891 
L 372.787385 233.21286 
L 372.876104 233.21286 
L 372.98801 235.72899 
L 373.077736 235.72899 
L 373.190651 239.538773 
L 373.279369 239.538773 
L 373.392283 241.720802 
L 373.481002 241.720802 
L 373.581818 242.116364 
L 373.581818 242.116364 
" style="fill:none;stroke:#1f77b4;stroke-linecap:square;stroke-width:1.5;"/>
   </g>
   <g id="patch_24">
    <path d="M 54 252 
L 54 34.56 
" style="fill:none;stroke:#000000;stroke-linecap:square;stroke-linejoin:miter;stroke-width:0.8;"/>
   </g>
   <g id="patch_25">
    <path d="M 388.8 252 
L 388.8 34.56 
" style="fill:none;stroke:#000000;stroke-linecap:square;stroke-linejoin:miter;stroke-width:0.8;"/>
   </g>
   <g id="patch_26">
    <path d="M 54 252 
L 388.8 252 
" style="fill:none;stroke:#000000;stroke-linecap:square;stroke-linejoin:miter;stroke-width:0.8;"/>
   </g>
   <g id="patch_27">
    <path d="M 54 34.56 
L 388.8 34.56 
" style="fill:none;stroke:#000000;stroke-linecap:square;stroke-linejoin:miter;stroke-width:0.8;"/>
   </g>
  </g>
 </g>
 <defs>
  <clipPath id="p7527379b84">
   <rect height="217.44" width="334.8" x="54" y="34.56"/>
  </clipPath>
 </defs>
</svg>
