<?xml version="1.0" encoding="utf-8" standalone="no"?>
<!DOCTYPE svg PUBLIC "-//W3C//DTD SVG 1.1//EN"
  "http://www.w3.org/Graphics/SVG/1.1/DTD/svg11.dtd">
<!-- Created with matplotlib (https://matplotlib.org/) -->
<svg height="288pt" version="1.1" viewBox="0 0 432 288" width="432pt" xmlns="http://www.w3.org/2000/svg" xmlns:xlink="http://www.w3.org/1999/xlink">
 <defs>
  <style type="text/css">
*{stroke-linecap:butt;stroke-linejoin:round;}
  </style>
 </defs>
 <g id="figure_1">
  <g id="patch_1">
   <path d="M 0 288 
L 432 288 
L 432 0 
L 0 0 
z
" style="fill:#ffffff;"/>
  </g>
  <g id="axes_1">
   <g id="patch_2">
    <path d="M 54 252 
L 388.8 252 
L 388.8 34.56 
L 54 34.56 
z
" style="fill:#ffffff;"/>
   </g>
   <g id="matplotlib.axis_1">
    <g id="xtick_1">
     <g id="line2d_1">
      <defs>
       <path d="M 0 0 
L 0 3.5 
" id="m65c8b8849f" style="stroke:#000000;stroke-width:0.8;"/>
      </defs>
      <g>
       <use style="stroke:#000000;stroke-width:0.8;" x="69.218182" xlink:href="#m65c8b8849f" y="252"/>
      </g>
     </g>
     <g id="text_1">
      <!-- 0 -->
      <defs>
       <path d="M 31.78125 66.40625 
Q 24.171875 66.40625 20.328125 58.90625 
Q 16.5 51.421875 16.5 36.375 
Q 16.5 21.390625 20.328125 13.890625 
Q 24.171875 6.390625 31.78125 6.390625 
Q 39.453125 6.390625 43.28125 13.890625 
Q 47.125 21.390625 47.125 36.375 
Q 47.125 51.421875 43.28125 58.90625 
Q 39.453125 66.40625 31.78125 66.40625 
z
M 31.78125 74.21875 
Q 44.046875 74.21875 50.515625 64.515625 
Q 56.984375 54.828125 56.984375 36.375 
Q 56.984375 17.96875 50.515625 8.265625 
Q 44.046875 -1.421875 31.78125 -1.421875 
Q 19.53125 -1.421875 13.0625 8.265625 
Q 6.59375 17.96875 6.59375 36.375 
Q 6.59375 54.828125 13.0625 64.515625 
Q 19.53125 74.21875 31.78125 74.21875 
z
" id="DejaVuSans-48"/>
      </defs>
      <g transform="translate(66.036932 266.598437)scale(0.1 -0.1)">
       <use xlink:href="#DejaVuSans-48"/>
      </g>
     </g>
    </g>
    <g id="xtick_2">
     <g id="line2d_2">
      <g>
       <use style="stroke:#000000;stroke-width:0.8;" x="127.952963" xlink:href="#m65c8b8849f" y="252"/>
      </g>
     </g>
     <g id="text_2">
      <!-- 1000 -->
      <defs>
       <path d="M 12.40625 8.296875 
L 28.515625 8.296875 
L 28.515625 63.921875 
L 10.984375 60.40625 
L 10.984375 69.390625 
L 28.421875 72.90625 
L 38.28125 72.90625 
L 38.28125 8.296875 
L 54.390625 8.296875 
L 54.390625 0 
L 12.40625 0 
z
" id="DejaVuSans-49"/>
      </defs>
      <g transform="translate(115.227963 266.598437)scale(0.1 -0.1)">
       <use xlink:href="#DejaVuSans-49"/>
       <use x="63.623047" xlink:href="#DejaVuSans-48"/>
       <use x="127.246094" xlink:href="#DejaVuSans-48"/>
       <use x="190.869141" xlink:href="#DejaVuSans-48"/>
      </g>
     </g>
    </g>
    <g id="xtick_3">
     <g id="line2d_3">
      <g>
       <use style="stroke:#000000;stroke-width:0.8;" x="186.687744" xlink:href="#m65c8b8849f" y="252"/>
      </g>
     </g>
     <g id="text_3">
      <!-- 2000 -->
      <defs>
       <path d="M 19.1875 8.296875 
L 53.609375 8.296875 
L 53.609375 0 
L 7.328125 0 
L 7.328125 8.296875 
Q 12.9375 14.109375 22.625 23.890625 
Q 32.328125 33.6875 34.8125 36.53125 
Q 39.546875 41.84375 41.421875 45.53125 
Q 43.3125 49.21875 43.3125 52.78125 
Q 43.3125 58.59375 39.234375 62.25 
Q 35.15625 65.921875 28.609375 65.921875 
Q 23.96875 65.921875 18.8125 64.3125 
Q 13.671875 62.703125 7.8125 59.421875 
L 7.8125 69.390625 
Q 13.765625 71.78125 18.9375 73 
Q 24.125 74.21875 28.421875 74.21875 
Q 39.75 74.21875 46.484375 68.546875 
Q 53.21875 62.890625 53.21875 53.421875 
Q 53.21875 48.921875 51.53125 44.890625 
Q 49.859375 40.875 45.40625 35.40625 
Q 44.1875 33.984375 37.640625 27.21875 
Q 31.109375 20.453125 19.1875 8.296875 
z
" id="DejaVuSans-50"/>
      </defs>
      <g transform="translate(173.962744 266.598437)scale(0.1 -0.1)">
       <use xlink:href="#DejaVuSans-50"/>
       <use x="63.623047" xlink:href="#DejaVuSans-48"/>
       <use x="127.246094" xlink:href="#DejaVuSans-48"/>
       <use x="190.869141" xlink:href="#DejaVuSans-48"/>
      </g>
     </g>
    </g>
    <g id="xtick_4">
     <g id="line2d_4">
      <g>
       <use style="stroke:#000000;stroke-width:0.8;" x="245.422526" xlink:href="#m65c8b8849f" y="252"/>
      </g>
     </g>
     <g id="text_4">
      <!-- 3000 -->
      <defs>
       <path d="M 40.578125 39.3125 
Q 47.65625 37.796875 51.625 33 
Q 55.609375 28.21875 55.609375 21.1875 
Q 55.609375 10.40625 48.1875 4.484375 
Q 40.765625 -1.421875 27.09375 -1.421875 
Q 22.515625 -1.421875 17.65625 -0.515625 
Q 12.796875 0.390625 7.625 2.203125 
L 7.625 11.71875 
Q 11.71875 9.328125 16.59375 8.109375 
Q 21.484375 6.890625 26.8125 6.890625 
Q 36.078125 6.890625 40.9375 10.546875 
Q 45.796875 14.203125 45.796875 21.1875 
Q 45.796875 27.640625 41.28125 31.265625 
Q 36.765625 34.90625 28.71875 34.90625 
L 20.21875 34.90625 
L 20.21875 43.015625 
L 29.109375 43.015625 
Q 36.375 43.015625 40.234375 45.921875 
Q 44.09375 48.828125 44.09375 54.296875 
Q 44.09375 59.90625 40.109375 62.90625 
Q 36.140625 65.921875 28.71875 65.921875 
Q 24.65625 65.921875 20.015625 65.03125 
Q 15.375 64.15625 9.8125 62.3125 
L 9.8125 71.09375 
Q 15.4375 72.65625 20.34375 73.4375 
Q 25.25 74.21875 29.59375 74.21875 
Q 40.828125 74.21875 47.359375 69.109375 
Q 53.90625 64.015625 53.90625 55.328125 
Q 53.90625 49.265625 50.4375 45.09375 
Q 46.96875 40.921875 40.578125 39.3125 
z
" id="DejaVuSans-51"/>
      </defs>
      <g transform="translate(232.697526 266.598437)scale(0.1 -0.1)">
       <use xlink:href="#DejaVuSans-51"/>
       <use x="63.623047" xlink:href="#DejaVuSans-48"/>
       <use x="127.246094" xlink:href="#DejaVuSans-48"/>
       <use x="190.869141" xlink:href="#DejaVuSans-48"/>
      </g>
     </g>
    </g>
    <g id="xtick_5">
     <g id="line2d_5">
      <g>
       <use style="stroke:#000000;stroke-width:0.8;" x="304.157307" xlink:href="#m65c8b8849f" y="252"/>
      </g>
     </g>
     <g id="text_5">
      <!-- 4000 -->
      <defs>
       <path d="M 37.796875 64.3125 
L 12.890625 25.390625 
L 37.796875 25.390625 
z
M 35.203125 72.90625 
L 47.609375 72.90625 
L 47.609375 25.390625 
L 58.015625 25.390625 
L 58.015625 17.1875 
L 47.609375 17.1875 
L 47.609375 0 
L 37.796875 0 
L 37.796875 17.1875 
L 4.890625 17.1875 
L 4.890625 26.703125 
z
" id="DejaVuSans-52"/>
      </defs>
      <g transform="translate(291.432307 266.598437)scale(0.1 -0.1)">
       <use xlink:href="#DejaVuSans-52"/>
       <use x="63.623047" xlink:href="#DejaVuSans-48"/>
       <use x="127.246094" xlink:href="#DejaVuSans-48"/>
       <use x="190.869141" xlink:href="#DejaVuSans-48"/>
      </g>
     </g>
    </g>
    <g id="xtick_6">
     <g id="line2d_6">
      <g>
       <use style="stroke:#000000;stroke-width:0.8;" x="362.892088" xlink:href="#m65c8b8849f" y="252"/>
      </g>
     </g>
     <g id="text_6">
      <!-- 5000 -->
      <defs>
       <path d="M 10.796875 72.90625 
L 49.515625 72.90625 
L 49.515625 64.59375 
L 19.828125 64.59375 
L 19.828125 46.734375 
Q 21.96875 47.46875 24.109375 47.828125 
Q 26.265625 48.1875 28.421875 48.1875 
Q 40.625 48.1875 47.75 41.5 
Q 54.890625 34.8125 54.890625 23.390625 
Q 54.890625 11.625 47.5625 5.09375 
Q 40.234375 -1.421875 26.90625 -1.421875 
Q 22.3125 -1.421875 17.546875 -0.640625 
Q 12.796875 0.140625 7.71875 1.703125 
L 7.71875 11.625 
Q 12.109375 9.234375 16.796875 8.0625 
Q 21.484375 6.890625 26.703125 6.890625 
Q 35.15625 6.890625 40.078125 11.328125 
Q 45.015625 15.765625 45.015625 23.390625 
Q 45.015625 31 40.078125 35.4375 
Q 35.15625 39.890625 26.703125 39.890625 
Q 22.75 39.890625 18.8125 39.015625 
Q 14.890625 38.140625 10.796875 36.28125 
z
" id="DejaVuSans-53"/>
      </defs>
      <g transform="translate(350.167088 266.598437)scale(0.1 -0.1)">
       <use xlink:href="#DejaVuSans-53"/>
       <use x="63.623047" xlink:href="#DejaVuSans-48"/>
       <use x="127.246094" xlink:href="#DejaVuSans-48"/>
       <use x="190.869141" xlink:href="#DejaVuSans-48"/>
      </g>
     </g>
    </g>
    <g id="text_7">
     <!-- Frames -->
     <defs>
      <path d="M 9.8125 72.90625 
L 51.703125 72.90625 
L 51.703125 64.59375 
L 19.671875 64.59375 
L 19.671875 43.109375 
L 48.578125 43.109375 
L 48.578125 34.8125 
L 19.671875 34.8125 
L 19.671875 0 
L 9.8125 0 
z
" id="DejaVuSans-70"/>
      <path d="M 41.109375 46.296875 
Q 39.59375 47.171875 37.8125 47.578125 
Q 36.03125 48 33.890625 48 
Q 26.265625 48 22.1875 43.046875 
Q 18.109375 38.09375 18.109375 28.8125 
L 18.109375 0 
L 9.078125 0 
L 9.078125 54.6875 
L 18.109375 54.6875 
L 18.109375 46.1875 
Q 20.953125 51.171875 25.484375 53.578125 
Q 30.03125 56 36.53125 56 
Q 37.453125 56 38.578125 55.875 
Q 39.703125 55.765625 41.0625 55.515625 
z
" id="DejaVuSans-114"/>
      <path d="M 34.28125 27.484375 
Q 23.390625 27.484375 19.1875 25 
Q 14.984375 22.515625 14.984375 16.5 
Q 14.984375 11.71875 18.140625 8.90625 
Q 21.296875 6.109375 26.703125 6.109375 
Q 34.1875 6.109375 38.703125 11.40625 
Q 43.21875 16.703125 43.21875 25.484375 
L 43.21875 27.484375 
z
M 52.203125 31.203125 
L 52.203125 0 
L 43.21875 0 
L 43.21875 8.296875 
Q 40.140625 3.328125 35.546875 0.953125 
Q 30.953125 -1.421875 24.3125 -1.421875 
Q 15.921875 -1.421875 10.953125 3.296875 
Q 6 8.015625 6 15.921875 
Q 6 25.140625 12.171875 29.828125 
Q 18.359375 34.515625 30.609375 34.515625 
L 43.21875 34.515625 
L 43.21875 35.40625 
Q 43.21875 41.609375 39.140625 45 
Q 35.0625 48.390625 27.6875 48.390625 
Q 23 48.390625 18.546875 47.265625 
Q 14.109375 46.140625 10.015625 43.890625 
L 10.015625 52.203125 
Q 14.9375 54.109375 19.578125 55.046875 
Q 24.21875 56 28.609375 56 
Q 40.484375 56 46.34375 49.84375 
Q 52.203125 43.703125 52.203125 31.203125 
z
" id="DejaVuSans-97"/>
      <path d="M 52 44.1875 
Q 55.375 50.25 60.0625 53.125 
Q 64.75 56 71.09375 56 
Q 79.640625 56 84.28125 50.015625 
Q 88.921875 44.046875 88.921875 33.015625 
L 88.921875 0 
L 79.890625 0 
L 79.890625 32.71875 
Q 79.890625 40.578125 77.09375 44.375 
Q 74.3125 48.1875 68.609375 48.1875 
Q 61.625 48.1875 57.5625 43.546875 
Q 53.515625 38.921875 53.515625 30.90625 
L 53.515625 0 
L 44.484375 0 
L 44.484375 32.71875 
Q 44.484375 40.625 41.703125 44.40625 
Q 38.921875 48.1875 33.109375 48.1875 
Q 26.21875 48.1875 22.15625 43.53125 
Q 18.109375 38.875 18.109375 30.90625 
L 18.109375 0 
L 9.078125 0 
L 9.078125 54.6875 
L 18.109375 54.6875 
L 18.109375 46.1875 
Q 21.1875 51.21875 25.484375 53.609375 
Q 29.78125 56 35.6875 56 
Q 41.65625 56 45.828125 52.96875 
Q 50 49.953125 52 44.1875 
z
" id="DejaVuSans-109"/>
      <path d="M 56.203125 29.59375 
L 56.203125 25.203125 
L 14.890625 25.203125 
Q 15.484375 15.921875 20.484375 11.0625 
Q 25.484375 6.203125 34.421875 6.203125 
Q 39.59375 6.203125 44.453125 7.46875 
Q 49.3125 8.734375 54.109375 11.28125 
L 54.109375 2.78125 
Q 49.265625 0.734375 44.1875 -0.34375 
Q 39.109375 -1.421875 33.890625 -1.421875 
Q 20.796875 -1.421875 13.15625 6.1875 
Q 5.515625 13.8125 5.515625 26.8125 
Q 5.515625 40.234375 12.765625 48.109375 
Q 20.015625 56 32.328125 56 
Q 43.359375 56 49.78125 48.890625 
Q 56.203125 41.796875 56.203125 29.59375 
z
M 47.21875 32.234375 
Q 47.125 39.59375 43.09375 43.984375 
Q 39.0625 48.390625 32.421875 48.390625 
Q 24.90625 48.390625 20.390625 44.140625 
Q 15.875 39.890625 15.1875 32.171875 
z
" id="DejaVuSans-101"/>
      <path d="M 44.28125 53.078125 
L 44.28125 44.578125 
Q 40.484375 46.53125 36.375 47.5 
Q 32.28125 48.484375 27.875 48.484375 
Q 21.1875 48.484375 17.84375 46.4375 
Q 14.5 44.390625 14.5 40.28125 
Q 14.5 37.15625 16.890625 35.375 
Q 19.28125 33.59375 26.515625 31.984375 
L 29.59375 31.296875 
Q 39.15625 29.25 43.1875 25.515625 
Q 47.21875 21.78125 47.21875 15.09375 
Q 47.21875 7.46875 41.1875 3.015625 
Q 35.15625 -1.421875 24.609375 -1.421875 
Q 20.21875 -1.421875 15.453125 -0.5625 
Q 10.6875 0.296875 5.421875 2 
L 5.421875 11.28125 
Q 10.40625 8.6875 15.234375 7.390625 
Q 20.0625 6.109375 24.8125 6.109375 
Q 31.15625 6.109375 34.5625 8.28125 
Q 37.984375 10.453125 37.984375 14.40625 
Q 37.984375 18.0625 35.515625 20.015625 
Q 33.0625 21.96875 24.703125 23.78125 
L 21.578125 24.515625 
Q 13.234375 26.265625 9.515625 29.90625 
Q 5.8125 33.546875 5.8125 39.890625 
Q 5.8125 47.609375 11.28125 51.796875 
Q 16.75 56 26.8125 56 
Q 31.78125 56 36.171875 55.265625 
Q 40.578125 54.546875 44.28125 53.078125 
z
" id="DejaVuSans-115"/>
     </defs>
     <g transform="translate(191.73375 284.835625)scale(0.16 -0.16)">
      <use xlink:href="#DejaVuSans-70"/>
      <use x="57.410156" xlink:href="#DejaVuSans-114"/>
      <use x="98.523438" xlink:href="#DejaVuSans-97"/>
      <use x="159.802734" xlink:href="#DejaVuSans-109"/>
      <use x="257.214844" xlink:href="#DejaVuSans-101"/>
      <use x="318.738281" xlink:href="#DejaVuSans-115"/>
     </g>
    </g>
   </g>
   <g id="matplotlib.axis_2">
    <g id="ytick_1">
     <g id="line2d_7">
      <defs>
       <path d="M 0 0 
L -3.5 0 
" id="m9e66de6e39" style="stroke:#000000;stroke-width:0.8;"/>
      </defs>
      <g>
       <use style="stroke:#000000;stroke-width:0.8;" x="54" xlink:href="#m9e66de6e39" y="245.146752"/>
      </g>
     </g>
     <g id="text_8">
      <!-- 0 -->
      <g transform="translate(40.6375 248.945971)scale(0.1 -0.1)">
       <use xlink:href="#DejaVuSans-48"/>
      </g>
     </g>
    </g>
    <g id="ytick_2">
     <g id="line2d_8">
      <g>
       <use style="stroke:#000000;stroke-width:0.8;" x="54" xlink:href="#m9e66de6e39" y="198.760657"/>
      </g>
     </g>
     <g id="text_9">
      <!-- 10 -->
      <g transform="translate(34.275 202.559876)scale(0.1 -0.1)">
       <use xlink:href="#DejaVuSans-49"/>
       <use x="63.623047" xlink:href="#DejaVuSans-48"/>
      </g>
     </g>
    </g>
    <g id="ytick_3">
     <g id="line2d_9">
      <g>
       <use style="stroke:#000000;stroke-width:0.8;" x="54" xlink:href="#m9e66de6e39" y="152.374563"/>
      </g>
     </g>
     <g id="text_10">
      <!-- 20 -->
      <g transform="translate(34.275 156.173782)scale(0.1 -0.1)">
       <use xlink:href="#DejaVuSans-50"/>
       <use x="63.623047" xlink:href="#DejaVuSans-48"/>
      </g>
     </g>
    </g>
    <g id="ytick_4">
     <g id="line2d_10">
      <g>
       <use style="stroke:#000000;stroke-width:0.8;" x="54" xlink:href="#m9e66de6e39" y="105.988469"/>
      </g>
     </g>
     <g id="text_11">
      <!-- 30 -->
      <g transform="translate(34.275 109.787687)scale(0.1 -0.1)">
       <use xlink:href="#DejaVuSans-51"/>
       <use x="63.623047" xlink:href="#DejaVuSans-48"/>
      </g>
     </g>
    </g>
    <g id="ytick_5">
     <g id="line2d_11">
      <g>
       <use style="stroke:#000000;stroke-width:0.8;" x="54" xlink:href="#m9e66de6e39" y="59.602374"/>
      </g>
     </g>
     <g id="text_12">
      <!-- 40 -->
      <g transform="translate(34.275 63.401593)scale(0.1 -0.1)">
       <use xlink:href="#DejaVuSans-52"/>
       <use x="63.623047" xlink:href="#DejaVuSans-48"/>
      </g>
     </g>
    </g>
    <g id="text_13">
     <!-- Average Brightness -->
     <defs>
      <path d="M 34.1875 63.1875 
L 20.796875 26.90625 
L 47.609375 26.90625 
z
M 28.609375 72.90625 
L 39.796875 72.90625 
L 67.578125 0 
L 57.328125 0 
L 50.6875 18.703125 
L 17.828125 18.703125 
L 11.1875 0 
L 0.78125 0 
z
" id="DejaVuSans-65"/>
      <path d="M 2.984375 54.6875 
L 12.5 54.6875 
L 29.59375 8.796875 
L 46.6875 54.6875 
L 56.203125 54.6875 
L 35.6875 0 
L 23.484375 0 
z
" id="DejaVuSans-118"/>
      <path d="M 45.40625 27.984375 
Q 45.40625 37.75 41.375 43.109375 
Q 37.359375 48.484375 30.078125 48.484375 
Q 22.859375 48.484375 18.828125 43.109375 
Q 14.796875 37.75 14.796875 27.984375 
Q 14.796875 18.265625 18.828125 12.890625 
Q 22.859375 7.515625 30.078125 7.515625 
Q 37.359375 7.515625 41.375 12.890625 
Q 45.40625 18.265625 45.40625 27.984375 
z
M 54.390625 6.78125 
Q 54.390625 -7.171875 48.1875 -13.984375 
Q 42 -20.796875 29.203125 -20.796875 
Q 24.46875 -20.796875 20.265625 -20.09375 
Q 16.0625 -19.390625 12.109375 -17.921875 
L 12.109375 -9.1875 
Q 16.0625 -11.328125 19.921875 -12.34375 
Q 23.78125 -13.375 27.78125 -13.375 
Q 36.625 -13.375 41.015625 -8.765625 
Q 45.40625 -4.15625 45.40625 5.171875 
L 45.40625 9.625 
Q 42.625 4.78125 38.28125 2.390625 
Q 33.9375 0 27.875 0 
Q 17.828125 0 11.671875 7.65625 
Q 5.515625 15.328125 5.515625 27.984375 
Q 5.515625 40.671875 11.671875 48.328125 
Q 17.828125 56 27.875 56 
Q 33.9375 56 38.28125 53.609375 
Q 42.625 51.21875 45.40625 46.390625 
L 45.40625 54.6875 
L 54.390625 54.6875 
z
" id="DejaVuSans-103"/>
      <path id="DejaVuSans-32"/>
      <path d="M 19.671875 34.8125 
L 19.671875 8.109375 
L 35.5 8.109375 
Q 43.453125 8.109375 47.28125 11.40625 
Q 51.125 14.703125 51.125 21.484375 
Q 51.125 28.328125 47.28125 31.5625 
Q 43.453125 34.8125 35.5 34.8125 
z
M 19.671875 64.796875 
L 19.671875 42.828125 
L 34.28125 42.828125 
Q 41.5 42.828125 45.03125 45.53125 
Q 48.578125 48.25 48.578125 53.8125 
Q 48.578125 59.328125 45.03125 62.0625 
Q 41.5 64.796875 34.28125 64.796875 
z
M 9.8125 72.90625 
L 35.015625 72.90625 
Q 46.296875 72.90625 52.390625 68.21875 
Q 58.5 63.53125 58.5 54.890625 
Q 58.5 48.1875 55.375 44.234375 
Q 52.25 40.28125 46.1875 39.3125 
Q 53.46875 37.75 57.5 32.78125 
Q 61.53125 27.828125 61.53125 20.40625 
Q 61.53125 10.640625 54.890625 5.3125 
Q 48.25 0 35.984375 0 
L 9.8125 0 
z
" id="DejaVuSans-66"/>
      <path d="M 9.421875 54.6875 
L 18.40625 54.6875 
L 18.40625 0 
L 9.421875 0 
z
M 9.421875 75.984375 
L 18.40625 75.984375 
L 18.40625 64.59375 
L 9.421875 64.59375 
z
" id="DejaVuSans-105"/>
      <path d="M 54.890625 33.015625 
L 54.890625 0 
L 45.90625 0 
L 45.90625 32.71875 
Q 45.90625 40.484375 42.875 44.328125 
Q 39.84375 48.1875 33.796875 48.1875 
Q 26.515625 48.1875 22.3125 43.546875 
Q 18.109375 38.921875 18.109375 30.90625 
L 18.109375 0 
L 9.078125 0 
L 9.078125 75.984375 
L 18.109375 75.984375 
L 18.109375 46.1875 
Q 21.34375 51.125 25.703125 53.5625 
Q 30.078125 56 35.796875 56 
Q 45.21875 56 50.046875 50.171875 
Q 54.890625 44.34375 54.890625 33.015625 
z
" id="DejaVuSans-104"/>
      <path d="M 18.3125 70.21875 
L 18.3125 54.6875 
L 36.8125 54.6875 
L 36.8125 47.703125 
L 18.3125 47.703125 
L 18.3125 18.015625 
Q 18.3125 11.328125 20.140625 9.421875 
Q 21.96875 7.515625 27.59375 7.515625 
L 36.8125 7.515625 
L 36.8125 0 
L 27.59375 0 
Q 17.1875 0 13.234375 3.875 
Q 9.28125 7.765625 9.28125 18.015625 
L 9.28125 47.703125 
L 2.6875 47.703125 
L 2.6875 54.6875 
L 9.28125 54.6875 
L 9.28125 70.21875 
z
" id="DejaVuSans-116"/>
      <path d="M 54.890625 33.015625 
L 54.890625 0 
L 45.90625 0 
L 45.90625 32.71875 
Q 45.90625 40.484375 42.875 44.328125 
Q 39.84375 48.1875 33.796875 48.1875 
Q 26.515625 48.1875 22.3125 43.546875 
Q 18.109375 38.921875 18.109375 30.90625 
L 18.109375 0 
L 9.078125 0 
L 9.078125 54.6875 
L 18.109375 54.6875 
L 18.109375 46.1875 
Q 21.34375 51.125 25.703125 53.5625 
Q 30.078125 56 35.796875 56 
Q 45.21875 56 50.046875 50.171875 
Q 54.890625 44.34375 54.890625 33.015625 
z
" id="DejaVuSans-110"/>
     </defs>
     <g transform="translate(26.9475 221.75125)rotate(-90)scale(0.16 -0.16)">
      <use xlink:href="#DejaVuSans-65"/>
      <use x="68.330078" xlink:href="#DejaVuSans-118"/>
      <use x="127.509766" xlink:href="#DejaVuSans-101"/>
      <use x="189.033203" xlink:href="#DejaVuSans-114"/>
      <use x="230.146484" xlink:href="#DejaVuSans-97"/>
      <use x="291.425781" xlink:href="#DejaVuSans-103"/>
      <use x="354.902344" xlink:href="#DejaVuSans-101"/>
      <use x="416.425781" xlink:href="#DejaVuSans-32"/>
      <use x="448.212891" xlink:href="#DejaVuSans-66"/>
      <use x="516.816406" xlink:href="#DejaVuSans-114"/>
      <use x="557.929688" xlink:href="#DejaVuSans-105"/>
      <use x="585.712891" xlink:href="#DejaVuSans-103"/>
      <use x="649.189453" xlink:href="#DejaVuSans-104"/>
      <use x="712.568359" xlink:href="#DejaVuSans-116"/>
      <use x="751.777344" xlink:href="#DejaVuSans-110"/>
      <use x="815.15625" xlink:href="#DejaVuSans-101"/>
      <use x="876.679688" xlink:href="#DejaVuSans-115"/>
      <use x="928.779297" xlink:href="#DejaVuSans-115"/>
     </g>
    </g>
   </g>
   <g id="line2d_12">
    <path clip-path="url(#p40eb93cadc)" d="M 69.218182 185.399593 
L 69.276917 181.421094 
L 69.335651 184.92129 
L 69.570591 178.965859 
L 69.746795 182.056566 
L 69.864264 181.160278 
L 69.922999 180.794966 
L 69.981734 181.414297 
L 70.040469 184.447234 
L 70.099204 183.897567 
L 70.157938 183.614663 
L 70.216673 183.737 
L 70.275408 182.021734 
L 70.334143 182.697986 
L 70.451612 186.048659 
L 70.510347 186.283987 
L 70.745286 183.164395 
L 70.804021 182.618127 
L 70.92149 187.978864 
L 70.980225 184.829537 
L 71.03896 184.988405 
L 71.097695 187.231249 
L 71.15643 187.006115 
L 71.273899 184.344437 
L 71.450104 187.745234 
L 71.567573 180.717656 
L 71.685043 182.643614 
L 71.743777 180.749939 
L 71.802512 182.011539 
L 71.978717 183.652893 
L 72.037451 183.933249 
L 72.096186 185.854109 
L 72.154921 185.201645 
L 72.213656 183.112572 
L 72.38986 189.549704 
L 72.448595 189.691581 
L 72.566064 186.525263 
L 72.801003 189.004286 
L 72.918473 185.32738 
L 72.977208 186.256801 
L 73.035943 182.732818 
L 73.094677 183.595973 
L 73.153412 186.249155 
L 73.212147 185.962003 
L 73.270882 183.50422 
L 73.329617 186.416519 
L 73.388351 186.06565 
L 73.447086 186.346855 
L 73.505821 181.749025 
L 73.564556 186.449652 
L 73.62329 184.541535 
L 73.682025 184.269676 
L 73.85823 190.87757 
L 73.916964 186.853194 
L 73.975699 187.282223 
L 74.034434 187.316205 
L 74.093169 185.621329 
L 74.151903 185.931419 
L 74.210638 186.053756 
L 74.328108 188.078263 
L 74.386843 187.566826 
L 74.445577 186.264448 
L 74.563047 187.968669 
L 74.621782 181.916388 
L 74.680516 185.895738 
L 74.856721 192.164657 
L 74.915456 189.9473 
L 74.97419 187.587216 
L 75.032925 190.297319 
L 75.09166 189.463899 
L 75.150395 188.805488 
L 75.20913 192.428021 
L 75.267864 190.386523 
L 75.444069 188.228635 
L 75.561538 190.584471 
L 75.620273 192.101789 
L 75.679008 189.676289 
L 75.796477 192.303985 
L 75.855212 192.098391 
L 75.913947 193.670931 
L 75.972682 190.830844 
L 76.090151 194.992 
L 76.148886 190.654985 
L 76.207621 192.00239 
L 76.266356 190.186876 
L 76.32509 191.735628 
L 76.383825 191.559769 
L 76.501295 194.666617 
L 76.618764 193.974224 
L 76.677499 194.17727 
L 76.736234 194.099959 
L 76.794969 193.7304 
L 76.853703 189.774838 
L 76.912438 190.801959 
L 76.971173 193.455142 
L 77.029908 190.145247 
L 77.088643 193.136556 
L 77.147377 192.462853 
L 77.264847 194.856919 
L 77.323582 193.947888 
L 77.382316 191.064474 
L 77.441051 192.622571 
L 77.499786 195.664003 
L 77.558521 193.668382 
L 77.617256 192.087347 
L 77.67599 192.518075 
L 77.734725 196.166095 
L 77.910929 190.678773 
L 78.028399 194.794052 
L 78.087134 191.218245 
L 78.145869 191.426387 
L 78.204603 194.687007 
L 78.263338 192.681191 
L 78.322073 193.533301 
L 78.439542 197.040294 
L 78.498277 194.241836 
L 78.557012 196.133811 
L 78.615747 195.943509 
L 78.674482 193.519708 
L 78.733216 195.144921 
L 78.850686 193.752488 
L 78.909421 193.976773 
L 78.968156 193.767781 
L 79.02689 194.607148 
L 79.14436 192.806926 
L 79.320564 194.668316 
L 79.438034 194.031994 
L 79.496769 194.775361 
L 79.555503 194.532387 
L 79.614238 192.409331 
L 79.672973 192.516376 
L 79.731708 195.824571 
L 79.790442 192.360906 
L 79.849177 194.905344 
L 80.025382 191.734778 
L 80.084116 195.488144 
L 80.142851 194.718441 
L 80.37779 190.914101 
L 80.436525 193.124662 
L 80.49526 191.562317 
L 80.553995 190.905606 
L 80.671464 191.961611 
L 80.847669 186.18289 
L 80.906403 185.373257 
L 80.965138 190.350842 
L 81.023873 189.86914 
L 81.141342 188.946515 
L 81.200077 192.369401 
L 81.258812 190.302417 
L 81.317547 189.651652 
L 81.376282 192.31333 
L 81.435016 188.920179 
L 81.493751 190.445143 
L 81.552486 189.88783 
L 81.72869 193.43985 
L 81.84616 188.270264 
L 81.904895 189.40358 
L 82.022364 189.835157 
L 82.139834 194.106756 
L 82.198568 193.041405 
L 82.316038 188.475858 
L 82.374773 191.941222 
L 82.433508 190.010167 
L 82.492242 189.987229 
L 82.550977 189.076498 
L 82.609712 189.898874 
L 82.668447 188.990693 
L 82.727182 189.452854 
L 83.020855 187.75288 
L 83.07959 188.009448 
L 83.138325 192.636164 
L 83.19706 191.560618 
L 83.255795 190.251443 
L 83.314529 191.063624 
L 83.373264 190.618454 
L 83.431999 191.753469 
L 83.549468 188.078263 
L 83.608203 190.747587 
L 83.666938 188.894692 
L 83.725673 188.787647 
L 83.901877 191.699097 
L 83.960612 190.457886 
L 84.019347 192.575845 
L 84.078081 190.695764 
L 84.136816 192.071205 
L 84.195551 187.529446 
L 84.254286 187.984811 
L 84.313021 190.271832 
L 84.371755 188.579504 
L 84.43049 189.457952 
L 84.489225 192.083099 
L 84.54796 191.958213 
L 84.606695 188.732426 
L 84.665429 189.847901 
L 84.724164 192.550358 
L 84.782899 190.161389 
L 84.841634 192.183347 
L 84.900368 190.069636 
L 84.959103 191.394953 
L 85.017838 191.810389 
L 85.252777 188.18106 
L 85.311512 188.249874 
L 85.487716 187.05539 
L 85.546451 190.162239 
L 85.605186 189.139366 
L 85.722655 188.091006 
L 85.78139 188.835223 
L 85.840125 188.772355 
L 85.957594 185.973897 
L 86.075064 188.671257 
L 86.133799 185.418284 
L 86.192534 187.584667 
L 86.251268 189.020427 
L 86.310003 188.304246 
L 86.368738 186.29928 
L 86.544942 189.824963 
L 86.603677 188.430831 
L 86.662412 188.979648 
L 86.779881 188.189555 
L 86.838616 188.621983 
L 87.073555 183.881426 
L 87.13229 188.556566 
L 87.191025 187.995855 
L 87.24976 187.323002 
L 87.367229 181.878158 
L 87.543434 185.543169 
L 87.602168 186.901619 
L 87.719638 185.118388 
L 87.778373 187.52095 
L 87.954577 184.228897 
L 88.013312 184.426845 
L 88.130781 187.577021 
L 88.189516 185.982393 
L 88.248251 184.729289 
L 88.306986 185.287451 
L 88.424455 186.625511 
L 88.541925 183.839797 
L 88.659394 186.180341 
L 88.718129 184.191516 
L 88.894334 186.888026 
L 88.953068 184.307056 
L 89.011803 185.782746 
L 89.305477 182.252815 
L 89.364212 183.81516 
L 89.422947 181.653024 
L 89.481681 183.414166 
L 89.540416 182.556109 
L 89.599151 184.544934 
L 89.657886 182.962199 
L 89.71662 184.713997 
L 89.775355 183.845744 
L 89.95156 182.529772 
L 90.069029 185.378354 
L 90.186499 182.06846 
L 90.245234 183.470238 
L 90.303968 182.32078 
L 90.362703 185.558461 
L 90.421438 183.590875 
L 90.597642 180.970826 
L 90.656377 179.117931 
L 90.715112 180.310716 
L 90.773847 181.787255 
L 90.832581 178.180863 
L 90.891316 179.173152 
L 91.008786 181.610546 
L 91.06752 180.907108 
L 91.126255 181.771113 
L 91.18499 181.435536 
L 91.243725 181.590156 
L 91.361194 180.340451 
L 91.419929 181.38881 
L 91.596133 179.452658 
L 91.654868 179.672695 
L 91.772338 179.247064 
L 91.831073 181.415996 
L 91.889807 180.038856 
L 91.948542 180.312415 
L 92.007277 177.958278 
L 92.066012 178.710141 
L 92.124747 180.676028 
L 92.183481 179.50618 
L 92.242216 178.637078 
L 92.359686 181.736281 
L 92.53589 177.209814 
L 92.594625 177.54794 
L 92.712094 180.885869 
L 92.770829 180.582576 
L 92.829564 178.391555 
L 92.888299 179.542712 
L 92.947033 180.277583 
L 93.005768 182.899332 
L 93.064503 181.345483 
L 93.240707 178.629432 
L 93.416912 183.238307 
L 93.593116 179.430569 
L 93.651851 182.605383 
L 93.710586 182.55356 
L 93.88679 179.848554 
L 94.062994 183.789673 
L 94.239199 179.08055 
L 94.297933 179.128125 
L 94.415403 184.042842 
L 94.474138 183.062448 
L 94.532873 182.945208 
L 94.591607 181.289411 
L 94.650342 181.626688 
L 94.709077 181.554475 
L 94.767812 180.824701 
L 94.826546 181.210402 
L 94.885281 181.269872 
L 94.944016 182.620675 
L 95.061486 180.218963 
L 95.12022 179.980236 
L 95.178955 183.005527 
L 95.23769 180.12891 
L 95.296425 180.614859 
L 95.472629 183.185634 
L 95.531364 181.394757 
L 95.590099 182.275753 
L 95.707568 181.192561 
L 95.766303 181.220597 
L 95.825038 181.766016 
L 95.883772 180.230007 
L 95.942507 181.099959 
L 96.059977 180.218963 
L 96.118712 180.242751 
L 96.236181 178.309147 
L 96.294916 178.583556 
L 96.412386 179.096691 
L 96.58859 178.106952 
L 96.764794 176.388287 
L 96.882264 178.326988 
L 96.940999 176.186941 
L 96.999733 177.767976 
L 97.117203 179.910572 
L 97.293407 176.614271 
L 97.352142 176.892078 
L 97.410877 175.306795 
L 97.469612 176.361951 
L 97.528346 175.615186 
L 97.587081 176.925211 
L 97.645816 174.264382 
L 97.704551 176.124073 
L 97.763285 176.866591 
L 97.93949 174.976315 
L 97.998225 176.348358 
L 98.056959 175.068917 
L 98.115694 176.642306 
L 98.174429 175.82078 
L 98.409368 171.866068 
L 98.644307 175.770656 
L 98.937981 171.257781 
L 98.996716 172.458213 
L 99.055451 171.737784 
L 99.114185 171.697005 
L 99.17292 170.629105 
L 99.349125 173.357049 
L 99.525329 174.560879 
L 99.642798 171.108258 
L 99.701533 171.839731 
L 99.760268 175.585451 
L 99.819003 175.036634 
L 99.877738 170.485529 
L 99.936472 171.091267 
L 99.995207 171.692757 
L 100.053942 171.381817 
L 100.112677 170.81431 
L 100.171412 169.144071 
L 100.230146 170.23236 
L 100.288881 172.983242 
L 100.347616 169.871296 
L 100.406351 170.03781 
L 100.465085 170.280785 
L 100.52382 172.047025 
L 100.582555 171.3181 
L 100.64129 169.445665 
L 100.700025 169.856004 
L 100.758759 170.782027 
L 100.934964 167.191777 
L 100.993698 168.273269 
L 101.052433 168.880706 
L 101.111168 168.280066 
L 101.228638 172.556762 
L 101.346107 165.897894 
L 101.522311 171.656226 
L 101.639781 165.016898 
L 101.698516 168.340385 
L 101.757251 168.303004 
L 101.933455 170.429458 
L 101.99219 166.147665 
L 102.050925 169.541666 
L 102.109659 168.050684 
L 102.168394 168.85352 
L 102.285864 167.395672 
L 102.344598 168.314048 
L 102.462068 167.086431 
L 102.638272 169.6691 
L 102.814477 165.468865 
L 102.873211 167.024413 
L 102.931946 165.387307 
L 102.990681 166.557154 
L 103.049416 166.19609 
L 103.166885 164.459585 
L 103.284355 166.840058 
L 103.34309 166.184196 
L 103.401824 166.210533 
L 103.460559 167.937692 
L 103.578029 161.699357 
L 103.754233 163.966839 
L 103.812968 164.999906 
L 103.871703 163.495332 
L 103.930438 164.049246 
L 103.989172 165.415342 
L 104.047907 164.784967 
L 104.165377 162.849665 
L 104.341581 168.689555 
L 104.517785 162.565911 
L 104.57652 162.109696 
L 104.635255 159.957755 
L 104.752724 165.643875 
L 104.870194 164.982915 
L 104.987664 166.032124 
L 105.222603 162.224387 
L 105.281337 162.422335 
L 105.398807 158.86097 
L 105.575011 165.868159 
L 105.809951 159.767453 
L 105.92742 164.977818 
L 106.162359 161.511604 
L 106.221094 165.203801 
L 106.279829 163.661846 
L 106.456033 158.792156 
L 106.514768 160.689228 
L 106.573503 159.143874 
L 106.690972 158.768368 
L 106.867177 160.594077 
L 106.925911 161.303461 
L 107.102116 156.138973 
L 107.27832 158.20086 
L 107.39579 155.7949 
L 107.454524 158.199161 
L 107.513259 157.222165 
L 107.571994 157.935797 
L 107.689464 155.527288 
L 107.748198 155.722688 
L 107.806933 157.533954 
L 107.865668 156.217982 
L 107.924403 157.448998 
L 108.041872 152.052579 
L 108.100607 152.276014 
L 108.276811 156.076955 
L 108.394281 152.114597 
L 108.453016 153.877438 
L 108.62922 150.519969 
L 108.687955 150.318623 
L 108.74669 148.217655 
L 108.805424 149.17851 
L 108.922894 152.382209 
L 109.099098 149.420635 
L 109.157833 154.719355 
L 109.216568 152.67191 
L 109.392772 147.158251 
L 109.451507 146.181255 
L 109.510242 147.29673 
L 109.627711 143.140672 
L 109.686446 143.672498 
L 109.745181 146.267061 
L 109.803916 144.77438 
L 109.86265 145.04624 
L 109.921385 144.319015 
L 109.98012 144.802415 
L 110.038855 140.93266 
L 110.09759 140.986182 
L 110.215059 140.305683 
L 110.273794 139.559767 
L 110.332529 141.097475 
L 110.391263 140.924164 
L 110.684937 135.753729 
L 110.861142 140.308232 
L 110.978611 136.695044 
L 111.037346 136.808035 
L 111.096081 136.901487 
L 111.272285 133.676549 
L 111.33102 135.840384 
L 111.389755 133.322282 
L 111.44849 135.493763 
L 111.507224 134.767387 
L 111.565959 136.537875 
L 111.624694 135.119955 
L 111.800898 132.547481 
L 111.859633 133.717328 
L 112.035837 128.68792 
L 112.094572 128.879921 
L 112.153307 130.851755 
L 112.212042 130.122831 
L 112.270776 130.879791 
L 112.329511 128.586822 
L 112.505716 132.972262 
L 112.56445 132.512649 
L 112.68192 128.550291 
L 112.799389 133.860904 
L 112.858124 132.350383 
L 112.916859 134.210074 
L 112.975594 133.449716 
L 113.034329 131.689423 
L 113.093063 133.138776 
L 113.151798 132.471021 
L 113.210533 134.49043 
L 113.269268 133.056369 
L 113.504207 129.559571 
L 113.562942 132.022452 
L 113.621676 131.266341 
L 113.680411 131.518661 
L 113.739146 130.164459 
L 114.03282 134.929653 
L 114.091555 134.073295 
L 114.150289 135.849729 
L 114.209024 135.523497 
L 114.326494 135.112309 
L 114.385229 138.687267 
L 114.502698 134.444553 
L 114.561433 134.717263 
L 114.620168 138.012715 
L 114.678902 136.065518 
L 114.796372 132.367374 
L 114.913842 137.329667 
L 115.031311 134.615315 
L 115.148781 136.474157 
L 115.207516 135.042645 
L 115.26625 135.875216 
L 115.324985 137.002585 
L 115.38372 136.095253 
L 115.442455 132.789606 
L 115.501189 134.356199 
L 115.618659 138.695763 
L 115.912333 132.51095 
L 116.088537 135.691711 
L 116.147272 135.539639 
L 116.264742 137.175896 
L 116.323476 134.803918 
L 116.499681 140.519773 
L 116.675885 134.907565 
L 116.73462 132.725889 
L 116.793355 136.733274 
L 116.852089 135.347638 
L 116.910824 135.552383 
L 116.969559 134.934751 
L 117.087029 130.257062 
L 117.145763 131.13296 
L 117.321968 137.493632 
L 117.380702 135.783463 
L 117.439437 134.362995 
L 117.615642 138.982915 
L 117.674376 139.668511 
L 117.850581 136.518335 
L 117.96805 133.26791 
L 118.202989 130.914623 
L 118.261724 132.476967 
L 118.320459 130.975791 
L 118.379194 131.302873 
L 118.437928 133.252618 
L 118.496663 131.966381 
L 118.555398 130.033627 
L 118.790337 135.01461 
L 118.907807 137.592181 
L 119.142746 132.635836 
L 119.31895 134.380836 
L 119.377685 133.959453 
L 119.553889 126.835875 
L 119.671359 131.001278 
L 119.788828 130.643612 
L 119.906298 127.707525 
L 119.965033 127.896128 
L 120.082502 133.864302 
L 120.141237 132.95697 
L 120.199972 133.823523 
L 120.317441 130.989384 
L 120.434911 132.04454 
L 120.611115 126.664263 
L 120.66985 127.975987 
L 120.728585 128.63015 
L 121.022259 123.4886 
L 121.080994 123.719681 
L 121.198463 123.424883 
L 121.315933 124.538659 
L 121.374668 124.2634 
L 121.433402 128.816204 
L 121.492137 125.48677 
L 121.727076 117.760002 
L 122.196954 109.655179 
L 122.314424 113.345677 
L 122.373159 113.228437 
L 122.490628 115.716805 
L 122.608098 111.992324 
L 122.666833 112.376327 
L 122.725568 113.314243 
L 122.960507 108.717262 
L 123.019241 108.374039 
L 123.195446 111.524216 
L 123.37165 105.683476 
L 123.430385 105.727653 
L 123.665324 108.592377 
L 123.724059 107.357113 
L 123.782794 108.225366 
L 123.841528 111.675438 
L 123.900263 111.319471 
L 124.076467 104.385345 
L 124.252672 106.821889 
L 124.311407 103.839076 
L 124.370141 105.004676 
L 124.428876 105.246801 
L 124.487611 103.670863 
L 124.605081 105.77268 
L 124.663815 105.051402 
L 124.781285 102.151846 
L 124.84002 104.862799 
L 124.898754 104.535717 
L 124.957489 105.141455 
L 125.192428 99.694912 
L 125.251163 99.190272 
L 125.368633 101.865543 
L 125.486102 97.07996 
L 125.544837 98.94305 
L 125.603572 101.62002 
L 125.662307 101.544409 
L 125.721041 101.139168 
L 125.838511 102.105969 
L 125.897246 100.99814 
L 125.95598 101.061858 
L 126.014715 101.919915 
L 126.07345 98.290586 
L 126.132185 99.474875 
L 126.249654 98.129169 
L 126.308389 99.010165 
L 126.367124 98.198833 
L 126.425859 95.786076 
L 126.484594 97.231182 
L 126.543328 99.527548 
L 126.602063 99.415406 
L 126.660798 98.479189 
L 126.895737 103.686155 
L 126.954472 103.305551 
L 127.130676 98.358551 
L 127.248146 102.768628 
L 127.365615 96.019706 
L 127.42435 97.285554 
L 127.54182 99.811302 
L 127.776759 93.867765 
L 127.952963 99.365282 
L 128.011698 99.366981 
L 128.070433 97.203996 
L 128.129167 97.900637 
L 128.187902 98.338161 
L 128.246637 98.153806 
L 128.364107 102.326856 
L 128.422841 100.84352 
L 128.481576 103.399003 
L 128.716515 96.294964 
L 128.89272 93.713994 
L 128.951454 94.943311 
L 129.010189 90.163674 
L 129.068924 91.477097 
L 129.127659 91.596885 
L 129.186393 93.678313 
L 129.245128 92.625705 
L 129.303863 93.123549 
L 129.538802 97.629626 
L 129.656272 96.004414 
L 129.715006 92.991017 
L 129.773741 93.755623 
L 129.832476 95.899918 
L 129.891211 94.826921 
L 130.00868 91.680992 
L 130.12615 91.887436 
L 130.184885 91.508531 
L 130.24362 92.703015 
L 130.361089 89.685371 
L 130.419824 89.787318 
L 130.537293 89.888416 
L 130.713498 93.188965 
L 130.830967 91.227326 
L 131.007172 93.709747 
L 131.35958 86.151192 
L 131.418315 88.046565 
L 131.535785 85.28124 
L 131.594519 85.871686 
L 131.770724 89.638645 
L 131.829459 87.414491 
L 132.005663 94.584796 
L 132.240602 89.58937 
L 132.299337 89.45344 
L 132.769215 82.951741 
L 133.004154 86.997356 
L 133.062889 85.771438 
L 133.121624 86.478273 
L 133.239093 91.026829 
L 133.297828 90.715889 
L 133.474032 85.928607 
L 133.532767 86.080678 
L 133.591502 86.617602 
L 133.650237 89.198571 
L 133.708972 85.446905 
L 133.767706 86.112962 
L 133.826441 85.926058 
L 134.002646 82.384233 
L 134.120115 79.744644 
L 134.237585 79.889919 
L 134.355054 80.978208 
L 134.531259 83.611001 
L 134.589993 83.571072 
L 134.648728 83.976313 
L 134.766198 88.87234 
L 134.824932 86.71785 
L 134.883667 87.756864 
L 135.001137 82.54565 
L 135.059872 83.944029 
L 135.41228 77.123744 
L 135.471015 77.517941 
L 135.52975 79.079436 
L 135.588485 77.969908 
L 136.117098 86.308361 
L 136.175832 85.32117 
L 136.352037 79.995264 
L 136.586976 74.946316 
L 136.645711 74.786599 
L 136.704445 75.278495 
L 137.174324 85.085841 
L 137.350528 80.48886 
L 137.702937 74.724581 
L 137.761672 75.44331 
L 137.820406 75.042317 
L 137.937876 74.215693 
L 137.996611 74.253923 
L 138.055345 74.757714 
L 138.11408 73.959975 
L 138.172815 74.56996 
L 138.349019 77.738827 
L 138.466489 77.606296 
L 138.583958 74.665961 
L 138.642693 76.518856 
L 138.701428 75.399133 
L 138.818898 74.767908 
L 138.936367 73.163935 
L 138.995102 75.293787 
L 139.053837 75.207982 
L 139.112571 74.246277 
L 139.171306 75.043167 
L 139.230041 78.273202 
L 139.288776 77.684455 
L 139.347511 77.071071 
L 139.406245 77.760916 
L 139.523715 74.830776 
L 139.641185 75.640409 
L 139.817389 74.251375 
L 139.934858 74.509642 
L 140.052328 76.384625 
L 140.169798 71.809733 
L 140.287267 73.382273 
L 140.404737 72.316922 
L 140.463471 73.711053 
L 140.522206 73.178378 
L 140.580941 71.48605 
L 140.639676 71.541271 
L 140.698411 71.399394 
L 140.757145 70.82509 
L 140.81588 75.552054 
L 140.874615 74.484155 
L 140.93335 74.496898 
L 141.109554 71.249871 
L 141.227024 72.861491 
L 141.285758 72.522516 
L 141.461963 70.957622 
L 141.520698 70.698506 
L 141.638167 71.868353 
L 141.696902 71.542121 
L 141.755637 71.772352 
L 141.931841 74.885998 
L 142.049311 72.050159 
L 142.108045 73.440892 
L 142.16678 72.848747 
L 142.342984 70.395212 
L 142.401719 71.299146 
L 142.519189 67.832083 
L 142.577924 70.934684 
L 142.636658 68.321431 
L 142.754128 66.446447 
L 142.989067 69.77758 
L 143.047802 68.753858 
L 143.106537 65.786337 
L 143.165271 67.200009 
L 143.400211 69.912661 
L 143.752619 64.460171 
L 143.811354 66.941742 
L 143.870089 65.812674 
L 143.928824 64.747323 
L 143.987558 64.799146 
L 144.046293 66.623156 
L 144.105028 65.206936 
L 144.339967 68.606884 
L 144.516171 66.30542 
L 144.574906 66.458341 
L 144.809845 67.997748 
L 144.86858 67.898349 
L 144.98605 63.187527 
L 145.162254 65.785488 
L 145.220989 65.755753 
L 145.279724 65.263856 
L 145.397193 62.014281 
L 145.455928 62.117928 
L 145.690867 63.816203 
L 145.808337 63.096623 
L 145.867071 64.478011 
L 145.925806 63.3362 
L 146.043276 62.11283 
L 146.10201 66.562837 
L 146.160745 64.498401 
L 146.278215 63.013366 
L 146.33695 64.523038 
L 146.395684 63.19942 
L 146.454419 64.432135 
L 146.513154 63.598715 
L 146.630623 61.457818 
L 146.689358 61.675306 
L 146.806828 61.224188 
L 146.865563 63.086429 
L 146.924297 60.712752 
L 146.983032 63.777972 
L 147.041767 62.608125 
L 147.100502 60.922594 
L 147.159237 61.222489 
L 147.217971 61.752616 
L 147.394176 59.51317 
L 147.45291 59.215823 
L 147.511645 60.27013 
L 147.57038 59.068 
L 147.629115 59.323718 
L 148.157728 64.201904 
L 148.216463 63.711706 
L 148.451402 59.923509 
L 148.568871 57.930436 
L 148.686341 58.369659 
L 148.92128 63.252093 
L 149.03875 68.962001 
L 149.097484 68.514281 
L 149.156219 68.465856 
L 149.214954 68.09035 
L 149.391158 64.127992 
L 149.567363 50.881618 
L 149.626097 51.173868 
L 149.684832 48.643022 
L 149.743567 48.919979 
L 149.919771 52.415078 
L 150.330915 79.88652 
L 150.859528 46.057804 
L 150.918263 46.903968 
L 150.976997 45.218437 
L 151.153202 53.231507 
L 151.446876 80.15838 
L 151.50561 81.136226 
L 151.681815 75.276796 
L 152.034223 45.415535 
L 152.151693 44.443636 
L 152.269162 46.988075 
L 152.386632 52.983435 
L 152.680306 75.975136 
L 152.739041 76.00657 
L 152.915245 65.324175 
L 153.267654 44.627142 
L 153.326389 44.575318 
L 153.502593 47.068783 
L 153.913736 73.564928 
L 153.972471 73.682168 
L 154.20741 60.03735 
L 154.442349 45.32888 
L 154.736023 48.14348 
L 154.853493 52.620672 
L 155.147167 71.98984 
L 155.323371 67.187265 
L 155.67578 49.71517 
L 155.793249 47.306661 
L 155.910719 48.449322 
L 156.380597 66.11087 
L 156.439332 65.075254 
L 156.674271 59.664392 
L 156.850475 53.3428 
L 156.90921 53.841493 
L 157.085415 48.916581 
L 157.144149 50.097473 
L 157.202884 47.716999 
L 157.261619 49.507876 
L 157.379088 50.924946 
L 157.614028 62.165503 
L 157.731497 62.810321 
L 158.37758 48.189356 
L 158.553784 52.00389 
L 158.729988 58.121587 
L 159.023662 60.340644 
L 159.258601 54.372469 
L 159.317336 54.249283 
L 159.376071 52.659752 
L 159.434806 54.194911 
L 159.493541 53.624855 
L 159.552275 51.67341 
L 159.61101 52.150015 
L 159.669745 51.885801 
L 159.845949 55.583945 
L 159.904684 55.288297 
L 159.963419 56.358746 
L 160.022154 55.681645 
L 160.080888 55.707132 
L 160.139623 54.140539 
L 160.198358 57.220202 
L 160.257093 56.788624 
L 160.492032 55.248368 
L 160.609501 55.513431 
L 160.726971 53.127011 
L 160.785706 53.544996 
L 161.020645 57.624593 
L 161.07938 56.866784 
L 161.138114 58.07826 
L 161.196849 58.011994 
L 161.314319 56.626358 
L 161.373054 58.437624 
L 161.431788 57.84463 
L 161.490523 56.419914 
L 161.549258 56.671385 
L 161.607993 58.093552 
L 161.725462 55.411484 
L 161.784197 55.657857 
L 161.842932 55.995133 
L 161.901667 55.212686 
L 161.960401 58.476704 
L 162.019136 56.691774 
L 162.077871 57.68916 
L 162.136606 57.051139 
L 162.254075 58.344173 
L 162.371545 60.722097 
L 162.489014 59.235363 
L 162.547749 59.659295 
L 162.665219 56.454746 
L 162.723954 57.522646 
L 162.841423 53.588324 
L 162.900158 54.268823 
L 162.958893 54.387762 
L 163.017627 54.21615 
L 163.193832 55.364758 
L 163.252567 59.322868 
L 163.311301 59.316921 
L 163.487506 60.432396 
L 163.54624 61.552969 
L 163.604975 60.177528 
L 163.66371 61.506243 
L 163.839914 58.066366 
L 163.898649 58.206544 
L 163.957384 58.682298 
L 164.074854 56.116621 
L 164.192323 56.546499 
L 164.368527 59.834305 
L 164.485997 59.872535 
L 164.603467 60.364431 
L 164.720936 63.948734 
L 164.779671 62.901224 
L 164.838406 63.767777 
L 165.01461 64.177266 
L 165.073345 63.969124 
L 165.249549 60.681318 
L 165.367019 61.26072 
L 165.425753 60.818098 
L 165.601958 65.106687 
L 165.660693 64.850969 
L 165.778162 69.04101 
L 165.836897 68.599238 
L 165.895632 68.180403 
L 166.130571 70.840383 
L 166.24804 70.450433 
L 166.36551 67.630737 
L 166.541714 69.294179 
L 166.600449 68.483697 
L 166.717919 71.263464 
L 166.894123 75.538461 
L 167.011593 80.191513 
L 167.246532 88.918216 
L 167.305266 88.942853 
L 167.422736 85.761243 
L 167.481471 90.359923 
L 167.540206 90.230789 
L 167.59894 89.722751 
L 168.597432 152.112048 
L 169.008575 188.169166 
L 169.184779 194.985203 
L 169.243514 194.505201 
L 169.419719 182.446515 
L 170.007066 59.854694 
L 170.183271 50.972522 
L 170.242006 51.009902 
L 170.476945 86.112962 
L 170.888088 194.91299 
L 171.064292 159.470106 
L 171.357966 68.862602 
L 171.475436 56.519313 
L 171.534171 57.367176 
L 171.592906 57.439389 
L 171.710375 74.020294 
L 171.945314 147.244057 
L 172.062784 191.806142 
L 172.121519 187.756279 
L 172.180253 182.056566 
L 172.708866 55.3809 
L 172.767601 58.455465 
L 172.943805 99.735691 
L 173.237479 193.802613 
L 173.296214 191.715238 
L 173.531153 126.034738 
L 173.766092 66.889069 
L 173.883562 53.318163 
L 173.942297 54.058131 
L 174.177236 81.281502 
L 174.647114 192.8579 
L 174.764584 191.329537 
L 175.175727 131.324961 
L 175.528136 77.525587 
L 175.82181 56.40802 
L 175.998014 52.861098 
L 176.232953 56.837899 
L 176.585362 83.953375 
L 177.231445 174.894757 
L 177.525118 195.951155 
L 177.936262 172.131131 
L 178.464875 105.369987 
L 178.876018 71.23288 
L 179.522101 52.234121 
L 179.639571 57.803851 
L 179.698305 57.773267 
L 179.933244 65.170405 
L 180.050714 70.657727 
L 180.755531 141.913904 
L 181.22541 190.886915 
L 181.284144 187.92874 
L 181.342879 194.753273 
L 181.401614 191.396653 
L 181.460349 193.393973 
L 181.519084 191.748371 
L 181.695288 186.327315 
L 181.871492 169.954553 
L 182.223901 136.049376 
L 182.57631 97.85646 
L 182.869984 73.219157 
L 182.928718 72.944748 
L 183.046188 67.822738 
L 183.222392 59.848747 
L 183.339862 57.802152 
L 183.574801 53.768431 
L 183.633536 53.436252 
L 183.751005 54.188964 
L 184.044679 63.397368 
L 184.397088 86.598911 
L 184.749497 118.635051 
L 185.336844 186.865088 
L 185.630518 195.12793 
L 185.689253 192.453508 
L 185.747988 193.800914 
L 185.865457 189.937105 
L 186.863949 94.150669 
L 187.040153 83.548983 
L 187.451296 61.86051 
L 187.686236 54.392009 
L 187.803705 52.165307 
L 187.86244 52.720921 
L 187.921175 52.68354 
L 188.214849 56.576234 
L 188.391053 65.075254 
L 188.449788 65.332671 
L 188.508523 66.200074 
L 188.919666 92.652042 
L 189.683218 173.673936 
L 189.859422 186.461546 
L 189.918157 185.156618 
L 190.035627 194.270721 
L 190.094362 192.510429 
L 190.153096 190.621852 
L 190.211831 192.258958 
L 190.329301 193.307318 
L 190.975383 148.405409 
L 191.562731 99.337246 
L 191.680201 93.293461 
L 192.208814 63.138252 
L 192.385018 56.333259 
L 192.443753 56.682429 
L 192.502488 55.24412 
L 192.561222 56.60342 
L 192.737427 54.00206 
L 192.796162 54.412399 
L 192.854896 53.665634 
L 193.089835 58.967751 
L 193.207305 57.528593 
L 193.324775 63.384625 
L 193.442244 69.743598 
L 193.500979 66.237455 
L 193.559714 66.855936 
L 194.029592 99.93194 
L 194.205796 117.980039 
L 194.264531 118.315616 
L 195.204288 193.954684 
L 195.263022 193.972525 
L 195.321757 193.135706 
L 195.439227 195.330975 
L 195.497961 191.928478 
L 195.556696 192.063559 
L 195.615431 191.918284 
L 196.085309 162.321237 
L 196.613922 115.6293 
L 196.672657 114.326921 
L 196.907596 98.003434 
L 197.612414 64.074469 
L 197.906088 57.543885 
L 197.964822 56.977227 
L 198.141027 54.812543 
L 198.317231 52.735363 
L 198.434701 53.144003 
L 198.963314 67.111654 
L 199.256987 81.152368 
L 199.433192 89.678574 
L 199.726866 112.942135 
L 200.431683 172.946711 
L 200.901561 196.367441 
L 201.077766 191.529184 
L 201.1365 195.280851 
L 201.25397 186.119172 
L 201.312705 188.771505 
L 201.37144 187.937235 
L 201.547644 177.959977 
L 201.606379 177.483373 
L 202.60487 105.94599 
L 202.663605 104.817772 
L 202.898544 89.064341 
L 203.544627 60.50291 
L 203.603361 60.796009 
L 204.014505 53.430305 
L 204.07324 54.144787 
L 204.131974 51.192558 
L 204.190709 52.52722 
L 204.308179 54.473567 
L 204.366913 54.320646 
L 204.425648 54.392859 
L 204.660587 59.220921 
L 204.719322 60.346591 
L 204.778057 60.187722 
L 204.954261 70.058785 
L 205.071731 74.037285 
L 205.247935 79.810909 
L 205.541609 105.567086 
L 205.835283 128.060943 
L 206.187692 162.109696 
L 206.716305 192.89528 
L 206.775039 191.980302 
L 206.892509 196.495725 
L 207.009979 190.474028 
L 207.068713 191.112899 
L 207.421122 174.53879 
L 208.243409 103.003107 
L 208.537083 86.056041 
L 208.772022 69.481083 
L 208.889492 68.041925 
L 209.183166 54.44893 
L 209.300635 55.997682 
L 209.35937 54.928933 
L 209.418105 55.828619 
L 209.535574 54.672365 
L 209.711779 56.404622 
L 210.181657 75.737259 
L 211.532557 192.81797 
L 211.9437 176.950697 
L 212.472313 128.092377 
L 212.824722 92.739547 
L 213.2946 63.188376 
L 213.588274 54.687657 
L 213.647009 54.91449 
L 213.940683 51.918084 
L 214.058152 56.103028 
L 214.116887 58.787644 
L 214.175622 58.333128 
L 214.234357 58.734971 
L 214.586765 76.673476 
L 215.350318 152.851167 
L 215.643991 182.172107 
L 215.702726 180.760134 
L 215.878931 195.064212 
L 215.937665 192.97429 
L 215.9964 192.378746 
L 216.055135 193.811958 
L 216.231339 189.879335 
L 216.290074 189.028923 
L 216.583748 168.086366 
L 217.817178 66.845741 
L 218.110852 56.628057 
L 218.228322 53.948538 
L 218.287057 54.548329 
L 218.345791 55.902531 
L 218.404526 53.957034 
L 218.463261 54.46847 
L 218.521996 54.19746 
L 218.81567 58.781697 
L 218.874404 58.856459 
L 219.226813 73.570875 
L 219.403017 96.692559 
L 219.637957 117.885737 
L 219.696691 117.614727 
L 219.872896 104.710727 
L 220.0491 125.251441 
L 220.284039 152.901292 
L 220.753917 202.281243 
L 220.812652 201.751966 
L 220.930122 206.139954 
L 220.988857 199.643353 
L 221.047591 201.987295 
L 221.165061 193.066892 
L 221.869878 127.375347 
L 221.928613 130.905277 
L 222.104817 146.624726 
L 222.222287 144.761636 
L 222.339756 130.936711 
L 222.809635 61.887696 
L 223.044574 48.616686 
L 223.396983 97.271961 
L 223.514452 95.944945 
L 223.631922 81.294245 
L 223.925596 45.365411 
L 223.98433 46.20308 
L 224.278004 54.098061 
L 224.689148 121.456447 
L 224.865352 118.96638 
L 225.041556 107.889789 
L 225.100291 107.88724 
L 225.217761 111.666942 
L 225.628904 161.501409 
L 225.863843 188.445274 
L 225.922578 190.367833 
L 226.098782 197.550031 
L 226.862335 175.494548 
L 226.979804 173.934752 
L 227.156009 170.117669 
L 227.390948 150.972785 
L 227.860826 96.948278 
L 228.03703 92.000427 
L 228.095765 94.566955 
L 228.213235 90.624986 
L 228.389439 93.425993 
L 228.506909 91.294441 
L 229.094256 51.57741 
L 229.211726 49.865542 
L 229.622869 62.277645 
L 229.681604 61.738173 
L 229.740339 61.187657 
L 229.799074 61.806138 
L 229.857808 59.937102 
L 229.916543 60.87077 
L 229.975278 60.068784 
L 230.034013 57.717196 
L 230.092748 58.130083 
L 230.151482 57.858223 
L 230.621361 78.731966 
L 230.797565 91.611328 
L 231.267443 113.524085 
L 231.502382 127.920766 
L 232.383404 190.505462 
L 232.442139 190.37378 
L 232.559608 188.66531 
L 232.677078 193.945339 
L 232.794548 193.026962 
L 233.205691 186.044411 
L 233.264426 184.387765 
L 233.499365 170.845744 
L 233.5581 169.583294 
L 233.734304 154.783921 
L 234.204182 129.96906 
L 234.439121 112.811302 
L 234.497856 112.721249 
L 235.026469 82.784377 
L 235.085204 81.831168 
L 235.437613 66.635899 
L 235.496347 67.064079 
L 235.848756 56.902466 
L 235.907491 57.955923 
L 235.966226 57.057935 
L 236.024961 56.872731 
L 236.083695 57.244839 
L 236.201165 52.933311 
L 236.318634 55.019836 
L 236.377369 54.673214 
L 236.436104 54.922986 
L 236.553574 57.950825 
L 236.671043 56.07924 
L 237.140921 63.349793 
L 237.199656 64.511144 
L 237.37586 70.917693 
L 237.434595 72.134266 
L 238.491821 144.319864 
L 238.785495 170.211121 
L 239.314108 194.6029 
L 239.372843 194.781308 
L 239.725252 187.029903 
L 239.783987 187.556632 
L 240.07766 170.875478 
L 240.136395 171.387764 
L 240.782478 123.62453 
L 241.780969 70.801303 
L 242.368317 57.875214 
L 242.427052 59.367045 
L 242.485786 60.376325 
L 242.603256 55.017287 
L 242.661991 56.239807 
L 242.720726 57.418999 
L 242.89693 53.528854 
L 243.073134 55.144721 
L 243.131869 54.072574 
L 243.190604 54.154132 
L 243.249339 54.04199 
L 243.425543 56.201577 
L 243.719217 68.138775 
L 243.777952 69.008726 
L 243.836686 68.679096 
L 244.071626 77.323391 
L 244.600239 100.41619 
L 245.128852 135.571073 
L 245.187586 136.907434 
L 245.59873 164.936189 
L 245.657465 165.564865 
L 245.774934 168.091463 
L 245.951139 183.01997 
L 246.009873 182.182301 
L 246.244812 189.040817 
L 246.303547 192.93521 
L 246.362282 192.035523 
L 246.421017 189.335615 
L 246.479752 191.581008 
L 246.538486 191.619238 
L 246.597221 189.954946 
L 246.655956 191.746672 
L 246.714691 190.297319 
L 246.773425 191.0135 
L 246.83216 190.481674 
L 246.890895 190.70341 
L 247.125834 183.448149 
L 247.184569 184.031798 
L 247.948121 147.700272 
L 248.417999 120.473504 
L 248.476734 119.731836 
L 249.005347 93.503303 
L 249.475225 78.304636 
L 249.53396 74.568261 
L 249.592695 75.247911 
L 249.65143 75.591134 
L 249.768899 69.413118 
L 249.827634 70.80725 
L 250.003838 66.707263 
L 250.062573 67.670666 
L 250.238778 61.347375 
L 250.356247 60.822345 
L 250.473717 57.72824 
L 250.532451 58.725626 
L 250.591186 58.539572 
L 250.649921 58.265163 
L 250.767391 55.867699 
L 250.826125 56.287383 
L 250.88486 55.882141 
L 250.943595 53.193277 
L 251.00233 53.395473 
L 251.178534 56.769084 
L 251.296004 54.188964 
L 251.472208 54.340186 
L 251.589678 53.708112 
L 251.765882 55.194846 
L 251.824617 58.938017 
L 251.883351 58.611785 
L 251.942086 58.085056 
L 252.000821 58.31019 
L 252.23576 63.156093 
L 252.529434 69.047806 
L 252.588169 68.810778 
L 252.646904 68.905929 
L 252.705638 68.869398 
L 253.058047 77.939324 
L 253.469191 89.246996 
L 253.527925 90.508596 
L 253.645395 96.423248 
L 253.762864 95.268693 
L 253.997804 103.783855 
L 254.174008 108.979777 
L 254.350212 115.316661 
L 254.585151 125.326203 
L 254.761356 130.82287 
L 254.820091 132.171125 
L 254.996295 141.55284 
L 255.172499 151.845286 
L 255.583643 170.830452 
L 255.759847 175.457167 
L 255.936051 182.833915 
L 255.994786 181.811892 
L 256.582134 192.670146 
L 256.640869 190.144398 
L 256.699604 194.572316 
L 256.758338 191.093359 
L 256.993277 194.634334 
L 257.169482 188.076564 
L 257.228217 190.533497 
L 257.404421 184.628191 
L 257.463156 186.010428 
L 257.698095 178.71099 
L 257.933034 174.044345 
L 257.991769 175.409592 
L 258.167973 165.977752 
L 258.226708 165.524086 
L 258.344177 156.846658 
L 258.402912 157.38613 
L 258.520382 152.369466 
L 258.755321 143.457558 
L 258.87279 141.739744 
L 259.048995 134.466642 
L 259.10773 134.754644 
L 259.342669 123.329732 
L 259.460138 118.200925 
L 259.518873 121.312871 
L 259.695077 111.732358 
L 259.753812 110.840318 
L 260.047486 100.592899 
L 260.106221 101.079698 
L 260.282425 95.125967 
L 260.34116 93.709747 
L 260.399895 95.134462 
L 260.517364 90.803394 
L 260.752303 85.250656 
L 260.869773 81.849009 
L 260.928508 84.053623 
L 261.104712 78.763399 
L 261.398386 73.218307 
L 261.57459 72.201381 
L 261.69206 69.158249 
L 262.103203 62.566497 
L 262.161938 63.273332 
L 262.338143 59.90057 
L 262.396877 61.530031 
L 262.455612 61.072117 
L 262.514347 61.08486 
L 262.631816 58.401093 
L 262.690551 58.642369 
L 262.749286 59.598126 
L 262.984225 56.445401 
L 263.04296 56.814961 
L 263.219164 54.509249 
L 263.336634 56.753792 
L 263.395369 53.8279 
L 263.454103 54.85587 
L 263.512838 54.279867 
L 263.571573 55.134527 
L 263.630308 54.596754 
L 263.689042 54.377567 
L 263.747777 55.817575 
L 263.806512 55.727521 
L 263.865247 54.666418 
L 263.923982 55.308687 
L 263.982716 54.797251 
L 264.041451 54.976508 
L 264.100186 54.840578 
L 264.158921 57.10806 
L 264.217656 55.459909 
L 264.27639 55.798884 
L 264.335125 55.519378 
L 264.39386 53.076887 
L 264.452595 53.671581 
L 264.805003 55.233925 
L 264.981208 55.386847 
L 265.039942 55.583945 
L 265.098677 56.577933 
L 265.157412 55.007092 
L 265.274882 56.703668 
L 265.333616 56.66119 
L 265.392351 56.064797 
L 265.568555 58.032383 
L 265.62729 58.025587 
L 265.686025 57.114007 
L 265.74476 57.565124 
L 265.803495 57.769019 
L 265.862229 57.392663 
L 265.920964 60.58107 
L 265.979699 60.029704 
L 266.038434 59.972783 
L 266.449577 63.013366 
L 266.567047 62.923313 
L 266.625782 62.960693 
L 266.743251 64.728632 
L 266.860721 64.567215 
L 266.919455 64.531534 
L 267.09566 68.715628 
L 267.271864 67.879658 
L 267.683008 74.597146 
L 267.741742 73.967621 
L 267.800477 74.35672 
L 267.917947 77.24948 
L 267.976682 74.863059 
L 268.035416 76.659883 
L 268.094151 76.808557 
L 268.152886 77.427038 
L 268.211621 80.264576 
L 268.270355 79.495722 
L 268.387825 80.978208 
L 268.681499 84.727326 
L 269.092642 89.080482 
L 269.210112 92.768432 
L 269.268847 92.385279 
L 269.327581 92.862733 
L 269.503786 96.07068 
L 269.738725 99.976117 
L 269.79746 98.691579 
L 269.856195 98.717916 
L 269.914929 99.212361 
L 270.208603 106.705499 
L 270.267338 105.669883 
L 270.326073 106.06408 
L 270.502277 111.470693 
L 270.561012 110.870053 
L 270.619747 110.511538 
L 270.854686 116.669164 
L 270.913421 116.772811 
L 271.559503 127.379594 
L 271.618238 126.712688 
L 271.676973 128.642893 
L 271.735708 128.275883 
L 271.794442 127.54356 
L 271.853177 128.162041 
L 271.970647 132.558525 
L 272.029381 131.211969 
L 272.49926 139.836725 
L 272.557994 139.293854 
L 272.851668 143.390443 
L 272.910403 142.529837 
L 272.969138 141.99971 
L 273.027873 142.404951 
L 273.086607 142.229941 
L 273.321547 147.797122 
L 273.380281 137.959192 
L 273.439016 141.853585 
L 273.497751 146.383451 
L 273.556486 146.105644 
L 273.673955 144.52121 
L 273.73269 144.79307 
L 273.85016 145.635836 
L 273.967629 152.209748 
L 274.085099 148.684915 
L 274.143834 151.260787 
L 274.202568 150.618518 
L 274.496242 153.722818 
L 274.554977 151.813852 
L 274.613712 151.888613 
L 274.789916 154.979321 
L 274.848651 155.145835 
L 274.907386 155.020949 
L 275.08359 154.380379 
L 275.20106 153.23347 
L 275.377264 156.869596 
L 275.435999 155.178968 
L 275.494734 157.227262 
L 275.553468 155.983503 
L 275.612203 156.328425 
L 275.847142 161.353586 
L 275.905877 160.804768 
L 275.964612 158.219551 
L 276.023347 159.458212 
L 276.140816 160.795423 
L 276.258286 164.707657 
L 276.493225 159.748763 
L 276.55196 161.333196 
L 276.669429 164.259088 
L 276.904368 162.040032 
L 276.963103 165.541927 
L 277.021838 162.634725 
L 277.198042 166.523171 
L 277.256777 166.504481 
L 277.374247 167.817055 
L 277.432981 165.874106 
L 277.491716 166.853651 
L 277.609186 165.060225 
L 277.78539 169.811827 
L 277.844125 167.940241 
L 277.90286 169.075256 
L 277.961594 171.359729 
L 278.020329 167.586823 
L 278.079064 167.614859 
L 278.196533 167.460238 
L 278.255268 172.350318 
L 278.314003 170.780327 
L 278.372738 172.394496 
L 278.431473 170.958735 
L 278.548942 171.461676 
L 278.607677 169.670799 
L 278.725146 172.900835 
L 278.783881 172.357964 
L 278.842616 173.500625 
L 278.901351 173.176093 
L 279.01882 171.133745 
L 279.077555 174.124204 
L 279.13629 172.819277 
L 279.195025 173.125119 
L 279.25376 171.877962 
L 279.312494 172.892339 
L 279.371229 172.841365 
L 279.429964 175.084209 
L 279.606168 171.577217 
L 279.664903 171.059833 
L 279.723638 172.943313 
L 279.782373 172.345221 
L 279.841107 172.549116 
L 279.899842 170.292679 
L 280.017312 173.6476 
L 280.193516 172.008794 
L 280.252251 171.66812 
L 280.310986 171.781961 
L 280.36972 173.277191 
L 280.428455 172.108193 
L 280.48719 171.51265 
L 280.545925 171.539836 
L 280.604659 172.073361 
L 280.722129 169.054017 
L 280.898333 172.246672 
L 280.957068 172.085255 
L 281.074538 175.270263 
L 281.192007 168.691254 
L 281.250742 171.751377 
L 281.309477 171.849926 
L 281.368212 172.436124 
L 281.485681 166.840908 
L 281.544416 167.838294 
L 281.603151 171.858422 
L 281.661886 171.848227 
L 281.72062 169.515329 
L 281.779355 172.453965 
L 281.83809 170.652893 
L 281.955559 166.772093 
L 282.131764 171.597606 
L 282.190499 171.341888 
L 282.366703 173.277191 
L 282.484172 171.27987 
L 282.542907 171.729288 
L 282.601642 171.622244 
L 282.660377 169.574799 
L 282.777846 171.638385 
L 282.836581 167.561336 
L 282.895316 171.036046 
L 282.954051 167.952135 
L 283.012786 170.788823 
L 283.07152 169.642764 
L 283.130255 168.913839 
L 283.18899 172.181255 
L 283.247725 171.425995 
L 283.365194 166.709226 
L 283.482664 173.62721 
L 283.541399 166.258108 
L 283.600133 170.481282 
L 283.717603 170.900965 
L 283.835072 167.255494 
L 283.952542 170.235758 
L 284.011277 163.821564 
L 284.070012 165.992195 
L 284.246216 169.849207 
L 284.304951 171.329994 
L 284.363685 170.455795 
L 284.42242 157.601069 
L 284.481155 162.336529 
L 284.657359 171.866917 
L 284.716094 171.546632 
L 284.774829 170.384431 
L 284.833564 173.579635 
L 284.892299 173.186287 
L 285.009768 174.265231 
L 285.127238 170.585778 
L 285.185972 175.480105 
L 285.244707 175.058722 
L 285.362177 172.409788 
L 285.538381 177.58702 
L 285.714585 173.478537 
L 285.77332 173.069897 
L 285.832055 173.748698 
L 286.008259 171.306206 
L 286.066994 178.270067 
L 286.125729 174.298364 
L 286.184464 177.183477 
L 286.243198 175.171714 
L 286.301933 175.399397 
L 286.360668 173.566042 
L 286.595607 178.525786 
L 286.654342 178.094208 
L 286.713077 175.943966 
L 286.771812 175.977099 
L 286.948016 178.496051 
L 287.065485 175.772355 
L 287.12422 176.299083 
L 287.182955 178.261572 
L 287.24169 176.630413 
L 287.359159 179.946254 
L 287.417894 178.387307 
L 287.476629 177.956579 
L 287.535364 180.560487 
L 287.594098 179.551207 
L 287.652833 178.529184 
L 287.711568 181.415147 
L 287.829038 177.685569 
L 287.946507 179.818819 
L 288.005242 178.834177 
L 288.181446 174.700207 
L 288.357651 179.535915 
L 288.533855 164.558134 
L 288.59259 179.244515 
L 288.651325 173.987425 
L 288.710059 176.36365 
L 288.886264 138.011865 
L 288.944998 138.178379 
L 289.062468 158.947626 
L 289.121203 131.355545 
L 289.179938 138.278628 
L 289.297407 158.508402 
L 289.356142 98.969386 
L 289.414877 123.970301 
L 289.473611 154.807709 
L 289.532346 106.950173 
L 289.591081 124.992325 
L 289.649816 156.210336 
L 289.708551 149.823328 
L 289.82602 172.966251 
L 289.884755 161.046044 
L 290.002224 177.149495 
L 290.119694 172.960304 
L 290.178429 172.472655 
L 290.295898 184.14394 
L 290.354633 175.43168 
L 290.413368 181.400704 
L 290.530838 175.977099 
L 290.589572 177.520754 
L 290.707042 179.54526 
L 290.765777 178.973505 
L 290.824511 177.801109 
L 290.883246 180.975923 
L 290.941981 179.62342 
L 291.000716 179.721969 
L 291.059451 171.806599 
L 291.118185 173.111526 
L 291.17692 173.237261 
L 291.29439 179.821368 
L 291.353124 178.779805 
L 291.411859 179.931811 
L 291.470594 174.88881 
L 291.529329 180.01167 
L 291.588064 178.63368 
L 291.646798 177.911552 
L 291.823003 181.00056 
L 291.881737 179.920767 
L 291.940472 180.956383 
L 291.999207 180.947038 
L 292.057942 178.717787 
L 292.116677 179.246214 
L 292.175411 179.456906 
L 292.292881 181.143287 
L 292.351616 180.334504 
L 292.469085 183.158448 
L 292.52782 180.384628 
L 292.586555 184.406455 
L 292.64529 182.479648 
L 292.821494 179.673544 
L 292.880229 179.646358 
L 292.938964 179.258958 
L 292.997698 182.753207 
L 293.056433 181.589307 
L 293.173903 178.061075 
L 293.291372 184.044542 
L 293.350107 183.456645 
L 293.408842 181.981805 
L 293.467577 185.261115 
L 293.526311 181.026047 
L 293.585046 181.143287 
L 293.643781 180.850188 
L 293.702516 179.113683 
L 293.87872 184.673218 
L 294.054924 179.149364 
L 294.113659 180.208768 
L 294.289864 184.499907 
L 294.407333 180.67093 
L 294.524803 183.806664 
L 294.583537 183.525459 
L 294.642272 184.211905 
L 294.701007 183.682628 
L 294.759742 182.101593 
L 294.818477 183.156749 
L 294.877211 184.894953 
L 294.935946 183.172041 
L 295.053416 185.922924 
L 295.170885 181.865415 
L 295.22962 185.21269 
L 295.288355 184.613748 
L 295.34709 181.394757 
L 295.405824 184.450632 
L 295.464559 184.182171 
L 295.523294 184.592509 
L 295.582029 182.110938 
L 295.640763 183.008925 
L 295.699498 187.091072 
L 295.758233 184.917891 
L 295.875703 184.121002 
L 296.051907 182.80503 
L 296.110642 183.244254 
L 296.169377 185.913578 
L 296.228111 183.441352 
L 296.286846 183.878027 
L 296.345581 184.166029 
L 296.404316 187.798757 
L 296.58052 184.060683 
L 296.756724 185.844764 
L 296.815459 184.948476 
L 296.874194 187.182824 
L 296.932929 183.945992 
L 296.991663 185.408938 
L 297.050398 188.191255 
L 297.226603 183.366591 
L 297.285337 188.043431 
L 297.344072 185.041928 
L 297.402807 183.73615 
L 297.461542 183.985922 
L 297.520276 186.316271 
L 297.579011 183.857638 
L 297.637746 184.296862 
L 297.696481 185.131132 
L 297.872685 182.015787 
L 298.04889 187.827642 
L 298.225094 184.263729 
L 298.342563 187.601658 
L 298.518768 184.441287 
L 298.636237 184.924688 
L 298.812442 186.626361 
L 298.929911 185.384301 
L 298.988646 183.167793 
L 299.16485 187.273727 
L 299.223585 186.515918 
L 299.399789 189.678838 
L 299.517259 188.47076 
L 299.575994 188.678054 
L 299.634729 188.130086 
L 299.693463 188.60669 
L 299.752198 188.961807 
L 299.869668 185.355416 
L 299.928403 189.564147 
L 299.987137 184.440438 
L 300.045872 184.68851 
L 300.104607 184.169427 
L 300.280811 189.94645 
L 300.339546 186.771636 
L 300.398281 191.451025 
L 300.457016 189.288889 
L 300.63322 192.316728 
L 300.868159 187.424949 
L 300.926894 190.305815 
L 300.985629 187.228701 
L 301.044363 189.4622 
L 301.103098 190.93619 
L 301.220568 187.110611 
L 301.338037 189.913317 
L 301.396772 189.005135 
L 301.455507 189.424819 
L 301.514242 188.259219 
L 301.690446 190.927694 
L 301.749181 188.93802 
L 301.807916 190.177531 
L 301.86665 189.179295 
L 301.925385 189.505527 
L 302.042855 192.066108 
L 302.160324 188.715434 
L 302.277794 190.543692 
L 302.336529 190.232752 
L 302.453998 187.795359 
L 302.512733 187.813199 
L 302.571468 188.487752 
L 302.630202 186.426714 
L 302.688937 190.719552 
L 302.747672 188.478407 
L 302.806407 190.753534 
L 302.865142 190.585321 
L 302.923876 189.372995 
L 302.982611 190.134203 
L 303.041346 191.045783 
L 303.158815 188.904037 
L 303.21755 190.860579 
L 303.276285 189.830909 
L 303.33502 190.583622 
L 303.452489 188.672107 
L 303.511224 189.489386 
L 303.569959 187.272028 
L 303.628694 190.803658 
L 303.687429 190.337249 
L 303.746163 190.406063 
L 303.863633 187.700208 
L 303.922368 190.666029 
L 303.981102 188.3943 
L 304.157307 194.44743 
L 304.216042 194.150084 
L 304.274776 194.109305 
L 304.333511 193.737196 
L 304.450981 194.337837 
L 304.509715 193.930897 
L 304.56845 196.243405 
L 304.627185 192.188445 
L 304.68592 193.218114 
L 304.744655 193.933445 
L 304.803389 190.555586 
L 304.862124 191.581857 
L 304.979594 190.70256 
L 305.097063 193.098326 
L 305.214533 191.251377 
L 305.273268 193.787321 
L 305.332002 192.185046 
L 305.390737 191.67276 
L 305.566942 193.824701 
L 305.684411 195.466055 
L 305.860615 189.18864 
L 305.978085 193.343 
L 306.03682 191.795947 
L 306.095555 190.238699 
L 306.271759 194.664069 
L 306.330494 190.852083 
L 306.389228 193.01252 
L 306.447963 191.793398 
L 306.506698 191.865611 
L 306.565433 193.179884 
L 306.624168 190.998208 
L 306.682902 192.72197 
L 306.741637 193.08898 
L 306.800372 195.036177 
L 306.859107 192.520623 
L 306.917841 194.930831 
L 306.976576 193.142503 
L 307.035311 190.650737 
L 307.094046 192.557154 
L 307.211515 190.403514 
L 307.328985 193.201972 
L 307.38772 190.892862 
L 307.446455 191.763663 
L 307.505189 191.923381 
L 307.563924 192.614075 
L 307.681394 191.125642 
L 307.798863 194.026897 
L 307.857598 193.779674 
L 307.916333 191.960762 
L 307.975068 192.888484 
L 308.033802 195.662304 
L 308.151272 189.119826 
L 308.210007 195.769349 
L 308.268741 189.430766 
L 308.327476 190.035654 
L 308.62115 194.690405 
L 308.679885 193.830648 
L 308.73862 193.995463 
L 308.797354 194.433837 
L 308.914824 192.924165 
L 308.973559 187.998404 
L 309.032294 191.007553 
L 309.208498 193.249548 
L 309.267233 189.314376 
L 309.325968 191.853717 
L 309.384702 191.832478 
L 309.502172 190.398417 
L 309.560907 190.847835 
L 309.619641 190.691516 
L 309.678376 194.03964 
L 309.737111 191.694849 
L 309.795846 189.553103 
L 309.854581 190.04415 
L 309.97205 188.735824 
L 310.08952 189.988078 
L 310.206989 187.111461 
L 310.265724 187.976315 
L 310.324459 188.057024 
L 310.383194 186.990823 
L 310.441928 191.09166 
L 310.500663 186.116624 
L 310.559398 187.746084 
L 310.618133 188.27706 
L 310.735602 192.609827 
L 310.794337 191.73223 
L 310.853072 191.553822 
L 311.029276 188.556566 
L 311.088011 188.697594 
L 311.146746 189.161455 
L 311.264215 191.932726 
L 311.32295 189.92691 
L 311.381685 190.686419 
L 311.499154 193.32176 
L 311.557889 192.263206 
L 311.616624 192.362605 
L 311.675359 194.04049 
L 311.851563 190.880119 
L 312.027767 192.338817 
L 312.086502 192.99298 
L 312.262707 195.725172 
L 312.321441 191.122244 
L 312.380176 193.359991 
L 312.438911 192.813722 
L 312.497646 195.472852 
L 312.55638 194.103358 
L 312.615115 194.761768 
L 312.67385 194.671715 
L 312.732585 193.932596 
L 312.79132 195.216284 
L 312.850054 193.216415 
L 312.908789 197.428544 
L 312.967524 194.438935 
L 313.026259 194.375218 
L 313.143728 196.215369 
L 313.202463 195.661455 
L 313.261198 194.936778 
L 313.378667 197.575518 
L 313.437402 195.918022 
L 313.496137 199.1625 
L 313.613607 192.639562 
L 313.672341 194.235889 
L 313.731076 197.498208 
L 313.789811 195.460958 
L 313.966015 198.244124 
L 314.02475 196.712363 
L 314.259689 199.909266 
L 314.318424 198.081857 
L 314.435893 200.740987 
L 314.612098 196.646947 
L 314.670833 196.777779 
L 314.729567 200.518402 
L 314.788302 199.386785 
L 314.847037 199.534609 
L 314.905772 197.074277 
L 314.964507 198.311239 
L 315.023241 199.385935 
L 315.081976 197.939131 
L 315.140711 202.090941 
L 315.199446 198.490497 
L 315.25818 198.603488 
L 315.316915 199.593228 
L 315.37565 198.198247 
L 315.434385 200.159886 
L 315.49312 199.191385 
L 315.551854 197.985857 
L 315.669324 201.074015 
L 315.845528 196.731053 
L 316.080467 200.44449 
L 316.197937 197.139693 
L 316.256672 199.694326 
L 316.315406 198.184654 
L 316.491611 201.878551 
L 316.60908 197.604403 
L 316.785285 201.582053 
L 316.84402 197.997751 
L 316.902754 199.785229 
L 316.961489 197.933184 
L 317.020224 199.775035 
L 317.196428 194.901946 
L 317.255163 197.391163 
L 317.313898 196.244254 
L 317.372633 193.948737 
L 317.431367 197.471022 
L 317.490102 196.110873 
L 317.548837 196.037811 
L 317.607572 200.110612 
L 317.666306 199.763141 
L 317.725041 199.419068 
L 317.842511 202.744254 
L 317.901246 200.130152 
L 317.95998 200.957625 
L 318.136185 199.455599 
L 318.194919 201.457168 
L 318.312389 196.605318 
L 318.371124 197.702103 
L 318.429859 200.808952 
L 318.488593 198.346921 
L 318.606063 197.084471 
L 318.664798 200.755429 
L 318.723533 196.014873 
L 318.782267 199.090288 
L 318.841002 198.306142 
L 319.017206 200.822545 
L 319.075941 200.989059 
L 319.134676 204.738177 
L 319.31088 198.010494 
L 319.42835 201.492849 
L 319.487085 200.780916 
L 319.663289 196.420963 
L 319.780759 198.895738 
L 319.839493 198.411487 
L 319.898228 198.587347 
L 320.074432 196.086236 
L 320.191902 197.448933 
L 320.368106 201.975401 
L 320.426841 198.559311 
L 320.485576 200.446189 
L 320.544311 200.44449 
L 320.603046 201.351822 
L 320.837985 195.367506 
L 320.955454 197.006312 
L 321.014189 197.846529 
L 321.190393 193.569833 
L 321.249128 194.692954 
L 321.307863 198.769153 
L 321.366598 196.314768 
L 321.425332 196.745496 
L 321.484067 193.190078 
L 321.542802 196.052253 
L 321.601537 195.529773 
L 321.660272 193.659886 
L 321.777741 195.933315 
L 321.836476 195.851757 
L 321.895211 194.579962 
L 321.953945 195.449064 
L 322.071415 194.220597 
L 322.13015 197.00971 
L 322.188885 194.986902 
L 322.247619 195.499188 
L 322.306354 194.239288 
L 322.365089 194.338686 
L 322.423824 194.339536 
L 322.541293 196.9324 
L 322.600028 193.664984 
L 322.658763 194.050685 
L 322.717498 197.566173 
L 322.776232 193.938543 
L 322.834967 195.060814 
L 322.893702 195.789739 
L 322.952437 195.364108 
L 323.069906 196.923904 
L 323.128641 193.484027 
L 323.187376 196.137209 
L 323.304845 192.172303 
L 323.36358 194.105057 
L 323.48105 188.700992 
L 323.539785 190.512258 
L 323.892193 184.846528 
L 323.950928 190.014415 
L 324.009663 187.232099 
L 324.068398 184.798953 
L 324.185867 193.664134 
L 324.244602 191.272616 
L 324.303337 195.179753 
L 324.362072 191.814637 
L 324.597011 189.083295 
L 324.655745 192.41103 
L 324.71448 190.863128 
L 324.773215 192.607279 
L 324.83195 190.461285 
L 324.890685 191.795097 
L 324.949419 192.535066 
L 325.008154 191.703345 
L 325.066889 187.343391 
L 325.125624 188.06467 
L 325.301828 190.619303 
L 325.360563 190.905606 
L 325.478032 185.27046 
L 325.595502 190.038203 
L 325.654237 189.48004 
L 325.712971 185.861755 
L 325.771706 187.018009 
L 325.830441 185.642568 
L 326.006645 189.755298 
L 326.06538 188.203998 
L 326.124115 189.775688 
L 326.18285 188.340777 
L 326.241585 192.185896 
L 326.300319 191.042385 
L 326.359054 191.604795 
L 326.417789 191.322741 
L 326.476524 189.961742 
L 326.535258 190.398417 
L 326.593993 191.34313 
L 326.652728 189.042516 
L 326.770198 194.29366 
L 326.887667 189.46135 
L 326.946402 192.256409 
L 327.005137 191.294705 
L 327.063871 186.735955 
L 327.122606 190.574276 
L 327.181341 191.327838 
L 327.357545 188.815683 
L 327.41628 190.032256 
L 327.475015 188.824178 
L 327.53375 189.036569 
L 327.592484 189.610023 
L 327.651219 188.320388 
L 327.827424 191.798495 
L 327.944893 191.14858 
L 328.003628 191.252227 
L 328.062363 192.591137 
L 328.121098 190.946385 
L 328.179832 192.936059 
L 328.356037 188.905736 
L 328.414771 189.598979 
L 328.473506 189.293986 
L 328.532241 188.756213 
L 328.590976 191.289608 
L 328.649711 187.642437 
L 328.708445 189.807971 
L 328.76718 189.658448 
L 328.825915 191.776407 
L 328.88465 191.722884 
L 329.002119 190.584471 
L 329.119589 192.576694 
L 329.237058 185.52193 
L 329.354528 186.521015 
L 329.589467 191.874956 
L 329.765671 187.876917 
L 329.941876 191.142633 
L 330.000611 190.757782 
L 330.059345 190.258239 
L 330.11808 191.918284 
L 330.176815 189.367898 
L 330.23555 191.350776 
L 330.353019 188.557416 
L 330.411754 192.48919 
L 330.470489 187.667924 
L 330.529224 190.003371 
L 330.705428 186.854893 
L 330.764163 187.518401 
L 330.881632 188.317839 
L 330.940367 187.736739 
L 330.999102 188.74347 
L 331.057837 187.876067 
L 331.116571 187.379073 
L 331.175306 193.486576 
L 331.234041 185.61963 
L 331.292776 186.425015 
L 331.410245 190.972721 
L 331.46898 190.510559 
L 331.527715 187.649234 
L 331.58645 187.718898 
L 331.645184 187.61695 
L 331.703919 191.301502 
L 331.762654 189.514023 
L 331.880124 185.757259 
L 331.938858 186.757194 
L 331.997593 191.32444 
L 332.056328 189.933707 
L 332.115063 187.849731 
L 332.232532 191.166421 
L 332.350002 189.784184 
L 332.408737 190.471479 
L 332.467471 187.155638 
L 332.526206 189.53866 
L 332.584941 193.103423 
L 332.643676 190.68387 
L 332.70241 189.608324 
L 332.761145 191.954815 
L 332.878615 187.11316 
L 332.93735 188.331432 
L 332.996084 192.965794 
L 333.054819 188.972852 
L 333.113554 190.073035 
L 333.172289 188.136033 
L 333.231023 189.231119 
L 333.289758 190.929393 
L 333.348493 186.369793 
L 333.407228 187.69596 
L 333.465963 186.175243 
L 333.583432 188.935471 
L 333.642167 187.765624 
L 333.700902 187.333197 
L 333.759637 187.879465 
L 333.818371 190.911553 
L 333.877106 187.064735 
L 333.935841 187.874368 
L 333.994576 187.871819 
L 334.05331 188.900639 
L 334.112045 185.550815 
L 334.17078 186.101332 
L 334.229515 188.89894 
L 334.28825 187.508207 
L 334.346984 188.299149 
L 334.405719 188.0069 
L 334.464454 185.397045 
L 334.523189 185.650214 
L 334.581923 186.114075 
L 334.699393 185.170211 
L 334.758128 187.748633 
L 334.816863 187.285621 
L 334.875597 186.941549 
L 334.934332 187.932138 
L 334.993067 186.131066 
L 335.051802 186.402077 
L 335.169271 188.593947 
L 335.228006 186.60937 
L 335.286741 187.718898 
L 335.462945 188.204848 
L 335.580415 186.716415 
L 335.63915 187.216807 
L 335.697884 185.180406 
L 335.756619 185.378354 
L 335.815354 186.012128 
L 335.874089 188.311043 
L 335.932823 187.202364 
L 335.991558 186.286536 
L 336.050293 188.492849 
L 336.109028 185.283203 
L 336.167763 186.491281 
L 336.226497 186.91946 
L 336.402702 184.391163 
L 336.578906 190.253142 
L 336.75511 183.228962 
L 336.813845 183.413317 
L 336.931315 184.545783 
L 336.990049 187.978864 
L 337.048784 185.996835 
L 337.166254 162.438476 
L 337.224989 170.419263 
L 337.283723 176.341561 
L 337.342458 174.983961 
L 337.401193 174.983961 
L 337.459928 174.204063 
L 337.577397 180.250397 
L 337.636132 180.024413 
L 337.812336 173.013826 
L 337.871071 174.351037 
L 337.988541 180.433053 
L 338.047276 179.172303 
L 338.164745 177.304115 
L 338.22348 178.08996 
L 338.340949 184.900051 
L 338.399684 184.375021 
L 338.458419 187.379923 
L 338.517154 186.776733 
L 338.575889 184.315552 
L 338.634623 186.156553 
L 338.693358 188.204848 
L 338.752093 185.249221 
L 338.810828 187.157337 
L 338.869562 186.273793 
L 338.928297 188.538725 
L 338.987032 188.011997 
L 339.045767 185.5814 
L 339.104502 188.602443 
L 339.163236 186.553299 
L 339.280706 177.70256 
L 339.339441 181.788954 
L 339.45691 188.893842 
L 339.633115 185.206743 
L 339.809319 190.146947 
L 339.926789 186.858291 
L 339.985523 188.194653 
L 340.044258 185.666356 
L 340.102993 186.072446 
L 340.161728 188.091856 
L 340.220462 188.042581 
L 340.279197 187.953377 
L 340.455402 188.817382 
L 340.514136 188.990693 
L 340.631606 185.137079 
L 340.749075 191.607344 
L 340.92528 190.931093 
L 340.984015 190.574276 
L 341.042749 191.612441 
L 341.101484 188.039183 
L 341.160219 189.954096 
L 341.218954 189.815617 
L 341.336423 188.33568 
L 341.395158 189.753599 
L 341.453893 187.673871 
L 341.571362 190.329602 
L 341.630097 185.072512 
L 341.688832 187.416454 
L 341.747567 187.138647 
L 341.923771 190.980367 
L 341.982506 187.704455 
L 342.041241 189.69498 
L 342.099975 190.007618 
L 342.393649 184.736085 
L 342.452384 185.25007 
L 342.511119 186.450502 
L 342.569854 183.079439 
L 342.628588 183.885673 
L 342.746058 186.93815 
L 342.804793 187.108912 
L 342.863528 186.828557 
L 342.980997 187.677269 
L 343.039732 187.285621 
L 343.098467 190.238699 
L 343.157202 186.075845 
L 343.215936 186.882929 
L 343.274671 187.940634 
L 343.333406 186.940699 
L 343.450875 189.861494 
L 343.50961 188.113944 
L 343.568345 189.248959 
L 343.62708 188.830125 
L 343.685815 190.103619 
L 343.803284 185.882994 
L 343.862019 186.0648 
L 343.979488 191.966709 
L 344.038223 188.365415 
L 344.096958 187.843784 
L 344.214428 190.33385 
L 344.390632 187.26778 
L 344.449367 190.835942 
L 344.508101 189.056958 
L 344.684306 187.4241 
L 344.743041 189.001737 
L 344.801775 187.763925 
L 344.86051 187.756279 
L 344.97798 190.327054 
L 345.036715 189.677139 
L 345.154184 187.546437 
L 345.212919 191.602247 
L 345.271654 187.780916 
L 345.330388 189.535262 
L 345.447858 187.396914 
L 345.506593 188.175962 
L 345.565328 190.530949 
L 345.624062 189.283791 
L 345.800267 192.529119 
L 346.21141 187.447888 
L 346.270145 191.361821 
L 346.32888 188.774054 
L 346.387614 190.410311 
L 346.505084 186.713866 
L 346.563819 187.779217 
L 346.622554 187.044346 
L 346.681288 191.178315 
L 346.740023 191.138386 
L 346.798758 189.105383 
L 346.857493 189.154658 
L 346.974962 190.689817 
L 347.209901 188.588 
L 347.268636 188.436778 
L 347.327371 188.564212 
L 347.444841 191.165572 
L 347.503575 188.207396 
L 347.56231 188.939719 
L 347.67978 190.27693 
L 347.738514 189.354305 
L 347.797249 192.072054 
L 347.855984 189.98553 
L 347.973454 190.626949 
L 348.090923 189.979583 
L 348.149658 190.002521 
L 348.208393 190.881818 
L 348.325862 188.992392 
L 348.384597 191.380511 
L 348.443332 189.836856 
L 348.502067 188.661062 
L 348.560801 188.82078 
L 348.619536 192.454357 
L 348.678271 189.231968 
L 348.737006 187.828491 
L 348.795741 189.335615 
L 348.854475 188.953312 
L 348.91321 187.095319 
L 348.971945 190.215761 
L 349.03068 189.429916 
L 349.089414 190.090026 
L 349.148149 188.748567 
L 349.324354 191.358422 
L 349.383088 191.010951 
L 349.500558 187.787712 
L 349.559293 189.983831 
L 349.618027 188.785098 
L 349.794232 191.112899 
L 349.911701 186.916911 
L 350.029171 188.288954 
L 350.14664 190.37293 
L 350.205375 188.873453 
L 350.26411 189.758697 
L 350.38158 190.514807 
L 350.440314 189.423969 
L 350.499049 192.587739 
L 350.557784 188.195502 
L 350.616519 189.191189 
L 350.675253 189.327119 
L 350.733988 189.851299 
L 350.851458 192.732164 
L 350.910193 190.445143 
L 350.968927 190.928544 
L 351.027662 192.221577 
L 351.086397 188.687399 
L 351.145132 190.560683 
L 351.203867 190.045849 
L 351.262601 191.959912 
L 351.321336 190.708507 
L 351.380071 190.264186 
L 351.49754 187.670473 
L 351.556275 192.145966 
L 351.61501 191.739026 
L 351.791214 190.545391 
L 351.849949 192.288693 
L 351.908684 191.51899 
L 351.967419 190.525851 
L 352.026153 185.709683 
L 352.084888 189.135968 
L 352.143623 188.29745 
L 352.202358 194.147535 
L 352.261093 187.716349 
L 352.319827 188.95671 
L 352.437297 191.820584 
L 352.496032 188.845417 
L 352.554766 189.157207 
L 352.613501 193.145901 
L 352.672236 191.767062 
L 352.730971 188.935471 
L 352.789706 189.071401 
L 352.84844 190.259089 
L 352.907175 189.489386 
L 352.96591 188.178511 
L 353.024645 192.58519 
L 353.08338 189.960893 
L 353.142114 189.593882 
L 353.200849 189.624466 
L 353.318319 191.45952 
L 353.377053 191.197005 
L 353.435788 192.43057 
L 353.494523 191.34313 
L 353.553258 188.802939 
L 353.611993 190.886066 
L 353.670727 189.852149 
L 353.846932 191.714389 
L 353.905666 187.690013 
L 353.964401 188.015395 
L 354.140606 191.994744 
L 354.31681 188.802939 
L 354.493014 191.151979 
L 354.551749 188.653416 
L 354.610484 188.754514 
L 354.669219 191.938673 
L 354.727953 191.710141 
L 354.786688 191.783203 
L 354.845423 189.07395 
L 354.904158 191.263271 
L 355.021627 189.741705 
L 355.080362 191.487556 
L 355.139097 188.142829 
L 355.197832 190.050097 
L 355.256566 189.32627 
L 355.315301 193.443248 
L 355.432771 188.12244 
L 355.491506 192.126426 
L 355.55024 190.717852 
L 355.785179 189.038268 
L 356.020119 192.940307 
L 356.196323 189.406128 
L 356.255058 189.776538 
L 356.313792 192.176551 
L 356.372527 191.703345 
L 356.431262 190.491019 
L 356.548732 192.378746 
L 356.607466 191.280263 
L 356.724936 193.722754 
L 356.783671 190.708507 
L 356.842406 190.842738 
L 356.959875 192.673545 
L 357.01861 190.012716 
L 357.077345 192.563951 
L 357.194814 190.059442 
L 357.253549 190.843588 
L 357.312284 190.287974 
L 357.371019 190.898809 
L 357.429753 193.9241 
L 357.488488 192.112833 
L 357.605958 189.75275 
L 357.664692 190.651587 
L 357.723427 191.169819 
L 357.899632 189.824963 
L 357.958366 191.277714 
L 358.017101 189.021277 
L 358.134571 192.558004 
L 358.310775 189.483439 
L 358.486979 190.694914 
L 358.545714 189.807122 
L 358.604449 191.659167 
L 358.721919 189.405279 
L 358.780653 191.36352 
L 358.839388 189.564147 
L 358.956858 192.480694 
L 359.074327 188.110546 
L 359.133062 191.422989 
L 359.191797 189.592183 
L 359.309266 192.135772 
L 359.485471 188.001802 
L 359.661675 191.605645 
L 359.72041 190.02461 
L 359.779145 190.341496 
L 359.837879 192.982785 
L 359.896614 191.234386 
L 359.955349 192.143418 
L 360.014084 190.774773 
L 360.131553 193.061794 
L 360.190288 192.422074 
L 360.249023 192.039771 
L 360.307758 188.598195 
L 360.366492 193.150149 
L 360.425227 191.159625 
L 360.483962 188.45292 
L 360.542697 190.685569 
L 360.601432 191.569114 
L 360.660166 190.284576 
L 360.718901 194.807645 
L 360.777636 192.950502 
L 360.895105 190.805357 
L 360.95384 192.412729 
L 361.012575 191.503697 
L 361.130045 186.713016 
L 361.188779 187.05454 
L 361.423718 191.281962 
L 361.482453 189.389987 
L 361.599923 191.636229 
L 361.658658 191.18766 
L 361.717392 189.663546 
L 361.893597 181.139889 
L 362.011066 184.974812 
L 362.128536 180.071139 
L 362.187271 180.650541 
L 362.246005 180.120414 
L 362.480945 186.994221 
L 362.539679 183.414166 
L 362.598414 183.721708 
L 362.833353 191.339732 
L 363.068292 188.110546 
L 363.127027 182.652959 
L 363.185762 182.816075 
L 363.303231 189.322871 
L 363.361966 183.649495 
L 363.420701 188.225237 
L 363.596905 183.914559 
L 363.65564 186.60937 
L 363.714375 183.430308 
L 363.890579 190.185177 
L 363.949314 191.492653 
L 364.125518 184.924688 
L 364.242988 190.598914 
L 364.301723 189.820715 
L 364.360458 190.740791 
L 364.419192 189.82921 
L 364.477927 190.595515 
L 364.654131 191.694849 
L 364.712866 186.815813 
L 364.771601 187.263533 
L 364.830336 190.848685 
L 364.889071 189.989778 
L 364.947805 187.555782 
L 365.00654 189.715369 
L 365.065275 188.674655 
L 365.182744 190.940438 
L 365.300214 189.938804 
L 365.358949 190.163938 
L 365.535153 193.638647 
L 365.652623 189.006834 
L 365.770092 195.318232 
L 365.828827 188.267715 
L 365.887562 192.405932 
L 366.005031 188.700992 
L 366.063766 192.514676 
L 366.122501 190.778171 
L 366.181236 188.915081 
L 366.239971 191.245431 
L 366.35744 186.116624 
L 366.47491 191.710991 
L 366.533644 189.298234 
L 366.651114 191.24628 
L 366.709849 187.566826 
L 366.768584 190.713605 
L 366.827318 188.833524 
L 366.886053 190.7221 
L 366.944788 190.365284 
L 367.003523 190.669427 
L 367.062257 191.864761 
L 367.120992 190.553887 
L 367.179727 190.923446 
L 367.238462 191.172368 
L 367.297197 192.366853 
L 367.355931 188.732426 
L 367.414666 190.056043 
L 367.473401 145.699553 
L 367.59087 192.09924 
L 367.70834 192.103488 
L 367.82581 195.10839 
L 367.884544 193.122113 
L 367.943279 194.707396 
L 368.119484 199.921159 
L 368.178218 202.020428 
L 368.354423 195.661455 
L 368.413157 197.058984 
L 368.471892 193.101724 
L 368.530627 193.518859 
L 368.589362 194.968212 
L 368.648097 193.039706 
L 368.706831 196.587477 
L 368.765566 194.654723 
L 368.824301 194.126296 
L 368.883036 196.890771 
L 368.94177 192.694784 
L 369.000505 195.438869 
L 369.05924 192.749156 
L 369.117975 193.165441 
L 369.17671 195.827119 
L 369.235444 193.693869 
L 369.294179 191.531733 
L 369.352914 195.054018 
L 369.411649 193.449195 
L 369.470383 193.732949 
L 369.529118 194.605449 
L 369.705323 190.533497 
L 369.881527 194.217199 
L 369.940262 194.872211 
L 369.998997 188.146228 
L 370.057731 192.727916 
L 370.116466 192.402534 
L 370.175201 193.010821 
L 370.233936 192.787386 
L 370.29267 190.628648 
L 370.351405 197.740333 
L 370.41014 192.95475 
L 370.468875 190.277779 
L 370.52761 193.753338 
L 370.586344 189.025525 
L 370.645079 195.234125 
L 370.821283 162.501344 
L 370.938753 191.876655 
L 370.997488 191.663415 
L 371.056223 190.212363 
L 371.114957 193.094927 
L 371.173692 192.093294 
L 371.291162 193.576629 
L 371.349896 190.845287 
L 371.408631 177.496116 
L 371.467366 190.305815 
L 371.526101 189.973636 
L 371.584836 189.672891 
L 371.76104 229.679623 
L 371.819775 200.555782 
L 371.87851 203.962527 
L 371.937244 203.823198 
L 372.054714 231.066109 
L 372.230918 195.760004 
L 372.289653 196.403972 
L 372.348388 195.82542 
L 372.465857 199.786929 
L 372.524592 192.979387 
L 372.583327 197.487164 
L 372.642062 197.398809 
L 372.700796 197.586563 
L 372.759531 194.161977 
L 373.11194 240.328035 
L 373.170675 239.529447 
L 373.229409 239.181976 
L 373.346879 242.116364 
L 373.405614 241.395935 
L 373.464349 241.446059 
L 373.523083 242.086629 
L 373.581818 241.593883 
" style="fill:none;stroke:#1f77b4;stroke-linecap:square;stroke-width:1.5;"/>
   </g>
   <g id="patch_3">
    <path d="M 54 252 
L 54 34.56 
" style="fill:none;stroke:#000000;stroke-linecap:square;stroke-linejoin:miter;stroke-width:0.8;"/>
   </g>
   <g id="patch_4">
    <path d="M 388.8 252 
L 388.8 34.56 
" style="fill:none;stroke:#000000;stroke-linecap:square;stroke-linejoin:miter;stroke-width:0.8;"/>
   </g>
   <g id="patch_5">
    <path d="M 54 252 
L 388.8 252 
" style="fill:none;stroke:#000000;stroke-linecap:square;stroke-linejoin:miter;stroke-width:0.8;"/>
   </g>
   <g id="patch_6">
    <path d="M 54 34.56 
L 388.8 34.56 
" style="fill:none;stroke:#000000;stroke-linecap:square;stroke-linejoin:miter;stroke-width:0.8;"/>
   </g>
  </g>
 </g>
 <defs>
  <clipPath id="p40eb93cadc">
   <rect height="217.44" width="334.8" x="54" y="34.56"/>
  </clipPath>
 </defs>
</svg>
