<?xml version="1.0" encoding="utf-8" standalone="no"?>
<!DOCTYPE svg PUBLIC "-//W3C//DTD SVG 1.1//EN"
  "http://www.w3.org/Graphics/SVG/1.1/DTD/svg11.dtd">
<!-- Created with matplotlib (https://matplotlib.org/) -->
<svg height="288pt" version="1.1" viewBox="0 0 432 288" width="432pt" xmlns="http://www.w3.org/2000/svg" xmlns:xlink="http://www.w3.org/1999/xlink">
 <defs>
  <style type="text/css">
*{stroke-linecap:butt;stroke-linejoin:round;}
  </style>
 </defs>
 <g id="figure_1">
  <g id="patch_1">
   <path d="M 0 288 
L 432 288 
L 432 0 
L 0 0 
z
" style="fill:#ffffff;"/>
  </g>
  <g id="axes_1">
   <g id="patch_2">
    <path d="M 54 252 
L 388.8 252 
L 388.8 34.56 
L 54 34.56 
z
" style="fill:#ffffff;"/>
   </g>
   <g id="patch_3">
    <path clip-path="url(#pd08ebb240e)" d="M 71.496892 252 
L 71.496892 34.56 
L 71.499375 34.56 
L 71.499375 252 
z
" style="fill:#ff0000;opacity:0.5;stroke:#ff0000;stroke-linejoin:miter;"/>
   </g>
   <g id="patch_4">
    <path clip-path="url(#pd08ebb240e)" d="M 245.448773 252 
L 245.448773 34.56 
L 245.451257 34.56 
L 245.451257 252 
z
" style="fill:#ff0000;opacity:0.5;stroke:#ff0000;stroke-linejoin:miter;"/>
   </g>
   <g id="patch_5">
    <path clip-path="url(#pd08ebb240e)" d="M 247.073052 252 
L 247.073052 34.56 
L 247.075536 34.56 
L 247.075536 252 
z
" style="fill:#ff0000;opacity:0.5;stroke:#ff0000;stroke-linejoin:miter;"/>
   </g>
   <g id="patch_6">
    <path clip-path="url(#pd08ebb240e)" d="M 255.755745 252 
L 255.755745 34.56 
L 255.758229 34.56 
L 255.758229 252 
z
" style="fill:#ff0000;opacity:0.5;stroke:#ff0000;stroke-linejoin:miter;"/>
   </g>
   <g id="patch_7">
    <path clip-path="url(#pd08ebb240e)" d="M 261.95483 252 
L 261.95483 34.56 
L 261.957313 34.56 
L 261.957313 252 
z
" style="fill:#ff0000;opacity:0.5;stroke:#ff0000;stroke-linejoin:miter;"/>
   </g>
   <g id="patch_8">
    <path clip-path="url(#pd08ebb240e)" d="M 267.811177 252 
L 267.811177 34.56 
L 267.81366 34.56 
L 267.81366 252 
z
" style="fill:#ff0000;opacity:0.5;stroke:#ff0000;stroke-linejoin:miter;"/>
   </g>
   <g id="patch_9">
    <path clip-path="url(#pd08ebb240e)" d="M 273.448966 252 
L 273.448966 34.56 
L 273.45145 34.56 
L 273.45145 252 
z
" style="fill:#ff0000;opacity:0.5;stroke:#ff0000;stroke-linejoin:miter;"/>
   </g>
   <g id="patch_10">
    <path clip-path="url(#pd08ebb240e)" d="M 277.541951 252 
L 277.541951 34.56 
L 277.544435 34.56 
L 277.544435 252 
z
" style="fill:#ff0000;opacity:0.5;stroke:#ff0000;stroke-linejoin:miter;"/>
   </g>
   <g id="patch_11">
    <path clip-path="url(#pd08ebb240e)" d="M 281.133248 252 
L 281.133248 34.56 
L 281.135732 34.56 
L 281.135732 252 
z
" style="fill:#ff0000;opacity:0.5;stroke:#ff0000;stroke-linejoin:miter;"/>
   </g>
   <g id="patch_12">
    <path clip-path="url(#pd08ebb240e)" d="M 284.98284 252 
L 284.98284 34.56 
L 284.985324 34.56 
L 284.985324 252 
z
" style="fill:#ff0000;opacity:0.5;stroke:#ff0000;stroke-linejoin:miter;"/>
   </g>
   <g id="patch_13">
    <path clip-path="url(#pd08ebb240e)" d="M 289.065891 252 
L 289.065891 34.56 
L 289.068375 34.56 
L 289.068375 252 
z
" style="fill:#ff0000;opacity:0.5;stroke:#ff0000;stroke-linejoin:miter;"/>
   </g>
   <g id="patch_14">
    <path clip-path="url(#pd08ebb240e)" d="M 293.442008 252 
L 293.442008 34.56 
L 293.444491 34.56 
L 293.444491 252 
z
" style="fill:#ff0000;opacity:0.5;stroke:#ff0000;stroke-linejoin:miter;"/>
   </g>
   <g id="patch_15">
    <path clip-path="url(#pd08ebb240e)" d="M 298.056551 252 
L 298.056551 34.56 
L 298.059034 34.56 
L 298.059034 252 
z
" style="fill:#ff0000;opacity:0.5;stroke:#ff0000;stroke-linejoin:miter;"/>
   </g>
   <g id="patch_16">
    <path clip-path="url(#pd08ebb240e)" d="M 302.90952 252 
L 302.90952 34.56 
L 302.912004 34.56 
L 302.912004 252 
z
" style="fill:#ff0000;opacity:0.5;stroke:#ff0000;stroke-linejoin:miter;"/>
   </g>
   <g id="patch_17">
    <path clip-path="url(#pd08ebb240e)" d="M 308.01085 252 
L 308.01085 34.56 
L 308.013334 34.56 
L 308.013334 252 
z
" style="fill:#ff0000;opacity:0.5;stroke:#ff0000;stroke-linejoin:miter;"/>
   </g>
   <g id="patch_18">
    <path clip-path="url(#pd08ebb240e)" d="M 312.660164 252 
L 312.660164 34.56 
L 312.662647 34.56 
L 312.662647 252 
z
" style="fill:#ff0000;opacity:0.5;stroke:#ff0000;stroke-linejoin:miter;"/>
   </g>
   <g id="patch_19">
    <path clip-path="url(#pd08ebb240e)" d="M 318.024756 252 
L 318.024756 34.56 
L 318.02724 34.56 
L 318.02724 252 
z
" style="fill:#ff0000;opacity:0.5;stroke:#ff0000;stroke-linejoin:miter;"/>
   </g>
   <g id="patch_20">
    <path clip-path="url(#pd08ebb240e)" d="M 323.905939 252 
L 323.905939 34.56 
L 323.908423 34.56 
L 323.908423 252 
z
" style="fill:#ff0000;opacity:0.5;stroke:#ff0000;stroke-linejoin:miter;"/>
   </g>
   <g id="patch_21">
    <path clip-path="url(#pd08ebb240e)" d="M 329.553663 252 
L 329.553663 34.56 
L 329.556147 34.56 
L 329.556147 252 
z
" style="fill:#ff0000;opacity:0.5;stroke:#ff0000;stroke-linejoin:miter;"/>
   </g>
   <g id="patch_22">
    <path clip-path="url(#pd08ebb240e)" d="M 335.991174 252 
L 335.991174 34.56 
L 335.993658 34.56 
L 335.993658 252 
z
" style="fill:#ff0000;opacity:0.5;stroke:#ff0000;stroke-linejoin:miter;"/>
   </g>
   <g id="patch_23">
    <path clip-path="url(#pd08ebb240e)" d="M 342.890636 252 
L 342.890636 34.56 
L 342.89312 34.56 
L 342.89312 252 
z
" style="fill:#ff0000;opacity:0.5;stroke:#ff0000;stroke-linejoin:miter;"/>
   </g>
   <g id="patch_24">
    <path clip-path="url(#pd08ebb240e)" d="M 365.113958 252 
L 365.113958 34.56 
L 365.116441 34.56 
L 365.116441 252 
z
" style="fill:#ff0000;opacity:0.5;stroke:#ff0000;stroke-linejoin:miter;"/>
   </g>
   <g id="matplotlib.axis_1">
    <g id="xtick_1">
     <g id="line2d_1">
      <defs>
       <path d="M 0 0 
L 0 3.5 
" id="m010373d48e" style="stroke:#000000;stroke-width:0.8;"/>
      </defs>
      <g>
       <use style="stroke:#000000;stroke-width:0.8;" x="69.218182" xlink:href="#m010373d48e" y="252"/>
      </g>
     </g>
     <g id="text_1">
      <!-- 0 -->
      <defs>
       <path d="M 31.78125 66.40625 
Q 24.171875 66.40625 20.328125 58.90625 
Q 16.5 51.421875 16.5 36.375 
Q 16.5 21.390625 20.328125 13.890625 
Q 24.171875 6.390625 31.78125 6.390625 
Q 39.453125 6.390625 43.28125 13.890625 
Q 47.125 21.390625 47.125 36.375 
Q 47.125 51.421875 43.28125 58.90625 
Q 39.453125 66.40625 31.78125 66.40625 
z
M 31.78125 74.21875 
Q 44.046875 74.21875 50.515625 64.515625 
Q 56.984375 54.828125 56.984375 36.375 
Q 56.984375 17.96875 50.515625 8.265625 
Q 44.046875 -1.421875 31.78125 -1.421875 
Q 19.53125 -1.421875 13.0625 8.265625 
Q 6.59375 17.96875 6.59375 36.375 
Q 6.59375 54.828125 13.0625 64.515625 
Q 19.53125 74.21875 31.78125 74.21875 
z
" id="DejaVuSans-48"/>
      </defs>
      <g transform="translate(66.036932 266.598437)scale(0.1 -0.1)">
       <use xlink:href="#DejaVuSans-48"/>
      </g>
     </g>
    </g>
    <g id="xtick_2">
     <g id="line2d_2">
      <g>
       <use style="stroke:#000000;stroke-width:0.8;" x="118.890335" xlink:href="#m010373d48e" y="252"/>
      </g>
     </g>
     <g id="text_2">
      <!-- 20000 -->
      <defs>
       <path d="M 19.1875 8.296875 
L 53.609375 8.296875 
L 53.609375 0 
L 7.328125 0 
L 7.328125 8.296875 
Q 12.9375 14.109375 22.625 23.890625 
Q 32.328125 33.6875 34.8125 36.53125 
Q 39.546875 41.84375 41.421875 45.53125 
Q 43.3125 49.21875 43.3125 52.78125 
Q 43.3125 58.59375 39.234375 62.25 
Q 35.15625 65.921875 28.609375 65.921875 
Q 23.96875 65.921875 18.8125 64.3125 
Q 13.671875 62.703125 7.8125 59.421875 
L 7.8125 69.390625 
Q 13.765625 71.78125 18.9375 73 
Q 24.125 74.21875 28.421875 74.21875 
Q 39.75 74.21875 46.484375 68.546875 
Q 53.21875 62.890625 53.21875 53.421875 
Q 53.21875 48.921875 51.53125 44.890625 
Q 49.859375 40.875 45.40625 35.40625 
Q 44.1875 33.984375 37.640625 27.21875 
Q 31.109375 20.453125 19.1875 8.296875 
z
" id="DejaVuSans-50"/>
      </defs>
      <g transform="translate(102.984085 266.598437)scale(0.1 -0.1)">
       <use xlink:href="#DejaVuSans-50"/>
       <use x="63.623047" xlink:href="#DejaVuSans-48"/>
       <use x="127.246094" xlink:href="#DejaVuSans-48"/>
       <use x="190.869141" xlink:href="#DejaVuSans-48"/>
       <use x="254.492188" xlink:href="#DejaVuSans-48"/>
      </g>
     </g>
    </g>
    <g id="xtick_3">
     <g id="line2d_3">
      <g>
       <use style="stroke:#000000;stroke-width:0.8;" x="168.562489" xlink:href="#m010373d48e" y="252"/>
      </g>
     </g>
     <g id="text_3">
      <!-- 40000 -->
      <defs>
       <path d="M 37.796875 64.3125 
L 12.890625 25.390625 
L 37.796875 25.390625 
z
M 35.203125 72.90625 
L 47.609375 72.90625 
L 47.609375 25.390625 
L 58.015625 25.390625 
L 58.015625 17.1875 
L 47.609375 17.1875 
L 47.609375 0 
L 37.796875 0 
L 37.796875 17.1875 
L 4.890625 17.1875 
L 4.890625 26.703125 
z
" id="DejaVuSans-52"/>
      </defs>
      <g transform="translate(152.656239 266.598437)scale(0.1 -0.1)">
       <use xlink:href="#DejaVuSans-52"/>
       <use x="63.623047" xlink:href="#DejaVuSans-48"/>
       <use x="127.246094" xlink:href="#DejaVuSans-48"/>
       <use x="190.869141" xlink:href="#DejaVuSans-48"/>
       <use x="254.492188" xlink:href="#DejaVuSans-48"/>
      </g>
     </g>
    </g>
    <g id="xtick_4">
     <g id="line2d_4">
      <g>
       <use style="stroke:#000000;stroke-width:0.8;" x="218.234642" xlink:href="#m010373d48e" y="252"/>
      </g>
     </g>
     <g id="text_4">
      <!-- 60000 -->
      <defs>
       <path d="M 33.015625 40.375 
Q 26.375 40.375 22.484375 35.828125 
Q 18.609375 31.296875 18.609375 23.390625 
Q 18.609375 15.53125 22.484375 10.953125 
Q 26.375 6.390625 33.015625 6.390625 
Q 39.65625 6.390625 43.53125 10.953125 
Q 47.40625 15.53125 47.40625 23.390625 
Q 47.40625 31.296875 43.53125 35.828125 
Q 39.65625 40.375 33.015625 40.375 
z
M 52.59375 71.296875 
L 52.59375 62.3125 
Q 48.875 64.0625 45.09375 64.984375 
Q 41.3125 65.921875 37.59375 65.921875 
Q 27.828125 65.921875 22.671875 59.328125 
Q 17.53125 52.734375 16.796875 39.40625 
Q 19.671875 43.65625 24.015625 45.921875 
Q 28.375 48.1875 33.59375 48.1875 
Q 44.578125 48.1875 50.953125 41.515625 
Q 57.328125 34.859375 57.328125 23.390625 
Q 57.328125 12.15625 50.6875 5.359375 
Q 44.046875 -1.421875 33.015625 -1.421875 
Q 20.359375 -1.421875 13.671875 8.265625 
Q 6.984375 17.96875 6.984375 36.375 
Q 6.984375 53.65625 15.1875 63.9375 
Q 23.390625 74.21875 37.203125 74.21875 
Q 40.921875 74.21875 44.703125 73.484375 
Q 48.484375 72.75 52.59375 71.296875 
z
" id="DejaVuSans-54"/>
      </defs>
      <g transform="translate(202.328392 266.598437)scale(0.1 -0.1)">
       <use xlink:href="#DejaVuSans-54"/>
       <use x="63.623047" xlink:href="#DejaVuSans-48"/>
       <use x="127.246094" xlink:href="#DejaVuSans-48"/>
       <use x="190.869141" xlink:href="#DejaVuSans-48"/>
       <use x="254.492188" xlink:href="#DejaVuSans-48"/>
      </g>
     </g>
    </g>
    <g id="xtick_5">
     <g id="line2d_5">
      <g>
       <use style="stroke:#000000;stroke-width:0.8;" x="267.906795" xlink:href="#m010373d48e" y="252"/>
      </g>
     </g>
     <g id="text_5">
      <!-- 80000 -->
      <defs>
       <path d="M 31.78125 34.625 
Q 24.75 34.625 20.71875 30.859375 
Q 16.703125 27.09375 16.703125 20.515625 
Q 16.703125 13.921875 20.71875 10.15625 
Q 24.75 6.390625 31.78125 6.390625 
Q 38.8125 6.390625 42.859375 10.171875 
Q 46.921875 13.96875 46.921875 20.515625 
Q 46.921875 27.09375 42.890625 30.859375 
Q 38.875 34.625 31.78125 34.625 
z
M 21.921875 38.8125 
Q 15.578125 40.375 12.03125 44.71875 
Q 8.5 49.078125 8.5 55.328125 
Q 8.5 64.0625 14.71875 69.140625 
Q 20.953125 74.21875 31.78125 74.21875 
Q 42.671875 74.21875 48.875 69.140625 
Q 55.078125 64.0625 55.078125 55.328125 
Q 55.078125 49.078125 51.53125 44.71875 
Q 48 40.375 41.703125 38.8125 
Q 48.828125 37.15625 52.796875 32.3125 
Q 56.78125 27.484375 56.78125 20.515625 
Q 56.78125 9.90625 50.3125 4.234375 
Q 43.84375 -1.421875 31.78125 -1.421875 
Q 19.734375 -1.421875 13.25 4.234375 
Q 6.78125 9.90625 6.78125 20.515625 
Q 6.78125 27.484375 10.78125 32.3125 
Q 14.796875 37.15625 21.921875 38.8125 
z
M 18.3125 54.390625 
Q 18.3125 48.734375 21.84375 45.5625 
Q 25.390625 42.390625 31.78125 42.390625 
Q 38.140625 42.390625 41.71875 45.5625 
Q 45.3125 48.734375 45.3125 54.390625 
Q 45.3125 60.0625 41.71875 63.234375 
Q 38.140625 66.40625 31.78125 66.40625 
Q 25.390625 66.40625 21.84375 63.234375 
Q 18.3125 60.0625 18.3125 54.390625 
z
" id="DejaVuSans-56"/>
      </defs>
      <g transform="translate(252.000545 266.598437)scale(0.1 -0.1)">
       <use xlink:href="#DejaVuSans-56"/>
       <use x="63.623047" xlink:href="#DejaVuSans-48"/>
       <use x="127.246094" xlink:href="#DejaVuSans-48"/>
       <use x="190.869141" xlink:href="#DejaVuSans-48"/>
       <use x="254.492188" xlink:href="#DejaVuSans-48"/>
      </g>
     </g>
    </g>
    <g id="xtick_6">
     <g id="line2d_6">
      <g>
       <use style="stroke:#000000;stroke-width:0.8;" x="317.578949" xlink:href="#m010373d48e" y="252"/>
      </g>
     </g>
     <g id="text_6">
      <!-- 100000 -->
      <defs>
       <path d="M 12.40625 8.296875 
L 28.515625 8.296875 
L 28.515625 63.921875 
L 10.984375 60.40625 
L 10.984375 69.390625 
L 28.421875 72.90625 
L 38.28125 72.90625 
L 38.28125 8.296875 
L 54.390625 8.296875 
L 54.390625 0 
L 12.40625 0 
z
" id="DejaVuSans-49"/>
      </defs>
      <g transform="translate(298.491449 266.598437)scale(0.1 -0.1)">
       <use xlink:href="#DejaVuSans-49"/>
       <use x="63.623047" xlink:href="#DejaVuSans-48"/>
       <use x="127.246094" xlink:href="#DejaVuSans-48"/>
       <use x="190.869141" xlink:href="#DejaVuSans-48"/>
       <use x="254.492188" xlink:href="#DejaVuSans-48"/>
       <use x="318.115234" xlink:href="#DejaVuSans-48"/>
      </g>
     </g>
    </g>
    <g id="xtick_7">
     <g id="line2d_7">
      <g>
       <use style="stroke:#000000;stroke-width:0.8;" x="367.251102" xlink:href="#m010373d48e" y="252"/>
      </g>
     </g>
     <g id="text_7">
      <!-- 120000 -->
      <g transform="translate(348.163602 266.598437)scale(0.1 -0.1)">
       <use xlink:href="#DejaVuSans-49"/>
       <use x="63.623047" xlink:href="#DejaVuSans-50"/>
       <use x="127.246094" xlink:href="#DejaVuSans-48"/>
       <use x="190.869141" xlink:href="#DejaVuSans-48"/>
       <use x="254.492188" xlink:href="#DejaVuSans-48"/>
       <use x="318.115234" xlink:href="#DejaVuSans-48"/>
      </g>
     </g>
    </g>
    <g id="text_8">
     <!-- Stretched Frames -->
     <defs>
      <path d="M 53.515625 70.515625 
L 53.515625 60.890625 
Q 47.90625 63.578125 42.921875 64.890625 
Q 37.9375 66.21875 33.296875 66.21875 
Q 25.25 66.21875 20.875 63.09375 
Q 16.5 59.96875 16.5 54.203125 
Q 16.5 49.359375 19.40625 46.890625 
Q 22.3125 44.4375 30.421875 42.921875 
L 36.375 41.703125 
Q 47.40625 39.59375 52.65625 34.296875 
Q 57.90625 29 57.90625 20.125 
Q 57.90625 9.515625 50.796875 4.046875 
Q 43.703125 -1.421875 29.984375 -1.421875 
Q 24.8125 -1.421875 18.96875 -0.25 
Q 13.140625 0.921875 6.890625 3.21875 
L 6.890625 13.375 
Q 12.890625 10.015625 18.65625 8.296875 
Q 24.421875 6.59375 29.984375 6.59375 
Q 38.421875 6.59375 43.015625 9.90625 
Q 47.609375 13.234375 47.609375 19.390625 
Q 47.609375 24.75 44.3125 27.78125 
Q 41.015625 30.8125 33.5 32.328125 
L 27.484375 33.5 
Q 16.453125 35.6875 11.515625 40.375 
Q 6.59375 45.0625 6.59375 53.421875 
Q 6.59375 63.09375 13.40625 68.65625 
Q 20.21875 74.21875 32.171875 74.21875 
Q 37.3125 74.21875 42.625 73.28125 
Q 47.953125 72.359375 53.515625 70.515625 
z
" id="DejaVuSans-83"/>
      <path d="M 18.3125 70.21875 
L 18.3125 54.6875 
L 36.8125 54.6875 
L 36.8125 47.703125 
L 18.3125 47.703125 
L 18.3125 18.015625 
Q 18.3125 11.328125 20.140625 9.421875 
Q 21.96875 7.515625 27.59375 7.515625 
L 36.8125 7.515625 
L 36.8125 0 
L 27.59375 0 
Q 17.1875 0 13.234375 3.875 
Q 9.28125 7.765625 9.28125 18.015625 
L 9.28125 47.703125 
L 2.6875 47.703125 
L 2.6875 54.6875 
L 9.28125 54.6875 
L 9.28125 70.21875 
z
" id="DejaVuSans-116"/>
      <path d="M 41.109375 46.296875 
Q 39.59375 47.171875 37.8125 47.578125 
Q 36.03125 48 33.890625 48 
Q 26.265625 48 22.1875 43.046875 
Q 18.109375 38.09375 18.109375 28.8125 
L 18.109375 0 
L 9.078125 0 
L 9.078125 54.6875 
L 18.109375 54.6875 
L 18.109375 46.1875 
Q 20.953125 51.171875 25.484375 53.578125 
Q 30.03125 56 36.53125 56 
Q 37.453125 56 38.578125 55.875 
Q 39.703125 55.765625 41.0625 55.515625 
z
" id="DejaVuSans-114"/>
      <path d="M 56.203125 29.59375 
L 56.203125 25.203125 
L 14.890625 25.203125 
Q 15.484375 15.921875 20.484375 11.0625 
Q 25.484375 6.203125 34.421875 6.203125 
Q 39.59375 6.203125 44.453125 7.46875 
Q 49.3125 8.734375 54.109375 11.28125 
L 54.109375 2.78125 
Q 49.265625 0.734375 44.1875 -0.34375 
Q 39.109375 -1.421875 33.890625 -1.421875 
Q 20.796875 -1.421875 13.15625 6.1875 
Q 5.515625 13.8125 5.515625 26.8125 
Q 5.515625 40.234375 12.765625 48.109375 
Q 20.015625 56 32.328125 56 
Q 43.359375 56 49.78125 48.890625 
Q 56.203125 41.796875 56.203125 29.59375 
z
M 47.21875 32.234375 
Q 47.125 39.59375 43.09375 43.984375 
Q 39.0625 48.390625 32.421875 48.390625 
Q 24.90625 48.390625 20.390625 44.140625 
Q 15.875 39.890625 15.1875 32.171875 
z
" id="DejaVuSans-101"/>
      <path d="M 48.78125 52.59375 
L 48.78125 44.1875 
Q 44.96875 46.296875 41.140625 47.34375 
Q 37.3125 48.390625 33.40625 48.390625 
Q 24.65625 48.390625 19.8125 42.84375 
Q 14.984375 37.3125 14.984375 27.296875 
Q 14.984375 17.28125 19.8125 11.734375 
Q 24.65625 6.203125 33.40625 6.203125 
Q 37.3125 6.203125 41.140625 7.25 
Q 44.96875 8.296875 48.78125 10.40625 
L 48.78125 2.09375 
Q 45.015625 0.34375 40.984375 -0.53125 
Q 36.96875 -1.421875 32.421875 -1.421875 
Q 20.0625 -1.421875 12.78125 6.34375 
Q 5.515625 14.109375 5.515625 27.296875 
Q 5.515625 40.671875 12.859375 48.328125 
Q 20.21875 56 33.015625 56 
Q 37.15625 56 41.109375 55.140625 
Q 45.0625 54.296875 48.78125 52.59375 
z
" id="DejaVuSans-99"/>
      <path d="M 54.890625 33.015625 
L 54.890625 0 
L 45.90625 0 
L 45.90625 32.71875 
Q 45.90625 40.484375 42.875 44.328125 
Q 39.84375 48.1875 33.796875 48.1875 
Q 26.515625 48.1875 22.3125 43.546875 
Q 18.109375 38.921875 18.109375 30.90625 
L 18.109375 0 
L 9.078125 0 
L 9.078125 75.984375 
L 18.109375 75.984375 
L 18.109375 46.1875 
Q 21.34375 51.125 25.703125 53.5625 
Q 30.078125 56 35.796875 56 
Q 45.21875 56 50.046875 50.171875 
Q 54.890625 44.34375 54.890625 33.015625 
z
" id="DejaVuSans-104"/>
      <path d="M 45.40625 46.390625 
L 45.40625 75.984375 
L 54.390625 75.984375 
L 54.390625 0 
L 45.40625 0 
L 45.40625 8.203125 
Q 42.578125 3.328125 38.25 0.953125 
Q 33.9375 -1.421875 27.875 -1.421875 
Q 17.96875 -1.421875 11.734375 6.484375 
Q 5.515625 14.40625 5.515625 27.296875 
Q 5.515625 40.1875 11.734375 48.09375 
Q 17.96875 56 27.875 56 
Q 33.9375 56 38.25 53.625 
Q 42.578125 51.265625 45.40625 46.390625 
z
M 14.796875 27.296875 
Q 14.796875 17.390625 18.875 11.75 
Q 22.953125 6.109375 30.078125 6.109375 
Q 37.203125 6.109375 41.296875 11.75 
Q 45.40625 17.390625 45.40625 27.296875 
Q 45.40625 37.203125 41.296875 42.84375 
Q 37.203125 48.484375 30.078125 48.484375 
Q 22.953125 48.484375 18.875 42.84375 
Q 14.796875 37.203125 14.796875 27.296875 
z
" id="DejaVuSans-100"/>
      <path id="DejaVuSans-32"/>
      <path d="M 9.8125 72.90625 
L 51.703125 72.90625 
L 51.703125 64.59375 
L 19.671875 64.59375 
L 19.671875 43.109375 
L 48.578125 43.109375 
L 48.578125 34.8125 
L 19.671875 34.8125 
L 19.671875 0 
L 9.8125 0 
z
" id="DejaVuSans-70"/>
      <path d="M 34.28125 27.484375 
Q 23.390625 27.484375 19.1875 25 
Q 14.984375 22.515625 14.984375 16.5 
Q 14.984375 11.71875 18.140625 8.90625 
Q 21.296875 6.109375 26.703125 6.109375 
Q 34.1875 6.109375 38.703125 11.40625 
Q 43.21875 16.703125 43.21875 25.484375 
L 43.21875 27.484375 
z
M 52.203125 31.203125 
L 52.203125 0 
L 43.21875 0 
L 43.21875 8.296875 
Q 40.140625 3.328125 35.546875 0.953125 
Q 30.953125 -1.421875 24.3125 -1.421875 
Q 15.921875 -1.421875 10.953125 3.296875 
Q 6 8.015625 6 15.921875 
Q 6 25.140625 12.171875 29.828125 
Q 18.359375 34.515625 30.609375 34.515625 
L 43.21875 34.515625 
L 43.21875 35.40625 
Q 43.21875 41.609375 39.140625 45 
Q 35.0625 48.390625 27.6875 48.390625 
Q 23 48.390625 18.546875 47.265625 
Q 14.109375 46.140625 10.015625 43.890625 
L 10.015625 52.203125 
Q 14.9375 54.109375 19.578125 55.046875 
Q 24.21875 56 28.609375 56 
Q 40.484375 56 46.34375 49.84375 
Q 52.203125 43.703125 52.203125 31.203125 
z
" id="DejaVuSans-97"/>
      <path d="M 52 44.1875 
Q 55.375 50.25 60.0625 53.125 
Q 64.75 56 71.09375 56 
Q 79.640625 56 84.28125 50.015625 
Q 88.921875 44.046875 88.921875 33.015625 
L 88.921875 0 
L 79.890625 0 
L 79.890625 32.71875 
Q 79.890625 40.578125 77.09375 44.375 
Q 74.3125 48.1875 68.609375 48.1875 
Q 61.625 48.1875 57.5625 43.546875 
Q 53.515625 38.921875 53.515625 30.90625 
L 53.515625 0 
L 44.484375 0 
L 44.484375 32.71875 
Q 44.484375 40.625 41.703125 44.40625 
Q 38.921875 48.1875 33.109375 48.1875 
Q 26.21875 48.1875 22.15625 43.53125 
Q 18.109375 38.875 18.109375 30.90625 
L 18.109375 0 
L 9.078125 0 
L 9.078125 54.6875 
L 18.109375 54.6875 
L 18.109375 46.1875 
Q 21.1875 51.21875 25.484375 53.609375 
Q 29.78125 56 35.6875 56 
Q 41.65625 56 45.828125 52.96875 
Q 50 49.953125 52 44.1875 
z
" id="DejaVuSans-109"/>
      <path d="M 44.28125 53.078125 
L 44.28125 44.578125 
Q 40.484375 46.53125 36.375 47.5 
Q 32.28125 48.484375 27.875 48.484375 
Q 21.1875 48.484375 17.84375 46.4375 
Q 14.5 44.390625 14.5 40.28125 
Q 14.5 37.15625 16.890625 35.375 
Q 19.28125 33.59375 26.515625 31.984375 
L 29.59375 31.296875 
Q 39.15625 29.25 43.1875 25.515625 
Q 47.21875 21.78125 47.21875 15.09375 
Q 47.21875 7.46875 41.1875 3.015625 
Q 35.15625 -1.421875 24.609375 -1.421875 
Q 20.21875 -1.421875 15.453125 -0.5625 
Q 10.6875 0.296875 5.421875 2 
L 5.421875 11.28125 
Q 10.40625 8.6875 15.234375 7.390625 
Q 20.0625 6.109375 24.8125 6.109375 
Q 31.15625 6.109375 34.5625 8.28125 
Q 37.984375 10.453125 37.984375 14.40625 
Q 37.984375 18.0625 35.515625 20.015625 
Q 33.0625 21.96875 24.703125 23.78125 
L 21.578125 24.515625 
Q 13.234375 26.265625 9.515625 29.90625 
Q 5.8125 33.546875 5.8125 39.890625 
Q 5.8125 47.609375 11.28125 51.796875 
Q 16.75 56 26.8125 56 
Q 31.78125 56 36.171875 55.265625 
Q 40.578125 54.546875 44.28125 53.078125 
z
" id="DejaVuSans-115"/>
     </defs>
     <g transform="translate(150.16125 284.835625)scale(0.16 -0.16)">
      <use xlink:href="#DejaVuSans-83"/>
      <use x="63.476562" xlink:href="#DejaVuSans-116"/>
      <use x="102.685547" xlink:href="#DejaVuSans-114"/>
      <use x="143.767578" xlink:href="#DejaVuSans-101"/>
      <use x="205.291016" xlink:href="#DejaVuSans-116"/>
      <use x="244.5" xlink:href="#DejaVuSans-99"/>
      <use x="299.480469" xlink:href="#DejaVuSans-104"/>
      <use x="362.859375" xlink:href="#DejaVuSans-101"/>
      <use x="424.382812" xlink:href="#DejaVuSans-100"/>
      <use x="487.859375" xlink:href="#DejaVuSans-32"/>
      <use x="519.646484" xlink:href="#DejaVuSans-70"/>
      <use x="577.056641" xlink:href="#DejaVuSans-114"/>
      <use x="618.169922" xlink:href="#DejaVuSans-97"/>
      <use x="679.449219" xlink:href="#DejaVuSans-109"/>
      <use x="776.861328" xlink:href="#DejaVuSans-101"/>
      <use x="838.384766" xlink:href="#DejaVuSans-115"/>
     </g>
    </g>
   </g>
   <g id="matplotlib.axis_2">
    <g id="ytick_1">
     <g id="line2d_8">
      <defs>
       <path d="M 0 0 
L -3.5 0 
" id="m015c1b14a2" style="stroke:#000000;stroke-width:0.8;"/>
      </defs>
      <g>
       <use style="stroke:#000000;stroke-width:0.8;" x="54" xlink:href="#m015c1b14a2" y="222.34486"/>
      </g>
     </g>
     <g id="text_9">
      <!-- 30 -->
      <defs>
       <path d="M 40.578125 39.3125 
Q 47.65625 37.796875 51.625 33 
Q 55.609375 28.21875 55.609375 21.1875 
Q 55.609375 10.40625 48.1875 4.484375 
Q 40.765625 -1.421875 27.09375 -1.421875 
Q 22.515625 -1.421875 17.65625 -0.515625 
Q 12.796875 0.390625 7.625 2.203125 
L 7.625 11.71875 
Q 11.71875 9.328125 16.59375 8.109375 
Q 21.484375 6.890625 26.8125 6.890625 
Q 36.078125 6.890625 40.9375 10.546875 
Q 45.796875 14.203125 45.796875 21.1875 
Q 45.796875 27.640625 41.28125 31.265625 
Q 36.765625 34.90625 28.71875 34.90625 
L 20.21875 34.90625 
L 20.21875 43.015625 
L 29.109375 43.015625 
Q 36.375 43.015625 40.234375 45.921875 
Q 44.09375 48.828125 44.09375 54.296875 
Q 44.09375 59.90625 40.109375 62.90625 
Q 36.140625 65.921875 28.71875 65.921875 
Q 24.65625 65.921875 20.015625 65.03125 
Q 15.375 64.15625 9.8125 62.3125 
L 9.8125 71.09375 
Q 15.4375 72.65625 20.34375 73.4375 
Q 25.25 74.21875 29.59375 74.21875 
Q 40.828125 74.21875 47.359375 69.109375 
Q 53.90625 64.015625 53.90625 55.328125 
Q 53.90625 49.265625 50.4375 45.09375 
Q 46.96875 40.921875 40.578125 39.3125 
z
" id="DejaVuSans-51"/>
      </defs>
      <g transform="translate(34.275 226.144078)scale(0.1 -0.1)">
       <use xlink:href="#DejaVuSans-51"/>
       <use x="63.623047" xlink:href="#DejaVuSans-48"/>
      </g>
     </g>
    </g>
    <g id="ytick_2">
     <g id="line2d_9">
      <g>
       <use style="stroke:#000000;stroke-width:0.8;" x="54" xlink:href="#m015c1b14a2" y="189.678383"/>
      </g>
     </g>
     <g id="text_10">
      <!-- 40 -->
      <g transform="translate(34.275 193.477601)scale(0.1 -0.1)">
       <use xlink:href="#DejaVuSans-52"/>
       <use x="63.623047" xlink:href="#DejaVuSans-48"/>
      </g>
     </g>
    </g>
    <g id="ytick_3">
     <g id="line2d_10">
      <g>
       <use style="stroke:#000000;stroke-width:0.8;" x="54" xlink:href="#m015c1b14a2" y="157.011906"/>
      </g>
     </g>
     <g id="text_11">
      <!-- 50 -->
      <defs>
       <path d="M 10.796875 72.90625 
L 49.515625 72.90625 
L 49.515625 64.59375 
L 19.828125 64.59375 
L 19.828125 46.734375 
Q 21.96875 47.46875 24.109375 47.828125 
Q 26.265625 48.1875 28.421875 48.1875 
Q 40.625 48.1875 47.75 41.5 
Q 54.890625 34.8125 54.890625 23.390625 
Q 54.890625 11.625 47.5625 5.09375 
Q 40.234375 -1.421875 26.90625 -1.421875 
Q 22.3125 -1.421875 17.546875 -0.640625 
Q 12.796875 0.140625 7.71875 1.703125 
L 7.71875 11.625 
Q 12.109375 9.234375 16.796875 8.0625 
Q 21.484375 6.890625 26.703125 6.890625 
Q 35.15625 6.890625 40.078125 11.328125 
Q 45.015625 15.765625 45.015625 23.390625 
Q 45.015625 31 40.078125 35.4375 
Q 35.15625 39.890625 26.703125 39.890625 
Q 22.75 39.890625 18.8125 39.015625 
Q 14.890625 38.140625 10.796875 36.28125 
z
" id="DejaVuSans-53"/>
      </defs>
      <g transform="translate(34.275 160.811124)scale(0.1 -0.1)">
       <use xlink:href="#DejaVuSans-53"/>
       <use x="63.623047" xlink:href="#DejaVuSans-48"/>
      </g>
     </g>
    </g>
    <g id="ytick_4">
     <g id="line2d_11">
      <g>
       <use style="stroke:#000000;stroke-width:0.8;" x="54" xlink:href="#m015c1b14a2" y="124.345429"/>
      </g>
     </g>
     <g id="text_12">
      <!-- 60 -->
      <g transform="translate(34.275 128.144647)scale(0.1 -0.1)">
       <use xlink:href="#DejaVuSans-54"/>
       <use x="63.623047" xlink:href="#DejaVuSans-48"/>
      </g>
     </g>
    </g>
    <g id="ytick_5">
     <g id="line2d_12">
      <g>
       <use style="stroke:#000000;stroke-width:0.8;" x="54" xlink:href="#m015c1b14a2" y="91.678952"/>
      </g>
     </g>
     <g id="text_13">
      <!-- 70 -->
      <defs>
       <path d="M 8.203125 72.90625 
L 55.078125 72.90625 
L 55.078125 68.703125 
L 28.609375 0 
L 18.3125 0 
L 43.21875 64.59375 
L 8.203125 64.59375 
z
" id="DejaVuSans-55"/>
      </defs>
      <g transform="translate(34.275 95.478171)scale(0.1 -0.1)">
       <use xlink:href="#DejaVuSans-55"/>
       <use x="63.623047" xlink:href="#DejaVuSans-48"/>
      </g>
     </g>
    </g>
    <g id="ytick_6">
     <g id="line2d_13">
      <g>
       <use style="stroke:#000000;stroke-width:0.8;" x="54" xlink:href="#m015c1b14a2" y="59.012475"/>
      </g>
     </g>
     <g id="text_14">
      <!-- 80 -->
      <g transform="translate(34.275 62.811694)scale(0.1 -0.1)">
       <use xlink:href="#DejaVuSans-56"/>
       <use x="63.623047" xlink:href="#DejaVuSans-48"/>
      </g>
     </g>
    </g>
    <g id="text_15">
     <!-- Average Brightness -->
     <defs>
      <path d="M 34.1875 63.1875 
L 20.796875 26.90625 
L 47.609375 26.90625 
z
M 28.609375 72.90625 
L 39.796875 72.90625 
L 67.578125 0 
L 57.328125 0 
L 50.6875 18.703125 
L 17.828125 18.703125 
L 11.1875 0 
L 0.78125 0 
z
" id="DejaVuSans-65"/>
      <path d="M 2.984375 54.6875 
L 12.5 54.6875 
L 29.59375 8.796875 
L 46.6875 54.6875 
L 56.203125 54.6875 
L 35.6875 0 
L 23.484375 0 
z
" id="DejaVuSans-118"/>
      <path d="M 45.40625 27.984375 
Q 45.40625 37.75 41.375 43.109375 
Q 37.359375 48.484375 30.078125 48.484375 
Q 22.859375 48.484375 18.828125 43.109375 
Q 14.796875 37.75 14.796875 27.984375 
Q 14.796875 18.265625 18.828125 12.890625 
Q 22.859375 7.515625 30.078125 7.515625 
Q 37.359375 7.515625 41.375 12.890625 
Q 45.40625 18.265625 45.40625 27.984375 
z
M 54.390625 6.78125 
Q 54.390625 -7.171875 48.1875 -13.984375 
Q 42 -20.796875 29.203125 -20.796875 
Q 24.46875 -20.796875 20.265625 -20.09375 
Q 16.0625 -19.390625 12.109375 -17.921875 
L 12.109375 -9.1875 
Q 16.0625 -11.328125 19.921875 -12.34375 
Q 23.78125 -13.375 27.78125 -13.375 
Q 36.625 -13.375 41.015625 -8.765625 
Q 45.40625 -4.15625 45.40625 5.171875 
L 45.40625 9.625 
Q 42.625 4.78125 38.28125 2.390625 
Q 33.9375 0 27.875 0 
Q 17.828125 0 11.671875 7.65625 
Q 5.515625 15.328125 5.515625 27.984375 
Q 5.515625 40.671875 11.671875 48.328125 
Q 17.828125 56 27.875 56 
Q 33.9375 56 38.28125 53.609375 
Q 42.625 51.21875 45.40625 46.390625 
L 45.40625 54.6875 
L 54.390625 54.6875 
z
" id="DejaVuSans-103"/>
      <path d="M 19.671875 34.8125 
L 19.671875 8.109375 
L 35.5 8.109375 
Q 43.453125 8.109375 47.28125 11.40625 
Q 51.125 14.703125 51.125 21.484375 
Q 51.125 28.328125 47.28125 31.5625 
Q 43.453125 34.8125 35.5 34.8125 
z
M 19.671875 64.796875 
L 19.671875 42.828125 
L 34.28125 42.828125 
Q 41.5 42.828125 45.03125 45.53125 
Q 48.578125 48.25 48.578125 53.8125 
Q 48.578125 59.328125 45.03125 62.0625 
Q 41.5 64.796875 34.28125 64.796875 
z
M 9.8125 72.90625 
L 35.015625 72.90625 
Q 46.296875 72.90625 52.390625 68.21875 
Q 58.5 63.53125 58.5 54.890625 
Q 58.5 48.1875 55.375 44.234375 
Q 52.25 40.28125 46.1875 39.3125 
Q 53.46875 37.75 57.5 32.78125 
Q 61.53125 27.828125 61.53125 20.40625 
Q 61.53125 10.640625 54.890625 5.3125 
Q 48.25 0 35.984375 0 
L 9.8125 0 
z
" id="DejaVuSans-66"/>
      <path d="M 9.421875 54.6875 
L 18.40625 54.6875 
L 18.40625 0 
L 9.421875 0 
z
M 9.421875 75.984375 
L 18.40625 75.984375 
L 18.40625 64.59375 
L 9.421875 64.59375 
z
" id="DejaVuSans-105"/>
      <path d="M 54.890625 33.015625 
L 54.890625 0 
L 45.90625 0 
L 45.90625 32.71875 
Q 45.90625 40.484375 42.875 44.328125 
Q 39.84375 48.1875 33.796875 48.1875 
Q 26.515625 48.1875 22.3125 43.546875 
Q 18.109375 38.921875 18.109375 30.90625 
L 18.109375 0 
L 9.078125 0 
L 9.078125 54.6875 
L 18.109375 54.6875 
L 18.109375 46.1875 
Q 21.34375 51.125 25.703125 53.5625 
Q 30.078125 56 35.796875 56 
Q 45.21875 56 50.046875 50.171875 
Q 54.890625 44.34375 54.890625 33.015625 
z
" id="DejaVuSans-110"/>
     </defs>
     <g transform="translate(26.9475 221.75125)rotate(-90)scale(0.16 -0.16)">
      <use xlink:href="#DejaVuSans-65"/>
      <use x="68.330078" xlink:href="#DejaVuSans-118"/>
      <use x="127.509766" xlink:href="#DejaVuSans-101"/>
      <use x="189.033203" xlink:href="#DejaVuSans-114"/>
      <use x="230.146484" xlink:href="#DejaVuSans-97"/>
      <use x="291.425781" xlink:href="#DejaVuSans-103"/>
      <use x="354.902344" xlink:href="#DejaVuSans-101"/>
      <use x="416.425781" xlink:href="#DejaVuSans-32"/>
      <use x="448.212891" xlink:href="#DejaVuSans-66"/>
      <use x="516.816406" xlink:href="#DejaVuSans-114"/>
      <use x="557.929688" xlink:href="#DejaVuSans-105"/>
      <use x="585.712891" xlink:href="#DejaVuSans-103"/>
      <use x="649.189453" xlink:href="#DejaVuSans-104"/>
      <use x="712.568359" xlink:href="#DejaVuSans-116"/>
      <use x="751.777344" xlink:href="#DejaVuSans-110"/>
      <use x="815.15625" xlink:href="#DejaVuSans-101"/>
      <use x="876.679688" xlink:href="#DejaVuSans-115"/>
      <use x="928.779297" xlink:href="#DejaVuSans-115"/>
     </g>
    </g>
   </g>
   <g id="line2d_14">
    <path clip-path="url(#pd08ebb240e)" d="M 69.218182 65.453165 
L 69.220665 65.453165 
L 69.240534 67.426404 
L 69.243018 61.064939 
L 69.329944 65.347013 
L 69.35478 64.987077 
L 69.397002 67.953129 
L 69.399485 67.953129 
L 69.493862 72.766682 
L 69.496346 66.606718 
L 69.50628 67.297207 
L 69.508764 67.297207 
L 69.640395 73.310259 
L 69.642879 73.310259 
L 69.707453 78.246815 
L 69.709936 72.198187 
L 69.767059 77.716921 
L 69.772026 77.989861 
L 69.853985 76.219851 
L 69.866403 76.492072 
L 69.876338 76.698038 
L 69.89869 75.617653 
L 69.901174 75.617653 
L 70.010453 73.968341 
L 70.020387 74.34945 
L 70.084961 77.594205 
L 70.142084 77.155772 
L 70.149535 77.248672 
L 70.19424 79.269874 
L 70.241428 77.952989 
L 70.360641 87.195672 
L 70.378027 87.156639 
L 70.427699 83.247897 
L 70.420248 89.27636 
L 70.502207 85.574015 
L 70.507174 85.530661 
L 70.529527 86.97127 
L 70.536977 86.852732 
L 70.671092 91.970192 
L 70.564297 86.639276 
L 70.68351 91.649576 
L 70.685994 91.649576 
L 70.703379 91.205237 
L 70.750568 93.356356 
L 70.86233 207.153439 
L 70.998929 207.153439 
L 71.110691 207.487377 
L 71.247289 207.487377 
L 71.359052 207.669506 
L 71.49565 207.669506 
L 71.500617 88.637433 
L 71.604929 207.436462 
L 71.833421 207.436462 
L 71.945183 207.699537 
L 72.081781 207.699537 
L 72.193544 207.909391 
L 72.330142 207.909391 
L 72.441905 208.05544 
L 72.578503 208.05544 
L 72.690265 208.233248 
L 72.826864 208.233248 
L 72.938626 208.54983 
L 73.075225 208.54983 
L 73.186987 209.043788 
L 73.323585 209.043788 
L 73.435348 209.260268 
L 73.820307 209.292892 
L 73.932069 209.08995 
L 74.068668 209.08995 
L 74.18043 209.206977 
L 74.317028 209.206977 
L 74.428791 209.439372 
L 74.565389 209.439372 
L 74.677151 209.648291 
L 74.81375 209.648291 
L 74.925512 209.762508 
L 75.062111 209.762508 
L 75.173873 209.913454 
L 75.310471 209.913454 
L 75.422234 210.080747 
L 75.558832 210.080747 
L 75.670595 210.305797 
L 75.807193 210.305797 
L 75.918955 207.303016 
L 76.055554 207.303016 
L 76.167316 207.574661 
L 76.303915 207.574661 
L 76.415677 207.797118 
L 76.800636 207.781923 
L 76.912398 207.978311 
L 77.048997 207.978311 
L 77.160759 208.240161 
L 78.04244 208.243114 
L 78.154202 208.489553 
L 78.290801 208.489553 
L 78.402563 208.616157 
L 78.787522 208.710714 
L 78.899285 208.85633 
L 79.532604 208.914591 
L 79.644367 209.202584 
L 80.029326 209.278849 
L 80.141088 209.52824 
L 80.277687 209.52824 
L 80.389449 209.641161 
L 80.526048 209.641161 
L 80.63781 209.878814 
L 80.774408 209.878814 
L 80.886171 210.15406 
L 81.022769 210.15406 
L 81.134531 210.365355 
L 81.27113 210.365355 
L 81.382892 210.518749 
L 81.519491 210.518749 
L 81.631253 210.686906 
L 81.767851 210.686906 
L 81.879614 210.916421 
L 82.016212 210.916421 
L 82.127974 211.158611 
L 82.264573 211.158611 
L 82.376335 211.35219 
L 82.761294 211.423486 
L 82.873057 211.478795 
L 83.258016 211.507817 
L 83.369778 211.852414 
L 83.506377 211.852414 
L 83.618139 212.054707 
L 83.754738 212.054707 
L 83.8665 212.268595 
L 84.003098 212.268595 
L 84.114861 212.433943 
L 84.251459 212.433943 
L 84.363221 212.622769 
L 84.49982 212.622769 
L 84.611582 212.746709 
L 84.748181 212.746709 
L 84.859943 212.88642 
L 84.996541 212.88642 
L 85.108304 213.108878 
L 85.244902 213.108878 
L 85.356664 210.167887 
L 85.493263 210.167887 
L 85.605025 210.355272 
L 85.741624 210.355272 
L 85.853386 210.55807 
L 85.989984 210.55807 
L 86.101747 210.827121 
L 86.238345 210.827121 
L 86.350108 211.058509 
L 86.486706 211.058509 
L 86.598468 211.495286 
L 86.735067 211.495286 
L 86.846829 211.728978 
L 86.983427 211.728978 
L 87.09519 211.959934 
L 87.231788 211.959934 
L 87.343551 212.259377 
L 87.480149 212.259377 
L 87.591911 212.611535 
L 87.72851 212.611535 
L 87.840272 212.927037 
L 87.976871 212.927037 
L 88.088633 213.372312 
L 88.225231 213.372312 
L 88.336994 213.711364 
L 89.467035 213.821332 
L 89.578797 213.986897 
L 89.715396 213.986897 
L 89.827158 214.136619 
L 90.212117 214.064747 
L 90.32388 214.014407 
L 90.708839 214.011527 
L 90.820601 214.236289 
L 90.9572 214.236289 
L 91.068962 214.600042 
L 91.205561 214.600042 
L 91.317323 215.107179 
L 91.453921 215.107179 
L 91.565684 215.517382 
L 91.702282 215.517382 
L 91.814044 215.695694 
L 92.199004 215.712258 
L 92.310766 215.860035 
L 92.695725 215.916063 
L 92.807487 215.978501 
L 92.944086 215.978501 
L 93.055848 212.799713 
L 93.689168 212.90176 
L 93.800931 215.88452 
L 94.18589 215.947822 
L 94.297652 212.863879 
L 94.43425 212.863879 
L 94.546013 213.075318 
L 94.682611 213.075318 
L 94.794374 213.229361 
L 94.930972 213.229361 
L 95.042734 213.403855 
L 95.179333 213.403855 
L 95.291095 213.559194 
L 95.427694 213.559194 
L 95.539456 213.749244 
L 95.676054 213.749244 
L 95.787817 213.926404 
L 95.924415 213.926404 
L 96.036177 214.477615 
L 96.172776 214.477615 
L 96.284538 214.916264 
L 96.421137 214.916264 
L 96.532899 215.212034 
L 96.669497 215.212034 
L 96.78126 215.583133 
L 96.917858 215.583133 
L 97.029621 216.088397 
L 97.166219 216.088397 
L 97.277981 216.394682 
L 97.41458 216.394682 
L 97.526342 216.843342 
L 97.66294 216.843342 
L 97.774703 217.407371 
L 97.911301 217.407371 
L 98.023064 217.551475 
L 98.656384 217.56307 
L 98.768146 217.682329 
L 98.904744 217.682329 
L 99.016507 216.727972 
L 99.153105 216.727972 
L 99.264867 214.909711 
L 99.401466 214.909711 
L 99.513228 214.017288 
L 99.649827 214.017288 
L 99.761589 215.81092 
L 99.898187 215.81092 
L 100.00995 213.142653 
L 100.146548 213.142653 
L 100.25831 210.672575 
L 100.394909 210.672575 
L 100.506671 211.620162 
L 100.64327 211.620162 
L 100.755032 209.344023 
L 100.89163 209.344023 
L 101.003393 207.859772 
L 101.139991 207.859772 
L 101.251754 208.716907 
L 101.388352 208.716907 
L 101.500114 210.289882 
L 101.636713 210.289882 
L 101.748475 209.15779 
L 101.885074 209.15779 
L 101.996836 207.995883 
L 102.133434 207.995883 
L 102.245197 209.128839 
L 102.381795 209.128839 
L 102.493557 210.132239 
L 102.630156 210.132239 
L 102.741918 212.183328 
L 102.878517 212.183328 
L 102.990279 211.051307 
L 103.126877 211.051307 
L 103.23864 211.912907 
L 103.375238 211.912907 
L 103.487 211.530286 
L 103.623599 211.530286 
L 103.735361 211.207078 
L 103.87196 211.207078 
L 103.983722 212.857398 
L 104.12032 212.857398 
L 104.232083 215.384009 
L 104.368681 215.384009 
L 104.480444 215.923265 
L 104.617042 215.923265 
L 104.728804 215.702464 
L 104.865403 215.702464 
L 104.977165 213.276387 
L 105.113763 213.276387 
L 105.225526 211.80978 
L 105.362124 211.80978 
L 105.473887 212.270395 
L 105.610485 212.270395 
L 105.722247 212.507616 
L 105.858846 212.507616 
L 105.970608 212.695506 
L 106.107207 212.695506 
L 106.218969 213.475079 
L 106.355567 213.475079 
L 106.46733 213.95521 
L 106.603928 213.95521 
L 106.71569 215.10257 
L 106.852289 215.10257 
L 106.964051 214.448448 
L 107.10065 214.448448 
L 107.212412 218.131205 
L 107.34901 218.131205 
L 107.460773 217.30266 
L 107.597371 217.30266 
L 107.709133 217.896648 
L 107.845732 217.896648 
L 107.957494 218.570574 
L 108.094093 218.570574 
L 108.205855 219.487699 
L 108.590814 219.593058 
L 108.702577 219.722183 
L 109.335897 219.657513 
L 109.447659 219.290447 
L 109.584257 219.290447 
L 109.69602 219.075551 
L 109.832618 219.075551 
L 109.94438 219.570589 
L 110.080979 219.570589 
L 110.192741 219.946513 
L 110.5777 219.929733 
L 110.689463 220.111358 
L 110.826061 220.111358 
L 110.937823 220.4072 
L 111.074422 220.4072 
L 111.186184 220.527106 
L 111.322783 220.527106 
L 111.434545 220.649894 
L 111.571143 220.649894 
L 111.682906 221.157895 
L 111.819504 221.157895 
L 111.931267 218.409691 
L 112.564586 218.369218 
L 112.676349 218.637693 
L 112.812947 218.637693 
L 112.92471 219.040119 
L 113.309669 219.141374 
L 113.421431 219.813571 
L 113.55803 219.813571 
L 113.669792 220.304073 
L 113.80639 220.304073 
L 113.918153 220.470214 
L 114.054751 220.470214 
L 114.166513 220.264536 
L 114.303112 220.264536 
L 114.414874 220.392796 
L 114.799833 220.474751 
L 114.911596 220.715284 
L 115.296555 220.75979 
L 115.408317 220.910232 
L 115.544916 220.910232 
L 115.656678 220.746611 
L 115.793276 220.746611 
L 115.905039 220.549431 
L 116.289998 220.602435 
L 116.40176 220.810129 
L 116.78672 220.78802 
L 116.898482 221.217236 
L 117.03508 221.217236 
L 117.146843 221.627079 
L 117.283441 221.627079 
L 117.395203 221.84356 
L 117.531802 221.84356 
L 117.643564 221.974701 
L 118.276884 221.925442 
L 118.388646 222.218763 
L 119.021966 222.217395 
L 119.133729 222.077324 
L 119.270327 222.077324 
L 119.38209 221.681595 
L 120.015409 221.770103 
L 120.127172 221.906502 
L 120.26377 221.906502 
L 120.375533 222.072066 
L 120.512131 222.072066 
L 120.623893 221.70104 
L 121.257213 221.762253 
L 121.368976 222.035986 
L 121.505574 222.035986 
L 121.617336 221.848241 
L 121.753935 221.848241 
L 121.865697 222.039299 
L 122.250656 221.954968 
L 122.362419 222.281561 
L 122.499017 222.281561 
L 122.61078 222.534121 
L 122.747378 222.534121 
L 122.85914 222.817432 
L 122.995739 222.817432 
L 123.107501 223.13632 
L 123.244099 223.13632 
L 123.355862 223.260763 
L 123.740821 223.189323 
L 123.852583 223.786192 
L 124.237543 223.815359 
L 124.349305 223.977611 
L 124.734264 223.972498 
L 124.846026 224.151386 
L 124.982625 224.151386 
L 125.094387 224.331642 
L 125.230986 224.331642 
L 125.342748 221.392091 
L 125.479346 221.392091 
L 125.591109 221.672737 
L 125.727707 221.672737 
L 125.839469 222.018198 
L 125.976068 222.018198 
L 126.08783 221.820658 
L 126.72115 221.779177 
L 126.832913 221.688941 
L 126.969511 221.688941 
L 127.081273 221.342976 
L 127.217872 221.342976 
L 127.329634 221.156526 
L 127.466233 221.156526 
L 127.577995 224.158515 
L 128.211315 224.146056 
L 128.323077 221.144572 
L 128.708036 221.211187 
L 128.819799 221.466051 
L 128.956397 221.466051 
L 129.068159 222.012365 
L 129.204758 222.012365 
L 129.31652 222.196222 
L 129.453119 222.196222 
L 129.564881 222.490696 
L 129.701479 222.490696 
L 129.813242 222.820241 
L 130.198201 222.865611 
L 130.309963 223.005322 
L 130.446562 223.005322 
L 130.558324 223.411133 
L 130.694922 223.411133 
L 130.806685 223.921726 
L 130.943283 223.921726 
L 131.055046 224.157795 
L 131.191644 224.157795 
L 131.303406 223.938074 
L 131.440005 223.938074 
L 131.551767 224.358144 
L 131.688366 224.358144 
L 131.800128 224.686177 
L 131.936726 224.686177 
L 132.048489 224.913747 
L 132.185087 224.913747 
L 132.296849 225.166668 
L 132.433448 225.166668 
L 132.54521 225.549865 
L 132.930169 225.492324 
L 133.041932 225.283622 
L 133.675252 225.394671 
L 133.787014 225.433559 
L 133.923612 225.433559 
L 134.035375 225.258344 
L 134.171973 225.258344 
L 134.283736 225.072975 
L 134.420334 225.072975 
L 134.532096 224.96099 
L 134.668695 224.96099 
L 134.780457 224.812349 
L 134.917056 224.812349 
L 135.028818 224.694387 
L 135.910499 224.790096 
L 136.022261 225.057275 
L 136.158859 225.057275 
L 136.270622 225.484763 
L 136.40722 225.484763 
L 136.518982 225.658537 
L 136.903942 225.760512 
L 137.015704 225.911098 
L 137.152302 225.911098 
L 137.264065 226.299408 
L 137.400663 226.299408 
L 137.512426 226.698593 
L 137.649024 226.698593 
L 137.760786 223.851943 
L 138.145745 223.949093 
L 138.257508 223.986829 
L 138.642467 224.013475 
L 138.754229 224.318319 
L 138.890828 224.318319 
L 139.00259 224.776629 
L 139.139189 224.776629 
L 139.250951 225.012986 
L 139.387549 225.012986 
L 139.499312 225.309116 
L 140.132632 225.307675 
L 140.244394 225.493549 
L 141.126075 225.479938 
L 141.237837 225.266338 
L 141.622796 225.250639 
L 141.734559 225.064909 
L 142.367879 225.121442 
L 142.479641 225.535246 
L 142.8646 225.559947 
L 142.976362 225.673877 
L 143.609682 225.725656 
L 143.721445 225.495493 
L 144.106404 225.522571 
L 144.218166 225.30321 
L 144.354765 225.30321 
L 144.466527 225.159898 
L 144.603125 225.159898 
L 144.714888 224.808316 
L 144.851486 224.808316 
L 144.963249 224.95098 
L 145.348208 225.036607 
L 145.45997 225.264466 
L 145.844929 225.262737 
L 145.956692 225.604669 
L 146.341651 225.574207 
L 146.453413 225.837353 
L 146.590012 225.837353 
L 146.701774 225.720543 
L 146.838372 225.720543 
L 146.950135 225.305155 
L 147.086733 225.305155 
L 147.198495 224.805867 
L 147.335094 224.805867 
L 147.446856 224.685097 
L 147.583455 224.685097 
L 147.695217 224.440458 
L 148.825258 224.472793 
L 148.937021 224.826032 
L 149.073619 224.826032 
L 149.185382 225.365144 
L 149.32198 225.365144 
L 149.433742 225.817837 
L 149.570341 225.817837 
L 149.682103 225.595019 
L 149.818702 225.595019 
L 149.930464 225.418868 
L 150.067062 225.418868 
L 150.178825 225.258056 
L 150.315423 225.258056 
L 150.427185 225.008161 
L 150.812145 224.945723 
L 150.923907 224.709222 
L 151.060505 224.709222 
L 151.172268 224.260706 
L 151.308866 224.260706 
L 151.420628 227.022665 
L 151.557227 227.022665 
L 151.668989 226.902975 
L 152.053948 226.974415 
L 152.165711 223.949093 
L 152.55067 223.943691 
L 152.662432 227.055793 
L 152.799031 227.055793 
L 152.910793 226.859981 
L 153.047392 226.859981 
L 153.159154 224.078721 
L 153.295752 224.078721 
L 153.407515 224.738604 
L 153.544113 224.738604 
L 153.655875 225.307891 
L 154.040835 225.344619 
L 154.152597 225.435 
L 154.289195 225.435 
L 154.400958 225.180639 
L 154.537556 225.180639 
L 154.649318 225.037903 
L 155.034278 225.131812 
L 155.14604 225.296585 
L 155.282638 225.296585 
L 155.394401 224.934344 
L 155.530999 224.934344 
L 155.642762 224.383997 
L 155.77936 224.383997 
L 155.891122 223.993598 
L 156.027721 223.993598 
L 156.139483 223.860585 
L 156.276081 223.860585 
L 156.387844 224.224986 
L 156.524442 224.224986 
L 156.636205 224.678543 
L 156.772803 224.678543 
L 156.884565 224.817102 
L 157.021164 224.817102 
L 157.132926 224.962214 
L 157.766246 224.990084 
L 157.878008 225.218591 
L 158.014607 225.218591 
L 158.126369 225.682591 
L 158.511328 225.788742 
L 158.623091 225.539783 
L 158.759689 225.539783 
L 158.871451 224.922749 
L 159.256411 224.959406 
L 159.368173 225.297809 
L 159.753132 225.385885 
L 159.864895 225.793567 
L 160.001493 225.793567 
L 160.113255 226.044327 
L 160.249854 226.044327 
L 160.361616 225.854637 
L 160.498215 225.854637 
L 160.609977 226.167907 
L 160.746575 226.167907 
L 160.858338 226.477 
L 160.994936 226.477 
L 161.106698 227.047151 
L 161.243297 227.047151 
L 161.355059 227.308785 
L 161.491658 227.308785 
L 161.60342 227.069332 
L 162.485101 227.014744 
L 162.596863 227.258302 
L 162.981822 227.23396 
L 163.093585 226.852347 
L 163.726904 226.882306 
L 163.838667 226.97175 
L 163.975265 226.97175 
L 164.087028 227.094825 
L 164.471987 227.130617 
L 164.583749 226.946328 
L 164.720348 226.946328 
L 164.83211 226.823685 
L 165.217069 226.758222 
L 165.328831 227.086616 
L 165.962151 227.08856 
L 166.073914 227.259598 
L 166.458873 227.321676 
L 166.570635 227.391603 
L 166.707234 227.391603 
L 166.818996 227.70869 
L 166.955594 227.70869 
L 167.067357 228.116877 
L 167.203955 228.116877 
L 167.315718 228.46241 
L 167.452316 228.46241 
L 167.564078 228.3438 
L 167.700677 228.3438 
L 167.812439 228.684219 
L 168.69412 228.633592 
L 168.805882 228.514694 
L 168.942481 228.514694 
L 169.054243 228.645403 
L 169.190841 228.645403 
L 169.302604 228.510589 
L 169.439202 228.510589 
L 169.550964 228.146908 
L 169.687563 228.146908 
L 169.799325 228.439293 
L 170.184284 228.391042 
L 170.296047 228.633736 
L 170.681006 228.717923 
L 170.792768 228.752059 
L 170.929367 228.752059 
L 171.041129 228.942757 
L 171.426088 228.932459 
L 171.537851 228.736503 
L 172.171171 228.773231 
L 172.282933 228.89537 
L 172.419531 228.89537 
L 172.531294 228.585557 
L 173.412974 228.563304 
L 173.524737 228.383624 
L 173.661335 228.383624 
L 173.773098 228.509653 
L 173.909696 228.509653 
L 174.021458 228.628191 
L 174.158057 228.628191 
L 174.269819 228.417688 
L 174.406417 228.417688 
L 174.51818 228.145107 
L 174.654778 228.145107 
L 174.766541 228.261557 
L 175.1515 228.205241 
L 175.263262 227.956929 
L 175.896582 227.938421 
L 176.008344 227.792661 
L 176.393304 227.895284 
L 176.505066 228.135961 
L 176.641664 228.135961 
L 176.753427 228.54098 
L 176.890025 228.54098 
L 177.001787 228.837109 
L 177.138386 228.837109 
L 177.250148 229.12899 
L 177.386747 229.12899 
L 177.498509 229.531488 
L 177.883468 229.596807 
L 177.995231 229.853544 
L 178.131829 229.853544 
L 178.243591 226.823253 
L 178.38019 226.823253 
L 178.491952 229.812999 
L 178.628551 229.812999 
L 178.740313 229.668391 
L 178.876911 229.668391 
L 178.988674 229.383495 
L 179.125272 229.383495 
L 179.237034 229.1004 
L 179.373633 229.1004 
L 179.485395 228.873478 
L 179.621994 228.873478 
L 179.733756 228.434756 
L 180.615437 228.42525 
L 180.727199 228.589518 
L 181.112158 228.515702 
L 181.223921 228.747594 
L 181.360519 228.747594 
L 181.472281 229.094063 
L 181.85724 229.135328 
L 181.969003 229.406396 
L 182.602323 229.503258 
L 182.714085 229.556334 
L 182.850684 229.556334 
L 182.962446 229.812639 
L 183.099044 229.812639 
L 183.210807 226.677204 
L 183.347405 226.677204 
L 183.459167 229.823225 
L 183.595766 229.823225 
L 183.707528 229.490295 
L 184.589209 229.575274 
L 184.700971 229.626837 
L 185.08593 229.57369 
L 185.197693 229.399699 
L 185.582652 229.299957 
L 185.694414 229.186819 
L 185.831013 229.186819 
L 185.942775 229.298732 
L 186.327734 229.299236 
L 186.439497 229.145554 
L 186.824456 229.058199 
L 186.936218 229.029032 
L 187.072817 229.029032 
L 187.184579 228.842727 
L 187.817899 228.921584 
L 187.929661 229.165431 
L 188.31462 229.236582 
L 188.426383 229.381263 
L 188.562981 229.381263 
L 188.674744 229.704471 
L 188.811342 229.704471 
L 188.923104 226.698665 
L 189.059703 226.698665 
L 189.171465 229.743719 
L 189.308063 229.743719 
L 189.419826 226.662657 
L 189.556424 226.662657 
L 189.668187 226.886051 
L 190.549867 226.97247 
L 190.66163 226.755774 
L 190.798228 226.755774 
L 190.90999 226.875681 
L 191.54331 226.799632 
L 191.655073 226.749148 
L 192.040032 226.776442 
L 192.151794 226.983993 
L 192.288393 226.983993 
L 192.400155 226.737626 
L 192.785114 226.813459 
L 192.896877 226.861205 
L 193.033475 226.861205 
L 193.145237 229.875941 
L 193.281836 229.875941 
L 193.393598 229.628854 
L 193.530197 229.628854 
L 193.641959 229.843174 
L 194.026918 229.873564 
L 194.13868 229.657516 
L 194.275279 229.657516 
L 194.387041 229.302837 
L 194.772 229.247169 
L 194.883763 229.049917 
L 195.020361 229.049917 
L 195.132123 228.781081 
L 195.268722 228.781081 
L 195.380484 228.662975 
L 195.517083 228.662975 
L 195.628845 228.468603 
L 196.013804 228.550342 
L 196.125567 228.092104 
L 196.262165 228.092104 
L 196.373927 227.937197 
L 196.510526 227.937197 
L 196.622288 227.617806 
L 196.758887 227.617806 
L 196.870649 227.442375 
L 197.007247 227.442375 
L 197.11901 227.33003 
L 197.255608 227.33003 
L 197.36737 227.776745 
L 197.503969 227.776745 
L 197.615731 227.99661 
L 197.75233 227.99661 
L 197.864092 228.232031 
L 198.00069 228.232031 
L 198.112453 227.756005 
L 198.249051 227.756005 
L 198.360813 227.915304 
L 198.745773 227.992145 
L 198.857535 228.261845 
L 199.490855 228.195735 
L 199.602617 228.00374 
L 199.739216 228.00374 
L 199.850978 227.793453 
L 200.235937 227.770336 
L 200.3477 227.931868 
L 200.732659 227.83371 
L 200.844421 227.690398 
L 201.477741 227.74513 
L 201.589503 227.91552 
L 202.222823 228.016703 
L 202.334586 227.685357 
L 203.712988 227.601026 
L 203.82475 227.526778 
L 203.961349 227.526778 
L 204.073111 227.651221 
L 204.20971 227.651221 
L 204.321472 227.478383 
L 204.45807 227.478383 
L 204.569833 227.64366 
L 205.203153 227.737208 
L 205.314915 227.521304 
L 205.451513 227.521304 
L 205.563276 227.29431 
L 205.699874 227.29431 
L 205.811636 227.118015 
L 205.948235 227.118015 
L 206.059997 226.867543 
L 206.196596 226.867543 
L 206.308358 226.362278 
L 206.444956 226.362278 
L 206.556719 226.056066 
L 206.693317 226.056066 
L 206.80508 225.695266 
L 206.941678 225.695266 
L 207.05344 225.302778 
L 207.68676 225.397119 
L 207.798523 225.527972 
L 208.183482 225.56182 
L 208.295244 225.706428 
L 208.928564 225.615688 
L 209.040326 225.585729 
L 209.425286 225.583713 
L 209.537048 225.420092 
L 209.673646 225.420092 
L 209.785409 225.15709 
L 209.922007 225.15709 
L 210.033769 224.614593 
L 210.170368 224.614593 
L 210.28213 224.339852 
L 210.418729 224.339852 
L 210.530491 224.022765 
L 210.91545 224.105295 
L 211.027213 224.149081 
L 211.412172 224.128557 
L 211.523934 223.962344 
L 211.660533 223.962344 
L 211.772295 227.031523 
L 211.908893 227.031523 
L 212.020656 226.799272 
L 212.157254 226.799272 
L 212.269016 227.022377 
L 212.405615 227.022377 
L 212.517377 223.956654 
L 212.653976 223.956654 
L 212.765738 227.104043 
L 212.902336 227.104043 
L 213.014099 226.843129 
L 213.150697 226.843129 
L 213.262459 226.510559 
L 213.647419 226.410889 
L 213.759181 226.159049 
L 213.895779 226.159049 
L 214.007542 225.975408 
L 214.14414 225.975408 
L 214.255903 225.806458 
L 214.392501 225.806458 
L 214.504263 225.527324 
L 214.640862 225.527324 
L 214.752624 224.876515 
L 215.634305 224.785919 
L 215.746067 224.415973 
L 215.882666 224.415973 
L 215.994428 223.992086 
L 216.131026 223.992086 
L 216.242789 224.11617 
L 216.379387 224.11617 
L 216.491149 223.761995 
L 216.876109 223.801172 
L 216.987871 223.982292 
L 217.124469 223.982292 
L 217.236232 223.630566 
L 217.37283 223.630566 
L 217.484593 223.209128 
L 217.621191 223.209128 
L 217.732953 222.846527 
L 217.869552 222.846527 
L 217.981314 222.63552 
L 218.117912 222.63552 
L 218.229675 222.876054 
L 218.366273 222.876054 
L 218.478036 222.713513 
L 218.614634 222.713513 
L 218.726396 222.983934 
L 218.862995 222.983934 
L 218.974757 222.680458 
L 219.359716 222.58302 
L 219.471479 222.434739 
L 220.104799 222.420984 
L 220.216561 222.26651 
L 220.353159 222.26651 
L 220.464922 221.850113 
L 220.60152 221.850113 
L 220.713282 221.342472 
L 220.849881 221.342472 
L 220.961643 224.095285 
L 221.098242 224.095285 
L 221.210004 223.794834 
L 221.346602 223.794834 
L 221.458365 223.502737 
L 221.594963 223.502737 
L 221.706726 223.170095 
L 221.843324 223.170095 
L 221.955086 223.019293 
L 222.091685 223.019293 
L 222.203447 222.889809 
L 222.836767 222.847175 
L 222.948529 222.754202 
L 223.085128 222.754202 
L 223.19689 222.582012 
L 223.333489 222.582012 
L 223.445251 222.302158 
L 223.581849 222.302158 
L 223.693612 221.870494 
L 223.83021 221.870494 
L 223.941972 221.706225 
L 224.078571 221.706225 
L 224.190333 221.124479 
L 224.326932 221.124479 
L 224.438694 220.71406 
L 224.575292 220.71406 
L 224.687055 220.232129 
L 225.568735 220.150894 
L 225.680498 219.800464 
L 225.817096 219.800464 
L 225.928859 219.374273 
L 226.065457 219.374273 
L 226.177219 219.10587 
L 226.313818 219.10587 
L 226.42558 218.987043 
L 226.810539 219.063884 
L 226.922302 219.235859 
L 227.0589 219.235859 
L 227.170662 218.717487 
L 227.307261 218.717487 
L 227.419023 218.351862 
L 227.555622 218.351862 
L 227.667384 221.415568 
L 228.052343 221.455969 
L 228.164105 218.499855 
L 228.549065 218.547313 
L 228.660827 221.562841 
L 228.797425 221.562841 
L 228.909188 220.965972 
L 229.045786 220.965972 
L 229.157549 220.56974 
L 229.542508 220.461212 
L 229.65427 220.373856 
L 229.790869 220.373856 
L 229.902631 219.941328 
L 230.039229 219.941328 
L 230.150992 219.392638 
L 230.28759 219.392638 
L 230.399352 218.884852 
L 230.535951 218.884852 
L 230.647713 218.492293 
L 231.281033 218.432592 
L 231.392795 218.012522 
L 231.529394 218.012522 
L 231.641156 217.551691 
L 231.777755 217.551691 
L 231.889517 217.098927 
L 232.522837 217.169214 
L 232.634599 216.7979 
L 232.771198 216.7979 
L 232.88296 216.450422 
L 233.019558 216.450422 
L 233.131321 215.708153 
L 233.51628 215.634552 
L 233.628042 215.560304 
L 233.764641 215.560304 
L 233.876403 215.699223 
L 234.013002 215.699223 
L 234.124764 218.631428 
L 234.261362 218.631428 
L 234.373125 217.808501 
L 234.509723 217.808501 
L 234.621485 217.212496 
L 234.758084 217.212496 
L 234.869846 216.814895 
L 235.006445 216.814895 
L 235.118207 216.529496 
L 235.254805 216.529496 
L 235.366568 216.2778 
L 235.503166 216.2778 
L 235.614928 215.591055 
L 235.751527 215.591055 
L 235.863289 214.80824 
L 235.999888 214.80824 
L 236.11165 213.842793 
L 236.248248 213.842793 
L 236.360011 213.539246 
L 236.496609 213.539246 
L 236.608372 213.674276 
L 236.74497 213.674276 
L 236.856732 213.817516 
L 236.993331 213.817516 
L 237.105093 213.930149 
L 238.235135 213.988842 
L 238.346897 214.341 
L 238.483495 214.341 
L 238.595258 214.008358 
L 238.731856 214.008358 
L 238.843618 213.631066 
L 238.980217 213.631066 
L 239.091979 212.798057 
L 239.228578 212.798057 
L 239.34034 215.266983 
L 239.476938 215.266983 
L 239.588701 214.442183 
L 239.725299 214.442183 
L 239.837062 213.294319 
L 239.97366 213.294319 
L 240.085422 211.999543 
L 240.222021 211.999543 
L 240.333783 210.962296 
L 240.470381 210.962296 
L 240.582144 213.187735 
L 240.718742 213.187735 
L 240.830505 212.461382 
L 240.967103 212.461382 
L 241.078865 211.625419 
L 241.215464 211.625419 
L 241.327226 211.007954 
L 241.463825 211.007954 
L 241.575587 210.400354 
L 241.712185 210.400354 
L 241.823948 210.14549 
L 242.208907 210.154564 
L 242.320669 210.682009 
L 242.457268 210.682009 
L 242.56903 211.240422 
L 242.953989 211.313446 
L 243.065752 211.389927 
L 243.20235 211.389927 
L 243.314112 211.181584 
L 243.947432 211.152706 
L 244.059195 210.643192 
L 244.195793 210.643192 
L 244.307555 209.787354 
L 244.444154 209.787354 
L 244.555916 208.776681 
L 244.692515 208.776681 
L 244.804277 207.298984 
L 244.940875 207.298984 
L 245.052638 209.213026 
L 245.189236 209.213026 
L 245.300998 207.94079 
L 245.437597 207.94079 
L 245.452498 89.110435 
L 245.546876 207.071773 
L 245.700859 207.071773 
L 245.715761 92.046961 
L 245.810138 206.950282 
L 245.979023 206.950282 
L 246.090786 207.108069 
L 246.475745 207.16777 
L 246.587507 206.934366 
L 246.724106 206.934366 
L 246.835868 76.256291 
L 246.838352 76.256291 
L 246.845802 77.46472 
L 246.969983 51.486517 
L 246.972466 51.486517 
L 246.977434 55.471165 
L 247.074294 44.880342 
L 247.079262 44.95423 
L 247.081745 44.95423 
L 247.200958 90.611681 
L 247.312721 209.672488 
L 247.449319 209.672488 
L 247.561081 210.497648 
L 247.69768 210.497648 
L 247.809442 211.227387 
L 247.946041 211.227387 
L 248.057803 215.214555 
L 248.194401 215.214555 
L 248.306164 215.668184 
L 248.442762 215.668184 
L 248.554524 216.251226 
L 248.691123 216.251226 
L 248.802885 219.66457 
L 248.939484 219.66457 
L 249.051246 219.846411 
L 249.187844 219.846411 
L 249.299607 222.802741 
L 249.436205 222.802741 
L 249.547968 222.351993 
L 249.684566 222.351993 
L 249.796328 224.764386 
L 249.932927 224.764386 
L 250.044689 223.985029 
L 250.181287 223.985029 
L 250.29305 225.9919 
L 250.429648 225.9919 
L 250.541411 227.528074 
L 250.678009 227.528074 
L 250.789771 228.210498 
L 250.92637 228.210498 
L 251.038132 228.990936 
L 251.423091 229.03609 
L 251.534854 229.132663 
L 251.671452 229.132663 
L 251.783214 228.312689 
L 251.919813 228.312689 
L 252.031575 227.47291 
L 252.168174 227.47291 
L 252.279936 226.032445 
L 252.416534 226.032445 
L 252.528297 224.283823 
L 252.664895 224.283823 
L 252.776658 225.614824 
L 252.913256 225.614824 
L 253.025018 223.696748 
L 253.161617 223.696748 
L 253.273379 221.094809 
L 253.409977 221.094809 
L 253.52174 221.700752 
L 253.658338 221.700752 
L 253.770101 218.48574 
L 253.906699 218.48574 
L 254.018461 218.772435 
L 254.403421 218.761705 
L 254.515183 215.305223 
L 254.651781 215.305223 
L 254.763544 215.069298 
L 254.900142 215.069298 
L 255.011904 211.242294 
L 255.148503 211.242294 
L 255.260265 210.725507 
L 255.396864 210.725507 
L 255.508626 210.038402 
L 255.645224 210.038402 
L 255.75947 44.443636 
L 255.888618 83.122589 
L 256.097241 210.358873 
L 256.146913 210.358873 
L 256.258675 212.504303 
L 256.395274 212.504303 
L 256.507036 214.357636 
L 256.643635 214.357636 
L 256.755397 216.134128 
L 256.891995 216.134128 
L 257.003758 217.831042 
L 257.140356 217.831042 
L 257.252119 219.078648 
L 257.388717 219.078648 
L 257.500479 223.049468 
L 257.637078 223.049468 
L 257.74884 223.42388 
L 257.885438 223.42388 
L 257.997201 226.355077 
L 258.133799 226.355077 
L 258.245562 225.089107 
L 258.38216 225.089107 
L 258.493922 226.265057 
L 258.630521 226.265057 
L 258.742283 226.669067 
L 258.878882 226.669067 
L 258.990644 225.920532 
L 259.127242 225.920532 
L 259.239005 224.261354 
L 259.375603 224.261354 
L 259.487365 225.325247 
L 259.623964 225.325247 
L 259.735726 222.574738 
L 259.872325 222.574738 
L 259.984087 222.374174 
L 260.120685 222.374174 
L 260.232448 218.434608 
L 260.369046 218.434608 
L 260.480808 217.291786 
L 260.617407 217.291786 
L 260.729169 215.520335 
L 260.865768 215.520335 
L 260.97753 213.695016 
L 261.114128 213.695016 
L 261.225891 211.855583 
L 261.362489 211.855583 
L 261.474252 209.9419 
L 261.61085 209.9419 
L 261.722612 207.607788 
L 261.859211 207.607788 
L 261.958555 44.702894 
L 261.973457 51.686722 
L 262.192014 208.314986 
L 262.276457 208.314986 
L 262.388219 210.669694 
L 262.524818 210.669694 
L 262.63658 213.19004 
L 262.773178 213.19004 
L 262.884941 215.296149 
L 263.021539 215.296149 
L 263.133301 217.480252 
L 263.2699 217.480252 
L 263.381662 218.709205 
L 263.518261 218.709205 
L 263.630023 222.709408 
L 264.014982 222.764213 
L 264.126745 225.438168 
L 264.263343 225.438168 
L 264.375105 224.113721 
L 264.511704 224.113721 
L 264.623466 225.155505 
L 264.760065 225.155505 
L 264.871827 225.422973 
L 265.008425 225.422973 
L 265.120188 224.836402 
L 265.256786 224.836402 
L 265.368548 226.174748 
L 265.505147 226.174748 
L 265.616909 223.571945 
L 265.753508 223.571945 
L 265.86527 224.006489 
L 266.001868 224.006489 
L 266.113631 221.070683 
L 266.250229 221.070683 
L 266.361991 220.605316 
L 266.49859 220.605316 
L 266.610352 215.977205 
L 266.746951 215.977205 
L 266.858713 214.380393 
L 266.995311 214.380393 
L 267.107074 212.318718 
L 267.243672 212.318718 
L 267.355435 210.158452 
L 267.492033 210.158452 
L 267.603795 208.217044 
L 267.740394 208.217044 
L 267.814902 45.306965 
L 267.85464 50.29422 
L 268.09555 209.704679 
L 268.172541 209.704679 
L 268.284304 211.254969 
L 268.420902 211.254969 
L 268.532665 213.104773 
L 268.669263 213.104773 
L 268.781025 214.596009 
L 268.917624 214.596009 
L 269.029386 216.327347 
L 269.165985 216.327347 
L 269.277747 220.295575 
L 269.414345 220.295575 
L 269.526108 219.772378 
L 269.662706 219.772378 
L 269.774468 222.650499 
L 269.911067 222.650499 
L 270.022829 221.463819 
L 270.159428 221.463819 
L 270.27119 223.298572 
L 270.407788 223.298572 
L 270.519551 224.419285 
L 270.90451 224.447444 
L 271.016272 223.600607 
L 271.152871 223.600607 
L 271.264633 222.110667 
L 271.401231 222.110667 
L 271.512994 223.27099 
L 271.649592 223.27099 
L 271.761355 220.887259 
L 271.897953 220.887259 
L 272.009715 221.377976 
L 272.146314 221.377976 
L 272.258076 217.418678 
L 272.394674 217.418678 
L 272.506437 215.662423 
L 272.643035 215.662423 
L 272.754798 213.490707 
L 272.891396 213.490707 
L 273.003158 211.602446 
L 273.139757 211.602446 
L 273.251519 209.035578 
L 273.388118 209.035578 
L 273.452691 45.252809 
L 273.49988 73.779803 
L 273.502364 73.779803 
L 273.653864 210.126549 
L 273.760659 210.126549 
L 273.872421 211.356727 
L 274.009019 211.356727 
L 274.120782 215.333597 
L 274.25738 215.333597 
L 274.369143 218.544289 
L 274.505741 218.544289 
L 274.617503 220.860685 
L 274.754102 220.860685 
L 274.865864 221.774496 
L 275.002463 221.774496 
L 275.114225 224.08009 
L 275.250823 224.08009 
L 275.362586 224.95386 
L 275.499184 224.95386 
L 275.610946 224.068423 
L 275.747545 224.068423 
L 275.859307 221.74749 
L 275.995906 221.74749 
L 276.107668 220.753093 
L 276.244266 220.753093 
L 276.356029 218.764298 
L 276.492627 218.764298 
L 276.604389 215.671785 
L 276.740988 215.671785 
L 276.85275 212.088122 
L 276.989349 212.088122 
L 277.101111 208.030162 
L 277.237709 208.030162 
L 277.349472 207.192904 
L 277.48607 207.192904 
L 277.545677 44.982316 
L 277.595349 91.743629 
L 277.707111 207.79575 
L 277.84371 207.79575 
L 277.955472 212.559035 
L 278.09207 212.559035 
L 278.203833 216.749433 
L 278.340431 216.749433 
L 278.452194 219.982737 
L 278.588792 219.982737 
L 278.700554 221.902253 
L 278.837153 221.902253 
L 278.948915 222.235111 
L 279.085514 222.235111 
L 279.197276 224.432464 
L 279.333874 224.432464 
L 279.445637 224.302547 
L 279.582235 224.302547 
L 279.693997 222.289627 
L 279.830596 222.289627 
L 279.942358 222.172385 
L 280.078957 222.172385 
L 280.190719 220.612373 
L 280.327317 220.612373 
L 280.43908 217.750384 
L 280.575678 217.750384 
L 280.68744 214.12596 
L 280.824039 214.12596 
L 280.935801 210.21801 
L 281.0724 210.21801 
L 281.136973 46.119306 
L 281.184162 83.665158 
L 281.186646 83.665158 
L 281.330695 211.03388 
L 281.439974 211.03388 
L 281.551736 214.944783 
L 281.688334 214.944783 
L 281.800097 218.420205 
L 281.936695 218.420205 
L 282.048458 221.050447 
L 282.185056 221.050447 
L 282.296818 222.348392 
L 282.681777 222.404276 
L 282.79354 224.204894 
L 282.930138 224.204894 
L 283.041901 224.409851 
L 283.178499 224.409851 
L 283.290261 222.942164 
L 283.675221 223.043347 
L 283.786983 218.885789 
L 283.923581 218.885789 
L 284.035344 217.018197 
L 284.171942 217.018197 
L 284.283704 214.181053 
L 284.420303 214.181053 
L 284.532065 210.679417 
L 284.668664 210.679417 
L 284.780426 209.738527 
L 284.917024 209.738527 
L 284.986565 44.577874 
L 285.028787 81.46017 
L 285.03127 81.46017 
L 285.18277 209.740327 
L 285.289566 209.740327 
L 285.401328 213.719142 
L 285.537926 213.719142 
L 285.649689 217.224667 
L 285.786287 217.224667 
L 285.898049 220.157952 
L 286.034648 220.157952 
L 286.14641 222.054639 
L 286.283009 222.054639 
L 286.394771 222.470459 
L 286.531369 222.470459 
L 286.643132 224.750775 
L 286.77973 224.750775 
L 286.891492 225.701603 
L 287.028091 225.701603 
L 287.139853 225.076648 
L 287.276452 225.076648 
L 287.388214 222.896002 
L 287.524812 222.896002 
L 287.636575 222.690468 
L 287.773173 222.690468 
L 287.884936 221.485712 
L 288.021534 221.485712 
L 288.133296 215.821362 
L 288.269895 215.821362 
L 288.381657 215.979941 
L 288.518255 215.979941 
L 288.630018 212.353573 
L 288.766616 212.353573 
L 288.878379 208.405654 
L 289.014977 208.405654 
L 289.069616 44.980588 
L 289.126739 75.82866 
L 289.129223 75.82866 
L 289.293141 209.40322 
L 289.392485 209.40322 
L 289.504248 213.069917 
L 289.640846 213.069917 
L 289.752608 216.435659 
L 289.889207 216.435659 
L 290.000969 219.259408 
L 290.137568 219.259408 
L 290.24933 220.9816 
L 290.385928 220.9816 
L 290.497691 222.020071 
L 290.634289 222.020071 
L 290.746052 225.196482 
L 290.88265 225.196482 
L 290.994412 226.413121 
L 291.131011 226.413121 
L 291.242773 226.095315 
L 291.379372 226.095315 
L 291.491134 224.896536 
L 291.627732 224.896536 
L 291.739495 222.487383 
L 291.876093 222.487383 
L 291.987855 222.263413 
L 292.124454 222.263413 
L 292.236216 220.546839 
L 292.372815 220.546839 
L 292.484577 218.313117 
L 292.621175 218.313117 
L 292.732938 215.013414 
L 292.869536 215.013414 
L 292.981298 211.547282 
L 293.117897 211.547282 
L 293.229659 208.090296 
L 293.366258 208.090296 
L 293.445733 44.804581 
L 293.47802 67.816299 
L 293.480504 67.816299 
L 293.676709 209.652108 
L 293.748733 209.652108 
L 293.860496 213.23469 
L 294.245455 213.187663 
L 294.357217 216.131463 
L 294.493816 216.131463 
L 294.605578 218.50648 
L 294.742176 218.50648 
L 294.853939 223.141289 
L 294.990537 223.141289 
L 295.102299 223.262708 
L 295.238898 223.262708 
L 295.35066 225.413035 
L 295.487259 225.413035 
L 295.599021 226.440632 
L 295.735619 226.440632 
L 295.847382 226.132619 
L 295.98398 226.132619 
L 296.095742 224.582186 
L 296.232341 224.582186 
L 296.344103 222.278897 
L 296.480702 222.278897 
L 296.592464 221.663591 
L 296.729062 221.663591 
L 296.840825 220.470286 
L 296.977423 220.470286 
L 297.089186 218.397376 
L 297.225784 218.397376 
L 297.337546 215.906341 
L 297.474145 215.906341 
L 297.585907 212.926893 
L 297.722506 212.926893 
L 297.834268 209.711161 
L 297.970866 209.711161 
L 298.060276 45.852414 
L 298.085112 60.646382 
L 298.109948 88.054823 
L 298.221711 207.543262 
L 298.358309 207.543262 
L 298.470071 207.923723 
L 298.60667 207.923723 
L 298.718432 211.637518 
L 298.855031 211.637518 
L 298.966793 214.622367 
L 299.103391 214.622367 
L 299.215154 217.396425 
L 299.351752 217.396425 
L 299.463514 219.012753 
L 299.600113 219.012753 
L 299.711875 222.003291 
L 299.848474 222.003291 
L 299.960236 224.186962 
L 300.096834 224.186962 
L 300.208597 222.6698 
L 300.345195 222.6698 
L 300.456958 221.345137 
L 300.593556 221.345137 
L 300.705318 222.424945 
L 300.841917 222.424945 
L 300.953679 220.039054 
L 301.090278 220.039054 
L 301.20204 220.419082 
L 301.338638 220.419082 
L 301.450401 216.488519 
L 301.586999 216.488519 
L 301.698761 216.026608 
L 301.83536 216.026608 
L 301.947122 212.799209 
L 302.083721 212.799209 
L 302.195483 211.72048 
L 302.332081 211.72048 
L 302.443844 210.203823 
L 302.828803 210.119492 
L 302.913246 50.853064 
L 302.943049 58.116026 
L 302.948016 56.899963 
L 302.980303 93.228456 
L 302.982787 93.228456 
L 303.094549 209.778496 
L 303.231147 209.778496 
L 303.34291 212.717182 
L 303.479508 212.717182 
L 303.59127 215.464667 
L 303.727869 215.464667 
L 303.839631 218.324424 
L 303.97623 218.324424 
L 304.087992 220.549719 
L 304.22459 220.549719 
L 304.336353 221.693982 
L 304.472951 221.693982 
L 304.584713 222.039299 
L 304.721312 222.039299 
L 304.833074 224.829561 
L 304.969673 224.829561 
L 305.081435 226.444881 
L 305.466394 226.508399 
L 305.578157 225.986787 
L 305.714755 225.986787 
L 305.826517 224.023917 
L 306.211477 223.971994 
L 306.323239 220.109485 
L 306.459837 220.109485 
L 306.5716 218.973504 
L 306.708198 218.973504 
L 306.81996 217.115346 
L 306.956559 217.115346 
L 307.068321 214.881409 
L 307.20492 214.881409 
L 307.316682 212.412699 
L 307.45328 212.412699 
L 307.565043 210.045603 
L 307.701641 210.045603 
L 307.813403 207.248356 
L 307.950002 207.248356 
L 308.014576 45.39252 
L 308.061764 60.647534 
L 308.064248 60.647534 
L 308.099018 85.47204 
L 308.210781 207.43387 
L 308.347379 207.43387 
L 308.459141 208.314194 
L 308.59574 208.314194 
L 308.707502 209.926561 
L 308.844101 209.926561 
L 308.955863 211.397705 
L 309.092461 211.397705 
L 309.204224 212.914074 
L 309.340822 212.914074 
L 309.452585 217.826649 
L 309.589183 217.826649 
L 309.700945 219.242124 
L 309.837544 219.242124 
L 309.949306 219.611854 
L 310.085904 219.611854 
L 310.197667 221.250795 
L 310.334265 221.250795 
L 310.446028 221.732367 
L 310.582626 221.732367 
L 310.694388 222.121541 
L 310.830987 222.121541 
L 310.942749 220.321068 
L 311.079348 220.321068 
L 311.19111 221.306392 
L 311.327708 221.306392 
L 311.439471 218.276893 
L 311.576069 218.276893 
L 311.687831 216.863218 
L 311.82443 216.863218 
L 311.936192 214.985688 
L 312.072791 214.985688 
L 312.184553 213.212293 
L 312.321151 213.212293 
L 312.432914 207.749444 
L 312.569512 207.749444 
L 312.663889 45.189723 
L 312.683758 51.23763 
L 312.860094 210.001313 
L 312.976824 210.001313 
L 313.088586 212.068894 
L 313.225185 212.068894 
L 313.336947 214.622583 
L 313.473545 214.622583 
L 313.585308 216.966201 
L 313.721906 216.966201 
L 313.833668 218.656418 
L 313.970267 218.656418 
L 314.082029 220.292262 
L 314.218628 220.292262 
L 314.33039 224.109976 
L 314.466988 224.109976 
L 314.578751 223.725411 
L 314.715349 223.725411 
L 314.827112 225.630955 
L 314.96371 225.630955 
L 315.075472 223.95435 
L 315.212071 223.95435 
L 315.323833 224.620138 
L 315.460431 224.620138 
L 315.572194 226.73849 
L 315.708792 226.73849 
L 315.820555 225.100413 
L 315.957153 225.100413 
L 316.068915 222.68982 
L 316.205514 222.68982 
L 316.317276 222.161294 
L 316.453875 222.161294 
L 316.565637 218.461182 
L 316.702235 218.461182 
L 316.813998 217.225099 
L 316.950596 217.225099 
L 317.062358 215.624326 
L 317.198957 215.624326 
L 317.310719 213.588649 
L 317.447318 213.588649 
L 317.55908 211.054764 
L 317.695678 211.054764 
L 317.807441 208.922441 
L 317.944039 208.922441 
L 318.028482 44.601063 
L 318.058285 53.153833 
L 318.063252 50.80755 
L 318.110441 90.077466 
L 318.112924 90.077466 
L 318.224687 207.66108 
L 318.361285 207.66108 
L 318.473048 210.072105 
L 318.609646 210.072105 
L 318.721408 215.878183 
L 318.858007 215.878183 
L 318.969769 217.883037 
L 319.106368 217.883037 
L 319.21813 219.132444 
L 319.354728 219.132444 
L 319.466491 220.200081 
L 319.603089 220.200081 
L 319.714851 221.083646 
L 319.85145 221.083646 
L 319.963212 224.424398 
L 320.099811 224.424398 
L 320.211573 227.088416 
L 320.348171 227.088416 
L 320.459934 225.501254 
L 320.596532 225.501254 
L 320.708294 226.503646 
L 321.093254 226.42342 
L 321.205016 225.219023 
L 321.341614 225.219023 
L 321.453377 226.965773 
L 321.589975 226.965773 
L 321.701738 224.555756 
L 321.838336 224.555756 
L 321.950098 221.632409 
L 322.086697 221.632409 
L 322.198459 221.487152 
L 322.335058 221.487152 
L 322.44682 220.528475 
L 322.583418 220.528475 
L 322.695181 216.308839 
L 322.831779 216.308839 
L 322.943541 215.005636 
L 323.08014 215.005636 
L 323.191902 213.493876 
L 323.328501 213.493876 
L 323.440263 212.139758 
L 323.576861 212.139758 
L 323.688624 210.453142 
L 323.825222 210.453142 
L 323.909665 44.957111 
L 323.939468 45.022789 
L 324.013976 92.005191 
L 324.125739 208.000924 
L 324.262337 208.000924 
L 324.374099 210.315375 
L 324.510698 210.315375 
L 324.62246 215.765766 
L 324.759059 215.765766 
L 324.870821 217.6963 
L 325.007419 217.6963 
L 325.119182 219.249038 
L 325.25578 219.249038 
L 325.367542 220.348434 
L 325.504141 220.348434 
L 325.615903 223.977323 
L 325.752502 223.977323 
L 325.864264 223.444332 
L 326.000862 223.444332 
L 326.112625 225.662138 
L 326.249223 225.662138 
L 326.360986 226.987882 
L 326.497584 226.987882 
L 326.609346 224.132878 
L 326.994306 224.07332 
L 327.106068 226.43343 
L 327.242666 226.43343 
L 327.354429 224.454789 
L 327.491027 224.454789 
L 327.602789 221.913631 
L 327.739388 221.913631 
L 327.85115 222.177858 
L 327.987749 222.177858 
L 328.099511 218.868937 
L 328.236109 218.868937 
L 328.347872 218.109312 
L 328.48447 218.109312 
L 328.596232 216.840245 
L 328.732831 216.840245 
L 328.844593 215.232343 
L 328.981192 215.232343 
L 329.092954 212.94713 
L 329.229552 212.94713 
L 329.341315 207.673971 
L 329.477913 207.673971 
L 329.557389 45.499536 
L 329.592159 46.080705 
L 329.877774 208.152662 
L 329.910061 208.152662 
L 330.021823 210.447381 
L 330.158422 210.447381 
L 330.270184 212.176414 
L 330.406782 212.176414 
L 330.518545 213.498557 
L 330.655143 213.498557 
L 330.766906 218.365905 
L 330.903504 218.365905 
L 331.015266 220.14679 
L 331.151865 220.14679 
L 331.263627 221.071187 
L 331.400226 221.071187 
L 331.511988 221.273913 
L 331.648586 221.273913 
L 331.760349 224.21692 
L 331.896947 224.21692 
L 332.008709 226.749508 
L 332.145308 226.749508 
L 332.25707 225.061884 
L 332.393669 225.061884 
L 332.505431 226.381362 
L 332.642029 226.381362 
L 332.753792 226.909816 
L 332.89039 226.909816 
L 333.002152 226.249429 
L 333.138751 226.249429 
L 333.250513 224.48374 
L 333.387112 224.48374 
L 333.498874 225.624474 
L 333.635472 225.624474 
L 333.747235 223.257451 
L 333.883833 223.257451 
L 333.995596 223.699413 
L 334.132194 223.699413 
L 334.243956 220.37112 
L 334.380555 220.37112 
L 334.492317 219.65312 
L 334.628915 219.65312 
L 334.740678 218.575327 
L 334.877276 218.575327 
L 334.989039 214.295054 
L 335.125637 214.295054 
L 335.237399 213.37901 
L 335.373998 213.37901 
L 335.48576 212.421197 
L 335.622359 212.421197 
L 335.734121 207.961891 
L 335.870719 207.961891 
L 335.955162 46.273132 
L 335.984965 48.799743 
L 335.992416 45.682168 
L 336.064441 84.713279 
L 336.176203 207.127873 
L 336.312801 207.127873 
L 336.424564 208.571435 
L 336.561162 208.571435 
L 336.672925 210.358297 
L 336.809523 210.358297 
L 336.921285 212.133781 
L 337.057884 212.133781 
L 337.169646 213.563587 
L 337.306245 213.563587 
L 337.418007 218.073952 
L 337.554605 218.073952 
L 337.666368 219.307371 
L 337.802966 219.307371 
L 337.914728 220.080319 
L 338.051327 220.080319 
L 338.163089 223.727571 
L 338.299688 223.727571 
L 338.41145 223.58822 
L 338.548048 223.58822 
L 338.659811 226.372288 
L 338.796409 226.372288 
L 338.908171 224.841443 
L 339.04477 224.841443 
L 339.156532 225.942641 
L 339.293131 225.942641 
L 339.404893 226.531228 
L 339.541491 226.531228 
L 339.653254 226.29984 
L 339.789852 226.29984 
L 339.901615 225.614103 
L 340.038213 225.614103 
L 340.149975 224.17299 
L 340.286574 224.17299 
L 340.398336 225.530349 
L 340.534935 225.530349 
L 340.646697 222.889016 
L 340.783295 222.889016 
L 340.895058 222.691332 
L 341.031656 222.691332 
L 341.143418 219.293399 
L 341.280017 219.293399 
L 341.391779 218.776684 
L 341.528378 218.776684 
L 341.64014 217.944323 
L 341.776738 217.944323 
L 341.888501 213.851651 
L 342.025099 213.851651 
L 342.136861 212.470239 
L 342.27346 212.470239 
L 342.385222 211.019188 
L 342.521821 211.019188 
L 342.633583 209.441101 
L 342.770181 209.441101 
L 342.859591 45.386614 
L 342.884427 49.566858 
L 342.891878 44.715857 
L 342.993706 90.937914 
L 343.105468 209.642169 
L 343.242067 209.642169 
L 343.353829 210.104729 
L 343.490428 210.104729 
L 343.60219 210.566711 
L 343.738788 210.566711 
L 343.850551 214.268984 
L 343.987149 214.268984 
L 344.098912 214.665144 
L 344.23551 214.665144 
L 344.347272 218.323271 
L 344.483871 218.323271 
L 344.595633 218.638702 
L 344.732231 218.638702 
L 344.843994 218.494021 
L 344.980592 218.494021 
L 345.092355 221.547646 
L 345.228953 221.547646 
L 345.340715 224.003609 
L 345.477314 224.003609 
L 345.589076 222.952175 
L 345.725675 222.952175 
L 345.837437 225.185968 
L 345.974035 225.185968 
L 346.085798 227.021081 
L 346.222396 227.021081 
L 346.334158 225.218807 
L 346.470757 225.218807 
L 346.582519 226.553913 
L 346.719118 226.553913 
L 346.83088 227.368054 
L 346.967478 227.368054 
L 347.079241 227.821035 
L 347.215839 227.821035 
L 347.327602 227.613125 
L 347.712561 227.535131 
L 347.824323 227.248796 
L 347.960921 227.248796 
L 348.072684 226.431774 
L 348.209282 226.431774 
L 348.321045 225.555554 
L 348.457643 225.555554 
L 348.569405 224.035656 
L 348.706004 224.035656 
L 348.817766 225.74222 
L 348.954365 225.74222 
L 349.066127 223.92007 
L 349.202725 223.92007 
L 349.314488 221.697079 
L 349.451086 221.697079 
L 349.562848 223.165918 
L 349.699447 223.165918 
L 349.811209 221.224654 
L 349.947808 221.224654 
L 350.05957 219.125386 
L 350.196168 219.125386 
L 350.307931 219.963293 
L 350.444529 219.963293 
L 350.556291 217.541609 
L 350.69289 217.541609 
L 350.804652 215.63232 
L 350.941251 215.63232 
L 351.053013 216.484558 
L 351.189611 216.484558 
L 351.301374 214.347338 
L 351.437972 214.347338 
L 351.549735 215.412671 
L 351.686333 215.412671 
L 351.798095 212.921708 
L 351.934694 212.921708 
L 352.046456 210.31019 
L 352.183054 210.31019 
L 352.294817 210.96388 
L 352.431415 210.96388 
L 352.543178 208.405654 
L 352.679776 208.405654 
L 352.791538 209.14958 
L 352.928137 209.14958 
L 352.933104 92.620497 
L 353.037416 207.100363 
L 353.181465 207.100363 
L 353.295711 56.845663 
L 353.375186 44.941555 
L 353.417408 47.041831 
L 353.419891 47.041831 
L 353.489432 44.613594 
L 353.481981 50.545556 
L 353.524203 47.111111 
L 353.668252 91.775316 
L 353.673219 89.823682 
L 353.784981 206.932206 
L 353.92158 206.932206 
L 354.033342 209.049549 
L 354.169941 209.049549 
L 354.281703 207.737849 
L 354.418301 207.737849 
L 354.530064 209.723404 
L 354.666662 209.723404 
L 354.778425 212.842778 
L 354.915023 212.842778 
L 355.026785 211.838947 
L 355.163384 211.838947 
L 355.275146 213.95413 
L 355.411744 213.95413 
L 355.523507 215.994489 
L 355.660105 215.994489 
L 355.771868 214.568643 
L 355.908466 214.568643 
L 356.020228 216.255115 
L 356.156827 216.255115 
L 356.268589 217.752472 
L 356.405188 217.752472 
L 356.51695 216.096535 
L 356.653548 216.096535 
L 356.765311 217.579418 
L 356.901909 217.579418 
L 357.013671 219.227145 
L 357.15027 219.227145 
L 357.262032 218.432808 
L 357.398631 218.432808 
L 357.510393 217.146025 
L 357.646991 217.146025 
L 357.758754 218.344732 
L 357.895352 218.344732 
L 358.007114 219.171764 
L 358.143713 219.171764 
L 358.255475 220.100915 
L 358.392074 220.100915 
L 358.503836 221.247411 
L 358.640434 221.247411 
L 358.752197 218.543928 
L 358.888795 218.543928 
L 359.000558 219.082464 
L 359.137156 219.082464 
L 359.248918 219.271291 
L 359.385517 219.271291 
L 359.497279 221.703776 
L 359.633878 221.703776 
L 359.74564 221.252452 
L 359.882238 221.252452 
L 359.994001 221.7539 
L 360.130599 221.7539 
L 360.242361 222.436396 
L 360.37896 222.436396 
L 360.490722 223.139848 
L 360.627321 223.139848 
L 360.739083 223.521029 
L 360.875681 223.521029 
L 360.987444 222.320738 
L 361.124042 222.320738 
L 361.235804 222.439132 
L 361.372403 222.439132 
L 361.484165 223.35388 
L 361.620764 223.35388 
L 361.732526 223.843589 
L 361.869124 223.843589 
L 361.980887 224.252712 
L 362.365846 224.334234 
L 362.477608 224.559717 
L 362.614207 224.559717 
L 362.725969 224.862472 
L 362.862567 224.862472 
L 362.97433 225.301914 
L 363.110928 225.301914 
L 363.222691 224.147785 
L 363.359289 224.147785 
L 363.471051 224.993253 
L 363.60765 224.993253 
L 363.719412 224.638862 
L 363.856011 224.638862 
L 363.967773 223.054293 
L 364.104371 223.054293 
L 364.216134 218.783382 
L 364.352732 218.783382 
L 364.464494 216.648322 
L 364.601093 216.648322 
L 364.712855 215.896691 
L 364.849454 215.896691 
L 364.961216 208.786187 
L 365.097814 208.786187 
L 365.117683 71.254489 
L 365.145003 209.804494 
L 365.207093 209.804494 
L 365.39088 209.804494 
L 365.502642 213.100596 
L 365.639241 213.100596 
L 365.751003 219.684231 
L 365.887602 219.684231 
L 365.999364 219.367936 
L 366.135962 219.367936 
L 366.247725 218.849997 
L 366.384323 218.849997 
L 366.496085 217.179873 
L 366.881045 217.140192 
L 366.992807 215.148732 
L 367.129405 215.148732 
L 367.241168 210.831226 
L 367.377766 210.831226 
L 367.422471 49.110852 
L 367.489529 58.75164 
L 367.492012 58.75164 
L 367.506914 61.767384 
L 367.509397 55.786019 
L 367.606258 60.519778 
L 367.643512 61.655327 
L 367.755275 50.809278 
L 367.936578 208.976309 
L 368.117881 208.976309 
L 368.229644 215.261077 
L 368.366242 215.261077 
L 368.478004 221.459858 
L 368.614603 221.459858 
L 368.726365 224.517875 
L 368.862964 224.517875 
L 368.974726 230.980955 
L 369.111324 230.980955 
L 369.223087 236.703638 
L 369.359685 236.703638 
L 369.471447 238.950466 
L 369.608046 238.950466 
L 369.719808 239.930245 
L 369.856407 239.930245 
L 369.968169 240.881937 
L 370.104767 240.881937 
L 370.21653 238.511169 
L 370.353128 238.511169 
L 370.464891 239.179477 
L 370.601489 239.179477 
L 370.713251 239.989802 
L 370.84985 239.989802 
L 370.961612 240.678635 
L 371.098211 240.678635 
L 371.209973 241.075444 
L 371.346571 241.075444 
L 371.458334 241.3643 
L 371.594932 241.3643 
L 371.706694 241.566233 
L 372.091654 241.630183 
L 372.203416 241.719699 
L 372.340014 241.719699 
L 372.451777 241.841766 
L 373.085097 241.937332 
L 373.196859 242.019286 
L 373.581818 242.116364 
L 373.581818 242.116364 
" style="fill:none;stroke:#1f77b4;stroke-linecap:square;stroke-width:1.5;"/>
   </g>
   <g id="patch_25">
    <path d="M 54 252 
L 54 34.56 
" style="fill:none;stroke:#000000;stroke-linecap:square;stroke-linejoin:miter;stroke-width:0.8;"/>
   </g>
   <g id="patch_26">
    <path d="M 388.8 252 
L 388.8 34.56 
" style="fill:none;stroke:#000000;stroke-linecap:square;stroke-linejoin:miter;stroke-width:0.8;"/>
   </g>
   <g id="patch_27">
    <path d="M 54 252 
L 388.8 252 
" style="fill:none;stroke:#000000;stroke-linecap:square;stroke-linejoin:miter;stroke-width:0.8;"/>
   </g>
   <g id="patch_28">
    <path d="M 54 34.56 
L 388.8 34.56 
" style="fill:none;stroke:#000000;stroke-linecap:square;stroke-linejoin:miter;stroke-width:0.8;"/>
   </g>
  </g>
 </g>
 <defs>
  <clipPath id="pd08ebb240e">
   <rect height="217.44" width="334.8" x="54" y="34.56"/>
  </clipPath>
 </defs>
</svg>
