<?xml version="1.0" encoding="utf-8" standalone="no"?>
<!DOCTYPE svg PUBLIC "-//W3C//DTD SVG 1.1//EN"
  "http://www.w3.org/Graphics/SVG/1.1/DTD/svg11.dtd">
<!-- Created with matplotlib (https://matplotlib.org/) -->
<svg height="288pt" version="1.1" viewBox="0 0 432 288" width="432pt" xmlns="http://www.w3.org/2000/svg" xmlns:xlink="http://www.w3.org/1999/xlink">
 <defs>
  <style type="text/css">
*{stroke-linecap:butt;stroke-linejoin:round;}
  </style>
 </defs>
 <g id="figure_1">
  <g id="patch_1">
   <path d="M 0 288 
L 432 288 
L 432 0 
L 0 0 
z
" style="fill:#ffffff;"/>
  </g>
  <g id="axes_1">
   <g id="patch_2">
    <path d="M 54 252 
L 388.8 252 
L 388.8 34.56 
L 54 34.56 
z
" style="fill:#ffffff;"/>
   </g>
   <g id="matplotlib.axis_1">
    <g id="xtick_1">
     <g id="line2d_1">
      <defs>
       <path d="M 0 0 
L 0 3.5 
" id="m5b31ac8468" style="stroke:#000000;stroke-width:0.8;"/>
      </defs>
      <g>
       <use style="stroke:#000000;stroke-width:0.8;" x="69.218182" xlink:href="#m5b31ac8468" y="252"/>
      </g>
     </g>
     <g id="text_1">
      <!-- 0 -->
      <defs>
       <path d="M 31.78125 66.40625 
Q 24.171875 66.40625 20.328125 58.90625 
Q 16.5 51.421875 16.5 36.375 
Q 16.5 21.390625 20.328125 13.890625 
Q 24.171875 6.390625 31.78125 6.390625 
Q 39.453125 6.390625 43.28125 13.890625 
Q 47.125 21.390625 47.125 36.375 
Q 47.125 51.421875 43.28125 58.90625 
Q 39.453125 66.40625 31.78125 66.40625 
z
M 31.78125 74.21875 
Q 44.046875 74.21875 50.515625 64.515625 
Q 56.984375 54.828125 56.984375 36.375 
Q 56.984375 17.96875 50.515625 8.265625 
Q 44.046875 -1.421875 31.78125 -1.421875 
Q 19.53125 -1.421875 13.0625 8.265625 
Q 6.59375 17.96875 6.59375 36.375 
Q 6.59375 54.828125 13.0625 64.515625 
Q 19.53125 74.21875 31.78125 74.21875 
z
" id="DejaVuSans-48"/>
      </defs>
      <g transform="translate(66.036932 266.598437)scale(0.1 -0.1)">
       <use xlink:href="#DejaVuSans-48"/>
      </g>
     </g>
    </g>
    <g id="xtick_2">
     <g id="line2d_2">
      <g>
       <use style="stroke:#000000;stroke-width:0.8;" x="131.767223" xlink:href="#m5b31ac8468" y="252"/>
      </g>
     </g>
     <g id="text_2">
      <!-- 500 -->
      <defs>
       <path d="M 10.796875 72.90625 
L 49.515625 72.90625 
L 49.515625 64.59375 
L 19.828125 64.59375 
L 19.828125 46.734375 
Q 21.96875 47.46875 24.109375 47.828125 
Q 26.265625 48.1875 28.421875 48.1875 
Q 40.625 48.1875 47.75 41.5 
Q 54.890625 34.8125 54.890625 23.390625 
Q 54.890625 11.625 47.5625 5.09375 
Q 40.234375 -1.421875 26.90625 -1.421875 
Q 22.3125 -1.421875 17.546875 -0.640625 
Q 12.796875 0.140625 7.71875 1.703125 
L 7.71875 11.625 
Q 12.109375 9.234375 16.796875 8.0625 
Q 21.484375 6.890625 26.703125 6.890625 
Q 35.15625 6.890625 40.078125 11.328125 
Q 45.015625 15.765625 45.015625 23.390625 
Q 45.015625 31 40.078125 35.4375 
Q 35.15625 39.890625 26.703125 39.890625 
Q 22.75 39.890625 18.8125 39.015625 
Q 14.890625 38.140625 10.796875 36.28125 
z
" id="DejaVuSans-53"/>
      </defs>
      <g transform="translate(122.223473 266.598437)scale(0.1 -0.1)">
       <use xlink:href="#DejaVuSans-53"/>
       <use x="63.623047" xlink:href="#DejaVuSans-48"/>
       <use x="127.246094" xlink:href="#DejaVuSans-48"/>
      </g>
     </g>
    </g>
    <g id="xtick_3">
     <g id="line2d_3">
      <g>
       <use style="stroke:#000000;stroke-width:0.8;" x="194.316265" xlink:href="#m5b31ac8468" y="252"/>
      </g>
     </g>
     <g id="text_3">
      <!-- 1000 -->
      <defs>
       <path d="M 12.40625 8.296875 
L 28.515625 8.296875 
L 28.515625 63.921875 
L 10.984375 60.40625 
L 10.984375 69.390625 
L 28.421875 72.90625 
L 38.28125 72.90625 
L 38.28125 8.296875 
L 54.390625 8.296875 
L 54.390625 0 
L 12.40625 0 
z
" id="DejaVuSans-49"/>
      </defs>
      <g transform="translate(181.591265 266.598437)scale(0.1 -0.1)">
       <use xlink:href="#DejaVuSans-49"/>
       <use x="63.623047" xlink:href="#DejaVuSans-48"/>
       <use x="127.246094" xlink:href="#DejaVuSans-48"/>
       <use x="190.869141" xlink:href="#DejaVuSans-48"/>
      </g>
     </g>
    </g>
    <g id="xtick_4">
     <g id="line2d_4">
      <g>
       <use style="stroke:#000000;stroke-width:0.8;" x="256.865307" xlink:href="#m5b31ac8468" y="252"/>
      </g>
     </g>
     <g id="text_4">
      <!-- 1500 -->
      <g transform="translate(244.140307 266.598437)scale(0.1 -0.1)">
       <use xlink:href="#DejaVuSans-49"/>
       <use x="63.623047" xlink:href="#DejaVuSans-53"/>
       <use x="127.246094" xlink:href="#DejaVuSans-48"/>
       <use x="190.869141" xlink:href="#DejaVuSans-48"/>
      </g>
     </g>
    </g>
    <g id="xtick_5">
     <g id="line2d_5">
      <g>
       <use style="stroke:#000000;stroke-width:0.8;" x="319.414348" xlink:href="#m5b31ac8468" y="252"/>
      </g>
     </g>
     <g id="text_5">
      <!-- 2000 -->
      <defs>
       <path d="M 19.1875 8.296875 
L 53.609375 8.296875 
L 53.609375 0 
L 7.328125 0 
L 7.328125 8.296875 
Q 12.9375 14.109375 22.625 23.890625 
Q 32.328125 33.6875 34.8125 36.53125 
Q 39.546875 41.84375 41.421875 45.53125 
Q 43.3125 49.21875 43.3125 52.78125 
Q 43.3125 58.59375 39.234375 62.25 
Q 35.15625 65.921875 28.609375 65.921875 
Q 23.96875 65.921875 18.8125 64.3125 
Q 13.671875 62.703125 7.8125 59.421875 
L 7.8125 69.390625 
Q 13.765625 71.78125 18.9375 73 
Q 24.125 74.21875 28.421875 74.21875 
Q 39.75 74.21875 46.484375 68.546875 
Q 53.21875 62.890625 53.21875 53.421875 
Q 53.21875 48.921875 51.53125 44.890625 
Q 49.859375 40.875 45.40625 35.40625 
Q 44.1875 33.984375 37.640625 27.21875 
Q 31.109375 20.453125 19.1875 8.296875 
z
" id="DejaVuSans-50"/>
      </defs>
      <g transform="translate(306.689348 266.598437)scale(0.1 -0.1)">
       <use xlink:href="#DejaVuSans-50"/>
       <use x="63.623047" xlink:href="#DejaVuSans-48"/>
       <use x="127.246094" xlink:href="#DejaVuSans-48"/>
       <use x="190.869141" xlink:href="#DejaVuSans-48"/>
      </g>
     </g>
    </g>
    <g id="xtick_6">
     <g id="line2d_6">
      <g>
       <use style="stroke:#000000;stroke-width:0.8;" x="381.96339" xlink:href="#m5b31ac8468" y="252"/>
      </g>
     </g>
     <g id="text_6">
      <!-- 2500 -->
      <g transform="translate(369.23839 266.598437)scale(0.1 -0.1)">
       <use xlink:href="#DejaVuSans-50"/>
       <use x="63.623047" xlink:href="#DejaVuSans-53"/>
       <use x="127.246094" xlink:href="#DejaVuSans-48"/>
       <use x="190.869141" xlink:href="#DejaVuSans-48"/>
      </g>
     </g>
    </g>
    <g id="text_7">
     <!-- Frames -->
     <defs>
      <path d="M 9.8125 72.90625 
L 51.703125 72.90625 
L 51.703125 64.59375 
L 19.671875 64.59375 
L 19.671875 43.109375 
L 48.578125 43.109375 
L 48.578125 34.8125 
L 19.671875 34.8125 
L 19.671875 0 
L 9.8125 0 
z
" id="DejaVuSans-70"/>
      <path d="M 41.109375 46.296875 
Q 39.59375 47.171875 37.8125 47.578125 
Q 36.03125 48 33.890625 48 
Q 26.265625 48 22.1875 43.046875 
Q 18.109375 38.09375 18.109375 28.8125 
L 18.109375 0 
L 9.078125 0 
L 9.078125 54.6875 
L 18.109375 54.6875 
L 18.109375 46.1875 
Q 20.953125 51.171875 25.484375 53.578125 
Q 30.03125 56 36.53125 56 
Q 37.453125 56 38.578125 55.875 
Q 39.703125 55.765625 41.0625 55.515625 
z
" id="DejaVuSans-114"/>
      <path d="M 34.28125 27.484375 
Q 23.390625 27.484375 19.1875 25 
Q 14.984375 22.515625 14.984375 16.5 
Q 14.984375 11.71875 18.140625 8.90625 
Q 21.296875 6.109375 26.703125 6.109375 
Q 34.1875 6.109375 38.703125 11.40625 
Q 43.21875 16.703125 43.21875 25.484375 
L 43.21875 27.484375 
z
M 52.203125 31.203125 
L 52.203125 0 
L 43.21875 0 
L 43.21875 8.296875 
Q 40.140625 3.328125 35.546875 0.953125 
Q 30.953125 -1.421875 24.3125 -1.421875 
Q 15.921875 -1.421875 10.953125 3.296875 
Q 6 8.015625 6 15.921875 
Q 6 25.140625 12.171875 29.828125 
Q 18.359375 34.515625 30.609375 34.515625 
L 43.21875 34.515625 
L 43.21875 35.40625 
Q 43.21875 41.609375 39.140625 45 
Q 35.0625 48.390625 27.6875 48.390625 
Q 23 48.390625 18.546875 47.265625 
Q 14.109375 46.140625 10.015625 43.890625 
L 10.015625 52.203125 
Q 14.9375 54.109375 19.578125 55.046875 
Q 24.21875 56 28.609375 56 
Q 40.484375 56 46.34375 49.84375 
Q 52.203125 43.703125 52.203125 31.203125 
z
" id="DejaVuSans-97"/>
      <path d="M 52 44.1875 
Q 55.375 50.25 60.0625 53.125 
Q 64.75 56 71.09375 56 
Q 79.640625 56 84.28125 50.015625 
Q 88.921875 44.046875 88.921875 33.015625 
L 88.921875 0 
L 79.890625 0 
L 79.890625 32.71875 
Q 79.890625 40.578125 77.09375 44.375 
Q 74.3125 48.1875 68.609375 48.1875 
Q 61.625 48.1875 57.5625 43.546875 
Q 53.515625 38.921875 53.515625 30.90625 
L 53.515625 0 
L 44.484375 0 
L 44.484375 32.71875 
Q 44.484375 40.625 41.703125 44.40625 
Q 38.921875 48.1875 33.109375 48.1875 
Q 26.21875 48.1875 22.15625 43.53125 
Q 18.109375 38.875 18.109375 30.90625 
L 18.109375 0 
L 9.078125 0 
L 9.078125 54.6875 
L 18.109375 54.6875 
L 18.109375 46.1875 
Q 21.1875 51.21875 25.484375 53.609375 
Q 29.78125 56 35.6875 56 
Q 41.65625 56 45.828125 52.96875 
Q 50 49.953125 52 44.1875 
z
" id="DejaVuSans-109"/>
      <path d="M 56.203125 29.59375 
L 56.203125 25.203125 
L 14.890625 25.203125 
Q 15.484375 15.921875 20.484375 11.0625 
Q 25.484375 6.203125 34.421875 6.203125 
Q 39.59375 6.203125 44.453125 7.46875 
Q 49.3125 8.734375 54.109375 11.28125 
L 54.109375 2.78125 
Q 49.265625 0.734375 44.1875 -0.34375 
Q 39.109375 -1.421875 33.890625 -1.421875 
Q 20.796875 -1.421875 13.15625 6.1875 
Q 5.515625 13.8125 5.515625 26.8125 
Q 5.515625 40.234375 12.765625 48.109375 
Q 20.015625 56 32.328125 56 
Q 43.359375 56 49.78125 48.890625 
Q 56.203125 41.796875 56.203125 29.59375 
z
M 47.21875 32.234375 
Q 47.125 39.59375 43.09375 43.984375 
Q 39.0625 48.390625 32.421875 48.390625 
Q 24.90625 48.390625 20.390625 44.140625 
Q 15.875 39.890625 15.1875 32.171875 
z
" id="DejaVuSans-101"/>
      <path d="M 44.28125 53.078125 
L 44.28125 44.578125 
Q 40.484375 46.53125 36.375 47.5 
Q 32.28125 48.484375 27.875 48.484375 
Q 21.1875 48.484375 17.84375 46.4375 
Q 14.5 44.390625 14.5 40.28125 
Q 14.5 37.15625 16.890625 35.375 
Q 19.28125 33.59375 26.515625 31.984375 
L 29.59375 31.296875 
Q 39.15625 29.25 43.1875 25.515625 
Q 47.21875 21.78125 47.21875 15.09375 
Q 47.21875 7.46875 41.1875 3.015625 
Q 35.15625 -1.421875 24.609375 -1.421875 
Q 20.21875 -1.421875 15.453125 -0.5625 
Q 10.6875 0.296875 5.421875 2 
L 5.421875 11.28125 
Q 10.40625 8.6875 15.234375 7.390625 
Q 20.0625 6.109375 24.8125 6.109375 
Q 31.15625 6.109375 34.5625 8.28125 
Q 37.984375 10.453125 37.984375 14.40625 
Q 37.984375 18.0625 35.515625 20.015625 
Q 33.0625 21.96875 24.703125 23.78125 
L 21.578125 24.515625 
Q 13.234375 26.265625 9.515625 29.90625 
Q 5.8125 33.546875 5.8125 39.890625 
Q 5.8125 47.609375 11.28125 51.796875 
Q 16.75 56 26.8125 56 
Q 31.78125 56 36.171875 55.265625 
Q 40.578125 54.546875 44.28125 53.078125 
z
" id="DejaVuSans-115"/>
     </defs>
     <g transform="translate(191.73375 284.835625)scale(0.16 -0.16)">
      <use xlink:href="#DejaVuSans-70"/>
      <use x="57.410156" xlink:href="#DejaVuSans-114"/>
      <use x="98.523438" xlink:href="#DejaVuSans-97"/>
      <use x="159.802734" xlink:href="#DejaVuSans-109"/>
      <use x="257.214844" xlink:href="#DejaVuSans-101"/>
      <use x="318.738281" xlink:href="#DejaVuSans-115"/>
     </g>
    </g>
   </g>
   <g id="matplotlib.axis_2">
    <g id="ytick_1">
     <g id="line2d_7">
      <defs>
       <path d="M 0 0 
L -3.5 0 
" id="mc75aa544bd" style="stroke:#000000;stroke-width:0.8;"/>
      </defs>
      <g>
       <use style="stroke:#000000;stroke-width:0.8;" x="54" xlink:href="#mc75aa544bd" y="243.262267"/>
      </g>
     </g>
     <g id="text_8">
      <!-- 0 -->
      <g transform="translate(40.6375 247.061486)scale(0.1 -0.1)">
       <use xlink:href="#DejaVuSans-48"/>
      </g>
     </g>
    </g>
    <g id="ytick_2">
     <g id="line2d_8">
      <g>
       <use style="stroke:#000000;stroke-width:0.8;" x="54" xlink:href="#mc75aa544bd" y="218.517827"/>
      </g>
     </g>
     <g id="text_9">
      <!-- 5 -->
      <g transform="translate(40.6375 222.317046)scale(0.1 -0.1)">
       <use xlink:href="#DejaVuSans-53"/>
      </g>
     </g>
    </g>
    <g id="ytick_3">
     <g id="line2d_9">
      <g>
       <use style="stroke:#000000;stroke-width:0.8;" x="54" xlink:href="#mc75aa544bd" y="193.773387"/>
      </g>
     </g>
     <g id="text_10">
      <!-- 10 -->
      <g transform="translate(34.275 197.572605)scale(0.1 -0.1)">
       <use xlink:href="#DejaVuSans-49"/>
       <use x="63.623047" xlink:href="#DejaVuSans-48"/>
      </g>
     </g>
    </g>
    <g id="ytick_4">
     <g id="line2d_10">
      <g>
       <use style="stroke:#000000;stroke-width:0.8;" x="54" xlink:href="#mc75aa544bd" y="169.028947"/>
      </g>
     </g>
     <g id="text_11">
      <!-- 15 -->
      <g transform="translate(34.275 172.828165)scale(0.1 -0.1)">
       <use xlink:href="#DejaVuSans-49"/>
       <use x="63.623047" xlink:href="#DejaVuSans-53"/>
      </g>
     </g>
    </g>
    <g id="ytick_5">
     <g id="line2d_11">
      <g>
       <use style="stroke:#000000;stroke-width:0.8;" x="54" xlink:href="#mc75aa544bd" y="144.284506"/>
      </g>
     </g>
     <g id="text_12">
      <!-- 20 -->
      <g transform="translate(34.275 148.083725)scale(0.1 -0.1)">
       <use xlink:href="#DejaVuSans-50"/>
       <use x="63.623047" xlink:href="#DejaVuSans-48"/>
      </g>
     </g>
    </g>
    <g id="ytick_6">
     <g id="line2d_12">
      <g>
       <use style="stroke:#000000;stroke-width:0.8;" x="54" xlink:href="#mc75aa544bd" y="119.540066"/>
      </g>
     </g>
     <g id="text_13">
      <!-- 25 -->
      <g transform="translate(34.275 123.339285)scale(0.1 -0.1)">
       <use xlink:href="#DejaVuSans-50"/>
       <use x="63.623047" xlink:href="#DejaVuSans-53"/>
      </g>
     </g>
    </g>
    <g id="ytick_7">
     <g id="line2d_13">
      <g>
       <use style="stroke:#000000;stroke-width:0.8;" x="54" xlink:href="#mc75aa544bd" y="94.795626"/>
      </g>
     </g>
     <g id="text_14">
      <!-- 30 -->
      <defs>
       <path d="M 40.578125 39.3125 
Q 47.65625 37.796875 51.625 33 
Q 55.609375 28.21875 55.609375 21.1875 
Q 55.609375 10.40625 48.1875 4.484375 
Q 40.765625 -1.421875 27.09375 -1.421875 
Q 22.515625 -1.421875 17.65625 -0.515625 
Q 12.796875 0.390625 7.625 2.203125 
L 7.625 11.71875 
Q 11.71875 9.328125 16.59375 8.109375 
Q 21.484375 6.890625 26.8125 6.890625 
Q 36.078125 6.890625 40.9375 10.546875 
Q 45.796875 14.203125 45.796875 21.1875 
Q 45.796875 27.640625 41.28125 31.265625 
Q 36.765625 34.90625 28.71875 34.90625 
L 20.21875 34.90625 
L 20.21875 43.015625 
L 29.109375 43.015625 
Q 36.375 43.015625 40.234375 45.921875 
Q 44.09375 48.828125 44.09375 54.296875 
Q 44.09375 59.90625 40.109375 62.90625 
Q 36.140625 65.921875 28.71875 65.921875 
Q 24.65625 65.921875 20.015625 65.03125 
Q 15.375 64.15625 9.8125 62.3125 
L 9.8125 71.09375 
Q 15.4375 72.65625 20.34375 73.4375 
Q 25.25 74.21875 29.59375 74.21875 
Q 40.828125 74.21875 47.359375 69.109375 
Q 53.90625 64.015625 53.90625 55.328125 
Q 53.90625 49.265625 50.4375 45.09375 
Q 46.96875 40.921875 40.578125 39.3125 
z
" id="DejaVuSans-51"/>
      </defs>
      <g transform="translate(34.275 98.594845)scale(0.1 -0.1)">
       <use xlink:href="#DejaVuSans-51"/>
       <use x="63.623047" xlink:href="#DejaVuSans-48"/>
      </g>
     </g>
    </g>
    <g id="ytick_8">
     <g id="line2d_14">
      <g>
       <use style="stroke:#000000;stroke-width:0.8;" x="54" xlink:href="#mc75aa544bd" y="70.051186"/>
      </g>
     </g>
     <g id="text_15">
      <!-- 35 -->
      <g transform="translate(34.275 73.850405)scale(0.1 -0.1)">
       <use xlink:href="#DejaVuSans-51"/>
       <use x="63.623047" xlink:href="#DejaVuSans-53"/>
      </g>
     </g>
    </g>
    <g id="ytick_9">
     <g id="line2d_15">
      <g>
       <use style="stroke:#000000;stroke-width:0.8;" x="54" xlink:href="#mc75aa544bd" y="45.306746"/>
      </g>
     </g>
     <g id="text_16">
      <!-- 40 -->
      <defs>
       <path d="M 37.796875 64.3125 
L 12.890625 25.390625 
L 37.796875 25.390625 
z
M 35.203125 72.90625 
L 47.609375 72.90625 
L 47.609375 25.390625 
L 58.015625 25.390625 
L 58.015625 17.1875 
L 47.609375 17.1875 
L 47.609375 0 
L 37.796875 0 
L 37.796875 17.1875 
L 4.890625 17.1875 
L 4.890625 26.703125 
z
" id="DejaVuSans-52"/>
      </defs>
      <g transform="translate(34.275 49.105965)scale(0.1 -0.1)">
       <use xlink:href="#DejaVuSans-52"/>
       <use x="63.623047" xlink:href="#DejaVuSans-48"/>
      </g>
     </g>
    </g>
    <g id="text_17">
     <!-- Average Brightness -->
     <defs>
      <path d="M 34.1875 63.1875 
L 20.796875 26.90625 
L 47.609375 26.90625 
z
M 28.609375 72.90625 
L 39.796875 72.90625 
L 67.578125 0 
L 57.328125 0 
L 50.6875 18.703125 
L 17.828125 18.703125 
L 11.1875 0 
L 0.78125 0 
z
" id="DejaVuSans-65"/>
      <path d="M 2.984375 54.6875 
L 12.5 54.6875 
L 29.59375 8.796875 
L 46.6875 54.6875 
L 56.203125 54.6875 
L 35.6875 0 
L 23.484375 0 
z
" id="DejaVuSans-118"/>
      <path d="M 45.40625 27.984375 
Q 45.40625 37.75 41.375 43.109375 
Q 37.359375 48.484375 30.078125 48.484375 
Q 22.859375 48.484375 18.828125 43.109375 
Q 14.796875 37.75 14.796875 27.984375 
Q 14.796875 18.265625 18.828125 12.890625 
Q 22.859375 7.515625 30.078125 7.515625 
Q 37.359375 7.515625 41.375 12.890625 
Q 45.40625 18.265625 45.40625 27.984375 
z
M 54.390625 6.78125 
Q 54.390625 -7.171875 48.1875 -13.984375 
Q 42 -20.796875 29.203125 -20.796875 
Q 24.46875 -20.796875 20.265625 -20.09375 
Q 16.0625 -19.390625 12.109375 -17.921875 
L 12.109375 -9.1875 
Q 16.0625 -11.328125 19.921875 -12.34375 
Q 23.78125 -13.375 27.78125 -13.375 
Q 36.625 -13.375 41.015625 -8.765625 
Q 45.40625 -4.15625 45.40625 5.171875 
L 45.40625 9.625 
Q 42.625 4.78125 38.28125 2.390625 
Q 33.9375 0 27.875 0 
Q 17.828125 0 11.671875 7.65625 
Q 5.515625 15.328125 5.515625 27.984375 
Q 5.515625 40.671875 11.671875 48.328125 
Q 17.828125 56 27.875 56 
Q 33.9375 56 38.28125 53.609375 
Q 42.625 51.21875 45.40625 46.390625 
L 45.40625 54.6875 
L 54.390625 54.6875 
z
" id="DejaVuSans-103"/>
      <path id="DejaVuSans-32"/>
      <path d="M 19.671875 34.8125 
L 19.671875 8.109375 
L 35.5 8.109375 
Q 43.453125 8.109375 47.28125 11.40625 
Q 51.125 14.703125 51.125 21.484375 
Q 51.125 28.328125 47.28125 31.5625 
Q 43.453125 34.8125 35.5 34.8125 
z
M 19.671875 64.796875 
L 19.671875 42.828125 
L 34.28125 42.828125 
Q 41.5 42.828125 45.03125 45.53125 
Q 48.578125 48.25 48.578125 53.8125 
Q 48.578125 59.328125 45.03125 62.0625 
Q 41.5 64.796875 34.28125 64.796875 
z
M 9.8125 72.90625 
L 35.015625 72.90625 
Q 46.296875 72.90625 52.390625 68.21875 
Q 58.5 63.53125 58.5 54.890625 
Q 58.5 48.1875 55.375 44.234375 
Q 52.25 40.28125 46.1875 39.3125 
Q 53.46875 37.75 57.5 32.78125 
Q 61.53125 27.828125 61.53125 20.40625 
Q 61.53125 10.640625 54.890625 5.3125 
Q 48.25 0 35.984375 0 
L 9.8125 0 
z
" id="DejaVuSans-66"/>
      <path d="M 9.421875 54.6875 
L 18.40625 54.6875 
L 18.40625 0 
L 9.421875 0 
z
M 9.421875 75.984375 
L 18.40625 75.984375 
L 18.40625 64.59375 
L 9.421875 64.59375 
z
" id="DejaVuSans-105"/>
      <path d="M 54.890625 33.015625 
L 54.890625 0 
L 45.90625 0 
L 45.90625 32.71875 
Q 45.90625 40.484375 42.875 44.328125 
Q 39.84375 48.1875 33.796875 48.1875 
Q 26.515625 48.1875 22.3125 43.546875 
Q 18.109375 38.921875 18.109375 30.90625 
L 18.109375 0 
L 9.078125 0 
L 9.078125 75.984375 
L 18.109375 75.984375 
L 18.109375 46.1875 
Q 21.34375 51.125 25.703125 53.5625 
Q 30.078125 56 35.796875 56 
Q 45.21875 56 50.046875 50.171875 
Q 54.890625 44.34375 54.890625 33.015625 
z
" id="DejaVuSans-104"/>
      <path d="M 18.3125 70.21875 
L 18.3125 54.6875 
L 36.8125 54.6875 
L 36.8125 47.703125 
L 18.3125 47.703125 
L 18.3125 18.015625 
Q 18.3125 11.328125 20.140625 9.421875 
Q 21.96875 7.515625 27.59375 7.515625 
L 36.8125 7.515625 
L 36.8125 0 
L 27.59375 0 
Q 17.1875 0 13.234375 3.875 
Q 9.28125 7.765625 9.28125 18.015625 
L 9.28125 47.703125 
L 2.6875 47.703125 
L 2.6875 54.6875 
L 9.28125 54.6875 
L 9.28125 70.21875 
z
" id="DejaVuSans-116"/>
      <path d="M 54.890625 33.015625 
L 54.890625 0 
L 45.90625 0 
L 45.90625 32.71875 
Q 45.90625 40.484375 42.875 44.328125 
Q 39.84375 48.1875 33.796875 48.1875 
Q 26.515625 48.1875 22.3125 43.546875 
Q 18.109375 38.921875 18.109375 30.90625 
L 18.109375 0 
L 9.078125 0 
L 9.078125 54.6875 
L 18.109375 54.6875 
L 18.109375 46.1875 
Q 21.34375 51.125 25.703125 53.5625 
Q 30.078125 56 35.796875 56 
Q 45.21875 56 50.046875 50.171875 
Q 54.890625 44.34375 54.890625 33.015625 
z
" id="DejaVuSans-110"/>
     </defs>
     <g transform="translate(26.9475 221.75125)rotate(-90)scale(0.16 -0.16)">
      <use xlink:href="#DejaVuSans-65"/>
      <use x="68.330078" xlink:href="#DejaVuSans-118"/>
      <use x="127.509766" xlink:href="#DejaVuSans-101"/>
      <use x="189.033203" xlink:href="#DejaVuSans-114"/>
      <use x="230.146484" xlink:href="#DejaVuSans-97"/>
      <use x="291.425781" xlink:href="#DejaVuSans-103"/>
      <use x="354.902344" xlink:href="#DejaVuSans-101"/>
      <use x="416.425781" xlink:href="#DejaVuSans-32"/>
      <use x="448.212891" xlink:href="#DejaVuSans-66"/>
      <use x="516.816406" xlink:href="#DejaVuSans-114"/>
      <use x="557.929688" xlink:href="#DejaVuSans-105"/>
      <use x="585.712891" xlink:href="#DejaVuSans-103"/>
      <use x="649.189453" xlink:href="#DejaVuSans-104"/>
      <use x="712.568359" xlink:href="#DejaVuSans-116"/>
      <use x="751.777344" xlink:href="#DejaVuSans-110"/>
      <use x="815.15625" xlink:href="#DejaVuSans-101"/>
      <use x="876.679688" xlink:href="#DejaVuSans-115"/>
      <use x="928.779297" xlink:href="#DejaVuSans-115"/>
     </g>
    </g>
   </g>
   <g id="line2d_16">
    <path clip-path="url(#p0ff12062fb)" d="M 69.218182 74.338259 
L 69.468378 78.295405 
L 69.593476 77.317411 
L 69.718574 77.2202 
L 69.843672 77.848631 
L 69.96877 77.549144 
L 70.093868 77.714107 
L 70.344065 79.642602 
L 70.469163 79.403995 
L 70.594261 79.591542 
L 70.719359 80.879824 
L 70.844457 78.391634 
L 70.969555 78.937582 
L 71.094653 80.20819 
L 71.219751 80.17775 
L 71.469947 81.132178 
L 71.720143 82.076788 
L 71.845242 81.384532 
L 71.97034 81.411044 
L 72.095438 82.619791 
L 72.220536 82.535345 
L 72.470732 81.124323 
L 72.720928 80.851349 
L 72.846026 84.613093 
L 73.096222 80.295581 
L 73.22132 82.324232 
L 73.346419 81.625103 
L 73.471517 83.040053 
L 73.596615 79.511025 
L 73.846811 83.742128 
L 73.971909 83.579129 
L 74.222105 84.439292 
L 74.347203 86.126235 
L 74.722497 83.197161 
L 74.972694 86.500347 
L 75.22289 87.008983 
L 75.347988 86.643708 
L 75.473086 85.851297 
L 75.598184 85.954398 
L 75.723282 85.894501 
L 75.84838 86.277451 
L 75.973478 85.692225 
L 76.098576 86.080085 
L 76.348773 87.800412 
L 76.473871 86.239156 
L 76.724067 89.021924 
L 76.849165 87.137615 
L 76.974263 89.195724 
L 77.099361 88.124447 
L 77.349557 88.84125 
L 77.474655 90.93078 
L 77.599753 90.696101 
L 77.724851 91.935287 
L 77.84995 88.214783 
L 78.100146 89.548234 
L 78.225244 89.844774 
L 78.350342 89.743636 
L 78.47544 92.148364 
L 78.600538 91.868516 
L 78.725636 90.911142 
L 78.850734 93.187238 
L 79.226028 90.538011 
L 79.351127 90.737342 
L 79.476225 91.473783 
L 79.601323 89.917437 
L 79.976617 92.280923 
L 80.226813 92.084539 
L 80.477009 93.88833 
L 80.602107 92.428212 
L 80.852304 95.765765 
L 80.977402 96.448201 
L 81.227598 95.482972 
L 81.352696 94.32234 
L 81.477794 94.993975 
L 81.602892 97.374154 
L 81.72799 97.049138 
L 81.853088 96.234142 
L 81.978186 97.067794 
L 82.103284 95.763802 
L 82.228382 95.959204 
L 82.353481 98.639852 
L 82.478579 98.085066 
L 82.603677 98.298143 
L 82.728775 100.18147 
L 82.853873 99.872164 
L 82.978971 100.486847 
L 83.229167 103.391373 
L 83.479363 99.986067 
L 83.604461 101.954821 
L 83.729559 100.479974 
L 83.854658 100.818737 
L 83.979756 100.68225 
L 84.104854 102.34759 
L 84.229952 101.232126 
L 84.35505 98.624141 
L 84.480148 99.781827 
L 84.605246 102.242524 
L 84.730344 101.900815 
L 84.855442 102.164953 
L 84.98054 100.987628 
L 85.105638 101.57089 
L 85.230736 99.251589 
L 85.355835 99.649268 
L 85.480933 99.054223 
L 85.606031 99.551076 
L 85.731129 102.731522 
L 85.981325 98.547551 
L 86.106423 101.150627 
L 86.231521 101.324427 
L 86.606815 99.298722 
L 86.731913 100.710726 
L 86.857012 100.407312 
L 86.98211 98.451323 
L 87.232306 99.935989 
L 87.357404 98.922645 
L 87.482502 98.85882 
L 87.6076 98.955049 
L 87.732698 98.401245 
L 87.857796 98.798923 
L 88.107992 96.839988 
L 88.23309 100.241367 
L 88.358189 100.542817 
L 88.483287 98.308944 
L 88.733483 99.898676 
L 88.858581 98.892206 
L 88.983679 99.485287 
L 89.233875 97.688369 
L 89.358973 98.246101 
L 89.484071 100.229584 
L 89.859366 97.776742 
L 89.984464 99.022801 
L 90.109562 97.248468 
L 90.23466 99.453865 
L 90.359758 98.981561 
L 90.484856 101.93911 
L 90.735052 98.116487 
L 90.985248 101.530631 
L 91.110346 102.270018 
L 91.360543 100.743129 
L 91.485641 101.686756 
L 91.610739 101.469752 
L 91.860935 99.909477 
L 91.986033 101.529649 
L 92.111131 99.150451 
L 92.361327 100.766695 
L 92.486425 99.818158 
L 92.611523 100.855068 
L 92.736621 100.569329 
L 92.86172 99.904568 
L 92.986818 101.776111 
L 93.237014 100.708762 
L 93.48721 101.878231 
L 93.612308 100.451498 
L 93.737406 101.103495 
L 93.862504 103.701661 
L 93.987602 102.757052 
L 94.1127 102.711883 
L 94.237798 100.468191 
L 94.362897 103.694787 
L 94.487995 102.820877 
L 94.613093 103.552409 
L 94.738191 101.871358 
L 94.988387 106.147629 
L 95.113485 105.287465 
L 95.238583 104.592264 
L 95.488779 105.282556 
L 95.738975 108.146823 
L 95.864074 107.852246 
L 95.989172 107.974986 
L 96.11427 108.56414 
L 96.364466 112.460407 
L 96.614662 110.634032 
L 96.864858 112.218854 
L 96.989956 112.873796 
L 97.115054 112.708833 
L 97.240152 110.803904 
L 97.365251 110.861838 
L 97.490349 110.421937 
L 97.615447 110.901115 
L 97.740545 112.11477 
L 97.990741 111.341016 
L 98.240937 112.287589 
L 98.491133 115.02617 
L 98.616231 114.939761 
L 98.866428 112.945477 
L 98.991526 114.808183 
L 99.241722 111.217294 
L 99.491918 112.1403 
L 99.742114 114.502805 
L 99.99231 116.739624 
L 100.117408 113.036795 
L 100.242506 113.420727 
L 100.367605 117.407331 
L 100.492703 117.58015 
L 100.617801 115.581938 
L 100.742899 117.55462 
L 100.993095 115.691913 
L 101.118193 115.944267 
L 101.368389 119.345646 
L 101.493487 118.825227 
L 101.868782 115.489637 
L 101.99388 115.621215 
L 102.118978 116.821124 
L 102.244076 119.670662 
L 102.369174 116.705257 
L 102.494272 118.591529 
L 102.61937 118.529668 
L 102.744468 119.380013 
L 102.869566 119.26611 
L 102.994664 118.694631 
L 103.119762 116.141634 
L 103.495057 118.860576 
L 103.620155 118.46388 
L 103.745253 120.089943 
L 103.995449 116.442102 
L 104.245645 118.155556 
L 104.370743 117.75395 
L 104.620939 121.459724 
L 104.746037 121.511766 
L 104.871136 117.668523 
L 104.996234 117.971937 
L 105.121332 118.95975 
L 105.24643 118.916546 
L 105.371528 120.657494 
L 105.496626 120.524934 
L 105.621724 119.412416 
L 105.746822 124.497792 
L 105.87192 121.579519 
L 105.997018 122.221696 
L 106.122116 122.207949 
L 106.247214 120.593669 
L 106.372313 123.371527 
L 106.497411 123.152558 
L 106.747607 119.77671 
L 106.872705 121.603085 
L 106.997803 121.445977 
L 107.247999 124.64999 
L 107.373097 121.13569 
L 107.498195 120.984474 
L 107.623293 119.526319 
L 107.87349 122.516273 
L 108.123686 123.99112 
L 108.248784 121.587374 
L 108.373882 121.396881 
L 108.49898 122.280611 
L 108.749176 126.58634 
L 108.874274 125.805712 
L 108.999372 127.069446 
L 109.249568 125.191029 
L 109.374667 128.790756 
L 109.499765 128.214367 
L 109.749961 124.746218 
L 109.875059 125.049632 
L 110.000157 128.381294 
L 110.125255 128.360674 
L 110.250353 123.90962 
L 110.750745 128.995977 
L 110.875844 129.715726 
L 111.000942 128.243825 
L 111.12604 125.190047 
L 111.501334 133.691529 
L 111.626432 130.102604 
L 111.75153 131.200393 
L 111.876628 130.987316 
L 112.126824 132.560355 
L 112.377021 131.771872 
L 112.627217 130.924473 
L 112.752315 131.698227 
L 112.877413 134.369056 
L 113.127609 133.697421 
L 113.252707 134.618464 
L 113.377805 134.206057 
L 113.502903 134.840378 
L 113.628001 134.857071 
L 113.753099 134.628283 
L 113.878198 134.731385 
L 114.003296 134.16187 
L 114.253492 137.26769 
L 114.37859 134.100991 
L 114.503688 134.959191 
L 114.628786 134.644976 
L 114.753884 138.217209 
L 115.00408 136.020649 
L 115.129178 136.147317 
L 115.379375 137.469966 
L 115.504473 138.027698 
L 115.629571 135.999047 
L 115.879767 139.756863 
L 116.004865 139.594846 
L 116.129963 139.773556 
L 116.255061 139.028277 
L 116.380159 139.197167 
L 116.505257 139.762755 
L 116.630355 141.157084 
L 116.755453 139.301251 
L 116.880552 140.68478 
L 117.00565 140.728966 
L 117.255846 140.16927 
L 117.380944 143.726775 
L 117.506042 141.955387 
L 117.756238 143.411578 
L 117.881336 141.875851 
L 118.25663 143.38212 
L 118.506827 146.281736 
L 118.631925 144.72048 
L 118.882121 146.566494 
L 119.007219 147.83121 
L 119.132317 145.561005 
L 119.257415 145.78292 
L 119.632709 150.583538 
L 119.882906 150.970415 
L 120.133102 146.137394 
L 120.2582 145.094592 
L 120.508396 149.722392 
L 120.633494 151.452539 
L 120.758592 149.603579 
L 121.008788 150.931138 
L 121.133886 150.385189 
L 121.384083 152.009289 
L 121.509181 154.281457 
L 121.759377 151.678381 
L 121.884475 151.618484 
L 122.009573 150.869277 
L 122.134671 151.782465 
L 122.384867 151.379876 
L 122.509965 153.117879 
L 122.635063 150.410719 
L 122.88526 154.169517 
L 123.010358 154.501407 
L 123.135456 152.969609 
L 123.260554 154.161662 
L 123.385652 153.701141 
L 123.51075 153.971169 
L 123.886044 158.997629 
L 124.011142 158.202272 
L 124.261338 159.858775 
L 124.386436 158.337777 
L 124.636633 161.661584 
L 124.761731 157.498234 
L 124.886829 157.13885 
L 125.011927 159.94322 
L 125.137025 159.828335 
L 125.387221 135.067202 
L 125.512319 146.169797 
L 125.637417 139.734279 
L 125.762515 125.280384 
L 125.887613 123.819283 
L 126.012712 125.518991 
L 126.13781 128.908586 
L 126.388006 158.235657 
L 126.513104 156.514348 
L 126.7633 123.891946 
L 126.888398 140.727984 
L 127.013496 137.500406 
L 127.263692 158.013743 
L 127.38879 151.338636 
L 127.513889 153.018705 
L 127.638987 152.107481 
L 127.764085 153.235709 
L 127.889183 158.341705 
L 128.264477 120.406122 
L 128.514673 157.61901 
L 128.764869 154.669316 
L 128.889967 163.865018 
L 129.015066 164.888181 
L 129.140164 163.724603 
L 129.265262 170.111025 
L 129.515458 171.259874 
L 129.640556 165.717905 
L 129.765654 165.441985 
L 129.890752 167.174095 
L 130.01585 165.30157 
L 130.140948 166.648767 
L 130.266046 164.382491 
L 130.391144 168.571371 
L 130.516243 165.614803 
L 130.766439 172.467638 
L 130.891537 170.567619 
L 131.016635 166.945308 
L 131.141733 167.777978 
L 131.266831 170.682504 
L 131.391929 166.017391 
L 131.767223 175.398676 
L 132.01742 170.304464 
L 132.142518 170.605914 
L 132.267616 173.264959 
L 132.392714 172.063086 
L 132.64291 176.93342 
L 132.893106 172.594306 
L 133.018204 173.927757 
L 133.143302 171.421891 
L 133.2684 173.885534 
L 133.393498 173.871787 
L 133.518597 174.114322 
L 133.643695 172.951726 
L 133.893891 175.529272 
L 134.018989 175.42617 
L 134.144087 173.626306 
L 134.394283 179.473653 
L 134.769577 173.164803 
L 134.894675 173.360205 
L 135.019774 179.528641 
L 135.144872 174.505127 
L 135.26997 174.528693 
L 135.395068 175.364309 
L 135.520166 174.077991 
L 135.770362 177.311461 
L 135.89546 175.024564 
L 136.020558 175.617645 
L 136.270754 173.973907 
L 136.520951 179.096595 
L 136.646049 171.518119 
L 136.771147 179.226209 
L 136.896245 176.16163 
L 137.021343 179.477581 
L 137.521735 177.591308 
L 137.646833 178.122528 
L 137.771931 179.656291 
L 137.897029 179.623887 
L 138.022128 178.3739 
L 138.147226 179.407864 
L 138.272324 181.500341 
L 138.397422 180.790411 
L 138.52252 182.781749 
L 138.647618 181.417859 
L 138.772716 182.832809 
L 138.897814 176.962878 
L 139.022912 179.245847 
L 139.14801 178.186353 
L 139.273108 178.177516 
L 139.398206 176.783186 
L 139.648403 179.173185 
L 139.773501 182.486191 
L 140.148795 180.154125 
L 140.273893 181.661376 
L 140.398991 185.626378 
L 140.524089 179.290034 
L 140.774285 183.666461 
L 140.899383 183.104802 
L 141.024482 183.499534 
L 141.274678 187.115954 
L 141.524874 182.630533 
L 141.77507 186.73595 
L 141.900168 186.769335 
L 142.025266 186.553313 
L 142.150364 188.724343 
L 142.40056 184.270343 
L 142.525659 183.687082 
L 142.775855 185.547824 
L 142.900953 184.346933 
L 143.026051 184.241868 
L 143.151149 185.026423 
L 143.276247 186.697655 
L 143.401345 183.718503 
L 143.526443 185.72948 
L 143.651541 182.850484 
L 144.026836 190.175624 
L 144.151934 186.611246 
L 144.277032 186.416825 
L 144.527228 189.013028 
L 144.652326 191.172275 
L 144.902522 187.344742 
L 145.152718 190.538935 
L 145.277816 190.767723 
L 145.402914 192.665778 
L 145.528013 191.973523 
L 145.653111 193.050692 
L 145.778209 189.904613 
L 145.903307 189.825077 
L 146.028405 189.879083 
L 146.153503 190.934649 
L 146.278601 189.577633 
L 146.403699 190.314075 
L 146.528797 189.753397 
L 146.653895 191.759464 
L 146.904091 189.209412 
L 147.02919 191.291087 
L 147.154288 195.521208 
L 147.279386 191.271449 
L 147.404484 191.131034 
L 147.529582 189.890866 
L 147.65468 190.882608 
L 147.779778 188.621241 
L 147.904876 190.887517 
L 148.029974 186.218477 
L 148.405268 193.216637 
L 148.530367 192.298539 
L 148.655465 192.997668 
L 148.780563 190.859041 
L 148.905661 193.283407 
L 149.155857 189.806421 
L 149.406053 185.063737 
L 149.531151 186.40897 
L 149.656249 190.651856 
L 149.781347 189.662078 
L 149.906445 191.589592 
L 150.031544 191.594501 
L 150.28174 190.559555 
L 150.406838 192.560713 
L 150.531936 192.414406 
L 150.657034 192.581333 
L 150.782132 187.613789 
L 150.90723 187.260297 
L 151.032328 189.396959 
L 151.157426 188.187231 
L 151.282524 190.266942 
L 151.532721 186.445301 
L 151.657819 185.533095 
L 151.782917 190.949378 
L 151.908015 188.587855 
L 152.033113 190.550718 
L 152.158211 189.323315 
L 152.283309 186.080026 
L 152.408407 187.597096 
L 152.658603 195.442654 
L 153.158996 187.082569 
L 153.284094 187.377145 
L 153.409192 187.360453 
L 153.53429 189.843734 
L 153.784486 187.938805 
L 153.909584 187.97219 
L 154.034682 189.636548 
L 154.15978 194.788694 
L 154.284878 193.266715 
L 154.409976 189.266364 
L 154.535075 189.339026 
L 154.660173 190.855114 
L 154.785271 188.382634 
L 155.035467 194.298715 
L 155.160565 191.083902 
L 155.285663 191.394189 
L 155.410761 184.853605 
L 155.660957 193.953078 
L 155.786055 192.056005 
L 156.036252 194.473497 
L 156.16135 191.712332 
L 156.286448 195.355263 
L 156.411546 195.608599 
L 156.536644 192.627483 
L 156.661742 193.333485 
L 156.78684 190.688187 
L 157.037036 193.260823 
L 157.41233 195.023374 
L 157.537429 190.405393 
L 157.787625 194.280059 
L 157.912723 191.907734 
L 158.037821 194.045379 
L 158.162919 193.748839 
L 158.288017 191.585664 
L 158.538213 194.130806 
L 158.663311 194.882959 
L 158.788409 191.508092 
L 158.913507 194.887868 
L 159.038606 194.2398 
L 159.163704 194.891796 
L 159.288802 194.702285 
L 159.4139 195.909067 
L 159.538998 198.926515 
L 159.664096 198.842069 
L 159.789194 193.265733 
L 159.914292 196.149638 
L 160.03939 193.549508 
L 160.164488 194.977223 
L 160.289586 194.802441 
L 160.414684 193.081131 
L 160.539783 197.691256 
L 160.664881 197.088356 
L 160.789979 193.883362 
L 160.915077 197.252337 
L 161.040175 195.491751 
L 161.165273 196.858586 
L 161.415469 195.267872 
L 161.540567 195.681262 
L 161.665665 197.550841 
L 161.915861 194.051271 
L 162.04096 197.585209 
L 162.166058 197.157091 
L 162.291156 192.634357 
L 162.541352 196.912592 
L 162.66645 194.743526 
L 162.791548 195.100946 
L 162.916646 196.13491 
L 163.041744 195.667515 
L 163.29194 193.440515 
L 163.542137 194.346829 
L 163.667235 193.526924 
L 163.792333 195.916923 
L 163.917431 193.675194 
L 164.042529 194.147499 
L 164.292725 197.996634 
L 164.417823 198.962846 
L 164.542921 198.259789 
L 164.668019 198.32656 
L 164.793117 199.014888 
L 164.918215 196.807526 
L 165.168412 197.370168 
L 165.29351 193.291263 
L 165.418608 196.024934 
L 165.668804 194.399853 
L 165.793902 195.232523 
L 165.919 193.033017 
L 166.044098 196.801635 
L 166.169196 195.922814 
L 166.294294 198.499378 
L 166.544491 195.018464 
L 166.794687 199.123881 
L 166.919785 195.795165 
L 167.044883 196.728973 
L 167.169981 195.314023 
L 167.420177 199.223055 
L 167.545275 199.025689 
L 167.670373 196.807526 
L 167.795471 196.595431 
L 167.920569 194.584454 
L 168.045668 197.152181 
L 168.170766 195.309113 
L 168.295864 196.535534 
L 168.420962 199.434168 
L 168.54606 198.498396 
L 168.796256 195.447564 
L 168.921354 195.052831 
L 169.17155 197.159054 
L 169.296648 193.213691 
L 169.546845 199.03649 
L 169.797041 195.56834 
L 170.047237 198.37762 
L 170.172335 197.080501 
L 170.297433 199.131736 
L 170.422531 197.620558 
L 170.547629 198.900985 
L 170.672727 196.015115 
L 170.797825 198.488577 
L 170.922923 198.614263 
L 171.048022 197.653943 
L 171.17312 199.806317 
L 171.423316 196.177132 
L 171.673512 199.7366 
L 171.79861 194.142589 
L 172.048806 198.986412 
L 172.173904 200.483843 
L 172.299002 196.447161 
L 172.4241 197.817924 
L 172.674297 195.820694 
L 172.924493 197.06479 
L 173.049591 198.214621 
L 173.299787 195.647876 
L 173.424885 195.688135 
L 173.549983 195.128439 
L 173.675081 193.162631 
L 173.800179 194.210342 
L 173.925277 193.717417 
L 174.050376 198.179272 
L 174.175474 191.96665 
L 174.300572 193.92853 
L 174.42567 191.293051 
L 174.675866 193.596641 
L 174.800964 199.253495 
L 175.176258 191.688766 
L 175.426454 194.976241 
L 175.551553 194.97035 
L 175.801749 192.343708 
L 175.926847 196.63569 
L 176.051945 194.340938 
L 176.177043 196.612124 
L 176.427239 192.800302 
L 176.552337 193.022216 
L 176.677435 195.167716 
L 176.802533 194.196595 
L 177.05273 195.403378 
L 177.177828 196.952851 
L 177.302926 192.0943 
L 177.428024 194.712104 
L 177.553122 192.091354 
L 177.803318 194.283004 
L 177.928416 192.944644 
L 178.053514 193.654574 
L 178.178612 197.100139 
L 178.30371 194.596237 
L 178.428808 194.347811 
L 178.553907 195.819713 
L 178.804103 190.953306 
L 178.929201 191.187985 
L 179.179397 190.239449 
L 179.304495 190.210973 
L 179.429593 190.421104 
L 179.554691 189.428381 
L 179.804887 190.930722 
L 179.929985 193.568165 
L 180.055084 192.972138 
L 180.180182 191.002402 
L 180.30528 192.211148 
L 180.555476 189.235924 
L 180.680574 189.019901 
L 180.805672 190.440743 
L 180.93077 188.699795 
L 181.055868 189.982185 
L 181.180966 185.575318 
L 181.556261 191.284214 
L 182.056653 186.007364 
L 182.181751 186.815486 
L 182.431947 189.995932 
L 182.557045 186.261682 
L 182.682143 187.72671 
L 182.807241 185.298416 
L 182.932339 187.381073 
L 183.182536 183.503462 
L 183.432732 184.811382 
L 183.55783 181.122301 
L 183.808026 186.892076 
L 184.058222 182.336938 
L 184.18332 178.96109 
L 184.308418 185.195314 
L 184.433516 179.682803 
L 184.558615 185.345548 
L 184.933909 181.145867 
L 185.184105 179.459906 
L 185.434301 182.979116 
L 185.559399 183.369921 
L 185.684497 181.207728 
L 185.809595 182.263294 
L 185.934693 179.44125 
L 186.059792 181.114445 
L 186.560184 176.057546 
L 186.685282 176.363906 
L 186.935478 178.280618 
L 187.060576 174.905751 
L 187.185674 179.0583 
L 187.310772 178.035137 
L 187.43587 178.32775 
L 187.560969 175.007871 
L 187.686067 174.789884 
L 188.061361 172.394976 
L 188.186459 172.665986 
L 188.311557 171.126332 
L 188.436655 172.439162 
L 188.561753 171.756726 
L 188.686851 175.955426 
L 188.937047 172.520662 
L 189.187244 166.58396 
L 189.562538 173.486873 
L 189.687636 174.101557 
L 189.812734 168.88755 
L 190.06293 169.753605 
L 190.188028 169.068223 
L 190.313126 170.818009 
L 190.438224 169.653449 
L 190.688421 165.348702 
L 190.813519 168.699021 
L 190.938617 167.407793 
L 191.063715 168.053898 
L 191.313911 161.586958 
L 191.689205 167.249703 
L 191.814303 163.367183 
L 191.939401 162.971468 
L 192.064499 161.124473 
L 192.189598 161.880553 
L 192.314696 164.246003 
L 192.815088 157.129031 
L 192.940186 162.363658 
L 193.065284 161.959107 
L 193.190382 163.018601 
L 193.440578 153.025578 
L 193.565676 154.029103 
L 193.690775 153.410492 
L 193.815873 155.671858 
L 194.191167 151.285612 
L 194.316265 149.854951 
L 194.566461 154.866682 
L 194.691559 155.982146 
L 194.816657 154.946218 
L 194.941755 155.048338 
L 195.066853 155.705244 
L 195.31705 150.719043 
L 195.442148 154.656551 
L 195.567246 148.646205 
L 195.692344 149.722392 
L 195.817442 144.624252 
L 196.067638 143.802383 
L 196.317834 135.328394 
L 196.442932 136.576417 
L 196.56803 140.459919 
L 196.943325 136.20525 
L 197.068423 135.784988 
L 197.193521 140.32736 
L 197.318619 140.178108 
L 197.568815 144.190242 
L 197.944109 135.483538 
L 198.069207 135.951914 
L 198.194306 135.644573 
L 198.319404 133.38026 
L 198.444502 128.508944 
L 198.5696 128.739696 
L 198.819796 123.013125 
L 198.944894 122.438701 
L 199.069992 120.034955 
L 199.19509 122.998396 
L 199.320188 120.232321 
L 199.445286 120.805764 
L 199.695483 124.087348 
L 199.820581 123.049456 
L 199.945679 125.601472 
L 200.070777 123.899801 
L 200.320973 124.802188 
L 200.821365 115.962924 
L 200.946463 115.419921 
L 201.19666 107.405471 
L 201.321758 106.938076 
L 201.571954 99.529473 
L 201.697052 100.720545 
L 201.82215 99.528491 
L 201.947248 102.035339 
L 202.072346 101.925364 
L 202.197444 102.877828 
L 202.322542 100.52416 
L 202.572738 107.325936 
L 203.198229 98.42972 
L 203.323327 99.744514 
L 203.698621 87.991887 
L 203.823719 88.666468 
L 204.073915 82.947753 
L 204.199014 84.340118 
L 204.44921 80.65791 
L 204.574308 80.732536 
L 204.699406 81.510218 
L 205.0747 77.238857 
L 205.199798 78.825643 
L 205.324896 78.03225 
L 205.449994 76.16267 
L 205.575092 76.058586 
L 205.700191 76.104737 
L 205.950387 69.791959 
L 206.075485 69.366786 
L 206.325681 64.196966 
L 206.700975 56.227685 
L 207.076269 52.416845 
L 207.201368 56.632237 
L 207.326466 52.514055 
L 207.451564 52.919589 
L 207.576662 52.446303 
L 207.826858 55.098474 
L 208.077054 56.831567 
L 208.827643 46.111922 
L 208.952741 45.966598 
L 209.202937 44.443636 
L 209.453133 48.393909 
L 209.578231 47.085007 
L 209.953525 53.985957 
L 210.203722 58.754171 
L 210.704114 73.371065 
L 211.204506 86.193988 
L 211.329604 86.666292 
L 211.454702 90.507572 
L 211.829997 107.824752 
L 212.080193 117.019472 
L 212.705683 152.465882 
L 213.706468 192.932861 
L 213.831566 192.774772 
L 213.956664 196.483492 
L 214.081762 196.50804 
L 214.20686 200.758781 
L 214.582154 193.055602 
L 214.707253 197.552805 
L 214.832351 193.548526 
L 214.957449 194.091529 
L 215.082547 185.303326 
L 215.207645 185.057845 
L 215.833135 162.075955 
L 216.458626 133.990034 
L 217.084116 103.707552 
L 217.334312 96.647532 
L 217.709607 83.698923 
L 218.209999 67.760362 
L 218.335097 67.078908 
L 218.585293 61.475077 
L 218.710391 60.007104 
L 219.085685 49.797076 
L 219.210784 51.945522 
L 219.335882 51.595958 
L 219.46098 48.586366 
L 219.586078 50.599307 
L 219.711176 50.430416 
L 219.836274 46.861129 
L 219.961372 46.970122 
L 220.08647 47.826358 
L 220.211568 47.608372 
L 220.336666 47.791991 
L 220.586862 50.203592 
L 221.087255 52.724187 
L 221.212353 54.809789 
L 221.462549 61.886503 
L 222.088039 81.353111 
L 222.963726 133.387134 
L 223.464118 166.88541 
L 223.839413 187.452753 
L 224.089609 194.937946 
L 224.214707 194.739598 
L 224.339805 197.59601 
L 224.464903 197.57539 
L 224.715099 192.123757 
L 225.215492 164.903891 
L 226.216276 99.012982 
L 226.466472 84.679863 
L 227.091963 59.319758 
L 227.842551 49.027249 
L 227.967649 48.576547 
L 228.217846 51.547844 
L 228.342944 48.621715 
L 228.718238 55.359666 
L 228.968434 59.570148 
L 230.094317 119.777692 
L 230.344513 140.117229 
L 231.345298 194.269257 
L 231.470396 194.659081 
L 231.595494 192.529291 
L 231.720592 193.404184 
L 231.84569 191.765356 
L 232.220984 177.381177 
L 232.596278 156.044007 
L 232.721377 152.50025 
L 233.597063 89.562963 
L 233.847259 77.128882 
L 234.097455 67.232087 
L 234.597848 53.884819 
L 235.09824 47.918659 
L 235.223338 49.12446 
L 235.348436 48.495047 
L 235.473534 49.80395 
L 235.598632 49.229525 
L 235.848829 51.767794 
L 236.224123 70.20142 
L 236.349221 67.832042 
L 236.474319 69.17433 
L 236.724515 85.673569 
L 236.974711 88.173543 
L 237.475104 121.1406 
L 237.600202 120.443435 
L 237.850398 142.840099 
L 237.975496 141.543962 
L 238.100594 159.925546 
L 238.225692 161.864842 
L 238.726085 188.589819 
L 238.851183 188.893233 
L 238.976281 180.246426 
L 239.101379 180.786483 
L 239.226477 188.285423 
L 239.351575 186.881275 
L 239.476673 183.898195 
L 239.726869 174.466832 
L 239.977065 160.173972 
L 240.227262 142.937309 
L 241.478242 60.220181 
L 241.853537 50.236978 
L 241.978635 50.278218 
L 242.228831 48.990918 
L 242.479027 49.306115 
L 242.604125 51.756993 
L 243.354714 104.99878 
L 244.2304 191.579772 
L 244.355498 193.635918 
L 244.480596 193.315811 
L 244.605694 195.130403 
L 244.730793 189.38714 
L 245.981773 77.360615 
L 246.23197 66.10975 
L 246.482166 56.800146 
L 246.732362 48.79748 
L 247.107656 49.687101 
L 247.232754 50.436308 
L 247.608048 63.731535 
L 248.108441 106.616988 
L 248.859029 185.990671 
L 249.109225 195.129421 
L 249.234324 195.242342 
L 249.48452 185.592993 
L 250.985697 60.40871 
L 251.235893 54.213763 
L 251.360991 53.260316 
L 251.611187 48.485228 
L 251.736285 48.097369 
L 251.861383 50.610108 
L 252.486874 79.047558 
L 253.737855 188.684084 
L 253.862953 191.705458 
L 253.988051 191.902825 
L 254.238247 186.734968 
L 254.613541 156.726443 
L 254.988835 121.701277 
L 255.489228 78.521247 
L 255.614326 74.019134 
L 255.98962 55.127932 
L 256.239816 48.800425 
L 256.364914 48.040417 
L 256.490012 48.049255 
L 256.61511 47.707546 
L 257.240601 64.145906 
L 257.991189 123.795717 
L 258.366484 161.3837 
L 258.61668 182.152337 
L 258.991974 197.086392 
L 259.24217 190.806018 
L 259.742562 152.419732 
L 260.493151 84.076963 
L 261.368838 50.160388 
L 261.493936 49.435729 
L 261.619034 45.571865 
L 261.744132 45.836002 
L 261.86923 46.599938 
L 262.119426 49.881522 
L 262.744916 82.627646 
L 263.120211 112.396582 
L 263.745701 173.700933 
L 264.246093 195.437745 
L 264.371192 193.842121 
L 264.49629 195.319914 
L 264.621388 191.577809 
L 265.12178 152.665213 
L 265.497074 118.845847 
L 265.997467 77.803462 
L 266.497859 57.678966 
L 266.998251 47.251934 
L 267.123349 47.431626 
L 267.248447 47.368783 
L 267.74884 57.894989 
L 268.124134 70.344781 
L 268.624526 110.818633 
L 268.874723 130.416819 
L 269.375115 174.928335 
L 269.750409 195.49666 
L 269.875507 195.723484 
L 270.250801 187.850432 
L 270.751194 155.212319 
L 271.376684 102.686353 
L 271.877077 69.03686 
L 272.127273 59.036964 
L 272.502567 50.075942 
L 272.627665 49.643896 
L 272.752763 47.610336 
L 272.877861 47.496433 
L 273.002959 45.427522 
L 273.128057 45.306746 
L 273.253155 48.187706 
L 273.878646 71.657611 
L 274.003744 75.384006 
L 274.379038 103.183206 
L 275.630019 195.679298 
L 275.880215 175.792427 
L 276.005313 178.369973 
L 276.130411 179.971488 
L 276.255509 147.453169 
L 276.380608 147.267586 
L 276.505706 153.568581 
L 277.006098 131.787582 
L 277.381392 101.763346 
L 277.756686 78.729415 
L 278.006883 69.052571 
L 278.257079 60.09744 
L 278.382177 58.491016 
L 278.507275 60.496101 
L 278.882569 52.946101 
L 279.007667 55.036613 
L 279.132765 51.513476 
L 279.257863 57.292089 
L 279.382962 55.700393 
L 279.883354 67.63173 
L 280.383746 93.541712 
L 281.759825 196.049482 
L 281.884923 193.313847 
L 282.010021 194.520629 
L 282.260217 189.269309 
L 282.385316 184.431379 
L 283.3861 114.27009 
L 284.261787 65.106226 
L 284.762179 50.536464 
L 285.012375 49.56927 
L 285.137473 50.967528 
L 285.38767 49.406271 
L 285.512768 50.515843 
L 285.637866 54.709633 
L 285.762964 54.296244 
L 286.63865 99.999814 
L 286.763748 111.783863 
L 286.888847 107.801186 
L 287.389239 129.515414 
L 287.639435 156.365096 
L 287.764533 156.542824 
L 287.889631 178.308112 
L 288.014729 172.399886 
L 288.139827 178.628218 
L 288.264925 190.67444 
L 289.390808 126.859315 
L 289.641004 110.376768 
L 290.141397 78.610602 
L 290.766887 55.674863 
L 290.891985 54.41702 
L 291.017083 51.488928 
L 291.142181 51.495802 
L 291.392378 48.16414 
L 291.642574 50.17708 
L 291.767672 50.38132 
L 292.268064 62.457 
L 292.643358 79.485495 
L 293.018653 106.428459 
L 293.143751 112.169758 
L 293.769241 163.083407 
L 293.894339 164.926475 
L 294.51983 198.736022 
L 294.644928 191.682874 
L 294.770026 193.02418 
L 295.14532 182.146446 
L 295.395516 166.329642 
L 296.771595 78.649879 
L 297.146889 64.283375 
L 297.397086 57.211571 
L 297.522184 56.2866 
L 297.77238 49.382705 
L 297.897478 50.138785 
L 298.022576 53.424297 
L 298.147674 49.916871 
L 298.272772 49.606583 
L 298.39787 49.735215 
L 298.648066 53.912312 
L 298.898263 58.446829 
L 299.148459 66.823608 
L 299.273557 69.570044 
L 299.773949 99.712111 
L 299.899047 103.80869 
L 300.274341 136.71094 
L 300.524538 150.550152 
L 300.899832 177.125877 
L 301.400224 195.80793 
L 301.525322 199.150393 
L 301.65042 196.100542 
L 301.775518 197.451667 
L 301.900617 190.261051 
L 302.025715 190.793253 
L 302.526107 162.947902 
L 302.651205 159.291224 
L 303.401794 108.86559 
L 304.402578 65.529434 
L 304.902971 52.331418 
L 305.153167 49.375832 
L 305.278265 50.026846 
L 305.403363 49.178465 
L 305.528461 50.41176 
L 305.653559 50.349899 
L 305.778657 50.094599 
L 305.903755 50.20261 
L 306.529246 60.30659 
L 307.029638 81.429701 
L 307.154736 86.207734 
L 307.404932 102.561649 
L 308.405717 167.322366 
L 308.655913 184.261506 
L 308.781011 186.292121 
L 309.031207 194.223107 
L 309.156305 195.013554 
L 309.281403 189.220213 
L 309.406502 189.299749 
L 309.656698 184.271325 
L 309.781796 183.449456 
L 310.15709 159.574999 
L 310.407286 144.103833 
L 311.157875 93.361038 
L 311.408071 82.817157 
L 311.533169 79.237069 
L 311.783365 69.448286 
L 312.158659 56.789345 
L 312.283757 56.147167 
L 312.78415 46.909243 
L 312.909248 47.401186 
L 313.034346 49.04787 
L 313.284542 48.992882 
L 313.40964 50.113255 
L 313.534738 52.449248 
L 313.784934 58.331944 
L 314.035131 62.950906 
L 314.410425 81.964848 
L 314.660621 91.233212 
L 314.910817 107.513483 
L 315.161013 120.305966 
L 315.286111 125.621111 
L 315.661406 155.518679 
L 315.786504 160.730722 
L 316.0367 175.628446 
L 316.286896 186.671143 
L 316.537092 195.587979 
L 316.66219 195.141204 
L 316.787288 195.645912 
L 317.037485 194.527503 
L 317.162583 193.619225 
L 319.414348 71.547636 
L 319.789642 65.733674 
L 320.164937 54.883433 
L 320.290035 54.912891 
L 320.415133 50.934142 
L 320.540231 52.359893 
L 320.790427 47.148832 
L 320.915525 47.586769 
L 321.040623 47.481704 
L 321.666114 52.937264 
L 322.166506 68.613652 
L 322.291604 69.768393 
L 324.54337 190.554646 
L 325.043762 199.549053 
L 325.293958 190.837439 
L 325.669252 181.204782 
L 326.544939 132.01637 
L 326.795135 117.829558 
L 327.170429 96.023029 
L 327.295527 93.159744 
L 327.79592 71.735183 
L 328.546508 52.324544 
L 328.796704 51.748156 
L 328.921802 50.388194 
L 329.046901 50.550211 
L 329.171999 47.656486 
L 329.297097 51.666656 
L 329.422195 49.924726 
L 329.547293 50.018991 
L 329.672391 49.804932 
L 330.047685 54.655628 
L 330.172783 57.751628 
L 330.297881 57.301908 
L 330.422979 59.188181 
L 330.798274 71.740092 
L 330.923372 73.581197 
L 332.549647 144.255049 
L 333.175137 170.398728 
L 333.550432 184.48833 
L 333.67553 186.822359 
L 333.800628 192.19642 
L 333.925726 191.265557 
L 334.050824 191.668145 
L 334.175922 197.504691 
L 334.30102 195.42007 
L 334.551216 197.067736 
L 334.801412 192.99865 
L 334.92651 189.36161 
L 335.051609 190.202136 
L 335.426903 183.473022 
L 335.552001 175.611753 
L 335.677099 175.796355 
L 335.927295 162.688675 
L 336.052393 164.848904 
L 336.177491 163.73344 
L 336.552786 150.453924 
L 336.677884 149.579031 
L 337.053178 132.674258 
L 337.303374 128.125994 
L 337.928864 106.762312 
L 338.053963 105.261935 
L 338.179061 102.081489 
L 338.304159 101.931255 
L 338.554355 93.88342 
L 338.804551 85.258216 
L 338.929649 86.233264 
L 339.054747 84.510973 
L 339.179845 80.312273 
L 339.304943 84.509991 
L 339.680238 73.43489 
L 339.805336 72.374414 
L 339.930434 72.395034 
L 340.305728 65.442043 
L 340.681022 60.808352 
L 341.056317 57.663255 
L 341.181415 57.161493 
L 341.431611 55.290931 
L 341.556709 56.108872 
L 341.932003 53.60988 
L 342.057101 51.966143 
L 342.182199 52.145834 
L 342.307297 53.314322 
L 342.557494 49.738161 
L 342.682592 49.839299 
L 342.80769 49.762709 
L 343.057886 50.090671 
L 343.182984 49.820642 
L 343.308082 47.334415 
L 343.43318 47.17338 
L 343.558278 48.530397 
L 343.808474 47.204802 
L 343.933572 48.292771 
L 344.058671 48.090496 
L 344.308867 48.913346 
L 344.433965 48.900581 
L 344.559063 48.592258 
L 344.934357 51.213008 
L 345.184553 52.462995 
L 345.309651 51.379935 
L 345.434749 51.351459 
L 345.684946 52.691783 
L 345.810044 52.499326 
L 346.06024 54.202961 
L 346.185338 54.918783 
L 346.435534 52.573952 
L 346.560632 53.9673 
L 346.810828 60.380234 
L 347.061025 58.762026 
L 347.436319 63.630397 
L 348.437103 93.082172 
L 348.562202 94.36358 
L 348.812398 104.313398 
L 349.187692 109.093396 
L 349.31279 116.317398 
L 349.437888 115.898117 
L 349.688084 124.255257 
L 349.813182 112.289553 
L 350.063379 133.250646 
L 350.188477 134.751024 
L 350.438673 141.51745 
L 351.439457 165.427256 
L 351.564556 164.512104 
L 351.689654 165.183739 
L 351.814752 171.679155 
L 351.93985 171.546595 
L 352.064948 177.287894 
L 352.315144 144.545698 
L 352.440242 178.91494 
L 352.56534 176.703651 
L 352.690438 177.180865 
L 352.815536 180.815941 
L 353.065733 178.88941 
L 353.315929 181.287264 
L 353.816321 186.772281 
L 353.941419 186.013255 
L 354.066517 162.992089 
L 354.316713 192.334871 
L 354.441811 187.964335 
L 354.56691 188.510284 
L 354.692008 186.8636 
L 355.067302 192.004945 
L 355.1924 191.795795 
L 355.317498 192.031457 
L 355.442596 187.502831 
L 355.567694 77.279116 
L 355.692792 85.737394 
L 355.942988 134.295412 
L 356.068087 49.410199 
L 356.193185 68.822801 
L 356.318283 57.958814 
L 356.443381 58.981977 
L 356.568479 177.799476 
L 356.818675 149.079233 
L 356.943773 142.6771 
L 357.068871 146.617554 
L 357.319067 178.135293 
L 357.444165 191.980397 
L 357.569264 193.288317 
L 358.069656 97.596068 
L 358.319852 69.068282 
L 358.44495 53.247551 
L 358.570048 53.06295 
L 358.695146 54.252057 
L 358.820244 51.465362 
L 359.070441 58.427191 
L 359.195539 55.821169 
L 359.320637 56.319004 
L 359.445735 56.10789 
L 359.570833 56.123601 
L 359.695931 56.821748 
L 359.946127 62.338187 
L 360.071225 62.358807 
L 360.446519 66.132335 
L 360.571618 65.861324 
L 360.696716 66.03807 
L 360.946912 69.429629 
L 361.07201 66.920818 
L 361.197108 74.619088 
L 361.322206 69.800796 
L 361.447304 70.564731 
L 361.572402 74.558209 
L 361.6975 69.62405 
L 361.822598 77.307591 
L 361.947696 71.581021 
L 362.072795 75.599047 
L 362.322991 72.596329 
L 362.448089 76.529909 
L 362.698285 69.956922 
L 362.823383 75.090411 
L 362.948481 72.206505 
L 363.198677 75.275994 
L 363.949266 72.057253 
L 364.074364 72.016994 
L 364.449658 70.00209 
L 364.574756 66.949294 
L 364.699854 68.648019 
L 364.824952 67.653332 
L 364.95005 70.334962 
L 365.200247 66.788259 
L 365.325345 65.760186 
L 365.450443 66.894306 
L 365.575541 66.859939 
L 365.825737 64.868601 
L 365.950835 62.182061 
L 366.075933 61.906141 
L 366.451227 68.317111 
L 366.701424 61.559523 
L 366.826522 64.252935 
L 366.95162 61.105875 
L 367.201816 63.291634 
L 367.452012 59.479811 
L 367.57711 60.407728 
L 367.702208 59.404203 
L 367.827306 60.114133 
L 367.952404 57.341185 
L 368.077503 58.150289 
L 368.202601 57.343149 
L 368.452797 58.020675 
L 368.577895 57.040717 
L 368.702993 57.630852 
L 368.828091 55.63264 
L 368.953189 57.893025 
L 369.078287 57.426612 
L 369.203385 56.039156 
L 369.328483 56.195282 
L 369.453581 57.212553 
L 369.57868 56.311148 
L 369.703778 57.028934 
L 369.828876 56.801128 
L 369.953974 56.827639 
L 370.079072 54.416038 
L 370.20417 56.473166 
L 370.329268 68.635254 
L 370.579464 226.91228 
L 370.82966 226.38106 
L 370.954758 231.572483 
L 371.204955 229.731379 
L 371.580249 238.878966 
L 371.705347 240.271332 
L 371.955543 238.596172 
L 372.205739 241.475168 
L 372.330837 239.123465 
L 372.455935 239.086152 
L 372.581034 239.681197 
L 372.706132 241.632276 
L 373.081426 240.260531 
L 373.331622 242.116364 
L 373.45672 240.240892 
L 373.581818 240.409783 
L 373.581818 240.409783 
" style="fill:none;stroke:#1f77b4;stroke-linecap:square;stroke-width:1.5;"/>
   </g>
   <g id="patch_3">
    <path d="M 54 252 
L 54 34.56 
" style="fill:none;stroke:#000000;stroke-linecap:square;stroke-linejoin:miter;stroke-width:0.8;"/>
   </g>
   <g id="patch_4">
    <path d="M 388.8 252 
L 388.8 34.56 
" style="fill:none;stroke:#000000;stroke-linecap:square;stroke-linejoin:miter;stroke-width:0.8;"/>
   </g>
   <g id="patch_5">
    <path d="M 54 252 
L 388.8 252 
" style="fill:none;stroke:#000000;stroke-linecap:square;stroke-linejoin:miter;stroke-width:0.8;"/>
   </g>
   <g id="patch_6">
    <path d="M 54 34.56 
L 388.8 34.56 
" style="fill:none;stroke:#000000;stroke-linecap:square;stroke-linejoin:miter;stroke-width:0.8;"/>
   </g>
  </g>
 </g>
 <defs>
  <clipPath id="p0ff12062fb">
   <rect height="217.44" width="334.8" x="54" y="34.56"/>
  </clipPath>
 </defs>
</svg>
