<?xml version="1.0" encoding="utf-8" standalone="no"?>
<!DOCTYPE svg PUBLIC "-//W3C//DTD SVG 1.1//EN"
  "http://www.w3.org/Graphics/SVG/1.1/DTD/svg11.dtd">
<!-- Created with matplotlib (https://matplotlib.org/) -->
<svg height="288pt" version="1.1" viewBox="0 0 432 288" width="432pt" xmlns="http://www.w3.org/2000/svg" xmlns:xlink="http://www.w3.org/1999/xlink">
 <defs>
  <style type="text/css">
*{stroke-linecap:butt;stroke-linejoin:round;}
  </style>
 </defs>
 <g id="figure_1">
  <g id="patch_1">
   <path d="M 0 288 
L 432 288 
L 432 0 
L 0 0 
z
" style="fill:#ffffff;"/>
  </g>
  <g id="axes_1">
   <g id="patch_2">
    <path d="M 54 252 
L 388.8 252 
L 388.8 34.56 
L 54 34.56 
z
" style="fill:#ffffff;"/>
   </g>
   <g id="matplotlib.axis_1">
    <g id="xtick_1">
     <g id="line2d_1">
      <defs>
       <path d="M 0 0 
L 0 3.5 
" id="mc42e24d402" style="stroke:#000000;stroke-width:0.8;"/>
      </defs>
      <g>
       <use style="stroke:#000000;stroke-width:0.8;" x="69.218182" xlink:href="#mc42e24d402" y="252"/>
      </g>
     </g>
     <g id="text_1">
      <!-- 0 -->
      <defs>
       <path d="M 31.78125 66.40625 
Q 24.171875 66.40625 20.328125 58.90625 
Q 16.5 51.421875 16.5 36.375 
Q 16.5 21.390625 20.328125 13.890625 
Q 24.171875 6.390625 31.78125 6.390625 
Q 39.453125 6.390625 43.28125 13.890625 
Q 47.125 21.390625 47.125 36.375 
Q 47.125 51.421875 43.28125 58.90625 
Q 39.453125 66.40625 31.78125 66.40625 
z
M 31.78125 74.21875 
Q 44.046875 74.21875 50.515625 64.515625 
Q 56.984375 54.828125 56.984375 36.375 
Q 56.984375 17.96875 50.515625 8.265625 
Q 44.046875 -1.421875 31.78125 -1.421875 
Q 19.53125 -1.421875 13.0625 8.265625 
Q 6.59375 17.96875 6.59375 36.375 
Q 6.59375 54.828125 13.0625 64.515625 
Q 19.53125 74.21875 31.78125 74.21875 
z
" id="DejaVuSans-48"/>
      </defs>
      <g transform="translate(66.036932 266.598437)scale(0.1 -0.1)">
       <use xlink:href="#DejaVuSans-48"/>
      </g>
     </g>
    </g>
    <g id="xtick_2">
     <g id="line2d_2">
      <g>
       <use style="stroke:#000000;stroke-width:0.8;" x="143.200592" xlink:href="#mc42e24d402" y="252"/>
      </g>
     </g>
     <g id="text_2">
      <!-- 1000 -->
      <defs>
       <path d="M 12.40625 8.296875 
L 28.515625 8.296875 
L 28.515625 63.921875 
L 10.984375 60.40625 
L 10.984375 69.390625 
L 28.421875 72.90625 
L 38.28125 72.90625 
L 38.28125 8.296875 
L 54.390625 8.296875 
L 54.390625 0 
L 12.40625 0 
z
" id="DejaVuSans-49"/>
      </defs>
      <g transform="translate(130.475592 266.598437)scale(0.1 -0.1)">
       <use xlink:href="#DejaVuSans-49"/>
       <use x="63.623047" xlink:href="#DejaVuSans-48"/>
       <use x="127.246094" xlink:href="#DejaVuSans-48"/>
       <use x="190.869141" xlink:href="#DejaVuSans-48"/>
      </g>
     </g>
    </g>
    <g id="xtick_3">
     <g id="line2d_3">
      <g>
       <use style="stroke:#000000;stroke-width:0.8;" x="217.183003" xlink:href="#mc42e24d402" y="252"/>
      </g>
     </g>
     <g id="text_3">
      <!-- 2000 -->
      <defs>
       <path d="M 19.1875 8.296875 
L 53.609375 8.296875 
L 53.609375 0 
L 7.328125 0 
L 7.328125 8.296875 
Q 12.9375 14.109375 22.625 23.890625 
Q 32.328125 33.6875 34.8125 36.53125 
Q 39.546875 41.84375 41.421875 45.53125 
Q 43.3125 49.21875 43.3125 52.78125 
Q 43.3125 58.59375 39.234375 62.25 
Q 35.15625 65.921875 28.609375 65.921875 
Q 23.96875 65.921875 18.8125 64.3125 
Q 13.671875 62.703125 7.8125 59.421875 
L 7.8125 69.390625 
Q 13.765625 71.78125 18.9375 73 
Q 24.125 74.21875 28.421875 74.21875 
Q 39.75 74.21875 46.484375 68.546875 
Q 53.21875 62.890625 53.21875 53.421875 
Q 53.21875 48.921875 51.53125 44.890625 
Q 49.859375 40.875 45.40625 35.40625 
Q 44.1875 33.984375 37.640625 27.21875 
Q 31.109375 20.453125 19.1875 8.296875 
z
" id="DejaVuSans-50"/>
      </defs>
      <g transform="translate(204.458003 266.598437)scale(0.1 -0.1)">
       <use xlink:href="#DejaVuSans-50"/>
       <use x="63.623047" xlink:href="#DejaVuSans-48"/>
       <use x="127.246094" xlink:href="#DejaVuSans-48"/>
       <use x="190.869141" xlink:href="#DejaVuSans-48"/>
      </g>
     </g>
    </g>
    <g id="xtick_4">
     <g id="line2d_4">
      <g>
       <use style="stroke:#000000;stroke-width:0.8;" x="291.165413" xlink:href="#mc42e24d402" y="252"/>
      </g>
     </g>
     <g id="text_4">
      <!-- 3000 -->
      <defs>
       <path d="M 40.578125 39.3125 
Q 47.65625 37.796875 51.625 33 
Q 55.609375 28.21875 55.609375 21.1875 
Q 55.609375 10.40625 48.1875 4.484375 
Q 40.765625 -1.421875 27.09375 -1.421875 
Q 22.515625 -1.421875 17.65625 -0.515625 
Q 12.796875 0.390625 7.625 2.203125 
L 7.625 11.71875 
Q 11.71875 9.328125 16.59375 8.109375 
Q 21.484375 6.890625 26.8125 6.890625 
Q 36.078125 6.890625 40.9375 10.546875 
Q 45.796875 14.203125 45.796875 21.1875 
Q 45.796875 27.640625 41.28125 31.265625 
Q 36.765625 34.90625 28.71875 34.90625 
L 20.21875 34.90625 
L 20.21875 43.015625 
L 29.109375 43.015625 
Q 36.375 43.015625 40.234375 45.921875 
Q 44.09375 48.828125 44.09375 54.296875 
Q 44.09375 59.90625 40.109375 62.90625 
Q 36.140625 65.921875 28.71875 65.921875 
Q 24.65625 65.921875 20.015625 65.03125 
Q 15.375 64.15625 9.8125 62.3125 
L 9.8125 71.09375 
Q 15.4375 72.65625 20.34375 73.4375 
Q 25.25 74.21875 29.59375 74.21875 
Q 40.828125 74.21875 47.359375 69.109375 
Q 53.90625 64.015625 53.90625 55.328125 
Q 53.90625 49.265625 50.4375 45.09375 
Q 46.96875 40.921875 40.578125 39.3125 
z
" id="DejaVuSans-51"/>
      </defs>
      <g transform="translate(278.440413 266.598437)scale(0.1 -0.1)">
       <use xlink:href="#DejaVuSans-51"/>
       <use x="63.623047" xlink:href="#DejaVuSans-48"/>
       <use x="127.246094" xlink:href="#DejaVuSans-48"/>
       <use x="190.869141" xlink:href="#DejaVuSans-48"/>
      </g>
     </g>
    </g>
    <g id="xtick_5">
     <g id="line2d_5">
      <g>
       <use style="stroke:#000000;stroke-width:0.8;" x="365.147823" xlink:href="#mc42e24d402" y="252"/>
      </g>
     </g>
     <g id="text_5">
      <!-- 4000 -->
      <defs>
       <path d="M 37.796875 64.3125 
L 12.890625 25.390625 
L 37.796875 25.390625 
z
M 35.203125 72.90625 
L 47.609375 72.90625 
L 47.609375 25.390625 
L 58.015625 25.390625 
L 58.015625 17.1875 
L 47.609375 17.1875 
L 47.609375 0 
L 37.796875 0 
L 37.796875 17.1875 
L 4.890625 17.1875 
L 4.890625 26.703125 
z
" id="DejaVuSans-52"/>
      </defs>
      <g transform="translate(352.422823 266.598437)scale(0.1 -0.1)">
       <use xlink:href="#DejaVuSans-52"/>
       <use x="63.623047" xlink:href="#DejaVuSans-48"/>
       <use x="127.246094" xlink:href="#DejaVuSans-48"/>
       <use x="190.869141" xlink:href="#DejaVuSans-48"/>
      </g>
     </g>
    </g>
    <g id="text_6">
     <!-- Frames -->
     <defs>
      <path d="M 9.8125 72.90625 
L 51.703125 72.90625 
L 51.703125 64.59375 
L 19.671875 64.59375 
L 19.671875 43.109375 
L 48.578125 43.109375 
L 48.578125 34.8125 
L 19.671875 34.8125 
L 19.671875 0 
L 9.8125 0 
z
" id="DejaVuSans-70"/>
      <path d="M 41.109375 46.296875 
Q 39.59375 47.171875 37.8125 47.578125 
Q 36.03125 48 33.890625 48 
Q 26.265625 48 22.1875 43.046875 
Q 18.109375 38.09375 18.109375 28.8125 
L 18.109375 0 
L 9.078125 0 
L 9.078125 54.6875 
L 18.109375 54.6875 
L 18.109375 46.1875 
Q 20.953125 51.171875 25.484375 53.578125 
Q 30.03125 56 36.53125 56 
Q 37.453125 56 38.578125 55.875 
Q 39.703125 55.765625 41.0625 55.515625 
z
" id="DejaVuSans-114"/>
      <path d="M 34.28125 27.484375 
Q 23.390625 27.484375 19.1875 25 
Q 14.984375 22.515625 14.984375 16.5 
Q 14.984375 11.71875 18.140625 8.90625 
Q 21.296875 6.109375 26.703125 6.109375 
Q 34.1875 6.109375 38.703125 11.40625 
Q 43.21875 16.703125 43.21875 25.484375 
L 43.21875 27.484375 
z
M 52.203125 31.203125 
L 52.203125 0 
L 43.21875 0 
L 43.21875 8.296875 
Q 40.140625 3.328125 35.546875 0.953125 
Q 30.953125 -1.421875 24.3125 -1.421875 
Q 15.921875 -1.421875 10.953125 3.296875 
Q 6 8.015625 6 15.921875 
Q 6 25.140625 12.171875 29.828125 
Q 18.359375 34.515625 30.609375 34.515625 
L 43.21875 34.515625 
L 43.21875 35.40625 
Q 43.21875 41.609375 39.140625 45 
Q 35.0625 48.390625 27.6875 48.390625 
Q 23 48.390625 18.546875 47.265625 
Q 14.109375 46.140625 10.015625 43.890625 
L 10.015625 52.203125 
Q 14.9375 54.109375 19.578125 55.046875 
Q 24.21875 56 28.609375 56 
Q 40.484375 56 46.34375 49.84375 
Q 52.203125 43.703125 52.203125 31.203125 
z
" id="DejaVuSans-97"/>
      <path d="M 52 44.1875 
Q 55.375 50.25 60.0625 53.125 
Q 64.75 56 71.09375 56 
Q 79.640625 56 84.28125 50.015625 
Q 88.921875 44.046875 88.921875 33.015625 
L 88.921875 0 
L 79.890625 0 
L 79.890625 32.71875 
Q 79.890625 40.578125 77.09375 44.375 
Q 74.3125 48.1875 68.609375 48.1875 
Q 61.625 48.1875 57.5625 43.546875 
Q 53.515625 38.921875 53.515625 30.90625 
L 53.515625 0 
L 44.484375 0 
L 44.484375 32.71875 
Q 44.484375 40.625 41.703125 44.40625 
Q 38.921875 48.1875 33.109375 48.1875 
Q 26.21875 48.1875 22.15625 43.53125 
Q 18.109375 38.875 18.109375 30.90625 
L 18.109375 0 
L 9.078125 0 
L 9.078125 54.6875 
L 18.109375 54.6875 
L 18.109375 46.1875 
Q 21.1875 51.21875 25.484375 53.609375 
Q 29.78125 56 35.6875 56 
Q 41.65625 56 45.828125 52.96875 
Q 50 49.953125 52 44.1875 
z
" id="DejaVuSans-109"/>
      <path d="M 56.203125 29.59375 
L 56.203125 25.203125 
L 14.890625 25.203125 
Q 15.484375 15.921875 20.484375 11.0625 
Q 25.484375 6.203125 34.421875 6.203125 
Q 39.59375 6.203125 44.453125 7.46875 
Q 49.3125 8.734375 54.109375 11.28125 
L 54.109375 2.78125 
Q 49.265625 0.734375 44.1875 -0.34375 
Q 39.109375 -1.421875 33.890625 -1.421875 
Q 20.796875 -1.421875 13.15625 6.1875 
Q 5.515625 13.8125 5.515625 26.8125 
Q 5.515625 40.234375 12.765625 48.109375 
Q 20.015625 56 32.328125 56 
Q 43.359375 56 49.78125 48.890625 
Q 56.203125 41.796875 56.203125 29.59375 
z
M 47.21875 32.234375 
Q 47.125 39.59375 43.09375 43.984375 
Q 39.0625 48.390625 32.421875 48.390625 
Q 24.90625 48.390625 20.390625 44.140625 
Q 15.875 39.890625 15.1875 32.171875 
z
" id="DejaVuSans-101"/>
      <path d="M 44.28125 53.078125 
L 44.28125 44.578125 
Q 40.484375 46.53125 36.375 47.5 
Q 32.28125 48.484375 27.875 48.484375 
Q 21.1875 48.484375 17.84375 46.4375 
Q 14.5 44.390625 14.5 40.28125 
Q 14.5 37.15625 16.890625 35.375 
Q 19.28125 33.59375 26.515625 31.984375 
L 29.59375 31.296875 
Q 39.15625 29.25 43.1875 25.515625 
Q 47.21875 21.78125 47.21875 15.09375 
Q 47.21875 7.46875 41.1875 3.015625 
Q 35.15625 -1.421875 24.609375 -1.421875 
Q 20.21875 -1.421875 15.453125 -0.5625 
Q 10.6875 0.296875 5.421875 2 
L 5.421875 11.28125 
Q 10.40625 8.6875 15.234375 7.390625 
Q 20.0625 6.109375 24.8125 6.109375 
Q 31.15625 6.109375 34.5625 8.28125 
Q 37.984375 10.453125 37.984375 14.40625 
Q 37.984375 18.0625 35.515625 20.015625 
Q 33.0625 21.96875 24.703125 23.78125 
L 21.578125 24.515625 
Q 13.234375 26.265625 9.515625 29.90625 
Q 5.8125 33.546875 5.8125 39.890625 
Q 5.8125 47.609375 11.28125 51.796875 
Q 16.75 56 26.8125 56 
Q 31.78125 56 36.171875 55.265625 
Q 40.578125 54.546875 44.28125 53.078125 
z
" id="DejaVuSans-115"/>
     </defs>
     <g transform="translate(191.73375 284.835625)scale(0.16 -0.16)">
      <use xlink:href="#DejaVuSans-70"/>
      <use x="57.410156" xlink:href="#DejaVuSans-114"/>
      <use x="98.523438" xlink:href="#DejaVuSans-97"/>
      <use x="159.802734" xlink:href="#DejaVuSans-109"/>
      <use x="257.214844" xlink:href="#DejaVuSans-101"/>
      <use x="318.738281" xlink:href="#DejaVuSans-115"/>
     </g>
    </g>
   </g>
   <g id="matplotlib.axis_2">
    <g id="ytick_1">
     <g id="line2d_6">
      <defs>
       <path d="M 0 0 
L -3.5 0 
" id="m3e7f91390f" style="stroke:#000000;stroke-width:0.8;"/>
      </defs>
      <g>
       <use style="stroke:#000000;stroke-width:0.8;" x="54" xlink:href="#m3e7f91390f" y="245.815651"/>
      </g>
     </g>
     <g id="text_7">
      <!-- 0 -->
      <g transform="translate(40.6375 249.614869)scale(0.1 -0.1)">
       <use xlink:href="#DejaVuSans-48"/>
      </g>
     </g>
    </g>
    <g id="ytick_2">
     <g id="line2d_7">
      <g>
       <use style="stroke:#000000;stroke-width:0.8;" x="54" xlink:href="#m3e7f91390f" y="221.178151"/>
      </g>
     </g>
     <g id="text_8">
      <!-- 5 -->
      <defs>
       <path d="M 10.796875 72.90625 
L 49.515625 72.90625 
L 49.515625 64.59375 
L 19.828125 64.59375 
L 19.828125 46.734375 
Q 21.96875 47.46875 24.109375 47.828125 
Q 26.265625 48.1875 28.421875 48.1875 
Q 40.625 48.1875 47.75 41.5 
Q 54.890625 34.8125 54.890625 23.390625 
Q 54.890625 11.625 47.5625 5.09375 
Q 40.234375 -1.421875 26.90625 -1.421875 
Q 22.3125 -1.421875 17.546875 -0.640625 
Q 12.796875 0.140625 7.71875 1.703125 
L 7.71875 11.625 
Q 12.109375 9.234375 16.796875 8.0625 
Q 21.484375 6.890625 26.703125 6.890625 
Q 35.15625 6.890625 40.078125 11.328125 
Q 45.015625 15.765625 45.015625 23.390625 
Q 45.015625 31 40.078125 35.4375 
Q 35.15625 39.890625 26.703125 39.890625 
Q 22.75 39.890625 18.8125 39.015625 
Q 14.890625 38.140625 10.796875 36.28125 
z
" id="DejaVuSans-53"/>
      </defs>
      <g transform="translate(40.6375 224.977369)scale(0.1 -0.1)">
       <use xlink:href="#DejaVuSans-53"/>
      </g>
     </g>
    </g>
    <g id="ytick_3">
     <g id="line2d_8">
      <g>
       <use style="stroke:#000000;stroke-width:0.8;" x="54" xlink:href="#m3e7f91390f" y="196.54065"/>
      </g>
     </g>
     <g id="text_9">
      <!-- 10 -->
      <g transform="translate(34.275 200.339869)scale(0.1 -0.1)">
       <use xlink:href="#DejaVuSans-49"/>
       <use x="63.623047" xlink:href="#DejaVuSans-48"/>
      </g>
     </g>
    </g>
    <g id="ytick_4">
     <g id="line2d_9">
      <g>
       <use style="stroke:#000000;stroke-width:0.8;" x="54" xlink:href="#m3e7f91390f" y="171.90315"/>
      </g>
     </g>
     <g id="text_10">
      <!-- 15 -->
      <g transform="translate(34.275 175.702369)scale(0.1 -0.1)">
       <use xlink:href="#DejaVuSans-49"/>
       <use x="63.623047" xlink:href="#DejaVuSans-53"/>
      </g>
     </g>
    </g>
    <g id="ytick_5">
     <g id="line2d_10">
      <g>
       <use style="stroke:#000000;stroke-width:0.8;" x="54" xlink:href="#m3e7f91390f" y="147.26565"/>
      </g>
     </g>
     <g id="text_11">
      <!-- 20 -->
      <g transform="translate(34.275 151.064869)scale(0.1 -0.1)">
       <use xlink:href="#DejaVuSans-50"/>
       <use x="63.623047" xlink:href="#DejaVuSans-48"/>
      </g>
     </g>
    </g>
    <g id="ytick_6">
     <g id="line2d_11">
      <g>
       <use style="stroke:#000000;stroke-width:0.8;" x="54" xlink:href="#m3e7f91390f" y="122.62815"/>
      </g>
     </g>
     <g id="text_12">
      <!-- 25 -->
      <g transform="translate(34.275 126.427369)scale(0.1 -0.1)">
       <use xlink:href="#DejaVuSans-50"/>
       <use x="63.623047" xlink:href="#DejaVuSans-53"/>
      </g>
     </g>
    </g>
    <g id="ytick_7">
     <g id="line2d_12">
      <g>
       <use style="stroke:#000000;stroke-width:0.8;" x="54" xlink:href="#m3e7f91390f" y="97.99065"/>
      </g>
     </g>
     <g id="text_13">
      <!-- 30 -->
      <g transform="translate(34.275 101.789869)scale(0.1 -0.1)">
       <use xlink:href="#DejaVuSans-51"/>
       <use x="63.623047" xlink:href="#DejaVuSans-48"/>
      </g>
     </g>
    </g>
    <g id="ytick_8">
     <g id="line2d_13">
      <g>
       <use style="stroke:#000000;stroke-width:0.8;" x="54" xlink:href="#m3e7f91390f" y="73.35315"/>
      </g>
     </g>
     <g id="text_14">
      <!-- 35 -->
      <g transform="translate(34.275 77.152369)scale(0.1 -0.1)">
       <use xlink:href="#DejaVuSans-51"/>
       <use x="63.623047" xlink:href="#DejaVuSans-53"/>
      </g>
     </g>
    </g>
    <g id="ytick_9">
     <g id="line2d_14">
      <g>
       <use style="stroke:#000000;stroke-width:0.8;" x="54" xlink:href="#m3e7f91390f" y="48.71565"/>
      </g>
     </g>
     <g id="text_15">
      <!-- 40 -->
      <g transform="translate(34.275 52.514869)scale(0.1 -0.1)">
       <use xlink:href="#DejaVuSans-52"/>
       <use x="63.623047" xlink:href="#DejaVuSans-48"/>
      </g>
     </g>
    </g>
    <g id="text_16">
     <!-- Average Brightness -->
     <defs>
      <path d="M 34.1875 63.1875 
L 20.796875 26.90625 
L 47.609375 26.90625 
z
M 28.609375 72.90625 
L 39.796875 72.90625 
L 67.578125 0 
L 57.328125 0 
L 50.6875 18.703125 
L 17.828125 18.703125 
L 11.1875 0 
L 0.78125 0 
z
" id="DejaVuSans-65"/>
      <path d="M 2.984375 54.6875 
L 12.5 54.6875 
L 29.59375 8.796875 
L 46.6875 54.6875 
L 56.203125 54.6875 
L 35.6875 0 
L 23.484375 0 
z
" id="DejaVuSans-118"/>
      <path d="M 45.40625 27.984375 
Q 45.40625 37.75 41.375 43.109375 
Q 37.359375 48.484375 30.078125 48.484375 
Q 22.859375 48.484375 18.828125 43.109375 
Q 14.796875 37.75 14.796875 27.984375 
Q 14.796875 18.265625 18.828125 12.890625 
Q 22.859375 7.515625 30.078125 7.515625 
Q 37.359375 7.515625 41.375 12.890625 
Q 45.40625 18.265625 45.40625 27.984375 
z
M 54.390625 6.78125 
Q 54.390625 -7.171875 48.1875 -13.984375 
Q 42 -20.796875 29.203125 -20.796875 
Q 24.46875 -20.796875 20.265625 -20.09375 
Q 16.0625 -19.390625 12.109375 -17.921875 
L 12.109375 -9.1875 
Q 16.0625 -11.328125 19.921875 -12.34375 
Q 23.78125 -13.375 27.78125 -13.375 
Q 36.625 -13.375 41.015625 -8.765625 
Q 45.40625 -4.15625 45.40625 5.171875 
L 45.40625 9.625 
Q 42.625 4.78125 38.28125 2.390625 
Q 33.9375 0 27.875 0 
Q 17.828125 0 11.671875 7.65625 
Q 5.515625 15.328125 5.515625 27.984375 
Q 5.515625 40.671875 11.671875 48.328125 
Q 17.828125 56 27.875 56 
Q 33.9375 56 38.28125 53.609375 
Q 42.625 51.21875 45.40625 46.390625 
L 45.40625 54.6875 
L 54.390625 54.6875 
z
" id="DejaVuSans-103"/>
      <path id="DejaVuSans-32"/>
      <path d="M 19.671875 34.8125 
L 19.671875 8.109375 
L 35.5 8.109375 
Q 43.453125 8.109375 47.28125 11.40625 
Q 51.125 14.703125 51.125 21.484375 
Q 51.125 28.328125 47.28125 31.5625 
Q 43.453125 34.8125 35.5 34.8125 
z
M 19.671875 64.796875 
L 19.671875 42.828125 
L 34.28125 42.828125 
Q 41.5 42.828125 45.03125 45.53125 
Q 48.578125 48.25 48.578125 53.8125 
Q 48.578125 59.328125 45.03125 62.0625 
Q 41.5 64.796875 34.28125 64.796875 
z
M 9.8125 72.90625 
L 35.015625 72.90625 
Q 46.296875 72.90625 52.390625 68.21875 
Q 58.5 63.53125 58.5 54.890625 
Q 58.5 48.1875 55.375 44.234375 
Q 52.25 40.28125 46.1875 39.3125 
Q 53.46875 37.75 57.5 32.78125 
Q 61.53125 27.828125 61.53125 20.40625 
Q 61.53125 10.640625 54.890625 5.3125 
Q 48.25 0 35.984375 0 
L 9.8125 0 
z
" id="DejaVuSans-66"/>
      <path d="M 9.421875 54.6875 
L 18.40625 54.6875 
L 18.40625 0 
L 9.421875 0 
z
M 9.421875 75.984375 
L 18.40625 75.984375 
L 18.40625 64.59375 
L 9.421875 64.59375 
z
" id="DejaVuSans-105"/>
      <path d="M 54.890625 33.015625 
L 54.890625 0 
L 45.90625 0 
L 45.90625 32.71875 
Q 45.90625 40.484375 42.875 44.328125 
Q 39.84375 48.1875 33.796875 48.1875 
Q 26.515625 48.1875 22.3125 43.546875 
Q 18.109375 38.921875 18.109375 30.90625 
L 18.109375 0 
L 9.078125 0 
L 9.078125 75.984375 
L 18.109375 75.984375 
L 18.109375 46.1875 
Q 21.34375 51.125 25.703125 53.5625 
Q 30.078125 56 35.796875 56 
Q 45.21875 56 50.046875 50.171875 
Q 54.890625 44.34375 54.890625 33.015625 
z
" id="DejaVuSans-104"/>
      <path d="M 18.3125 70.21875 
L 18.3125 54.6875 
L 36.8125 54.6875 
L 36.8125 47.703125 
L 18.3125 47.703125 
L 18.3125 18.015625 
Q 18.3125 11.328125 20.140625 9.421875 
Q 21.96875 7.515625 27.59375 7.515625 
L 36.8125 7.515625 
L 36.8125 0 
L 27.59375 0 
Q 17.1875 0 13.234375 3.875 
Q 9.28125 7.765625 9.28125 18.015625 
L 9.28125 47.703125 
L 2.6875 47.703125 
L 2.6875 54.6875 
L 9.28125 54.6875 
L 9.28125 70.21875 
z
" id="DejaVuSans-116"/>
      <path d="M 54.890625 33.015625 
L 54.890625 0 
L 45.90625 0 
L 45.90625 32.71875 
Q 45.90625 40.484375 42.875 44.328125 
Q 39.84375 48.1875 33.796875 48.1875 
Q 26.515625 48.1875 22.3125 43.546875 
Q 18.109375 38.921875 18.109375 30.90625 
L 18.109375 0 
L 9.078125 0 
L 9.078125 54.6875 
L 18.109375 54.6875 
L 18.109375 46.1875 
Q 21.34375 51.125 25.703125 53.5625 
Q 30.078125 56 35.796875 56 
Q 45.21875 56 50.046875 50.171875 
Q 54.890625 44.34375 54.890625 33.015625 
z
" id="DejaVuSans-110"/>
     </defs>
     <g transform="translate(26.9475 221.75125)rotate(-90)scale(0.16 -0.16)">
      <use xlink:href="#DejaVuSans-65"/>
      <use x="68.330078" xlink:href="#DejaVuSans-118"/>
      <use x="127.509766" xlink:href="#DejaVuSans-101"/>
      <use x="189.033203" xlink:href="#DejaVuSans-114"/>
      <use x="230.146484" xlink:href="#DejaVuSans-97"/>
      <use x="291.425781" xlink:href="#DejaVuSans-103"/>
      <use x="354.902344" xlink:href="#DejaVuSans-101"/>
      <use x="416.425781" xlink:href="#DejaVuSans-32"/>
      <use x="448.212891" xlink:href="#DejaVuSans-66"/>
      <use x="516.816406" xlink:href="#DejaVuSans-114"/>
      <use x="557.929688" xlink:href="#DejaVuSans-105"/>
      <use x="585.712891" xlink:href="#DejaVuSans-103"/>
      <use x="649.189453" xlink:href="#DejaVuSans-104"/>
      <use x="712.568359" xlink:href="#DejaVuSans-116"/>
      <use x="751.777344" xlink:href="#DejaVuSans-110"/>
      <use x="815.15625" xlink:href="#DejaVuSans-101"/>
      <use x="876.679688" xlink:href="#DejaVuSans-115"/>
      <use x="928.779297" xlink:href="#DejaVuSans-115"/>
     </g>
    </g>
   </g>
   <g id="line2d_15">
    <path clip-path="url(#p01562e76b3)" d="M 69.218182 97.742371 
L 69.514111 112.129382 
L 69.662076 114.617301 
L 69.736059 114.601188 
L 69.810041 114.678821 
L 69.884024 116.930179 
L 69.958006 115.965625 
L 70.475883 100.724651 
L 70.549865 100.068432 
L 70.623848 101.993145 
L 70.69783 106.834956 
L 70.771812 105.857219 
L 71.141724 116.63283 
L 71.215707 116.334748 
L 71.363672 116.655534 
L 71.437654 116.39041 
L 71.511637 114.452514 
L 71.585619 116.168496 
L 71.659601 115.303547 
L 71.807566 105.901895 
L 71.881549 105.902627 
L 71.955531 106.166287 
L 72.177478 108.762599 
L 72.251461 111.41384 
L 72.325443 110.24495 
L 72.399425 107.267797 
L 72.769338 117.324936 
L 72.84332 115.43025 
L 72.917302 115.413405 
L 72.991285 111.319362 
L 73.065267 113.215512 
L 73.13925 116.060103 
L 73.213232 115.047212 
L 73.287214 114.990086 
L 73.361197 113.600015 
L 73.435179 115.171718 
L 73.657126 111.767583 
L 73.805091 113.537762 
L 73.953056 111.927976 
L 74.027038 112.235578 
L 74.175003 116.267369 
L 74.248986 116.630633 
L 74.322968 115.631657 
L 74.470933 118.279968 
L 74.544915 118.178899 
L 74.618898 115.665347 
L 74.69288 117.485328 
L 74.766863 117.273669 
L 74.840845 116.61745 
L 74.914827 114.046039 
L 74.98881 114.166883 
L 75.358722 116.73097 
L 75.506687 122.206295 
L 75.580669 121.979988 
L 75.654652 121.630639 
L 75.802616 118.504079 
L 75.950581 121.451204 
L 76.098546 118.091012 
L 76.172528 118.340756 
L 76.246511 118.052196 
L 76.394476 113.372975 
L 76.54244 121.322304 
L 76.690405 116.610858 
L 76.83837 123.594169 
L 76.912352 116.502465 
L 76.986335 116.656266 
L 77.1343 126.491492 
L 77.282265 115.803035 
L 77.356247 121.314248 
L 77.430229 120.97735 
L 77.504212 119.973247 
L 77.652177 124.692749 
L 77.800141 120.934871 
L 78.022089 123.743576 
L 78.170053 122.191648 
L 78.465983 128.87175 
L 78.613948 126.816672 
L 78.761913 123.3891 
L 78.835895 124.927846 
L 78.909878 124.57337 
L 78.98386 124.681763 
L 79.057842 123.985263 
L 79.131825 121.978523 
L 79.205807 127.403314 
L 79.27979 126.878925 
L 79.427754 128.607358 
L 79.649702 133.481394 
L 79.723684 131.824002 
L 79.797667 136.790318 
L 80.019614 129.369041 
L 80.093596 130.18199 
L 80.167579 133.865165 
L 80.241561 131.785185 
L 80.315543 133.791926 
L 80.463508 130.666098 
L 80.537491 130.765703 
L 80.611473 134.145669 
L 80.685455 132.72557 
L 80.759438 133.189904 
L 80.83342 127.854464 
L 81.055367 136.411674 
L 81.12935 134.65541 
L 81.203332 135.659513 
L 81.277315 135.296981 
L 81.351297 134.050459 
L 81.42528 135.816244 
L 81.499262 134.471581 
L 81.573244 134.558735 
L 81.721209 136.025706 
L 81.795192 135.649259 
L 81.869174 137.538818 
L 81.943156 136.139226 
L 82.017139 136.84305 
L 82.091121 137.03933 
L 82.165104 136.420463 
L 82.461033 140.759124 
L 82.535016 138.934748 
L 82.682981 140.907798 
L 82.756963 139.54922 
L 82.904928 143.392788 
L 82.97891 142.77978 
L 83.052893 138.340049 
L 83.126875 140.152707 
L 83.200857 137.950419 
L 83.348822 140.292593 
L 83.422805 140.113158 
L 83.496787 140.616308 
L 83.570769 135.315291 
L 83.792717 143.173804 
L 84.014664 140.532084 
L 84.088646 142.606204 
L 84.162629 142.456797 
L 84.236611 142.643556 
L 84.458558 140.907066 
L 84.532541 141.208809 
L 84.606523 142.416516 
L 84.680506 141.384582 
L 84.754488 143.480674 
L 84.902453 139.013845 
L 84.976435 139.378574 
L 85.050418 139.143478 
L 85.198382 144.814351 
L 85.272365 143.839544 
L 85.346347 143.383267 
L 85.716259 145.729835 
L 85.790242 142.926257 
L 85.938207 146.904583 
L 86.012189 145.497668 
L 86.160154 141.706833 
L 86.234136 144.174977 
L 86.308119 143.249972 
L 86.382101 143.339323 
L 86.456083 146.108479 
L 86.530066 145.099249 
L 86.604048 143.583941 
L 86.678031 148.085924 
L 86.752013 146.229323 
L 86.825995 146.413152 
L 86.899978 146.128253 
L 86.97396 148.326147 
L 87.047943 148.058825 
L 87.121925 148.099839 
L 87.26989 148.866648 
L 87.343872 148.679157 
L 87.417855 144.350017 
L 87.491837 144.760154 
L 87.639802 147.565197 
L 87.713784 145.190065 
L 87.787767 145.814059 
L 87.861749 145.790623 
L 87.935732 146.747853 
L 88.083696 144.624663 
L 88.231661 145.422232 
L 88.305644 143.816107 
L 88.379626 149.039492 
L 88.453609 148.887155 
L 88.601573 150.962008 
L 88.749538 149.530923 
L 88.971485 148.154768 
L 89.045468 148.818311 
L 89.11945 147.901362 
L 89.193433 150.795023 
L 89.267415 148.408906 
L 89.341397 154.36541 
L 89.41538 152.251009 
L 89.489362 151.421947 
L 89.859274 156.593332 
L 89.933257 154.952052 
L 90.007239 156.936821 
L 90.155204 154.607098 
L 90.229186 156.382404 
L 90.303169 155.849959 
L 90.525116 153.612516 
L 90.599098 156.782287 
L 90.673081 155.671256 
L 90.821046 156.514966 
L 90.895028 155.915874 
L 90.96901 156.029394 
L 91.042993 161.979306 
L 91.116975 157.452422 
L 91.190958 158.241202 
L 91.26494 157.049609 
L 91.412905 160.978133 
L 91.486887 154.378593 
L 91.56087 158.291005 
L 91.634852 157.798841 
L 91.708835 156.129731 
L 91.782817 159.781412 
L 91.856799 158.741423 
L 92.004764 161.356045 
L 92.226711 157.295691 
L 92.300694 159.92496 
L 92.374676 159.015336 
L 92.522641 160.925401 
L 92.670606 158.526101 
L 92.892553 163.455798 
L 92.966536 163.345208 
L 93.040518 159.703047 
L 93.1145 160.141014 
L 93.188483 161.268891 
L 93.262465 161.166356 
L 93.336448 160.184225 
L 93.41043 161.197849 
L 93.484412 157.993656 
L 93.632377 162.374795 
L 93.780342 157.901375 
L 93.928307 160.894641 
L 94.002289 164.67742 
L 94.150254 159.327332 
L 94.372201 164.881023 
L 94.446184 162.595976 
L 94.520166 165.303611 
L 94.594149 164.71111 
L 94.742113 159.136179 
L 94.964061 164.924967 
L 95.038043 157.247353 
L 95.112025 158.841027 
L 95.25999 165.734254 
L 95.55592 163.779513 
L 95.629902 162.699975 
L 95.703885 163.338616 
L 95.777867 166.124617 
L 95.85185 165.871943 
L 95.999814 159.046096 
L 96.147779 162.662623 
L 96.221762 162.509554 
L 96.295744 163.189942 
L 96.369726 161.411706 
L 96.443709 162.248092 
L 96.665656 169.183065 
L 96.887603 163.762668 
L 96.961586 163.561994 
L 97.109551 169.092249 
L 97.257515 163.032479 
L 97.331498 163.148928 
L 97.40548 160.96202 
L 97.479463 169.391795 
L 97.553445 169.107629 
L 97.627427 169.495794 
L 97.70141 168.493889 
L 97.775392 169.363964 
L 97.849375 168.365721 
L 97.923357 169.386668 
L 98.071322 167.397505 
L 98.293269 170.4457 
L 98.367252 168.111583 
L 98.515216 170.515277 
L 98.589199 167.647249 
L 98.811146 174.117156 
L 98.885128 172.82962 
L 98.959111 168.103526 
L 99.107076 172.907985 
L 99.181058 172.42461 
L 99.25504 173.816878 
L 99.476988 171.150989 
L 99.55097 172.705114 
L 99.624952 168.081555 
L 99.698935 171.597745 
L 99.8469 168.964081 
L 100.068847 175.840463 
L 100.142829 174.865656 
L 100.216812 168.925997 
L 100.290794 170.925414 
L 100.364777 172.671424 
L 100.438759 172.617228 
L 100.512741 172.967309 
L 100.586724 169.958663 
L 100.734689 173.337164 
L 100.882653 170.321927 
L 101.178583 176.042602 
L 101.326548 175.230385 
L 101.548495 180.473544 
L 101.69646 176.457865 
L 101.770442 177.9534 
L 101.844425 176.914142 
L 101.918407 181.27331 
L 102.066372 175.901251 
L 102.140354 179.777776 
L 102.214337 179.549271 
L 102.288319 178.879137 
L 102.436284 185.554845 
L 102.658231 182.162428 
L 102.806196 181.561138 
L 102.880179 181.695165 
L 102.954161 179.777043 
L 103.102126 185.806786 
L 103.398055 169.227008 
L 103.472038 169.858326 
L 103.54602 177.543995 
L 103.620003 176.922931 
L 103.767967 167.18731 
L 103.989915 175.136639 
L 104.063897 174.31783 
L 104.211862 180.967172 
L 104.285844 180.680809 
L 104.433809 187.120688 
L 104.507792 185.225271 
L 104.581774 185.37834 
L 104.803721 177.470757 
L 104.877704 188.528336 
L 105.099651 89.256935 
L 105.173633 85.452184 
L 105.247616 94.456883 
L 105.321598 90.444866 
L 105.395581 93.107093 
L 105.469563 85.722435 
L 105.543545 86.328851 
L 105.617528 87.51898 
L 105.69151 94.245955 
L 105.839475 86.676003 
L 105.913457 90.646273 
L 105.98744 88.157622 
L 106.209387 99.10754 
L 106.283369 97.981129 
L 106.579299 127.231203 
L 106.801246 172.045966 
L 106.875229 171.492281 
L 107.097176 171.219833 
L 107.245141 176.120235 
L 107.319123 175.335116 
L 107.467088 187.926314 
L 107.54107 182.769577 
L 107.763018 177.691205 
L 107.984965 182.256906 
L 108.13293 193.5613 
L 108.206912 191.63439 
L 108.280895 192.791561 
L 108.428859 186.853367 
L 108.502842 186.319457 
L 108.576824 186.680524 
L 108.724789 192.771054 
L 108.798771 191.769881 
L 108.872754 193.16874 
L 109.094701 186.484244 
L 109.168683 186.678327 
L 109.242666 186.488638 
L 109.390631 190.971579 
L 109.464613 188.091101 
L 109.68656 193.115276 
L 109.834525 188.578871 
L 109.908508 188.644786 
L 110.056472 195.890291 
L 110.426384 187.641415 
L 110.500367 185.37248 
L 110.648332 194.14135 
L 110.722314 193.931155 
L 110.796296 194.294419 
L 110.944261 189.706747 
L 111.166209 194.492164 
L 111.240191 192.396805 
L 111.314173 194.547825 
L 111.388156 193.474146 
L 111.610103 190.704258 
L 111.684085 192.907278 
L 111.758068 191.852641 
L 111.906033 188.919431 
L 111.980015 193.039108 
L 112.053997 190.390796 
L 112.12798 191.682727 
L 112.201962 193.82203 
L 112.275945 189.094471 
L 112.349927 189.803422 
L 112.423909 194.413798 
L 112.497892 193.033981 
L 112.867804 184.063705 
L 112.941786 178.796377 
L 113.015769 180.468417 
L 113.089751 177.540333 
L 113.163734 177.817176 
L 113.385681 191.721544 
L 113.459663 182.565241 
L 113.533646 186.447625 
L 113.68161 189.59103 
L 113.755593 188.001018 
L 113.829575 189.126696 
L 113.903558 187.930708 
L 114.051523 189.304666 
L 114.125505 188.725348 
L 114.199487 194.357405 
L 114.27347 192.482494 
L 114.347452 190.91958 
L 114.421435 191.383913 
L 114.569399 190.355642 
L 114.643382 191.985203 
L 114.717364 190.845609 
L 114.791347 193.689468 
L 114.865329 193.477075 
L 114.939311 189.209456 
L 115.013294 191.207408 
L 115.309223 194.069577 
L 115.383206 191.367068 
L 115.457188 192.412185 
L 115.531171 194.685514 
L 115.605153 192.251792 
L 115.679136 193.003953 
L 115.753118 193.95093 
L 115.8271 191.322393 
L 115.901083 191.713487 
L 116.049048 194.207265 
L 116.197012 190.486739 
L 116.41896 196.833605 
L 116.492942 193.934817 
L 116.566924 195.164495 
L 116.788872 192.405593 
L 116.862854 191.067522 
L 117.010819 197.434895 
L 117.158784 192.250327 
L 117.232766 192.267172 
L 117.306749 193.121868 
L 117.380731 191.783064 
L 117.602678 198.067677 
L 117.750643 192.11923 
L 117.97259 196.411018 
L 118.194537 190.843412 
L 118.26852 195.726968 
L 118.342502 191.302618 
L 118.416485 193.127727 
L 118.490467 193.26981 
L 118.56445 196.028712 
L 118.712414 191.418335 
L 118.786397 193.671158 
L 119.082326 196.684931 
L 119.156309 196.340709 
L 119.230291 193.18705 
L 119.304274 197.910947 
L 119.378256 196.791127 
L 119.452238 197.006449 
L 119.526221 196.202288 
L 119.674186 198.138719 
L 119.748168 192.500804 
L 119.822151 196.019923 
L 119.896133 195.835362 
L 119.970115 195.477224 
L 120.044098 196.768423 
L 120.192063 193.428738 
L 120.340027 198.634545 
L 120.41401 194.353743 
L 120.487992 195.803869 
L 120.561975 197.513993 
L 120.635957 194.520727 
L 120.783922 199.257806 
L 120.931887 200.988437 
L 121.005869 196.018458 
L 121.079852 196.143697 
L 121.153834 195.630293 
L 121.375781 199.027837 
L 121.597728 194.120111 
L 121.819676 201.92516 
L 122.041623 196.161274 
L 122.115605 199.454818 
L 122.189588 194.672331 
L 122.337552 200.69475 
L 122.411535 192.596746 
L 122.485517 195.23334 
L 122.707465 197.732244 
L 122.781447 196.148091 
L 122.929412 199.00733 
L 123.003394 198.674094 
L 123.151359 200.653736 
L 123.225341 196.715691 
L 123.299324 200.552667 
L 123.373306 199.536846 
L 123.521271 195.87784 
L 123.669236 200.282416 
L 123.817201 194.529516 
L 123.891183 195.654462 
L 123.965166 192.730773 
L 124.039148 196.701043 
L 124.11313 192.817927 
L 124.335078 198.479279 
L 124.483042 196.290174 
L 124.557025 198.660911 
L 124.631007 194.820273 
L 124.70499 197.506669 
L 124.778972 193.939944 
L 124.852954 195.384944 
L 124.926937 198.011284 
L 125.000919 197.074561 
L 125.148884 193.23905 
L 125.222866 195.970853 
L 125.296849 195.742349 
L 125.370831 195.224551 
L 125.444814 196.000881 
L 125.518796 195.789954 
L 125.592779 194.180899 
L 125.666761 200.571709 
L 125.814726 193.145304 
L 125.888708 193.882818 
L 125.962691 191.957372 
L 126.184638 196.794056 
L 126.25862 194.815147 
L 126.332603 195.688152 
L 126.480567 196.400765 
L 126.776497 190.144714 
L 126.998444 195.655194 
L 127.072427 191.926612 
L 127.146409 194.772668 
L 127.368356 187.549135 
L 127.516321 195.107369 
L 127.590304 192.620915 
L 127.664286 194.757288 
L 127.738268 194.380841 
L 127.886233 189.914745 
L 127.960216 189.076894 
L 128.034198 194.670134 
L 128.256145 187.540346 
L 128.330128 190.242854 
L 128.40411 189.071035 
L 128.626057 193.095502 
L 128.70004 192.648013 
L 128.921987 197.03135 
L 128.995969 193.292514 
L 129.069952 196.248428 
L 129.143934 188.706306 
L 129.217917 190.566569 
L 129.291899 195.19672 
L 129.513846 187.450995 
L 129.587829 190.324149 
L 129.661811 188.055214 
L 129.735794 191.238168 
L 129.809776 190.934228 
L 129.883758 190.37029 
L 130.031723 186.987394 
L 130.105706 189.90083 
L 130.179688 185.835349 
L 130.25367 191.24476 
L 130.327653 189.686972 
L 130.401635 191.252084 
L 130.475618 190.843412 
L 130.5496 191.496701 
L 130.993494 184.399138 
L 131.067477 183.440443 
L 131.141459 184.260717 
L 131.215442 182.06795 
L 131.289424 188.165072 
L 131.437389 183.15408 
L 131.511371 183.653568 
L 131.585354 186.67027 
L 131.733319 184.128887 
L 131.807301 188.783939 
L 131.881283 186.243289 
L 131.955266 186.416864 
L 132.029248 186.498159 
L 132.103231 184.479701 
L 132.177213 185.257496 
L 132.251195 185.397382 
L 132.325178 184.371307 
L 132.39916 180.163011 
L 132.473143 182.007894 
L 132.547125 180.576078 
L 132.621108 182.916054 
L 132.69509 181.945641 
L 132.769072 183.416275 
L 132.843055 182.694873 
L 132.917037 183.283713 
L 132.99102 178.139426 
L 133.065002 182.966589 
L 133.138984 179.482624 
L 133.286949 182.571832 
L 133.434914 179.164768 
L 133.582879 183.168728 
L 133.656861 181.355338 
L 133.804826 174.489941 
L 133.878809 178.712153 
L 133.952791 177.571826 
L 134.026773 178.595703 
L 134.174738 174.276817 
L 134.322703 176.13708 
L 134.396685 175.650775 
L 134.54465 180.3007 
L 134.618633 180.017266 
L 134.766597 175.288976 
L 134.84058 178.375255 
L 134.914562 177.834021 
L 135.062527 175.685929 
L 135.284474 179.789494 
L 135.506422 170.805302 
L 135.580404 173.445557 
L 135.654386 171.416845 
L 135.802351 175.714493 
L 135.876334 167.180719 
L 136.172263 178.443367 
L 136.39421 171.439549 
L 136.616158 175.802379 
L 136.912087 162.661891 
L 137.060052 170.029704 
L 137.134035 163.625712 
L 137.208017 164.181594 
L 137.355982 165.147612 
L 137.429964 169.495794 
L 137.503947 166.271094 
L 137.651911 169.097376 
L 137.725894 167.987809 
L 137.799876 164.38593 
L 137.873859 168.01564 
L 137.947841 167.390181 
L 138.021823 168.121836 
L 138.095806 167.7886 
L 138.317753 162.680933 
L 138.391736 162.008601 
L 138.5397 163.773654 
L 138.613683 161.633619 
L 138.687665 161.7779 
L 138.761648 163.238279 
L 138.83563 161.777167 
L 138.909612 165.29116 
L 139.057577 158.813929 
L 139.205542 162.996592 
L 139.279524 161.202976 
L 139.353507 165.265527 
L 139.575454 160.459603 
L 139.649437 161.041851 
L 139.723419 160.887317 
L 139.797401 157.037891 
L 139.871384 158.284413 
L 140.019349 158.54734 
L 140.093331 157.821545 
L 140.167313 158.005374 
L 140.315278 151.52741 
L 140.463243 157.300085 
L 140.537225 155.5343 
L 140.611208 159.167672 
L 140.68519 153.627897 
L 140.759173 154.798983 
L 140.833155 154.188905 
L 140.907137 159.916172 
L 140.98112 156.728823 
L 141.055102 160.573123 
L 141.203067 156.077731 
L 141.27705 155.550412 
L 141.351032 157.238565 
L 141.498997 153.017818 
L 141.572979 153.335674 
L 141.646962 152.604752 
L 141.720944 150.319704 
L 141.794926 154.216736 
L 141.868909 153.654995 
L 142.090856 150.180551 
L 142.164838 151.830619 
L 142.238821 150.827248 
L 142.386786 155.449343 
L 142.460768 151.486397 
L 142.534751 152.289825 
L 142.682715 154.813631 
L 142.978645 148.598595 
L 143.052627 148.840282 
L 143.200592 150.512322 
L 143.348557 144.043147 
L 143.718469 149.369798 
L 143.866434 146.972695 
L 143.940416 149.942525 
L 144.162364 142.491952 
L 144.236346 143.57442 
L 144.310328 145.242797 
L 144.384311 145.104376 
L 144.458293 144.990124 
L 144.532276 144.367595 
L 144.68024 140.630224 
L 144.754223 143.21555 
L 144.828205 140.621435 
L 144.902188 142.165307 
L 144.97617 137.995827 
L 145.050152 142.376967 
L 145.198117 136.654094 
L 145.2721 136.567673 
L 145.346082 135.941482 
L 145.420065 136.791051 
L 145.494047 134.914675 
L 145.568029 140.375353 
L 145.642012 138.779482 
L 145.715994 137.797351 
L 145.789977 137.861068 
L 145.863959 139.445954 
L 146.159889 132.573234 
L 146.233871 132.374757 
L 146.307853 133.217734 
L 146.381836 130.239116 
L 146.455818 130.73128 
L 146.529801 131.75296 
L 146.603783 127.412835 
L 146.899713 134.757944 
L 147.047678 129.389547 
L 147.195642 134.47744 
L 147.639537 123.991855 
L 147.787502 128.137898 
L 147.935466 120.362877 
L 148.009449 120.697578 
L 148.083431 119.886826 
L 148.305379 123.156201 
L 148.527326 117.776818 
L 148.601308 117.864705 
L 148.675291 118.131294 
L 148.897238 114.21522 
L 149.119185 107.518273 
L 149.193167 110.029628 
L 149.341132 105.625785 
L 149.56308 95.863798 
L 149.637062 96.812972 
L 149.785027 94.063591 
L 149.859009 94.81209 
L 149.932992 90.686554 
L 150.006974 93.165684 
L 150.080956 92.20699 
L 150.598833 77.297054 
L 150.82078 70.126985 
L 150.894763 70.604501 
L 151.486622 55.24781 
L 151.560605 56.661317 
L 151.708569 54.662633 
L 151.782552 50.915008 
L 151.856534 51.124471 
L 151.930517 49.870624 
L 152.004499 50.453604 
L 152.152464 50.96774 
L 152.226446 50.786108 
L 152.300429 49.050351 
L 152.374411 52.835327 
L 152.448394 52.634653 
L 152.522376 52.846313 
L 152.744323 50.401605 
L 152.818306 50.570786 
L 152.96627 50.258057 
L 153.040253 51.139119 
L 153.114235 50.162114 
L 153.55813 66.275362 
L 154.002024 85.252975 
L 154.076007 85.829363 
L 154.149989 92.079554 
L 154.223971 88.803587 
L 154.297954 89.480313 
L 154.815831 119.487675 
L 155.037778 133.15182 
L 155.333708 157.597434 
L 155.40769 157.077439 
L 155.70362 170.447897 
L 155.777602 169.363964 
L 155.925567 181.354605 
L 155.999549 179.289274 
L 156.147514 184.324435 
L 156.221496 181.718601 
L 156.295479 191.804303 
L 156.369461 190.823637 
L 156.443444 189.182358 
L 156.665391 200.344669 
L 156.739373 194.506812 
L 156.813356 195.868319 
L 156.887338 197.651682 
L 157.035303 193.342316 
L 157.109285 184.008043 
L 157.183268 187.932173 
L 157.55318 173.745836 
L 157.923092 161.293792 
L 157.997074 161.800604 
L 158.145039 156.275476 
L 158.293004 148.200909 
L 158.440969 141.315738 
L 158.884863 111.537613 
L 159.254775 97.533641 
L 159.40274 94.001338 
L 159.476722 94.961497 
L 159.550705 94.893385 
L 159.772652 85.726097 
L 159.920617 80.983158 
L 160.142564 68.316524 
L 160.660441 57.766489 
L 160.734423 57.805306 
L 160.882388 56.998947 
L 160.956371 57.720349 
L 161.2523 55.805157 
L 161.54823 48.124614 
L 161.622212 48.37216 
L 161.696195 47.726927 
L 161.770177 48.081403 
L 161.84416 46.118606 
L 161.918142 46.68767 
L 161.992124 47.570929 
L 162.066107 47.22451 
L 162.140089 46.59246 
L 162.362037 53.376561 
L 162.436019 53.509856 
L 162.731949 62.692524 
L 162.805931 62.984747 
L 162.953896 59.535204 
L 163.027878 60.143817 
L 163.101861 62.194501 
L 163.175843 60.774403 
L 163.249825 61.043189 
L 163.39779 63.579445 
L 163.619737 74.891895 
L 163.915667 93.962521 
L 164.137614 110.411202 
L 164.211597 112.275859 
L 164.433544 127.368159 
L 164.951421 147.921869 
L 165.617263 189.853224 
L 165.691245 188.85791 
L 165.83921 195.293395 
L 165.913192 195.621505 
L 166.135139 192.018893 
L 166.209122 196.78893 
L 166.431069 188.737067 
L 167.614788 133.772151 
L 168.576559 76.959424 
L 168.650541 77.075141 
L 168.872489 69.845749 
L 168.946471 69.420232 
L 170.056207 44.443636 
L 170.13019 48.71272 
L 170.204172 47.329241 
L 170.278154 46.955724 
L 170.574084 50.595688 
L 170.648066 50.011975 
L 171.387891 70.247829 
L 171.461873 71.623984 
L 171.905767 100.914339 
L 172.275679 124.903677 
L 172.497627 141.04329 
L 172.645592 150.311648 
L 172.941521 167.826684 
L 173.311433 186.12098 
L 173.385416 187.171955 
L 173.459398 192.623845 
L 173.53338 190.688878 
L 173.607363 191.473997 
L 173.681345 197.768863 
L 173.755328 191.039691 
L 173.82931 192.923391 
L 173.903293 192.83111 
L 173.977275 192.139737 
L 174.051257 192.282552 
L 174.273205 178.715082 
L 174.347187 177.996611 
L 174.495152 169.882495 
L 175.087011 133.411085 
L 175.160994 131.694369 
L 175.752853 95.033271 
L 176.344712 69.435612 
L 176.418694 68.76621 
L 176.566659 61.628366 
L 176.640642 60.39942 
L 176.714624 56.435009 
L 176.788607 61.135469 
L 176.862589 58.816732 
L 177.010554 53.752276 
L 177.084536 53.938302 
L 177.158519 53.264506 
L 177.380466 49.231983 
L 177.454448 48.963197 
L 177.528431 49.958511 
L 177.750378 47.103666 
L 177.898343 47.507211 
L 177.972325 46.893471 
L 178.12029 50.64256 
L 178.194272 50.035411 
L 178.342237 50.57811 
L 178.638167 61.091526 
L 178.786132 63.654148 
L 178.934096 66.953552 
L 179.082061 73.749371 
L 179.451973 87.088337 
L 179.673921 99.342637 
L 179.747903 101.396982 
L 180.117815 123.377382 
L 180.191797 124.520638 
L 180.931622 171.181749 
L 181.005604 173.353277 
L 181.153569 184.249731 
L 181.227551 182.772506 
L 181.375516 188.929684 
L 181.449498 185.368086 
L 181.597463 192.10385 
L 181.745428 192.347002 
L 181.81941 191.50256 
L 181.967375 194.186026 
L 182.11534 188.826418 
L 182.263305 183.887932 
L 182.337287 186.214726 
L 182.41127 185.967179 
L 182.633217 174.393266 
L 182.929147 155.773791 
L 183.003129 153.314435 
L 183.521006 113.316581 
L 183.594988 115.124845 
L 183.742953 108.052916 
L 183.816936 107.970156 
L 184.038883 94.504488 
L 184.186848 86.265134 
L 184.334812 73.789653 
L 184.55676 55.142346 
L 184.778707 50.666729 
L 184.852689 50.410394 
L 184.926672 49.651641 
L 185.074636 52.273586 
L 185.148619 52.010659 
L 185.222601 52.398092 
L 185.370566 62.57168 
L 185.518531 62.808241 
L 185.666496 55.816142 
L 185.962425 50.58104 
L 186.036408 50.939909 
L 186.11039 51.484805 
L 186.184373 54.160948 
L 186.258355 53.678305 
L 186.332337 54.821561 
L 187.146144 118.98306 
L 187.220126 119.383676 
L 188.55181 194.852498 
L 188.625792 195.428887 
L 188.699775 194.774865 
L 188.995704 178.970685 
L 189.069687 180.780414 
L 189.143669 176.81527 
L 189.365616 155.561398 
L 189.439599 153.385476 
L 190.475352 68.218385 
L 190.549335 66.7873 
L 190.771282 55.696031 
L 190.845265 53.96833 
L 190.919247 55.515131 
L 191.141194 52.486711 
L 191.215177 52.350487 
L 191.289159 52.491105 
L 191.363141 53.09093 
L 191.511106 51.158161 
L 191.585089 53.911936 
L 191.659071 53.046255 
L 191.733053 52.777469 
L 191.807036 53.196394 
L 191.881018 52.126376 
L 192.398895 75.901857 
L 193.582614 179.808536 
L 193.804561 191.993259 
L 193.878543 192.015963 
L 193.952526 193.941409 
L 194.026508 193.88648 
L 194.100491 188.460957 
L 194.174473 189.569791 
L 194.470403 169.596131 
L 194.840315 136.039622 
L 195.062262 112.765094 
L 195.432174 83.080715 
L 196.393945 47.431775 
L 196.467928 46.889809 
L 196.54191 46.946203 
L 196.615893 47.306537 
L 196.83784 55.219247 
L 196.911822 56.209434 
L 197.429699 85.848405 
L 198.021558 136.116522 
L 198.539435 191.498898 
L 198.613418 189.571988 
L 198.6874 195.171819 
L 198.761382 193.646257 
L 198.835365 194.092281 
L 199.057312 179.363977 
L 199.131294 179.044656 
L 199.427224 149.160336 
L 199.649171 127.626692 
L 199.945101 97.475782 
L 200.241031 73.4696 
L 200.83289 46.89933 
L 200.906872 48.416836 
L 201.054837 47.465465 
L 201.350767 52.778201 
L 201.572714 65.031768 
L 202.016608 96.056416 
L 202.756433 178.477789 
L 202.97838 190.863186 
L 203.052362 190.871975 
L 203.126345 192.822321 
L 203.348292 182.746141 
L 204.458028 66.935242 
L 204.53201 65.285907 
L 204.753958 55.912085 
L 205.049887 49.262011 
L 205.12387 50.014905 
L 205.197852 49.081111 
L 205.271835 49.538121 
L 205.345817 49.541783 
L 205.641747 63.161252 
L 205.715729 64.181467 
L 205.937676 78.452029 
L 206.603518 161.509113 
L 207.121395 194.72726 
L 207.195377 194.723598 
L 207.26936 192.340411 
L 208.675025 61.328087 
L 208.896973 51.996744 
L 208.970955 51.965251 
L 209.192902 49.762231 
L 209.488832 57.192298 
L 209.562814 57.178382 
L 210.820515 195.766517 
L 211.190427 170.803837 
L 211.634322 120.816225 
L 211.930251 84.155127 
L 212.374146 52.611217 
L 212.448128 53.252788 
L 212.522111 52.479387 
L 212.596093 48.177346 
L 212.670076 48.909 
L 212.744058 48.468103 
L 213.11397 61.199187 
L 213.335917 83.323867 
L 214.223706 193.149698 
L 214.297689 190.429613 
L 214.445653 194.963089 
L 214.667601 176.8951 
L 214.741583 173.699696 
L 215.185478 109.793067 
L 215.851319 53.851148 
L 216.221231 49.831075 
L 216.295214 50.844699 
L 216.517161 56.352982 
L 216.665126 64.656054 
L 217.552915 175.024584 
L 217.774862 192.52131 
L 217.848844 197.078955 
L 218.514686 119.667842 
L 218.884598 75.841801 
L 219.180528 59.158757 
L 219.402475 48.699537 
L 219.624422 53.731036 
L 219.698405 54.713167 
L 220.216281 98.680559 
L 220.660176 170.177646 
L 220.882123 194.361067 
L 220.956106 194.40208 
L 221.473982 146.246168 
L 221.991859 78.952249 
L 222.213807 58.334821 
L 222.509736 48.090924 
L 222.583719 48.539877 
L 222.657701 47.800899 
L 222.953631 57.792123 
L 223.471507 114.314825 
L 224.063367 191.545038 
L 224.137349 191.599235 
L 224.211332 192.811336 
L 224.285314 190.496993 
L 224.729208 144.38151 
L 225.173103 85.830096 
L 225.616997 54.952658 
L 225.764962 51.881027 
L 225.838945 52.480119 
L 225.912927 48.171486 
L 226.134874 55.057389 
L 226.208857 54.853053 
L 226.282839 56.355179 
L 226.800716 97.201137 
L 227.170628 154.711829 
L 227.24461 158.360582 
L 227.54054 187.355785 
L 227.688505 194.732387 
L 227.762487 193.025193 
L 228.206382 153.274886 
L 228.502311 118.099069 
L 229.020188 71.752152 
L 229.316118 52.774539 
L 229.3901 52.759891 
L 229.464083 49.404826 
L 229.538065 49.776146 
L 229.760012 47.383438 
L 229.98196 53.15831 
L 230.129924 62.41495 
L 230.203907 62.720355 
L 230.573819 94.775471 
L 231.091696 152.424585 
L 231.387625 180.707175 
L 231.609573 194.385968 
L 231.683555 193.674088 
L 232.497362 123.901039 
L 232.867274 79.359456 
L 233.163203 56.497262 
L 233.237186 53.191267 
L 233.311168 53.684164 
L 233.38515 51.725761 
L 233.459133 52.635385 
L 233.533115 52.47426 
L 233.829045 59.336727 
L 233.903027 57.971557 
L 234.050992 59.437064 
L 234.198957 55.233162 
L 234.716834 80.93775 
L 234.938781 103.631495 
L 235.382676 159.478937 
L 235.456658 163.76633 
L 235.678605 185.803856 
L 235.974535 194.43577 
L 236.270464 182.353581 
L 236.788341 142.590824 
L 237.306218 96.246837 
L 237.528165 75.160681 
L 237.824095 54.866236 
L 237.97206 52.524063 
L 238.046042 53.778642 
L 238.120025 52.211333 
L 238.194007 53.295999 
L 238.26799 52.795778 
L 238.341972 53.364843 
L 238.563919 51.998209 
L 238.785866 55.651355 
L 238.859849 53.118761 
L 239.007814 57.490379 
L 239.229761 58.528904 
L 239.673655 91.614489 
L 240.265515 144.603423 
L 240.561444 160.700558 
L 240.709409 180.258222 
L 240.783392 178.589844 
L 241.079321 191.723008 
L 241.227286 195.282409 
L 241.67118 180.411291 
L 241.819145 168.440424 
L 242.337022 119.587279 
L 243.446758 65.039825 
L 243.742688 49.088435 
L 243.890653 47.668337 
L 244.038618 45.592019 
L 244.1126 45.767792 
L 244.334547 50.250001 
L 244.556494 61.267299 
L 245.074371 70.126985 
L 245.148354 70.978019 
L 245.518266 93.723031 
L 245.96216 141.988802 
L 246.110125 154.838532 
L 246.480037 180.310221 
L 246.701984 188.852784 
L 246.775967 188.83008 
L 246.923932 194.48484 
L 247.145879 188.939938 
L 247.219861 191.857768 
L 247.293844 182.349919 
L 247.367826 185.61783 
L 247.663756 167.150691 
L 248.699509 86.804903 
L 249.439334 59.888214 
L 249.587298 53.087268 
L 249.661281 53.074818 
L 249.809246 47.422987 
L 249.883228 48.774241 
L 249.95721 48.415371 
L 250.031193 50.468252 
L 250.105175 49.238574 
L 250.179158 49.687528 
L 250.25314 49.82009 
L 250.401105 53.926584 
L 250.475087 53.681234 
L 250.771017 61.229947 
L 251.066947 70.857907 
L 251.140929 70.685796 
L 252.916507 193.279331 
L 252.990489 193.047164 
L 253.064472 191.758895 
L 253.138454 192.289876 
L 253.212436 193.858649 
L 253.286419 192.88018 
L 253.508366 183.501232 
L 253.804296 168.767801 
L 253.878278 168.266849 
L 254.026243 150.825784 
L 254.100225 153.518771 
L 254.396155 128.930341 
L 254.54412 125.445643 
L 254.988014 101.49439 
L 255.431909 74.728573 
L 255.505891 75.500509 
L 255.579874 75.042035 
L 256.023768 65.893056 
L 256.09775 62.26481 
L 256.171733 62.397372 
L 256.615627 54.735871 
L 256.68961 55.383302 
L 256.911557 50.391352 
L 256.985539 50.688701 
L 257.059522 47.383438 
L 257.133504 48.430019 
L 257.207487 52.106602 
L 257.281469 50.398675 
L 257.429434 50.425041 
L 257.577399 51.208695 
L 257.651381 53.858472 
L 257.725364 53.60946 
L 258.169258 49.086238 
L 258.24324 49.155815 
L 258.391205 50.984585 
L 258.53917 50.113777 
L 258.613152 51.129598 
L 258.687135 50.508533 
L 258.8351 54.862574 
L 258.983064 58.304061 
L 259.057047 57.275057 
L 259.131029 59.387994 
L 259.205012 59.305967 
L 259.278994 58.562594 
L 259.352977 58.907548 
L 259.426959 58.533298 
L 259.500941 58.785239 
L 259.574924 58.504735 
L 259.722889 61.905941 
L 259.796871 61.209441 
L 259.944836 62.323401 
L 260.018818 62.084643 
L 260.166783 66.016829 
L 260.314748 64.563041 
L 260.536695 70.908442 
L 260.610678 69.975381 
L 260.68466 70.028845 
L 260.758642 74.333816 
L 260.832625 74.074551 
L 260.906607 73.823343 
L 260.98059 74.628968 
L 261.054572 77.322688 
L 261.128554 76.231431 
L 261.350502 79.776184 
L 261.424484 78.910503 
L 261.498466 78.505493 
L 261.646431 83.487922 
L 261.720414 83.617554 
L 261.794396 84.622389 
L 261.868378 83.276262 
L 262.164308 87.512389 
L 262.386255 94.873611 
L 262.460238 92.470649 
L 262.53422 94.496432 
L 262.608203 93.938353 
L 262.756167 93.34219 
L 262.83015 98.867317 
L 262.978115 95.904812 
L 263.348027 102.478718 
L 263.422009 106.791745 
L 263.495992 104.763033 
L 263.569974 102.20627 
L 263.791921 108.635163 
L 263.865904 109.158088 
L 264.235816 107.869819 
L 264.309798 108.676909 
L 264.457763 113.430101 
L 264.531745 113.338553 
L 264.605728 113.060978 
L 264.67971 113.433031 
L 264.827675 120.204681 
L 264.901657 118.742837 
L 264.97564 122.294914 
L 265.049622 120.717352 
L 265.123605 120.474932 
L 265.271569 121.047659 
L 265.419534 126.426309 
L 265.493517 125.793527 
L 265.567499 123.29096 
L 265.715464 126.114313 
L 265.863429 125.103618 
L 265.937411 121.39774 
L 266.381306 131.586708 
L 266.455288 129.592419 
L 266.603253 134.697889 
L 266.677235 131.772735 
L 266.751218 131.922874 
L 266.8252 131.645299 
L 266.899182 133.746518 
L 266.973165 133.270466 
L 267.047147 133.072722 
L 267.12113 136.764685 
L 267.195112 135.371685 
L 267.269094 135.034054 
L 267.417059 136.175113 
L 267.491042 137.555663 
L 267.565024 137.246596 
L 267.639006 134.843634 
L 267.712989 135.016477 
L 267.860954 137.751943 
L 267.934936 140.448592 
L 268.082901 136.991725 
L 268.230866 137.838364 
L 268.452813 142.703611 
L 268.526795 139.999638 
L 268.600778 143.176001 
L 268.67476 140.417099 
L 268.748743 140.814785 
L 268.822725 143.306366 
L 268.896707 140.152707 
L 268.97069 141.81962 
L 269.044672 141.629932 
L 269.118655 140.859461 
L 269.192637 138.858579 
L 269.340602 142.092068 
L 269.414584 142.532965 
L 269.488567 144.081964 
L 269.562549 143.817572 
L 269.636532 143.214818 
L 269.858479 148.997013 
L 269.932461 149.049013 
L 270.006444 148.69234 
L 270.154408 146.070395 
L 270.228391 148.896676 
L 270.302373 146.697318 
L 270.376356 149.306813 
L 270.524321 147.278101 
L 270.746268 154.540451 
L 270.82025 154.161074 
L 270.968215 150.841896 
L 271.042197 150.244268 
L 271.11618 151.503974 
L 271.190162 150.826516 
L 271.264145 152.684582 
L 271.338127 150.059707 
L 271.486092 153.685755 
L 271.560074 152.564471 
L 271.634057 153.498264 
L 271.708039 151.503974 
L 272.003969 156.918511 
L 272.151934 156.027929 
L 272.225916 153.059564 
L 272.299898 157.440703 
L 272.373881 157.413605 
L 272.447863 159.199897 
L 272.521846 158.228752 
L 272.595828 161.200046 
L 272.66981 161.128272 
L 272.743793 160.284562 
L 272.817775 160.421519 
L 272.891758 160.569461 
L 273.187687 163.531966 
L 273.26167 163.78171 
L 273.335652 158.884971 
L 273.483617 164.439394 
L 273.557599 161.559648 
L 273.631582 162.099417 
L 273.705564 162.384316 
L 273.779547 165.345357 
L 274.001494 161.154638 
L 274.297423 165.731325 
L 274.371406 164.688406 
L 274.519371 167.471476 
L 274.593353 164.986487 
L 274.667335 166.102645 
L 274.889283 169.680356 
L 275.037248 164.604181 
L 275.185212 171.739096 
L 275.40716 167.021791 
L 275.481142 166.435149 
L 275.555124 168.415523 
L 275.629107 167.341844 
L 275.703089 169.448921 
L 275.851054 167.38359 
L 276.220966 173.839582 
L 276.294949 174.525828 
L 276.442913 177.320617 
L 276.516896 177.412166 
L 276.664861 172.119937 
L 276.738843 175.351961 
L 276.812825 174.82391 
L 276.886808 174.962331 
L 276.96079 176.59116 
L 277.034773 174.255578 
L 277.182737 178.82494 
L 277.25672 174.084199 
L 277.330702 174.923515 
L 277.478667 177.324279 
L 277.552649 176.227163 
L 277.626632 176.709807 
L 277.700614 176.766933 
L 277.848579 178.879137 
L 278.144509 174.850276 
L 278.440438 179.901549 
L 278.588403 179.009502 
L 278.662386 180.139575 
L 278.736368 176.684905 
L 278.81035 179.83417 
L 278.884333 178.562013 
L 278.958315 179.489948 
L 279.032298 178.230974 
L 279.180263 182.262765 
L 279.254245 181.205198 
L 279.328227 177.99954 
L 279.40221 179.013164 
L 279.476192 182.786422 
L 279.550175 182.151442 
L 279.624157 184.114972 
L 279.698139 183.263938 
L 279.846104 179.878845 
L 279.920087 180.483797 
L 279.994069 180.199631 
L 280.068051 178.728998 
L 280.289999 183.430922 
L 280.363981 183.185573 
L 280.437963 183.520274 
L 280.511946 182.889688 
L 280.585928 183.805172 
L 280.659911 164.150834 
L 280.733893 164.261424 
L 280.807876 167.930683 
L 280.881858 182.144851 
L 280.95584 177.471489 
L 281.029823 178.835194 
L 281.103805 172.910183 
L 281.325752 184.473109 
L 281.399735 182.68169 
L 281.473717 185.897602 
L 281.5477 185.582676 
L 281.621682 183.630864 
L 281.695664 189.599086 
L 281.769647 189.085683 
L 281.843629 184.624713 
L 281.917612 187.214434 
L 281.991594 186.874606 
L 282.065577 182.857463 
L 282.139559 186.002333 
L 282.287524 182.351384 
L 282.435489 186.777931 
L 282.583453 186.32971 
L 282.657436 185.974503 
L 282.731418 187.060633 
L 282.805401 182.847942 
L 282.879383 186.312865 
L 282.953365 185.839743 
L 283.10133 185.217214 
L 283.175313 186.568468 
L 283.249295 186.255739 
L 283.39726 186.996183 
L 283.471242 185.835349 
L 283.545225 186.808691 
L 283.619207 189.717733 
L 283.69319 189.128894 
L 283.767172 188.975092 
L 283.841154 189.162583 
L 283.989119 187.713189 
L 284.063102 189.307596 
L 284.137084 188.624279 
L 284.211066 188.22879 
L 284.285049 189.089345 
L 284.359031 191.794782 
L 284.433014 191.535517 
L 284.506996 189.510467 
L 284.580978 189.823196 
L 284.654961 189.592495 
L 284.728943 188.283719 
L 284.802926 190.660315 
L 284.876908 188.864502 
L 284.950891 192.508127 
L 285.098855 185.593661 
L 285.172838 189.177231 
L 285.24682 188.266874 
L 285.320803 185.37248 
L 285.394785 187.048914 
L 285.468767 185.600253 
L 285.616732 191.593376 
L 285.764697 177.769571 
L 285.912662 186.391231 
L 285.986644 186.993985 
L 286.060627 183.814693 
L 286.282574 188.131382 
L 286.356556 188.12772 
L 286.430539 185.7958 
L 286.504521 189.021965 
L 286.578504 186.37878 
L 286.652486 186.718608 
L 286.948416 190.981833 
L 287.09638 189.991646 
L 287.170363 191.9105 
L 287.244345 191.591911 
L 287.318328 192.257651 
L 287.466292 189.81807 
L 287.614257 193.526145 
L 287.762222 190.381275 
L 287.836205 189.86714 
L 287.910187 191.252816 
L 287.984169 191.09462 
L 288.058152 189.366919 
L 288.132134 191.857768 
L 288.206117 191.733262 
L 288.280099 192.185145 
L 288.428064 195.847812 
L 288.502046 190.766511 
L 288.650011 196.61096 
L 288.945941 189.920604 
L 289.093906 181.01551 
L 289.167888 189.030021 
L 289.24187 186.887057 
L 289.389835 192.8128 
L 289.463818 192.375565 
L 289.685765 197.328699 
L 289.83373 192.147061 
L 289.981694 196.811634 
L 290.055677 197.259855 
L 290.129659 193.794199 
L 290.277624 196.583861 
L 290.425589 193.046432 
L 290.499571 193.921634 
L 290.573554 197.150729 
L 290.647536 195.535815 
L 290.795501 193.108685 
L 290.869483 194.22411 
L 290.943466 191.605827 
L 291.091431 194.112787 
L 291.165413 192.412185 
L 291.313378 197.201264 
L 291.535325 189.456271 
L 291.905237 192.850152 
L 292.053202 197.848694 
L 292.201167 192.177821 
L 292.349132 199.987264 
L 292.571079 191.241098 
L 292.645061 194.811485 
L 292.719044 194.543431 
L 292.793026 195.950346 
L 292.940991 190.997945 
L 293.014973 191.12831 
L 293.088956 189.091542 
L 293.162938 192.475902 
L 293.23692 192.107512 
L 293.310903 189.422581 
L 293.384885 190.392994 
L 293.458868 194.80709 
L 293.53285 193.459498 
L 293.606833 193.830086 
L 293.680815 193.638933 
L 293.82878 192.226158 
L 293.902762 194.494361 
L 293.976745 194.262194 
L 294.050727 193.392851 
L 294.124709 194.429179 
L 294.198692 193.173867 
L 294.272674 195.44207 
L 294.346657 194.70895 
L 294.420639 192.39534 
L 294.494621 193.1226 
L 294.568604 196.728874 
L 294.716569 189.145738 
L 294.790551 192.250327 
L 294.864534 191.458617 
L 294.938516 191.624869 
L 295.012498 190.344656 
L 295.234446 192.781308 
L 295.308428 192.737365 
L 295.456393 196.354624 
L 295.530375 192.682435 
L 295.604358 194.041746 
L 295.752322 192.017428 
L 295.826305 192.342608 
L 295.900287 192.133145 
L 295.97427 190.230404 
L 296.048252 191.82481 
L 296.122234 191.093156 
L 296.196217 191.328984 
L 296.270199 191.008199 
L 296.418164 194.602022 
L 296.492147 191.597038 
L 296.566129 192.558662 
L 296.714094 195.87784 
L 296.936041 191.089494 
L 297.084006 193.284458 
L 297.157988 192.648013 
L 297.231971 196.068261 
L 297.379935 191.024311 
L 297.453918 193.894536 
L 297.5279 191.287238 
L 297.675865 195.995022 
L 297.749848 190.67423 
L 297.82383 192.931447 
L 297.897812 191.243295 
L 298.045777 193.854255 
L 298.267724 199.354481 
L 298.341707 197.723456 
L 298.415689 192.853814 
L 298.489672 193.284458 
L 298.563654 190.675695 
L 298.785601 193.119671 
L 298.933566 190.205503 
L 299.081531 194.751429 
L 299.229496 191.4718 
L 299.303478 194.037352 
L 299.377461 192.326495 
L 299.451443 193.414823 
L 299.525425 192.202722 
L 299.599408 192.494212 
L 299.67339 192.310383 
L 299.747373 187.935835 
L 299.821355 189.805619 
L 299.895337 192.565986 
L 299.96932 191.576531 
L 300.043302 191.189098 
L 300.117285 194.278307 
L 300.191267 192.822321 
L 300.339232 195.297057 
L 300.413214 193.563497 
L 300.487197 194.607149 
L 300.783126 190.366628 
L 300.857109 191.300421 
L 300.931091 194.016112 
L 301.005074 192.911673 
L 301.079056 195.290466 
L 301.153038 194.278307 
L 301.301003 192.694154 
L 301.52295 194.539769 
L 301.596933 190.633217 
L 301.670915 194.163322 
L 301.744898 193.220008 
L 301.81888 190.089053 
L 301.892863 193.343049 
L 301.966845 190.699131 
L 302.040827 191.607291 
L 302.11481 192.258383 
L 302.336757 190.680089 
L 302.410739 185.819237 
L 302.558704 194.289293 
L 302.632687 193.928958 
L 302.706669 191.169324 
L 302.780651 193.45071 
L 302.854634 190.17108 
L 302.928616 191.899514 
L 303.002599 191.68346 
L 303.076581 188.445576 
L 303.224546 194.643768 
L 303.298528 190.547527 
L 303.372511 192.548409 
L 303.446493 192.349199 
L 303.520476 195.880037 
L 303.742423 190.987692 
L 303.816405 192.844293 
L 303.890388 190.996481 
L 303.96437 193.850593 
L 304.038352 193.230261 
L 304.112335 188.321803 
L 304.334282 194.571262 
L 304.408264 194.161857 
L 304.556229 191.542109 
L 304.630212 196.952984 
L 304.704194 195.332212 
L 304.926141 192.277425 
L 305.074106 195.287536 
L 305.222071 188.970698 
L 305.296053 192.924123 
L 305.370036 191.562616 
L 305.444018 191.838726 
L 305.518001 190.960594 
L 305.665965 196.068993 
L 305.887913 190.571696 
L 306.10986 195.333677 
L 306.183842 194.055661 
L 306.257825 189.643029 
L 306.331807 193.604511 
L 306.40579 190.962058 
L 306.479772 194.124506 
L 306.553754 190.808989 
L 306.627737 193.902592 
L 306.701719 193.531272 
L 306.849684 189.537566 
L 306.923666 191.125381 
L 306.997649 188.492449 
L 307.071631 190.368092 
L 307.219596 187.254715 
L 307.293578 191.394899 
L 307.367561 190.603921 
L 307.515526 189.851027 
L 307.589508 189.033683 
L 307.737473 193.729749 
L 307.95942 189.960885 
L 308.033403 195.452323 
L 308.107385 193.698256 
L 308.329332 189.773394 
L 308.403315 175.163005 
L 308.551279 188.707039 
L 308.625262 189.741902 
L 308.699244 186.690045 
L 308.847209 190.083926 
L 308.921191 186.052136 
L 308.995174 187.939497 
L 309.217121 190.831693 
L 309.291104 190.380543 
L 309.513051 198.310098 
L 309.661016 194.834921 
L 309.734998 196.833605 
L 309.956945 189.230695 
L 310.030928 193.169473 
L 310.10491 191.799909 
L 310.178892 192.494944 
L 310.326857 191.218394 
L 310.40084 191.876077 
L 310.548805 189.917674 
L 310.696769 192.754209 
L 310.770752 188.581068 
L 310.844734 190.448655 
L 310.918717 193.194374 
L 310.992699 189.23216 
L 311.066681 189.635705 
L 311.140664 194.301743 
L 311.214646 193.504906 
L 311.288629 193.283725 
L 311.362611 192.212975 
L 311.510576 195.766517 
L 311.806506 189.949167 
L 311.880488 191.819684 
L 312.102435 187.36677 
L 312.2504 189.4592 
L 312.324382 186.736917 
L 312.694294 195.885896 
L 312.842259 191.821148 
L 312.916242 192.835504 
L 313.064206 197.979059 
L 313.138189 195.351254 
L 313.212171 197.296474 
L 313.434119 188.349634 
L 313.656066 191.733262 
L 313.730048 191.482053 
L 314.025978 193.776622 
L 314.09996 191.487912 
L 314.173943 196.531862 
L 314.247925 194.988722 
L 314.321907 197.678048 
L 314.39589 194.50022 
L 314.469872 198.376012 
L 314.543855 195.903474 
L 314.617837 197.352868 
L 314.69182 193.343781 
L 314.765802 193.735608 
L 314.839784 193.612567 
L 314.913767 194.505347 
L 315.135714 189.16771 
L 315.283679 190.928369 
L 315.357661 190.666906 
L 315.431644 189.780718 
L 315.579608 195.639814 
L 315.653591 195.193791 
L 315.727573 193.189247 
L 315.875538 197.757878 
L 315.94952 193.96924 
L 316.023503 198.536405 
L 316.097485 197.708808 
L 316.393415 191.947119 
L 316.467397 188.931149 
L 316.54138 191.955175 
L 316.615362 190.943016 
L 316.689345 189.974068 
L 316.763327 192.656802 
L 316.837309 191.496701 
L 316.911292 192.385086 
L 317.059257 187.939497 
L 317.133239 190.271417 
L 317.207221 195.557787 
L 317.281204 191.777938 
L 317.355186 193.206825 
L 317.429169 193.559835 
L 317.577134 198.207563 
L 318.021028 186.482779 
L 318.168993 189.450411 
L 318.242975 188.959712 
L 318.464922 191.282111 
L 318.538905 191.084367 
L 318.612887 191.182507 
L 318.68687 190.442064 
L 318.760852 193.009813 
L 318.834834 192.141934 
L 318.908817 193.072798 
L 318.982799 196.60803 
L 319.056782 190.441331 
L 319.204747 195.073679 
L 319.278729 191.887796 
L 319.352711 194.050534 
L 319.426694 191.42273 
L 319.500676 192.59162 
L 319.574659 190.475753 
L 319.648641 191.771346 
L 319.722623 189.961618 
L 319.796606 192.867729 
L 319.870588 191.162 
L 319.944571 194.382306 
L 320.018553 189.810746 
L 320.092535 193.042038 
L 320.166518 191.980076 
L 320.2405 193.488794 
L 320.314483 190.409106 
L 320.388465 194.405742 
L 320.462448 191.793318 
L 320.53643 193.841804 
L 320.610412 193.101361 
L 320.684395 194.493629 
L 320.758377 191.496701 
L 320.83236 193.487329 
L 321.054307 189.257061 
L 321.128289 192.826716 
L 321.202272 189.275371 
L 321.350236 195.131538 
L 321.498201 189.81807 
L 321.572184 190.922509 
L 321.646166 190.486007 
L 321.720148 190.393726 
L 321.868113 193.923832 
L 321.942096 193.695327 
L 322.238025 190.037786 
L 322.38599 194.485572 
L 322.533955 190.204038 
L 322.68192 194.332504 
L 322.755902 187.508853 
L 322.829885 190.837553 
L 322.903867 189.854689 
L 323.125814 193.355499 
L 323.199797 191.296027 
L 323.273779 197.54695 
L 323.643691 166.407318 
L 323.791656 174.99895 
L 324.087586 189.464327 
L 324.161568 186.250612 
L 324.23555 184.511926 
L 324.309533 189.171372 
L 324.383515 188.996332 
L 324.679445 193.109417 
L 324.753427 191.391237 
L 324.82741 192.065766 
L 324.901392 193.740735 
L 324.975375 191.241098 
L 325.049357 193.2515 
L 325.123339 193.118206 
L 325.271304 193.652116 
L 325.345287 194.695035 
L 325.419269 193.20536 
L 325.493251 194.213124 
L 325.567234 193.139445 
L 325.641216 194.013915 
L 325.715199 191.482053 
L 325.863163 196.111472 
L 325.937146 194.433573 
L 326.011128 192.092864 
L 326.085111 195.083933 
L 326.159093 192.064301 
L 326.233076 194.419658 
L 326.307058 192.448804 
L 326.455023 195.376887 
L 326.602988 190.076602 
L 326.750952 197.144137 
L 326.824935 193.268345 
L 326.898917 195.031201 
L 326.9729 193.856452 
L 327.046882 195.654462 
L 327.120864 191.000142 
L 327.194847 193.422146 
L 327.342812 189.185287 
L 327.490777 191.945654 
L 327.638741 190.828764 
L 327.712724 190.702061 
L 327.786706 189.911083 
L 327.934671 192.567451 
L 328.008653 192.811336 
L 328.082636 194.585177 
L 328.156618 194.154533 
L 328.304583 192.65314 
L 328.378565 192.623112 
L 328.452548 193.119671 
L 328.52653 189.454073 
L 328.600513 190.553386 
L 328.674495 189.585903 
L 328.748477 191.260872 
L 328.82246 189.052725 
L 329.11839 194.793907 
L 329.192372 193.611102 
L 329.266354 193.604511 
L 329.414319 189.275371 
L 329.488302 192.130948 
L 329.562284 190.579752 
L 329.636266 192.261313 
L 329.710249 190.926904 
L 329.858214 194.199209 
L 330.006178 188.522477 
L 330.080161 192.734435 
L 330.154143 190.96865 
L 330.228126 188.607434 
L 330.302108 191.792585 
L 330.376091 188.044228 
L 330.450073 188.35769 
L 330.524055 194.253406 
L 330.598038 189.842971 
L 330.746003 193.146769 
L 330.819985 193.091107 
L 330.893967 189.26585 
L 330.96795 194.066647 
L 331.041932 192.240806 
L 331.115915 190.202573 
L 331.189897 194.336898 
L 331.263879 190.052434 
L 331.337862 191.981541 
L 331.485827 188.307888 
L 331.633791 190.316825 
L 331.707774 189.024895 
L 331.781756 190.865383 
L 331.855739 189.686972 
L 331.929721 190.702061 
L 332.003704 187.292067 
L 332.077686 187.450262 
L 332.225651 194.651092 
L 332.299633 189.466524 
L 332.373616 193.602314 
L 332.669545 186.749368 
L 332.891492 190.304375 
L 333.11344 189.269512 
L 333.187422 191.192028 
L 333.335387 187.788625 
L 333.483352 189.544889 
L 333.557334 189.730916 
L 333.631317 186.232303 
L 333.705299 190.941551 
L 333.927246 183.901847 
L 334.001229 189.566129 
L 334.075211 188.591321 
L 334.297158 184.216041 
L 334.445123 186.823339 
L 334.519105 185.229665 
L 334.66707 190.578288 
L 334.741053 187.798146 
L 334.815035 188.414084 
L 334.889018 187.844287 
L 334.963 189.706747 
L 335.110965 187.376291 
L 335.25893 191.350223 
L 335.332912 184.517785 
L 335.406894 187.703668 
L 335.480877 186.984464 
L 335.554859 189.630579 
L 335.628842 188.507829 
L 335.702824 189.626184 
L 335.776806 185.024597 
L 335.850789 187.071618 
L 335.924771 186.837987 
L 335.998754 189.926463 
L 336.072736 186.298218 
L 336.146719 187.735893 
L 336.220701 187.359446 
L 336.294683 185.269214 
L 336.442648 190.7753 
L 336.664595 184.194802 
L 336.81256 189.125964 
L 336.886543 187.246659 
L 336.960525 179.65034 
L 337.10849 185.509437 
L 337.182472 182.065753 
L 337.256455 186.948577 
L 337.330437 182.817182 
L 337.404419 184.462856 
L 337.478402 184.435025 
L 337.626367 185.951066 
L 337.700349 186.127571 
L 337.848314 187.464178 
L 337.922296 187.921187 
L 337.996279 184.068832 
L 338.070261 191.082902 
L 338.144244 191.038959 
L 338.292208 184.785838 
L 338.514156 188.670419 
L 338.588138 186.908296 
L 338.66212 188.919431 
L 338.736103 186.574328 
L 338.810085 187.329419 
L 338.884068 189.173569 
L 338.95805 186.425653 
L 339.032033 189.826126 
L 339.106015 188.880614 
L 339.179997 188.203156 
L 339.25398 186.000136 
L 339.327962 186.124642 
L 339.401945 185.978165 
L 339.475927 186.494497 
L 339.549909 190.974509 
L 339.697874 187.055506 
L 339.845839 187.956342 
L 339.919821 186.952239 
L 339.993804 187.205645 
L 340.215751 189.547087 
L 340.289734 183.671145 
L 340.363716 185.626619 
L 340.511681 186.640975 
L 340.733628 185.55338 
L 340.881593 188.014933 
L 340.955575 188.276395 
L 341.029558 189.561002 
L 341.10354 187.20418 
L 341.177522 187.476628 
L 341.251505 187.039393 
L 341.325487 193.445583 
L 341.473452 188.635997 
L 341.547434 190.969382 
L 341.695399 186.577257 
L 341.769382 185.021667 
L 341.991329 190.882228 
L 342.065311 190.902003 
L 342.139294 191.535517 
L 342.213276 185.975967 
L 342.287259 191.892922 
L 342.509206 184.530235 
L 342.583188 185.592929 
L 342.657171 192.580634 
L 342.805135 186.289429 
L 342.879118 187.027675 
L 342.9531 189.552213 
L 343.027083 188.768559 
L 343.24903 185.264087 
L 343.323012 188.550308 
L 343.396995 186.638045 
L 343.470977 186.892184 
L 343.54496 189.646691 
L 343.618942 187.105308 
L 343.766907 190.031194 
L 343.840889 189.648156 
L 343.914872 189.777056 
L 343.988854 187.793752 
L 344.062836 191.199352 
L 344.136819 186.605088 
L 344.210801 188.335718 
L 344.358766 188.036904 
L 344.432748 185.787012 
L 344.654696 189.161119 
L 344.728678 188.942135 
L 344.876643 193.339387 
L 344.950625 191.237436 
L 345.024608 192.350664 
L 345.246555 189.242414 
L 345.320537 189.525847 
L 345.468502 191.237436 
L 345.542485 187.996623 
L 345.616467 189.59103 
L 345.764432 192.458325 
L 345.838414 189.223371 
L 346.060362 192.286946 
L 346.134344 189.468721 
L 346.208326 190.546795 
L 346.356291 193.012742 
L 346.430274 190.309501 
L 346.504256 191.293097 
L 346.578238 190.065617 
L 346.652221 190.932763 
L 346.726203 190.579752 
L 346.94815 191.870218 
L 347.022133 197.203461 
L 347.096115 192.188807 
L 347.170098 193.573751 
L 347.318062 190.600259 
L 347.392045 191.569207 
L 347.54001 188.921628 
L 347.613992 189.063711 
L 347.761957 194.845174 
L 347.983904 191.939795 
L 348.131869 195.094186 
L 348.205851 189.930857 
L 348.279834 190.499922 
L 348.353816 190.62516 
L 348.427799 190.527753 
L 348.575763 193.570821 
L 348.649746 192.710266 
L 348.723728 194.290757 
L 348.797711 193.711439 
L 348.871693 194.104731 
L 349.019658 190.773835 
L 349.241605 194.912554 
L 349.315588 188.012736 
L 349.38957 190.529218 
L 349.537535 193.361358 
L 349.611517 187.765921 
L 349.6855 193.745861 
L 349.759482 193.626482 
L 349.981429 189.331032 
L 350.055412 191.813092 
L 350.129394 189.941843 
L 350.203376 190.262629 
L 350.277359 190.423754 
L 350.499306 193.508568 
L 350.573289 193.311556 
L 350.721253 190.510908 
L 350.795236 187.971722 
L 350.869218 188.753911 
L 351.017183 190.399585 
L 351.091165 188.331324 
L 351.165148 191.223521 
L 351.23913 189.774859 
L 351.313113 185.888081 
L 351.387095 189.896435 
L 351.461077 189.726521 
L 351.53506 190.175475 
L 351.609042 189.565396 
L 351.683025 191.559686 
L 351.904972 188.78101 
L 352.052937 188.078651 
L 352.126919 188.381126 
L 352.274884 192.19906 
L 352.348866 190.87051 
L 352.570814 195.476492 
L 352.718778 188.710701 
L 352.792761 190.101504 
L 352.866743 195.644209 
L 353.088691 186.175909 
L 353.162673 192.189539 
L 353.310638 188.761968 
L 353.38462 192.026949 
L 353.532585 187.737358 
L 353.606567 192.721984 
L 353.68055 190.097109 
L 353.828515 193.684341 
L 354.050462 188.900389 
L 354.124444 188.905516 
L 354.346391 191.720811 
L 354.420374 190.729892 
L 354.642321 193.508568 
L 354.938251 187.306715 
L 355.012233 187.925582 
L 355.160198 190.658118 
L 355.23418 189.706015 
L 355.308163 191.746445 
L 355.382145 190.354909 
L 355.456128 192.127286 
L 355.604092 188.169467 
L 355.678075 189.70455 
L 355.752057 189.497284 
L 355.82604 191.041889 
L 355.900022 187.288405 
L 355.974005 189.394018 
L 356.121969 186.628524 
L 356.195952 190.83682 
L 356.343917 188.018595 
L 356.491881 189.862013 
L 356.565864 187.064295 
L 356.639846 191.186169 
L 356.713829 190.948875 
L 356.787811 187.300856 
L 356.861793 189.226301 
L 356.935776 189.08495 
L 357.009758 188.828615 
L 357.083741 188.050087 
L 357.305688 195.160101 
L 357.527635 189.662071 
L 357.601618 189.107654 
L 357.6756 186.671003 
L 357.749582 187.511783 
L 357.97153 190.599527 
L 358.119494 189.090809 
L 358.193477 189.370581 
L 358.267459 187.95268 
L 358.341442 189.044669 
L 358.415424 187.120688 
L 358.489406 188.165805 
L 358.563389 192.464917 
L 358.637371 190.589273 
L 358.711354 190.494795 
L 358.859319 186.227909 
L 358.933301 191.48718 
L 359.007283 188.477801 
L 359.081266 190.15863 
L 359.155248 189.81807 
L 359.229231 186.805762 
L 359.303213 189.481172 
L 359.377195 187.420967 
L 359.451178 194.202139 
L 359.52516 190.233333 
L 359.599143 190.967917 
L 359.673125 191.773543 
L 359.747107 190.043645 
L 359.895072 195.176946 
L 360.043037 190.894679 
L 360.191002 195.713053 
L 360.264984 192.873589 
L 360.338967 193.553976 
L 360.560914 189.631311 
L 360.634896 192.972461 
L 360.708879 189.558072 
L 360.856844 193.446315 
L 360.930826 189.945505 
L 361.004808 192.193933 
L 361.078791 185.420818 
L 361.152773 192.132413 
L 361.226756 192.049653 
L 361.300738 190.611977 
L 361.522685 193.961916 
L 361.596668 192.189539 
L 361.744633 193.960451 
L 361.818615 190.650061 
L 361.892597 192.52131 
L 361.96658 192.440015 
L 362.040562 193.094037 
L 362.114545 191.828472 
L 362.262509 193.30057 
L 362.336492 191.129043 
L 362.558439 195.447197 
L 362.632421 195.221621 
L 362.706404 191.854106 
L 362.780386 192.283285 
L 362.854369 192.209313 
L 362.928351 195.92691 
L 363.002333 192.787167 
L 363.076316 196.293836 
L 363.224281 190.603189 
L 363.298263 194.730922 
L 363.372246 194.648162 
L 363.446228 193.632341 
L 363.594193 195.195988 
L 363.742158 193.841072 
L 363.81614 196.547242 
L 363.964105 191.756698 
L 364.038087 193.787608 
L 364.11207 192.186609 
L 364.186052 193.554708 
L 364.260034 193.407499 
L 364.334017 188.091101 
L 364.407999 190.345388 
L 364.555964 193.307894 
L 364.629947 189.175034 
L 364.703929 190.123475 
L 364.777911 189.278301 
L 364.999859 190.864651 
L 365.147823 189.092274 
L 365.221806 192.941701 
L 365.295788 185.809715 
L 365.443753 191.653432 
L 365.517735 188.807376 
L 365.591718 189.677451 
L 365.6657 188.720222 
L 365.813665 194.677458 
L 365.887648 193.311556 
L 365.96163 192.420973 
L 366.035612 199.72214 
L 366.183577 237.482551 
L 366.331542 220.836858 
L 366.405524 234.695086 
L 366.553489 199.535381 
L 366.627472 193.835945 
L 366.701454 198.411899 
L 366.775436 232.694204 
L 366.923401 194.718471 
L 366.997384 197.686104 
L 367.071366 191.801374 
L 367.145348 195.293395 
L 367.219331 190.562907 
L 367.515261 197.524246 
L 367.589243 193.627215 
L 367.663225 193.890142 
L 367.737208 196.132711 
L 367.885173 193.684341 
L 367.959155 195.396662 
L 368.033137 194.380109 
L 368.181102 197.927791 
L 368.255085 197.674386 
L 368.477032 192.995897 
L 368.551014 198.301309 
L 368.698979 191.298956 
L 368.772962 191.821881 
L 368.846944 193.441921 
L 368.920926 192.473705 
L 368.994909 194.060056 
L 369.068891 193.809579 
L 369.142874 192.707337 
L 369.216856 195.133003 
L 369.290838 190.88589 
L 369.364821 192.470776 
L 369.438803 192.925588 
L 369.512786 192.28182 
L 369.586768 189.873731 
L 369.66075 190.726962 
L 369.734733 193.666031 
L 369.808715 193.142375 
L 369.882698 189.112781 
L 370.030662 194.628388 
L 370.104645 189.445285 
L 370.25261 193.079389 
L 370.326592 190.241389 
L 370.400575 193.774425 
L 370.474557 187.440741 
L 370.622522 196.705438 
L 370.696504 195.004102 
L 370.918451 198.383336 
L 370.992434 196.811634 
L 371.066416 197.231291 
L 371.140399 206.205962 
L 371.214381 200.92179 
L 371.288363 201.53553 
L 371.362346 201.164942 
L 371.436328 195.646406 
L 371.658276 200.764326 
L 371.732258 198.411899 
L 371.80624 200.228219 
L 371.880223 194.090816 
L 371.954205 200.5014 
L 372.028188 199.537578 
L 372.10217 197.757878 
L 372.176152 199.525128 
L 372.250135 196.55896 
L 372.3981 202.996642 
L 372.472082 203.122613 
L 372.989959 241.204542 
L 373.063941 237.445199 
L 373.137924 240.745335 
L 373.211906 238.490315 
L 373.285889 242.035069 
L 373.359871 241.256541 
L 373.433853 241.961098 
L 373.507836 240.563703 
L 373.581818 242.116364 
L 373.581818 242.116364 
" style="fill:none;stroke:#1f77b4;stroke-linecap:square;stroke-width:1.5;"/>
   </g>
   <g id="patch_3">
    <path d="M 54 252 
L 54 34.56 
" style="fill:none;stroke:#000000;stroke-linecap:square;stroke-linejoin:miter;stroke-width:0.8;"/>
   </g>
   <g id="patch_4">
    <path d="M 388.8 252 
L 388.8 34.56 
" style="fill:none;stroke:#000000;stroke-linecap:square;stroke-linejoin:miter;stroke-width:0.8;"/>
   </g>
   <g id="patch_5">
    <path d="M 54 252 
L 388.8 252 
" style="fill:none;stroke:#000000;stroke-linecap:square;stroke-linejoin:miter;stroke-width:0.8;"/>
   </g>
   <g id="patch_6">
    <path d="M 54 34.56 
L 388.8 34.56 
" style="fill:none;stroke:#000000;stroke-linecap:square;stroke-linejoin:miter;stroke-width:0.8;"/>
   </g>
  </g>
 </g>
 <defs>
  <clipPath id="p01562e76b3">
   <rect height="217.44" width="334.8" x="54" y="34.56"/>
  </clipPath>
 </defs>
</svg>
